<svg width="10" height="10" viewBox="0 0 10 10" fill="none" xmlns="http://www.w3.org/2000/svg">
<path d="M8 8.54545C8 8.93122 7.84675 9.30119 7.57397 9.57397C7.30119 9.84675 6.93122 10 6.54545 10H1.45455C1.06878 10 0.698807 9.84675 0.426027 9.57397C0.153246 9.30119 0 8.93122 0 8.54545V3.45455C0 3.06878 0.153246 2.69881 0.426027 2.42603C0.698807 2.15325 1.06878 2 1.45455 2V2.72727C1.26166 2.72727 1.07668 2.8039 0.940286 2.94029C0.803896 3.07668 0.727273 3.26166 0.727273 3.45455V8.54545C0.727273 8.73834 0.803896 8.92332 0.940286 9.05971C1.07668 9.1961 1.26166 9.27273 1.45455 9.27273H6.54545C6.73834 9.27273 6.92332 9.1961 7.05971 9.05971C7.1961 8.92332 7.27273 8.73834 7.27273 8.54545H8Z" fill="#2989A8"/>
<path d="M3.45455 0.727273C3.26166 0.727273 3.07668 0.803896 2.94029 0.940286C2.8039 1.07668 2.72727 1.26166 2.72727 1.45455V6.54545C2.72727 6.73834 2.8039 6.92332 2.94029 7.05971C3.07668 7.1961 3.26166 7.27273 3.45455 7.27273H8.54545C8.73834 7.27273 8.92332 7.1961 9.05971 7.05971C9.1961 6.92332 9.27273 6.73834 9.27273 6.54545V1.45455C9.27273 1.26166 9.1961 1.07668 9.05971 0.940286C8.92332 0.803896 8.73834 0.727273 8.54545 0.727273H3.45455ZM3.45455 0H8.54545C8.93122 0 9.30119 0.153246 9.57397 0.426027C9.84675 0.698807 10 1.06878 10 1.45455V6.54545C10 6.93122 9.84675 7.30119 9.57397 7.57397C9.30119 7.84675 8.93122 8 8.54545 8H3.45455C3.06878 8 2.69881 7.84675 2.42603 7.57397C2.15325 7.30119 2 6.93122 2 6.54545V1.45455C2 1.06878 2.15325 0.698807 2.42603 0.426027C2.69881 0.153246 3.06878 0 3.45455 0Z" fill="#2989A8"/>
</svg>
