<svg width="288" height="296" viewBox="0 0 288 296" fill="none" xmlns="http://www.w3.org/2000/svg">
<g filter="url(#filter0_d_487_237)">
<path d="M201.024 0.761932C200.001 1.20944 198.721 1.97659 198.209 2.45605C197.122 3.47894 195.714 6.06812 195.714 7.02707V7.66638H155.282H114.85L114.114 6.164C113.698 5.33292 112.963 4.37396 112.483 4.05432C111.523 3.3511 109.028 2.99948 107.269 3.31912C105.574 3.63876 103.782 5.58865 103.079 7.89014C102.759 8.91302 102.471 9.80804 102.439 9.84C102.407 9.90393 101.255 9.58429 99.9119 9.1048C96.7131 8.01797 92.7467 7.15494 88.5563 6.67545C84.4299 6.22794 74.7377 6.48367 71.1231 7.15494C68.948 7.57047 63.766 7.66638 36.1927 7.66638H3.7894V39.6954C3.7894 66.7698 3.72542 72.1399 3.30959 74.2496C2.06207 80.7065 2.09406 90.1682 3.30959 96.8809C3.72542 99.0545 5.29281 104.616 5.90057 105.959C5.96455 106.119 5.16486 106.534 4.10927 106.854C0.590648 107.877 -1.36059 110.658 -0.880778 113.95C-0.59289 115.74 1.03847 117.722 2.70182 118.266L3.7894 118.649V159.053C3.7894 197.315 3.75741 199.457 3.24561 199.457C2.06207 199.457 -0.59289 201.023 -1.74444 202.334C-4.01555 205.019 -4.6553 209.622 -3.27984 213.266C-2.41618 215.535 -0.177053 218.06 2.09406 219.339L3.7894 220.298V254.149V288H4.74902H5.70865V254.501V220.969L9.03535 221.129C15.145 221.385 21.3505 219.339 28.1639 214.736C44.1576 203.996 52.9862 177.816 49.6595 151.094C48.6679 142.911 46.0129 135.015 42.3663 129.325C41.7266 128.303 41.2148 127.439 41.2788 127.408C41.3427 127.376 42.3024 127.088 43.4539 126.768C52.1545 124.435 59.1278 115.964 59.1278 107.717C59.1278 104.744 58.616 103.306 57.0806 101.772C54.8735 99.534 51.8027 99.1824 49.9474 100.877L49.0517 101.676L50.1713 101.004C52.6343 99.5979 55.8971 100.717 57.2085 103.402C57.8163 104.68 57.9123 105.256 57.7843 107.717C57.6564 110.274 57.5284 110.818 56.2809 113.311C53.2741 119.384 47.5483 123.668 41.1828 124.595L39.3595 124.882L37.9841 123.124C35.9049 120.535 31.3946 116.412 28.1959 114.174C26.6605 113.087 25.0931 112 24.7412 111.777C24.1335 111.329 24.1654 111.297 25.189 109.187C26.8844 105.767 29.3154 103.05 40.2232 92.4058C50.4592 82.4007 53.498 79.0124 55.2573 75.4643C56.8247 72.3637 57.8483 68.6237 58.3601 64.2126L58.552 62.4225L60.9191 62.1988C64.4057 61.8791 67.8604 60.9202 71.1231 59.3539C75.8892 57.0524 78.7681 54.4952 91.3712 41.3256C95.0817 37.4258 99.2401 33.3663 100.584 32.2795C102.823 30.4894 105.926 28.6674 107.173 28.3797C107.525 28.3158 108.197 29.051 109.252 30.6812C111.619 34.2613 115.394 38.6086 118.305 41.1018L120.928 43.3074L120.736 45.0016C119.776 53.3764 112.163 61.048 103.91 61.8791C99.7519 62.3266 96.5532 60.0251 96.5532 56.5729C96.5532 55.8377 96.7771 54.8148 97.033 54.2395L97.5448 53.2166L96.905 53.9518C96.1373 54.8468 95.7535 56.509 96.0414 57.9474C96.7771 61.9111 101.191 63.9568 106.565 62.87C114.402 61.2718 121.248 54.5911 123.103 46.7596L123.487 45.0975L125.118 46.1523C130.78 49.7644 137.977 52.2896 146.454 53.6002C152.052 54.4632 164.815 54.3673 170.988 53.4404C192.58 50.084 207.358 40.8461 214.235 26.3659C216.666 21.2515 217.658 16.8723 217.37 12.557L217.178 9.90393H250.573H284V8.78516V7.66638H250.157H216.346L215.579 6.25992C214.523 4.21414 212.284 2.10446 210.205 1.04959C207.582 -0.229004 203.679 -0.356873 201.024 0.761932ZM209.725 1.4332C210.941 1.97659 212.252 2.90356 213.116 3.83057C214.491 5.30096 215.739 7.28281 215.451 7.53851C215.387 7.6344 212.604 7.6344 209.277 7.60245L203.232 7.50656L204.319 6.93118C205.375 6.32385 206.654 6.32385 208.03 6.86725C208.509 7.05905 208.477 6.96313 207.87 6.51562C206.654 5.62061 203.807 5.52472 202.176 6.3558C201.472 6.70743 200.8 7.15494 200.673 7.34671C200.577 7.50656 199.489 7.66638 198.241 7.66638C195.778 7.66638 195.682 7.53851 196.482 5.62061C198.401 1.01764 204.479 -0.93222 209.725 1.4332ZM111.587 6.00418C112.195 6.64349 112.579 7.41064 112.707 8.40158L112.931 9.90393H154.291H195.618L195.842 11.1506C196.226 13.5479 199.297 16.9043 201.12 16.9362C201.376 16.9362 200.864 16.5846 199.969 16.1371C197.858 15.0823 196.034 12.4611 196.034 10.5113C196.034 9.99982 196.258 9.90393 197.602 9.90393C198.689 9.90393 199.233 10.0318 199.361 10.3834C199.457 10.6391 199.905 10.8629 200.353 10.8629C200.8 10.8629 201.248 10.6391 201.344 10.3834C201.504 9.96786 202.656 9.90393 208.989 9.90393H216.442L216.634 10.8948C217.786 16.7125 215.035 25.2472 209.597 32.5991C203.871 40.3986 194.467 46.3761 182.568 49.8283C177.961 51.1708 177.546 51.043 181.64 49.5726C187.686 47.4309 191.844 45.0335 194.851 41.9969C197.218 39.6314 198.305 37.5217 198.529 34.9645C198.657 33.2384 198.561 32.695 197.858 31.2566C197.058 29.6264 195.011 27.7724 194.531 28.2519C194.435 28.3478 194.499 28.4437 194.691 28.4437C195.363 28.4437 197.09 30.2018 197.666 31.4803C199.361 35.1563 197.314 39.983 192.548 43.5631C187.174 47.5907 178.185 50.7553 168.205 52.1617C164.207 52.7052 149.461 52.7052 145.974 52.1298C141.464 51.4265 135.034 49.6045 138.681 50.084C140.472 50.3078 143.639 49.6685 145.622 48.6776C146.486 48.23 147.989 47.1432 148.949 46.2482C151.924 43.4353 152.915 40.974 152.915 36.7546C152.851 28.3797 146.038 20.9958 136.058 18.4706C133.531 17.8313 132.347 17.7354 126.621 17.7354C121.535 17.7354 119.488 17.8632 117.537 18.3107L115.01 18.8542L113.187 17.0641C111.076 15.0183 109.028 13.516 106.277 11.9497L104.294 10.8629L104.582 9.55231C105.286 6.48367 106.661 5.10916 109.092 5.10916C110.404 5.10916 110.82 5.26898 111.587 6.00418ZM58.1362 10.9908C49.3076 14.8585 42.3663 21.1237 38.9437 28.2838C37.4083 31.4803 36.7685 33.9097 36.5126 37.4258L36.3207 40.1749L33.6977 40.3666C30.403 40.5904 27.6521 41.2936 24.7092 42.6681C17.704 45.8966 12.2341 51.6183 7.94777 60.2489L5.70865 64.724V37.298V9.90393H33.1539L60.5672 9.93588L58.1362 10.9908ZM92.0749 10.8309C95.4336 11.4063 100.296 12.8447 101.895 13.7078C102.343 13.9315 102.599 14.5069 102.759 15.5617C102.919 16.8723 104.262 21.0917 104.966 22.6899C105.126 23.0416 104.454 23.7128 102.407 25.1513C97.2889 28.7633 92.4588 33.8458 85.0377 43.4033C82.7026 46.44 80.7514 48.8693 80.6874 48.8374C80.6554 48.7735 80.8153 47.8145 81.1032 46.6638C81.7749 43.723 81.5191 39.2479 80.4315 35.9555C76.9768 25.2791 65.0135 20.836 55.929 26.9093C52.0266 29.4985 49.4036 33.5261 48.7958 37.8734C48.476 39.983 48.5079 40.5265 49.0837 42.4763L49.7235 44.6499L47.9642 43.5951C46.1729 42.5722 43.5819 41.5493 40.9269 40.91L39.5195 40.5265L39.7114 37.9053C39.9033 35.476 40.671 32.0877 41.1508 31.5762C41.2788 31.4484 41.3747 32.1836 41.4067 33.2384C41.4387 34.549 41.6626 35.412 42.1424 36.2112C42.9101 37.4578 43.358 37.7135 44.8614 37.7135C47.3884 37.7135 48.5399 35.5399 48.5719 30.7771C48.5719 28.9871 48.7319 26.7495 48.9238 25.8225C49.4356 23.3612 50.907 20.4524 52.5704 18.5984C55.7691 15.0183 65.8772 11.2784 74.9616 10.2236C78.9281 9.77606 87.8206 10.0957 92.0749 10.8309ZM108.708 17.7673C111.651 19.9729 111.651 19.9729 109.156 21.0917C107.973 21.6031 106.917 22.0507 106.789 22.0507C106.533 22.0507 105.094 17.8632 104.71 16.0092L104.486 14.9225L105.702 15.6577C106.405 16.0732 107.749 17.0321 108.708 17.7673ZM136.058 19.7811C143.799 21.699 149.301 26.3979 151.444 32.9188C152.243 35.412 152.179 39.2479 151.284 41.5493C150.26 44.2344 147.861 46.7277 144.918 48.1661C142.647 49.3168 142.295 49.3808 139.608 49.3808C135.93 49.3488 133.947 48.5497 131.931 46.3121C130.268 44.4901 129.5 42.4444 129.5 40.015C129.5 35.5719 131.835 32.727 136.058 32.0877C136.953 31.9598 137.465 31.8 137.273 31.7361C136.442 31.4484 133.339 32.3434 132.091 33.2384C130.108 34.7088 129.052 36.9783 129.052 39.9511C129.021 42.0608 129.18 42.6681 130.076 44.5221C130.684 45.7368 131.643 47.0473 132.315 47.6227C132.955 48.1341 133.371 48.5817 133.243 48.5817C132.795 48.5817 127.165 45.6409 125.502 44.5541L123.839 43.4353L123.647 39.3757C123.423 34.517 122.431 30.5534 120.576 26.9093L119.904 25.5988L120.736 25.0234C121.184 24.7357 122.207 24.3202 123.007 24.1284L124.478 23.7448L123.199 23.2334C122.495 22.9776 120.992 22.5621 119.872 22.3383C118.433 22.0826 117.601 21.699 117.089 21.1556C116.417 20.4524 116.385 20.3246 116.833 20.0688C119.136 18.7902 131.324 18.5984 136.058 19.7811ZM113.091 21.763C113.379 22.0507 112.867 22.3703 111.012 23.0096C109.668 23.4891 108.293 23.9686 108.005 24.0964C107.685 24.2563 107.429 24.2243 107.429 24.0645C107.429 23.7768 111.779 21.4753 112.419 21.4433C112.579 21.4113 112.899 21.5712 113.091 21.763ZM103.718 26.7176C102.311 27.7085 100.808 28.8272 100.36 29.1789C99.9119 29.5624 100.2 29.2428 100.999 28.4756C102.503 27.0372 105.446 24.9275 105.926 24.9275C106.085 24.9275 105.094 25.7266 103.718 26.7176ZM67.9244 26.0463C70.5793 26.7495 72.8504 28.156 74.8976 30.3616C76.8809 32.5032 78.0644 34.7088 78.8321 37.7135C79.5358 40.5584 79.3119 45.481 78.3523 48.0063C77.6166 49.8603 75.1855 53.8559 74.8976 53.5682C74.8337 53.5043 75.1215 52.8969 75.5694 52.1937C78.5762 47.5907 76.6569 40.5265 71.7948 38.3209C69.4917 37.266 69.3318 37.3939 70.0675 39.6954C70.9312 42.4124 70.8992 46.44 70.0355 49.189C68.5641 53.9198 64.5017 57.5319 59.6716 58.4589L58.2321 58.7146L57.8163 56.7967C57.4005 54.7829 55.7051 50.979 54.6495 49.6365C54.2977 49.189 54.1058 48.7095 54.2017 48.5497C54.2977 48.3899 54.2337 48.262 54.1058 48.262C53.9458 48.262 53.1461 47.6547 52.3145 46.8875C47.8042 42.796 48.38 35.5719 53.6579 30.3616C57.8483 26.2061 62.8064 24.7357 67.9244 26.0463ZM115.778 28.5715C116.833 29.1149 117.377 29.2428 117.633 28.9871C118.337 28.2838 120.384 34.4211 120.832 38.5127C120.96 39.9191 121.024 41.1338 120.96 41.1977C120.736 41.4854 115.394 35.9874 113.379 33.3983C111.107 30.5214 109.668 28.3158 109.668 27.7724C109.668 27.1011 114.082 27.6765 115.778 28.5715ZM37.1844 45.6089C37.6002 47.4309 38.208 48.8374 40.5111 53.4723C40.575 53.6002 40.2232 53.5362 39.7114 53.3445C34.8493 51.4905 29.3474 52.9928 25.0611 57.3401C21.4785 60.9841 19.8471 65.1076 20.199 69.7106C20.7428 76.679 24.9971 81.8893 32.2583 84.4465C34.6254 85.3095 40.703 85.5652 43.0701 84.9259C43.9657 84.6702 44.7334 84.5743 44.7334 84.6702C44.7334 84.7661 43.6778 85.6611 42.4303 86.6201C31.4266 95.0269 25.381 100.557 21.7664 105.416C20.6788 106.886 19.6872 108.292 19.5273 108.548C19.3033 108.932 18.8555 108.836 16.6804 108.037C15.2409 107.525 13.1298 106.918 11.9782 106.726L9.86703 106.343L8.93939 103.913C6.73225 98.1275 5.86859 91.6706 6.12449 83.1039C6.38039 74.5693 7.8838 68.2082 11.2425 61.3996C12.9378 57.9155 14.0574 56.6049 16.5844 54.9747C19.3353 53.2166 21.4465 52.6732 25.9248 52.5773C30.6269 52.4494 32.5142 51.8741 33.3459 50.2119C34.7533 47.4948 32.8341 45.3212 28.9956 45.2893C27.972 45.2893 27.1403 45.2253 27.1403 45.1934C27.1403 44.7458 32.866 43.5951 35.3291 43.4992L36.6406 43.4673L37.1844 45.6089ZM43.9337 45.1614C46.3648 46.1523 49.6915 48.4538 51.1309 50.116C52.9542 52.2576 54.5856 55.4861 54.6815 57.2122L54.7775 58.6507L53.2421 58.5548C49.3716 58.363 44.1896 54.0477 41.8226 49.0931C41.1508 47.6866 40.5111 45.9605 40.3831 45.2573L40.1592 44.0426L41.2468 44.2664C41.8545 44.3942 43.0701 44.7778 43.9337 45.1614ZM39.6474 53.8879C40.703 54.2075 41.6306 54.8788 42.8142 56.0934C43.7098 57.0524 44.5095 57.8515 44.6055 57.8515C44.7014 57.8515 45.2452 58.2031 45.789 58.6187C47.3564 59.8014 50.7471 61.3357 52.8263 61.7513L54.7135 62.1348L54.5216 63.3495C54.0418 66.2264 53.0182 68.1762 50.6831 70.5097C48.1881 73.003 46.3008 73.93 42.5263 74.5373C40.1912 74.8889 36.3527 74.4734 34.7853 73.6423C34.2415 73.3866 33.7297 73.1948 33.6657 73.2587C33.6018 73.3226 33.6977 73.93 33.8896 74.5693C34.5294 76.9666 37.3763 79.7476 39.9673 80.5148C42.6862 81.3459 46.4288 80.7705 48.6679 79.2042L49.6915 78.501L48.9558 79.332C47.9642 80.4189 44.7974 82.113 42.6862 82.6564C41.7906 82.9121 39.6474 83.1039 37.9521 83.1039C32.2903 83.1039 27.5881 80.9303 24.5173 76.8707C20.9987 72.2678 20.7748 65.3633 23.9095 60.4727C27.748 54.5911 33.8577 52.0339 39.6474 53.8879ZM27.1403 102.059C27.1403 102.123 26.8204 102.443 26.4366 102.794L25.7008 103.402L26.3086 102.667C26.8844 101.995 27.1403 101.803 27.1403 102.059ZM24.3894 105.352C23.5897 106.343 22.5661 107.749 22.0863 108.484C21.6384 109.187 21.2226 109.859 21.1586 109.923C21.0946 109.987 20.9987 109.987 20.9027 109.891C20.6148 109.603 25.253 103.562 25.7648 103.562C25.8288 103.562 25.221 104.361 24.3894 105.352ZM8.26765 110.658C9.77106 113.247 12.1062 116.252 13.7695 117.882L14.8571 118.905L14.2813 121.686C13.4816 125.713 13.2577 130.636 13.6735 134.728C14.4732 142.271 16.4565 146.938 20.7428 151.221C23.8456 154.322 26.2766 155.697 30.0831 156.496C34.5934 157.455 38.4319 156.432 41.6626 153.395C44.7654 150.486 46.5887 145.979 46.1409 142.335C45.885 140.225 46.5247 142.143 47.4204 146.107C47.9002 148.313 48.38 151.861 48.5719 155.025C50.2033 178.424 42.3663 199.936 31.4906 201.982C29.9232 202.27 29.8272 202.174 31.0108 201.566C31.3946 201.375 32.1623 200.671 32.6741 200C33.4418 199.041 33.6977 198.434 33.7937 196.932C33.9216 195.141 33.4098 193.415 32.5782 192.904C32.4182 192.808 32.4822 193.128 32.7381 193.607C33.6977 195.461 32.994 197.347 30.6909 198.977C29.5393 199.808 29.0595 200.384 29.0595 200.895C29.0595 201.311 29.2515 201.726 29.4754 201.79C29.6673 201.886 29.5074 201.982 29.0595 201.982C27.908 202.014 25.8288 200.735 24.9971 199.489C24.5813 198.881 24.2614 198.562 24.2614 198.754C24.2614 199.393 25.9248 201.087 27.2043 201.726C30.2431 203.293 34.2735 202.206 37.7281 198.913C41.0229 195.781 43.326 191.849 45.5651 185.552C47.2284 180.885 47.3564 181.173 45.885 186.255C40.8949 203.548 30.7549 215.152 16.7443 219.595C14.3453 220.362 8.9074 220.809 6.8602 220.426L5.70865 220.202V212.882C5.70865 205.882 5.74064 205.53 6.3484 205.21C7.18007 204.763 7.18007 203.74 6.3484 203.293C5.8366 203.005 5.70865 202.621 5.70865 201.311V199.681L6.89219 199.872C8.29964 200.128 10.6987 201.535 11.5304 202.685C11.8503 203.133 12.3301 204.06 12.586 204.763C12.8419 205.434 13.0338 205.754 13.0658 205.434C13.0658 204.507 11.9142 202.493 10.7307 201.471C9.80305 200.639 8.07572 199.84 6.12449 199.265C5.80461 199.169 5.70865 190.634 5.70865 157.966V116.763L4.42915 116.539C3.69344 116.443 2.70182 115.964 2.15804 115.453C1.29437 114.685 1.13444 114.302 1.10245 113.055C1.07046 111.233 1.83816 110.082 3.7894 109.06C6.18846 107.845 6.70026 108.037 8.26765 110.658ZM15.3049 109.539C16.6164 109.955 17.8319 110.434 17.9599 110.562C18.2158 110.818 16.2965 115.069 15.9127 115.069C15.4648 115.069 11.1465 109.219 11.1465 108.58C11.1465 108.292 12.2341 108.516 15.3049 109.539ZM19.3033 113.886C18.8555 115.069 18.5037 116.316 18.5037 116.667C18.5037 117.402 18.0878 117.498 17.608 116.891C17.3521 116.603 17.608 115.772 18.5676 113.79C20.0391 110.658 20.4869 110.722 19.3033 113.886ZM27.0443 115.453C31.4906 118.521 37.5362 124.307 36.9285 124.882C36.5446 125.266 30.467 124.051 27.6841 123.028C25.5089 122.261 24.9012 121.91 25.0611 121.526C25.1571 121.27 24.9331 120.407 24.5493 119.608C24.1015 118.681 23.7816 117.307 23.6856 115.772C23.4937 112.927 23.3977 112.927 27.0443 115.453ZM17.2561 120.951C17.8639 121.494 18.1518 122.165 18.2797 123.284C18.3757 124.115 18.7915 125.681 19.1754 126.736L19.9111 128.654L20.135 127.12C20.3589 125.617 21.1586 124.019 21.6384 124.019C21.7664 124.019 23.0139 124.499 24.4213 125.106C28.4518 126.768 30.7229 127.28 35.3291 127.439L39.5195 127.599L40.799 129.741C42.0465 131.755 44.7334 136.933 44.7334 137.285C44.7334 137.381 44.1896 136.837 43.5499 136.102C42.8781 135.399 41.4707 134.376 40.4151 133.864C37.0244 132.266 32.4822 132.778 30.0511 134.983C28.7716 136.166 27.78 138.659 27.812 140.641L27.876 142.399L28.0999 140.289C28.4198 137.7 28.9636 136.55 30.6589 135.143C32.8021 133.289 35.6809 132.81 38.9117 133.769C44.7334 135.495 47.2284 142.655 44.1896 148.952C43.0701 151.253 40.4151 153.875 38.112 154.961C36.4806 155.697 35.8729 155.824 33.2179 155.792C28.4838 155.761 24.8052 154.098 21.3186 150.422C16.8723 145.819 14.985 139.97 14.985 130.956C14.985 126.481 15.7207 120.183 16.2325 120.183C16.3605 120.183 16.8083 120.535 17.2561 120.951ZM3.7894 201.886C3.7894 203.676 3.66145 204.156 2.98971 204.955C1.42232 206.809 1.19841 210.133 2.54189 211.667C3.18164 212.403 3.18164 212.403 2.86176 211.699C2.28599 210.581 2.44592 208.567 3.11766 207.736C3.75741 206.969 3.75741 206.969 3.75741 213.106C3.7894 217.997 3.69344 219.275 3.37356 219.275C2.70182 219.275 0.0468597 217.421 -0.84879 216.334C-3.31183 213.425 -4.17549 209.366 -3.08792 205.658C-2.28823 202.813 0.846548 200.032 3.40555 199.808C3.66145 199.776 3.7894 200.384 3.7894 201.886Z" fill="url(#paint0_linear_487_237)"/>
</g>
<defs>
<filter id="filter0_d_487_237" x="-8" y="-7.62939e-06" width="296" height="296" filterUnits="userSpaceOnUse" color-interpolation-filters="sRGB">
<feFlood flood-opacity="0" result="BackgroundImageFix"/>
<feColorMatrix in="SourceAlpha" type="matrix" values="0 0 0 0 0 0 0 0 0 0 0 0 0 0 0 0 0 0 127 0" result="hardAlpha"/>
<feOffset dy="4"/>
<feGaussianBlur stdDeviation="2"/>
<feComposite in2="hardAlpha" operator="out"/>
<feColorMatrix type="matrix" values="0 0 0 0 0 0 0 0 0 0 0 0 0 0 0 0 0 0 0.25 0"/>
<feBlend mode="normal" in2="BackgroundImageFix" result="effect1_dropShadow_487_237"/>
<feBlend mode="normal" in="SourceGraphic" in2="effect1_dropShadow_487_237" result="shape"/>
</filter>
<linearGradient id="paint0_linear_487_237" x1="140" y1="288" x2="140" y2="0" gradientUnits="userSpaceOnUse">
<stop offset="0.567708" stop-color="#71A8CA" stop-opacity="0.83"/>
<stop offset="1" stop-color="#1C2D46"/>
</linearGradient>
</defs>
</svg>
