<svg width="284" height="297" viewBox="0 0 284 297" fill="none" xmlns="http://www.w3.org/2000/svg">
<g filter="url(#filter0_d_487_236)">
<path d="M37.4062 10.3363L70.7524 10.2399L70.7642 14.301C70.7783 19.1937 71.3937 21.7182 73.8404 26.7636C80.6983 41.07 95.0301 50.3022 115.425 53.5689C129 55.7361 142.887 54.8645 153.277 51.189C155.962 50.2219 161.747 47.4231 163.727 46.1062L164.749 45.4317L164.976 46.3265C166.727 54.188 172.698 60.6303 180.161 62.8152C182.883 63.6068 186.723 63.4678 188.736 62.5346C192.38 60.8292 193.549 55.8372 190.823 53.6706C190.438 53.3519 190.47 53.5117 190.984 54.1498C191.98 55.4261 191.987 57.9843 190.968 59.4582C188.833 62.6622 184.033 63.0278 178.714 60.453C172.817 57.592 168.287 51.5613 167.47 45.4878L167.241 43.8576L171.007 40.2651C174.677 36.7369 177.42 33.4673 179.458 30.1356C180.573 28.2777 180.637 28.2775 183.136 29.4854C185.989 30.9162 189.39 33.9443 199.019 43.7657C204.572 49.4097 210.284 54.9574 211.663 56.0727C216.122 59.6093 220.672 61.4829 226.658 62.265L229.732 62.6399L229.962 64.7497C230.555 70.5361 232.521 75.5829 235.862 79.9862C236.987 81.454 242.283 86.9069 248.284 92.7096C258.939 103.04 261.09 105.368 262.827 108.497C264.5 111.53 264.595 111.306 260.922 113.779C258.622 115.32 256.324 117.309 253.229 120.42C249.846 123.82 248.633 124.847 248.025 124.848C246.649 124.852 243.414 123.902 241.203 122.853C238.254 121.455 234.05 117.278 232.377 114.117C229.609 108.817 229.818 103.668 232.852 101.484C234.13 100.585 237.426 100.416 238.452 101.212C238.773 101.467 238.74 101.371 238.323 100.989C236.847 99.5859 233.903 99.7543 231.764 101.327C231.253 101.713 230.488 102.738 230.042 103.667C229.374 105.012 229.248 105.78 229.254 107.826C229.311 116.396 236.633 125.041 245.567 127.094L247.265 127.473L246.436 128.786C244.971 131.221 242.585 136.184 241.728 138.617C238.871 146.588 237.56 158.104 238.39 168.143C240.677 195.637 252.155 213.831 271.214 220.14C274.033 221.091 274.577 221.153 278.642 221.142L283.058 221.161L283.155 254.578L283.252 288.027L284.115 287.96L285.011 287.925L285.009 254.061L284.975 220.196L286.733 219.264C288.778 218.202 290.66 216.214 291.71 214.005C292.696 211.987 292.908 207.638 292.133 205.337C291.197 202.558 287.796 199.562 285.556 199.568C284.916 199.57 284.915 199.442 284.799 159.15L284.682 118.73L286.184 117.991C291.233 115.482 290.125 108.674 284.424 106.963C283.399 106.646 282.534 106.361 282.47 106.329C282.438 106.297 282.66 105.497 283.009 104.569C285.073 98.9668 285.983 92.9203 285.929 85.2457C285.886 81.5044 285.719 78.8507 285.329 76.7733C284.809 74.0246 284.735 70.5712 284.552 40.7042L284.361 7.70338L252.359 7.79594C223.269 7.88007 220.101 7.8253 217.411 7.3534C213.12 6.53439 199.711 6.60515 195.426 7.41699C192.995 7.9037 188.07 9.29301 185.929 10.1306C185.705 10.1952 185.448 9.74826 185.318 9.07709C184.797 6.26453 182.999 4.15918 180.597 3.52657C177.875 2.79894 175.254 3.95774 173.981 6.51966L173.25 8.02474L132.895 8.07749L92.5719 8.0982L92.1193 6.53258C91.4731 4.39192 88.9375 1.84101 86.5991 1.08029C84.0365 0.256274 79.941 0.523949 77.6403 1.71377C75.5633 2.80704 73.1699 5.14835 72.3751 6.97341L71.771 8.31824L37.8807 8.41626L4.02249 8.51419L4.02526 9.47353L4.02803 10.4329L37.4062 10.3363ZM71.6497 10.653C71.8409 10.3646 73.7607 10.2632 79.041 10.2159C85.7614 10.1965 86.2095 10.2271 86.7553 10.8331C87.4938 11.6624 88.4219 11.6597 88.6755 10.8276C88.834 10.3155 89.1536 10.1867 90.4657 10.1829C91.9378 10.1786 92.034 10.2423 92.0361 10.9778C92.0413 12.7685 90.289 15.4598 88.3722 16.6165C87.8612 16.9697 87.5739 17.2264 87.7659 17.2258C88.3419 17.2242 90.1936 15.6839 91.0222 14.4983C91.4685 13.8894 91.9771 12.7048 92.1987 11.8727L92.5783 10.3367L133.893 10.1212L175.175 9.93788L175.396 8.65809C175.962 5.29874 179.479 4.20135 182.014 6.59237C182.849 7.42138 183.235 8.28367 183.689 10.297C183.851 11.064 183.692 11.2243 181.519 12.4458C179.218 13.6995 175.195 16.7491 173.759 18.3202L173.026 19.0898L170.24 18.4903C166.813 17.7967 158.428 17.661 154.686 18.2794C148.992 19.2233 144.23 21.5075 140.721 25.0672C136.764 29.044 135.175 32.8859 135.381 38.0018C135.485 40.5278 135.615 41.1989 136.548 43.051C137.771 45.5417 140.275 47.9648 142.806 49.1407C144.825 50.1262 148.059 50.7244 149.691 50.4639C152.186 50.0409 149.852 50.8791 146.206 51.7211C143.711 52.2719 140.544 52.6968 136.609 52.964C122.115 53.9333 107.45 51.2576 98.4737 45.9432C95.5886 44.2567 92.1551 41.0368 91.029 38.9615C89.4205 36.0562 89.5709 32.762 91.357 30.6462C92.4413 29.364 93.2082 28.9461 95.1276 28.6847L96.7271 28.4882L95.3508 28.4282C93.4946 28.4016 91.6414 29.3983 90.59 31.0322C89.8253 32.1856 89.6987 32.6657 89.7048 34.7762C89.7135 37.7821 90.4543 39.4428 92.9905 42.1856C96.0401 45.4386 101.105 48.3019 107.255 50.2988C108.792 50.774 110.01 51.2501 109.946 51.3143C109.85 51.3785 108.377 51.063 106.648 50.5884C94.2853 47.2664 84.4748 41.155 78.435 33.05C75.2865 28.806 72.5172 22.8981 71.5764 18.5198C71.2518 16.9218 71.2993 11.2296 71.6497 10.653ZM73.1106 6.77942C73.938 5.17811 76.651 2.67599 78.5046 1.80722C80.6139 0.809815 85.1262 0.796765 87.2091 1.75006C89.0036 2.5763 90.6404 4.17048 91.4133 5.86307C92.4438 8.09857 92.3483 8.25873 89.8201 8.26604C88.22 8.27067 87.5156 8.14477 87.1945 7.76197C85.7173 6.00745 81.8761 5.69879 80.0243 7.17513C79.4177 7.68855 79.4177 7.68858 80.0888 7.36684C81.2392 6.78792 83.2238 6.94203 84.0579 7.64314L84.8277 8.2485L78.6514 8.29834C75.2912 8.30806 72.5068 8.25218 72.5065 8.15623C72.5063 8.06032 72.7924 7.4199 73.1106 6.77942ZM136.935 32.8489C138.806 27.0874 143.945 22.5316 151.108 20.3684C155.009 19.2059 163.232 18.8623 168.291 19.7111C170.116 19.9936 171.653 20.277 171.717 20.3407C171.781 20.4045 171.495 20.917 171.112 21.4298C170.634 22.1027 170.155 22.4239 169.579 22.4255C168.075 22.4299 163.183 23.9789 163.92 24.2007C164.08 24.2642 164.752 24.3901 165.393 24.4842C166.065 24.6102 166.93 24.9594 167.379 25.3099L168.213 25.947L167.132 28.2846C165.51 31.8068 164.688 35.4547 164.509 39.9642L164.361 43.8659L161.709 45.5045C158.067 47.7215 152.442 50.264 155.381 48.3688C158.32 46.4736 159.969 41.4483 158.903 37.7739C157.901 34.3871 155.335 32.4119 151.814 32.1982L149.862 32.1079L151.846 32.39C154.184 32.703 155.273 33.2435 156.653 34.6785C158.098 36.1773 158.678 37.7426 158.686 40.2688C158.713 49.6703 146.946 53.2219 139.693 46.0158C136.131 42.5086 135.222 38.1622 136.935 32.8489ZM167.48 37.941C167.854 34.5182 169.917 28.7562 170.527 29.362C170.72 29.5533 171.455 29.3593 172.478 28.8447C174.267 27.9761 178.49 27.4523 178.492 28.0918C178.495 28.9872 174.191 34.7237 171.192 37.8343C167.809 41.2977 166.851 41.94 167.135 40.5642C167.23 40.1801 167.387 38.9965 167.48 37.941ZM175.402 21.8331C176.041 21.7033 181.04 23.9913 180.529 24.1846C180.337 24.2811 179.216 23.9646 178.063 23.5202C176.877 23.0759 175.596 22.7279 175.244 22.7289C174.444 22.7312 174.602 21.9953 175.402 21.8331ZM179.008 18.337C180.221 17.4381 181.722 16.3785 182.425 15.9608L183.639 15.2537L183.418 16.3416C183.008 18.3254 181.612 22.3907 181.324 22.3916C180.908 22.3928 176.87 20.3578 176.869 20.1659C176.869 20.07 177.826 19.2358 179.008 18.337ZM184.632 26.6351C185.755 27.4313 187.455 28.8334 188.418 29.726C189.829 31.033 189.637 30.9057 187.424 29.1533C185.884 27.9426 184.12 26.6365 183.479 26.2547C182.838 25.8408 182.357 25.4265 182.452 25.3622C182.548 25.266 183.51 25.8389 184.632 26.6351ZM184.261 19.9847C184.769 18.5762 185.276 16.72 185.369 15.8883C185.557 14.5447 185.717 14.2884 186.739 13.7738C193.705 10.2041 209.191 9.10399 219.407 11.4408C226.004 12.9247 232.957 15.9105 235.172 18.1746C238.253 21.3315 239.317 24.2384 239.591 30.2495C239.794 34.2142 239.925 35.0453 240.536 36.0028C242.561 39.2907 246.334 38.0646 246.834 33.906C246.959 32.9463 246.956 31.987 246.828 31.7316C246.635 31.4443 246.667 31.4122 246.923 31.6353C247.501 32.2093 248.31 35.4047 248.51 38.0583L248.71 40.648L246.535 41.1979C244.137 41.8124 240.812 43.2291 239.279 44.3208C238.353 44.995 238.289 45.0272 238.512 44.4189C239.179 42.8181 239.654 40.866 239.65 39.7788C239.633 33.671 234.782 27.2575 228.631 25.1647C222.705 23.1352 216.341 24.6886 211.938 29.2103C207.694 33.5396 205.794 40.5163 207.124 46.8441C207.676 49.4007 207.708 49.4007 202.954 43.3066C196.562 35.1387 193.159 31.3751 188.732 27.6785C187.224 26.4357 185.332 24.9702 184.466 24.461C183.408 23.7925 183.023 23.346 183.15 23.0258C183.277 22.7696 183.785 21.3931 184.261 19.9847ZM209.276 38.2358C210.759 30.9725 216.856 25.8383 223.961 25.7858C235.385 25.7208 243.62 40.183 235.991 46.9205C235.225 47.5943 233.949 49.1969 233.153 50.4783C231.847 52.5926 230.099 57.0107 230.103 58.1938C230.105 58.8973 229.017 58.8365 226.806 58.1074C223.251 56.9025 220.459 54.3524 218.785 50.8077C217.207 47.4865 217.159 41.8905 218.684 38.2086C218.875 37.7283 218.779 37.6966 217.883 37.9551C212.192 39.6024 209.587 46.1335 212.355 51.6897C213.256 53.4458 213.288 53.5737 212.615 52.968C211.62 52.0435 210.011 48.9463 209.461 46.9013C208.879 44.8244 208.802 40.5716 209.276 38.2358ZM282.063 9.78862C282.351 9.88373 282.464 15.7034 282.527 37.3524L282.606 64.7894L280.353 60.319C274.269 48.1529 265.224 41.2078 254.598 40.503L251.813 40.3192L251.807 38.3686C251.758 32.3888 248.859 25.9376 243.883 20.6437C240.545 17.1357 236.633 14.365 231.569 11.8853L227.563 9.94624L254.605 9.77209C269.486 9.69706 281.838 9.69335 282.063 9.78862ZM234.635 53.9276C235.812 51.4299 239.066 48.0309 241.654 46.5844C243.475 45.5238 246.736 44.2672 247.6 44.2647C248.304 44.2627 247.83 46.2467 246.335 49.3849C244.108 54.0601 239.447 58.0389 235.481 58.6899C234.553 58.8205 233.689 58.887 233.561 58.8234C233.144 58.5687 233.712 55.881 234.635 53.9276ZM234.083 62.2115C235.299 62.208 239.806 60.4682 241.595 59.3118C242.681 58.6051 243.639 58.0267 243.703 58.0266C243.767 58.0264 244.533 57.2887 245.363 56.3589C246.192 55.4611 247.469 54.4661 248.173 54.1443C252.264 52.3417 257.355 53.4782 261.366 57.1121C265.184 60.5867 266.828 64.4512 266.554 69.3127C266.156 75.7095 261.563 81.0311 254.976 82.777C252.482 83.4238 247.745 83.4055 245.503 82.7724C243.261 82.1074 240.344 80.5808 239.381 79.5284L238.643 78.699L239.605 79.3678C243.581 82.1064 249.659 81.3534 252.753 77.7309C253.614 76.6731 254.982 73.7591 254.693 73.4722C254.661 73.4403 253.766 73.6987 252.71 74.0535C249.098 75.2791 243.496 74.8157 240.387 73.0019C238.944 72.1427 236.345 69.6879 235.541 68.3791C233.998 65.9532 233.155 62.2142 234.083 62.2115ZM240.448 149.749C240.951 146.39 241.994 141.91 242.345 141.557C242.473 141.429 242.474 141.909 242.38 142.644C242.097 144.244 242.843 147.951 243.809 149.835C244.742 151.623 247.374 154.366 249.169 155.384C250.997 156.466 254.711 157.223 256.791 156.961C265.076 155.882 271.714 149.371 273.991 140.123C275.256 134.843 275.331 127.455 274.162 121.735L273.61 119.018L274.376 118.281C275.78 117.029 278.841 112.959 280.178 110.685C281.611 108.186 282.059 108.025 284.27 108.914C285.872 109.581 286.835 110.57 287.19 111.848C287.837 114.148 286.435 116.231 284.004 116.622L282.756 116.849L282.812 158.101L282.835 199.352L281.332 199.741C278.838 200.355 276.221 202.825 275.843 204.873L275.653 205.833L276.034 204.776C276.987 202.375 280.116 199.904 282.261 199.898C282.933 199.896 282.997 200.056 283.001 201.431C283.004 202.582 282.846 203.03 282.367 203.351C281.536 203.865 281.539 204.761 282.372 205.27C282.981 205.62 283.014 206.003 283.002 212.847L283.023 220.074L282.224 220.364C280.849 220.911 276.336 220.733 273.454 220.037C268.683 218.932 262.176 215.465 257.717 211.705C251.108 206.128 245.384 196.327 242.472 185.527C241.405 181.629 241.468 181.309 242.662 184.791C244.728 190.925 247.623 195.969 250.896 199.093C253.367 201.42 255.097 202.279 257.754 202.463C261.755 202.739 264.469 200.653 264.619 197.135L264.71 195.312L264.459 197.103C264.146 199.343 263.253 200.656 261.464 201.525C257.022 203.68 251.445 200.69 247.393 194.019C243.438 187.539 240.98 178.688 239.891 167.083C239.626 164.206 239.977 152.756 240.448 149.749ZM243.145 141.491C243.996 136.884 247.187 133.932 251.666 133.536C254.258 133.336 256.18 133.874 257.848 135.277C259.484 136.679 260.063 137.797 260.422 140.258L260.716 142.24L260.615 140.289C260.346 135.909 257.233 133.04 252.721 133.021C249.713 132.998 247.539 133.868 245.465 135.856C244.539 136.786 243.773 137.428 243.773 137.332C243.772 136.916 246.572 131.536 247.751 129.742L248.994 127.787L253.153 127.616C257.729 127.442 261.183 126.601 264.858 124.832L266.808 123.931L267.418 124.696C267.771 125.143 268.126 126.005 268.256 126.676C268.354 127.316 268.484 127.955 268.516 128.147C268.71 128.754 269.726 125.873 270.104 123.761C270.387 122.097 270.641 121.489 271.312 120.976C271.79 120.59 272.238 120.429 272.334 120.589C272.431 120.716 272.755 122.219 273.048 123.849C273.439 126.182 273.54 128.132 273.425 132.45C273.252 138.974 272.873 140.797 270.774 145.248C267.179 152.806 259.256 157.369 252.595 155.758C247.086 154.399 243.329 149.741 242.863 143.698C242.862 143.411 242.987 142.419 243.145 141.491ZM244.485 84.9179C246.183 85.5845 251.624 85.6327 254.278 85.0495C263.361 83.0086 269.386 74.8047 267.954 66.4306C266.391 57.1295 256.258 50.2836 248.714 53.4073C248.107 53.6329 247.691 53.73 247.755 53.6019C247.819 53.4738 248.455 52.1928 249.187 50.7197C249.919 49.2466 250.776 47.0376 251.093 45.7896L251.662 43.5175L254.063 43.7024C256.463 43.8873 260.114 44.7082 260.531 45.1227C260.692 45.2821 260.02 45.38 259.06 45.4148C255.284 45.5216 253.244 48.1497 255.043 50.6388C256.039 52.011 257.801 52.5495 261.449 52.539C266.569 52.5242 269.548 53.4109 273.012 55.9912C274.295 56.9468 275.13 57.9357 276.094 59.6277C278.989 64.7358 281.283 72.0522 282.006 78.6376C282.531 83.081 282.3 91.7158 281.576 95.971C281.041 99.2023 279.044 105.7 278.437 106.149C278.246 106.31 277.222 106.6 276.167 106.859C275.112 107.086 273.097 107.667 271.691 108.183C270.284 108.667 269.133 109.054 269.133 109.022C269.101 108.99 268.394 107.937 267.526 106.724C263.799 101.491 258.568 96.5172 249.106 89.2216C246.604 87.2781 244.327 85.5579 244.071 85.3668C243.301 84.8254 243.556 84.5688 244.485 84.9179ZM253.554 122.274C256.649 118.971 263.482 113.611 264.602 113.608C264.794 113.607 264.86 114.535 264.769 115.974C264.646 117.701 264.393 118.725 263.82 119.782C263.246 120.807 263.088 121.319 263.345 121.574C263.569 121.797 263.122 122.15 261.812 122.73C258.776 124.082 251.419 125.606 251.417 124.87C251.417 124.679 252.373 123.493 253.554 122.274ZM261.368 102.105C261.432 102.105 261.753 102.424 262.106 102.807L262.716 103.54L261.979 102.935C261.305 102.361 261.112 102.106 261.368 102.105ZM263.391 104.37C264.578 105.486 267.373 109.283 267.375 109.795C267.376 110.05 266.798 109.381 266.123 108.327C265.415 107.274 264.355 105.838 263.713 105.136C262.365 103.637 262.236 103.286 263.391 104.37ZM268.532 111.358C268.628 111.358 269.271 112.539 269.947 113.976C270.849 115.892 271.107 116.723 270.852 117.012C270.342 117.653 269.957 117.526 269.923 116.694C269.922 116.311 269.566 115.129 269.147 114.075C268.374 112.126 268.179 111.359 268.532 111.358ZM270.865 110.424C271.728 109.942 277.036 108.424 277.228 108.583C277.389 108.742 274.871 112.555 273.5 114.222C272.99 114.831 272.479 115.28 272.415 115.184C272.19 114.929 270.291 111.225 270.259 110.969C270.258 110.842 270.513 110.585 270.865 110.424ZM285.58 207.851C286.286 208.68 286.452 210.662 285.879 211.815C285.561 212.488 285.561 212.488 286.072 211.879C286.327 211.526 286.708 210.694 286.898 210.021C287.278 208.517 286.598 205.769 285.571 204.845C285.058 204.367 284.928 203.855 284.923 202.065C284.916 199.57 285.076 199.474 287.319 200.491C292.35 202.779 293.843 210.033 290.37 215.32C289.382 216.826 286.253 219.393 285.389 219.395C285.069 219.396 284.97 218.181 284.955 213.225L284.97 207.085L285.58 207.851Z" fill="url(#paint0_linear_487_236)"/>
</g>
<defs>
<filter id="filter0_d_487_236" x="0" y="2.47955e-05" width="296.832" height="296.832" filterUnits="userSpaceOnUse" color-interpolation-filters="sRGB">
<feFlood flood-opacity="0" result="BackgroundImageFix"/>
<feColorMatrix in="SourceAlpha" type="matrix" values="0 0 0 0 0 0 0 0 0 0 0 0 0 0 0 0 0 0 127 0" result="hardAlpha"/>
<feOffset dy="4"/>
<feGaussianBlur stdDeviation="2"/>
<feComposite in2="hardAlpha" operator="out"/>
<feColorMatrix type="matrix" values="0 0 0 0 0 0 0 0 0 0 0 0 0 0 0 0 0 0 0.25 0"/>
<feBlend mode="normal" in2="BackgroundImageFix" result="effect1_dropShadow_487_236"/>
<feBlend mode="normal" in="SourceGraphic" in2="effect1_dropShadow_487_236" result="shape"/>
</filter>
<linearGradient id="paint0_linear_487_236" x1="292.416" y1="143.999" x2="4.35746" y2="124.332" gradientUnits="userSpaceOnUse">
<stop stop-color="#1C2D46"/>
<stop offset="0.385417" stop-color="#71A8CA" stop-opacity="0.83"/>
</linearGradient>
</defs>
</svg>
