<svg width="1279" height="118" viewBox="0 0 1279 118" fill="none" xmlns="http://www.w3.org/2000/svg">
<path d="M1280 0L1266.67 4.38403C1253.33 8.60417 1226.67 17.6181 1200 24.0507C1173.33 30.7292 1146.67 34.8264 1120 48.0604C1093.33 61.0486 1066.67 83.1736 1040 83.0507C1013.33 83.1736 986.667 61.0486 960 56.8285C933.333 52.4444 906.667 65.5556 880 63.384C853.333 61.0486 826.667 43.8403 800 28.3938C773.333 13.1111 746.667 0 720 6.55556C693.333 13.1111 666.667 39.3333 640 52.4444C613.333 65.5556 586.667 65.5556 560 69.9396C533.333 74.1597 506.667 83.1736 480 80.8382C453.333 78.6667 426.667 65.5556 400 50.2729C373.333 34.8264 346.667 17.6181 320 26.2222C293.333 34.8264 266.667 70.0625 240 78.6667C213.333 87.2708 186.667 70.0625 160 54.616C133.333 39.3333 106.667 26.2222 80 32.7778C53.3334 39.3333 26.6666 65.5556 13.3334 78.6667L0 91.7778V118H13.3334C26.6666 118 53.3334 118 80 118C106.667 118 133.333 118 160 118C186.667 118 213.333 118 240 118C266.667 118 293.333 118 320 118C346.667 118 373.333 118 400 118C426.667 118 453.333 118 480 118C506.667 118 533.333 118 560 118C586.667 118 613.333 118 640 118C666.667 118 693.333 118 720 118C746.667 118 773.333 118 800 118C826.667 118 853.333 118 880 118C906.667 118 933.333 118 960 118C986.667 118 1013.33 118 1040 118C1066.67 118 1093.33 118 1120 118C1146.67 118 1173.33 118 1200 118C1226.67 118 1253.33 118 1266.67 118H1280V0Z" fill="url(#paint0_linear_499_1061)"/>
<defs>
<linearGradient id="paint0_linear_499_1061" x1="640" y1="118" x2="640" y2="0" gradientUnits="userSpaceOnUse">
<stop offset="0.0104167" stop-color="#84B3D1" stop-opacity="0"/>
<stop offset="1" stop-color="#84B3D1"/>
</linearGradient>
</defs>
</svg>
