<svg width="238" height="79" viewBox="0 0 238 79" fill="none" xmlns="http://www.w3.org/2000/svg">
<path d="M0 0H238V79H0V0Z" fill="white"/>
<path d="M217.682 45.4895C216.334 45.4895 214.903 45.2113 213.493 44.5908C208.433 42.4083 205.405 36.9522 205.405 29.9768C205.405 25.0556 208.951 19.4496 213.659 19.2998C216.707 19.1928 217.744 20.9474 218.097 22.4452C218.325 23.408 218.138 24.4565 217.578 25.2695C217.081 25.997 216.313 26.4463 215.422 26.5319C214.488 26.639 213.555 26.3608 212.933 25.8044C212.415 25.3337 212.104 24.6918 212.062 23.9643C212.062 23.9002 212.062 23.8573 212.062 23.8145C212.062 22.5093 212.974 21.5251 214.198 21.5251C215.173 21.5251 216.147 22.2312 216.147 23.5364C216.147 23.8359 215.919 24.0713 215.629 24.0713C215.359 24.0713 215.131 23.8359 215.131 23.5364C215.131 22.6163 214.364 22.5735 214.198 22.5735C213.659 22.5735 213.078 22.9587 213.078 23.8145C213.078 23.8359 213.078 23.8573 213.078 23.9C213.099 24.3493 213.285 24.7131 213.597 25.0127C214.011 25.3764 214.654 25.569 215.318 25.5048C216.085 25.4193 216.521 24.9912 216.769 24.6489C217.143 24.114 217.288 23.3437 217.122 22.6804C216.728 21.0543 215.587 20.2839 213.68 20.3481C209.532 20.4766 206.421 25.5262 206.421 29.9767C206.421 39.3913 211.647 42.6649 213.887 43.6278C216.915 44.933 220.212 44.6334 221.892 42.9217C222.929 41.8733 223.468 40.4397 223.343 38.9847C223.239 37.5511 222.534 36.3101 221.394 35.4756C220.502 34.8337 219.424 34.577 218.366 34.7696C217.288 34.9621 216.355 35.5612 215.733 36.4813C215.276 37.1446 215.09 37.9791 215.214 38.7922C215.359 39.6052 215.795 40.3113 216.438 40.782C216.915 41.1244 217.495 41.2742 218.076 41.1672C218.657 41.0601 219.154 40.7392 219.486 40.2471C219.984 39.5196 219.818 38.5354 219.113 38.0218C218.636 37.6581 217.951 37.7865 217.62 38.2786C217.454 38.514 217.143 38.5782 216.915 38.4071C216.687 38.2359 216.624 37.9149 216.79 37.6796C217.454 36.6953 218.76 36.4813 219.693 37.166C220.855 38.0005 221.124 39.6694 220.315 40.8463C219.818 41.5738 219.092 42.0445 218.242 42.1943C217.412 42.3441 216.562 42.1515 215.857 41.638C214.986 40.996 214.405 40.0546 214.219 38.9633C214.053 37.8721 214.281 36.7809 214.903 35.8608C215.691 34.7268 216.852 33.9779 218.2 33.7425C219.527 33.5072 220.875 33.8066 221.974 34.6198C223.364 35.6255 224.214 37.1874 224.359 38.8992C224.505 40.6537 223.862 42.3868 222.617 43.6492C221.415 44.8689 219.652 45.4895 217.682 45.4895Z" fill="url(#paint0_linear_510_240)"/>
<path d="M213.887 71.8288C213.804 71.8288 213.742 71.8288 213.659 71.8288C208.951 71.679 205.405 66.0517 205.405 61.1304C205.405 54.1765 208.433 48.6989 213.493 46.5164C216.935 45.0401 220.606 45.4252 222.617 47.4579C223.862 48.7203 224.505 50.4748 224.359 52.2294C224.214 53.9411 223.364 55.4817 221.975 56.4873C220.875 57.3004 219.528 57.6214 218.2 57.386C216.852 57.1506 215.691 56.3803 214.903 55.2463C214.281 54.3477 214.053 53.2564 214.219 52.1652C214.405 51.074 214.986 50.1111 215.857 49.4692C216.562 48.9771 217.412 48.7631 218.242 48.9129C219.092 49.0627 219.818 49.5548 220.316 50.2609C221.124 51.4591 220.855 53.1067 219.693 53.9625C218.76 54.6472 217.454 54.4119 216.79 53.449C216.624 53.2136 216.686 52.8927 216.915 52.7215C217.143 52.5503 217.454 52.6144 217.62 52.8499C217.952 53.342 218.636 53.4704 219.113 53.1067C219.818 52.5932 219.984 51.5875 219.486 50.86C219.154 50.3679 218.657 50.047 218.076 49.9614C217.495 49.8543 216.915 49.9827 216.438 50.3251C215.795 50.8172 215.359 51.5233 215.214 52.3364C215.09 53.1495 215.276 53.9626 215.733 54.6473C216.355 55.5673 217.288 56.1664 218.366 56.359C219.424 56.5515 220.502 56.2949 221.394 55.6529C222.535 54.797 223.24 53.556 223.343 52.1438C223.468 50.6889 222.929 49.2553 221.892 48.2069C220.212 46.4737 216.915 46.1742 213.887 47.4794C211.647 48.4636 206.421 51.7159 206.421 61.1305C206.421 65.581 209.532 70.652 213.68 70.7804C215.608 70.8445 216.728 70.0743 217.122 68.4268C217.288 67.7635 217.143 67.0146 216.77 66.4583C216.521 66.1159 216.085 65.688 215.318 65.6238C214.654 65.5597 214.011 65.7308 213.597 66.1159C213.286 66.3941 213.099 66.7578 213.078 67.2285C213.078 67.2499 213.078 67.2713 213.078 67.3142C213.078 68.1487 213.659 68.5338 214.198 68.5338C214.364 68.5338 215.131 68.4911 215.131 67.571C215.131 67.2928 215.359 67.0575 215.629 67.0575C215.919 67.0575 216.147 67.2928 216.147 67.571C216.147 68.8976 215.173 69.5823 214.198 69.5823C212.975 69.5823 212.062 68.598 212.062 67.3142C212.062 67.2715 212.062 67.2072 212.062 67.1644C212.104 66.437 212.415 65.795 212.933 65.3243C213.555 64.768 214.488 64.4898 215.422 64.5755C216.313 64.6611 217.081 65.1104 217.578 65.8592C218.138 66.6509 218.325 67.7207 218.097 68.6836C217.765 70.1172 216.749 71.8288 213.887 71.8288Z" fill="url(#paint1_linear_510_240)"/>
<path d="M20.033 45.4894C18.0629 45.4894 16.3002 44.8689 15.1181 43.6493C13.8532 42.3869 13.231 40.6538 13.3555 38.8992C13.5006 37.1875 14.3716 35.6255 15.7403 34.6199C16.8394 33.8068 18.1873 33.5073 19.5353 33.7426C20.8625 33.978 22.0238 34.7269 22.8118 35.8609C23.4339 36.7809 23.6828 37.8722 23.4961 38.9634C23.3095 40.0546 22.7288 40.9961 21.8579 41.638C21.1735 42.1515 20.3233 42.3441 19.473 42.1943C18.6435 42.0445 17.897 41.5738 17.3993 40.8463C16.5905 39.6695 16.8601 38.0006 18.0214 37.1661C18.9546 36.4814 20.2611 36.6954 20.9247 37.6796C21.0906 37.915 21.0283 38.2359 20.8002 38.4071C20.5721 38.5783 20.2611 38.5142 20.0952 38.2787C19.7634 37.7866 19.079 37.6582 18.6021 38.0219C17.897 38.5354 17.7311 39.5197 18.2288 40.2472C18.5606 40.7393 19.079 41.0602 19.6389 41.1672C20.2196 41.2743 20.8002 41.1245 21.2772 40.7821C21.9201 40.3114 22.3556 39.6053 22.5007 38.7922C22.6251 37.9791 22.4592 37.1446 21.9823 36.4814C21.3602 35.5613 20.427 34.9622 19.3486 34.7696C18.291 34.5771 17.2127 34.8337 16.3209 35.4757C15.1804 36.3102 14.4753 37.5512 14.3716 38.9848C14.2679 40.4397 14.7864 41.8733 15.8232 42.9218C17.5237 44.6335 20.821 44.9331 23.8279 43.6279C26.0676 42.665 31.2934 39.3913 31.2934 29.9767C31.2934 25.5262 28.1828 20.4766 24.0353 20.3482C22.1067 20.2841 20.9869 21.0543 20.5929 22.6805C20.4477 23.3438 20.5721 24.114 20.9661 24.649C21.1943 24.9913 21.6298 25.4192 22.397 25.5048C23.0606 25.5689 23.7035 25.3764 24.1183 25.0127C24.4501 24.7131 24.616 24.3494 24.6367 23.9001C24.6367 23.8573 24.6367 23.836 24.6367 23.8146C24.6367 22.9587 24.056 22.5736 23.5169 22.5736C23.3717 22.5736 22.5837 22.6163 22.5837 23.5364C22.5837 23.836 22.3556 24.0714 22.086 24.0714C21.7957 24.0714 21.5883 23.836 21.5883 23.5364C21.5883 22.2312 22.5629 21.5251 23.5169 21.5251C24.7404 21.5251 25.6528 22.5094 25.6528 23.8146C25.6528 23.8573 25.6528 23.9001 25.6528 23.9644C25.6113 24.6919 25.321 25.3338 24.7819 25.8045C24.1597 26.3608 23.2265 26.639 22.2933 26.532C21.4224 26.4463 20.6343 25.9971 20.1366 25.2696C19.5767 24.4565 19.3901 23.4081 19.6182 22.4452C19.9707 20.9474 21.0284 19.1929 24.056 19.2999C28.7842 19.4497 32.3096 25.0556 32.3096 29.9769C32.3096 36.9522 29.2819 42.4084 24.2219 44.5908C22.8118 45.2113 21.3809 45.4894 20.033 45.4894Z" fill="url(#paint2_linear_510_240)"/>
<path d="M23.8279 71.8288C20.9661 71.8288 19.95 70.1171 19.6182 68.6835C19.3901 67.7206 19.5767 66.6508 20.1366 65.8591C20.6343 65.1103 21.4223 64.6609 22.2933 64.5753C23.2265 64.4897 24.1597 64.7679 24.7818 65.3242C25.321 65.7949 25.6113 66.4369 25.6528 67.1643C25.6528 67.2071 25.6528 67.2714 25.6528 67.3141C25.6528 68.5979 24.7404 69.5822 23.5168 69.5822C22.5629 69.5822 21.5883 68.8975 21.5883 67.5709C21.5883 67.2927 21.7956 67.0574 22.086 67.0574C22.3555 67.0574 22.5837 67.2927 22.5837 67.5709C22.5837 68.4909 23.3717 68.5337 23.5168 68.5337C24.056 68.5337 24.6367 68.1486 24.6367 67.3141C24.6367 67.2714 24.6367 67.25 24.6367 67.2284C24.6159 66.7577 24.45 66.394 24.1182 66.1158C23.7035 65.7307 23.0606 65.5595 22.397 65.6237C21.6297 65.6878 21.1942 66.1158 20.9661 66.4582C20.5721 67.0145 20.4477 67.7634 20.5928 68.4267C20.9869 70.0742 22.1067 70.8445 24.0353 70.7803C28.1828 70.6519 31.2934 65.5809 31.2934 61.1304C31.2934 51.7158 26.0676 48.4635 23.8279 47.4793C20.821 46.1741 17.5237 46.4736 15.8232 48.2068C14.7863 49.2552 14.2679 50.6888 14.3716 52.1437C14.4753 53.5559 15.1803 54.7969 16.3209 55.6528C17.2126 56.2947 18.291 56.5515 19.3486 56.3589C20.427 56.1664 21.3601 55.5672 21.9823 54.6472C22.4592 53.9625 22.6251 53.1494 22.5007 52.3363C22.3555 51.5232 21.9201 50.8172 21.2772 50.325C20.8002 49.9827 20.2196 49.8543 19.6389 49.9613C19.079 50.0468 18.5606 50.3678 18.2288 50.8599C17.7311 51.5874 17.897 52.5931 18.602 53.1066C19.079 53.4703 19.7633 53.342 20.0951 52.8498C20.261 52.6145 20.5721 52.5503 20.8002 52.7214C21.0283 52.8926 21.0905 53.2135 20.9247 53.4489C20.2611 54.4118 18.9546 54.6471 18.0214 53.9624C16.8601 53.1066 16.5905 51.459 17.3993 50.2608C17.897 49.5547 18.6435 49.0626 19.473 48.9128C20.3233 48.763 21.1735 48.9769 21.8579 49.4691C22.7288 50.111 23.3095 51.0739 23.4961 52.1651C23.6827 53.2563 23.4339 54.3476 22.8118 55.2462C22.0237 56.3803 20.8624 57.1505 19.5352 57.3859C18.1873 57.6213 16.8394 57.3002 15.7403 56.4872C14.3716 55.4816 13.5006 53.941 13.3555 52.2293C13.231 50.4747 13.8532 48.7202 15.1181 47.4578C17.1297 45.4037 20.7795 45.04 24.2219 46.5164C29.2819 48.6988 32.3096 54.1764 32.3096 61.1303C32.3096 66.0516 28.7842 71.6789 24.056 71.8287C23.9938 71.8287 23.9108 71.8288 23.8279 71.8288Z" fill="url(#paint3_linear_510_240)"/>
<path d="M196.509 26.4035H128.904C128.614 26.4035 128.386 26.1681 128.386 25.89C128.386 25.5904 128.614 25.3551 128.904 25.3551H196.509C203.684 25.3551 208.578 22.3167 208.723 17.7806C208.785 15.7907 208.039 14.6353 206.442 14.2288C205.799 14.079 205.073 14.2074 204.534 14.6139C204.202 14.8493 203.787 15.32 203.725 16.0903C203.663 16.775 203.829 17.4383 204.202 17.8662C204.472 18.2086 204.824 18.3797 205.26 18.4011C205.301 18.4011 205.322 18.4011 205.364 18.4011C206.172 18.4011 206.546 17.802 206.546 17.2457C206.546 17.0959 206.504 16.2829 205.612 16.2829C205.343 16.2829 205.115 16.0689 205.115 15.7693C205.115 15.4912 205.343 15.2558 205.612 15.2558C206.898 15.2558 207.562 16.2614 207.562 17.2457C207.562 18.5509 206.525 19.5352 205.218 19.4496C204.493 19.4068 203.891 19.1072 203.435 18.5509C202.896 17.909 202.626 16.9461 202.709 15.9833C202.792 15.0846 203.228 14.293 203.953 13.758C204.721 13.1803 205.758 12.9878 206.691 13.2231C208.122 13.5869 209.822 14.6781 209.739 17.802C209.573 22.9586 204.264 26.4035 196.509 26.4035Z" fill="url(#paint4_linear_510_240)"/>
<path d="M125.337 18.2728C124.612 16.6894 122.496 18.0374 122.994 19.5138C123.575 21.2041 125.648 21.0116 126.561 19.7919C127.515 18.5295 127.1 16.7964 125.98 15.8335C124.736 14.7851 123.056 14.8707 121.791 15.7908C118.95 17.8235 119.614 22.0173 122.185 23.9858C124.778 25.9329 127.432 25.8045 128.904 25.8901C127.204 26.3608 123.989 26.1682 121.688 24.4779C120.423 23.5578 119.489 22.0814 119.241 20.4981C118.764 17.5881 121.107 14.4428 124.093 14.7852C125.462 14.9563 126.706 15.8978 127.245 17.203C127.826 18.658 127.287 20.3911 125.918 21.1186C124.591 21.8461 122.828 21.1613 122.455 19.5994C122.206 18.5082 123.098 17.2458 124.093 17.2458C124.632 17.2244 125.234 17.6095 125.337 18.2728Z" fill="url(#paint5_linear_510_240)"/>
<path d="M205.903 77.9912C205.198 77.9912 204.514 77.7772 203.954 77.3707C203.228 76.8357 202.792 76.044 202.71 75.124C202.627 74.1611 202.896 73.1983 203.435 72.5564C203.892 72.0215 204.493 71.7219 205.219 71.6791C205.26 71.6577 205.302 71.6577 205.364 71.6577C206.608 71.6577 207.562 72.6206 207.562 73.8616C207.562 74.8672 206.899 75.8729 205.613 75.8729C205.343 75.8729 205.115 75.6375 205.115 75.3594C205.115 75.0598 205.343 74.8244 205.613 74.8244C206.505 74.8244 206.546 74.0328 206.546 73.8616C206.546 73.3053 206.173 72.7062 205.364 72.7062C205.323 72.7062 205.302 72.7062 205.26 72.7062C204.825 72.7489 204.472 72.9202 204.203 73.2411C203.829 73.669 203.663 74.3537 203.726 75.0384C203.788 75.8087 204.203 76.258 204.534 76.5148C205.074 76.8999 205.799 77.0497 206.442 76.8785C208.039 76.472 208.786 75.3166 208.723 73.3481C208.578 68.812 203.684 65.7522 196.509 65.7522H41.2055C34.0304 65.7522 29.1363 68.812 28.9911 73.3481C28.9497 75.3166 29.6962 76.472 31.2723 76.8785C31.9151 77.0497 32.6409 76.8999 33.1801 76.5148C33.5119 76.258 33.9267 75.8087 34.0096 75.0384C34.0718 74.3537 33.8852 73.669 33.5119 73.2411C33.2423 72.9202 32.8898 72.749 32.4543 72.7062C32.4128 72.7062 32.3921 72.7062 32.3714 72.7062C31.5419 72.7062 31.1686 73.3053 31.1686 73.8616C31.1686 74.0328 31.2101 74.8244 32.1018 74.8244C32.3921 74.8244 32.5995 75.0598 32.5995 75.3594C32.5995 75.6375 32.3921 75.8729 32.1018 75.8729C30.8368 75.8729 30.1524 74.8672 30.1524 73.8616C30.1524 72.5564 31.1893 71.5935 32.5165 71.6791C33.2216 71.7219 33.8437 72.0215 34.2792 72.5564C34.8184 73.1983 35.088 74.1611 35.005 75.124C34.9221 76.0441 34.4866 76.8357 33.7608 77.3707C32.9935 77.927 31.9773 78.1409 31.0442 77.9056C29.5925 77.5418 27.892 76.4506 27.9957 73.3053C28.1409 68.1701 33.4497 64.7038 41.2055 64.7038H196.509C204.265 64.7038 209.574 68.1701 209.74 73.3053C209.823 76.4506 208.122 77.5418 206.691 77.9056C206.422 77.9697 206.152 77.9912 205.903 77.9912Z" fill="url(#paint6_linear_510_240)"/>
<path d="M203.312 62.1361H34.4047V61.8151C34.5499 56.466 33.8448 49.8116 27.0636 45.8318L26.6074 45.5536L27.0636 45.2969C33.8448 41.2956 34.5499 34.6413 34.4047 29.2921V28.9711H203.312V29.2921C203.167 34.6413 203.872 41.2956 210.653 45.2969L211.13 45.5536L210.653 45.8318C203.872 49.8116 203.167 56.466 203.312 61.8151V62.1361ZM35.0269 61.5156H202.69C202.586 56.1664 203.395 49.6404 209.907 45.5536C203.395 41.4668 202.586 34.9408 202.69 29.5916H35.0269C35.1305 34.9408 34.3425 41.4668 27.8102 45.5536C34.3425 49.6404 35.1305 56.1664 35.0269 61.5156Z" fill="url(#paint7_linear_510_240)"/>
<path d="M230.808 42.2156C228.381 42.0445 226.951 43.7776 226.951 43.7776C228.236 40.6537 225.976 38.3856 225.976 38.3856C226.639 42.9859 222.865 45.5535 222.865 45.5535C222.865 45.5535 226.639 48.1425 225.976 52.7428C225.976 52.7428 228.236 50.4748 226.951 47.3295C226.951 47.3295 228.381 49.084 230.808 48.9128C233.234 48.7203 235.142 46.1954 237.713 45.5535C235.142 44.933 233.234 42.3868 230.808 42.2156Z" fill="url(#paint8_linear_510_240)"/>
<path d="M6.9056 42.2156C9.3319 42.0445 10.7628 43.7776 10.7628 43.7776C9.49779 40.6537 11.7582 38.3856 11.7582 38.3856C11.0739 42.9859 14.8481 45.5535 14.8481 45.5535C14.8481 45.5535 11.0739 48.1425 11.7582 52.7428C11.7582 52.7428 9.49779 50.4748 10.7628 47.3295C10.7628 47.3295 9.3319 49.084 6.9056 48.9128C4.47931 48.7203 2.57146 46.1954 0 45.5535C2.57146 44.933 4.47931 42.3868 6.9056 42.2156Z" fill="url(#paint9_linear_510_240)"/>
<path d="M209.863 22.6377C209.863 23.8573 208.91 24.8416 207.748 24.8416C206.566 24.8416 205.612 23.8573 205.612 22.6377C205.612 21.4395 206.566 20.4553 207.748 20.4553C208.91 20.4553 209.863 21.4395 209.863 22.6377Z" fill="url(#paint10_linear_510_240)"/>
<path d="M27.8496 22.6377C27.8496 23.8573 28.8035 24.8416 29.9856 24.8416C31.1469 24.8416 32.1008 23.8573 32.1008 22.6377C32.1008 21.4395 31.1469 20.4553 29.9856 20.4553C28.8035 20.4553 27.8496 21.4395 27.8496 22.6377Z" fill="url(#paint11_linear_510_240)"/>
<path d="M209.863 68.4695C209.863 67.2713 208.91 66.287 207.748 66.287C206.566 66.287 205.612 67.2713 205.612 68.4695C205.612 69.6891 206.566 70.6734 207.748 70.6734C208.91 70.6734 209.863 69.6891 209.863 68.4695Z" fill="url(#paint12_linear_510_240)"/>
<path d="M27.8496 68.4695C27.8496 67.2713 28.8035 66.287 29.9856 66.287C31.1469 66.287 32.1008 67.2713 32.1008 68.4695C32.1008 69.6891 31.1469 70.6734 29.9856 70.6734C28.8035 70.6734 27.8496 69.6891 27.8496 68.4695Z" fill="url(#paint13_linear_510_240)"/>
<path d="M218.554 45.5537C218.554 46.9017 218.16 47.993 217.662 47.993C217.185 47.993 216.791 46.9017 216.791 45.5537C216.791 44.2057 217.185 43.1145 217.662 43.1145C218.16 43.1145 218.554 44.2057 218.554 45.5537Z" fill="url(#paint14_linear_510_240)"/>
<path d="M19.1816 45.5537C19.1816 46.9017 19.5757 47.993 20.0526 47.993C20.5296 47.993 20.9236 46.9017 20.9236 45.5537C20.9236 44.2057 20.5296 43.1145 20.0526 43.1145C19.5757 43.1145 19.1816 44.2057 19.1816 45.5537Z" fill="url(#paint15_linear_510_240)"/>
<path d="M121.335 19.7706C121.335 20.1985 120.236 20.5408 118.867 20.5408C117.499 20.5408 116.379 20.1985 116.379 19.7706C116.379 19.3426 117.499 18.9789 118.867 18.9789C120.236 18.9789 121.335 19.3426 121.335 19.7706Z" fill="url(#paint16_linear_510_240)"/>
<path d="M120.671 11.8538C120.671 11.8538 122.226 10.9765 121.542 8.85824C120.878 6.76136 119.198 4.66449 118.866 2.31085C118.535 4.66449 116.855 6.76136 116.171 8.85824C115.486 10.9765 117.042 11.8538 117.042 11.8538C113.806 10.7626 111.795 13.7581 111.795 13.7581C116.565 12.1748 118.866 16.1117 118.866 16.1117C118.866 16.1117 121.168 12.1748 125.917 13.7581C125.917 13.7581 123.906 10.7626 120.671 11.8538Z" fill="url(#paint17_linear_510_240)"/>
<path d="M118.867 0C118.245 0 117.747 0.513521 117.747 1.15542C117.747 1.77593 118.245 2.31085 118.867 2.31085C119.468 2.31085 119.966 1.77593 119.966 1.15542C119.966 0.513521 119.468 0 118.867 0Z" fill="url(#paint18_linear_510_240)"/>
<path d="M129.921 25.8901C129.921 26.4678 129.465 26.9385 128.905 26.9385C128.345 26.9385 127.889 26.4678 127.889 25.8901C127.889 25.3123 128.345 24.8416 128.905 24.8416C129.465 24.8416 129.921 25.3123 129.921 25.8901Z" fill="url(#paint19_linear_510_240)"/>
<path d="M108.81 26.4035H41.2055C33.4497 26.4035 28.1409 22.9586 27.9957 17.802C27.892 14.6781 29.5925 13.5868 31.0442 13.2231C31.9773 12.9878 32.9935 13.1804 33.7815 13.758C34.4866 14.293 34.9221 15.0846 35.005 15.9833C35.088 16.9461 34.8184 17.909 34.2792 18.5509C33.8437 19.1072 33.2216 19.4068 32.5165 19.4496C32.4543 19.4496 32.4128 19.4496 32.3713 19.4496C31.1063 19.4496 30.1524 18.5081 30.1524 17.2457C30.1524 16.2614 30.8368 15.2558 32.1018 15.2558C32.3921 15.2558 32.5995 15.4912 32.5995 15.7693C32.5995 16.0689 32.3921 16.2828 32.1018 16.2828C31.21 16.2828 31.1686 17.0959 31.1686 17.2457C31.1686 17.8234 31.5833 18.4653 32.4543 18.4011C32.8898 18.3798 33.2423 18.2086 33.5119 17.8662C33.8852 17.4383 34.0718 16.775 34.0096 16.0903C33.9267 15.32 33.5119 14.8493 33.1801 14.6139C32.6409 14.2074 31.9151 14.079 31.2723 14.2288C29.6962 14.6353 28.9497 15.7907 28.9911 17.7806C29.1363 22.3167 34.0304 25.3551 41.2055 25.3551H108.81C109.1 25.3551 109.328 25.5904 109.328 25.89C109.328 26.1681 109.1 26.4035 108.81 26.4035Z" fill="url(#paint20_linear_510_240)"/>
<path d="M112.397 18.2728C113.102 16.6894 115.217 18.0374 114.72 19.5138C114.16 21.2041 112.065 21.0116 111.153 19.7919C110.22 18.5295 110.614 16.7964 111.754 15.8335C112.978 14.7851 114.658 14.8707 115.923 15.7908C118.784 17.8235 118.1 22.0173 115.529 23.9858C112.936 25.9329 110.282 25.8045 108.81 25.8901C110.531 26.3608 113.724 26.1682 116.026 24.4779C117.291 23.5578 118.245 22.0814 118.494 20.4981C118.95 17.5881 116.607 14.4428 113.621 14.7852C112.252 14.9563 111.028 15.8978 110.489 17.203C109.888 18.658 110.427 20.3911 111.796 21.1186C113.144 21.8461 114.906 21.1613 115.259 19.5994C115.508 18.5082 114.616 17.2458 113.621 17.2458C113.102 17.2244 112.501 17.6095 112.397 18.2728Z" fill="url(#paint21_linear_510_240)"/>
<path d="M107.814 25.8901C107.814 26.4678 108.25 26.9385 108.81 26.9385C109.37 26.9385 109.826 26.4678 109.826 25.8901C109.826 25.3123 109.37 24.8416 108.81 24.8416C108.25 24.8416 107.814 25.3123 107.814 25.8901Z" fill="url(#paint22_linear_510_240)"/>
<path d="M120.339 25.4407C120.339 26.2752 119.676 26.9599 118.867 26.9599C118.037 26.9599 117.395 26.2752 117.395 25.4407C117.395 24.6062 118.037 23.9215 118.867 23.9215C119.676 23.9215 120.339 24.6062 120.339 25.4407Z" fill="url(#paint23_linear_510_240)"/>
<path d="M130.585 19.3855C129.403 16.069 129.859 12.6241 129.03 9.26481C128.594 7.48887 127.101 6.0981 125.256 6.24787C123.97 6.37629 123.265 7.42468 123.286 8.6657C123.306 10.2705 125.546 10.677 125.816 9.05084C125.857 8.79408 125.691 8.45172 125.629 8.87968C125.38 10.2919 122.415 9.13646 123.929 7.4889C124.281 7.12515 124.779 6.95397 125.235 6.88978C126.479 6.67583 127.62 7.4461 128.304 8.45174C129.403 10.0137 129.217 12.3674 129.32 14.2075C129.445 16.1332 129.777 17.9947 130.419 19.8134C130.523 20.113 130.647 19.5138 130.585 19.3855Z" fill="url(#paint24_linear_510_240)"/>
<path d="M142.031 24.5421C144.54 23.7504 146.904 22.4238 148.646 20.3483C149.932 18.7863 150.699 16.2401 148.812 14.8066C147.816 14.0577 145.95 14.3144 145.618 15.5982C145.204 17.2244 148.128 17.7807 148.107 16.0904C148.107 16.0476 147.609 16.0476 147.609 16.069C147.63 16.5397 147.423 17.5882 146.427 16.7323C146.137 16.4756 146.095 16.0048 146.116 15.6197C146.157 14.1647 148.045 14.4429 148.77 15.1704C149.683 16.0904 149.579 17.5668 149.164 18.6794C147.982 21.7605 144.415 23.6007 141.554 24.5207C141.637 24.478 141.886 24.5848 142.031 24.5421Z" fill="url(#paint25_linear_510_240)"/>
<path d="M138.444 15.8336C138.402 15.3842 137.987 15.0419 137.531 15.0847C137.075 15.1274 136.743 15.5554 136.805 16.0262C136.847 16.4969 137.262 16.8392 137.718 16.775C138.174 16.7323 138.485 16.3043 138.444 15.8336Z" fill="url(#paint26_linear_510_240)"/>
<path d="M164.282 18.6366C162.706 14.8708 158.226 16.0048 155.489 17.31C148.998 20.4125 138.111 29.8913 131.931 21.3326C129.982 18.658 130.085 14.6568 132.989 12.6455C135.042 11.2547 137.468 11.3403 139.106 13.0735C141.781 15.855 139.563 20.6907 135.892 19.0859C134.544 18.4654 133.839 16.069 135.436 15.1489C136.597 14.4856 137.655 15.4699 137.966 16.5183C137.945 16.4327 138.505 16.0476 138.443 15.8336C137.51 12.6883 133.362 15.2345 134.046 17.6952C134.503 19.2357 135.56 19.899 136.722 19.9204C139.687 19.9631 142.507 16.3257 139.728 12.7311C138.298 10.891 135.83 10.8696 133.901 11.7255C131.454 12.7953 129.671 16.1546 130.21 18.8292C131.205 23.9216 135.56 25.9329 140.185 25.184C144.788 24.4351 148.853 21.5038 152.814 19.1929C155.53 17.6096 159.367 15.5341 162.187 17.3314C165.381 19.3641 164.738 23.6648 161.648 24.6491C160.839 24.8845 159.844 24.8845 159.118 24.5421C158.226 24.0927 157.666 22.5307 158.268 21.7605C158.724 21.1828 159.657 20.819 160.59 21.5679C160.922 21.8889 160.984 22.2954 160.922 22.702C160.839 22.9801 160.549 22.8945 160.466 22.5949C160.383 22.3168 159.948 22.0386 159.616 22.2098C159.284 22.3596 159.056 22.7875 159.325 23.2154C159.574 23.6862 160.528 23.8787 161.005 23.0443C161.565 22.1028 161.296 21.1185 160.404 20.7762C159.657 20.498 158.662 20.6692 158.081 21.5893C157.459 22.5307 157.438 23.4722 158.102 24.4136C159.305 26.1896 161.876 25.3337 163.141 24.2211C164.717 22.8517 165.07 20.5195 164.282 18.6366Z" fill="url(#paint27_linear_510_240)"/>
<path d="M107.131 19.3855C108.334 16.069 107.857 12.6241 108.687 9.26481C109.143 7.48887 110.615 6.0981 112.461 6.24787C113.767 6.37629 114.452 7.42468 114.431 8.6657C114.41 10.2705 112.171 10.677 111.901 9.05084C111.86 8.79408 112.026 8.45172 112.108 8.87968C112.336 10.2919 115.323 9.13646 113.788 7.4889C113.456 7.12515 112.938 6.95397 112.482 6.88978C111.237 6.67583 110.097 7.4461 109.412 8.45174C108.334 10.0137 108.521 12.3674 108.396 14.2075C108.272 16.1332 107.961 17.9947 107.297 19.8134C107.193 20.113 107.09 19.5138 107.131 19.3855Z" fill="url(#paint28_linear_510_240)"/>
<path d="M95.7046 24.5421C93.1953 23.7504 90.8105 22.4238 89.0893 20.3483C87.7828 18.7863 87.0156 16.2401 88.9235 14.8066C89.9189 14.0577 91.7645 14.3144 92.0963 15.5982C92.5111 17.2244 89.5871 17.7807 89.6285 16.0904C89.6285 16.0476 90.1055 16.0476 90.1055 16.069C90.1055 16.5397 90.2921 17.5882 91.2876 16.7323C91.5986 16.4756 91.6194 16.0048 91.6194 15.6197C91.5571 14.1647 89.67 14.4429 88.9442 15.1704C88.0525 16.0904 88.1562 17.5668 88.5709 18.6794C89.7322 21.7605 93.2991 23.6007 96.1609 24.5207C96.0779 24.478 95.829 24.5848 95.7046 24.5421Z" fill="url(#paint29_linear_510_240)"/>
<path d="M99.2711 15.8336C99.3333 15.3842 99.7273 15.0419 100.184 15.0847C100.64 15.1274 100.972 15.5554 100.909 16.0262C100.868 16.4969 100.453 16.8392 100.018 16.775C99.5614 16.7323 99.2296 16.3043 99.2711 15.8336Z" fill="url(#paint30_linear_510_240)"/>
<path d="M73.431 18.6366C75.007 14.8708 79.4863 16.0048 82.2444 17.31C88.7145 20.4125 99.6018 29.8913 105.782 21.3326C107.731 18.658 107.627 14.6568 104.724 12.6455C102.692 11.2547 100.265 11.3403 98.6063 13.0735C95.9312 15.855 98.1709 20.6907 101.821 19.0859C103.189 18.4654 103.874 16.069 102.277 15.1489C101.116 14.4856 100.058 15.4699 99.7469 16.5183C99.7677 16.4327 99.2077 16.0476 99.27 15.8336C100.203 12.6883 104.351 15.2345 103.666 17.6952C103.231 19.2357 102.152 19.899 100.991 19.9204C98.0464 19.9631 95.2054 16.3257 98.005 12.7311C99.4358 10.891 101.883 10.8696 103.811 11.7255C106.258 12.7953 108.042 16.1546 107.503 18.8292C106.507 23.9216 102.152 25.9329 97.528 25.184C92.9242 24.4351 88.8597 21.5038 84.8988 19.1929C82.2029 17.6096 78.3458 15.5341 75.5255 17.3314C72.3319 19.3641 72.9955 23.6648 76.0646 24.6491C76.8734 24.8845 77.8895 24.8845 78.5946 24.5421C79.5071 24.0927 80.067 22.5307 79.4449 21.7605C78.9886 21.1828 78.0554 20.819 77.1222 21.5679C76.7904 21.8889 76.749 22.2954 76.8112 22.702C76.8734 22.9801 77.1637 22.8945 77.2467 22.5949C77.3504 22.3168 77.7651 22.0386 78.0969 22.2098C78.4287 22.3596 78.6568 22.7875 78.408 23.2154C78.1384 23.6862 77.1845 23.8787 76.7075 23.0443C76.1476 22.1028 76.4172 21.1185 77.3089 20.7762C78.0554 20.498 79.0509 20.6692 79.6522 21.5893C80.2536 22.5307 80.2743 23.4722 79.6107 24.4136C78.4079 26.1896 75.8365 25.3337 74.5715 24.2211C72.9954 22.8517 72.6637 20.5195 73.431 18.6366Z" fill="url(#paint31_linear_510_240)"/>
<path d="M172.164 23.4294C172.081 23.5365 171.915 23.6648 171.625 23.6434C171.189 23.5793 170.857 23.2368 170.774 22.8089C170.546 21.7177 171.728 21.1186 172.599 21.4181C173.657 21.8033 174.03 23.0443 173.574 24.0499C173.159 24.9486 172.164 25.3551 171.251 25.3979C169.281 25.4834 167.539 24.2853 166.357 22.7233C165.072 21.0544 164.055 18.6366 164.097 18.2086C165.507 21.1186 167.021 24.1997 170.132 24.7988C170.94 24.9486 171.853 24.9486 172.558 24.4565C173.18 24.0499 173.491 23.1085 173.097 22.4238C172.724 21.7605 171.666 21.4823 171.231 22.2312C171.044 22.5522 171.065 22.9587 171.334 23.2155C171.687 23.5578 172.164 23.4294 172.164 23.4294Z" fill="url(#paint32_linear_510_240)"/>
<path d="M65.5514 23.4294C65.6344 23.5365 65.8003 23.6648 66.0906 23.6434C66.5261 23.5793 66.8786 23.2368 66.9616 22.8089C67.169 21.7177 65.9869 21.1186 65.1159 21.4181C64.0583 21.8033 63.7058 23.0443 64.1413 24.0499C64.556 24.9486 65.5514 25.3551 66.4639 25.3979C68.4339 25.4834 70.1966 24.2853 71.3579 22.7233C72.6644 21.0544 73.6598 18.6366 73.6391 18.2086C72.2082 21.1186 70.6943 24.1997 67.5837 24.7988C66.775 24.9486 65.8625 24.9486 65.1574 24.4565C64.5353 24.0499 64.2242 23.1085 64.6182 22.4238C64.9915 21.7605 66.0491 21.4823 66.5054 22.2312C66.692 22.5522 66.6505 22.9587 66.3809 23.2155C66.0284 23.5578 65.5514 23.4294 65.5514 23.4294Z" fill="url(#paint33_linear_510_240)"/>
<path d="M176.415 23.408C176.415 23.9215 176 24.3495 175.502 24.3495C175.005 24.3495 174.59 23.9215 174.59 23.408C174.59 22.8945 175.005 22.4666 175.502 22.4666C176 22.4666 176.415 22.8945 176.415 23.408Z" fill="url(#paint34_linear_510_240)"/>
<path d="M178.779 23.408C178.779 23.9001 178.385 24.2852 177.928 24.2852C177.451 24.2852 177.078 23.9001 177.078 23.408C177.078 22.9158 177.451 22.5307 177.928 22.5307C178.385 22.5307 178.779 22.9158 178.779 23.408Z" fill="url(#paint35_linear_510_240)"/>
<path d="M181.038 23.408C181.038 23.8573 180.686 24.2211 180.25 24.2211C179.815 24.2211 179.441 23.8573 179.441 23.408C179.441 22.9587 179.815 22.5735 180.25 22.5735C180.686 22.5735 181.038 22.9587 181.038 23.408Z" fill="url(#paint36_linear_510_240)"/>
<path d="M183.237 23.408C183.237 23.8359 182.905 24.1783 182.491 24.1783C182.076 24.1783 181.744 23.8359 181.744 23.408C181.744 22.9801 182.076 22.6377 182.491 22.6377C182.905 22.6377 183.237 22.9801 183.237 23.408Z" fill="url(#paint37_linear_510_240)"/>
<path d="M185.331 23.4079C185.331 23.7931 185.02 24.114 184.626 24.114C184.252 24.114 183.941 23.7931 183.941 23.4079C183.941 23.0228 184.252 22.7018 184.626 22.7018C185.02 22.7018 185.331 23.0228 185.331 23.4079Z" fill="url(#paint38_linear_510_240)"/>
<path d="M187.323 23.408C187.323 23.7717 187.053 24.0713 186.68 24.0713C186.327 24.0713 186.058 23.7717 186.058 23.408C186.058 23.0442 186.327 22.7447 186.68 22.7447C187.053 22.7447 187.323 23.0442 187.323 23.408Z" fill="url(#paint39_linear_510_240)"/>
<path d="M189.25 23.4081C189.25 23.7504 188.981 24.0072 188.649 24.0072C188.338 24.0072 188.068 23.7504 188.068 23.4081C188.068 23.0657 188.338 22.809 188.649 22.809C188.981 22.809 189.25 23.0657 189.25 23.4081Z" fill="url(#paint40_linear_510_240)"/>
<path d="M191.056 23.4081C191.056 23.7077 190.828 23.9644 190.537 23.9644C190.226 23.9644 189.998 23.7077 189.998 23.4081C189.998 23.1086 190.226 22.8518 190.537 22.8518C190.828 22.8518 191.056 23.1086 191.056 23.4081Z" fill="url(#paint41_linear_510_240)"/>
<path d="M192.796 23.4081C192.796 23.6862 192.589 23.9002 192.319 23.9002C192.049 23.9002 191.821 23.6862 191.821 23.4081C191.821 23.1299 192.049 22.916 192.319 22.916C192.589 22.916 192.796 23.1299 192.796 23.4081Z" fill="url(#paint42_linear_510_240)"/>
<path d="M194.435 23.408C194.435 23.6433 194.249 23.8573 194 23.8573C193.772 23.8573 193.585 23.6433 193.585 23.408C193.585 23.1726 193.772 22.9586 194 22.9586C194.249 22.9586 194.435 23.1726 194.435 23.408Z" fill="url(#paint43_linear_510_240)"/>
<path d="M61.3203 23.408C61.3203 23.9215 61.7143 24.3495 62.212 24.3495C62.7097 24.3495 63.1245 23.9215 63.1245 23.408C63.1245 22.8945 62.7097 22.4666 62.212 22.4666C61.7143 22.4666 61.3203 22.8945 61.3203 23.408Z" fill="url(#paint44_linear_510_240)"/>
<path d="M58.957 23.408C58.957 23.9001 59.3303 24.2852 59.8073 24.2852C60.2635 24.2852 60.6575 23.9001 60.6575 23.408C60.6575 22.9158 60.2635 22.5307 59.8073 22.5307C59.3303 22.5307 58.957 22.9158 58.957 23.408Z" fill="url(#paint45_linear_510_240)"/>
<path d="M56.6758 23.408C56.6758 23.8573 57.0283 24.2211 57.4638 24.2211C57.92 24.2211 58.2726 23.8573 58.2726 23.408C58.2726 22.9587 57.92 22.5735 57.4638 22.5735C57.0283 22.5735 56.6758 22.9587 56.6758 23.408Z" fill="url(#paint46_linear_510_240)"/>
<path d="M54.499 23.408C54.499 23.8359 54.8308 24.1783 55.2248 24.1783C55.6396 24.1783 55.9714 23.8359 55.9714 23.408C55.9714 22.9801 55.6396 22.6377 55.2248 22.6377C54.8308 22.6377 54.499 22.9801 54.499 23.408Z" fill="url(#paint47_linear_510_240)"/>
<path d="M52.3818 23.4079C52.3818 23.7931 52.7136 24.114 53.0869 24.114C53.4602 24.114 53.7713 23.7931 53.7713 23.4079C53.7713 23.0228 53.4602 22.7018 53.0869 22.7018C52.7136 22.7018 52.3818 23.0228 52.3818 23.4079Z" fill="url(#paint48_linear_510_240)"/>
<path d="M50.3916 23.408C50.3916 23.7717 50.6819 24.0713 51.0345 24.0713C51.387 24.0713 51.6773 23.7717 51.6773 23.408C51.6773 23.0442 51.387 22.7447 51.0345 22.7447C50.6819 22.7447 50.3916 23.0442 50.3916 23.408Z" fill="url(#paint49_linear_510_240)"/>
<path d="M48.4844 23.4081C48.4844 23.7504 48.7332 24.0072 49.065 24.0072C49.3968 24.0072 49.6457 23.7504 49.6457 23.4081C49.6457 23.0657 49.3968 22.809 49.065 22.809C48.7332 22.809 48.4844 23.0657 48.4844 23.4081Z" fill="url(#paint50_linear_510_240)"/>
<path d="M46.6592 23.4081C46.6592 23.7077 46.8873 23.9644 47.1984 23.9644C47.4887 23.9644 47.7168 23.7077 47.7168 23.4081C47.7168 23.1086 47.4887 22.8518 47.1984 22.8518C46.8873 22.8518 46.6592 23.1086 46.6592 23.4081Z" fill="url(#paint51_linear_510_240)"/>
<path d="M44.917 23.4081C44.917 23.6862 45.1451 23.9002 45.4147 23.9002C45.6636 23.9002 45.8917 23.6862 45.8917 23.4081C45.8917 23.1299 45.6636 22.916 45.4147 22.916C45.1451 22.916 44.917 23.1299 44.917 23.4081Z" fill="url(#paint52_linear_510_240)"/>
<path d="M43.2793 23.408C43.2793 23.6433 43.4659 23.8573 43.7148 23.8573C43.9429 23.8573 44.1503 23.6433 44.1503 23.408C44.1503 23.1726 43.9429 22.9586 43.7148 22.9586C43.4659 22.9586 43.2793 23.1726 43.2793 23.408Z" fill="url(#paint53_linear_510_240)"/>
<path d="M58.1 52L64.54 38H65.56L72 52H70.9L64.82 38.64H65.26L59.2 52H58.1ZM60.46 48.06L60.8 47.2H69.18L69.52 48.06H60.46ZM75.3816 49.12L75.4016 47.86L82.3016 41.56H83.5816L79.0016 45.86L78.4016 46.36L75.3816 49.12ZM74.6216 52V37.16H75.6216V52H74.6216ZM82.7816 52L78.2216 46.28L78.9016 45.54L84.0216 52H82.7816ZM93.1641 52V49.62L93.1241 49.26V45.34C93.1241 44.3667 92.8574 43.6267 92.3241 43.12C91.8041 42.6133 91.0374 42.36 90.0241 42.36C89.3041 42.36 88.6307 42.4867 88.0041 42.74C87.3907 42.98 86.8641 43.2933 86.4241 43.68L85.9241 42.96C86.4441 42.4933 87.0707 42.1333 87.8041 41.88C88.5374 41.6133 89.3041 41.48 90.1041 41.48C91.3974 41.48 92.3907 41.8067 93.0841 42.46C93.7774 43.1133 94.1241 44.0867 94.1241 45.38V52H93.1641ZM89.4041 52.08C88.6307 52.08 87.9574 51.96 87.3841 51.72C86.8241 51.4667 86.3907 51.1133 86.0841 50.66C85.7907 50.2067 85.6441 49.6867 85.6441 49.1C85.6441 48.5667 85.7641 48.0867 86.0041 47.66C86.2574 47.22 86.6707 46.8667 87.2441 46.6C87.8174 46.32 88.5841 46.18 89.5441 46.18H93.3841V46.96H89.5641C88.4841 46.96 87.7241 47.16 87.2841 47.56C86.8574 47.96 86.6441 48.46 86.6441 49.06C86.6441 49.7267 86.8974 50.26 87.4041 50.66C87.9107 51.06 88.6241 51.26 89.5441 51.26C90.4241 51.26 91.1641 51.06 91.7641 50.66C92.3774 50.26 92.8307 49.68 93.1241 48.92L93.4041 49.6C93.1241 50.36 92.6441 50.9667 91.9641 51.42C91.2974 51.86 90.4441 52.08 89.4041 52.08ZM102.664 52.08C101.691 52.08 100.811 51.86 100.024 51.42C99.2509 50.9667 98.6376 50.34 98.1842 49.54C97.7309 48.74 97.5042 47.82 97.5042 46.78C97.5042 45.7267 97.7309 44.8067 98.1842 44.02C98.6376 43.22 99.2509 42.6 100.024 42.16C100.811 41.7067 101.691 41.48 102.664 41.48C103.584 41.48 104.411 41.6933 105.144 42.12C105.891 42.5467 106.478 43.1533 106.904 43.94C107.344 44.7267 107.564 45.6733 107.564 46.78C107.564 47.86 107.351 48.8 106.924 49.6C106.498 50.4 105.911 51.0133 105.164 51.44C104.431 51.8667 103.598 52.08 102.664 52.08ZM102.724 51.18C103.524 51.18 104.238 51 104.864 50.64C105.504 50.2667 106.004 49.7467 106.364 49.08C106.738 48.4133 106.924 47.6467 106.924 46.78C106.924 45.9 106.738 45.1333 106.364 44.48C106.004 43.8133 105.504 43.3 104.864 42.94C104.238 42.5667 103.524 42.38 102.724 42.38C101.924 42.38 101.204 42.5667 100.564 42.94C99.9376 43.3 99.4376 43.8133 99.0642 44.48C98.7042 45.1333 98.5242 45.9 98.5242 46.78C98.5242 47.6467 98.7042 48.4133 99.0642 49.08C99.4376 49.7467 99.9376 50.2667 100.564 50.64C101.204 51 101.924 51.18 102.724 51.18ZM106.944 52V48.58L107.124 46.76L106.924 44.94V37.16H107.924V52H106.944ZM118.397 52V38H119.257L129.237 50.74H128.777V38H129.797V52H128.957L118.957 39.26H119.417V52H118.397ZM134.766 52V41.56H135.766V52H134.766ZM135.266 39.02C135.039 39.02 134.846 38.94 134.686 38.78C134.526 38.62 134.446 38.4333 134.446 38.22C134.446 37.9933 134.526 37.8 134.686 37.64C134.846 37.48 135.039 37.4 135.266 37.4C135.506 37.4 135.699 37.48 135.846 37.64C136.006 37.7867 136.086 37.9733 136.086 38.2C136.086 38.4267 136.006 38.62 135.846 38.78C135.699 38.94 135.506 39.02 135.266 39.02ZM141.141 49.12L141.161 47.86L148.061 41.56H149.341L144.761 45.86L144.161 46.36L141.141 49.12ZM140.381 52V37.16H141.381V52H140.381ZM148.541 52L143.981 46.28L144.661 45.54L149.781 52H148.541ZM158.923 52V49.62L158.883 49.26V45.34C158.883 44.3667 158.617 43.6267 158.083 43.12C157.563 42.6133 156.797 42.36 155.783 42.36C155.063 42.36 154.39 42.4867 153.763 42.74C153.15 42.98 152.623 43.2933 152.183 43.68L151.683 42.96C152.203 42.4933 152.83 42.1333 153.563 41.88C154.297 41.6133 155.063 41.48 155.863 41.48C157.157 41.48 158.15 41.8067 158.843 42.46C159.537 43.1133 159.883 44.0867 159.883 45.38V52H158.923ZM155.163 52.08C154.39 52.08 153.717 51.96 153.143 51.72C152.583 51.4667 152.15 51.1133 151.843 50.66C151.55 50.2067 151.403 49.6867 151.403 49.1C151.403 48.5667 151.523 48.0867 151.763 47.66C152.017 47.22 152.43 46.8667 153.003 46.6C153.577 46.32 154.343 46.18 155.303 46.18H159.143V46.96H155.323C154.243 46.96 153.483 47.16 153.043 47.56C152.617 47.96 152.403 48.46 152.403 49.06C152.403 49.7267 152.657 50.26 153.163 50.66C153.67 51.06 154.383 51.26 155.303 51.26C156.183 51.26 156.923 51.06 157.523 50.66C158.137 50.26 158.59 49.68 158.883 48.92L159.163 49.6C158.883 50.36 158.403 50.9667 157.723 51.42C157.057 51.86 156.203 52.08 155.163 52.08ZM169.504 41.48C170.357 41.48 171.097 41.6467 171.724 41.98C172.364 42.3 172.857 42.7933 173.204 43.46C173.564 44.1133 173.744 44.9267 173.744 45.9V52H172.744V45.98C172.744 44.8067 172.444 43.9133 171.844 43.3C171.257 42.6867 170.43 42.38 169.364 42.38C168.55 42.38 167.844 42.5467 167.244 42.88C166.644 43.2133 166.184 43.68 165.864 44.28C165.557 44.88 165.404 45.6 165.404 46.44V52H164.404V37.16H165.404V44.46L165.224 44.14C165.544 43.3133 166.07 42.6667 166.804 42.2C167.537 41.72 168.437 41.48 169.504 41.48Z" fill="black"/>
<defs>
<linearGradient id="paint0_linear_510_240" x1="214.892" y1="19.2952" x2="214.892" y2="45.4895" gradientUnits="userSpaceOnUse">
<stop stop-color="#1C2D46"/>
<stop offset="0.739583" stop-color="#71A8CA"/>
</linearGradient>
<linearGradient id="paint1_linear_510_240" x1="214.892" y1="45.6245" x2="214.892" y2="71.8289" gradientUnits="userSpaceOnUse">
<stop stop-color="#1C2D46"/>
<stop offset="0.739583" stop-color="#71A8CA"/>
</linearGradient>
<linearGradient id="paint2_linear_510_240" x1="22.8247" y1="19.2952" x2="22.8247" y2="45.4895" gradientUnits="userSpaceOnUse">
<stop stop-color="#1C2D46"/>
<stop offset="0.739583" stop-color="#71A8CA"/>
</linearGradient>
<linearGradient id="paint3_linear_510_240" x1="22.8247" y1="45.618" x2="22.8247" y2="71.8288" gradientUnits="userSpaceOnUse">
<stop stop-color="#1C2D46"/>
<stop offset="0.739583" stop-color="#71A8CA"/>
</linearGradient>
<linearGradient id="paint4_linear_510_240" x1="169.064" y1="13.1251" x2="169.064" y2="26.4035" gradientUnits="userSpaceOnUse">
<stop stop-color="#1C2D46"/>
<stop offset="0.739583" stop-color="#71A8CA"/>
</linearGradient>
<linearGradient id="paint5_linear_510_240" x1="124.041" y1="14.7595" x2="124.041" y2="26.1121" gradientUnits="userSpaceOnUse">
<stop stop-color="#1C2D46"/>
<stop offset="0.739583" stop-color="#71A8CA"/>
</linearGradient>
<linearGradient id="paint6_linear_510_240" x1="118.867" y1="64.7038" x2="118.867" y2="78.0001" gradientUnits="userSpaceOnUse">
<stop stop-color="#1C2D46"/>
<stop offset="0.739583" stop-color="#71A8CA"/>
</linearGradient>
<linearGradient id="paint7_linear_510_240" x1="118.869" y1="28.9711" x2="118.869" y2="62.1361" gradientUnits="userSpaceOnUse">
<stop stop-color="#1C2D46"/>
<stop offset="0.739583" stop-color="#71A8CA"/>
</linearGradient>
<linearGradient id="paint8_linear_510_240" x1="230.289" y1="38.3856" x2="230.289" y2="52.7428" gradientUnits="userSpaceOnUse">
<stop stop-color="#1C2D46"/>
<stop offset="0.739583" stop-color="#71A8CA"/>
</linearGradient>
<linearGradient id="paint9_linear_510_240" x1="7.42404" y1="38.3856" x2="7.42404" y2="52.7428" gradientUnits="userSpaceOnUse">
<stop stop-color="#1C2D46"/>
<stop offset="0.739583" stop-color="#71A8CA"/>
</linearGradient>
<linearGradient id="paint10_linear_510_240" x1="207.738" y1="20.4553" x2="207.738" y2="24.8416" gradientUnits="userSpaceOnUse">
<stop stop-color="#1C2D46"/>
<stop offset="0.739583" stop-color="#71A8CA"/>
</linearGradient>
<linearGradient id="paint11_linear_510_240" x1="29.9752" y1="20.4553" x2="29.9752" y2="24.8416" gradientUnits="userSpaceOnUse">
<stop stop-color="#1C2D46"/>
<stop offset="0.739583" stop-color="#71A8CA"/>
</linearGradient>
<linearGradient id="paint12_linear_510_240" x1="207.738" y1="66.287" x2="207.738" y2="70.6734" gradientUnits="userSpaceOnUse">
<stop stop-color="#1C2D46"/>
<stop offset="0.739583" stop-color="#71A8CA"/>
</linearGradient>
<linearGradient id="paint13_linear_510_240" x1="29.9752" y1="66.287" x2="29.9752" y2="70.6734" gradientUnits="userSpaceOnUse">
<stop stop-color="#1C2D46"/>
<stop offset="0.739583" stop-color="#71A8CA"/>
</linearGradient>
<linearGradient id="paint14_linear_510_240" x1="217.672" y1="43.1145" x2="217.672" y2="47.993" gradientUnits="userSpaceOnUse">
<stop stop-color="#1C2D46"/>
<stop offset="0.739583" stop-color="#71A8CA"/>
</linearGradient>
<linearGradient id="paint15_linear_510_240" x1="20.0526" y1="43.1145" x2="20.0526" y2="47.993" gradientUnits="userSpaceOnUse">
<stop stop-color="#1C2D46"/>
<stop offset="0.739583" stop-color="#71A8CA"/>
</linearGradient>
<linearGradient id="paint16_linear_510_240" x1="118.857" y1="18.9789" x2="118.857" y2="20.5408" gradientUnits="userSpaceOnUse">
<stop stop-color="#1C2D46"/>
<stop offset="0.739583" stop-color="#71A8CA"/>
</linearGradient>
<linearGradient id="paint17_linear_510_240" x1="118.856" y1="2.31085" x2="118.856" y2="16.1117" gradientUnits="userSpaceOnUse">
<stop stop-color="#1C2D46"/>
<stop offset="0.739583" stop-color="#71A8CA"/>
</linearGradient>
<linearGradient id="paint18_linear_510_240" x1="118.857" y1="0" x2="118.857" y2="2.31085" gradientUnits="userSpaceOnUse">
<stop stop-color="#1C2D46"/>
<stop offset="0.739583" stop-color="#71A8CA"/>
</linearGradient>
<linearGradient id="paint19_linear_510_240" x1="128.905" y1="24.8416" x2="128.905" y2="26.9385" gradientUnits="userSpaceOnUse">
<stop stop-color="#1C2D46"/>
<stop offset="0.739583" stop-color="#71A8CA"/>
</linearGradient>
<linearGradient id="paint20_linear_510_240" x1="68.6598" y1="13.1251" x2="68.6598" y2="26.4035" gradientUnits="userSpaceOnUse">
<stop stop-color="#1C2D46"/>
<stop offset="0.739583" stop-color="#71A8CA"/>
</linearGradient>
<linearGradient id="paint21_linear_510_240" x1="113.68" y1="14.7595" x2="113.68" y2="26.1121" gradientUnits="userSpaceOnUse">
<stop stop-color="#1C2D46"/>
<stop offset="0.739583" stop-color="#71A8CA"/>
</linearGradient>
<linearGradient id="paint22_linear_510_240" x1="108.82" y1="24.8416" x2="108.82" y2="26.9385" gradientUnits="userSpaceOnUse">
<stop stop-color="#1C2D46"/>
<stop offset="0.739583" stop-color="#71A8CA"/>
</linearGradient>
<linearGradient id="paint23_linear_510_240" x1="118.867" y1="23.9215" x2="118.867" y2="26.9599" gradientUnits="userSpaceOnUse">
<stop stop-color="#1C2D46"/>
<stop offset="0.739583" stop-color="#71A8CA"/>
</linearGradient>
<linearGradient id="paint24_linear_510_240" x1="126.944" y1="6.23682" x2="126.944" y2="19.8963" gradientUnits="userSpaceOnUse">
<stop stop-color="#1C2D46"/>
<stop offset="0.739583" stop-color="#71A8CA"/>
</linearGradient>
<linearGradient id="paint25_linear_510_240" x1="145.749" y1="14.3894" x2="145.749" y2="24.5524" gradientUnits="userSpaceOnUse">
<stop stop-color="#1C2D46"/>
<stop offset="0.739583" stop-color="#71A8CA"/>
</linearGradient>
<linearGradient id="paint26_linear_510_240" x1="137.623" y1="15.0811" x2="137.623" y2="16.7828" gradientUnits="userSpaceOnUse">
<stop stop-color="#1C2D46"/>
<stop offset="0.739583" stop-color="#71A8CA"/>
</linearGradient>
<linearGradient id="paint27_linear_510_240" x1="147.4" y1="11.1797" x2="147.4" y2="25.4346" gradientUnits="userSpaceOnUse">
<stop stop-color="#1C2D46"/>
<stop offset="0.739583" stop-color="#71A8CA"/>
</linearGradient>
<linearGradient id="paint28_linear_510_240" x1="110.777" y1="6.23682" x2="110.777" y2="19.8963" gradientUnits="userSpaceOnUse">
<stop stop-color="#1C2D46"/>
<stop offset="0.739583" stop-color="#71A8CA"/>
</linearGradient>
<linearGradient id="paint29_linear_510_240" x1="91.9686" y1="14.3894" x2="91.9686" y2="24.5524" gradientUnits="userSpaceOnUse">
<stop stop-color="#1C2D46"/>
<stop offset="0.739583" stop-color="#71A8CA"/>
</linearGradient>
<linearGradient id="paint30_linear_510_240" x1="100.092" y1="15.0811" x2="100.092" y2="16.7828" gradientUnits="userSpaceOnUse">
<stop stop-color="#1C2D46"/>
<stop offset="0.739583" stop-color="#71A8CA"/>
</linearGradient>
<linearGradient id="paint31_linear_510_240" x1="90.3173" y1="11.1797" x2="90.3173" y2="25.4346" gradientUnits="userSpaceOnUse">
<stop stop-color="#1C2D46"/>
<stop offset="0.739583" stop-color="#71A8CA"/>
</linearGradient>
<linearGradient id="paint32_linear_510_240" x1="168.93" y1="18.2086" x2="168.93" y2="25.4022" gradientUnits="userSpaceOnUse">
<stop stop-color="#1C2D46"/>
<stop offset="0.739583" stop-color="#71A8CA"/>
</linearGradient>
<linearGradient id="paint33_linear_510_240" x1="68.7992" y1="18.2086" x2="68.7992" y2="25.4022" gradientUnits="userSpaceOnUse">
<stop stop-color="#1C2D46"/>
<stop offset="0.739583" stop-color="#71A8CA"/>
</linearGradient>
<linearGradient id="paint34_linear_510_240" x1="175.502" y1="22.4666" x2="175.502" y2="24.3495" gradientUnits="userSpaceOnUse">
<stop stop-color="#1C2D46"/>
<stop offset="0.739583" stop-color="#71A8CA"/>
</linearGradient>
<linearGradient id="paint35_linear_510_240" x1="177.928" y1="22.5307" x2="177.928" y2="24.2852" gradientUnits="userSpaceOnUse">
<stop stop-color="#1C2D46"/>
<stop offset="0.739583" stop-color="#71A8CA"/>
</linearGradient>
<linearGradient id="paint36_linear_510_240" x1="180.24" y1="22.5735" x2="180.24" y2="24.2211" gradientUnits="userSpaceOnUse">
<stop stop-color="#1C2D46"/>
<stop offset="0.739583" stop-color="#71A8CA"/>
</linearGradient>
<linearGradient id="paint37_linear_510_240" x1="182.491" y1="22.6377" x2="182.491" y2="24.1783" gradientUnits="userSpaceOnUse">
<stop stop-color="#1C2D46"/>
<stop offset="0.739583" stop-color="#71A8CA"/>
</linearGradient>
<linearGradient id="paint38_linear_510_240" x1="184.636" y1="22.7018" x2="184.636" y2="24.114" gradientUnits="userSpaceOnUse">
<stop stop-color="#1C2D46"/>
<stop offset="0.739583" stop-color="#71A8CA"/>
</linearGradient>
<linearGradient id="paint39_linear_510_240" x1="186.69" y1="22.7447" x2="186.69" y2="24.0713" gradientUnits="userSpaceOnUse">
<stop stop-color="#1C2D46"/>
<stop offset="0.739583" stop-color="#71A8CA"/>
</linearGradient>
<linearGradient id="paint40_linear_510_240" x1="188.659" y1="22.809" x2="188.659" y2="24.0072" gradientUnits="userSpaceOnUse">
<stop stop-color="#1C2D46"/>
<stop offset="0.739583" stop-color="#71A8CA"/>
</linearGradient>
<linearGradient id="paint41_linear_510_240" x1="190.527" y1="22.8518" x2="190.527" y2="23.9644" gradientUnits="userSpaceOnUse">
<stop stop-color="#1C2D46"/>
<stop offset="0.739583" stop-color="#71A8CA"/>
</linearGradient>
<linearGradient id="paint42_linear_510_240" x1="192.309" y1="22.916" x2="192.309" y2="23.9002" gradientUnits="userSpaceOnUse">
<stop stop-color="#1C2D46"/>
<stop offset="0.739583" stop-color="#71A8CA"/>
</linearGradient>
<linearGradient id="paint43_linear_510_240" x1="194.01" y1="22.9586" x2="194.01" y2="23.8573" gradientUnits="userSpaceOnUse">
<stop stop-color="#1C2D46"/>
<stop offset="0.739583" stop-color="#71A8CA"/>
</linearGradient>
<linearGradient id="paint44_linear_510_240" x1="62.2224" y1="22.4666" x2="62.2224" y2="24.3495" gradientUnits="userSpaceOnUse">
<stop stop-color="#1C2D46"/>
<stop offset="0.739583" stop-color="#71A8CA"/>
</linearGradient>
<linearGradient id="paint45_linear_510_240" x1="59.8073" y1="22.5307" x2="59.8073" y2="24.2852" gradientUnits="userSpaceOnUse">
<stop stop-color="#1C2D46"/>
<stop offset="0.739583" stop-color="#71A8CA"/>
</linearGradient>
<linearGradient id="paint46_linear_510_240" x1="57.4742" y1="22.5735" x2="57.4742" y2="24.2211" gradientUnits="userSpaceOnUse">
<stop stop-color="#1C2D46"/>
<stop offset="0.739583" stop-color="#71A8CA"/>
</linearGradient>
<linearGradient id="paint47_linear_510_240" x1="55.2352" y1="22.6377" x2="55.2352" y2="24.1783" gradientUnits="userSpaceOnUse">
<stop stop-color="#1C2D46"/>
<stop offset="0.739583" stop-color="#71A8CA"/>
</linearGradient>
<linearGradient id="paint48_linear_510_240" x1="53.0765" y1="22.7018" x2="53.0765" y2="24.114" gradientUnits="userSpaceOnUse">
<stop stop-color="#1C2D46"/>
<stop offset="0.739583" stop-color="#71A8CA"/>
</linearGradient>
<linearGradient id="paint49_linear_510_240" x1="51.0345" y1="22.7447" x2="51.0345" y2="24.0713" gradientUnits="userSpaceOnUse">
<stop stop-color="#1C2D46"/>
<stop offset="0.739583" stop-color="#71A8CA"/>
</linearGradient>
<linearGradient id="paint50_linear_510_240" x1="49.065" y1="22.809" x2="49.065" y2="24.0072" gradientUnits="userSpaceOnUse">
<stop stop-color="#1C2D46"/>
<stop offset="0.739583" stop-color="#71A8CA"/>
</linearGradient>
<linearGradient id="paint51_linear_510_240" x1="47.188" y1="22.8518" x2="47.188" y2="23.9644" gradientUnits="userSpaceOnUse">
<stop stop-color="#1C2D46"/>
<stop offset="0.739583" stop-color="#71A8CA"/>
</linearGradient>
<linearGradient id="paint52_linear_510_240" x1="45.4043" y1="22.916" x2="45.4043" y2="23.9002" gradientUnits="userSpaceOnUse">
<stop stop-color="#1C2D46"/>
<stop offset="0.739583" stop-color="#71A8CA"/>
</linearGradient>
<linearGradient id="paint53_linear_510_240" x1="43.7148" y1="22.9586" x2="43.7148" y2="23.8573" gradientUnits="userSpaceOnUse">
<stop stop-color="#1C2D46"/>
<stop offset="0.739583" stop-color="#71A8CA"/>
</linearGradient>
</defs>
</svg>
