<svg width="239" height="82" viewBox="0 0 239 82" fill="none" xmlns="http://www.w3.org/2000/svg">
<path d="M0 1.5092L120.248 0H238.987V82L120.5 82L0 82V1.5092Z" fill="white"/>
<path d="M217.683 47.4895C216.335 47.4895 214.904 47.2113 213.494 46.5908C208.434 44.4083 205.406 38.9522 205.406 31.9768C205.406 27.0556 208.952 21.4496 213.66 21.2998C216.708 21.1928 217.745 22.9474 218.098 24.4452C218.326 25.408 218.139 26.4565 217.579 27.2695C217.081 27.997 216.314 28.4463 215.422 28.5319C214.489 28.639 213.556 28.3608 212.934 27.8044C212.416 27.3337 212.104 26.6918 212.063 25.9643C212.063 25.9002 212.063 25.8573 212.063 25.8145C212.063 24.5093 212.975 23.5251 214.199 23.5251C215.174 23.5251 216.148 24.2312 216.148 25.5364C216.148 25.8359 215.92 26.0713 215.63 26.0713C215.36 26.0713 215.132 25.8359 215.132 25.5364C215.132 24.6163 214.365 24.5735 214.199 24.5735C213.66 24.5735 213.079 24.9587 213.079 25.8145C213.079 25.8359 213.079 25.8573 213.079 25.9C213.1 26.3493 213.286 26.7131 213.598 27.0127C214.012 27.3764 214.655 27.569 215.319 27.5048C216.086 27.4193 216.522 26.9912 216.77 26.6489C217.144 26.114 217.289 25.3437 217.123 24.6804C216.729 23.0543 215.588 22.2839 213.681 22.3481C209.533 22.4766 206.422 27.5262 206.422 31.9767C206.422 41.3913 211.648 44.6649 213.888 45.6278C216.916 46.933 220.213 46.6334 221.893 44.9217C222.929 43.8733 223.469 42.4397 223.344 40.9847C223.24 39.5511 222.535 38.3101 221.395 37.4756C220.503 36.8337 219.425 36.577 218.367 36.7696C217.289 36.9621 216.356 37.5612 215.734 38.4813C215.277 39.1446 215.091 39.9791 215.215 40.7922C215.36 41.6052 215.796 42.3113 216.439 42.782C216.916 43.1244 217.496 43.2742 218.077 43.1672C218.658 43.0601 219.155 42.7392 219.487 42.2471C219.985 41.5196 219.819 40.5354 219.114 40.0218C218.637 39.6581 217.952 39.7865 217.621 40.2786C217.455 40.514 217.144 40.5782 216.916 40.4071C216.687 40.2359 216.625 39.9149 216.791 39.6796C217.455 38.6953 218.761 38.4813 219.694 39.166C220.856 40.0005 221.125 41.6694 220.316 42.8463C219.819 43.5738 219.093 44.0445 218.243 44.1943C217.413 44.3441 216.563 44.1515 215.858 43.638C214.987 42.996 214.406 42.0546 214.22 40.9633C214.054 39.8721 214.282 38.7809 214.904 37.8608C215.692 36.7268 216.853 35.9779 218.201 35.7425C219.528 35.5072 220.876 35.8066 221.975 36.6198C223.365 37.6255 224.215 39.1874 224.36 40.8992C224.506 42.6537 223.863 44.3868 222.618 45.6492C221.416 46.8689 219.653 47.4895 217.683 47.4895Z" fill="url(#paint0_linear_510_242)"/>
<path d="M213.888 73.8288C213.805 73.8288 213.743 73.8288 213.66 73.8288C208.952 73.679 205.406 68.0517 205.406 63.1304C205.406 56.1765 208.434 50.6989 213.494 48.5164C216.936 47.0401 220.607 47.4252 222.618 49.4579C223.863 50.7203 224.506 52.4748 224.36 54.2294C224.215 55.9411 223.365 57.4817 221.976 58.4873C220.876 59.3004 219.529 59.6214 218.201 59.386C216.853 59.1506 215.692 58.3803 214.904 57.2463C214.282 56.3477 214.054 55.2564 214.22 54.1652C214.406 53.074 214.987 52.1111 215.858 51.4692C216.563 50.9771 217.413 50.7631 218.243 50.9129C219.093 51.0627 219.819 51.5548 220.317 52.2609C221.125 53.4591 220.856 55.1067 219.694 55.9625C218.761 56.6472 217.455 56.4119 216.791 55.449C216.625 55.2136 216.687 54.8927 216.916 54.7215C217.144 54.5503 217.455 54.6144 217.621 54.8499C217.953 55.342 218.637 55.4704 219.114 55.1067C219.819 54.5932 219.985 53.5875 219.487 52.86C219.155 52.3679 218.658 52.047 218.077 51.9614C217.496 51.8543 216.916 51.9827 216.439 52.3251C215.796 52.8172 215.36 53.5233 215.215 54.3364C215.091 55.1495 215.277 55.9626 215.734 56.6473C216.356 57.5673 217.289 58.1664 218.367 58.359C219.425 58.5515 220.503 58.2949 221.395 57.6529C222.536 56.797 223.241 55.556 223.344 54.1438C223.469 52.6889 222.93 51.2553 221.893 50.2069C220.213 48.4737 216.916 48.1742 213.888 49.4794C211.648 50.4636 206.422 53.7159 206.422 63.1305C206.422 67.581 209.533 72.652 213.681 72.7804C215.609 72.8445 216.729 72.0743 217.123 70.4268C217.289 69.7635 217.144 69.0146 216.771 68.4583C216.522 68.1159 216.086 67.688 215.319 67.6238C214.655 67.5597 214.012 67.7308 213.598 68.1159C213.287 68.3941 213.1 68.7578 213.079 69.2285C213.079 69.2499 213.079 69.2713 213.079 69.3142C213.079 70.1487 213.66 70.5338 214.199 70.5338C214.365 70.5338 215.132 70.4911 215.132 69.571C215.132 69.2928 215.36 69.0575 215.63 69.0575C215.92 69.0575 216.148 69.2928 216.148 69.571C216.148 70.8976 215.174 71.5823 214.199 71.5823C212.976 71.5823 212.063 70.598 212.063 69.3142C212.063 69.2715 212.063 69.2072 212.063 69.1644C212.105 68.437 212.416 67.795 212.934 67.3243C213.556 66.768 214.489 66.4898 215.423 66.5755C216.314 66.6611 217.082 67.1104 217.579 67.8592C218.139 68.6509 218.326 69.7207 218.098 70.6836C217.766 72.1172 216.75 73.8288 213.888 73.8288Z" fill="url(#paint1_linear_510_242)"/>
<path d="M20.033 47.4894C18.0629 47.4894 16.3002 46.8689 15.1181 45.6493C13.8532 44.3869 13.231 42.6538 13.3555 40.8992C13.5006 39.1875 14.3716 37.6255 15.7403 36.6199C16.8394 35.8068 18.1873 35.5073 19.5353 35.7426C20.8625 35.978 22.0238 36.7269 22.8118 37.8609C23.4339 38.7809 23.6828 39.8722 23.4961 40.9634C23.3095 42.0546 22.7288 42.9961 21.8579 43.638C21.1735 44.1515 20.3233 44.3441 19.473 44.1943C18.6435 44.0445 17.897 43.5738 17.3993 42.8463C16.5905 41.6695 16.8601 40.0006 18.0214 39.1661C18.9546 38.4814 20.2611 38.6954 20.9247 39.6796C21.0906 39.915 21.0283 40.2359 20.8002 40.4071C20.5721 40.5783 20.2611 40.5142 20.0952 40.2787C19.7634 39.7866 19.079 39.6582 18.6021 40.0219C17.897 40.5354 17.7311 41.5197 18.2288 42.2472C18.5606 42.7393 19.079 43.0602 19.6389 43.1672C20.2196 43.2743 20.8002 43.1245 21.2772 42.7821C21.9201 42.3114 22.3556 41.6053 22.5007 40.7922C22.6251 39.9791 22.4592 39.1446 21.9823 38.4814C21.3602 37.5613 20.427 36.9622 19.3486 36.7696C18.291 36.5771 17.2127 36.8337 16.3209 37.4757C15.1804 38.3102 14.4753 39.5512 14.3716 40.9848C14.2679 42.4397 14.7864 43.8733 15.8232 44.9218C17.5237 46.6335 20.821 46.9331 23.8279 45.6279C26.0676 44.665 31.2934 41.3913 31.2934 31.9767C31.2934 27.5262 28.1828 22.4766 24.0353 22.3482C22.1067 22.2841 20.9869 23.0543 20.5929 24.6805C20.4477 25.3438 20.5721 26.114 20.9661 26.649C21.1943 26.9913 21.6298 27.4192 22.397 27.5048C23.0606 27.5689 23.7035 27.3764 24.1183 27.0127C24.4501 26.7131 24.616 26.3494 24.6367 25.9001C24.6367 25.8573 24.6367 25.836 24.6367 25.8146C24.6367 24.9587 24.056 24.5736 23.5169 24.5736C23.3717 24.5736 22.5837 24.6163 22.5837 25.5364C22.5837 25.836 22.3556 26.0714 22.086 26.0714C21.7957 26.0714 21.5883 25.836 21.5883 25.5364C21.5883 24.2312 22.5629 23.5251 23.5169 23.5251C24.7404 23.5251 25.6528 24.5094 25.6528 25.8146C25.6528 25.8573 25.6528 25.9001 25.6528 25.9644C25.6113 26.6919 25.321 27.3338 24.7819 27.8045C24.1597 28.3608 23.2265 28.639 22.2933 28.532C21.4224 28.4463 20.6343 27.9971 20.1366 27.2696C19.5767 26.4565 19.3901 25.4081 19.6182 24.4452C19.9707 22.9474 21.0284 21.1929 24.056 21.2999C28.7842 21.4497 32.3096 27.0556 32.3096 31.9769C32.3096 38.9522 29.2819 44.4084 24.2219 46.5908C22.8118 47.2113 21.3809 47.4894 20.033 47.4894Z" fill="url(#paint2_linear_510_242)"/>
<path d="M23.8279 73.8288C20.9661 73.8288 19.95 72.1171 19.6182 70.6835C19.3901 69.7206 19.5767 68.6508 20.1366 67.8591C20.6343 67.1103 21.4223 66.6609 22.2933 66.5753C23.2265 66.4897 24.1597 66.7679 24.7818 67.3242C25.321 67.7949 25.6113 68.4369 25.6528 69.1643C25.6528 69.2071 25.6528 69.2714 25.6528 69.3141C25.6528 70.5979 24.7404 71.5822 23.5168 71.5822C22.5629 71.5822 21.5883 70.8975 21.5883 69.5709C21.5883 69.2927 21.7956 69.0574 22.086 69.0574C22.3555 69.0574 22.5837 69.2927 22.5837 69.5709C22.5837 70.4909 23.3717 70.5337 23.5168 70.5337C24.056 70.5337 24.6367 70.1486 24.6367 69.3141C24.6367 69.2714 24.6367 69.25 24.6367 69.2284C24.6159 68.7577 24.45 68.394 24.1182 68.1158C23.7035 67.7307 23.0606 67.5595 22.397 67.6237C21.6297 67.6878 21.1942 68.1158 20.9661 68.4582C20.5721 69.0145 20.4477 69.7634 20.5928 70.4267C20.9869 72.0742 22.1067 72.8445 24.0353 72.7803C28.1828 72.6519 31.2934 67.5809 31.2934 63.1304C31.2934 53.7158 26.0676 50.4635 23.8279 49.4793C20.821 48.1741 17.5237 48.4736 15.8232 50.2068C14.7863 51.2552 14.2679 52.6888 14.3716 54.1437C14.4753 55.5559 15.1803 56.7969 16.3209 57.6528C17.2126 58.2947 18.291 58.5515 19.3486 58.3589C20.427 58.1664 21.3601 57.5672 21.9823 56.6472C22.4592 55.9625 22.6251 55.1494 22.5007 54.3363C22.3555 53.5232 21.9201 52.8172 21.2772 52.325C20.8002 51.9827 20.2196 51.8543 19.6389 51.9613C19.079 52.0468 18.5606 52.3678 18.2288 52.8599C17.7311 53.5874 17.897 54.5931 18.602 55.1066C19.079 55.4703 19.7633 55.342 20.0951 54.8498C20.261 54.6145 20.5721 54.5503 20.8002 54.7214C21.0283 54.8926 21.0905 55.2135 20.9247 55.4489C20.2611 56.4118 18.9546 56.6471 18.0214 55.9624C16.8601 55.1066 16.5905 53.459 17.3993 52.2608C17.897 51.5547 18.6435 51.0626 19.473 50.9128C20.3233 50.763 21.1735 50.9769 21.8579 51.4691C22.7288 52.111 23.3095 53.0739 23.4961 54.1651C23.6827 55.2563 23.4339 56.3476 22.8118 57.2462C22.0237 58.3803 20.8624 59.1505 19.5352 59.3859C18.1873 59.6213 16.8394 59.3002 15.7403 58.4872C14.3716 57.4816 13.5006 55.941 13.3555 54.2293C13.231 52.4747 13.8532 50.7202 15.1181 49.4578C17.1297 47.4037 20.7795 47.04 24.2219 48.5164C29.2819 50.6988 32.3096 56.1764 32.3096 63.1303C32.3096 68.0516 28.7842 73.6789 24.056 73.8287C23.9938 73.8287 23.9108 73.8288 23.8279 73.8288Z" fill="url(#paint3_linear_510_242)"/>
<path d="M196.51 28.4035H128.905C128.615 28.4035 128.387 28.1681 128.387 27.89C128.387 27.5904 128.615 27.3551 128.905 27.3551H196.51C203.685 27.3551 208.579 24.3167 208.724 19.7806C208.786 17.7907 208.04 16.6353 206.443 16.2288C205.8 16.079 205.074 16.2074 204.535 16.6139C204.203 16.8493 203.788 17.32 203.726 18.0903C203.664 18.775 203.83 19.4383 204.203 19.8662C204.473 20.2086 204.825 20.3797 205.261 20.4011C205.302 20.4011 205.323 20.4011 205.365 20.4011C206.173 20.4011 206.547 19.802 206.547 19.2457C206.547 19.0959 206.505 18.2829 205.613 18.2829C205.344 18.2829 205.116 18.0689 205.116 17.7693C205.116 17.4912 205.344 17.2558 205.613 17.2558C206.899 17.2558 207.563 18.2614 207.563 19.2457C207.563 20.5509 206.526 21.5352 205.219 21.4496C204.494 21.4068 203.892 21.1072 203.436 20.5509C202.897 19.909 202.627 18.9461 202.71 17.9833C202.793 17.0846 203.229 16.293 203.954 15.758C204.722 15.1803 205.759 14.9878 206.692 15.2231C208.123 15.5869 209.823 16.6781 209.74 19.802C209.574 24.9586 204.265 28.4035 196.51 28.4035Z" fill="url(#paint4_linear_510_242)"/>
<path d="M125.338 20.2728C124.613 18.6894 122.497 20.0374 122.995 21.5138C123.576 23.2041 125.649 23.0116 126.562 21.7919C127.516 20.5295 127.101 18.7964 125.981 17.8335C124.737 16.7851 123.057 16.8707 121.792 17.7908C118.951 19.8235 119.615 24.0173 122.186 25.9858C124.779 27.9329 127.433 27.8045 128.905 27.8901C127.205 28.3608 123.99 28.1682 121.689 26.4779C120.424 25.5578 119.49 24.0814 119.242 22.4981C118.765 19.5881 121.108 16.4428 124.094 16.7852C125.463 16.9563 126.707 17.8978 127.246 19.203C127.827 20.658 127.288 22.3911 125.919 23.1186C124.592 23.8461 122.829 23.1613 122.456 21.5994C122.207 20.5082 123.099 19.2458 124.094 19.2458C124.633 19.2244 125.235 19.6095 125.338 20.2728Z" fill="url(#paint5_linear_510_242)"/>
<path d="M205.903 79.9912C205.198 79.9912 204.514 79.7772 203.954 79.3707C203.228 78.8357 202.792 78.044 202.71 77.124C202.627 76.1611 202.896 75.1983 203.435 74.5564C203.892 74.0215 204.493 73.7219 205.219 73.6791C205.26 73.6577 205.302 73.6577 205.364 73.6577C206.608 73.6577 207.562 74.6206 207.562 75.8616C207.562 76.8672 206.899 77.8729 205.613 77.8729C205.343 77.8729 205.115 77.6375 205.115 77.3594C205.115 77.0598 205.343 76.8244 205.613 76.8244C206.505 76.8244 206.546 76.0328 206.546 75.8616C206.546 75.3053 206.173 74.7062 205.364 74.7062C205.323 74.7062 205.302 74.7062 205.26 74.7062C204.825 74.7489 204.472 74.9202 204.203 75.2411C203.829 75.669 203.663 76.3537 203.726 77.0384C203.788 77.8087 204.203 78.258 204.534 78.5148C205.074 78.8999 205.799 79.0497 206.442 78.8785C208.039 78.472 208.786 77.3166 208.723 75.3481C208.578 70.812 203.684 67.7522 196.509 67.7522H41.2055C34.0304 67.7522 29.1363 70.812 28.9911 75.3481C28.9497 77.3166 29.6962 78.472 31.2723 78.8785C31.9151 79.0497 32.6409 78.8999 33.1801 78.5148C33.5119 78.258 33.9267 77.8087 34.0096 77.0384C34.0718 76.3537 33.8852 75.669 33.5119 75.2411C33.2423 74.9202 32.8898 74.749 32.4543 74.7062C32.4128 74.7062 32.3921 74.7062 32.3714 74.7062C31.5419 74.7062 31.1686 75.3053 31.1686 75.8616C31.1686 76.0328 31.2101 76.8244 32.1018 76.8244C32.3921 76.8244 32.5995 77.0598 32.5995 77.3594C32.5995 77.6375 32.3921 77.8729 32.1018 77.8729C30.8368 77.8729 30.1524 76.8672 30.1524 75.8616C30.1524 74.5564 31.1893 73.5935 32.5165 73.6791C33.2216 73.7219 33.8437 74.0215 34.2792 74.5564C34.8184 75.1983 35.088 76.1611 35.005 77.124C34.9221 78.0441 34.4866 78.8357 33.7608 79.3707C32.9935 79.927 31.9773 80.1409 31.0442 79.9056C29.5925 79.5418 27.892 78.4506 27.9957 75.3053C28.1409 70.1701 33.4497 66.7038 41.2055 66.7038H196.509C204.265 66.7038 209.574 70.1701 209.74 75.3053C209.823 78.4506 208.122 79.5418 206.691 79.9056C206.422 79.9697 206.152 79.9912 205.903 79.9912Z" fill="url(#paint6_linear_510_242)"/>
<path d="M203.312 64.1361H34.4047V63.8151C34.5499 58.466 33.8448 51.8116 27.0636 47.8318L26.6074 47.5536L27.0636 47.2969C33.8448 43.2956 34.5499 36.6413 34.4047 31.2921V30.9711H203.312V31.2921C203.167 36.6413 203.872 43.2956 210.653 47.2969L211.13 47.5536L210.653 47.8318C203.872 51.8116 203.167 58.466 203.312 63.8151V64.1361ZM35.0269 63.5156H202.69C202.586 58.1664 203.395 51.6404 209.907 47.5536C203.395 43.4668 202.586 36.9408 202.69 31.5916H35.0269C35.1305 36.9408 34.3425 43.4668 27.8102 47.5536C34.3425 51.6404 35.1305 58.1664 35.0269 63.5156Z" fill="url(#paint7_linear_510_242)"/>
<path d="M230.808 44.2156C228.381 44.0445 226.951 45.7776 226.951 45.7776C228.236 42.6537 225.976 40.3856 225.976 40.3856C226.639 44.9859 222.865 47.5535 222.865 47.5535C222.865 47.5535 226.639 50.1425 225.976 54.7428C225.976 54.7428 228.236 52.4748 226.951 49.3295C226.951 49.3295 228.381 51.084 230.808 50.9128C233.234 50.7203 235.142 48.1954 237.713 47.5535C235.142 46.933 233.234 44.3868 230.808 44.2156Z" fill="url(#paint8_linear_510_242)"/>
<path d="M6.9056 44.2156C9.3319 44.0445 10.7628 45.7776 10.7628 45.7776C9.49779 42.6537 11.7582 40.3856 11.7582 40.3856C11.0739 44.9859 14.8481 47.5535 14.8481 47.5535C14.8481 47.5535 11.0739 50.1425 11.7582 54.7428C11.7582 54.7428 9.49779 52.4748 10.7628 49.3295C10.7628 49.3295 9.3319 51.084 6.9056 50.9128C4.47931 50.7203 2.57146 48.1954 0 47.5535C2.57146 46.933 4.47931 44.3868 6.9056 44.2156Z" fill="url(#paint9_linear_510_242)"/>
<path d="M209.863 24.6377C209.863 25.8573 208.909 26.8416 207.747 26.8416C206.565 26.8416 205.611 25.8573 205.611 24.6377C205.611 23.4395 206.565 22.4553 207.747 22.4553C208.909 22.4553 209.863 23.4395 209.863 24.6377Z" fill="url(#paint10_linear_510_242)"/>
<path d="M27.8496 24.6377C27.8496 25.8573 28.8035 26.8416 29.9856 26.8416C31.1469 26.8416 32.1008 25.8573 32.1008 24.6377C32.1008 23.4395 31.1469 22.4553 29.9856 22.4553C28.8035 22.4553 27.8496 23.4395 27.8496 24.6377Z" fill="url(#paint11_linear_510_242)"/>
<path d="M209.863 70.4695C209.863 69.2713 208.909 68.287 207.747 68.287C206.565 68.287 205.611 69.2713 205.611 70.4695C205.611 71.6891 206.565 72.6734 207.747 72.6734C208.909 72.6734 209.863 71.6891 209.863 70.4695Z" fill="url(#paint12_linear_510_242)"/>
<path d="M27.8496 70.4695C27.8496 69.2713 28.8035 68.287 29.9856 68.287C31.1469 68.287 32.1008 69.2713 32.1008 70.4695C32.1008 71.6891 31.1469 72.6734 29.9856 72.6734C28.8035 72.6734 27.8496 71.6891 27.8496 70.4695Z" fill="url(#paint13_linear_510_242)"/>
<path d="M218.554 47.5537C218.554 48.9017 218.16 49.993 217.662 49.993C217.185 49.993 216.791 48.9017 216.791 47.5537C216.791 46.2057 217.185 45.1145 217.662 45.1145C218.16 45.1145 218.554 46.2057 218.554 47.5537Z" fill="url(#paint14_linear_510_242)"/>
<path d="M19.1816 47.5537C19.1816 48.9017 19.5757 49.993 20.0526 49.993C20.5296 49.993 20.9236 48.9017 20.9236 47.5537C20.9236 46.2057 20.5296 45.1145 20.0526 45.1145C19.5757 45.1145 19.1816 46.2057 19.1816 47.5537Z" fill="url(#paint15_linear_510_242)"/>
<path d="M121.335 21.7706C121.335 22.1985 120.236 22.5408 118.867 22.5408C117.499 22.5408 116.379 22.1985 116.379 21.7706C116.379 21.3426 117.499 20.9789 118.867 20.9789C120.236 20.9789 121.335 21.3426 121.335 21.7706Z" fill="url(#paint16_linear_510_242)"/>
<path d="M120.671 13.8538C120.671 13.8538 122.226 12.9765 121.542 10.8582C120.878 8.76136 119.198 6.66449 118.866 4.31085C118.535 6.66449 116.855 8.76136 116.171 10.8582C115.486 12.9765 117.042 13.8538 117.042 13.8538C113.806 12.7626 111.795 15.7581 111.795 15.7581C116.565 14.1748 118.866 18.1117 118.866 18.1117C118.866 18.1117 121.168 14.1748 125.917 15.7581C125.917 15.7581 123.906 12.7626 120.671 13.8538Z" fill="url(#paint17_linear_510_242)"/>
<path d="M118.868 2C118.246 2 117.748 2.51352 117.748 3.15542C117.748 3.77593 118.246 4.31085 118.868 4.31085C119.469 4.31085 119.967 3.77593 119.967 3.15542C119.967 2.51352 119.469 2 118.868 2Z" fill="url(#paint18_linear_510_242)"/>
<path d="M129.921 27.8901C129.921 28.4678 129.465 28.9385 128.905 28.9385C128.345 28.9385 127.889 28.4678 127.889 27.8901C127.889 27.3123 128.345 26.8416 128.905 26.8416C129.465 26.8416 129.921 27.3123 129.921 27.8901Z" fill="url(#paint19_linear_510_242)"/>
<path d="M108.81 28.4035H41.2055C33.4497 28.4035 28.1409 24.9586 27.9957 19.802C27.892 16.6781 29.5925 15.5868 31.0442 15.2231C31.9773 14.9878 32.9935 15.1804 33.7815 15.758C34.4866 16.293 34.9221 17.0846 35.005 17.9833C35.088 18.9461 34.8184 19.909 34.2792 20.5509C33.8437 21.1072 33.2216 21.4068 32.5165 21.4496C32.4543 21.4496 32.4128 21.4496 32.3713 21.4496C31.1063 21.4496 30.1524 20.5081 30.1524 19.2457C30.1524 18.2614 30.8368 17.2558 32.1018 17.2558C32.3921 17.2558 32.5995 17.4912 32.5995 17.7693C32.5995 18.0689 32.3921 18.2828 32.1018 18.2828C31.21 18.2828 31.1686 19.0959 31.1686 19.2457C31.1686 19.8234 31.5833 20.4653 32.4543 20.4011C32.8898 20.3798 33.2423 20.2086 33.5119 19.8662C33.8852 19.4383 34.0718 18.775 34.0096 18.0903C33.9267 17.32 33.5119 16.8493 33.1801 16.6139C32.6409 16.2074 31.9151 16.079 31.2723 16.2288C29.6962 16.6353 28.9497 17.7907 28.9911 19.7806C29.1363 24.3167 34.0304 27.3551 41.2055 27.3551H108.81C109.1 27.3551 109.328 27.5904 109.328 27.89C109.328 28.1681 109.1 28.4035 108.81 28.4035Z" fill="url(#paint20_linear_510_242)"/>
<path d="M112.398 20.2728C113.103 18.6894 115.218 20.0374 114.721 21.5138C114.161 23.2041 112.066 23.0116 111.154 21.7919C110.221 20.5295 110.615 18.7964 111.755 17.8335C112.979 16.7851 114.659 16.8707 115.924 17.7908C118.785 19.8235 118.101 24.0173 115.529 25.9858C112.937 27.9329 110.283 27.8045 108.811 27.8901C110.532 28.3608 113.725 28.1682 116.027 26.4779C117.292 25.5578 118.246 24.0814 118.495 22.4981C118.951 19.5881 116.608 16.4428 113.622 16.7852C112.253 16.9563 111.029 17.8978 110.49 19.203C109.889 20.658 110.428 22.3911 111.797 23.1186C113.145 23.8461 114.907 23.1613 115.26 21.5994C115.509 20.5082 114.617 19.2458 113.622 19.2458C113.103 19.2244 112.502 19.6095 112.398 20.2728Z" fill="url(#paint21_linear_510_242)"/>
<path d="M107.814 27.8901C107.814 28.4678 108.25 28.9385 108.81 28.9385C109.37 28.9385 109.826 28.4678 109.826 27.8901C109.826 27.3123 109.37 26.8416 108.81 26.8416C108.25 26.8416 107.814 27.3123 107.814 27.8901Z" fill="url(#paint22_linear_510_242)"/>
<path d="M120.339 27.4407C120.339 28.2752 119.676 28.9599 118.867 28.9599C118.037 28.9599 117.395 28.2752 117.395 27.4407C117.395 26.6062 118.037 25.9215 118.867 25.9215C119.676 25.9215 120.339 26.6062 120.339 27.4407Z" fill="url(#paint23_linear_510_242)"/>
<path d="M130.585 21.3855C129.403 18.069 129.859 14.6241 129.03 11.2648C128.594 9.48887 127.101 8.0981 125.256 8.24787C123.97 8.37629 123.265 9.42468 123.286 10.6657C123.306 12.2705 125.546 12.677 125.816 11.0508C125.857 10.7941 125.691 10.4517 125.629 10.8797C125.38 12.2919 122.415 11.1365 123.929 9.4889C124.281 9.12515 124.779 8.95397 125.235 8.88978C126.479 8.67583 127.62 9.4461 128.304 10.4517C129.403 12.0137 129.217 14.3674 129.32 16.2075C129.445 18.1332 129.777 19.9947 130.419 21.8134C130.523 22.113 130.647 21.5138 130.585 21.3855Z" fill="url(#paint24_linear_510_242)"/>
<path d="M142.032 26.5421C144.541 25.7504 146.905 24.4238 148.647 22.3483C149.933 20.7863 150.7 18.2401 148.813 16.8066C147.817 16.0577 145.951 16.3144 145.619 17.5982C145.204 19.2244 148.129 19.7807 148.108 18.0904C148.108 18.0476 147.61 18.0476 147.61 18.069C147.631 18.5397 147.423 19.5882 146.428 18.7323C146.138 18.4756 146.096 18.0048 146.117 17.6197C146.158 16.1647 148.046 16.4429 148.771 17.1704C149.684 18.0904 149.58 19.5668 149.165 20.6794C147.983 23.7605 144.416 25.6007 141.555 26.5207C141.638 26.478 141.887 26.5848 142.032 26.5421Z" fill="url(#paint25_linear_510_242)"/>
<path d="M138.443 17.8336C138.401 17.3842 137.986 17.0419 137.53 17.0847C137.074 17.1274 136.742 17.5554 136.804 18.0262C136.846 18.4969 137.261 18.8392 137.717 18.775C138.173 18.7323 138.484 18.3043 138.443 17.8336Z" fill="url(#paint26_linear_510_242)"/>
<path d="M164.282 20.6366C162.706 16.8708 158.226 18.0048 155.489 19.31C148.998 22.4125 138.111 31.8913 131.931 23.3326C129.982 20.658 130.085 16.6568 132.989 14.6455C135.042 13.2547 137.468 13.3403 139.106 15.0735C141.781 17.855 139.563 22.6907 135.892 21.0859C134.544 20.4654 133.839 18.069 135.436 17.1489C136.597 16.4856 137.655 17.4699 137.966 18.5183C137.945 18.4327 138.505 18.0476 138.443 17.8336C137.51 14.6883 133.362 17.2345 134.046 19.6952C134.503 21.2357 135.56 21.899 136.722 21.9204C139.687 21.9631 142.507 18.3257 139.728 14.7311C138.298 12.891 135.83 12.8696 133.901 13.7255C131.454 14.7953 129.671 18.1546 130.21 20.8292C131.205 25.9216 135.56 27.9329 140.185 27.184C144.788 26.4351 148.853 23.5038 152.814 21.1929C155.53 19.6096 159.367 17.5341 162.187 19.3314C165.381 21.3641 164.738 25.6648 161.648 26.6491C160.839 26.8845 159.844 26.8845 159.118 26.5421C158.226 26.0927 157.666 24.5307 158.268 23.7605C158.724 23.1828 159.657 22.819 160.59 23.5679C160.922 23.8889 160.984 24.2954 160.922 24.702C160.839 24.9801 160.549 24.8945 160.466 24.5949C160.383 24.3168 159.948 24.0386 159.616 24.2098C159.284 24.3596 159.056 24.7875 159.325 25.2154C159.574 25.6862 160.528 25.8787 161.005 25.0443C161.565 24.1028 161.296 23.1185 160.404 22.7762C159.657 22.498 158.662 22.6692 158.081 23.5893C157.459 24.5307 157.438 25.4722 158.102 26.4136C159.305 28.1896 161.876 27.3337 163.141 26.2211C164.717 24.8517 165.07 22.5195 164.282 20.6366Z" fill="url(#paint27_linear_510_242)"/>
<path d="M107.13 21.3855C108.333 18.069 107.856 14.6241 108.686 11.2648C109.142 9.48887 110.614 8.0981 112.46 8.24787C113.766 8.37629 114.451 9.42468 114.43 10.6657C114.409 12.2705 112.17 12.677 111.9 11.0508C111.859 10.7941 112.025 10.4517 112.107 10.8797C112.336 12.2919 115.322 11.1365 113.787 9.4889C113.455 9.12515 112.937 8.95397 112.481 8.88978C111.236 8.67583 110.096 9.4461 109.412 10.4517C108.333 12.0137 108.52 14.3674 108.395 16.2075C108.271 18.1332 107.96 19.9947 107.296 21.8134C107.193 22.113 107.089 21.5138 107.13 21.3855Z" fill="url(#paint28_linear_510_242)"/>
<path d="M95.7046 26.5421C93.1953 25.7504 90.8105 24.4238 89.0893 22.3483C87.7828 20.7863 87.0156 18.2401 88.9235 16.8066C89.9189 16.0577 91.7645 16.3144 92.0963 17.5982C92.5111 19.2244 89.5871 19.7807 89.6285 18.0904C89.6285 18.0476 90.1055 18.0476 90.1055 18.069C90.1055 18.5397 90.2921 19.5882 91.2876 18.7323C91.5986 18.4756 91.6194 18.0048 91.6194 17.6197C91.5571 16.1647 89.67 16.4429 88.9442 17.1704C88.0525 18.0904 88.1562 19.5668 88.5709 20.6794C89.7322 23.7605 93.2991 25.6007 96.1609 26.5207C96.0779 26.478 95.829 26.5848 95.7046 26.5421Z" fill="url(#paint29_linear_510_242)"/>
<path d="M99.2711 17.8336C99.3333 17.3842 99.7273 17.0419 100.184 17.0847C100.64 17.1274 100.972 17.5554 100.909 18.0262C100.868 18.4969 100.453 18.8392 100.018 18.775C99.5614 18.7323 99.2296 18.3043 99.2711 17.8336Z" fill="url(#paint30_linear_510_242)"/>
<path d="M73.431 20.6366C75.007 16.8708 79.4863 18.0048 82.2444 19.31C88.7145 22.4125 99.6018 31.8913 105.782 23.3326C107.731 20.658 107.627 16.6568 104.724 14.6455C102.692 13.2547 100.265 13.3403 98.6063 15.0735C95.9312 17.855 98.1709 22.6907 101.821 21.0859C103.189 20.4654 103.874 18.069 102.277 17.1489C101.116 16.4856 100.058 17.4699 99.7469 18.5183C99.7677 18.4327 99.2077 18.0476 99.27 17.8336C100.203 14.6883 104.351 17.2345 103.666 19.6952C103.231 21.2357 102.152 21.899 100.991 21.9204C98.0464 21.9631 95.2054 18.3257 98.005 14.7311C99.4358 12.891 101.883 12.8696 103.811 13.7255C106.258 14.7953 108.042 18.1546 107.503 20.8292C106.507 25.9216 102.152 27.9329 97.528 27.184C92.9242 26.4351 88.8597 23.5038 84.8988 21.1929C82.2029 19.6096 78.3458 17.5341 75.5255 19.3314C72.3319 21.3641 72.9955 25.6648 76.0646 26.6491C76.8734 26.8845 77.8895 26.8845 78.5946 26.5421C79.5071 26.0927 80.067 24.5307 79.4449 23.7605C78.9886 23.1828 78.0554 22.819 77.1222 23.5679C76.7904 23.8889 76.749 24.2954 76.8112 24.702C76.8734 24.9801 77.1637 24.8945 77.2467 24.5949C77.3504 24.3168 77.7651 24.0386 78.0969 24.2098C78.4287 24.3596 78.6568 24.7875 78.408 25.2154C78.1384 25.6862 77.1845 25.8787 76.7075 25.0443C76.1476 24.1028 76.4172 23.1185 77.3089 22.7762C78.0554 22.498 79.0509 22.6692 79.6522 23.5893C80.2536 24.5307 80.2743 25.4722 79.6107 26.4136C78.4079 28.1896 75.8365 27.3337 74.5715 26.2211C72.9954 24.8517 72.6637 22.5195 73.431 20.6366Z" fill="url(#paint31_linear_510_242)"/>
<path d="M172.164 25.4294C172.081 25.5365 171.915 25.6648 171.625 25.6434C171.189 25.5793 170.857 25.2368 170.774 24.8089C170.546 23.7177 171.728 23.1186 172.599 23.4181C173.657 23.8033 174.03 25.0443 173.574 26.0499C173.159 26.9486 172.164 27.3551 171.251 27.3979C169.281 27.4834 167.539 26.2853 166.357 24.7233C165.072 23.0544 164.055 20.6366 164.097 20.2086C165.507 23.1186 167.021 26.1997 170.132 26.7988C170.94 26.9486 171.853 26.9486 172.558 26.4565C173.18 26.0499 173.491 25.1085 173.097 24.4238C172.724 23.7605 171.666 23.4823 171.231 24.2312C171.044 24.5522 171.065 24.9587 171.334 25.2155C171.687 25.5578 172.164 25.4294 172.164 25.4294Z" fill="url(#paint32_linear_510_242)"/>
<path d="M65.5514 25.4294C65.6344 25.5365 65.8003 25.6648 66.0906 25.6434C66.5261 25.5793 66.8786 25.2368 66.9616 24.8089C67.169 23.7177 65.9869 23.1186 65.1159 23.4181C64.0583 23.8033 63.7058 25.0443 64.1413 26.0499C64.556 26.9486 65.5514 27.3551 66.4639 27.3979C68.4339 27.4834 70.1966 26.2853 71.3579 24.7233C72.6644 23.0544 73.6598 20.6366 73.6391 20.2086C72.2082 23.1186 70.6943 26.1997 67.5837 26.7988C66.775 26.9486 65.8625 26.9486 65.1574 26.4565C64.5353 26.0499 64.2242 25.1085 64.6182 24.4238C64.9915 23.7605 66.0491 23.4823 66.5054 24.2312C66.692 24.5522 66.6505 24.9587 66.3809 25.2155C66.0284 25.5578 65.5514 25.4294 65.5514 25.4294Z" fill="url(#paint33_linear_510_242)"/>
<path d="M176.415 25.408C176.415 25.9215 176 26.3495 175.502 26.3495C175.005 26.3495 174.59 25.9215 174.59 25.408C174.59 24.8945 175.005 24.4666 175.502 24.4666C176 24.4666 176.415 24.8945 176.415 25.408Z" fill="url(#paint34_linear_510_242)"/>
<path d="M178.779 25.408C178.779 25.9001 178.385 26.2852 177.928 26.2852C177.451 26.2852 177.078 25.9001 177.078 25.408C177.078 24.9158 177.451 24.5307 177.928 24.5307C178.385 24.5307 178.779 24.9158 178.779 25.408Z" fill="url(#paint35_linear_510_242)"/>
<path d="M181.038 25.408C181.038 25.8573 180.686 26.2211 180.25 26.2211C179.815 26.2211 179.441 25.8573 179.441 25.408C179.441 24.9587 179.815 24.5735 180.25 24.5735C180.686 24.5735 181.038 24.9587 181.038 25.408Z" fill="url(#paint36_linear_510_242)"/>
<path d="M183.237 25.408C183.237 25.8359 182.905 26.1783 182.491 26.1783C182.076 26.1783 181.744 25.8359 181.744 25.408C181.744 24.9801 182.076 24.6377 182.491 24.6377C182.905 24.6377 183.237 24.9801 183.237 25.408Z" fill="url(#paint37_linear_510_242)"/>
<path d="M185.331 25.4079C185.331 25.7931 185.02 26.114 184.626 26.114C184.252 26.114 183.941 25.7931 183.941 25.4079C183.941 25.0228 184.252 24.7018 184.626 24.7018C185.02 24.7018 185.331 25.0228 185.331 25.4079Z" fill="url(#paint38_linear_510_242)"/>
<path d="M187.324 25.408C187.324 25.7717 187.054 26.0713 186.681 26.0713C186.328 26.0713 186.059 25.7717 186.059 25.408C186.059 25.0442 186.328 24.7447 186.681 24.7447C187.054 24.7447 187.324 25.0442 187.324 25.408Z" fill="url(#paint39_linear_510_242)"/>
<path d="M189.25 25.4081C189.25 25.7504 188.981 26.0072 188.649 26.0072C188.338 26.0072 188.068 25.7504 188.068 25.4081C188.068 25.0657 188.338 24.809 188.649 24.809C188.981 24.809 189.25 25.0657 189.25 25.4081Z" fill="url(#paint40_linear_510_242)"/>
<path d="M191.056 25.4081C191.056 25.7077 190.828 25.9644 190.537 25.9644C190.226 25.9644 189.998 25.7077 189.998 25.4081C189.998 25.1086 190.226 24.8518 190.537 24.8518C190.828 24.8518 191.056 25.1086 191.056 25.4081Z" fill="url(#paint41_linear_510_242)"/>
<path d="M192.797 25.4081C192.797 25.6862 192.59 25.9002 192.32 25.9002C192.05 25.9002 191.822 25.6862 191.822 25.4081C191.822 25.1299 192.05 24.916 192.32 24.916C192.59 24.916 192.797 25.1299 192.797 25.4081Z" fill="url(#paint42_linear_510_242)"/>
<path d="M194.436 25.408C194.436 25.6433 194.25 25.8573 194.001 25.8573C193.773 25.8573 193.586 25.6433 193.586 25.408C193.586 25.1726 193.772 24.9586 194.001 24.9586C194.25 24.9586 194.436 25.1726 194.436 25.408Z" fill="url(#paint43_linear_510_242)"/>
<path d="M61.3203 25.408C61.3203 25.9215 61.7143 26.3495 62.212 26.3495C62.7097 26.3495 63.1245 25.9215 63.1245 25.408C63.1245 24.8945 62.7097 24.4666 62.212 24.4666C61.7143 24.4666 61.3203 24.8945 61.3203 25.408Z" fill="url(#paint44_linear_510_242)"/>
<path d="M58.957 25.408C58.957 25.9001 59.3303 26.2852 59.8073 26.2852C60.2635 26.2852 60.6575 25.9001 60.6575 25.408C60.6575 24.9158 60.2635 24.5307 59.8073 24.5307C59.3303 24.5307 58.957 24.9158 58.957 25.408Z" fill="url(#paint45_linear_510_242)"/>
<path d="M56.6758 25.408C56.6758 25.8573 57.0283 26.2211 57.4638 26.2211C57.92 26.2211 58.2726 25.8573 58.2726 25.408C58.2726 24.9587 57.92 24.5735 57.4638 24.5735C57.0283 24.5735 56.6758 24.9587 56.6758 25.408Z" fill="url(#paint46_linear_510_242)"/>
<path d="M54.499 25.408C54.499 25.8359 54.8308 26.1783 55.2248 26.1783C55.6396 26.1783 55.9714 25.8359 55.9714 25.408C55.9714 24.9801 55.6396 24.6377 55.2248 24.6377C54.8308 24.6377 54.499 24.9801 54.499 25.408Z" fill="url(#paint47_linear_510_242)"/>
<path d="M52.3818 25.4079C52.3818 25.7931 52.7136 26.114 53.0869 26.114C53.4602 26.114 53.7713 25.7931 53.7713 25.4079C53.7713 25.0228 53.4602 24.7018 53.0869 24.7018C52.7136 24.7018 52.3818 25.0228 52.3818 25.4079Z" fill="url(#paint48_linear_510_242)"/>
<path d="M50.3916 25.408C50.3916 25.7717 50.6819 26.0713 51.0345 26.0713C51.387 26.0713 51.6773 25.7717 51.6773 25.408C51.6773 25.0442 51.387 24.7447 51.0345 24.7447C50.6819 24.7447 50.3916 25.0442 50.3916 25.408Z" fill="url(#paint49_linear_510_242)"/>
<path d="M48.4844 25.4081C48.4844 25.7504 48.7332 26.0072 49.065 26.0072C49.3968 26.0072 49.6457 25.7504 49.6457 25.4081C49.6457 25.0657 49.3968 24.809 49.065 24.809C48.7332 24.809 48.4844 25.0657 48.4844 25.4081Z" fill="url(#paint50_linear_510_242)"/>
<path d="M46.6592 25.4081C46.6592 25.7077 46.8873 25.9644 47.1984 25.9644C47.4887 25.9644 47.7168 25.7077 47.7168 25.4081C47.7168 25.1086 47.4887 24.8518 47.1984 24.8518C46.8873 24.8518 46.6592 25.1086 46.6592 25.4081Z" fill="url(#paint51_linear_510_242)"/>
<path d="M44.917 25.4081C44.917 25.6862 45.1451 25.9002 45.4147 25.9002C45.6636 25.9002 45.8917 25.6862 45.8917 25.4081C45.8917 25.1299 45.6636 24.916 45.4147 24.916C45.1451 24.916 44.917 25.1299 44.917 25.4081Z" fill="url(#paint52_linear_510_242)"/>
<path d="M43.2793 25.408C43.2793 25.6433 43.4659 25.8573 43.7148 25.8573C43.9429 25.8573 44.1503 25.6433 44.1503 25.408C44.1503 25.1726 43.9429 24.9586 43.7148 24.9586C43.4659 24.9586 43.2793 25.1726 43.2793 25.408Z" fill="url(#paint53_linear_510_242)"/>
<path d="M54.1 54L60.54 40H61.56L68 54H66.9L60.82 40.64H61.26L55.2 54H54.1ZM56.46 50.06L56.8 49.2H65.18L65.52 50.06H56.46ZM71.3816 51.12L71.4016 49.86L78.3016 43.56H79.5816L75.0016 47.86L74.4016 48.36L71.3816 51.12ZM70.6216 54V39.16H71.6216V54H70.6216ZM78.7816 54L74.2216 48.28L74.9016 47.54L80.0216 54H78.7816ZM89.1641 54V51.62L89.1241 51.26V47.34C89.1241 46.3667 88.8574 45.6267 88.3241 45.12C87.8041 44.6133 87.0374 44.36 86.0241 44.36C85.3041 44.36 84.6307 44.4867 84.0041 44.74C83.3907 44.98 82.8641 45.2933 82.4241 45.68L81.9241 44.96C82.4441 44.4933 83.0707 44.1333 83.8041 43.88C84.5374 43.6133 85.3041 43.48 86.1041 43.48C87.3974 43.48 88.3907 43.8067 89.0841 44.46C89.7774 45.1133 90.1241 46.0867 90.1241 47.38V54H89.1641ZM85.4041 54.08C84.6307 54.08 83.9574 53.96 83.3841 53.72C82.8241 53.4667 82.3907 53.1133 82.0841 52.66C81.7907 52.2067 81.6441 51.6867 81.6441 51.1C81.6441 50.5667 81.7641 50.0867 82.0041 49.66C82.2574 49.22 82.6707 48.8667 83.2441 48.6C83.8174 48.32 84.5841 48.18 85.5441 48.18H89.3841V48.96H85.5641C84.4841 48.96 83.7241 49.16 83.2841 49.56C82.8574 49.96 82.6441 50.46 82.6441 51.06C82.6441 51.7267 82.8974 52.26 83.4041 52.66C83.9107 53.06 84.6241 53.26 85.5441 53.26C86.4241 53.26 87.1641 53.06 87.7641 52.66C88.3774 52.26 88.8307 51.68 89.1241 50.92L89.4041 51.6C89.1241 52.36 88.6441 52.9667 87.9641 53.42C87.2974 53.86 86.4441 54.08 85.4041 54.08ZM98.6642 54.08C97.6909 54.08 96.8109 53.86 96.0242 53.42C95.2509 52.9667 94.6376 52.34 94.1842 51.54C93.7309 50.74 93.5042 49.82 93.5042 48.78C93.5042 47.7267 93.7309 46.8067 94.1842 46.02C94.6376 45.22 95.2509 44.6 96.0242 44.16C96.8109 43.7067 97.6909 43.48 98.6642 43.48C99.5842 43.48 100.411 43.6933 101.144 44.12C101.891 44.5467 102.478 45.1533 102.904 45.94C103.344 46.7267 103.564 47.6733 103.564 48.78C103.564 49.86 103.351 50.8 102.924 51.6C102.498 52.4 101.911 53.0133 101.164 53.44C100.431 53.8667 99.5976 54.08 98.6642 54.08ZM98.7242 53.18C99.5242 53.18 100.238 53 100.864 52.64C101.504 52.2667 102.004 51.7467 102.364 51.08C102.738 50.4133 102.924 49.6467 102.924 48.78C102.924 47.9 102.738 47.1333 102.364 46.48C102.004 45.8133 101.504 45.3 100.864 44.94C100.238 44.5667 99.5242 44.38 98.7242 44.38C97.9242 44.38 97.2042 44.5667 96.5642 44.94C95.9376 45.3 95.4376 45.8133 95.0642 46.48C94.7042 47.1333 94.5242 47.9 94.5242 48.78C94.5242 49.6467 94.7042 50.4133 95.0642 51.08C95.4376 51.7467 95.9376 52.2667 96.5642 52.64C97.2042 53 97.9242 53.18 98.7242 53.18ZM102.944 54V50.58L103.124 48.76L102.924 46.94V39.16H103.924V54H102.944ZM114.397 54V40H115.257L125.237 52.74H124.777V40H125.797V54H124.957L114.957 41.26H115.417V54H114.397ZM130.766 54V43.56H131.766V54H130.766ZM131.266 41.02C131.039 41.02 130.846 40.94 130.686 40.78C130.526 40.62 130.446 40.4333 130.446 40.22C130.446 39.9933 130.526 39.8 130.686 39.64C130.846 39.48 131.039 39.4 131.266 39.4C131.506 39.4 131.699 39.48 131.846 39.64C132.006 39.7867 132.086 39.9733 132.086 40.2C132.086 40.4267 132.006 40.62 131.846 40.78C131.699 40.94 131.506 41.02 131.266 41.02ZM137.141 51.12L137.161 49.86L144.061 43.56H145.341L140.761 47.86L140.161 48.36L137.141 51.12ZM136.381 54V39.16H137.381V54H136.381ZM144.541 54L139.981 48.28L140.661 47.54L145.781 54H144.541ZM154.923 54V51.62L154.883 51.26V47.34C154.883 46.3667 154.617 45.6267 154.083 45.12C153.563 44.6133 152.797 44.36 151.783 44.36C151.063 44.36 150.39 44.4867 149.763 44.74C149.15 44.98 148.623 45.2933 148.183 45.68L147.683 44.96C148.203 44.4933 148.83 44.1333 149.563 43.88C150.297 43.6133 151.063 43.48 151.863 43.48C153.157 43.48 154.15 43.8067 154.843 44.46C155.537 45.1133 155.883 46.0867 155.883 47.38V54H154.923ZM151.163 54.08C150.39 54.08 149.717 53.96 149.143 53.72C148.583 53.4667 148.15 53.1133 147.843 52.66C147.55 52.2067 147.403 51.6867 147.403 51.1C147.403 50.5667 147.523 50.0867 147.763 49.66C148.017 49.22 148.43 48.8667 149.003 48.6C149.577 48.32 150.343 48.18 151.303 48.18H155.143V48.96H151.323C150.243 48.96 149.483 49.16 149.043 49.56C148.617 49.96 148.403 50.46 148.403 51.06C148.403 51.7267 148.657 52.26 149.163 52.66C149.67 53.06 150.383 53.26 151.303 53.26C152.183 53.26 152.923 53.06 153.523 52.66C154.137 52.26 154.59 51.68 154.883 50.92L155.163 51.6C154.883 52.36 154.403 52.9667 153.723 53.42C153.057 53.86 152.203 54.08 151.163 54.08ZM165.504 43.48C166.357 43.48 167.097 43.6467 167.724 43.98C168.364 44.3 168.857 44.7933 169.204 45.46C169.564 46.1133 169.744 46.9267 169.744 47.9V54H168.744V47.98C168.744 46.8067 168.444 45.9133 167.844 45.3C167.257 44.6867 166.43 44.38 165.364 44.38C164.55 44.38 163.844 44.5467 163.244 44.88C162.644 45.2133 162.184 45.68 161.864 46.28C161.557 46.88 161.404 47.6 161.404 48.44V54H160.404V39.16H161.404V46.46L161.224 46.14C161.544 45.3133 162.07 44.6667 162.804 44.2C163.537 43.72 164.437 43.48 165.504 43.48Z" fill="black"/>
<defs>
<linearGradient id="paint0_linear_510_242" x1="214.893" y1="21.2952" x2="214.893" y2="47.4895" gradientUnits="userSpaceOnUse">
<stop stop-color="#1C2D46"/>
<stop offset="0.739583" stop-color="#71A8CA"/>
</linearGradient>
<linearGradient id="paint1_linear_510_242" x1="214.893" y1="47.6245" x2="214.893" y2="73.8289" gradientUnits="userSpaceOnUse">
<stop stop-color="#1C2D46"/>
<stop offset="0.739583" stop-color="#71A8CA"/>
</linearGradient>
<linearGradient id="paint2_linear_510_242" x1="22.8247" y1="21.2952" x2="22.8247" y2="47.4895" gradientUnits="userSpaceOnUse">
<stop stop-color="#1C2D46"/>
<stop offset="0.739583" stop-color="#71A8CA"/>
</linearGradient>
<linearGradient id="paint3_linear_510_242" x1="22.8247" y1="47.618" x2="22.8247" y2="73.8288" gradientUnits="userSpaceOnUse">
<stop stop-color="#1C2D46"/>
<stop offset="0.739583" stop-color="#71A8CA"/>
</linearGradient>
<linearGradient id="paint4_linear_510_242" x1="169.065" y1="15.1251" x2="169.065" y2="28.4035" gradientUnits="userSpaceOnUse">
<stop stop-color="#1C2D46"/>
<stop offset="0.739583" stop-color="#71A8CA"/>
</linearGradient>
<linearGradient id="paint5_linear_510_242" x1="124.042" y1="16.7595" x2="124.042" y2="28.1121" gradientUnits="userSpaceOnUse">
<stop stop-color="#1C2D46"/>
<stop offset="0.739583" stop-color="#71A8CA"/>
</linearGradient>
<linearGradient id="paint6_linear_510_242" x1="118.867" y1="66.7038" x2="118.867" y2="80.0001" gradientUnits="userSpaceOnUse">
<stop stop-color="#1C2D46"/>
<stop offset="0.739583" stop-color="#71A8CA"/>
</linearGradient>
<linearGradient id="paint7_linear_510_242" x1="118.869" y1="30.9711" x2="118.869" y2="64.1361" gradientUnits="userSpaceOnUse">
<stop stop-color="#1C2D46"/>
<stop offset="0.739583" stop-color="#71A8CA"/>
</linearGradient>
<linearGradient id="paint8_linear_510_242" x1="230.289" y1="40.3856" x2="230.289" y2="54.7428" gradientUnits="userSpaceOnUse">
<stop stop-color="#1C2D46"/>
<stop offset="0.739583" stop-color="#71A8CA"/>
</linearGradient>
<linearGradient id="paint9_linear_510_242" x1="7.42404" y1="40.3856" x2="7.42404" y2="54.7428" gradientUnits="userSpaceOnUse">
<stop stop-color="#1C2D46"/>
<stop offset="0.739583" stop-color="#71A8CA"/>
</linearGradient>
<linearGradient id="paint10_linear_510_242" x1="207.737" y1="22.4553" x2="207.737" y2="26.8416" gradientUnits="userSpaceOnUse">
<stop stop-color="#1C2D46"/>
<stop offset="0.739583" stop-color="#71A8CA"/>
</linearGradient>
<linearGradient id="paint11_linear_510_242" x1="29.9752" y1="22.4553" x2="29.9752" y2="26.8416" gradientUnits="userSpaceOnUse">
<stop stop-color="#1C2D46"/>
<stop offset="0.739583" stop-color="#71A8CA"/>
</linearGradient>
<linearGradient id="paint12_linear_510_242" x1="207.737" y1="68.287" x2="207.737" y2="72.6734" gradientUnits="userSpaceOnUse">
<stop stop-color="#1C2D46"/>
<stop offset="0.739583" stop-color="#71A8CA"/>
</linearGradient>
<linearGradient id="paint13_linear_510_242" x1="29.9752" y1="68.287" x2="29.9752" y2="72.6734" gradientUnits="userSpaceOnUse">
<stop stop-color="#1C2D46"/>
<stop offset="0.739583" stop-color="#71A8CA"/>
</linearGradient>
<linearGradient id="paint14_linear_510_242" x1="217.672" y1="45.1145" x2="217.672" y2="49.993" gradientUnits="userSpaceOnUse">
<stop stop-color="#1C2D46"/>
<stop offset="0.739583" stop-color="#71A8CA"/>
</linearGradient>
<linearGradient id="paint15_linear_510_242" x1="20.0526" y1="45.1145" x2="20.0526" y2="49.993" gradientUnits="userSpaceOnUse">
<stop stop-color="#1C2D46"/>
<stop offset="0.739583" stop-color="#71A8CA"/>
</linearGradient>
<linearGradient id="paint16_linear_510_242" x1="118.857" y1="20.9789" x2="118.857" y2="22.5408" gradientUnits="userSpaceOnUse">
<stop stop-color="#1C2D46"/>
<stop offset="0.739583" stop-color="#71A8CA"/>
</linearGradient>
<linearGradient id="paint17_linear_510_242" x1="118.856" y1="4.31085" x2="118.856" y2="18.1117" gradientUnits="userSpaceOnUse">
<stop stop-color="#1C2D46"/>
<stop offset="0.739583" stop-color="#71A8CA"/>
</linearGradient>
<linearGradient id="paint18_linear_510_242" x1="118.858" y1="2" x2="118.858" y2="4.31085" gradientUnits="userSpaceOnUse">
<stop stop-color="#1C2D46"/>
<stop offset="0.739583" stop-color="#71A8CA"/>
</linearGradient>
<linearGradient id="paint19_linear_510_242" x1="128.905" y1="26.8416" x2="128.905" y2="28.9385" gradientUnits="userSpaceOnUse">
<stop stop-color="#1C2D46"/>
<stop offset="0.739583" stop-color="#71A8CA"/>
</linearGradient>
<linearGradient id="paint20_linear_510_242" x1="68.6598" y1="15.1251" x2="68.6598" y2="28.4035" gradientUnits="userSpaceOnUse">
<stop stop-color="#1C2D46"/>
<stop offset="0.739583" stop-color="#71A8CA"/>
</linearGradient>
<linearGradient id="paint21_linear_510_242" x1="113.681" y1="16.7595" x2="113.681" y2="28.1121" gradientUnits="userSpaceOnUse">
<stop stop-color="#1C2D46"/>
<stop offset="0.739583" stop-color="#71A8CA"/>
</linearGradient>
<linearGradient id="paint22_linear_510_242" x1="108.82" y1="26.8416" x2="108.82" y2="28.9385" gradientUnits="userSpaceOnUse">
<stop stop-color="#1C2D46"/>
<stop offset="0.739583" stop-color="#71A8CA"/>
</linearGradient>
<linearGradient id="paint23_linear_510_242" x1="118.867" y1="25.9215" x2="118.867" y2="28.9599" gradientUnits="userSpaceOnUse">
<stop stop-color="#1C2D46"/>
<stop offset="0.739583" stop-color="#71A8CA"/>
</linearGradient>
<linearGradient id="paint24_linear_510_242" x1="126.944" y1="8.23682" x2="126.944" y2="21.8963" gradientUnits="userSpaceOnUse">
<stop stop-color="#1C2D46"/>
<stop offset="0.739583" stop-color="#71A8CA"/>
</linearGradient>
<linearGradient id="paint25_linear_510_242" x1="145.75" y1="16.3894" x2="145.75" y2="26.5524" gradientUnits="userSpaceOnUse">
<stop stop-color="#1C2D46"/>
<stop offset="0.739583" stop-color="#71A8CA"/>
</linearGradient>
<linearGradient id="paint26_linear_510_242" x1="137.622" y1="17.0811" x2="137.622" y2="18.7828" gradientUnits="userSpaceOnUse">
<stop stop-color="#1C2D46"/>
<stop offset="0.739583" stop-color="#71A8CA"/>
</linearGradient>
<linearGradient id="paint27_linear_510_242" x1="147.4" y1="13.1797" x2="147.4" y2="27.4346" gradientUnits="userSpaceOnUse">
<stop stop-color="#1C2D46"/>
<stop offset="0.739583" stop-color="#71A8CA"/>
</linearGradient>
<linearGradient id="paint28_linear_510_242" x1="110.776" y1="8.23682" x2="110.776" y2="21.8963" gradientUnits="userSpaceOnUse">
<stop stop-color="#1C2D46"/>
<stop offset="0.739583" stop-color="#71A8CA"/>
</linearGradient>
<linearGradient id="paint29_linear_510_242" x1="91.9686" y1="16.3894" x2="91.9686" y2="26.5524" gradientUnits="userSpaceOnUse">
<stop stop-color="#1C2D46"/>
<stop offset="0.739583" stop-color="#71A8CA"/>
</linearGradient>
<linearGradient id="paint30_linear_510_242" x1="100.092" y1="17.0811" x2="100.092" y2="18.7828" gradientUnits="userSpaceOnUse">
<stop stop-color="#1C2D46"/>
<stop offset="0.739583" stop-color="#71A8CA"/>
</linearGradient>
<linearGradient id="paint31_linear_510_242" x1="90.3173" y1="13.1797" x2="90.3173" y2="27.4346" gradientUnits="userSpaceOnUse">
<stop stop-color="#1C2D46"/>
<stop offset="0.739583" stop-color="#71A8CA"/>
</linearGradient>
<linearGradient id="paint32_linear_510_242" x1="168.93" y1="20.2086" x2="168.93" y2="27.4022" gradientUnits="userSpaceOnUse">
<stop stop-color="#1C2D46"/>
<stop offset="0.739583" stop-color="#71A8CA"/>
</linearGradient>
<linearGradient id="paint33_linear_510_242" x1="68.7992" y1="20.2086" x2="68.7992" y2="27.4022" gradientUnits="userSpaceOnUse">
<stop stop-color="#1C2D46"/>
<stop offset="0.739583" stop-color="#71A8CA"/>
</linearGradient>
<linearGradient id="paint34_linear_510_242" x1="175.502" y1="24.4666" x2="175.502" y2="26.3495" gradientUnits="userSpaceOnUse">
<stop stop-color="#1C2D46"/>
<stop offset="0.739583" stop-color="#71A8CA"/>
</linearGradient>
<linearGradient id="paint35_linear_510_242" x1="177.928" y1="24.5307" x2="177.928" y2="26.2852" gradientUnits="userSpaceOnUse">
<stop stop-color="#1C2D46"/>
<stop offset="0.739583" stop-color="#71A8CA"/>
</linearGradient>
<linearGradient id="paint36_linear_510_242" x1="180.24" y1="24.5735" x2="180.24" y2="26.2211" gradientUnits="userSpaceOnUse">
<stop stop-color="#1C2D46"/>
<stop offset="0.739583" stop-color="#71A8CA"/>
</linearGradient>
<linearGradient id="paint37_linear_510_242" x1="182.491" y1="24.6377" x2="182.491" y2="26.1783" gradientUnits="userSpaceOnUse">
<stop stop-color="#1C2D46"/>
<stop offset="0.739583" stop-color="#71A8CA"/>
</linearGradient>
<linearGradient id="paint38_linear_510_242" x1="184.636" y1="24.7018" x2="184.636" y2="26.114" gradientUnits="userSpaceOnUse">
<stop stop-color="#1C2D46"/>
<stop offset="0.739583" stop-color="#71A8CA"/>
</linearGradient>
<linearGradient id="paint39_linear_510_242" x1="186.691" y1="24.7447" x2="186.691" y2="26.0713" gradientUnits="userSpaceOnUse">
<stop stop-color="#1C2D46"/>
<stop offset="0.739583" stop-color="#71A8CA"/>
</linearGradient>
<linearGradient id="paint40_linear_510_242" x1="188.659" y1="24.809" x2="188.659" y2="26.0072" gradientUnits="userSpaceOnUse">
<stop stop-color="#1C2D46"/>
<stop offset="0.739583" stop-color="#71A8CA"/>
</linearGradient>
<linearGradient id="paint41_linear_510_242" x1="190.527" y1="24.8518" x2="190.527" y2="25.9644" gradientUnits="userSpaceOnUse">
<stop stop-color="#1C2D46"/>
<stop offset="0.739583" stop-color="#71A8CA"/>
</linearGradient>
<linearGradient id="paint42_linear_510_242" x1="192.31" y1="24.916" x2="192.31" y2="25.9002" gradientUnits="userSpaceOnUse">
<stop stop-color="#1C2D46"/>
<stop offset="0.739583" stop-color="#71A8CA"/>
</linearGradient>
<linearGradient id="paint43_linear_510_242" x1="194.011" y1="24.9586" x2="194.011" y2="25.8573" gradientUnits="userSpaceOnUse">
<stop stop-color="#1C2D46"/>
<stop offset="0.739583" stop-color="#71A8CA"/>
</linearGradient>
<linearGradient id="paint44_linear_510_242" x1="62.2224" y1="24.4666" x2="62.2224" y2="26.3495" gradientUnits="userSpaceOnUse">
<stop stop-color="#1C2D46"/>
<stop offset="0.739583" stop-color="#71A8CA"/>
</linearGradient>
<linearGradient id="paint45_linear_510_242" x1="59.8073" y1="24.5307" x2="59.8073" y2="26.2852" gradientUnits="userSpaceOnUse">
<stop stop-color="#1C2D46"/>
<stop offset="0.739583" stop-color="#71A8CA"/>
</linearGradient>
<linearGradient id="paint46_linear_510_242" x1="57.4742" y1="24.5735" x2="57.4742" y2="26.2211" gradientUnits="userSpaceOnUse">
<stop stop-color="#1C2D46"/>
<stop offset="0.739583" stop-color="#71A8CA"/>
</linearGradient>
<linearGradient id="paint47_linear_510_242" x1="55.2352" y1="24.6377" x2="55.2352" y2="26.1783" gradientUnits="userSpaceOnUse">
<stop stop-color="#1C2D46"/>
<stop offset="0.739583" stop-color="#71A8CA"/>
</linearGradient>
<linearGradient id="paint48_linear_510_242" x1="53.0765" y1="24.7018" x2="53.0765" y2="26.114" gradientUnits="userSpaceOnUse">
<stop stop-color="#1C2D46"/>
<stop offset="0.739583" stop-color="#71A8CA"/>
</linearGradient>
<linearGradient id="paint49_linear_510_242" x1="51.0345" y1="24.7447" x2="51.0345" y2="26.0713" gradientUnits="userSpaceOnUse">
<stop stop-color="#1C2D46"/>
<stop offset="0.739583" stop-color="#71A8CA"/>
</linearGradient>
<linearGradient id="paint50_linear_510_242" x1="49.065" y1="24.809" x2="49.065" y2="26.0072" gradientUnits="userSpaceOnUse">
<stop stop-color="#1C2D46"/>
<stop offset="0.739583" stop-color="#71A8CA"/>
</linearGradient>
<linearGradient id="paint51_linear_510_242" x1="47.188" y1="24.8518" x2="47.188" y2="25.9644" gradientUnits="userSpaceOnUse">
<stop stop-color="#1C2D46"/>
<stop offset="0.739583" stop-color="#71A8CA"/>
</linearGradient>
<linearGradient id="paint52_linear_510_242" x1="45.4043" y1="24.916" x2="45.4043" y2="25.9002" gradientUnits="userSpaceOnUse">
<stop stop-color="#1C2D46"/>
<stop offset="0.739583" stop-color="#71A8CA"/>
</linearGradient>
<linearGradient id="paint53_linear_510_242" x1="43.7148" y1="24.9586" x2="43.7148" y2="25.8573" gradientUnits="userSpaceOnUse">
<stop stop-color="#1C2D46"/>
<stop offset="0.739583" stop-color="#71A8CA"/>
</linearGradient>
</defs>
</svg>
