<svg width="295" height="295" viewBox="0 0 295 295" fill="none" xmlns="http://www.w3.org/2000/svg">
<path d="M213.952 21.8887C182.092 23.5407 172.18 51.2353 168.197 64.6047C161.678 86.4937 157.17 97.3025 140.786 98.3999C123.676 99.5504 117.528 84.8771 99.4858 69.8557C78.4995 52.3622 44.4919 53.5481 23.6 93.9631C0.194746 139.275 26.4084 185.065 70.6171 218.807C95.8868 238.1 121.286 241.817 158.616 233.858C223.693 219.975 265.105 168.468 275.194 109.032C280.929 75.3014 266.456 19.1629 213.952 21.8887Z" fill="#92E3A9"/>
<path opacity="0.7" d="M213.952 21.8887C182.092 23.5407 172.18 51.2353 168.197 64.6047C161.678 86.4937 157.17 97.3025 140.786 98.3999C123.676 99.5504 117.528 84.8771 99.4858 69.8557C78.4995 52.3622 44.4919 53.5481 23.6 93.9631C0.194746 139.275 26.4084 185.065 70.6171 218.807C95.8869 238.1 121.286 241.817 158.616 233.858C223.693 219.975 265.105 168.468 275.194 109.032C280.929 75.3014 266.456 19.1629 213.952 21.8887Z" fill="white"/>
<path d="M110.348 235.375H82.1752V273.831H110.348V235.375Z" fill="#92E3A9"/>
<path opacity="0.4" d="M110.348 235.375H82.1752V273.831H110.348V235.375Z" fill="black"/>
<path d="M159.335 181.962H131.163V273.831H159.335V181.962Z" fill="#92E3A9"/>
<path opacity="0.3" d="M159.335 181.962H131.163V273.831H159.335V181.962Z" fill="black"/>
<path d="M209.533 160.64H181.36V273.831H209.533V160.64Z" fill="#92E3A9"/>
<path opacity="0.2" d="M209.533 160.64H181.36V273.831H209.533V160.64Z" fill="black"/>
<path d="M259.73 123.357H231.557V273.831H259.73V123.357Z" fill="#92E3A9"/>
<path opacity="0.1" d="M259.73 123.357H231.557V273.831H259.73V123.357Z" fill="black"/>
<path d="M101.905 57.1591C101.94 56.903 101.958 56.6447 101.958 56.3862C101.939 54.9273 101.381 53.5269 100.391 52.4556C99.4004 51.3842 98.0482 50.7178 96.5952 50.585C95.1422 50.4523 93.6916 50.8626 92.5235 51.7367C91.3553 52.6109 90.5525 53.8869 90.27 55.3183H90.1638C89.3012 55.3163 88.4542 55.5478 87.7125 55.9882C86.9709 56.4286 86.3622 57.0616 85.9512 57.8199C85.2296 57.4204 84.4159 57.217 83.5912 57.2299C82.3175 57.2361 81.0984 57.7481 80.2022 58.6532C79.3059 59.5583 78.8059 60.7824 78.8122 62.0561C78.8185 63.3298 79.3304 64.5489 80.2355 65.4451C81.1406 66.3414 82.3647 66.8413 83.6384 66.8351L101.781 66.7466C103.027 66.72 104.214 66.21 105.091 65.3245C105.968 64.439 106.466 63.2473 106.481 62.0012C106.495 60.755 106.025 59.552 105.169 58.6462C104.313 57.7405 103.138 57.203 101.893 57.1473L101.905 57.1591Z" fill="white"/>
<path d="M95.2377 50.5156C94.015 50.6804 92.8746 51.2244 91.9772 52.0711C91.0797 52.9178 90.4703 54.0245 90.2345 55.2356H90.1283C89.2645 55.2376 88.4173 55.4734 87.6767 55.918C86.9361 56.3626 86.3296 56.9994 85.9216 57.7608C85.1978 57.3671 84.3856 57.1641 83.5616 57.1708" stroke="#263238" stroke-width="0.652057" stroke-linecap="round" stroke-linejoin="round"/>
<path d="M101.881 55.6423C101.705 54.2053 101.006 52.8835 99.918 51.9283C98.83 50.9731 97.4289 50.4513 95.9812 50.4621" stroke="#263238" stroke-width="0.652057" stroke-linecap="round" stroke-linejoin="round"/>
<path d="M101.763 66.7048C103.009 66.6781 104.196 66.1682 105.073 65.2827C105.95 64.3972 106.448 63.2055 106.463 61.9593C106.477 60.7132 106.007 59.5102 105.151 58.6044C104.295 57.6987 103.12 57.1612 101.875 57.1055" stroke="#263238" stroke-width="0.652057" stroke-linecap="round" stroke-linejoin="round"/>
<path d="M99.297 66.7168H101.002" stroke="#263238" stroke-width="0.652057" stroke-linecap="round" stroke-linejoin="round"/>
<path d="M82.7415 57.2588C81.5647 57.4798 80.5126 58.1319 79.7912 59.0876C79.0697 60.0433 78.7308 61.2338 78.8408 62.4262C78.9507 63.6186 79.5016 64.727 80.3856 65.5347C81.2696 66.3424 82.4232 66.7911 83.6206 66.7932L98.4709 66.7224" stroke="#263238" stroke-width="0.652057" stroke-linecap="round" stroke-linejoin="round"/>
<path d="M223.144 28.91C223.181 28.6224 223.201 28.3328 223.203 28.0427C223.196 26.4056 222.578 24.83 221.471 23.6238C220.365 22.4176 218.848 21.6674 217.217 21.5199C215.587 21.3724 213.96 21.8382 212.654 22.8262C211.349 23.8142 210.459 25.2535 210.158 26.8627H210.04C209.072 26.8631 208.122 27.1254 207.291 27.622C206.46 28.1185 205.779 28.8307 205.32 29.6829C204.521 29.2374 203.621 29.0057 202.706 29.0103C201.315 29.0622 199.999 29.6528 199.036 30.6573C198.072 31.6618 197.537 33.0015 197.543 34.3933C197.549 35.7852 198.096 37.1201 199.069 38.1161C200.041 39.1121 201.362 39.691 202.754 39.7306L223.02 39.6362C224.442 39.6527 225.813 39.1034 226.83 38.1092C227.848 37.1151 228.429 35.7575 228.445 34.3351C228.461 32.9127 227.912 31.5421 226.918 30.5247C225.924 29.5073 224.566 28.9265 223.144 28.91Z" fill="white"/>
<path d="M215.733 21.5234C214.363 21.7104 213.087 22.3239 212.085 23.277C211.083 24.2301 210.407 25.4744 210.152 26.8334H210.04C209.072 26.8338 208.122 27.0961 207.291 27.5926C206.46 28.0892 205.779 28.8013 205.32 29.6536C204.521 29.2098 203.621 28.9782 202.706 28.981" stroke="#263238" stroke-width="0.75" stroke-linecap="round" stroke-linejoin="round"/>
<path d="M223.144 27.2401C222.949 25.6404 222.172 24.1682 220.963 23.1033C219.753 22.0384 218.195 21.455 216.583 21.464" stroke="#263238" stroke-width="0.75" stroke-linecap="round" stroke-linejoin="round"/>
<path d="M223.02 39.5892C224.363 39.4957 225.621 38.9 226.545 37.9207C227.469 36.9414 227.99 35.6502 228.005 34.3041C228.02 32.958 227.527 31.6556 226.625 30.6561C225.724 29.6566 224.479 29.0333 223.138 28.9102" stroke="#263238" stroke-width="0.75" stroke-linecap="round" stroke-linejoin="round"/>
<path d="M220.259 39.6006H222.164" stroke="#263238" stroke-width="0.75" stroke-linecap="round" stroke-linejoin="round"/>
<path d="M201.78 29.0518C200.472 29.3006 199.303 30.028 198.502 31.092C197.7 32.156 197.324 33.4803 197.446 34.8066C197.569 36.1329 198.181 37.366 199.163 38.2655C200.145 39.165 201.428 39.6664 202.759 39.6718L219.333 39.5951" stroke="#263238" stroke-width="0.75" stroke-linecap="round" stroke-linejoin="round"/>
<path d="M181.449 39.9425C182.197 37.807 183.59 35.9566 185.435 34.647C187.281 33.3375 189.487 32.6335 191.75 32.6324C192.669 32.6319 193.584 32.7449 194.476 32.9687C195.361 31.8147 196.571 30.9514 197.951 30.4894C199.33 30.0275 200.816 29.9879 202.218 30.3758C203.62 30.7637 204.874 31.5614 205.82 32.6667C206.766 33.7719 207.36 35.1344 207.527 36.5795C209.757 36.935 211.773 38.1171 213.171 39.8907C214.57 41.6643 215.25 43.8995 215.076 46.1517C214.903 48.4039 213.887 50.508 212.232 52.0457C210.578 53.5835 208.405 54.442 206.146 54.4506L182.546 54.486C180.704 54.4865 178.929 53.7909 177.578 52.5384C176.227 51.2859 175.399 49.5691 175.261 47.7321C175.122 45.895 175.682 44.0734 176.83 42.6321C177.977 41.1909 179.627 40.2365 181.449 39.9602V39.9425Z" fill="white"/>
<path d="M207.515 36.7334C209.746 37.089 211.762 38.2715 213.161 40.0458C214.559 41.82 215.239 44.0558 215.064 46.3085C214.89 48.5611 213.873 50.6653 212.217 52.2026C210.562 53.7398 208.388 54.5973 206.128 54.6045" stroke="#263238" stroke-width="0.75" stroke-linecap="round" stroke-linejoin="round"/>
<path d="M191.75 32.8035C192.669 32.8034 193.584 32.9164 194.476 33.1398C195.29 32.0796 196.379 31.2632 197.625 30.7794C198.871 30.2956 200.226 30.163 201.543 30.3961C202.859 30.6291 204.086 31.2189 205.09 32.1011C206.094 32.9834 206.837 34.1242 207.238 35.3995" stroke="#263238" stroke-width="0.75" stroke-linecap="round" stroke-linejoin="round"/>
<path d="M175.543 45.1821C175.951 43.8684 176.721 42.6962 177.764 41.7999C178.808 40.9035 180.083 40.3192 181.443 40.114C182.103 38.2315 183.265 36.5654 184.804 35.2966C186.344 34.0277 188.201 33.2044 190.175 32.916" stroke="#263238" stroke-width="0.75" stroke-linecap="round" stroke-linejoin="round"/>
<path d="M201.048 54.6105H182.534C180.605 54.6121 178.753 53.8495 177.384 52.4896C176.015 51.1297 175.241 49.283 175.23 47.3535" stroke="#263238" stroke-width="0.75" stroke-linecap="round" stroke-linejoin="round"/>
<path d="M203.898 54.6045H202.995" stroke="#263238" stroke-width="0.75" stroke-linecap="round" stroke-linejoin="round"/>
<path d="M278.805 78.3637L268.243 53.7725L243.652 64.3276L247.228 72.6525L257.612 68.198L239.811 112.784L213.374 145.771L173.136 158.686L172.752 158.81L135.741 178.481L110.596 188.033L103.055 226.92H83.9865L68.145 264.166L68.1451 273.229H74.1335L89.9809 235.982H110.525L118.525 194.706L139.488 186.747L176.286 167.188L218.737 153.565L247.723 117.398L266.025 71.5551L270.48 81.9332L278.805 78.3637Z" fill="#92E3A9"/>
<path d="M18.1307 273.831H268.161" stroke="#263238" stroke-linecap="round" stroke-linejoin="round"/>
<path d="M138.06 171.761L137.895 174.486C137.895 174.486 135.535 176.109 133.688 177.248C132.508 177.973 131.434 178.156 131.576 178.729C131.93 180.192 137.016 178.54 139.559 177.926C142.101 177.313 145.459 177.336 142.998 175.018C142.734 174.734 142.488 174.435 142.261 174.121L142.337 171.342L138.06 171.761Z" fill="#263238" stroke="#263238" stroke-linecap="round" stroke-linejoin="round"/>
<path d="M170.734 150.94C170.734 150.94 171.448 153.796 171.324 154.757C171.164 155.737 171.195 156.739 171.413 157.707C171.902 159.354 172.941 158.699 175.206 158.144C177.614 157.554 179.578 157.389 179.389 156.274C179.201 155.159 176.186 154.94 175.56 154.067C174.935 153.194 174.569 149.984 174.569 149.984L170.734 150.94Z" fill="#263238" stroke="#263238" stroke-linecap="round" stroke-linejoin="round"/>
<path d="M146.733 129.564C146.733 129.564 139.134 145.6 138.013 152.916C136.892 160.232 137.564 172.917 137.564 172.917C137.564 172.917 139.535 174.097 142.874 172.964C142.874 172.964 144.314 154.592 145.4 152.468C146.485 150.344 154.645 138.721 156.138 138.048C157.63 137.376 165.701 142.869 166.858 144.863C168.014 146.857 170.752 153.86 170.752 153.86C170.752 153.86 172.87 154.899 175.596 152.474C175.596 152.474 175.071 143.488 172.551 139.96C170.032 136.432 162.138 127.782 162.138 127.782L146.733 129.564Z" fill="#999999" stroke="#263238" stroke-linecap="round" stroke-linejoin="round"/>
<path opacity="0.3" d="M172.115 145.352C169.277 146.249 166.687 142.839 165.182 141.34C163.678 139.842 160.828 135.358 159.111 136.373C157.394 137.387 156.161 137.11 153.211 136.449C150.261 135.788 146.007 149.429 143.848 151.199C141.688 152.969 142.627 151.713 141.452 162.262C140.626 169.684 138.62 171.531 137.505 171.973C137.505 172.563 137.553 172.941 137.553 172.941C137.553 172.941 139.523 174.121 142.863 172.988C142.863 172.988 144.302 154.615 145.388 152.491C146.473 150.367 154.633 138.744 156.126 138.072C157.618 137.399 165.69 142.892 166.846 144.886C168.002 146.88 170.74 153.884 170.74 153.884C170.74 153.884 172.858 154.922 175.584 152.497C175.384 149.477 174.892 146.484 174.115 143.559C173.956 144 173.69 144.395 173.341 144.708C172.992 145.021 172.571 145.242 172.115 145.352Z" fill="black"/>
<path d="M139.24 152.097C139.056 153.186 139.149 154.304 139.511 155.348" stroke="#263238" stroke-width="0.75" stroke-linecap="round" stroke-linejoin="round"/>
<path d="M168.038 142.408C168.038 142.408 166.215 142.845 167.389 145.948" stroke="#263238" stroke-width="0.75" stroke-linecap="round" stroke-linejoin="round"/>
<path d="M150.061 134.349C150.061 134.349 155.548 136.431 155.005 137.187C154.462 137.942 151.718 137.464 151.718 137.464" stroke="#263238" stroke-width="0.75" stroke-linecap="round" stroke-linejoin="round"/>
<path d="M157.648 136.131C158.814 135.53 159.884 134.758 160.822 133.842" stroke="#263238" stroke-width="0.75" stroke-linecap="round" stroke-linejoin="round"/>
<path d="M173.006 143.477C173.006 143.477 171.778 144.81 170.557 144.485" stroke="#263238" stroke-width="0.75" stroke-linecap="round" stroke-linejoin="round"/>
<path d="M143.807 152.987C143.807 152.987 141.806 153.394 141.565 153.996" stroke="#263238" stroke-width="0.75" stroke-linecap="round" stroke-linejoin="round"/>
<path d="M134.308 112.555L131.151 115.334C129.42 115.871 127.803 116.721 126.378 117.841C123.652 119.847 116.566 125.21 116.566 125.21C115.723 125.486 114.856 125.683 113.976 125.8C112.796 125.93 111.528 126.815 111.781 127.216C112.035 127.617 113.127 126.785 113.392 126.827C113.658 126.868 113.144 129.423 113.492 130.013C113.84 130.603 114.377 129.794 114.377 129.794C114.471 129.871 114.579 129.925 114.696 129.954C114.813 129.983 114.935 129.986 115.052 129.962C115.17 129.938 115.282 129.889 115.378 129.817C115.474 129.745 115.554 129.653 115.61 129.547C115.61 129.547 116.425 129.712 116.566 129.004C116.566 129.004 117.156 129.275 117.339 128.561C117.446 128.136 117.586 127.72 117.758 127.316C117.758 127.316 130.773 121.416 132.679 119.027C132.679 119.027 134.343 118.437 134.626 117.676L137.104 115.723L134.308 112.555Z" fill="white" stroke="#263238" stroke-linecap="round" stroke-linejoin="round"/>
<path d="M113.799 128.862C113.799 128.862 114.301 128.791 114.389 129.027C114.478 129.263 114.979 128.626 115.256 128.762C115.534 128.897 115.911 128.036 116.277 128.254" fill="white"/>
<path d="M113.799 128.862C113.799 128.862 114.301 128.791 114.389 129.027C114.478 129.263 114.979 128.626 115.256 128.762C115.534 128.897 115.911 128.036 116.277 128.254" stroke="#263238" stroke-width="0.75" stroke-linecap="round" stroke-linejoin="round"/>
<path d="M180.841 100.301C179.873 101.245 174.734 113.528 171.129 112.337C168.665 111.479 166.267 110.442 163.955 109.233L165.796 104.46L171.336 107.41C171.336 107.41 171.442 105.917 178.587 99.5218C178.587 99.5218 177.743 97.1618 177.855 96.2001C177.968 95.2384 177.726 94.2177 178.274 94.2354C178.823 94.2531 178.681 95.9228 178.681 95.9228L178.805 96.4361C178.805 96.4361 180.08 96.5482 180.575 95.8048C180.948 95.3111 181.195 94.7339 181.295 94.1233C181.378 93.669 181.844 92.8607 182.068 93.6218C182.068 93.6218 182.658 93.3622 182.658 94.2118C182.669 94.6687 182.651 95.1259 182.605 95.5806C182.605 95.5806 183.154 94.4773 183.36 94.7015C183.567 94.9257 182.947 96.2001 182.947 96.2001C182.947 96.2001 183.75 95.498 183.82 95.793C183.891 96.088 183 96.8845 182.811 97.3978C182.354 98.4867 181.684 99.4735 180.841 100.301Z" fill="white" stroke="#263238" stroke-linecap="round" stroke-linejoin="round"/>
<path d="M150.798 101.864C148.355 102.33 140.632 103.923 141.393 106.637C142.107 109.168 146.054 121.292 145.234 128.467C145.211 128.658 145.228 128.851 145.284 129.035C145.339 129.219 145.432 129.39 145.557 129.536C145.682 129.682 145.835 129.801 146.008 129.885C146.181 129.969 146.37 130.017 146.562 130.024C151.843 130.225 157.125 129.673 162.25 128.384C162.995 128.198 163.645 127.74 164.071 127.101C164.498 126.462 164.671 125.687 164.557 124.927C164.002 121.292 163.194 114.672 163.713 109.486C164.492 101.952 164.073 99.3384 150.798 101.864Z" fill="#92E3A9" stroke="#263238" stroke-linecap="round" stroke-linejoin="round"/>
<path d="M159.147 103.657C158.477 104.179 158.029 104.934 157.892 105.772C157.755 106.61 157.94 107.469 158.409 108.177" stroke="#263238" stroke-width="0.75" stroke-linecap="round" stroke-linejoin="round"/>
<path d="M143.96 114.85C147.432 119.99 152.611 123.735 158.58 125.422" stroke="#263238" stroke-width="0.75" stroke-linecap="round" stroke-linejoin="round"/>
<path d="M147.282 127.487C149.799 127.699 152.333 127.57 154.816 127.104" stroke="#263238" stroke-width="0.75" stroke-linecap="round" stroke-linejoin="round"/>
<path d="M141.936 105.787L132.98 112.195C132.98 112.195 134.998 117.092 137.146 117.398L143.895 113.003" fill="#92E3A9"/>
<path d="M141.936 105.787L132.98 112.195C132.98 112.195 134.998 117.092 137.146 117.398L143.895 113.003" stroke="#263238" stroke-linecap="round" stroke-linejoin="round"/>
<path d="M159.636 102.177C159.636 102.177 164.356 103.009 170.486 106.49C170.486 106.49 170.486 110.224 168.126 112.667L162.032 109.805" fill="#92E3A9"/>
<path d="M159.636 102.177C159.636 102.177 164.356 103.009 170.486 106.49C170.486 106.49 170.486 110.224 168.126 112.667L162.032 109.805" stroke="#263238" stroke-linecap="round" stroke-linejoin="round"/>
<path d="M147.382 106.052L148.609 108.495L148.267 115.209C148.267 115.209 148.214 120.967 150.562 129.564L152.332 130.331L153.665 129.281C153.665 129.281 151.217 117.292 150.975 115.02L149.642 108.3L150.609 105.834L148.597 106.082L147.382 106.052Z" fill="#263238" stroke="#263238" stroke-linecap="round" stroke-linejoin="round"/>
<path d="M150.32 103.002C149.388 103.185 147.689 103.527 145.984 104.029C145.632 105.28 145.59 106.598 145.86 107.87C146.206 107.313 146.74 106.898 147.365 106.7C147.991 106.502 148.666 106.534 149.27 106.79C151.884 104.967 153.795 106.318 153.795 106.318C153.636 105.045 153.414 103.781 153.129 102.53C152.261 102.66 151.335 102.813 150.32 103.002Z" fill="#92E3A9" stroke="#263238" stroke-width="0.75" stroke-linecap="round" stroke-linejoin="round"/>
<path d="M151.158 100.472C151.158 100.472 151.795 102.466 152.491 102.619C152.491 102.619 151.595 106.13 148.249 105.451C144.904 104.773 149.181 101.61 149.181 101.61L151.158 100.472Z" fill="white" stroke="#263238" stroke-linecap="round" stroke-linejoin="round"/>
<path d="M150.527 100.3C150.527 100.3 151.229 101.893 152.261 101.663C152.261 101.663 151.477 98.8901 151.842 97.2086C152.208 95.5271 151.01 91.2732 147.022 92.4414C145.225 92.3901 143.46 92.9266 141.995 93.9695C139.7 95.6982 139.311 94.4297 139.311 94.4297C139.311 94.4297 138.839 96.4888 141.051 95.9873C141.051 95.9873 140.461 97.1673 139.441 96.8841C139.441 96.8841 140.208 97.9402 141.211 97.4269C141.211 97.4269 140.544 98.3473 141.122 98.9727C141.122 98.9727 143.854 96.7838 145.459 97.1673C147.063 97.5508 150.527 100.3 150.527 100.3Z" fill="#263238" stroke="#263238" stroke-linecap="round" stroke-linejoin="round"/>
<path d="M142.532 99.7106C142.532 99.7106 143.588 104.726 146.851 106.431C149.034 107.569 151.276 101.935 151.241 101.168C151.552 101.014 151.817 100.779 152.006 100.487C152.195 100.195 152.301 99.8574 152.314 99.51C152.367 98.2946 151.482 97.9996 150.763 98.566C150.763 98.566 150.468 99.4156 150.09 99.4687C149.712 99.5218 149.801 97.3211 149.364 97.1087C148.928 96.8963 147.895 96.8019 147.559 95.9287C147.223 95.0555 145.789 96.2827 143.93 96.5187C142.072 96.7547 142.19 98.4657 142.532 99.7106Z" fill="white" stroke="#263238" stroke-linecap="round" stroke-linejoin="round"/>
<path d="M144.55 100.625C144.581 101.012 144.533 101.401 144.409 101.77C144.286 102.138 144.089 102.477 143.83 102.767C143.34 103.304 145.223 102.95 145.364 103.327" stroke="#263238" stroke-width="0.75" stroke-linecap="round" stroke-linejoin="round"/>
<path d="M143.606 100.601C143.671 100.854 143.606 101.084 143.523 101.108C143.441 101.132 143.276 100.949 143.217 100.695C143.158 100.441 143.217 100.205 143.299 100.182C143.382 100.158 143.547 100.341 143.606 100.601Z" fill="#263238"/>
<path d="M146.119 99.9876C146.178 100.247 146.119 100.471 146.037 100.501C145.954 100.53 145.789 100.342 145.724 100.082C145.659 99.8224 145.724 99.5982 145.807 99.5687C145.889 99.5392 146.054 99.7103 146.119 99.9876Z" fill="#263238"/>
<path d="M147.771 102.743C147.842 103.451 146.149 103.923 146.149 103.923" stroke="#263238" stroke-width="0.75" stroke-linecap="round" stroke-linejoin="round"/>
<path d="M142.532 99.7105C142.79 99.6124 143.069 99.5836 143.341 99.6271C143.613 99.6706 143.87 99.7848 144.084 99.9583" stroke="#263238" stroke-width="0.75" stroke-linecap="round" stroke-linejoin="round"/>
<path d="M145.052 99.5271C145.052 99.5271 145.447 98.0049 146.32 98.5949" stroke="#263238" stroke-width="0.75" stroke-linecap="round" stroke-linejoin="round"/>
<path d="M179.419 97.3506C179.592 97.5307 179.714 97.7532 179.773 97.9956C179.832 98.2381 179.826 98.4918 179.755 98.7312" fill="white"/>
<path d="M179.419 97.3506C179.592 97.5307 179.714 97.7532 179.773 97.9956C179.832 98.2381 179.826 98.4918 179.755 98.7312" stroke="#263238" stroke-linecap="round" stroke-linejoin="round"/>
<path d="M236.732 109.061C235.686 106.73 234.522 104.453 233.245 102.24C231.905 100.152 223.687 101.06 220.436 102.028C217.185 102.996 215.273 114.843 214.642 118.701C214.011 122.56 218.329 139.127 218.329 139.127C216.801 141.234 212.4 140.655 212.4 140.655C212.4 140.655 207.816 127.463 206.86 120.595C205.904 113.728 210.046 96.6945 210.046 96.6945L222.896 93.4023C222.896 93.4023 232.23 93.2253 236.401 93.4495C242.578 93.774 240.732 107.81 240.732 107.81C240.732 107.81 240.366 109.061 236.732 109.061Z" fill="#263238" stroke="#263238" stroke-linecap="round" stroke-linejoin="round"/>
<path d="M212.89 138.939C212.89 138.939 214.323 141.806 212.17 142.951C210.016 144.095 209.125 145.771 210.294 145.771H217.621C218.914 145.771 220.206 145.104 219.055 142.927C218.825 142.496 217.48 137.93 217.48 137.93L212.89 138.939Z" fill="#263238" stroke="#263238" stroke-linecap="round" stroke-linejoin="round"/>
<path d="M236.401 106.618C236.401 106.618 236.879 109.775 236.991 111.592C237.103 113.409 238.331 114.46 239.764 113.793C241.198 113.126 248.178 108.247 247.794 107.191C247.411 106.135 245.883 107.385 244.065 107.781C243.096 107.997 242.108 108.124 241.115 108.158L240.637 105.58L236.401 106.618Z" fill="#263238" stroke="#263238" stroke-linecap="round" stroke-linejoin="round"/>
<path d="M207.308 119.622C207.308 119.622 207.822 121.628 208.966 122.301" stroke="#7F7F7F" stroke-width="0.75" stroke-linecap="round" stroke-linejoin="round"/>
<path d="M214.642 101.362C214.642 101.362 219.515 100.182 219.498 100.884C219.48 101.586 216.548 102.701 216.329 103.244" stroke="#7F7F7F" stroke-width="0.75" stroke-linecap="round" stroke-linejoin="round"/>
<path d="M220.442 100.671C220.442 100.671 223.504 99.3732 223.504 98.6475" stroke="#7F7F7F" stroke-width="0.75" stroke-linecap="round" stroke-linejoin="round"/>
<path d="M240.72 107.793C239.489 108.488 238.127 108.92 236.72 109.061" stroke="#7F7F7F" stroke-width="0.75" stroke-linecap="round" stroke-linejoin="round"/>
<path d="M218.147 139.635C216.89 140.673 214.748 140.762 213.556 140.72" stroke="#7F7F7F" stroke-width="0.75" stroke-linecap="round" stroke-linejoin="round"/>
<path d="M218.619 67.2596C218.619 67.2596 220.241 61.2357 216.896 59.7017C216.896 59.7017 214.648 57.4066 210.406 59.7017C206.164 61.9968 207.78 63.5131 208.683 62.9703C208.683 62.9703 206.63 64.817 207.155 65.3952C207.68 65.9734 208.683 64.9645 208.683 64.9645C208.645 66.0016 208.912 67.0272 209.45 67.9145C210.311 69.0945 214.418 68.6343 214.418 68.6343L217.58 68.0443L218.619 67.2596Z" fill="#263238" stroke="#263238" stroke-linecap="round" stroke-linejoin="round"/>
<path d="M210.4 98.6179C209.832 98.587 209.291 98.3668 208.864 97.9925C208.436 97.6182 208.146 97.1114 208.04 96.5529C207.544 94.01 206.577 89.2428 205.521 85.0125C203.987 78.8942 198.216 73.0178 213.362 70.4808C228.188 67.991 224.831 74.6875 224.643 78.6995C224.483 81.9858 223.687 88.1395 224.973 91.2606C225.21 91.8046 225.252 92.4141 225.091 92.9854C224.929 93.5566 224.575 94.0542 224.088 94.3935C221.386 96.2284 216.312 98.9483 210.4 98.6179Z" fill="#999999" stroke="#263238" stroke-linecap="round" stroke-linejoin="round"/>
<path d="M206.653 80.3867C208.292 82.6269 210.434 84.4504 212.907 85.71C215.38 86.9696 218.115 87.63 220.89 87.6378" stroke="#263238" stroke-width="0.75" stroke-linecap="round" stroke-linejoin="round"/>
<path d="M209.055 91.9629L221.787 92.075C217.936 93.8877 213.741 94.8515 209.485 94.9011" stroke="#263238" stroke-width="0.75" stroke-linecap="round" stroke-linejoin="round"/>
<path d="M211.668 73.5371C211.668 73.5371 212.258 76.3573 212.848 76.6464C212.848 76.6464 211.415 85.343 212.565 92.7534L213.055 95.5736L215.244 96.6769L217.055 94.5706C217.055 94.5706 216.63 92.6 216.465 91.9451C215.633 88.1514 214.023 80.9003 214.105 76.6051C214.105 76.6051 216.105 75.0239 215.964 73.6551L211.668 73.5371Z" fill="#92E3A9" stroke="#263238" stroke-linecap="round" stroke-linejoin="round"/>
<path d="M229.941 74.2336L233.782 71.1243C235.329 70.6879 236.843 70.1417 238.313 69.49C241.263 68.2392 248.567 64.4809 248.567 64.4809C249.411 64.4031 250.26 64.4031 251.104 64.4809C252.201 64.6166 253.588 64.0856 253.464 63.6549C253.34 63.2242 252.125 63.7552 251.889 63.6549C251.653 63.5546 252.691 61.2949 252.479 60.7049C252.266 60.1149 251.623 60.7049 251.623 60.7049C251.553 60.6174 251.465 60.5461 251.365 60.4958C251.265 60.4455 251.155 60.4175 251.043 60.4136C250.931 60.4096 250.819 60.43 250.716 60.4731C250.612 60.5163 250.519 60.5812 250.443 60.6636C250.443 60.6636 249.723 60.3273 249.44 60.9527C249.375 60.8997 249.299 60.8633 249.216 60.8468C249.134 60.8303 249.049 60.8341 248.969 60.858C248.889 60.8818 248.816 60.925 248.756 60.9837C248.696 61.0423 248.651 61.1148 248.626 61.1946C248.431 61.5618 248.21 61.9148 247.965 62.2507C247.965 62.2507 235.068 65.2007 232.779 66.9707L226.843 70.3514L229.941 74.2336Z" fill="white" stroke="#263238" stroke-linecap="round" stroke-linejoin="round"/>
<path d="M201.668 84.1692L197.396 86.5292C196.224 87.6296 194.972 88.6413 193.65 89.5559C191.042 91.438 184.045 95.7214 184.045 95.7214C183.542 96.4031 183.103 97.1299 182.735 97.8926C182.281 98.9015 181.112 99.8101 180.817 99.4679C180.522 99.1257 181.596 98.3764 181.643 98.1227C181.691 97.869 179.218 97.5917 178.788 97.102C178.357 96.6123 179.236 96.3704 179.236 96.3704C179.195 96.2634 179.179 96.1487 179.187 96.0345C179.196 95.9203 179.229 95.8093 179.286 95.7096C179.342 95.6099 179.42 95.5238 179.513 95.4575C179.606 95.3912 179.713 95.3464 179.826 95.3261C179.826 95.3261 179.915 94.5355 180.593 94.6181C180.593 94.6181 180.516 94.0281 181.224 94.0281C181.639 94.0577 182.055 94.0577 182.469 94.0281C182.469 94.0281 191.685 84.5409 194.393 83.5025L199.815 80.0156L201.668 84.1692Z" fill="white" stroke="#263238" stroke-linecap="round" stroke-linejoin="round"/>
<path d="M209.822 70.3804C209.822 70.3804 209.167 75.2125 210.046 76.2155C210.046 76.2155 210.966 73.3481 213.409 75.1653C213.409 75.1653 216.949 73.0118 217.468 75.8792C217.468 75.8792 218.713 72.4218 218.648 69.8258L210.719 69.7314L209.822 70.3804Z" fill="#999999" stroke="#263238" stroke-width="0.75" stroke-linecap="round" stroke-linejoin="round"/>
<path d="M205.149 73.2598L196.34 81.3074C196.34 81.3074 198.936 85.3253 200.748 86.1867C202.559 87.0481 205.709 81.213 205.709 81.213" fill="#999999"/>
<path d="M205.149 73.2598L196.34 81.3074C196.34 81.3074 198.936 85.3253 200.748 86.1867C202.559 87.0481 205.709 81.213 205.709 81.213" stroke="#263238" stroke-linecap="round" stroke-linejoin="round"/>
<path d="M221.167 70.1272L231.05 67.1182C231.05 67.1182 232.767 70.9591 232.006 73.3486C231.245 75.7381 223.876 76.216 223.876 76.216" fill="#999999"/>
<path d="M221.167 70.1272L231.05 67.1182C231.05 67.1182 232.767 70.9591 232.006 73.3486C231.245 75.7381 223.876 76.216 223.876 76.216" stroke="#263238" stroke-linecap="round" stroke-linejoin="round"/>
<path d="M209.45 67.8965C209.45 67.8965 210.406 74.3865 213.084 74.3865C215.763 74.3865 217.769 71.0766 217.958 70.2919C218.061 69.9036 218.142 69.5096 218.2 69.1119C218.2 69.1119 218.436 69.3951 218.914 69.1591C219.392 68.9231 219.539 65.9082 219.203 65.861C218.838 65.833 218.471 65.833 218.105 65.861C218.105 65.861 218.105 67.3419 217.722 67.2947C217.338 67.2475 217.433 65.2356 217.197 64.9996C216.961 64.7636 216.046 65.0468 215.38 64.5689C214.713 64.091 214.087 65.1589 212.43 65.2356C210.772 65.3123 210.536 64.2326 210.07 64.7577C209.603 65.2828 209.963 67.6546 209.45 67.8965Z" fill="white" stroke="#263238" stroke-linecap="round" stroke-linejoin="round"/>
<path d="M212.017 68.6934C211.815 69.3297 211.704 69.991 211.686 70.6581C211.781 71.1478 212.996 70.5755 213.037 70.959" stroke="#263238" stroke-width="0.75" stroke-linecap="round" stroke-linejoin="round"/>
<path d="M213.037 72.0095C213.337 72.0171 213.635 71.961 213.912 71.8451C214.188 71.7292 214.437 71.556 214.642 71.3369" stroke="#263238" stroke-width="0.75" stroke-linecap="round" stroke-linejoin="round"/>
<path d="M210.966 68.9766C210.966 69.2185 210.86 69.4132 210.73 69.4132C210.601 69.4132 210.488 69.2185 210.488 68.9766C210.488 68.7347 210.601 68.54 210.73 68.54C210.86 68.54 210.966 68.7347 210.966 68.9766Z" fill="#263238"/>
<path d="M213.857 68.8409C213.857 69.0828 213.751 69.2775 213.621 69.2775C213.491 69.2775 213.379 69.0828 213.379 68.8409C213.379 68.599 213.486 68.4043 213.621 68.4043C213.757 68.4043 213.857 68.599 213.857 68.8409Z" fill="#263238"/>
<path d="M210.04 67.3721C210.04 67.3721 210.63 66.6523 211.438 67.9621" stroke="#263238" stroke-width="0.75" stroke-linecap="round" stroke-linejoin="round"/>
<path d="M212.831 67.9908C212.831 67.9908 213.875 66.9406 214.406 67.4008" stroke="#263238" stroke-width="0.75" stroke-linecap="round" stroke-linejoin="round"/>
<path d="M231.363 101.367L235.381 101.526" stroke="#7F7F7F" stroke-width="0.75" stroke-linecap="round" stroke-linejoin="round"/>
<path d="M238.041 93.9922C238.75 94.6768 239.272 95.5307 239.559 96.4731C239.846 97.4156 239.888 98.4156 239.682 99.3789" stroke="#7F7F7F" stroke-width="0.75" stroke-linecap="round" stroke-linejoin="round"/>
<path d="M95.338 148.946L99.0137 145.489C99.9285 144.065 100.946 142.711 102.058 141.436C104.235 138.845 110.277 132.674 110.277 132.674C110.613 131.848 110.873 130.993 111.056 130.119C111.256 128.969 112.236 127.759 112.607 128.019C112.979 128.279 112.094 129.335 112.112 129.606C112.129 129.877 114.725 129.523 115.286 129.913C115.846 130.302 115.02 130.774 115.02 130.774C115.09 130.872 115.138 130.985 115.159 131.103C115.18 131.222 115.175 131.344 115.143 131.46C115.111 131.576 115.054 131.684 114.976 131.776C114.898 131.867 114.8 131.94 114.69 131.99C114.69 131.99 114.802 132.816 114.1 132.91C114.1 132.91 114.336 133.5 113.604 133.653C113.176 133.736 112.754 133.851 112.342 133.996C112.342 133.996 105.374 146.049 102.902 147.802L98.3116 153.289L95.338 148.946Z" fill="#999999" stroke="#263238" stroke-linecap="round" stroke-linejoin="round"/>
<path d="M88.9484 154.463C88.9484 154.463 94.0519 149.3 96.5594 147.383C96.5594 147.383 99.5507 150.846 99.4445 153.873C99.4445 153.873 95.4797 158.457 93.5091 158.894" fill="white"/>
<path d="M88.9484 154.463C88.9484 154.463 94.0519 149.3 96.5594 147.383C96.5594 147.383 99.5507 150.846 99.4445 153.873C99.4445 153.873 95.4797 158.457 93.5091 158.894" stroke="#263238" stroke-linecap="round" stroke-linejoin="round"/>
<path d="M100.188 183.591C101.452 184.421 102.471 185.574 103.138 186.931C103.934 188.701 103.138 189.444 104.318 190.535C105.669 191.78 113.758 185.302 113.374 184.199C112.991 183.096 111.362 184.4 109.451 184.789C108.425 185.02 107.38 185.154 106.33 185.19L104.011 181.267L100.188 183.591Z" fill="#263238" stroke="#263238" stroke-linecap="round" stroke-linejoin="round"/>
<path d="M86.6119 178.475C86.6119 178.475 91.562 176.387 93.3733 171.454C93.3733 171.454 91.9632 176.28 101.633 185.744C101.633 185.744 104.583 185.343 105.675 182.723C105.675 182.723 97.167 162.899 94.1639 162.999C91.1608 163.1 80.0039 172.593 80.0039 172.593C80.0039 172.593 81.0541 179.36 86.6119 178.475Z" fill="#92E3A9" stroke="#263238" stroke-linecap="round" stroke-linejoin="round"/>
<path opacity="0.2" d="M95.338 174.747C94.3999 172.334 94.8719 164.776 93.3556 168.924C91.8393 173.071 88.2403 172.641 88.2403 172.641L87.0249 174.369L88.4881 177.408C90.6972 175.981 92.4052 173.9 93.3733 171.455C93.3733 171.455 91.9632 176.281 101.633 185.745C102.818 185.531 103.909 184.961 104.76 184.11C101.551 185.031 96.282 177.154 95.338 174.747Z" fill="black"/>
<path d="M94.1639 167.625C94.1639 167.625 93.509 167.985 93.6919 170.221" stroke="#263238" stroke-width="0.75" stroke-linecap="round" stroke-linejoin="round"/>
<path d="M99.12 219.711L99.4976 222.13C102.288 224.997 105.533 224.012 105.687 225.298C105.84 226.584 101.309 226.354 99.5743 226.354C97.8397 226.354 94.8189 226.944 94.2112 225.9C93.9103 225.375 94.7599 224.018 95.0785 222.791C95.2729 222.036 95.313 221.249 95.1965 220.478L99.12 219.711Z" fill="#263238" stroke="#263238" stroke-linecap="round" stroke-linejoin="round"/>
<path d="M88.2404 141.058C88.2404 141.058 90.7597 138.946 89.8511 138.108C88.9425 137.27 87.8215 138.787 87.8215 138.787C87.8215 138.787 88.7183 136.073 87.438 135.695C86.1577 135.317 86.0043 138.055 86.0043 138.055C86.0043 138.055 85.9276 135.648 84.6414 135.695C83.3552 135.742 84.6414 137.382 82.4525 138.822C80.2636 140.262 77.5496 141.996 79.6618 144.409C79.6618 144.409 78.3815 145.92 80.948 147.578C83.5145 149.235 84.1517 149.79 84.488 151.666L87.438 148.864L87.8215 143.2L88.2404 141.058Z" fill="#263238" stroke="#263238" stroke-linecap="round" stroke-linejoin="round"/>
<path d="M93.6919 146.32L97.6213 143.164C98.6455 141.815 99.7676 140.543 100.978 139.358C103.338 136.945 109.828 131.258 109.828 131.258C110.227 130.461 110.553 129.63 110.802 128.774C111.091 127.647 112.147 126.496 112.513 126.803C112.879 127.11 111.923 128.078 111.923 128.343C111.923 128.609 114.531 128.467 115.062 128.898C115.593 129.328 114.725 129.736 114.725 129.736C114.786 129.838 114.824 129.953 114.836 130.072C114.847 130.191 114.833 130.311 114.793 130.424C114.753 130.536 114.688 130.639 114.604 130.724C114.52 130.809 114.419 130.874 114.306 130.916C114.306 130.916 114.354 131.747 113.634 131.789C113.634 131.789 113.823 132.379 113.079 132.491C112.645 132.538 112.215 132.619 111.793 132.733C111.793 132.733 103.911 144.191 101.285 145.73L96.282 150.84L93.6919 146.32Z" fill="#999999" stroke="#263238" stroke-linecap="round" stroke-linejoin="round"/>
<path d="M73.75 175.378C73.75 175.378 71.6378 179.703 76.5702 184.033C81.5026 188.364 90.5591 198.323 91.1609 201.544C91.7627 204.766 94.5829 221.374 94.5829 221.374C94.5829 221.374 97.8043 222.277 99.8929 220.666C99.8929 220.666 100.093 204.689 98.3825 198.388C96.6715 192.087 90.4234 184.352 88.6239 179.301C88.3962 178.241 88.26 177.164 88.2168 176.08L73.75 175.378Z" fill="#92E3A9" stroke="#263238" stroke-linecap="round" stroke-linejoin="round"/>
<path opacity="0.2" d="M93.6624 200.134C93.9574 198.459 84.5056 185.207 81.5025 185.207C80.2871 185.207 78.2634 184.617 76.5819 184.027C81.5143 188.358 90.559 198.311 91.1608 201.527C91.7626 204.742 94.5828 221.357 94.5828 221.357C95.3658 221.55 96.1723 221.632 96.9782 221.599C94.4825 221.009 93.3615 201.81 93.6624 200.134Z" fill="black"/>
<path d="M94.164 199.232C93.7194 199.125 93.253 199.154 92.825 199.315C92.397 199.476 92.027 199.762 91.7627 200.135" stroke="#263238" stroke-width="0.75" stroke-linecap="round" stroke-linejoin="round"/>
<path d="M89.2493 141.282L90.6063 143.477C90.6063 143.477 92.5592 143.778 92.8306 144.38C93.102 144.981 91.7391 145.359 91.7391 145.359C91.7391 145.359 93.6271 147.548 93.3262 148.309C93.0253 149.07 90.3762 150.498 90.3762 150.498L84.5647 150.858C84.5647 150.858 85.5441 149.218 85.0898 148.085C85.0898 148.085 82.9009 148.22 83.131 146.073C83.3611 143.925 84.8656 145.595 84.8656 145.595C85.0677 145.483 85.2239 145.303 85.307 145.087C85.39 144.872 85.3946 144.634 85.3199 144.415C85.0898 143.512 85.845 143.135 85.9099 142.379C85.9748 141.624 87.91 139.093 89.2493 141.282Z" fill="#999999" stroke="#263238" stroke-linecap="round" stroke-linejoin="round"/>
<path d="M89.9278 143.488C90.0871 143.76 90.0871 144.078 89.9278 144.137C89.7685 144.196 89.5266 144.078 89.3673 143.807C89.208 143.536 89.208 143.217 89.3673 143.158C89.5266 143.099 89.7744 143.223 89.9278 143.488Z" fill="#263238"/>
<path d="M88.9483 142.344C88.9483 142.344 87.0603 141.512 86.9836 142.344" stroke="#263238" stroke-width="0.75" stroke-linecap="round" stroke-linejoin="round"/>
<path d="M83.1368 152.81V150.45C83.1368 150.45 93.7568 148.09 92.3821 151.884L91.2847 152.81H83.1368Z" fill="white" stroke="#263238" stroke-linecap="round" stroke-linejoin="round"/>
<path d="M72.9417 177.266C73.7657 170.418 75.7049 163.752 78.6824 157.53C83.5145 147.719 93.7451 150.899 94.0814 153.784C94.6714 158.905 91.7214 163.537 90.2346 169.749C89.2493 173.832 89.8098 177.13 88.4941 177.307C85.1724 177.744 72.9417 177.266 72.9417 177.266Z" fill="white" stroke="#263238" stroke-linecap="round" stroke-linejoin="round"/>
<path d="M87.438 151.547C87.438 151.547 92.4943 146.32 94.99 144.379C94.99 144.379 98.0108 147.819 97.94 150.869C97.94 150.869 94.0165 155.495 92.04 155.943" fill="white"/>
<path d="M87.438 151.547C87.438 151.547 92.4943 146.32 94.99 144.379C94.99 144.379 98.0108 147.819 97.94 150.869C97.94 150.869 94.0165 155.495 92.04 155.943" stroke="#263238" stroke-linecap="round" stroke-linejoin="round"/>
<path d="M91.739 158.492C88.7199 162.798 84.9982 166.566 80.7296 169.637" stroke="#263238" stroke-width="0.75" stroke-linecap="round" stroke-linejoin="round"/>
<path d="M87.3731 166.203C85.0063 169.925 81.7045 172.96 77.7974 175.006C77.8564 174.888 77.9095 174.77 77.9685 174.646" stroke="#263238" stroke-width="0.75" stroke-linecap="round" stroke-linejoin="round"/>
</svg>
