<svg width="135" height="32" viewBox="0 0 135 32" fill="none" xmlns="http://www.w3.org/2000/svg">
<path id="bingAtas-akhir-for-AAs" d="M13.4422 4.73751C11.6206 3.78324 10.1811 2.37159 9.33825 0.724577C13.2141 0.96761 17.1709 3.04902 19.5148 6.07961C17.3913 6.15297 15.2526 5.68541 13.4422 4.73751ZM125.663 0.724577C124.82 2.37159 123.38 3.78324 121.558 4.73751C119.748 5.68541 117.611 6.15616 115.486 6.07961C117.83 3.04902 121.787 0.96761 125.663 0.724577ZM134.763 17.4123C134.705 16.3693 134.393 15.3551 133.804 14.4493C132.517 12.4687 129.971 11.0117 126.994 10.5525C123.612 10.0313 120.308 10.9473 118.575 12.8877C117.246 14.3746 116.911 16.4516 117.721 18.1784C118.53 19.9057 120.465 21.2421 122.651 21.5821C124.797 21.9151 126.991 21.2019 127.981 19.8458C128.551 19.065 128.649 18.0119 128.235 17.0965C127.873 16.2947 127.162 15.7034 126.284 15.475C126.063 15.417 125.826 15.5196 125.758 15.7046C125.688 15.8896 125.812 16.0867 126.034 16.1441C126.672 16.3106 127.173 16.7367 127.448 17.344C127.773 18.0616 127.702 18.88 127.264 19.4809C126.451 20.5934 124.617 21.1739 122.804 20.8925C120.898 20.5953 119.21 19.4299 118.504 17.9232C117.798 16.4165 118.09 14.6043 119.249 13.3068C121.004 11.3428 124.327 10.8523 126.842 11.2426C129.571 11.6636 131.898 12.9872 133.065 14.7835C133.573 15.5662 133.853 16.4395 133.92 17.3408C133.91 17.3861 133.912 17.4333 133.925 17.4811C133.926 17.4887 133.927 17.4971 133.929 17.5047C134.022 19.5026 133.081 21.6185 131.245 23.1749C128.829 25.2225 125.109 26.3012 121.043 26.1302C120.709 26.1161 120.372 26.09 120.033 26.06C120.018 26.0575 120.007 26.0512 119.992 26.0499C114.772 25.6009 110.179 22.1678 109.07 17.8869C107.97 13.6386 110.412 8.97059 114.881 6.74246C115.229 6.76989 115.577 6.78902 115.925 6.78902C118.065 6.78902 120.186 6.2851 122.005 5.3321C124.165 4.20049 125.828 2.47374 126.685 0.468868C126.732 0.361064 126.711 0.240505 126.632 0.146734C126.552 0.0536135 126.421 0.00257127 126.284 2.17421e-05C121.756 0.0465822 117.02 2.50945 114.461 6.13454C109.685 8.51066 107.073 13.497 108.249 18.0355C108.935 20.6879 110.88 23.0302 113.478 24.6262C112.459 24.2868 111.402 23.8932 110.29 23.4327C90.4564 13.8299 77.9035 10.2529 68.1908 10.1214C55.3471 9.94743 47.4696 13.4685 29.2758 21.3972C27.7892 22.0829 26.2521 22.7929 24.7093 23.4327C23.598 23.8932 22.5414 24.2868 21.5223 24.6262C24.1194 23.0295 26.0643 20.6879 26.7513 18.0355C27.9262 13.497 25.3149 8.51066 20.5391 6.13454C17.9802 2.50945 13.2435 0.0465876 8.71616 2.17421e-05C8.58247 -0.00125302 8.4489 0.0535954 8.36855 0.146734C8.2886 0.240506 8.26849 0.361066 8.31486 0.468868C9.17295 2.4731 10.8349 4.20049 12.9948 5.3321C14.814 6.2851 16.9361 6.78838 19.0748 6.78838C19.4227 6.78838 19.7712 6.76926 20.1189 6.74246C24.5872 8.96995 27.03 13.6386 25.9297 17.8869C24.821 22.1678 20.2273 25.6009 15.0075 26.0499C14.9923 26.0512 14.9813 26.0575 14.9672 26.06C14.6286 26.09 14.2909 26.1162 13.9571 26.1302C9.8865 26.3011 6.17096 25.2219 3.75542 23.1749C1.91917 21.6185 0.978338 19.5026 1.07122 17.5054C1.07328 17.4971 1.07336 17.4887 1.07552 17.4811C1.08852 17.4333 1.08855 17.3861 1.07989 17.3408C1.14771 16.4395 1.42655 15.5662 1.93532 14.7835C3.10275 12.9872 5.42932 11.6636 8.15927 11.2426C10.6727 10.8548 13.9966 11.3428 15.7513 13.3068C16.9107 14.6043 17.2033 16.4165 16.4966 17.9232C15.7901 19.4299 14.102 20.5953 12.1964 20.8925C10.3823 21.1745 8.54984 20.5934 7.73741 19.4809C7.29943 18.8806 7.22832 18.0616 7.55213 17.3446C7.82655 16.7367 8.32873 16.3106 8.9665 16.1441C9.18833 16.0867 9.31201 15.8896 9.24237 15.7046C9.17368 15.5203 8.93846 15.4176 8.71603 15.475C7.83844 15.7034 7.12787 16.2947 6.7654 17.0965C6.35219 18.0119 6.44925 19.065 7.01925 19.8458C8.00933 21.2019 10.2003 21.9151 12.3504 21.5821C14.5348 21.2421 16.4695 19.9064 17.2796 18.1783C18.0894 16.4516 17.7541 14.3746 16.4254 12.8877C14.6924 10.9479 11.3877 10.0326 8.006 10.5524C5.02908 11.0117 2.48344 12.4686 1.19626 14.4493C0.607155 15.3551 0.295457 16.3693 0.237216 17.4122C-0.783914 21.3722 1.55903 25.8935 5.96763 28.4374C9.81782 30.6592 15.1319 31.4661 20.5491 30.6515C26.0845 29.8191 31.0538 27.4749 34.3107 25.7838C34.6726 25.5963 35.0345 25.4056 35.3966 25.2142C37.9003 23.8944 40.4891 22.5293 43.3644 22.0254C46.4393 21.487 50.3613 22.2174 51.9038 24.658C52.7117 25.9363 52.727 27.5316 51.9428 28.8208C51.1601 30.1099 49.6084 31.0425 47.8947 31.2537C46.505 31.4227 45.1337 31.1031 44.227 30.3957C43.264 29.6437 42.9069 28.4259 43.3773 27.4991C43.8646 26.5384 45.2997 25.9847 46.3896 26.3375C46.6028 26.4064 46.8498 26.3184 46.9338 26.1372C47.0179 25.9567 46.9102 25.7532 46.6938 25.683C45.1804 25.1925 43.2689 25.9133 42.603 27.2248C41.99 28.4323 42.4217 29.9473 43.6525 30.9079C44.5544 31.6122 45.824 32 47.1639 32C47.446 32 47.7319 31.9828 48.017 31.9477C49.9967 31.704 51.7884 30.6273 52.6926 29.1384C53.5984 27.6496 53.5808 25.8074 52.6475 24.3301C50.9109 21.5827 46.5761 20.7452 43.1912 21.3384C40.1681 21.8685 37.5143 23.268 34.9479 24.621C34.587 24.811 34.2269 25.0011 33.8665 25.1887C28.7843 27.827 24.505 29.3438 20.3998 29.9607C15.203 30.7434 10.1152 29.9773 6.44596 27.8601C3.56819 26.1997 1.62689 23.6501 1.03089 21.0099C1.52384 21.9776 2.2362 22.8878 3.15588 23.6667C5.5648 25.7085 9.16186 26.8491 13.128 26.8491C13.4163 26.8491 13.7072 26.8428 13.9989 26.8306C17.337 26.6922 20.8594 25.8119 25.0834 24.0609C26.6426 23.4141 28.1884 22.7009 29.683 22.0107C31.4802 21.1815 33.339 20.3235 35.2215 19.5823C44.5035 16.9643 55.1595 6.99556 67.633 17.1188L67.6338 17.1194C67.7393 17.1771 67.8549 17.1194 67.9519 17.1194C67.9519 17.1194 67.954 17.1194 67.9562 17.1188C77.3058 6.27735 92.4593 16.8131 99.4201 19.4627C101.304 20.2039 103.52 21.1815 105.318 22.0114C106.812 22.7009 108.358 23.4141 109.917 24.0609C114.142 25.8119 117.663 26.6922 121.002 26.8306C121.293 26.8427 121.584 26.8491 121.873 26.8491C125.838 26.8491 129.436 25.7085 131.844 23.6667C132.764 22.8878 133.476 21.9776 133.969 21.0099C133.374 23.6501 131.432 26.1997 128.554 27.8601C124.886 29.9773 119.799 30.7421 114.601 29.9607C110.496 29.3438 106.216 27.827 101.134 25.1887C100.773 25.0011 100.413 24.811 100.051 24.6203C97.4853 23.2674 94.8314 21.8685 91.8091 21.3384C88.4237 20.7458 84.0905 21.5821 82.3531 24.3307C81.4197 25.8074 81.4022 27.6496 82.3072 29.1384C83.2122 30.6273 85.0038 31.704 86.9828 31.9477C87.2687 31.9828 87.5538 32 87.8366 32C89.1758 32 90.4461 31.6122 91.3473 30.9079C92.5787 29.9466 93.0106 28.4323 92.3968 27.2248C91.7318 25.9139 89.8217 25.1931 88.3067 25.683C88.0905 25.7532 87.9826 25.9567 88.0667 26.1372C88.1507 26.3184 88.3953 26.4064 88.6109 26.3375C89.7001 25.9841 91.1348 26.5378 91.6233 27.4991C92.0934 28.4253 91.7364 29.6437 90.7733 30.3957C89.8676 31.1031 88.4963 31.4234 87.1051 31.2537C85.3921 31.0425 83.8405 30.1099 83.057 28.8208C82.2735 27.5316 82.2888 25.9363 83.0966 24.658C84.6391 22.2174 88.5604 21.4864 91.6355 22.0254C94.5103 22.5293 97.0991 23.8938 99.6017 25.2136C99.9648 25.4049 100.327 25.5956 100.689 25.7838C103.946 27.4749 108.916 29.8191 114.451 30.6515C119.869 31.4661 125.182 30.6591 129.032 28.4374C133.442 25.8942 135.784 21.3722 134.763 17.4123Z" fill="white"/>
</svg>
