<svg width="149" height="36" viewBox="0 0 149 36" fill="none" xmlns="http://www.w3.org/2000/svg">
<path id="path1165" d="M134.164 30.6703C136.174 31.7439 137.763 33.332 138.693 35.1849C134.416 34.9114 130.048 32.5698 127.461 29.1604C129.805 29.0779 132.166 29.6039 134.164 30.6703ZM10.3054 35.1849C11.236 33.332 12.8245 31.7439 14.8358 30.6703C16.8335 29.6039 19.1922 29.0743 21.5375 29.1604C18.9501 32.5698 14.5835 34.9114 10.3054 35.1849ZM0.261917 16.4112C0.326007 17.5845 0.67026 18.7255 1.31984 19.7446C2.74053 21.9728 5.55066 23.6118 8.83577 24.1285C12.5689 24.7148 16.2151 23.6843 18.1285 21.5013C19.5947 19.8285 19.9651 17.4919 19.0708 15.5494C18.1782 13.606 16.0421 12.1026 13.6301 11.7201C11.2612 11.3455 8.83911 12.1478 7.74661 13.6735C7.11724 14.5519 7.01011 15.7367 7.46651 16.7664C7.8664 17.6685 8.65107 18.3337 9.61957 18.5906C9.86423 18.6559 10.1249 18.5404 10.2008 18.3323C10.2776 18.1242 10.141 17.9024 9.89618 17.8378C9.19174 17.6505 8.63829 17.1712 8.33542 16.488C7.97687 15.6807 8.05537 14.76 8.53873 14.084C9.43553 12.8325 11.4594 12.1794 13.4605 12.4959C15.5645 12.8303 17.4273 14.1414 18.2068 15.8364C18.9864 17.5314 18.6633 19.5702 17.3844 21.0298C15.4474 23.2394 11.7801 23.7912 9.00449 23.352C5.99186 22.8784 3.42384 21.3893 2.1356 19.3685C1.57458 18.488 1.26578 17.5056 1.19153 16.4916C1.20349 16.4406 1.20107 16.3875 1.18672 16.3337C1.18502 16.3252 1.18429 16.3158 1.1819 16.3072C1.07979 14.0596 2.11833 11.6792 4.14474 9.92825C6.81064 7.62469 10.9167 6.41121 15.4048 6.60353C15.7735 6.6194 16.1455 6.64874 16.5193 6.68245C16.536 6.6853 16.548 6.69241 16.5641 6.69384C22.3253 7.19904 27.3955 11.0613 28.6188 15.8772C29.8328 20.6565 27.1373 25.9081 22.2054 28.4147C21.8216 28.3839 21.4368 28.3624 21.0529 28.3624C18.6916 28.3624 16.3506 28.9293 14.3427 30.0014C11.9586 31.2744 10.1236 33.217 9.17703 35.4725C9.12562 35.5938 9.14838 35.7294 9.23615 35.8349C9.32463 35.9397 9.46909 35.9971 9.62001 36C14.6177 35.9476 19.845 33.1769 22.6694 29.0986C27.9405 26.4255 30.8232 20.8159 29.5256 15.71C28.7681 12.7262 26.6211 10.0911 23.7544 8.29558C24.8789 8.67735 26.0457 9.12011 27.2723 9.63823C49.1629 20.4414 63.0176 24.4655 73.7376 24.6135C87.9132 24.8091 96.6076 20.848 116.688 11.9282C118.329 11.1567 120.025 10.358 121.728 9.63823C122.955 9.12011 124.121 8.67735 125.246 8.29558C122.379 10.0918 120.233 12.7262 119.474 15.71C118.178 20.8159 121.06 26.4255 126.331 29.0986C129.155 33.1769 134.383 35.9476 139.38 36C139.527 36.0014 139.675 35.9397 139.764 35.8349C139.852 35.7294 139.874 35.5938 139.823 35.4725C138.876 33.2178 137.041 31.2744 134.658 30.0014C132.65 28.9293 130.308 28.3631 127.947 28.3631C127.563 28.3631 127.179 28.3846 126.795 28.4147C121.863 25.9088 119.167 20.6566 120.381 15.8772C121.605 11.0613 126.675 7.19904 132.436 6.69384C132.453 6.6924 132.465 6.6853 132.481 6.68245C132.854 6.64872 133.227 6.61931 133.596 6.60353C138.088 6.41122 142.189 7.62541 144.855 9.92825C146.882 11.6792 147.92 14.0596 147.818 16.3064C147.815 16.3158 147.815 16.3252 147.813 16.3337C147.799 16.3876 147.799 16.4407 147.808 16.4916C147.733 17.5056 147.426 18.488 146.864 19.3685C145.575 21.3894 143.008 22.8784 139.995 23.352C137.221 23.7884 133.552 23.2394 131.615 21.0298C130.336 19.5702 130.013 17.5314 130.793 15.8364C131.572 14.1414 133.436 12.8303 135.539 12.4959C137.541 12.1787 139.564 12.8325 140.46 14.084C140.944 14.7593 141.022 15.6807 140.665 16.4873C140.362 17.1712 139.808 17.6506 139.104 17.8379C138.859 17.9024 138.722 18.1242 138.799 18.3323C138.875 18.5397 139.135 18.6552 139.38 18.5906C140.349 18.3337 141.133 17.6685 141.533 16.7665C141.989 15.7367 141.882 14.5519 141.253 13.6735C140.16 12.1479 137.742 11.3456 135.369 11.7202C132.958 12.1027 130.823 13.6053 129.928 15.5494C129.035 17.492 129.405 19.8285 130.871 21.5013C132.784 23.6836 136.431 24.7134 140.164 24.1285C143.449 23.6118 146.259 21.9728 147.68 19.7446C148.33 18.7255 148.674 17.5845 148.738 16.4112C149.865 11.9563 147.279 6.86977 142.414 4.00791C138.164 1.50844 132.299 0.600653 126.32 1.51705C120.21 2.45354 114.726 5.09079 111.131 6.9932C110.732 7.20418 110.332 7.41875 109.933 7.63404C107.169 9.11879 104.312 10.6545 101.139 11.2214C97.7448 11.8271 93.4161 11.0054 91.7136 8.25981C90.8219 6.8217 90.805 5.02693 91.6706 3.57662C92.5344 2.12631 94.247 1.07715 96.1385 0.839615C97.6722 0.649438 99.1857 1.00899 100.187 1.80482C101.249 2.65089 101.643 4.02083 101.124 5.06353C100.587 6.14426 99.0026 6.76716 97.7996 6.37032C97.5643 6.29281 97.2917 6.39183 97.199 6.59564C97.1062 6.79874 97.225 7.02765 97.4639 7.10658C99.1343 7.65843 101.244 6.84753 101.979 5.3721C102.655 4.01365 102.179 2.3093 100.821 1.22857C99.8252 0.436317 98.4239 0 96.945 0C96.6337 0 96.3181 0.0193249 96.0035 0.0588493C93.8184 0.33298 91.841 1.54432 90.843 3.21925C89.8433 4.89417 89.8627 6.96665 90.8927 8.62866C92.8095 11.7194 97.5937 12.6617 101.33 11.9943C104.666 11.3979 107.595 9.8235 110.428 8.30143C110.826 8.08758 111.224 7.87373 111.621 7.66275C117.231 4.69467 121.954 2.98818 126.485 2.29424C132.22 1.41373 137.836 2.27552 141.886 4.65736C145.062 6.52532 147.204 9.39365 147.862 12.3639C147.318 11.2752 146.532 10.2512 145.517 9.37499C142.858 7.07789 138.888 5.79478 134.511 5.79478C134.192 5.79478 133.871 5.8019 133.549 5.81559C129.865 5.97131 125.977 6.96163 121.315 8.9315C119.594 9.65916 117.888 10.4615 116.239 11.2379C114.255 12.1708 112.204 13.136 110.126 13.9699C99.8813 16.9151 88.1203 28.13 74.3532 16.7413L74.3524 16.7406C74.2359 16.6758 74.1083 16.7406 74.0013 16.7406C74.0013 16.7406 73.9989 16.7406 73.9965 16.7413C63.6773 28.938 46.9523 17.0853 39.2697 14.1045C37.1909 13.2706 34.7446 12.1708 32.7604 11.2372C31.1111 10.4615 29.4052 9.65916 27.6842 8.9315C23.0214 6.96163 19.1348 5.97132 15.4498 5.81559C15.1284 5.80196 14.8068 5.79478 14.4888 5.79478C10.112 5.79478 6.14111 7.07789 3.48282 9.37499C2.46793 10.2512 1.68156 11.2752 1.13739 12.3639C1.7946 9.39365 3.93831 6.52532 7.11461 4.65736C11.1632 2.27558 16.7769 1.41516 22.5144 2.29424C27.0456 2.98818 31.7691 4.69467 37.3784 7.66275C37.7766 7.87373 38.1739 8.08757 38.573 8.30214C41.4051 9.82421 44.3342 11.3979 47.67 11.9943C51.4064 12.661 56.189 11.7202 58.1066 8.62795C59.1367 6.96666 59.1561 4.89417 58.1573 3.21925C57.1584 1.54432 55.181 0.33298 52.9968 0.0588493C52.6813 0.0193859 52.3666 0 52.0545 0C50.5764 0 49.1743 0.436317 48.1796 1.22857C46.8205 2.31002 46.3439 4.01365 47.0213 5.3721C47.7553 6.84681 49.8635 7.65771 51.5356 7.10658C51.7742 7.02766 51.8933 6.79873 51.8005 6.59564C51.7077 6.39184 51.4378 6.29281 51.1999 6.37032C49.9977 6.76788 48.4141 6.14498 47.875 5.06353C47.3562 4.02154 47.7502 2.65089 48.8131 1.80482C49.8128 1.00898 51.3264 0.648728 52.8618 0.839615C54.7524 1.07715 56.4649 2.12631 57.3297 3.57662C58.1944 5.02693 58.1776 6.8217 57.286 8.25981C55.5835 11.0054 51.2556 11.8278 47.8616 11.2214C44.6887 10.6545 41.8313 9.1195 39.0693 7.63475C38.6685 7.41946 38.2686 7.2049 37.8687 6.9932C34.274 5.09079 28.7887 2.45354 22.6799 1.51705C16.7002 0.600653 10.8361 1.50851 6.58667 4.00791C1.71971 6.86905 -0.86518 11.9562 0.261917 16.4112Z" fill="white"/>
</svg>
