<svg width="101" height="13" viewBox="0 0 101 13" fill="none" xmlns="http://www.w3.org/2000/svg">
<g id="Group 20">
<path id="path3570" d="M51.174 12.4343C50.9386 12.728 50.4942 12.7351 50.2497 12.4491L46.1042 7.60027C44.8423 5.64396 44.649 3.78078 45.5914 1.99816C45.6121 1.95899 45.6385 1.92114 45.6683 1.88831C47.2231 0.173184 49.1393 1.17742 50.4309 2.90416C50.7086 3.27539 51.3001 3.28078 51.5809 2.91189C52.9773 1.07726 54.7808 0.406048 56.3441 1.85395C56.3683 1.87637 56.3915 1.9024 56.411 1.92898C57.8742 3.9204 56.2802 5.66972 55.2098 7.39748L51.174 12.4343Z" fill="#5E887C" stroke="white" stroke-width="0.6" stroke-miterlimit="8.7" stroke-linecap="round" stroke-linejoin="bevel"/>
<line id="Line 3" x1="1" y1="6.5" x2="44.5484" y2="6.5" stroke="#1A1C1F" stroke-opacity="0.75"/>
<line id="Line 5" x1="0.5" y1="10.0109" x2="0.5" y2="3.99998" stroke="#1A1C1F" stroke-opacity="0.75"/>
<line id="Line 6" x1="100.5" y1="9.68604" x2="100.5" y2="3.67509" stroke="#1A1C1F" stroke-opacity="0.75"/>
<line id="Line 4" x1="57.4516" y1="6.51471" x2="101" y2="6.5147" stroke="#1A1C1F" stroke-opacity="0.75"/>
</g>
</svg>
