<svg width="1489" height="137" viewBox="0 0 1489 137" fill="none" xmlns="http://www.w3.org/2000/svg">
<g id="wave-mempelai-for-Desktop">
<g id="Group 1558">
<path id="Vector" fill-rule="evenodd" clip-rule="evenodd" d="M0 36.4376V17.4237C44.7245 37.2826 165.808 37.8699 248.712 49.565C330.525 60.7033 413.429 30.6301 496.333 18.935C579.237 7.79675 662.141 15.0366 745.045 34.5285C826.859 53.4634 909.763 83.5366 992.667 83.5366C1075.57 83.5366 1158.47 53.4634 1241.38 34.5285C1323.19 15.0366 1406.1 7.79675 1447.55 3.89837L1489 0V137H1447.55C1406.1 137 1323.19 137 1241.38 137C1158.47 137 1075.57 137 992.667 137C909.763 137 826.859 137 745.045 137C662.141 137 579.237 137 496.333 137C413.429 137 330.525 137 248.712 137C165.808 137 82.904 137 41.452 137H0V36.4376Z" fill="#ABC1B9" fill-opacity="0.42"/>
<path id="Vector_2" fill-rule="evenodd" clip-rule="evenodd" d="M0 60.7113V46.2869C44.7245 61.3524 165.808 61.7979 248.712 70.67C330.525 79.1197 413.429 56.3056 496.333 47.4334C579.237 38.9837 662.141 44.476 745.045 59.263C826.859 73.6274 909.763 96.4416 992.667 96.4416C1075.57 96.4416 1158.47 73.6274 1241.38 59.263C1323.19 44.476 1406.1 38.9837 1447.55 36.0264L1489 33.069V137H1447.55C1406.1 137 1323.19 137 1241.38 137C1158.47 137 1075.57 137 992.667 137C909.763 137 826.859 137 745.045 137C662.141 137 579.237 137 496.333 137C413.429 137 330.525 137 248.712 137C165.808 137 82.904 137 41.452 137H0V60.7113Z" fill="url(#paint0_linear_128_5)"/>
</g>
</g>
<defs>
<linearGradient id="paint0_linear_128_5" x1="744.5" y1="33.069" x2="744.5" y2="137" gradientUnits="userSpaceOnUse">
<stop offset="0.204055" stop-color="#5E887C" stop-opacity="0.4"/>
<stop offset="0.704084" stop-color="#D6E1DE" stop-opacity="0.847607"/>
<stop offset="0.865552" stop-color="white"/>
</linearGradient>
</defs>
</svg>
