<svg width="794" height="118" viewBox="0 0 794 118" fill="none" xmlns="http://www.w3.org/2000/svg">
<g id="wave-mempelai-for-tablets">
<path id="Vector" fill-rule="evenodd" clip-rule="evenodd" d="M0 31.3842V15.0072C23.8221 32.112 88.3162 32.6179 132.474 42.691C176.051 52.2845 220.21 26.3821 264.368 16.3089C308.526 6.71545 352.684 12.9512 396.842 29.7398C440.419 46.0488 484.577 71.9512 528.735 71.9512C572.893 71.9512 617.052 46.0488 661.21 29.7398C704.787 12.9512 748.945 6.71544 771.024 3.35772L793.103 0V118H771.024C748.945 118 704.787 118 661.21 118C617.052 118 572.893 118 528.735 118C484.577 118 440.419 118 396.842 118C352.684 118 308.526 118 264.368 118C220.21 118 176.051 118 132.474 118C88.3162 118 44.1581 118 22.0791 118H0V31.3842Z" fill="#ABC1B9" fill-opacity="0.42"/>
<path id="Vector_2" fill-rule="evenodd" clip-rule="evenodd" d="M0 52.2915V39.8676C23.8221 52.8437 88.3162 53.2274 132.474 60.8691C176.051 68.1469 220.21 48.4968 264.368 40.8551C308.526 33.5773 352.684 38.3079 396.842 51.044C440.419 63.4163 484.577 83.0665 528.735 83.0665C572.893 83.0665 617.052 63.4163 661.21 51.044C704.787 38.3079 748.945 33.5773 771.024 31.03L793.103 28.4828V118H771.024C748.945 118 704.787 118 661.21 118C617.052 118 572.893 118 528.735 118C484.577 118 440.419 118 396.842 118C352.684 118 308.526 118 264.368 118C220.21 118 176.051 118 132.474 118C88.3162 118 44.1581 118 22.0791 118H0V52.2915Z" fill="url(#paint0_linear_119_2)"/>
</g>
<defs>
<linearGradient id="paint0_linear_119_2" x1="396.552" y1="28.4828" x2="396.552" y2="118" gradientUnits="userSpaceOnUse">
<stop offset="0.204055" stop-color="#5E887C" stop-opacity="0.4"/>
<stop offset="0.755208" stop-color="#D6E1DE" stop-opacity="0.847607"/>
<stop offset="0.865552" stop-color="white"/>
</linearGradient>
</defs>
</svg>
