<svg width="300" height="57" viewBox="0 0 300 57" fill="none" xmlns="http://www.w3.org/2000/svg">
<g id="wave-mempelai-for-Ap-mini">
<path id="Vector" fill-rule="evenodd" clip-rule="evenodd" d="M0 15.1602V7.24926C9.01099 15.5118 33.4066 15.7561 50.1099 20.622C66.5934 25.2561 83.2967 12.7439 100 7.87805C116.703 3.2439 133.407 6.2561 150.11 14.3659C166.593 22.2439 183.297 25.3909 200 25.3909C216.703 25.3909 233.407 22.2439 250.11 14.3659C266.593 6.2561 283.297 3.2439 291.648 1.62195L300 0V57H291.648C283.297 57 266.593 57 250.11 57C233.407 57 216.703 57 200 57C183.297 57 166.593 57 150.11 57C133.407 57 116.703 57 100 57C83.2967 57 66.5934 57 50.1099 57C33.4066 57 16.7033 57 8.35165 57H0V15.1602Z" fill="#C9D2D3" fill-opacity="0.42"/>
<path id="Vector_2" fill-rule="evenodd" clip-rule="evenodd" d="M0 25.4767V19.5165C9.01099 25.7416 33.4066 25.9257 50.1099 29.5918C66.5934 33.0833 83.2967 23.6563 100 19.9902C116.703 16.4987 133.407 18.7682 150.11 24.8783C166.593 30.8138 183.297 33.1848 200 33.1848C216.703 33.1848 233.407 30.8138 250.11 24.8783C266.593 18.7682 283.297 16.4987 291.648 15.2767L300 14.0547V56.9999H291.648C283.297 56.9999 266.593 56.9999 250.11 56.9999C233.407 56.9999 216.703 56.9999 200 56.9999C183.297 56.9999 166.593 56.9999 150.11 56.9999C133.407 56.9999 116.703 56.9999 100 56.9999C83.2967 56.9999 66.5934 56.9999 50.1099 56.9999C33.4066 56.9999 16.7033 56.9999 8.35165 56.9999H0V25.4767Z" fill="url(#paint0_linear_171_2)"/>
</g>
<defs>
<linearGradient id="paint0_linear_171_2" x1="150" y1="14.0547" x2="150" y2="56.9999" gradientUnits="userSpaceOnUse">
<stop offset="0.204055" stop-color="#5E887C" stop-opacity="0.4"/>
<stop offset="0.625" stop-color="#D6E1DE" stop-opacity="0.847607"/>
<stop offset="0.776042" stop-color="white"/>
</linearGradient>
</defs>
</svg>
