<svg width="13" height="19" viewBox="0 0 13 19" fill="none" xmlns="http://www.w3.org/2000/svg">
<g id="in in-padlock-small" clip-path="url(#clip0_462_522)">
<g id="Group 8">
<g id="g1006">
<path id="rect953" d="M10.5065 7.5C10.9749 7.5 11.5 7.98844 11.5 8.78705V16.2129C11.5 17.0116 10.9749 17.5 10.5065 17.5H1.49346C1.02508 17.5 0.5 17.0116 0.5 16.2129V8.78705C0.5 7.98844 1.02508 7.5 1.49346 7.5H6H10.5065Z" stroke="black" stroke-miterlimit="0" stroke-linecap="round" stroke-linejoin="bevel"/>
</g>
</g>
<path id="path949" d="M9.70238 7.50401C10.1752 6.94435 10.6488 5.81638 10.7434 5.11558C10.8672 4.19873 10.6237 3.24142 10.0522 2.47891C9.48068 1.71641 8.58289 1.15868 7.5904 0.971239C6.47473 0.760539 5.26093 1.03042 4.37653 1.68583C3.49214 2.34123 2.63571 4.09211 2.63462 5.13041" stroke="black" stroke-miterlimit="0" stroke-linecap="round"/>
<path id="path3570" d="M6.36015 14.4343C6.12484 14.728 5.68041 14.7351 5.43587 14.4491L4.36808 13.2001C3.95672 12.5624 3.88602 11.9544 4.17685 11.3722C4.19665 11.3325 4.22222 11.2955 4.25314 11.2638C4.58691 10.9212 4.96717 10.9427 5.3084 11.1552C5.70194 11.4002 6.30201 11.3999 6.7011 11.164C7.04605 10.9601 7.41751 10.964 7.75676 11.2625C7.78153 11.2842 7.80411 11.3096 7.82295 11.3366C8.27701 11.9893 7.75524 12.5644 7.40328 13.1325L6.36015 14.4343Z" stroke="black" stroke-miterlimit="8.7" stroke-linecap="round" stroke-linejoin="bevel"/>
</g>
<defs>
<clipPath id="clip0_462_522">
<rect width="13" height="19" fill="white"/>
</clipPath>
</defs>
</svg>
