<svg width="244" height="39" viewBox="0 0 244 39" fill="none" xmlns="http://www.w3.org/2000/svg">
<path id="bissmilah" d="M54.6027 3.95274H54.7829C56.3426 6.32438 57.1256 7.68708 57.1256 8.03723L56.7651 8.16899L56.2245 8.03723H55.8641C55.8641 8.82778 56.644 11.4629 58.2068 15.9427C59.1668 18.7528 59.6484 20.8177 59.6484 22.1353C59.6484 24.8568 57.4238 26.57 52.9808 27.2739C51.6572 27.624 50.9985 28.1507 50.9985 28.8553C50.1565 30.0839 49.7371 31.4015 49.7371 32.808C49.7371 34.3005 50.6381 35.0476 52.4402 35.0476H52.9808C55.9826 35.0476 60.1269 33.1582 65.4151 29.3823C70.9393 25.9566 74.3042 24.0666 75.5067 23.7167V23.5853C75.1462 23.1446 73.7636 22.4426 71.3619 21.4772C70.7596 20.598 70.4609 19.8506 70.4609 19.2373C70.4609 17.9197 72.1417 17.1723 75.5067 16.9974H75.6869L76.9483 17.1292H77.1285C80.9719 17.1292 85.8375 17.6108 91.7253 18.5785V18.9738C91.7253 20.3777 89.9232 21.3886 86.3191 22.0042C82.9541 22.97 80.6705 23.8037 79.4712 24.5076L80.5524 26.2208V27.8016L80.192 27.9333C79.1108 27.9333 78.0295 27.4926 76.9483 26.6157H76.5879C74.6646 29.3375 73.7046 31.2704 73.7046 32.4131C73.7046 32.8518 74.0033 33.2036 74.6056 33.4675H75.6869C77.1285 33.4675 79.4095 32.1499 82.5347 29.5147C84.576 28.3721 88.059 27.2745 92.9867 26.2208C93.826 25.8687 94.8478 25.253 96.0502 24.3759C95.929 23.7606 95.8078 23.2332 95.6898 22.7948C93.0457 14.2737 91.5451 9.0488 91.1846 7.11558V6.58789C91.3031 5.53383 91.5451 5.0068 91.9055 5.0068C93.4652 6.76478 94.2482 8.08236 94.2482 8.95954L93.8877 9.09129L93.3471 8.95954V9.09129L96.9513 20.686L97.1315 22.5306V22.9262C97.0103 25.8245 95.087 27.6692 91.3648 28.4597C86.6795 29.3369 83.0136 30.918 80.3722 33.203C78.5702 34.432 77.1875 35.0476 76.2275 35.0476H75.6869C74.6056 35.0476 73.7046 34.1256 72.9838 32.281C72.9838 30.7862 74.1835 28.6781 76.5879 25.9566V25.5617C75.1462 25.648 70.2807 28.3718 61.9911 33.7303C58.1446 36.0137 55.0221 37.156 52.6204 37.156C50.0975 37.156 48.836 36.0134 48.836 33.7303V32.9395C48.836 31.7085 49.3767 30.1271 50.4579 28.1965H50.0975C48.2954 28.1965 45.0517 29.7773 40.3663 32.9395C39.2851 33.4668 38.4431 33.7297 37.8434 33.7297C35.9202 33.4665 34.9601 32.7191 34.9601 31.4901L34.7799 30.6996C34.7799 28.7664 35.8612 26.6579 38.0236 24.3752L38.384 23.1891C36.8212 22.8373 35.74 22.3102 35.1403 21.6083L33.8789 19.7637L33.6987 19.5002H33.5185C32.9161 19.7637 32.3751 20.4659 31.8966 21.6083L30.0945 23.1891C30.9339 23.1891 31.6547 24.1117 32.257 25.956V26.483C32.257 27.5374 31.415 28.0644 29.7341 28.0644C27.3297 28.0644 25.7074 27.1853 24.8685 25.4293V25.1654C24.5081 25.1654 23.9053 26.0426 23.0665 27.8006C19.5804 30.3475 15.2554 32.367 10.0916 33.8614C5.64543 35.0025 2.28097 35.5746 0 35.5746V35.1794C0 35.0025 3.78434 33.8166 11.353 31.6219C15.796 30.1271 19.7016 28.1965 23.0665 25.8242C24.3869 23.4529 25.229 22.2216 25.5894 22.1353C28.8331 22.1353 31.356 20.7288 33.1581 17.9191L34.2393 17.5238C35.439 19.6319 36.3401 20.686 36.9424 20.686H37.3028V20.5542L36.7622 18.5779C36.7622 16.0293 38.5643 14.7569 42.1684 14.7569C43.0073 14.7569 45.9527 15.2385 50.9985 16.2062C53.5214 16.7333 54.7829 17.0834 54.7829 17.2603C54.7829 18.401 53.4592 19.148 50.8183 19.5002C46.4934 21.5197 42.6473 22.7941 39.2851 23.3211C39.2851 24.198 38.5643 25.2975 37.1226 26.6151C36.0414 28.1076 35.5007 29.2502 35.5007 30.0408V30.6996C35.5007 31.5764 35.9796 32.0172 36.9424 32.0172H37.3028C38.7445 32.0172 40.966 30.9176 43.9705 28.7232C44.9305 27.6692 49.0162 26.3061 56.2245 24.6387C57.6662 23.7599 58.387 23.2325 58.387 23.0576C57.9054 20.159 56.7651 16.1176 54.9631 10.9359L53.7016 5.66559C53.7016 4.87504 53.9999 4.30486 54.6027 3.95274ZM18.9217 33.4668H19.2821V33.5983C18.9217 33.9484 16.6975 34.7386 12.6145 35.9699H12.4343V35.7061C16.638 34.2116 18.8005 33.4668 18.9217 33.4668ZM22.5259 16.7332C23.1255 16.7332 23.6071 16.9082 23.9675 17.2603V17.6556H23.7873V17.9191C22.5853 17.5673 21.9852 17.3034 21.9852 17.1285V16.9968L22.5259 16.7332ZM23.4269 32.0172C24.0265 32.0172 24.7473 32.3242 25.5894 32.9395C25.5894 33.4668 25.1082 33.9935 24.1477 34.5206L22.1654 33.73V33.5983C22.1654 33.1579 22.5849 32.6308 23.4269 32.0172ZM25.229 16.2062H25.5894L25.9498 16.4697V16.6015C25.9498 16.7764 25.6484 16.865 25.0487 16.865V17.6556L24.5081 18.0508L24.3279 17.9191C24.4464 16.7764 24.7473 16.2062 25.229 16.2062ZM26.13 24.3752V24.6387C26.8508 25.6045 28.1713 26.0881 30.0945 26.0881H30.2747V25.9563C30.2747 25.4293 28.8921 24.9026 26.13 24.3752ZM27.7518 31.4905H27.9321C28.2925 31.4905 29.0133 31.7536 30.0945 32.2807V32.5442C29.8526 33.51 29.4922 33.9935 29.0133 33.9935C28.411 33.9935 27.6897 33.6417 26.8508 32.9395C27.09 31.972 27.3914 31.4905 27.7518 31.4905ZM28.6529 11.7264H28.8331C29.672 11.7264 30.0945 11.99 30.0945 12.517C29.6134 12.9558 29.0723 13.1758 28.4727 13.1758H27.7518C27.8699 12.2084 28.1713 11.7264 28.6529 11.7264ZM32.257 34.6523H33.1581L34.2393 35.4429C34.2393 35.793 33.2761 36.0127 31.356 36.1017L32.6174 39H32.257L31.1758 36.3648V35.9699C31.5362 35.6181 32.0146 35.4429 32.6174 35.4429C32.6174 35.2657 32.4372 35.179 32.0768 35.179V34.9158L32.257 34.6523ZM50.0975 5.40207V5.66559C49.7371 6.10599 46.6736 7.2032 40.9069 8.95954C37.7813 10.0136 35.9792 10.761 35.5007 11.1994L35.1403 10.9359C35.2588 10.4975 40.2451 8.65287 50.0975 5.40207ZM37.6632 17.9191C38.2629 20.1138 38.8035 21.213 39.2851 21.213C42.0472 21.213 45.4711 20.2024 49.5569 18.1829C46.7916 17.3924 43.9083 16.8653 40.9069 16.6018C38.8629 16.865 37.7813 17.3034 37.6632 17.9191ZM41.4476 35.0473H41.808C42.5288 35.1342 42.8892 35.2657 42.8892 35.4429V35.5746L41.808 36.6287V36.7604H42.1684L44.6913 36.6287V36.7604C44.6913 37.1106 43.8493 37.3303 42.1684 37.4192H41.6278L41.4476 37.1557V36.3652L42.1684 35.7064V35.5746H41.808H41.2674L40.9069 35.4432L41.4476 35.0473ZM44.5111 23.1891H44.6913C45.8906 23.8027 46.4934 24.4615 46.4934 25.1654L46.3131 25.4293H46.1329C45.6513 24.725 45.0517 24.1117 44.3309 23.5847L44.5111 23.1891ZM50.0975 9.88184L50.8183 11.4629C50.8183 11.9014 50.3372 12.1217 49.3767 12.1217L48.4756 12.517C47.8733 12.517 47.5746 11.99 47.5746 10.9359V10.8041H47.935L48.4756 11.7264H49.1965L48.6558 10.2771L48.836 10.1454C49.3149 10.1454 49.5569 10.4543 49.5569 11.0677L50.0975 11.4629L49.5569 10.0136L49.7371 9.88184H50.0975ZM57.6662 0C57.7847 0 58.2068 0.483881 58.9276 1.44934H59.288L61.0901 0.263516L61.8109 0C62.6498 0.352123 63.0724 0.704246 63.0724 1.05406C62.3516 1.6697 61.3888 1.97637 60.1891 1.97637C60.1891 2.23988 59.7665 2.37164 58.9276 2.37164L58.387 1.97637C57.7847 2.23988 57.1846 2.37164 56.5849 2.37164H56.2245L55.8641 2.10813V1.97637C57.0638 1.80146 57.6662 1.62622 57.6662 1.44934L57.486 0.263516L57.6662 0ZM58.387 27.0104C59.8287 27.4488 60.5495 27.7126 60.5495 27.8006V28.4594C60.3071 29.1616 60.0089 29.5138 59.6484 29.5138H59.1078C58.0266 29.073 57.486 28.7232 57.486 28.4594L58.387 27.0104ZM60.5495 1.44934H60.7297C61.4505 1.36304 61.8109 1.23128 61.8109 1.05406V0.922305H61.2703L60.5495 1.44934ZM62.712 3.68922H62.8922C64.2126 5.71072 64.8745 6.89654 64.8745 7.24668L64.514 7.5102L63.9734 7.24668V7.5102C65.2939 11.6398 66.1949 15.107 66.6765 17.9191C67.0369 17.9191 67.3352 19.5868 67.5776 22.9262C67.5776 23.8917 67.3352 24.6387 66.8567 25.1658L66.1359 24.9026V23.9799L66.3161 23.7164H66.1359V22.7941C65.6547 19.9821 64.5731 15.3702 62.8922 8.95954C62.6498 7.81917 62.3516 7.24668 61.9911 7.24668H62.1713V6.98317L61.6307 5.13856C61.87 4.1731 62.2304 3.68922 62.712 3.68922ZM70.8213 32.9395V33.0709C66.1359 35.2657 63.3706 36.3648 62.5318 36.3648H62.1713V36.1017C63.3711 35.3974 66.2544 34.3437 70.8213 32.9395ZM68.2984 9.88184C69.0192 10.234 69.3796 11.1131 69.3796 12.517H69.0192L67.938 10.0136L68.1182 9.88184H68.2984ZM82.7149 3.29395C83.0753 3.29395 83.2555 3.38255 83.2555 3.55746L82.8951 3.95274H82.7149L82.5347 3.82098C80.0118 4.87504 77.0663 5.40207 73.7046 5.40207H71.3619C71.3619 5.66559 71.2407 5.79735 71.0015 5.79735C70.2807 5.09541 69.9202 4.56837 69.9202 4.21625C71.3619 4.65665 72.5022 4.87504 73.3442 4.87504C76.3455 4.87504 79.4712 4.34801 82.7149 3.29395ZM72.2629 19.5002C72.3814 19.7637 73.7046 20.5539 76.2275 21.8715C76.9483 22.3102 77.3087 22.662 77.3087 22.9259L86.1388 20.159C86.1388 19.7182 82.2923 19.4116 74.6056 19.2366H74.065L72.2629 19.5002ZM87.5805 6.98317L87.7607 7.11492V7.24668C86.1979 8.03723 82.5937 9.04814 76.9483 10.2771L73.3442 11.4629V12.1217H73.164C72.9216 12.1217 72.8036 11.99 72.8036 11.7264C72.8036 10.761 75.1462 9.88184 79.8316 9.09129C84.3958 7.68708 86.9782 6.98317 87.5805 6.98317ZM77.3087 13.044C77.9084 13.044 78.3278 13.2624 78.5702 13.7028V13.9663L78.0295 14.4934H76.9483C76.7064 14.4934 76.5879 14.3162 76.5879 13.9663C76.8271 13.4393 77.0668 13.1307 77.3087 13.044ZM87.5805 12.517C87.5805 12.9558 86.798 13.3507 85.2378 13.7028C84.517 13.4393 84.1566 12.9123 84.1566 12.1217V11.8582L84.3368 11.7264L85.0576 12.7805H85.5982L85.2378 11.7264V11.4629H85.5982C85.9586 11.5515 86.1388 11.9014 86.1388 12.517H86.6795L86.1388 11.4629L86.3191 11.1994C86.798 11.288 87.2201 11.7265 87.5805 12.517ZM85.5982 33.203C86.798 33.5531 87.4003 33.8166 87.4003 33.9935C87.4003 34.5206 86.5583 34.7841 84.8774 34.7841C85.7167 36.5398 86.1388 37.6824 86.1388 38.2095H85.5982L84.3368 35.179V34.7841C84.576 34.2567 84.8157 33.9935 85.0576 33.9935L84.8774 33.8618V33.73L85.5982 33.203ZM91.9055 31.4905C92.6263 31.6654 92.9867 31.8406 92.9867 32.0175V32.2807C92.1447 32.7191 91.7253 33.1144 91.7253 33.4668H92.9867L95.6898 32.9395C94.727 33.8166 93.4652 34.257 91.9055 34.257C91.4239 34.257 91.0635 34.0798 90.8242 33.7297L91.5451 32.2807H91.3648H90.644C90.8832 31.7533 91.3031 31.4905 91.9055 31.4905ZM95.5096 0.922305L96.5908 2.37164H97.1315L99.1137 1.31758H100.015C100.736 1.31758 101.096 1.44934 101.096 1.71285V1.97637C101.096 2.85552 100.015 3.29395 97.8523 3.29395L96.9513 3.4257L96.5908 3.55746C96.5908 3.20732 96.4697 3.03043 96.2304 3.03043C95.7488 3.38255 95.2082 3.55746 94.6086 3.55746H94.2482V3.29395L95.87 2.76692C95.3889 1.97637 95.1492 1.40619 95.1492 1.05406L95.3294 0.922305H95.5096ZM111.188 30.9631V31.0945C111.188 31.6219 108.363 32.4991 102.718 33.7297C101.394 34.257 100.736 34.6069 100.736 34.7841L99.6544 34.6523L97.6721 35.1794V34.9158C97.6721 34.4754 100.736 33.5096 106.863 32.0172C109.144 31.3132 110.585 30.9631 111.188 30.9631ZM98.5731 2.37164H98.9335H99.8346V1.97637H99.4742L98.5731 2.37164ZM100.195 4.87504C101.395 6.80826 101.997 8.08236 101.997 8.69602H101.276C103.078 15.8109 103.979 20.2453 103.979 22.0036C103.737 23.4961 103.377 24.2438 102.898 24.2438L102.718 23.9799L102.898 22.1353L100.195 11.4629L100.375 10.9359L99.1137 6.58789C99.4742 5.44753 99.8346 4.87504 100.195 4.87504ZM120.378 17.5238C121.82 18.8414 122.541 19.7182 122.541 20.159V20.2907C122.18 20.2907 122 20.377 122 20.5539C123.321 22.9259 123.982 24.4615 123.982 25.1654V25.561C123.74 27.6688 122.78 28.7232 121.099 28.7232H120.558C118.874 28.7232 117.613 28.019 116.774 26.6151V26.4833H116.414C116.414 27.8879 115.09 28.9416 112.449 29.6458H111.007C109.445 29.6458 108.363 28.5918 107.764 26.4833L108.124 23.9799C107.282 24.6819 106.561 26.4382 105.962 29.2502C105.241 30.0408 104.579 30.4792 103.979 30.5678C102.416 30.5678 101.276 28.8985 100.555 25.5614C100.673 24.3297 100.916 23.7164 101.276 23.7164C101.515 23.7164 101.637 24.8136 101.637 27.0104C102.357 28.1507 103.137 28.7232 103.979 28.7232C104.7 28.7232 105.601 27.0538 106.682 23.7164C107.522 22.1353 108.363 21.2562 109.205 21.0813C109.566 21.4314 109.746 21.7835 109.746 22.1353L109.205 25.4293C109.324 26.9218 110.225 27.6692 111.908 27.6692H112.269C114.071 27.6692 115.27 26.9649 115.873 25.5614L114.792 20.1593V19.7637C114.792 18.8849 114.972 18.4461 115.332 18.4461C116.414 19.5865 117.193 21.5197 117.675 24.2438C118.275 25.9115 119.356 26.7472 120.919 26.7472H121.099L123.081 26.2201C120.919 22.2674 119.838 19.8954 119.838 19.1049V18.1826C119.956 17.7422 120.136 17.5238 120.378 17.5238ZM237.152 13.044C237.991 13.4825 238.414 14.5365 238.414 16.2062C240.094 18.8414 240.936 20.6409 240.936 21.6083V22.2671C240.936 24.1977 239.914 25.2972 237.873 25.561C236.91 25.561 235.77 25.0771 234.449 24.1117H234.269C234.269 24.9885 233.306 25.6042 231.386 25.9563H231.025C230.062 25.9563 229.342 25.5614 228.863 24.7705C227.66 25.7363 225.737 26.2198 223.096 26.2198C221.894 26.2198 221.114 25.561 220.753 24.2434H220.573C215.527 25.3841 205.675 26.7468 191.019 28.3279C181.406 29.2051 173.058 29.6455 165.97 29.6455C156.357 29.6455 148.189 28.9413 141.462 27.5377H141.102C141.102 28.6781 140.44 29.2502 139.12 29.2502C137.678 28.9867 136.115 28.5029 134.435 27.8009C132.993 30.1729 129.448 32.4124 123.802 34.5206C119.717 36.2769 113.829 37.5059 106.142 38.2098H104.7V37.9463L120.919 33.5983C126.443 31.5764 130.228 29.7769 132.272 28.1965C134.553 25.1206 136.237 23.585 137.318 23.585H137.678L142.003 25.4296C147.77 26.9221 155.879 27.6695 166.331 27.6695H169.575C182.789 27.6695 199.067 26.0884 218.411 22.9265C219.971 22.4858 221.232 22.2677 222.195 22.2677V22.5309L222.015 22.9265V23.0576C222.015 23.7599 222.555 24.1548 223.637 24.2438H224.718C226.399 24.2438 228.08 23.585 229.764 22.2674C230.003 22.2674 230.184 22.6624 230.304 23.4532C230.783 23.6281 231.324 23.7167 231.926 23.7167H232.106C232.945 23.7167 233.908 23.0125 234.989 21.6089H235.169C235.288 21.6089 235.409 21.9156 235.53 22.5309C236.129 22.9697 237.031 23.3215 238.233 23.5853C239.314 23.4081 239.855 23.1897 239.855 22.9265L236.251 14.7575C236.612 13.6145 236.91 13.044 237.152 13.044ZM110.287 13.5711H110.647C111.486 13.5711 112.089 14.0095 112.449 14.8886V15.4157C112.449 15.502 111.967 15.6337 111.007 15.8109C110.165 16.9513 109.025 17.5238 107.583 17.5238V17.1285C108.783 16.7764 109.805 16.2497 110.647 15.5474V15.4157C110.045 15.4157 109.746 15.3271 109.746 15.1522C109.746 14.0981 109.926 13.5711 110.287 13.5711ZM122 6.32438L122.18 6.45614V6.58789C122.18 6.85141 119.297 7.90547 113.53 9.75008C112.207 10.0136 110.946 10.5861 109.746 11.4629L109.926 11.7264L109.746 11.8582L109.205 11.4629V10.9359C109.566 10.3222 113.829 8.78463 122 6.32438ZM111.188 3.68922H112.089L112.809 4.34801V4.61153C112.449 5.13856 111.847 5.40207 111.007 5.40207L110.647 4.74328C110.765 4.04134 110.946 3.68922 111.188 3.68922ZM118.756 12.3852C119.356 12.8237 119.657 13.3507 119.657 13.9663C119.657 14.3165 118.874 14.58 117.315 14.7569C116.594 14.5797 116.233 14.2298 116.233 13.7028V13.1758L116.414 13.044C116.774 13.6574 117.072 13.9663 117.315 13.9663H117.675L117.315 12.517H117.675L118.216 13.7028H118.756L118.216 12.517L118.396 12.3852H118.756ZM129.208 3.55746H129.569C130.408 3.55746 130.831 3.7775 130.831 4.21625C130.831 5.27031 129.867 5.79735 127.947 5.79735L125.424 5.40207V6.06086H125.064L124.703 5.79735C124.703 5.0068 125.123 4.56837 125.965 4.47977L127.046 4.87504C127.406 4.43662 128.127 3.99819 129.208 3.55746ZM125.965 7.5102C127.406 9.35481 128.127 10.5406 128.127 11.0677V11.4629L127.947 11.7264L127.587 11.4629H127.407V11.7264C128.848 18.2257 129.569 22.4423 129.569 24.3752V25.1654C129.569 26.2198 129.147 26.8786 128.308 27.1418H128.127V26.8786L128.307 24.5066L127.406 20.159L125.243 10.2771L125.063 9.48657V8.95954C125.303 7.99408 125.604 7.5102 125.965 7.5102ZM128.127 4.87504V5.0068L129.568 4.74328V4.34801H129.388C128.546 4.43662 128.127 4.61153 128.127 4.87504ZM145.968 29.909C145.247 30.2592 140.742 31.6219 132.452 33.9935L132.272 33.8618V33.73C132.511 33.203 136.957 31.8403 145.607 29.6455L145.968 29.909ZM133.173 19.5002C134.012 19.5002 134.435 19.8503 134.435 20.5539V20.6857L134.074 21.0813C134.074 20.8177 133.651 20.6409 132.812 20.5539L132.452 20.2907V20.159C132.57 19.7182 132.812 19.5002 133.173 19.5002ZM134.434 13.9663L134.975 14.4934V14.7569C134.975 14.8432 134.674 14.8886 134.074 14.8886L134.434 15.1522H136.056V15.4157C136.056 15.9427 134.975 16.3811 132.812 16.7332V16.6015L133.534 15.9427L132.812 15.4157V15.1522C133.052 14.3616 133.592 13.9663 134.434 13.9663ZM135.696 18.9731L136.417 19.2366V19.5002C136.417 19.7637 136.175 19.8951 135.696 19.8951V20.5539L135.335 21.2127H135.155V19.5002L135.696 18.9731ZM135.696 26.0881C136.777 26.7014 137.858 27.0104 138.939 27.0104C138.458 26.2201 137.796 25.8242 136.957 25.8242C136.115 25.9112 135.696 25.9994 135.696 26.0881ZM139.84 33.203H140.201C141.161 33.203 141.643 33.5531 141.643 34.257C141.643 34.5206 140.921 34.6955 139.48 34.7844V35.1794L140.381 37.551H140.201C140.08 37.551 139.539 36.6718 138.579 34.9158C138.579 34.5637 138.877 34.257 139.48 33.9935V33.8618V33.73L139.84 33.203ZM229.403 29.382H229.764V29.5138C229.764 30.2157 229.161 30.5675 227.962 30.5675L227.421 30.6993H226.34H226.16C223.637 32.1917 222.015 32.9391 221.294 32.9391V32.8077L224.357 31.0945L226.34 29.9087L228.142 30.0405V29.9087L228.502 29.5138L228.863 29.909L229.403 29.382ZM227.601 12.1217C228.201 12.2966 228.502 12.6033 228.502 13.044V13.1758C228.502 13.5259 228.021 13.7894 227.061 13.9663H226.88C226.52 13.9663 226.34 13.7028 226.34 13.1758C226.819 12.5601 227.241 12.2084 227.601 12.1217ZM227.061 12.7805L226.88 13.044L227.241 13.1758H227.421L227.781 13.044L227.061 12.7805ZM227.601 17.2603C228.44 17.5238 228.863 17.9622 228.863 18.5779H228.502H228.322C228.322 18.4893 227.962 18.3578 227.241 18.1826V17.5238L227.601 17.2603ZM230.304 17.1285L230.484 17.5238V17.9191C230.003 17.9191 229.763 18.1375 229.763 18.5779H229.223C229.462 17.6101 229.823 17.1285 230.304 17.1285ZM244 32.2807C243.519 32.808 238.594 34.1684 229.223 36.3648V36.1017C229.944 35.6613 234.868 34.3885 244 32.2807ZM236.612 29.2502H236.791C237.631 29.2502 238.472 29.6455 239.315 30.4361C239.315 31.0497 238.954 31.5336 238.233 31.8854H238.053C237.45 31.8854 236.73 31.5336 235.89 30.8317V30.6999L236.612 29.2502Z" fill="#1A1C1F"/>
</svg>
