<svg width="167" height="121" viewBox="0 0 167 121" fill="none" xmlns="http://www.w3.org/2000/svg">
<g id="note-demo-for-desk" filter="url(#filter0_d_294_21)">
<path id="path5092" d="M54.2513 5.90086e-06L167 81.5878V120.768L0 5.90086e-06H54.2513Z" fill="#D90003"/>
<path id="Demo" d="M74.5417 43.1034L70.7595 40.2913L79.8723 28.0351L83.822 30.9718C85.011 31.8558 85.8459 32.8576 86.3268 33.9772C86.8107 35.0928 86.9384 36.2751 86.71 37.5239C86.4844 38.7687 85.9 40.0255 84.9567 41.2942C84.0075 42.5709 82.9628 43.501 81.8228 44.0844C80.6857 44.6638 79.4983 44.8776 78.2608 44.7256C77.0262 44.5697 75.7865 44.0289 74.5417 43.1034ZM73.2226 40.0782L75.4249 41.7156C76.4382 42.4691 77.4234 42.898 78.3804 43.0024C79.3374 43.1069 80.2479 42.9196 81.1119 42.4407C81.976 41.9619 82.7788 41.2237 83.5204 40.2263C84.2561 39.2369 84.7279 38.2649 84.9357 37.3105C85.1465 36.3521 85.0731 35.4426 84.7155 34.582C84.3609 33.7174 83.7049 32.9292 82.7474 32.2172L80.3775 30.4552L73.2226 40.0782ZM86.8977 52.5878C86.012 51.9293 85.3934 51.1657 85.0417 50.2971C84.6971 49.4275 84.6137 48.5106 84.7917 47.5464C84.9766 46.5811 85.4191 45.6277 86.1191 44.6862C86.8192 43.7446 87.6078 43.0423 88.4848 42.5793C89.3689 42.1152 90.2699 41.9116 91.1879 41.9685C92.1128 42.0243 92.9902 42.3607 93.8201 42.9777C94.2988 43.3337 94.7123 43.765 95.0604 44.2716C95.4085 44.7783 95.6406 45.3536 95.7566 45.9974C95.8756 46.6372 95.8308 47.335 95.6222 48.0905C95.4135 48.8461 94.9903 49.6527 94.3525 50.5105L93.9075 51.109L86.822 45.8406L87.7297 44.6198L93.379 48.8202C93.7646 48.3016 94.005 47.7616 94.1001 47.2005C94.1992 46.6422 94.1468 46.1045 93.9428 45.5873C93.7428 45.0731 93.3874 44.6261 92.8767 44.2464C92.3142 43.8282 91.7236 43.6059 91.1051 43.5796C90.4934 43.5523 89.9133 43.6785 89.3646 43.9582C88.8159 44.2379 88.3532 44.6311 87.9764 45.1378L87.3713 45.9517C86.8551 46.6459 86.5373 47.3234 86.4177 47.9841C86.3051 48.6438 86.3708 49.2595 86.6148 49.8312C86.8618 50.399 87.2705 50.8949 87.841 51.3191C88.2121 51.595 88.5858 51.7923 88.9621 51.9111C89.3454 52.0288 89.7254 52.0635 90.102 52.0152C90.4817 51.9629 90.85 51.8217 91.207 51.5915L92.2867 52.989C91.7989 53.345 91.255 53.5725 90.6548 53.6714C90.0576 53.7664 89.437 53.7262 88.7929 53.5509C88.1518 53.3716 87.5201 53.0506 86.8977 52.5878ZM93.5002 57.1996L100.335 48.0074L101.699 49.022L100.631 50.4582L100.751 50.5472C101.307 50.1989 101.9 50.0478 102.528 50.0939C103.16 50.136 103.775 50.3795 104.374 50.8245C104.98 51.2754 105.382 51.7883 105.581 52.3632C105.786 52.937 105.82 53.5539 105.682 54.2137L105.778 54.2849C106.366 53.9851 107 53.8706 107.678 53.9414C108.36 54.0082 109.029 54.2863 109.688 54.7757C110.51 55.3868 110.991 56.144 111.13 57.0472C111.273 57.9465 110.943 58.9368 110.139 60.0179L105.565 66.17L104.153 65.1199L108.727 58.9678C109.231 58.2896 109.406 57.6669 109.251 57.0998C109.097 56.5327 108.768 56.0622 108.266 55.6885C107.619 55.2079 106.973 55.0311 106.327 55.1581C105.685 55.2811 105.142 55.6398 104.7 56.2343L100.251 62.2187L98.8144 61.1508L103.495 54.8552C103.884 54.3325 104.027 53.7855 103.926 53.2142C103.827 52.6389 103.51 52.1525 102.975 51.755C102.608 51.4821 102.193 51.3248 101.728 51.2829C101.268 51.2441 100.81 51.3255 100.357 51.5273C99.9103 51.728 99.5194 52.0538 99.1842 52.5046L94.9125 58.2497L93.5002 57.1996ZM112.245 71.4339C111.415 70.8169 110.834 70.078 110.501 69.2174C110.172 68.3596 110.096 67.4452 110.273 66.474C110.454 65.5057 110.898 64.5468 111.604 63.5973C112.315 62.6398 113.11 61.933 113.989 61.4769C114.871 61.0238 115.77 60.8312 116.686 60.899C117.606 60.9697 118.481 61.3136 119.311 61.9306C120.14 62.5476 120.72 63.285 121.048 64.1427C121.381 65.0034 121.456 65.9199 121.272 66.8921C121.092 67.8673 120.646 68.8336 119.934 69.7911C119.228 70.7407 118.435 71.44 117.556 71.8891C116.681 72.3412 115.784 72.5319 114.863 72.4611C113.947 72.3933 113.074 72.0509 112.245 71.4339ZM113.188 70.1652C113.818 70.6339 114.457 70.858 115.104 70.8374C115.752 70.8168 116.369 70.6158 116.956 70.2346C117.543 69.8533 118.065 69.3554 118.522 68.741C118.978 68.1266 119.306 67.4814 119.505 66.8055C119.704 66.1295 119.722 65.4767 119.558 64.8469C119.395 64.2172 118.998 63.668 118.367 63.1993C117.737 62.7306 117.097 62.5086 116.446 62.5331C115.796 62.5577 115.176 62.7626 114.586 63.1479C113.996 63.5332 113.473 64.033 113.016 64.6474C112.559 65.2618 112.233 65.905 112.037 66.577C111.84 67.249 111.826 67.8978 111.992 68.5236C112.159 69.1493 112.558 69.6965 113.188 70.1652Z" fill="white"/>
</g>
<defs>
<filter id="filter0_d_294_21" x="-4" y="0" width="175" height="128.768" filterUnits="userSpaceOnUse" color-interpolation-filters="sRGB">
<feFlood flood-opacity="0" result="BackgroundImageFix"/>
<feColorMatrix in="SourceAlpha" type="matrix" values="0 0 0 0 0 0 0 0 0 0 0 0 0 0 0 0 0 0 127 0" result="hardAlpha"/>
<feOffset dy="4"/>
<feGaussianBlur stdDeviation="2"/>
<feComposite in2="hardAlpha" operator="out"/>
<feColorMatrix type="matrix" values="0 0 0 0 0 0 0 0 0 0 0 0 0 0 0 0 0 0 0.23 0"/>
<feBlend mode="normal" in2="BackgroundImageFix" result="effect1_dropShadow_294_21"/>
<feBlend mode="normal" in="SourceGraphic" in2="effect1_dropShadow_294_21" result="shape"/>
</filter>
</defs>
</svg>
