<svg width="151" height="109" viewBox="0 0 151 109" fill="none" xmlns="http://www.w3.org/2000/svg">
<g id="note-demo-for-AAs" filter="url(#filter0_d_296_22)">
<path id="path5092" d="M49.0536 0L151 73.6374V109L0 0H49.0536Z" fill="#D90003"/>
<path id="Demo" d="M69.2101 41.0353L65.9683 38.6249L73.7792 28.1196L77.1647 30.6368C78.1838 31.3945 78.8994 32.2532 79.3116 33.2129C79.7264 34.1691 79.8359 35.1824 79.64 36.2529C79.4468 37.3199 78.9458 38.3971 78.1373 39.4846C77.3236 40.5789 76.4282 41.3761 75.451 41.8762C74.4764 42.3728 73.4587 42.556 72.3979 42.4258C71.3396 42.2921 70.2771 41.8286 69.2101 41.0353ZM68.0794 38.4423L69.9671 39.8458C70.8357 40.4916 71.6801 40.8593 72.5004 40.9488C73.3207 41.0383 74.1011 40.8778 74.8418 40.4673C75.5824 40.0568 76.2705 39.4241 76.9062 38.5692C77.5368 37.7211 77.9411 36.8881 78.1192 36.07C78.2999 35.2485 78.237 34.4689 77.9305 33.7313C77.6266 32.9902 77.0643 32.3145 76.2436 31.7043L74.2123 30.194L68.0794 38.4423ZM79.801 49.1648C79.0418 48.6003 78.5115 47.9459 78.2101 47.2014C77.9147 46.456 77.8433 45.6701 77.9958 44.8436C78.1543 44.0162 78.5336 43.199 79.1336 42.392C79.7337 41.5849 80.4096 40.9829 81.1614 40.5861C81.9191 40.1883 82.6914 40.0138 83.4783 40.0625C84.2711 40.1104 85.0231 40.3987 85.7344 40.9276C86.1448 41.2327 86.4992 41.6024 86.7976 42.0367C87.096 42.4709 87.2949 42.964 87.3943 43.5159C87.4963 44.0643 87.4579 44.6624 87.2791 45.31C87.1002 45.9576 86.7375 46.649 86.1908 47.3843L85.8094 47.8972L79.736 43.3815L80.5141 42.3351L85.3564 45.9354C85.6869 45.4909 85.8929 45.0281 85.9745 44.5471C86.0594 44.0686 86.0145 43.6077 85.8396 43.1644C85.6682 42.7236 85.3636 42.3405 84.9259 42.015C84.4437 41.6565 83.9375 41.466 83.4073 41.4435C82.883 41.4201 82.3858 41.5283 81.9154 41.768C81.4451 42.0078 81.0485 42.3448 80.7256 42.7791L80.2069 43.4767C79.7645 44.0717 79.492 44.6524 79.3896 45.2188C79.293 45.7842 79.3494 46.312 79.5585 46.802C79.7702 47.2886 80.1205 47.7138 80.6095 48.0773C80.9276 48.3138 81.2479 48.4829 81.5705 48.5847C81.899 48.6856 82.2247 48.7154 82.5476 48.674C82.8729 48.6292 83.1886 48.5081 83.4946 48.3108L84.4201 49.5087C84.002 49.8138 83.5358 50.0088 83.0214 50.0936C82.5095 50.175 81.9775 50.1406 81.4255 49.9903C80.876 49.8366 80.3345 49.5615 79.801 49.1648ZM85.4603 53.1177L91.3185 45.2388L92.488 46.1084L91.5727 47.3394L91.6753 47.4157C92.1521 47.1171 92.66 46.9876 93.1988 47.0271C93.7401 47.0632 94.2673 47.272 94.7803 47.6534C95.3 48.0399 95.6449 48.4795 95.8149 48.9723C95.9908 49.4641 96.0198 49.9929 95.902 50.5584L95.9841 50.6194C96.4884 50.3625 97.0313 50.2644 97.6128 50.325C98.1969 50.3823 98.771 50.6206 99.3353 51.0402C100.04 51.564 100.452 52.213 100.572 52.9872C100.694 53.758 100.411 54.6068 99.7221 55.5335L95.8014 60.8066L94.5908 59.9066L98.5116 54.6334C98.9438 54.052 99.0937 53.5183 98.9613 53.0322C98.8289 52.5461 98.5472 52.1429 98.1164 51.8225C97.5624 51.4106 97.0086 51.2591 96.4551 51.3679C95.9041 51.4733 95.4392 51.7808 95.0603 52.2903L91.2464 57.4199L90.0153 56.5045L94.0276 51.1083C94.3606 50.6603 94.4836 50.1914 94.3963 49.7017C94.3116 49.2086 94.0401 48.7917 93.5819 48.451C93.2672 48.2171 92.9109 48.0822 92.5127 48.0463C92.1179 48.013 91.7262 48.0828 91.3374 48.2558C90.9546 48.4278 90.6195 48.7071 90.3322 49.0935L86.6708 54.0178L85.4603 53.1177ZM101.527 65.3186C100.816 64.7897 100.317 64.1564 100.032 63.4187C99.7505 62.6835 99.6854 61.8997 99.8371 61.0672C99.9921 60.2373 100.372 59.4154 100.977 58.6015C101.588 57.7808 102.269 57.175 103.022 56.7841C103.778 56.3957 104.548 56.2305 105.334 56.2886C106.122 56.3493 106.872 56.644 107.583 57.1729C108.295 57.7018 108.791 58.3338 109.073 59.069C109.358 59.8067 109.422 60.5923 109.264 61.4256C109.11 62.2615 108.728 63.0898 108.118 63.9105C107.513 64.7244 106.833 65.3238 106.08 65.7088C105.33 66.0963 104.56 66.2597 103.772 66.1991C102.986 66.141 102.238 65.8475 101.527 65.3186ZM102.335 64.2311C102.876 64.6329 103.423 64.8249 103.978 64.8073C104.533 64.7896 105.062 64.6174 105.565 64.2906C106.068 63.9638 106.516 63.5371 106.907 63.0104C107.299 62.4838 107.58 61.9308 107.75 61.3514C107.921 60.772 107.936 60.2124 107.796 59.6726C107.656 59.1329 107.315 58.6621 106.775 58.2604C106.235 57.8586 105.686 57.6683 105.128 57.6894C104.571 57.7104 104.04 57.8861 103.534 58.2163C103.028 58.5465 102.58 58.975 102.188 59.5016C101.796 60.0282 101.517 60.5795 101.349 61.1555C101.18 61.7315 101.168 62.2877 101.311 62.824C101.454 63.3604 101.795 63.8294 102.335 64.2311Z" fill="white"/>
</g>
<defs>
<filter id="filter0_d_296_22" x="-4" y="0" width="159" height="117" filterUnits="userSpaceOnUse" color-interpolation-filters="sRGB">
<feFlood flood-opacity="0" result="BackgroundImageFix"/>
<feColorMatrix in="SourceAlpha" type="matrix" values="0 0 0 0 0 0 0 0 0 0 0 0 0 0 0 0 0 0 127 0" result="hardAlpha"/>
<feOffset dy="4"/>
<feGaussianBlur stdDeviation="2"/>
<feComposite in2="hardAlpha" operator="out"/>
<feColorMatrix type="matrix" values="0 0 0 0 0 0 0 0 0 0 0 0 0 0 0 0 0 0 0.23 0"/>
<feBlend mode="normal" in2="BackgroundImageFix" result="effect1_dropShadow_296_22"/>
<feBlend mode="normal" in="SourceGraphic" in2="effect1_dropShadow_296_22" result="shape"/>
</filter>
</defs>
</svg>
