<svg width="126" height="32" viewBox="0 0 126 32" fill="none" xmlns="http://www.w3.org/2000/svg">
<g id="jdul-galeri-for-AAs">
<g id="g1265">
<path id="path982" d="M125.375 28.7936C124.97 28.5495 124.584 28.2703 124.207 27.9677C124.036 27.8291 123.743 27.6344 123.555 27.5335C123.071 27.2801 122.581 27.0407 122.093 26.7991C121.907 26.7075 121.717 26.6278 121.501 26.5293C121.574 26.4682 121.609 26.4189 121.653 26.4049C122.321 26.1561 122.969 25.8323 123.65 25.6352C123.998 25.5343 124.345 25.4217 124.669 25.234C124.992 25.0486 125.232 24.7648 125.323 24.3329C125.436 23.7933 125.285 23.3521 124.951 22.9979C124.551 22.5731 124.106 22.2305 123.63 21.9443C123.403 21.8058 123.18 21.658 122.966 21.4938C122.014 20.757 121.063 20.0249 120.071 19.3702C119.987 19.3139 119.873 19.2811 119.858 19.1027C120.414 18.8305 120.986 18.6053 121.575 18.4434C121.839 18.3706 122.1 18.2838 122.357 18.1806C122.757 18.0187 123.181 17.8662 123.494 17.4931C123.932 16.9745 123.917 16.1087 123.495 15.5713C123.213 15.2123 122.891 14.912 122.518 14.6914C121.799 14.262 121.077 13.842 120.329 13.49C120.267 13.4619 120.198 13.4337 120.21 13.3C120.589 13.1592 120.976 13.0137 121.365 12.8753C122.051 12.6312 122.73 12.3544 123.443 12.23C123.746 12.1784 124.047 12.0962 124.341 11.9906C125.078 11.7302 125.305 10.7869 124.815 10.0689C124.771 10.0056 124.723 9.94455 124.673 9.89058C124.276 9.46118 123.858 9.07637 123.372 8.80418C122.225 8.1589 121.088 7.49017 119.898 6.96222C119.696 6.87071 119.511 6.73696 119.323 6.61025C119.26 6.56802 119.139 6.56332 119.158 6.3803C119.502 6.1832 119.84 5.94855 120.164 5.6834C121.156 4.87622 122.165 4.10659 123.252 3.49651C123.513 3.35103 123.757 3.15393 124.001 2.96387C124.189 2.81839 124.341 2.62129 124.437 2.36787C124.663 1.77188 124.392 1.01867 123.885 0.967044C123.562 0.93654 123.25 0.830947 122.928 0.821561C122.468 0.805136 122.008 0.795749 121.549 0.774631C120.187 0.711277 118.825 0.650272 117.464 0.572839C116.188 0.500099 114.913 0.399199 113.637 0.328806C112.581 0.267798 111.525 0.239645 110.47 0.185677C109.517 0.136402 91.8019 0.0401921 90.8486 0.023767C88.9919 -0.00908327 81.7484 -0.0184688 79.8914 0.0660033C77.8652 0.157515 57.0452 0.188023 55.0207 0.345235C54.1535 0.413282 53.2857 0.462556 52.4152 0.448477C51.7511 0.439091 40.0835 0.441437 39.4223 0.502445C38.5562 0.58457 37.6929 0.699547 36.824 0.753516C35.1225 0.861452 19.2276 1.02101 17.5213 1.03744C15.9375 1.05152 14.3523 1.08202 12.7702 1.20169C12.4289 1.2275 12.0868 1.23688 11.7449 1.2275C11.0633 1.20638 10.3849 1.25565 9.70647 1.32605C9.26496 1.37063 8.82344 1.41756 8.38094 1.44807C6.91512 1.54662 5.46806 1.83992 4.0142 2.06518C3.99356 2.06753 3.97313 2.07222 3.95262 2.07926C3.12525 2.30217 2.30688 2.57436 1.46882 2.74565C1.16781 2.80666 0.867608 2.89817 0.594782 3.08119C0.181958 3.35572 -0.0199834 3.77808 0.00155879 4.35296C0.0244044 4.97008 0.267831 5.41121 0.718649 5.68575C1.08812 5.90866 1.48493 6.02598 1.88729 6.12219C2.73966 6.32633 3.59519 6.51404 4.4168 6.8707C4.52379 6.91763 4.65018 6.91998 4.71946 7.05373C4.69971 7.20859 4.57677 7.24144 4.49834 7.31888C4.27243 7.54179 4.03527 7.74828 3.76967 7.89376C2.93934 8.34897 2.22273 9.01066 1.49945 9.65124C0.921408 10.1651 0.955685 11.1483 1.53248 11.6739C1.64051 11.7724 1.76435 11.8499 1.88834 11.9156C2.13742 12.0493 2.38978 12.176 2.64415 12.2933C3.48688 12.6875 4.31144 13.1287 5.12699 13.598C5.1045 13.7951 4.9686 13.8655 4.86505 13.9593C4.23274 14.5201 3.5985 15.0809 2.95847 15.63C2.51274 16.0125 2.05057 16.3644 1.54753 16.6296C1.46346 16.6742 1.38213 16.7305 1.30554 16.7938C0.972862 17.066 0.800986 17.5423 0.87826 18.021C0.953472 18.488 1.18445 18.7907 1.54074 18.9432C1.86514 19.0816 2.20092 19.1708 2.54254 19.2247C2.96458 19.2951 3.38643 19.3632 3.80593 19.4524C4.38734 19.5767 4.97082 19.7011 5.52952 19.9263C5.51506 20.1 5.41139 20.1469 5.32827 20.2126C4.85467 20.5974 4.38252 20.9822 3.9048 21.3577C3.43817 21.7261 2.99301 22.1273 2.55699 22.5473C2.09062 22.9955 1.67585 23.5258 1.14763 23.8778C1.11792 23.8988 1.09306 23.927 1.06472 23.9504C0.458072 24.4456 0.563839 25.6704 1.31966 26.0013C1.56302 26.1069 1.8147 26.1561 2.06997 26.1749C2.40968 26.1984 2.75114 26.1937 3.09015 26.2265C3.53346 26.2712 3.97465 26.2758 4.41694 26.2172C4.51188 26.2054 4.61165 26.1468 4.75374 26.2665C4.48037 26.5503 4.2277 26.7944 3.99514 27.0642C3.74862 27.3481 3.52075 27.6578 3.28578 27.9582C2.88615 28.4674 2.48555 28.9765 2.09013 29.4905C2.00963 29.596 1.93822 29.718 1.88351 29.8448C1.74027 30.178 1.71266 30.5464 1.87642 30.8561C2.19589 31.4638 2.57569 31.973 3.2617 31.9308C3.75653 31.898 4.24608 31.8275 4.73688 31.7595C5.56715 31.6421 6.39659 31.5553 7.23574 31.6211C7.77875 31.6656 8.32384 31.6233 8.86885 31.56C9.54693 31.4849 10.229 31.4661 10.9058 31.3582C11.022 31.3395 11.1434 31.3676 11.2623 31.3747C11.8751 31.4122 12.4891 31.4544 13.1009 31.3887C13.5786 31.3371 14.0522 31.3488 14.5294 31.384C15.4307 31.4544 16.3327 31.5108 17.2353 31.3911C17.4031 31.3676 17.5752 31.384 17.7452 31.3911C18.5792 31.438 33.6108 31.4967 34.4449 31.4239C34.9391 31.3816 35.4321 31.3816 35.926 31.3981C36.7944 31.4287 37.6624 31.4732 38.531 31.492C38.9222 31.5013 39.3141 31.4544 39.7058 31.4568C40.6427 31.4615 52.5804 31.4732 53.5171 31.4943C54.5733 31.5155 55.6291 31.5529 56.685 31.5788C57.7412 31.6047 77.5888 31.6233 78.6448 31.6421C79.7862 31.6633 80.9274 31.6891 82.0688 31.7032C83.1931 31.7196 89.7039 31.7196 90.8282 31.7336C91.8843 31.7477 109.704 31.743 110.759 31.8157C111.814 31.8885 112.868 31.9753 113.924 31.9917C115.453 32.0176 116.982 31.9753 118.511 31.9683C119.774 31.9636 121.037 31.9144 122.298 31.8298C123.234 31.7688 124.173 31.7477 125.1 31.5507C125.158 31.5389 125.215 31.5224 125.271 31.5037C125.734 31.3348 125.921 31.0438 125.97 30.4454C125.977 30.3633 125.985 30.2812 125.992 30.1968C126.047 29.6195 125.804 29.054 125.375 28.7936Z" fill="#5E887C"/>
</g>
<path id="Galerry" d="M38.66 28.52C38.2067 28.52 37.82 28.46 37.5 28.34C36.9933 28.1533 36.6267 27.9333 36.4 27.68C36.16 27.44 36.04 27.18 36.04 26.9C36.04 26.54 36.22 26.16 36.58 25.76C36.9267 25.3733 37.4133 24.9933 38.04 24.62C38.6667 24.26 39.3867 23.94 40.2 23.66C41.0133 23.3933 41.88 23.1933 42.8 23.06C43.2133 22.9933 43.6667 22.94 44.16 22.9C44.6667 22.86 45.1733 22.82 45.68 22.78C46.2 22.7533 46.6667 22.74 47.08 22.74C47.5733 21.9 47.9733 21.1067 48.28 20.36C48.6 19.6133 48.88 18.7533 49.12 17.78L49.2 17.46C48.9467 17.7 48.5867 17.9933 48.12 18.34C47.6667 18.6733 47.1333 19.0133 46.52 19.36C45.92 19.6933 45.2733 19.9733 44.58 20.2C43.9 20.4267 43.2 20.54 42.48 20.54C41.92 20.54 41.38 20.4533 40.86 20.28C40.3 20.08 39.7933 19.7467 39.34 19.28C38.9 18.8 38.5467 18.2133 38.28 17.52C38.0267 16.8133 37.9 16.0333 37.9 15.18C37.9 14.5533 37.98 13.8867 38.14 13.18C38.3 12.46 38.56 11.7267 38.92 10.98C38.5067 10.5533 38.18 10.08 37.94 9.56C37.7133 9.04 37.6 8.50667 37.6 7.96C37.6 7.48 37.7 7.00667 37.9 6.54C38.1 6.06 38.4133 5.6 38.84 5.16C38.96 5.02667 39.0733 4.96 39.18 4.96C39.2333 4.96 39.26 4.98667 39.26 5.04C39.26 5.12 39.2133 5.21333 39.12 5.32C38.8133 5.69333 38.5867 6.08667 38.44 6.5C38.2933 6.91333 38.22 7.32667 38.22 7.74C38.22 8.20667 38.3067 8.66667 38.48 9.12C38.6667 9.57333 38.9267 9.99333 39.26 10.38C39.3267 10.2467 39.3933 10.1133 39.46 9.98C39.54 9.84667 39.62 9.71333 39.7 9.58C40.34 8.54 41.12 7.64667 42.04 6.9C42.9733 6.15333 43.9667 5.58 45.02 5.18C46.0733 4.76667 47.1 4.56 48.1 4.56C48.2733 4.56 48.44 4.56667 48.6 4.58C48.7733 4.59333 48.9467 4.61333 49.12 4.64C50.4133 4.84 51.38 5.27333 52.02 5.94C52.66 6.60667 52.98 7.35333 52.98 8.18C52.98 8.75333 52.82 9.32667 52.5 9.9C52.1933 10.4733 51.72 11 51.08 11.48C50.4533 11.96 49.6667 12.3467 48.72 12.64C47.7867 12.9333 46.7 13.0933 45.46 13.12C44.4867 13.1333 43.5267 13.0133 42.58 12.76C41.6333 12.4933 40.8333 12.1467 40.18 11.72C39.8467 12.4267 39.6 13.12 39.44 13.8C39.2933 14.4667 39.22 15.0933 39.22 15.68C39.22 16.6667 39.4267 17.5133 39.84 18.22C40.2533 18.9267 40.8267 19.4 41.56 19.64C41.7733 19.7067 41.9867 19.7533 42.2 19.78C42.4267 19.8067 42.6467 19.82 42.86 19.82C43.46 19.82 44.06 19.7333 44.66 19.56C45.2733 19.3733 45.84 19.1333 46.36 18.84C46.88 18.5467 47.32 18.24 47.68 17.92C48.0533 17.5867 48.3 17.28 48.42 17C48.7267 16.3067 49.0267 15.8267 49.32 15.56C49.6267 15.28 49.9 15.14 50.14 15.14C50.34 15.14 50.5067 15.2333 50.64 15.42C50.7867 15.5933 50.84 15.8333 50.8 16.14C50.6667 17.2467 50.36 18.32 49.88 19.36C49.4133 20.4 48.8067 21.5267 48.06 22.74C48.9667 22.7533 49.78 22.8 50.5 22.88C51.2333 22.9733 51.8933 23.0933 52.48 23.24C52.64 23.28 52.7467 23.3267 52.8 23.38C52.8667 23.4467 52.9 23.5 52.9 23.54C52.9 23.6333 52.82 23.68 52.66 23.68C52.58 23.68 52.4667 23.66 52.32 23.62C52.0133 23.54 51.6067 23.4667 51.1 23.4C50.5933 23.3467 50.0467 23.3067 49.46 23.28C48.8867 23.2533 48.3333 23.24 47.8 23.24C47.24 24.04 46.5733 24.76 45.8 25.4C45.04 26.0533 44.2333 26.6133 43.38 27.08C42.5267 27.5467 41.6867 27.9 40.86 28.14C40.0467 28.3933 39.3133 28.52 38.66 28.52ZM44.92 12.52C45.0667 12.52 45.2133 12.52 45.36 12.52C45.5067 12.5067 45.6533 12.4933 45.8 12.48C47.1467 12.3467 48.2867 12.04 49.22 11.56C50.1667 11.0667 50.88 10.4867 51.36 9.82C51.8533 9.15333 52.1 8.5 52.1 7.86C52.1 7.23333 51.86 6.68 51.38 6.2C50.9133 5.70667 50.1933 5.38667 49.22 5.24C49.0867 5.21333 48.9733 5.2 48.88 5.2C48.8 5.2 48.6867 5.2 48.54 5.2C47.6733 5.2 46.7733 5.40667 45.84 5.82C44.92 6.23333 44.04 6.81333 43.2 7.56C42.3733 8.29333 41.66 9.14667 41.06 10.12C40.9133 10.3733 40.8 10.5667 40.72 10.7C40.64 10.8333 40.5467 10.9933 40.44 11.18C40.9867 11.5933 41.6467 11.92 42.42 12.16C43.2067 12.4 44.04 12.52 44.92 12.52ZM38.64 27.9C39.16 27.9 39.7733 27.8 40.48 27.6C41.1867 27.4133 41.92 27.12 42.68 26.72C43.4533 26.3333 44.1933 25.8533 44.9 25.28C45.6067 24.7067 46.2267 24.04 46.76 23.28C46.12 23.2933 45.4867 23.32 44.86 23.36C44.2467 23.4133 43.6333 23.4933 43.02 23.6C42.3667 23.7067 41.6867 23.8867 40.98 24.14C40.2867 24.4067 39.64 24.7133 39.04 25.06C38.4533 25.4067 37.9733 25.7533 37.6 26.1C37.24 26.46 37.06 26.7867 37.06 27.08C37.06 27.2533 37.1333 27.4067 37.28 27.54C37.44 27.6733 37.6867 27.7733 38.02 27.84C38.2067 27.88 38.4133 27.9 38.64 27.9ZM56.883 21.06C56.7363 21.0733 56.5696 21.04 56.383 20.96C56.1963 20.88 56.0296 20.7333 55.883 20.52C55.7496 20.3067 55.683 20.0067 55.683 19.62C55.683 19.3 55.743 18.9133 55.863 18.46C55.703 18.7133 55.4963 19.0267 55.243 19.4C54.9896 19.76 54.7163 20.08 54.423 20.36C54.1696 20.6 53.9296 20.7733 53.703 20.88C53.4763 20.9867 53.2696 21.04 53.083 21.04C52.7363 21.04 52.4563 20.8867 52.243 20.58C52.0296 20.26 51.923 19.8467 51.923 19.34C51.923 18.8067 52.0563 18.2 52.323 17.52C52.5896 16.84 53.023 16.1333 53.623 15.4C54.0096 14.9333 54.4763 14.56 55.023 14.28C55.583 13.9867 56.1296 13.84 56.663 13.84C56.9696 13.84 57.263 13.8933 57.543 14C57.823 14.0933 58.0696 14.2533 58.283 14.48C58.3763 14.5733 58.423 14.68 58.423 14.8C58.423 14.88 58.3896 14.9467 58.323 15C58.2563 15.0533 58.1696 15.0667 58.063 15.04C57.9163 14.5733 57.603 14.34 57.123 14.34C56.8963 14.34 56.6363 14.4133 56.343 14.56C55.8896 14.8 55.4163 15.1933 54.923 15.74C54.443 16.2867 54.023 16.8533 53.663 17.44C53.6096 17.52 53.523 17.6733 53.403 17.9C53.2963 18.1267 53.1896 18.38 53.083 18.66C52.9763 18.94 52.903 19.2133 52.863 19.48C52.8496 19.56 52.843 19.62 52.843 19.66C52.843 19.6867 52.843 19.7333 52.843 19.8C52.843 20.24 53.0096 20.46 53.343 20.46C53.743 20.46 54.1963 20.1667 54.703 19.58C55.0496 19.1533 55.363 18.7067 55.643 18.24C55.923 17.7733 56.2096 17.2733 56.503 16.74C56.703 16.38 56.8896 16.08 57.063 15.84C57.2363 15.6 57.483 15.48 57.803 15.48C57.9496 15.48 58.0963 15.5 58.243 15.54C58.3896 15.58 58.543 15.5867 58.703 15.56C58.5963 15.6667 58.4496 15.8667 58.263 16.16C58.0896 16.4533 57.903 16.7867 57.703 17.16C57.503 17.5333 57.323 17.9133 57.163 18.3C57.003 18.6867 56.8896 19.02 56.823 19.3C56.8096 19.38 56.7896 19.4933 56.763 19.64C56.7496 19.7867 56.743 19.8933 56.743 19.96C56.743 20.3333 56.8496 20.52 57.063 20.52C57.2763 20.52 57.503 20.3933 57.743 20.14C57.9963 19.8867 58.243 19.5733 58.483 19.2C58.723 18.8267 58.943 18.4533 59.143 18.08C59.343 17.6933 59.503 17.38 59.623 17.14C59.6763 17.0067 59.7563 16.94 59.863 16.94C59.9296 16.94 59.963 16.9867 59.963 17.08C59.963 17.12 59.943 17.1933 59.903 17.3C59.743 17.6333 59.5496 18.0133 59.323 18.44C59.0963 18.8533 58.8496 19.26 58.583 19.66C58.3163 20.0467 58.0363 20.3733 57.743 20.64C57.463 20.8933 57.1763 21.0333 56.883 21.06ZM60.9942 21.06C60.4342 21.06 60.0542 20.9133 59.8542 20.62C59.6542 20.3133 59.5542 19.9533 59.5542 19.54C59.5542 19.1133 59.6142 18.6733 59.7342 18.22C59.8542 17.7667 59.9609 17.3867 60.0542 17.08C60.2676 16.3333 60.5342 15.54 60.8542 14.7C61.1876 13.8467 61.5476 13.0133 61.9342 12.2C62.3342 11.3733 62.7276 10.6333 63.1142 9.98C63.4209 9.46 63.7476 9.07333 64.0942 8.82C64.4542 8.55333 64.7676 8.42 65.0342 8.42C65.2476 8.42 65.4142 8.5 65.5342 8.66C65.6676 8.80667 65.7342 9.03333 65.7342 9.34C65.7342 9.55333 65.6942 9.80667 65.6142 10.1C65.5476 10.3933 65.4276 10.7267 65.2542 11.1C64.7876 12.14 64.2276 13.18 63.5742 14.22C62.9342 15.26 62.1209 16.2333 61.1342 17.14C61.0809 17.3133 61.0076 17.52 60.9142 17.76C60.8342 17.9867 60.7609 18.22 60.6942 18.46C60.6142 18.82 60.5742 19.1267 60.5742 19.38C60.5742 19.7933 60.6542 20.1067 60.8142 20.32C60.9876 20.52 61.1942 20.62 61.4342 20.62C61.6476 20.62 61.8742 20.5467 62.1142 20.4C62.3542 20.24 62.5809 20.0133 62.7942 19.72C63.1142 19.2533 63.4009 18.78 63.6542 18.3C63.9209 17.8067 64.1209 17.4267 64.2542 17.16C64.3342 17.0133 64.4209 16.94 64.5142 16.94C64.5809 16.94 64.6142 16.98 64.6142 17.06C64.6142 17.1267 64.5942 17.2 64.5542 17.28C64.4342 17.5467 64.2742 17.8933 64.0742 18.32C63.8876 18.7333 63.6476 19.1533 63.3542 19.58C63.0742 19.9933 62.7342 20.3467 62.3342 20.64C61.9476 20.92 61.5009 21.06 60.9942 21.06ZM61.2942 16.5C61.7742 16.0067 62.2409 15.44 62.6942 14.8C63.1476 14.1467 63.5676 13.4733 63.9542 12.78C64.3542 12.0733 64.6876 11.4067 64.9542 10.78C65.0476 10.58 65.1209 10.36 65.1742 10.12C65.2409 9.88 65.2742 9.68 65.2742 9.52C65.2742 9.33333 65.2276 9.24 65.1342 9.24C65.0809 9.24 65.0009 9.29333 64.8942 9.4C64.7876 9.49333 64.6476 9.66 64.4742 9.9C64.2209 10.2333 63.9409 10.6867 63.6342 11.26C63.3409 11.8333 63.0409 12.4467 62.7342 13.1C62.4276 13.7533 62.1476 14.3867 61.8942 15C61.6409 15.6 61.4409 16.1 61.2942 16.5ZM66.072 21.08C65.5787 21.08 65.132 20.92 64.732 20.6C64.3454 20.28 64.152 19.7933 64.152 19.14C64.152 18.54 64.2987 17.9 64.592 17.22C64.8854 16.5267 65.2587 15.92 65.712 15.4C66.0987 14.9467 66.532 14.5733 67.012 14.28C67.492 13.9867 67.9454 13.84 68.372 13.84C68.6654 13.84 68.9187 13.92 69.132 14.08C69.3587 14.2533 69.472 14.5 69.472 14.82C69.472 15.1533 69.3454 15.52 69.092 15.92C68.8387 16.32 68.4787 16.6933 68.012 17.04C67.812 17.1867 67.5587 17.3267 67.252 17.46C66.9454 17.5933 66.6387 17.7067 66.332 17.8C66.0254 17.88 65.772 17.92 65.572 17.92C65.5054 18.08 65.4387 18.2933 65.372 18.56C65.3187 18.8267 65.292 19.1 65.292 19.38C65.292 19.7133 65.3587 20.0133 65.492 20.28C65.6254 20.5467 65.872 20.68 66.232 20.68C66.672 20.68 67.072 20.5533 67.432 20.3C67.792 20.0467 68.112 19.7333 68.392 19.36C68.672 18.9733 68.9054 18.5867 69.092 18.2C69.292 17.8133 69.452 17.4867 69.572 17.22C69.652 17.0333 69.7587 16.94 69.892 16.94C69.9587 16.94 69.992 16.9733 69.992 17.04C69.992 17.0933 69.972 17.16 69.932 17.24C69.7454 17.64 69.5454 18.0667 69.332 18.52C69.1187 18.96 68.8654 19.38 68.572 19.78C68.2787 20.1667 67.9254 20.48 67.512 20.72C67.112 20.96 66.632 21.08 66.072 21.08ZM65.712 17.56C65.8987 17.56 66.212 17.4933 66.652 17.36C67.092 17.2133 67.492 16.9867 67.852 16.68C68.1987 16.3733 68.4654 16.04 68.652 15.68C68.8387 15.3067 68.932 14.9933 68.932 14.74C68.932 14.4467 68.8254 14.3 68.612 14.3C68.452 14.3 68.232 14.4067 67.952 14.62C67.672 14.8333 67.3254 15.1933 66.912 15.7C66.6587 16.02 66.4187 16.3667 66.192 16.74C65.9654 17.1133 65.8054 17.3867 65.712 17.56ZM72.393 21.02C72.1396 21.02 71.8863 20.92 71.633 20.72C71.3796 20.5067 71.253 20.1667 71.253 19.7C71.253 19.34 71.3396 18.9267 71.513 18.46C71.673 18.0067 71.8863 17.5667 72.153 17.14C72.433 16.7133 72.633 16.3667 72.753 16.1C72.793 15.9933 72.813 15.9 72.813 15.82C72.813 15.58 72.6596 15.4067 72.353 15.3C72.0596 15.1933 71.673 15.1333 71.193 15.12L70.953 15.78C70.8063 16.2067 70.5996 16.7067 70.333 17.28C70.0796 17.8533 69.793 18.4067 69.473 18.94C69.1663 19.4733 68.8463 19.9 68.513 20.22C68.4863 20.2467 68.453 20.26 68.413 20.26C68.3596 20.26 68.3263 20.2267 68.313 20.16C68.2863 20.0933 68.313 20.0133 68.393 19.92C68.913 19.2267 69.3796 18.46 69.793 17.62C70.2063 16.7667 70.553 15.9 70.833 15.02C71.1263 14.14 71.3396 13.3267 71.473 12.58C71.513 12.3667 71.5863 12.2133 71.693 12.12C71.7996 12.0133 71.913 11.96 72.033 11.96C72.2063 11.96 72.3663 12.0467 72.513 12.22C72.6596 12.38 72.733 12.6133 72.733 12.92C72.733 12.9733 72.7263 13.0333 72.713 13.1C72.713 13.1667 72.7063 13.2333 72.693 13.3C72.6396 13.58 72.4796 13.8467 72.213 14.1C71.9596 14.34 71.753 14.52 71.593 14.64C71.7263 14.6533 71.8663 14.6667 72.013 14.68C72.1596 14.68 72.3196 14.68 72.493 14.68C73.1196 14.68 73.7396 14.64 74.353 14.56C74.3796 14.64 74.393 14.7 74.393 14.74C74.393 14.9133 74.3396 15.1333 74.233 15.4C74.1396 15.6667 74.0396 15.9067 73.933 16.12C73.8796 16.24 73.773 16.46 73.613 16.78C73.453 17.0867 73.2796 17.44 73.093 17.84C72.9063 18.2267 72.7463 18.6133 72.613 19C72.493 19.3733 72.433 19.6933 72.433 19.96C72.433 20.3067 72.5663 20.48 72.833 20.48C73.033 20.48 73.253 20.3533 73.493 20.1C73.733 19.8333 73.9663 19.5133 74.193 19.14C74.433 18.7533 74.6463 18.38 74.833 18.02C75.033 17.6467 75.1863 17.3533 75.293 17.14C75.3463 17.0067 75.4196 16.94 75.513 16.94C75.5663 16.94 75.593 16.9867 75.593 17.08C75.593 17.1333 75.573 17.2133 75.533 17.32C75.3863 17.6267 75.213 17.9733 75.013 18.36C74.813 18.7467 74.5863 19.1267 74.333 19.5C74.093 19.8733 73.8263 20.2 73.533 20.48C73.253 20.7467 72.9463 20.92 72.613 21C72.573 21.0133 72.4996 21.02 72.393 21.02ZM78.0078 21.02C77.7545 21.02 77.5011 20.92 77.2478 20.72C76.9945 20.5067 76.8678 20.1667 76.8678 19.7C76.8678 19.34 76.9545 18.9267 77.1278 18.46C77.2878 18.0067 77.5011 17.5667 77.7678 17.14C78.0478 16.7133 78.2478 16.3667 78.3678 16.1C78.4078 15.9933 78.4278 15.9 78.4278 15.82C78.4278 15.58 78.2745 15.4067 77.9678 15.3C77.6745 15.1933 77.2878 15.1333 76.8078 15.12L76.5678 15.78C76.4211 16.2067 76.2145 16.7067 75.9478 17.28C75.6945 17.8533 75.4078 18.4067 75.0878 18.94C74.7811 19.4733 74.4611 19.9 74.1278 20.22C74.1011 20.2467 74.0678 20.26 74.0278 20.26C73.9745 20.26 73.9411 20.2267 73.9278 20.16C73.9011 20.0933 73.9278 20.0133 74.0078 19.92C74.5278 19.2267 74.9945 18.46 75.4078 17.62C75.8211 16.7667 76.1678 15.9 76.4478 15.02C76.7411 14.14 76.9545 13.3267 77.0878 12.58C77.1278 12.3667 77.2011 12.2133 77.3078 12.12C77.4145 12.0133 77.5278 11.96 77.6478 11.96C77.8211 11.96 77.9811 12.0467 78.1278 12.22C78.2745 12.38 78.3478 12.6133 78.3478 12.92C78.3478 12.9733 78.3411 13.0333 78.3278 13.1C78.3278 13.1667 78.3211 13.2333 78.3078 13.3C78.2545 13.58 78.0945 13.8467 77.8278 14.1C77.5745 14.34 77.3678 14.52 77.2078 14.64C77.3411 14.6533 77.4811 14.6667 77.6278 14.68C77.7745 14.68 77.9345 14.68 78.1078 14.68C78.7345 14.68 79.3545 14.64 79.9678 14.56C79.9945 14.64 80.0078 14.7 80.0078 14.74C80.0078 14.9133 79.9545 15.1333 79.8478 15.4C79.7545 15.6667 79.6545 15.9067 79.5478 16.12C79.4945 16.24 79.3878 16.46 79.2278 16.78C79.0678 17.0867 78.8945 17.44 78.7078 17.84C78.5211 18.2267 78.3611 18.6133 78.2278 19C78.1078 19.3733 78.0478 19.6933 78.0478 19.96C78.0478 20.3067 78.1811 20.48 78.4478 20.48C78.6478 20.48 78.8678 20.3533 79.1078 20.1C79.3478 19.8333 79.5811 19.5133 79.8078 19.14C80.0478 18.7533 80.2611 18.38 80.4478 18.02C80.6478 17.6467 80.8011 17.3533 80.9078 17.14C80.9611 17.0067 81.0345 16.94 81.1278 16.94C81.1811 16.94 81.2078 16.9867 81.2078 17.08C81.2078 17.1333 81.1878 17.2133 81.1478 17.32C81.0011 17.6267 80.8278 17.9733 80.6278 18.36C80.4278 18.7467 80.2011 19.1267 79.9478 19.5C79.7078 19.8733 79.4411 20.2 79.1478 20.48C78.8678 20.7467 78.5611 20.92 78.2278 21C78.1878 21.0133 78.1145 21.02 78.0078 21.02ZM78.5427 27.38C77.8493 27.38 77.356 27.24 77.0627 26.96C76.7693 26.6933 76.6227 26.3733 76.6227 26C76.6227 25.8 76.6493 25.6267 76.7027 25.48C76.756 25.3333 76.836 25.1467 76.9427 24.92C77.1293 24.5333 77.3893 24.2 77.7227 23.92C78.056 23.64 78.416 23.4133 78.8027 23.24C79.496 22.92 80.2827 22.66 81.1627 22.46C82.056 22.26 82.9093 22.04 83.7227 21.8C83.976 21.36 84.2093 20.86 84.4227 20.3C84.636 19.7267 84.8293 19.1733 85.0027 18.64C85.176 18.0933 85.316 17.6467 85.4227 17.3C85.2627 17.5933 85.056 17.9533 84.8027 18.38C84.5627 18.7933 84.2893 19.2 83.9827 19.6C83.676 20 83.3427 20.3333 82.9827 20.6C82.636 20.8667 82.2693 21 81.8827 21C81.736 21 81.556 20.9667 81.3427 20.9C81.1427 20.8333 80.9627 20.7133 80.8027 20.54C80.656 20.3533 80.5827 20.08 80.5827 19.72C80.5827 19.3733 80.6627 19.04 80.8227 18.72C80.996 18.3867 81.156 18.0667 81.3027 17.76C81.2627 17.76 81.216 17.7467 81.1627 17.72C81.1227 17.6933 81.1027 17.6533 81.1027 17.6C81.1027 17.5467 81.116 17.4933 81.1427 17.44C81.196 17.3333 81.256 17.22 81.3227 17.1C81.3893 16.98 81.4493 16.8533 81.5027 16.72C81.7027 16.3067 81.9027 15.9133 82.1027 15.54C82.3027 15.1533 82.476 14.8133 82.6227 14.52C82.7693 14.2267 83.0227 14.08 83.3827 14.08H84.6227C84.5293 14.16 84.4093 14.2533 84.2627 14.36C84.1293 14.4533 84.0027 14.6 83.8827 14.8C83.5227 15.4133 83.2093 16.0067 82.9427 16.58C82.676 17.14 82.3893 17.74 82.0827 18.38C81.936 18.6867 81.8293 18.9667 81.7627 19.22C81.696 19.4733 81.6627 19.6933 81.6627 19.88C81.6627 20.32 81.8093 20.54 82.1027 20.54C82.4227 20.54 82.8093 20.28 83.2627 19.76C83.636 19.32 84.0093 18.8 84.3827 18.2C84.7693 17.5867 85.136 16.96 85.4827 16.32C85.8427 15.6667 86.156 15.0667 86.4227 14.52C86.5693 14.2267 86.8293 14.08 87.2027 14.08H88.3027C87.916 14.3467 87.616 14.6933 87.4027 15.12C87.2027 15.5467 86.976 16.0933 86.7227 16.76C86.4427 17.4933 86.176 18.2533 85.9227 19.04C85.6827 19.8133 85.4093 20.5933 85.1027 21.38C85.5427 21.2333 86.036 21.0067 86.5827 20.7C87.1427 20.3933 87.616 19.9533 88.0027 19.38C88.3093 18.9267 88.5693 18.4933 88.7827 18.08C89.0093 17.6533 89.1693 17.3467 89.2627 17.16C89.316 17.0267 89.3893 16.96 89.4827 16.96C89.576 16.96 89.6227 17.02 89.6227 17.14C89.6227 17.2067 89.6027 17.28 89.5627 17.36C89.216 18.0533 88.9027 18.64 88.6227 19.12C88.356 19.5867 88.056 19.9933 87.7227 20.34C87.4027 20.6733 87.0093 20.9667 86.5427 21.22C86.076 21.4867 85.4827 21.7533 84.7627 22.02C84.4427 22.5933 84.076 23.1867 83.6627 23.8C83.2627 24.4267 82.8027 25.0067 82.2827 25.54C81.776 26.0867 81.2093 26.5267 80.5827 26.86C79.9693 27.2067 79.2893 27.38 78.5427 27.38ZM78.0627 26.98C78.5027 26.98 78.956 26.8467 79.4227 26.58C79.8893 26.3133 80.3427 25.9733 80.7827 25.56C81.2227 25.16 81.6227 24.7467 81.9827 24.32C82.356 23.9067 82.656 23.54 82.8827 23.22C82.9493 23.1267 83.0227 23.0067 83.1027 22.86C83.1827 22.7133 83.2627 22.5733 83.3427 22.44C82.6893 22.6133 81.9693 22.8 81.1827 23C80.4093 23.2133 79.736 23.4467 79.1627 23.7C78.5227 23.9667 78.0227 24.3467 77.6627 24.84C77.2893 25.3333 77.1027 25.7733 77.1027 26.16C77.1027 26.4 77.1827 26.5933 77.3427 26.74C77.4893 26.9 77.7293 26.98 78.0627 26.98Z" fill="white"/>
</g>
</svg>
