<svg width="103" height="29" viewBox="0 0 103 29" fill="none" xmlns="http://www.w3.org/2000/svg">
<g id="jdul-galeri-for-Ap-mini">
<g id="g1265">
<path id="path982" d="M102.489 26.0942C102.158 25.873 101.842 25.62 101.535 25.3457C101.395 25.2202 101.155 25.0436 101.002 24.9522C100.606 24.7226 100.205 24.5057 99.8061 24.2867C99.6541 24.2037 99.4988 24.1314 99.3225 24.0421C99.3819 23.9868 99.4109 23.9421 99.4466 23.9294C99.9924 23.704 100.522 23.4105 101.079 23.2319C101.363 23.1405 101.647 23.0384 101.912 22.8684C102.176 22.7003 102.372 22.4431 102.446 22.0517C102.539 21.5626 102.416 21.1628 102.142 20.8418C101.816 20.4569 101.452 20.1464 101.063 19.887C100.877 19.7615 100.695 19.6276 100.519 19.4787C99.7417 18.811 98.964 18.1476 98.1536 17.5543C98.0847 17.5032 97.9911 17.4735 97.9792 17.3119C98.4335 17.0652 98.9016 16.861 99.3831 16.7143C99.5987 16.6484 99.8121 16.5697 100.022 16.4761C100.349 16.3294 100.695 16.1912 100.952 15.8531C101.31 15.3831 101.297 14.5985 100.952 14.1115C100.722 13.7862 100.458 13.514 100.154 13.3141C99.5657 12.9249 98.976 12.5443 98.3646 12.2253C98.3133 12.1998 98.257 12.1743 98.2665 12.0531C98.5771 11.9255 98.8932 11.7937 99.2108 11.6682C99.7719 11.4471 100.327 11.1961 100.909 11.0834C101.157 11.0366 101.404 10.9622 101.644 10.8665C102.246 10.6305 102.432 9.77565 102.031 9.12495C101.995 9.06753 101.957 9.01224 101.915 8.96334C101.591 8.57419 101.249 8.22545 100.851 7.97878C99.9142 7.39401 98.9849 6.78796 98.0121 6.30951C97.8466 6.22658 97.6953 6.10537 97.5415 5.99054C97.49 5.95226 97.3916 5.94801 97.4072 5.78214C97.688 5.60352 97.9641 5.39087 98.2294 5.15058C99.0402 4.41908 99.8648 3.72159 100.753 3.16871C100.967 3.03687 101.167 2.85825 101.366 2.686C101.52 2.55416 101.644 2.37554 101.722 2.14588C101.907 1.60576 101.686 0.923165 101.271 0.876383C101.007 0.848739 100.752 0.753045 100.489 0.744539C100.113 0.729654 99.7368 0.721147 99.3611 0.702009C98.2479 0.644595 97.1348 0.589308 96.022 0.519135C94.9788 0.453214 93.9365 0.361773 92.8934 0.297979C92.0308 0.242691 91.1676 0.217177 90.3049 0.168268C89.5259 0.123612 75.0444 0.0364231 74.2651 0.0215378C72.7474 -0.00823278 66.8261 -0.0167384 65.308 0.0598145C63.6517 0.142747 46.6322 0.170395 44.9772 0.312868C44.2684 0.374536 43.5589 0.41919 42.8473 0.406431C42.3045 0.397925 32.7667 0.400051 32.2261 0.455339C31.5181 0.529766 30.8125 0.633964 30.1022 0.682873C28.7112 0.78069 15.7178 0.925291 14.323 0.940176C13.0282 0.952935 11.7325 0.980579 10.4392 1.08903C10.1601 1.11242 9.88049 1.12092 9.601 1.11242C9.04377 1.09328 8.48927 1.13793 7.93466 1.20173C7.57373 1.24213 7.21281 1.28467 6.85108 1.31231C5.65284 1.40162 4.46992 1.66743 3.28145 1.87157C3.26458 1.87369 3.24787 1.87795 3.23111 1.88433C2.55477 2.08634 1.88578 2.33301 1.2007 2.48824C0.954637 2.54353 0.709235 2.62646 0.48621 2.79233C0.148744 3.04112 -0.0163356 3.42389 0.00127425 3.94487C0.0199496 4.50413 0.218941 4.90391 0.587467 5.15271C0.889498 5.35472 1.21387 5.46105 1.54279 5.54823C2.23956 5.73323 2.93892 5.90335 3.61056 6.22657C3.69802 6.2691 3.80134 6.27123 3.85797 6.39244C3.84183 6.53279 3.74133 6.56256 3.67721 6.63273C3.49254 6.83474 3.29868 7.02188 3.08155 7.15372C2.40279 7.56625 1.81699 8.16591 1.22574 8.74644C0.753214 9.21214 0.781234 10.1031 1.25274 10.5795C1.34105 10.6688 1.44229 10.7389 1.54364 10.7985C1.74726 10.9197 1.95355 11.0345 2.16149 11.1408C2.85039 11.4981 3.52443 11.8979 4.19111 12.3232C4.17273 12.5018 4.06164 12.5656 3.97699 12.6506C3.46009 13.1589 2.94163 13.6671 2.41843 14.1647C2.05407 14.5113 1.67626 14.8303 1.26504 15.0706C1.19632 15.111 1.12983 15.162 1.06723 15.2194C0.795276 15.4661 0.654775 15.8977 0.717943 16.3315C0.779426 16.7547 0.968244 17.029 1.25949 17.1673C1.52467 17.2927 1.79916 17.3735 2.07843 17.4224C2.42342 17.4862 2.76827 17.5479 3.1112 17.6287C3.58647 17.7414 4.06345 17.8541 4.52016 18.0582C4.50834 18.2156 4.42359 18.2581 4.35565 18.3177C3.9685 18.6664 3.58253 19.0152 3.19202 19.3554C2.81057 19.6892 2.44667 20.0529 2.09024 20.4335C1.709 20.8396 1.36994 21.3203 0.938144 21.6392C0.913853 21.6583 0.893536 21.6838 0.870368 21.7051C0.374456 22.1538 0.460916 23.2638 1.07877 23.5637C1.27771 23.6594 1.48345 23.704 1.69212 23.721C1.96981 23.7423 2.24895 23.738 2.52607 23.7678C2.88846 23.8082 3.24912 23.8125 3.61067 23.7593C3.68828 23.7487 3.76984 23.6955 3.88599 23.804C3.66252 24.0612 3.45598 24.2825 3.26587 24.5269C3.06434 24.7842 2.87807 25.0649 2.68599 25.3371C2.35931 25.7985 2.03184 26.26 1.7086 26.7257C1.64279 26.8214 1.58441 26.932 1.53969 27.0469C1.4226 27.3488 1.40003 27.6826 1.5339 27.9633C1.79505 28.514 2.10553 28.9756 2.66631 28.9373C3.07081 28.9075 3.471 28.8436 3.87221 28.782C4.55092 28.6757 5.22895 28.597 5.91493 28.6566C6.35882 28.6969 6.80441 28.6586 7.24994 28.6013C7.80424 28.5332 8.36184 28.5162 8.91505 28.4184C9.01008 28.4014 9.10929 28.4269 9.20648 28.4333C9.70742 28.4673 10.2094 28.5056 10.7094 28.446C11.0999 28.3992 11.4871 28.4099 11.8772 28.4418C12.614 28.5056 13.3513 28.5567 14.0891 28.4482C14.2264 28.4269 14.367 28.4418 14.506 28.4482C15.1878 28.4907 27.4755 28.5439 28.1573 28.4779C28.5613 28.4396 28.9644 28.4396 29.3681 28.4546C30.078 28.4822 30.7875 28.5226 31.4975 28.5396C31.8173 28.5481 32.1377 28.5056 32.458 28.5077C33.2238 28.512 42.9824 28.5226 43.7481 28.5417C44.6115 28.5609 45.4746 28.5948 46.3378 28.6183C47.2011 28.6417 63.4258 28.6586 64.289 28.6757C65.2221 28.6949 66.155 28.7182 67.088 28.731C68.0071 28.7459 73.3294 28.7459 74.2484 28.7586C75.1118 28.7714 89.6783 28.7671 90.5412 28.833C91.4031 28.899 92.2655 28.9776 93.1283 28.9925C94.3779 29.0159 95.6284 28.9776 96.8782 28.9712C97.9107 28.967 98.943 28.9224 99.9741 28.8458C100.739 28.7905 101.506 28.7714 102.264 28.5928C102.311 28.5822 102.358 28.5672 102.404 28.5503C102.782 28.3972 102.935 28.1334 102.976 27.5912C102.981 27.5168 102.987 27.4423 102.994 27.3658C103.038 26.8427 102.839 26.3302 102.489 26.0942Z" fill="#5E887C"/>
</g>
<path id="Galerry" d="M32.494 25.768C32.086 25.768 31.738 25.714 31.45 25.606C30.994 25.438 30.664 25.24 30.46 25.012C30.244 24.796 30.136 24.562 30.136 24.31C30.136 23.986 30.298 23.644 30.622 23.284C30.934 22.936 31.372 22.594 31.936 22.258C32.5 21.934 33.148 21.646 33.88 21.394C34.612 21.154 35.392 20.974 36.22 20.854C36.592 20.794 37 20.746 37.444 20.71C37.9 20.674 38.356 20.638 38.812 20.602C39.28 20.578 39.7 20.566 40.072 20.566C40.516 19.81 40.876 19.096 41.152 18.424C41.44 17.752 41.692 16.978 41.908 16.102L41.98 15.814C41.752 16.03 41.428 16.294 41.008 16.606C40.6 16.906 40.12 17.212 39.568 17.524C39.028 17.824 38.446 18.076 37.822 18.28C37.21 18.484 36.58 18.586 35.932 18.586C35.428 18.586 34.942 18.508 34.474 18.352C33.97 18.172 33.514 17.872 33.106 17.452C32.71 17.02 32.392 16.492 32.152 15.868C31.924 15.232 31.81 14.53 31.81 13.762C31.81 13.198 31.882 12.598 32.026 11.962C32.17 11.314 32.404 10.654 32.728 9.982C32.356 9.598 32.062 9.172 31.846 8.704C31.642 8.236 31.54 7.756 31.54 7.264C31.54 6.832 31.63 6.406 31.81 5.986C31.99 5.554 32.272 5.14 32.656 4.744C32.764 4.624 32.866 4.564 32.962 4.564C33.01 4.564 33.034 4.588 33.034 4.636C33.034 4.708 32.992 4.792 32.908 4.888C32.632 5.224 32.428 5.578 32.296 5.95C32.164 6.322 32.098 6.694 32.098 7.066C32.098 7.486 32.176 7.9 32.332 8.308C32.5 8.716 32.734 9.094 33.034 9.442C33.094 9.322 33.154 9.202 33.214 9.082C33.286 8.962 33.358 8.842 33.43 8.722C34.006 7.786 34.708 6.982 35.536 6.31C36.376 5.638 37.27 5.122 38.218 4.762C39.166 4.39 40.09 4.204 40.99 4.204C41.146 4.204 41.296 4.21 41.44 4.222C41.596 4.234 41.752 4.252 41.908 4.276C43.072 4.456 43.942 4.846 44.518 5.446C45.094 6.046 45.382 6.718 45.382 7.462C45.382 7.978 45.238 8.494 44.95 9.01C44.674 9.526 44.248 10 43.672 10.432C43.108 10.864 42.4 11.212 41.548 11.476C40.708 11.74 39.73 11.884 38.614 11.908C37.738 11.92 36.874 11.812 36.022 11.584C35.17 11.344 34.45 11.032 33.862 10.648C33.562 11.284 33.34 11.908 33.196 12.52C33.064 13.12 32.998 13.684 32.998 14.212C32.998 15.1 33.184 15.862 33.556 16.498C33.928 17.134 34.444 17.56 35.104 17.776C35.296 17.836 35.488 17.878 35.68 17.902C35.884 17.926 36.082 17.938 36.274 17.938C36.814 17.938 37.354 17.86 37.894 17.704C38.446 17.536 38.956 17.32 39.424 17.056C39.892 16.792 40.288 16.516 40.612 16.228C40.948 15.928 41.17 15.652 41.278 15.4C41.554 14.776 41.824 14.344 42.088 14.104C42.364 13.852 42.61 13.726 42.826 13.726C43.006 13.726 43.156 13.81 43.276 13.978C43.408 14.134 43.456 14.35 43.42 14.626C43.3 15.622 43.024 16.588 42.592 17.524C42.172 18.46 41.626 19.474 40.954 20.566C41.77 20.578 42.502 20.62 43.15 20.692C43.81 20.776 44.404 20.884 44.932 21.016C45.076 21.052 45.172 21.094 45.22 21.142C45.28 21.202 45.31 21.25 45.31 21.286C45.31 21.37 45.238 21.412 45.094 21.412C45.022 21.412 44.92 21.394 44.788 21.358C44.512 21.286 44.146 21.22 43.69 21.16C43.234 21.112 42.742 21.076 42.214 21.052C41.698 21.028 41.2 21.016 40.72 21.016C40.216 21.736 39.616 22.384 38.92 22.96C38.236 23.548 37.51 24.052 36.742 24.472C35.974 24.892 35.218 25.21 34.474 25.426C33.742 25.654 33.082 25.768 32.494 25.768ZM38.128 11.368C38.26 11.368 38.392 11.368 38.524 11.368C38.656 11.356 38.788 11.344 38.92 11.332C40.132 11.212 41.158 10.936 41.998 10.504C42.85 10.06 43.492 9.538 43.924 8.938C44.368 8.338 44.59 7.75 44.59 7.174C44.59 6.61 44.374 6.112 43.942 5.68C43.522 5.236 42.874 4.948 41.998 4.816C41.878 4.792 41.776 4.78 41.692 4.78C41.62 4.78 41.518 4.78 41.386 4.78C40.606 4.78 39.796 4.966 38.956 5.338C38.128 5.71 37.336 6.232 36.58 6.904C35.836 7.564 35.194 8.332 34.654 9.208C34.522 9.436 34.42 9.61 34.348 9.73C34.276 9.85 34.192 9.994 34.096 10.162C34.588 10.534 35.182 10.828 35.878 11.044C36.586 11.26 37.336 11.368 38.128 11.368ZM32.476 25.21C32.944 25.21 33.496 25.12 34.132 24.94C34.768 24.772 35.428 24.508 36.112 24.148C36.808 23.8 37.474 23.368 38.11 22.852C38.746 22.336 39.304 21.736 39.784 21.052C39.208 21.064 38.638 21.088 38.074 21.124C37.522 21.172 36.97 21.244 36.418 21.34C35.83 21.436 35.218 21.598 34.582 21.826C33.958 22.066 33.376 22.342 32.836 22.654C32.308 22.966 31.876 23.278 31.54 23.59C31.216 23.914 31.054 24.208 31.054 24.472C31.054 24.628 31.12 24.766 31.252 24.886C31.396 25.006 31.618 25.096 31.918 25.156C32.086 25.192 32.272 25.21 32.476 25.21ZM48.8947 19.054C48.7627 19.066 48.6127 19.036 48.4447 18.964C48.2767 18.892 48.1267 18.76 47.9947 18.568C47.8747 18.376 47.8147 18.106 47.8147 17.758C47.8147 17.47 47.8687 17.122 47.9767 16.714C47.8327 16.942 47.6467 17.224 47.4187 17.56C47.1907 17.884 46.9447 18.172 46.6807 18.424C46.4527 18.64 46.2367 18.796 46.0327 18.892C45.8287 18.988 45.6427 19.036 45.4747 19.036C45.1627 19.036 44.9107 18.898 44.7187 18.622C44.5267 18.334 44.4307 17.962 44.4307 17.506C44.4307 17.026 44.5507 16.48 44.7907 15.868C45.0307 15.256 45.4207 14.62 45.9607 13.96C46.3087 13.54 46.7287 13.204 47.2207 12.952C47.7247 12.688 48.2167 12.556 48.6967 12.556C48.9727 12.556 49.2367 12.604 49.4887 12.7C49.7407 12.784 49.9627 12.928 50.1547 13.132C50.2387 13.216 50.2807 13.312 50.2807 13.42C50.2807 13.492 50.2507 13.552 50.1907 13.6C50.1307 13.648 50.0527 13.66 49.9567 13.636C49.8247 13.216 49.5427 13.006 49.1107 13.006C48.9067 13.006 48.6727 13.072 48.4087 13.204C48.0007 13.42 47.5747 13.774 47.1307 14.266C46.6987 14.758 46.3207 15.268 45.9967 15.796C45.9487 15.868 45.8707 16.006 45.7627 16.21C45.6667 16.414 45.5707 16.642 45.4747 16.894C45.3787 17.146 45.3127 17.392 45.2767 17.632C45.2647 17.704 45.2587 17.758 45.2587 17.794C45.2587 17.818 45.2587 17.86 45.2587 17.92C45.2587 18.316 45.4087 18.514 45.7087 18.514C46.0687 18.514 46.4767 18.25 46.9327 17.722C47.2447 17.338 47.5267 16.936 47.7787 16.516C48.0307 16.096 48.2887 15.646 48.5527 15.166C48.7327 14.842 48.9007 14.572 49.0567 14.356C49.2127 14.14 49.4347 14.032 49.7227 14.032C49.8547 14.032 49.9867 14.05 50.1187 14.086C50.2507 14.122 50.3887 14.128 50.5327 14.104C50.4367 14.2 50.3047 14.38 50.1367 14.644C49.9807 14.908 49.8127 15.208 49.6327 15.544C49.4527 15.88 49.2907 16.222 49.1467 16.57C49.0027 16.918 48.9007 17.218 48.8407 17.47C48.8287 17.542 48.8107 17.644 48.7867 17.776C48.7747 17.908 48.7687 18.004 48.7687 18.064C48.7687 18.4 48.8647 18.568 49.0567 18.568C49.2487 18.568 49.4527 18.454 49.6687 18.226C49.8967 17.998 50.1187 17.716 50.3347 17.38C50.5507 17.044 50.7487 16.708 50.9287 16.372C51.1087 16.024 51.2527 15.742 51.3607 15.526C51.4087 15.406 51.4807 15.346 51.5767 15.346C51.6367 15.346 51.6667 15.388 51.6667 15.472C51.6667 15.508 51.6487 15.574 51.6127 15.67C51.4687 15.97 51.2947 16.312 51.0907 16.696C50.8867 17.068 50.6647 17.434 50.4247 17.794C50.1847 18.142 49.9327 18.436 49.6687 18.676C49.4167 18.904 49.1587 19.03 48.8947 19.054ZM52.5948 19.054C52.0908 19.054 51.7488 18.922 51.5688 18.658C51.3888 18.382 51.2988 18.058 51.2988 17.686C51.2988 17.302 51.3528 16.906 51.4608 16.498C51.5688 16.09 51.6648 15.748 51.7488 15.472C51.9408 14.8 52.1808 14.086 52.4688 13.33C52.7688 12.562 53.0928 11.812 53.4408 11.08C53.8008 10.336 54.1548 9.67 54.5028 9.082C54.7788 8.614 55.0728 8.266 55.3848 8.038C55.7088 7.798 55.9908 7.678 56.2308 7.678C56.4228 7.678 56.5728 7.75 56.6808 7.894C56.8008 8.026 56.8608 8.23 56.8608 8.506C56.8608 8.698 56.8248 8.926 56.7528 9.19C56.6928 9.454 56.5848 9.754 56.4288 10.09C56.0088 11.026 55.5048 11.962 54.9168 12.898C54.3408 13.834 53.6088 14.71 52.7208 15.526C52.6728 15.682 52.6068 15.868 52.5228 16.084C52.4508 16.288 52.3848 16.498 52.3248 16.714C52.2528 17.038 52.2168 17.314 52.2168 17.542C52.2168 17.914 52.2888 18.196 52.4328 18.388C52.5888 18.568 52.7748 18.658 52.9908 18.658C53.1828 18.658 53.3868 18.592 53.6028 18.46C53.8188 18.316 54.0228 18.112 54.2148 17.848C54.5028 17.428 54.7608 17.002 54.9888 16.57C55.2288 16.126 55.4088 15.784 55.5288 15.544C55.6008 15.412 55.6788 15.346 55.7628 15.346C55.8228 15.346 55.8528 15.382 55.8528 15.454C55.8528 15.514 55.8348 15.58 55.7988 15.652C55.6908 15.892 55.5468 16.204 55.3668 16.588C55.1988 16.96 54.9828 17.338 54.7188 17.722C54.4668 18.094 54.1608 18.412 53.8008 18.676C53.4528 18.928 53.0508 19.054 52.5948 19.054ZM52.8648 14.95C53.2968 14.506 53.7168 13.996 54.1248 13.42C54.5328 12.832 54.9108 12.226 55.2588 11.602C55.6188 10.966 55.9188 10.366 56.1588 9.802C56.2428 9.622 56.3088 9.424 56.3568 9.208C56.4168 8.992 56.4468 8.812 56.4468 8.668C56.4468 8.5 56.4048 8.416 56.3208 8.416C56.2728 8.416 56.2008 8.464 56.1048 8.56C56.0088 8.644 55.8828 8.794 55.7268 9.01C55.4988 9.31 55.2468 9.718 54.9708 10.234C54.7068 10.75 54.4368 11.302 54.1608 11.89C53.8848 12.478 53.6328 13.048 53.4048 13.6C53.1768 14.14 52.9968 14.59 52.8648 14.95ZM57.1648 19.072C56.7208 19.072 56.3188 18.928 55.9588 18.64C55.6108 18.352 55.4368 17.914 55.4368 17.326C55.4368 16.786 55.5688 16.21 55.8328 15.598C56.0968 14.974 56.4328 14.428 56.8408 13.96C57.1888 13.552 57.5788 13.216 58.0108 12.952C58.4428 12.688 58.8508 12.556 59.2348 12.556C59.4988 12.556 59.7268 12.628 59.9188 12.772C60.1228 12.928 60.2248 13.15 60.2248 13.438C60.2248 13.738 60.1108 14.068 59.8828 14.428C59.6548 14.788 59.3308 15.124 58.9108 15.436C58.7308 15.568 58.5028 15.694 58.2268 15.814C57.9508 15.934 57.6748 16.036 57.3988 16.12C57.1228 16.192 56.8948 16.228 56.7148 16.228C56.6548 16.372 56.5948 16.564 56.5348 16.804C56.4868 17.044 56.4628 17.29 56.4628 17.542C56.4628 17.842 56.5228 18.112 56.6428 18.352C56.7628 18.592 56.9848 18.712 57.3088 18.712C57.7048 18.712 58.0648 18.598 58.3888 18.37C58.7128 18.142 59.0008 17.86 59.2528 17.524C59.5048 17.176 59.7148 16.828 59.8828 16.48C60.0628 16.132 60.2068 15.838 60.3148 15.598C60.3868 15.43 60.4828 15.346 60.6028 15.346C60.6628 15.346 60.6928 15.376 60.6928 15.436C60.6928 15.484 60.6748 15.544 60.6388 15.616C60.4708 15.976 60.2908 16.36 60.0988 16.768C59.9068 17.164 59.6788 17.542 59.4148 17.902C59.1508 18.25 58.8328 18.532 58.4608 18.748C58.1008 18.964 57.6688 19.072 57.1648 19.072ZM56.8408 15.904C57.0088 15.904 57.2908 15.844 57.6868 15.724C58.0828 15.592 58.4428 15.388 58.7668 15.112C59.0788 14.836 59.3188 14.536 59.4868 14.212C59.6548 13.876 59.7388 13.594 59.7388 13.366C59.7388 13.102 59.6428 12.97 59.4508 12.97C59.3068 12.97 59.1088 13.066 58.8568 13.258C58.6048 13.45 58.2928 13.774 57.9208 14.23C57.6928 14.518 57.4768 14.83 57.2728 15.166C57.0688 15.502 56.9248 15.748 56.8408 15.904ZM62.8537 19.018C62.6257 19.018 62.3977 18.928 62.1697 18.748C61.9417 18.556 61.8277 18.25 61.8277 17.83C61.8277 17.506 61.9057 17.134 62.0617 16.714C62.2057 16.306 62.3977 15.91 62.6377 15.526C62.8897 15.142 63.0697 14.83 63.1777 14.59C63.2137 14.494 63.2317 14.41 63.2317 14.338C63.2317 14.122 63.0937 13.966 62.8177 13.87C62.5537 13.774 62.2057 13.72 61.7737 13.708L61.5577 14.302C61.4257 14.686 61.2397 15.136 60.9997 15.652C60.7717 16.168 60.5137 16.666 60.2257 17.146C59.9497 17.626 59.6617 18.01 59.3617 18.298C59.3377 18.322 59.3077 18.334 59.2717 18.334C59.2237 18.334 59.1937 18.304 59.1817 18.244C59.1577 18.184 59.1817 18.112 59.2537 18.028C59.7217 17.404 60.1417 16.714 60.5137 15.958C60.8857 15.19 61.1977 14.41 61.4497 13.618C61.7137 12.826 61.9057 12.094 62.0257 11.422C62.0617 11.23 62.1277 11.092 62.2237 11.008C62.3197 10.912 62.4217 10.864 62.5297 10.864C62.6857 10.864 62.8297 10.942 62.9617 11.098C63.0937 11.242 63.1597 11.452 63.1597 11.728C63.1597 11.776 63.1537 11.83 63.1417 11.89C63.1417 11.95 63.1357 12.01 63.1237 12.07C63.0757 12.322 62.9317 12.562 62.6917 12.79C62.4637 13.006 62.2777 13.168 62.1337 13.276C62.2537 13.288 62.3797 13.3 62.5117 13.312C62.6437 13.312 62.7877 13.312 62.9437 13.312C63.5077 13.312 64.0657 13.276 64.6177 13.204C64.6417 13.276 64.6537 13.33 64.6537 13.366C64.6537 13.522 64.6057 13.72 64.5097 13.96C64.4257 14.2 64.3357 14.416 64.2397 14.608C64.1917 14.716 64.0957 14.914 63.9517 15.202C63.8077 15.478 63.6517 15.796 63.4837 16.156C63.3157 16.504 63.1717 16.852 63.0517 17.2C62.9437 17.536 62.8897 17.824 62.8897 18.064C62.8897 18.376 63.0097 18.532 63.2497 18.532C63.4297 18.532 63.6277 18.418 63.8437 18.19C64.0597 17.95 64.2697 17.662 64.4737 17.326C64.6897 16.978 64.8817 16.642 65.0497 16.318C65.2297 15.982 65.3677 15.718 65.4637 15.526C65.5117 15.406 65.5777 15.346 65.6617 15.346C65.7097 15.346 65.7337 15.388 65.7337 15.472C65.7337 15.52 65.7157 15.592 65.6797 15.688C65.5477 15.964 65.3917 16.276 65.2117 16.624C65.0317 16.972 64.8277 17.314 64.5997 17.65C64.3837 17.986 64.1437 18.28 63.8797 18.532C63.6277 18.772 63.3517 18.928 63.0517 19C63.0157 19.012 62.9497 19.018 62.8537 19.018ZM67.907 19.018C67.679 19.018 67.451 18.928 67.223 18.748C66.995 18.556 66.881 18.25 66.881 17.83C66.881 17.506 66.959 17.134 67.115 16.714C67.259 16.306 67.451 15.91 67.691 15.526C67.943 15.142 68.123 14.83 68.231 14.59C68.267 14.494 68.285 14.41 68.285 14.338C68.285 14.122 68.147 13.966 67.871 13.87C67.607 13.774 67.259 13.72 66.827 13.708L66.611 14.302C66.479 14.686 66.293 15.136 66.053 15.652C65.825 16.168 65.567 16.666 65.279 17.146C65.003 17.626 64.715 18.01 64.415 18.298C64.391 18.322 64.361 18.334 64.325 18.334C64.277 18.334 64.247 18.304 64.235 18.244C64.211 18.184 64.235 18.112 64.307 18.028C64.775 17.404 65.195 16.714 65.567 15.958C65.939 15.19 66.251 14.41 66.503 13.618C66.767 12.826 66.959 12.094 67.079 11.422C67.115 11.23 67.181 11.092 67.277 11.008C67.373 10.912 67.475 10.864 67.583 10.864C67.739 10.864 67.883 10.942 68.015 11.098C68.147 11.242 68.213 11.452 68.213 11.728C68.213 11.776 68.207 11.83 68.195 11.89C68.195 11.95 68.189 12.01 68.177 12.07C68.129 12.322 67.985 12.562 67.745 12.79C67.517 13.006 67.331 13.168 67.187 13.276C67.307 13.288 67.433 13.3 67.565 13.312C67.697 13.312 67.841 13.312 67.997 13.312C68.561 13.312 69.119 13.276 69.671 13.204C69.695 13.276 69.707 13.33 69.707 13.366C69.707 13.522 69.659 13.72 69.563 13.96C69.479 14.2 69.389 14.416 69.293 14.608C69.245 14.716 69.149 14.914 69.005 15.202C68.861 15.478 68.705 15.796 68.537 16.156C68.369 16.504 68.225 16.852 68.105 17.2C67.997 17.536 67.943 17.824 67.943 18.064C67.943 18.376 68.063 18.532 68.303 18.532C68.483 18.532 68.681 18.418 68.897 18.19C69.113 17.95 69.323 17.662 69.527 17.326C69.743 16.978 69.935 16.642 70.103 16.318C70.283 15.982 70.421 15.718 70.517 15.526C70.565 15.406 70.631 15.346 70.715 15.346C70.763 15.346 70.787 15.388 70.787 15.472C70.787 15.52 70.769 15.592 70.733 15.688C70.601 15.964 70.445 16.276 70.265 16.624C70.085 16.972 69.881 17.314 69.653 17.65C69.437 17.986 69.197 18.28 68.933 18.532C68.681 18.772 68.405 18.928 68.105 19C68.069 19.012 68.003 19.018 67.907 19.018ZM68.3884 24.742C67.7644 24.742 67.3204 24.616 67.0564 24.364C66.7924 24.124 66.6604 23.836 66.6604 23.5C66.6604 23.32 66.6844 23.164 66.7324 23.032C66.7804 22.9 66.8524 22.732 66.9484 22.528C67.1164 22.18 67.3504 21.88 67.6504 21.628C67.9504 21.376 68.2744 21.172 68.6224 21.016C69.2464 20.728 69.9544 20.494 70.7464 20.314C71.5504 20.134 72.3184 19.936 73.0504 19.72C73.2784 19.324 73.4884 18.874 73.6804 18.37C73.8724 17.854 74.0464 17.356 74.2024 16.876C74.3584 16.384 74.4844 15.982 74.5804 15.67C74.4364 15.934 74.2504 16.258 74.0224 16.642C73.8064 17.014 73.5604 17.38 73.2844 17.74C73.0084 18.1 72.7084 18.4 72.3844 18.64C72.0724 18.88 71.7424 19 71.3944 19C71.2624 19 71.1004 18.97 70.9084 18.91C70.7284 18.85 70.5664 18.742 70.4224 18.586C70.2904 18.418 70.2244 18.172 70.2244 17.848C70.2244 17.536 70.2964 17.236 70.4404 16.948C70.5964 16.648 70.7404 16.36 70.8724 16.084C70.8364 16.084 70.7944 16.072 70.7464 16.048C70.7104 16.024 70.6924 15.988 70.6924 15.94C70.6924 15.892 70.7044 15.844 70.7284 15.796C70.7764 15.7 70.8304 15.598 70.8904 15.49C70.9504 15.382 71.0044 15.268 71.0524 15.148C71.2324 14.776 71.4124 14.422 71.5924 14.086C71.7724 13.738 71.9284 13.432 72.0604 13.168C72.1924 12.904 72.4204 12.772 72.7444 12.772H73.8604C73.7764 12.844 73.6684 12.928 73.5364 13.024C73.4164 13.108 73.3024 13.24 73.1944 13.42C72.8704 13.972 72.5884 14.506 72.3484 15.022C72.1084 15.526 71.8504 16.066 71.5744 16.642C71.4424 16.918 71.3464 17.17 71.2864 17.398C71.2264 17.626 71.1964 17.824 71.1964 17.992C71.1964 18.388 71.3284 18.586 71.5924 18.586C71.8804 18.586 72.2284 18.352 72.6364 17.884C72.9724 17.488 73.3084 17.02 73.6444 16.48C73.9924 15.928 74.3224 15.364 74.6344 14.788C74.9584 14.2 75.2404 13.66 75.4804 13.168C75.6124 12.904 75.8464 12.772 76.1824 12.772H77.1724C76.8244 13.012 76.5544 13.324 76.3624 13.708C76.1824 14.092 75.9784 14.584 75.7504 15.184C75.4984 15.844 75.2584 16.528 75.0304 17.236C74.8144 17.932 74.5684 18.634 74.2924 19.342C74.6884 19.21 75.1324 19.006 75.6244 18.73C76.1284 18.454 76.5544 18.058 76.9024 17.542C77.1784 17.134 77.4124 16.744 77.6044 16.372C77.8084 15.988 77.9524 15.712 78.0364 15.544C78.0844 15.424 78.1504 15.364 78.2344 15.364C78.3184 15.364 78.3604 15.418 78.3604 15.526C78.3604 15.586 78.3424 15.652 78.3064 15.724C77.9944 16.348 77.7124 16.876 77.4604 17.308C77.2204 17.728 76.9504 18.094 76.6504 18.406C76.3624 18.706 76.0084 18.97 75.5884 19.198C75.1684 19.438 74.6344 19.678 73.9864 19.918C73.6984 20.434 73.3684 20.968 72.9964 21.52C72.6364 22.084 72.2224 22.606 71.7544 23.086C71.2984 23.578 70.7884 23.974 70.2244 24.274C69.6724 24.586 69.0604 24.742 68.3884 24.742ZM67.9564 24.382C68.3524 24.382 68.7604 24.262 69.1804 24.022C69.6004 23.782 70.0084 23.476 70.4044 23.104C70.8004 22.744 71.1604 22.372 71.4844 21.988C71.8204 21.616 72.0904 21.286 72.2944 20.998C72.3544 20.914 72.4204 20.806 72.4924 20.674C72.5644 20.542 72.6364 20.416 72.7084 20.296C72.1204 20.452 71.4724 20.62 70.7644 20.8C70.0684 20.992 69.4624 21.202 68.9464 21.43C68.3704 21.67 67.9204 22.012 67.5964 22.456C67.2604 22.9 67.0924 23.296 67.0924 23.644C67.0924 23.86 67.1644 24.034 67.3084 24.166C67.4404 24.31 67.6564 24.382 67.9564 24.382Z" fill="white"/>
</g>
</svg>
