<svg width="27" height="29" viewBox="0 0 27 29" fill="none" xmlns="http://www.w3.org/2000/svg">
<path d="M1 5V20.9857C1 22.2786 2.04815 23.3268 3.34111 23.3268C4.83237 23.3268 5.94353 24.7025 5.62984 26.1604L5.41176 27.1739C5.24226 27.6364 5.80899 28.0142 6.17072 27.6799L10.3508 23.8162C10.6912 23.5015 11.1377 23.3268 11.6013 23.3268H22C24.2091 23.3268 26 21.5359 26 19.3268V5C26 2.79086 24.2091 1 22 1H5C2.79086 1 1 2.79086 1 5Z" stroke="#1A262D" stroke-width="1.2"/>
<path d="M13.4101 19.5544C13.1777 19.8067 12.7814 19.8132 12.5409 19.5685L9.52056 16.4955C8.57975 15.2269 8.43089 14.0184 9.12331 12.8618C9.14699 12.8222 9.1764 12.7853 9.20981 12.7536C10.3194 11.6988 11.8253 11.8212 12.8424 12.6878C13.1704 12.9673 13.7077 12.9689 14.021 12.673C14.9819 11.7653 16.084 11.8436 17.189 12.7374C17.2148 12.7583 17.2397 12.7825 17.261 12.808C18.3405 14.1021 17.15 15.2396 16.3498 16.3632L13.4101 19.5544Z" stroke="#1A262D" stroke-miterlimit="8.7" stroke-linecap="round" stroke-linejoin="bevel"/>
<line x1="5.63965" y1="8.82056" x2="18.5009" y2="8.82056" stroke="#1A262D" stroke-linecap="round"/>
<line x1="5.63965" y1="6.48639" x2="16.3684" y2="6.48639" stroke="#1A262D" stroke-linecap="round"/>
<line x1="5.63965" y1="4.15283" x2="13.1696" y2="4.15283" stroke="#1A262D" stroke-linecap="round"/>
</svg>
