<svg width="27" height="30" viewBox="0 0 27 30" fill="none" xmlns="http://www.w3.org/2000/svg">
<path d="M14.7361 4.51132L15.7137 1.71117C15.8557 1.30443 16.2417 1.03436 16.6725 1.03457C17.7006 1.03505 19.1181 1.01744 20.24 1.00637C20.6746 1.00209 21.0615 1.28019 21.1971 1.69321L22.1321 4.54132" stroke="#1A262D" stroke-width="1.2"/>
<path d="M20.0021 29H7.16C5.14588 29 4.13882 29 3.35394 28.6456C2.4662 28.2447 1.75522 27.5338 1.35439 26.646C1 25.8611 1 24.8541 1 22.84V10.8752C1 8.86109 1 7.85403 1.35439 7.06915C1.75522 6.18141 2.4662 5.47043 3.35394 5.0696C4.13882 4.71521 5.14588 4.71521 7.16 4.71521H13.5H19.84C21.8541 4.71521 22.8612 4.71521 23.6461 5.0696C24.5338 5.47043 25.2448 6.18141 25.6456 7.06915C26 7.85403 26 8.86109 26 10.8752V22.9308C26 24.8395 26 25.7938 25.6791 26.5459C25.2807 27.4796 24.5421 28.2269 23.6132 28.6364C22.8649 28.9661 21.9106 28.9774 20.0021 29V29Z" stroke="#1A262D" stroke-width="1.2" stroke-miterlimit="9.3" stroke-linecap="round" stroke-linejoin="bevel"/>
<path d="M7 5.0777L7 26.4682L7 28.6375" stroke="#1A262D"/>
<path d="M16.0899 22.2677C15.8555 22.6023 15.3625 22.6099 15.1179 22.2826L12.8752 19.2815C12.1299 17.9599 12.0128 16.7009 12.5629 15.4962C12.5803 15.458 12.6028 15.4212 12.629 15.3884C13.4221 14.3965 14.4712 14.4046 15.2598 15.0804C15.6349 15.4019 16.3043 15.3975 16.6616 15.0564C17.3655 14.3845 18.1514 14.5318 18.9392 15.3685C18.9613 15.3919 18.982 15.4184 18.9992 15.4456C19.8522 16.7917 18.9108 17.975 18.2778 19.1439L16.0899 22.2677Z" stroke="#1A262D" stroke-miterlimit="8.7" stroke-linecap="round" stroke-linejoin="bevel"/>
<path d="M5.6665 4.35282V3.54053C5.6665 2.98824 6.11422 2.54053 6.6665 2.54053H9.6665C10.2188 2.54053 10.6665 2.98824 10.6665 3.54053V4.35282" stroke="#1A262D" stroke-width="1.2"/>
<path d="M21.6089 17.6939C21.6089 21.6347 18.8706 24.6981 15.6431 24.6981C12.4155 24.6981 9.67725 21.6347 9.67725 17.6939C9.67725 13.7531 12.4155 10.6897 15.6431 10.6897C18.8706 10.6897 21.6089 13.7531 21.6089 17.6939Z" stroke="#1A262D"/>
</svg>
