<svg width="25" height="28" viewBox="0 0 25 28" fill="none" xmlns="http://www.w3.org/2000/svg">
<rect x="0.6" y="0.6" width="23.8" height="26.8" rx="3.4" stroke="#1A262D" stroke-width="1.2"/>
<path d="M12.7654 21.3098C12.534 21.5538 12.1474 21.5601 11.9083 21.3237L8.66659 18.1198C7.6668 16.8102 7.50908 15.5626 8.24591 14.3687C8.27026 14.3292 8.30036 14.2925 8.3344 14.261C9.53187 13.1533 11.1648 13.3009 12.2459 14.2344C12.5668 14.5116 13.0908 14.5143 13.3977 14.2216C14.4302 13.2365 15.6202 13.3055 16.8132 14.244C16.8393 14.2645 16.8645 14.2884 16.8861 14.3135C18.0352 15.6494 16.7701 16.8236 15.9198 17.9833L12.7654 21.3098Z" stroke="#1A262D" stroke-miterlimit="8.7" stroke-linecap="round" stroke-linejoin="bevel"/>
<path d="M9.12771 0.378296L9.12769 6.68632C9.12769 7.27696 9.89128 7.51222 10.2237 7.02398L11.6849 4.87757C12.0173 4.38933 12.7809 4.62458 12.7809 5.21522V8.03382C12.7809 8.3652 13.0495 8.63382 13.3809 8.63382H15.2721C15.6035 8.63382 15.8721 8.3652 15.8721 8.03382V0.378296" stroke="#1A262D"/>
</svg>
