<svg width="25" height="28" viewBox="0 0 25 28" fill="none" xmlns="http://www.w3.org/2000/svg">
<path d="M4 2.32821H21C22.8778 2.32821 24.4 3.85044 24.4 5.72821V24C24.4 25.8777 22.8778 27.4 21 27.4H4C2.12223 27.4 0.6 25.8777 0.6 24V5.72821C0.6 3.85045 2.12223 2.32821 4 2.32821Z" stroke="#1A262D" stroke-width="1.2"/>
<path d="M13.0261 21.1636C12.7957 21.4014 12.4162 21.4075 12.1782 21.1774L8.96571 18.0713C7.97565 16.8026 7.81906 15.5939 8.54784 14.4373C8.57266 14.3979 8.60325 14.3614 8.63779 14.3302C9.82417 13.2576 11.4414 13.4009 12.5121 14.3057C12.8321 14.576 13.3468 14.5787 13.653 14.293C14.6759 13.3384 15.8546 13.4051 17.0363 14.3142C17.0626 14.3344 17.088 14.358 17.1099 14.3829C18.2472 15.6773 16.9941 16.8151 16.1518 17.939L13.0261 21.1636Z" stroke="#1A262D" stroke-miterlimit="8.7" stroke-linecap="round" stroke-linejoin="bevel"/>
<line x1="1.10278" y1="8.73301" x2="23.965" y2="8.73301" stroke="#1A262D" stroke-width="1.2"/>
<line x1="6.48232" y1="0.6" x2="6.48232" y2="4.49094" stroke="#1A262D" stroke-width="1.2" stroke-linecap="round"/>
<line x1="18.2472" y1="0.6" x2="18.2472" y2="4.49094" stroke="#1A262D" stroke-width="1.2" stroke-linecap="round"/>
</svg>
