<svg width="25" height="29" viewBox="0 0 25 29" fill="none" xmlns="http://www.w3.org/2000/svg">
<path d="M15.025 22.3245C15.025 25.5949 11.8878 28.4 7.8125 28.4C3.73716 28.4 0.6 25.5949 0.6 22.3245C0.6 19.0541 3.73716 16.249 7.8125 16.249C11.8878 16.249 15.025 19.0541 15.025 22.3245Z" stroke="#1A262D" stroke-width="1.2"/>
<path d="M24.4 18.7642C24.4 22.0346 21.2628 24.8397 17.1875 24.8397C13.1122 24.8397 9.975 22.0346 9.975 18.7642C9.975 15.4938 13.1122 12.6887 17.1875 12.6887C21.2628 12.6887 24.4 15.4938 24.4 18.7642Z" stroke="#1A262D" stroke-width="1.2"/>
<path d="M13.4022 8.96877C13.1709 9.21182 12.7853 9.21807 12.5464 8.98264L9.23045 5.71585C8.21038 4.38396 8.0497 3.11516 8.80197 1.90095C8.82641 1.86151 8.8566 1.82484 8.8907 1.79337C10.1175 0.661251 11.7928 0.817359 12.8956 1.77787C13.2148 2.05588 13.7373 2.05873 14.0425 1.76541C15.0991 0.750039 16.3184 0.816915 17.5407 1.77573C17.5668 1.79619 17.5921 1.82007 17.6138 1.84516C18.7869 3.20366 17.4962 4.3977 16.6287 5.57707L13.4022 8.96877Z" stroke="#1A262D" stroke-width="1.2" stroke-miterlimit="8.7" stroke-linecap="round" stroke-linejoin="bevel"/>
</svg>
