<svg width="113" height="56" viewBox="0 0 113 56" fill="none" xmlns="http://www.w3.org/2000/svg">
<path d="M101.423 18.4261H20.5623C20.017 14.7136 16.1757 11.835 11.5092 11.835C6.46893 11.835 2.38281 15.1916 2.38281 19.3316C2.38281 22.2715 4.44797 24.8092 7.44721 26.0373V41.8219C7.44721 44.4932 10.0833 46.6587 13.335 46.6587H25.5352L31.5029 55.1493L37.4712 46.6587H101.423C104.674 46.6587 107.311 44.4932 107.311 41.8219V23.2625C107.311 20.5911 104.674 18.4261 101.423 18.4261Z" fill="#E1E1E1"/>
<path d="M104.124 15.7578H16.0362C12.7845 15.7578 10.1484 17.9232 10.1484 20.5943V39.154C10.1484 41.825 12.7845 43.9904 16.0362 43.9904H28.2365L34.2043 52.4811L40.1722 43.9904H104.124C107.375 43.9904 110.012 41.825 110.012 39.154V20.5943C110.012 17.9232 107.375 15.7578 104.124 15.7578Z" fill="#FC7CC6"/>
<path d="M106.112 14.2119H18.0247C14.773 14.2119 12.1367 16.3777 12.1367 19.0487V37.6081C12.1367 40.2795 14.773 42.4449 18.0247 42.4449H30.2249L36.1928 50.9355L42.1606 42.4449H106.112C109.363 42.4449 112 40.2795 112 37.6081V19.0487C112 16.3777 109.363 14.2119 106.112 14.2119Z" stroke="#8671EA" stroke-width="2" stroke-miterlimit="10"/>
<path d="M23.3425 16.6636C23.3425 20.804 19.2567 24.1603 14.2163 24.1603C9.17601 24.1603 5.08984 20.804 5.08984 16.6636C5.08984 12.5232 9.17601 9.16699 14.2163 9.16699C19.2567 9.16699 23.3425 12.5232 23.3425 16.6636Z" fill="#FC7CC6"/>
<path d="M23.3425 16.6636C23.3425 20.804 19.2567 24.1603 14.2163 24.1603C9.17601 24.1603 5.08984 20.804 5.08984 16.6636C5.08984 12.5232 9.17601 9.16699 14.2163 9.16699C19.2567 9.16699 23.3425 12.5232 23.3425 16.6636Z" stroke="#8671EA" stroke-width="2" stroke-miterlimit="10"/>
<path d="M7.09737 0.228516L4.42188 1.19416L9.31849 8.00894L9.89362 7.80057L7.09737 0.228516Z" fill="#8671EA"/>
<path d="M1.9835 3.31348L0 4.81235L6.74978 9.55507L7.17772 9.23207L1.9835 3.31348Z" fill="#8671EA"/>
<path d="M10.6523 0.185587L13.3367 0L13.0223 7.292L12.4439 7.33159L10.6523 0.185591" fill="#8671EA"/>
<path d="M17.7585 34V25.2727H19.6037V28.8736H23.3494V25.2727H25.1903V34H23.3494V30.3949H19.6037V34H17.7585ZM26.7116 34V25.2727H32.5923V26.794H28.5568V28.8736H32.2898V30.3949H28.5568V32.4787H32.6094V34H26.7116ZM34.0593 34V25.2727H35.9045V32.4787H39.646V34H34.0593ZM40.8679 34V25.2727H44.3111C44.973 25.2727 45.5369 25.3991 46.0028 25.652C46.4688 25.902 46.8239 26.25 47.0682 26.696C47.3153 27.1392 47.4389 27.6506 47.4389 28.2301C47.4389 28.8097 47.3139 29.321 47.0639 29.7642C46.8139 30.2074 46.4517 30.5526 45.9773 30.7997C45.5057 31.0469 44.9347 31.1705 44.2642 31.1705H42.0696V29.6918H43.9659C44.321 29.6918 44.6136 29.6307 44.8438 29.5085C45.0767 29.3835 45.25 29.2116 45.3636 28.9929C45.4801 28.7713 45.5384 28.517 45.5384 28.2301C45.5384 27.9403 45.4801 27.6875 45.3636 27.4716C45.25 27.2528 45.0767 27.0838 44.8438 26.9645C44.6108 26.8423 44.3153 26.7812 43.9574 26.7812H42.7131V34H40.8679ZM48.6374 34V25.2727H54.4158V26.794H50.4826V28.8736H54.0323V30.3949H50.4826V34H48.6374ZM61.0476 25.2727H62.8928V30.9403C62.8928 31.5767 62.7408 32.1335 62.4368 32.6108C62.1357 33.0881 61.7138 33.4602 61.1712 33.7273C60.6286 33.9915 59.9964 34.1236 59.2749 34.1236C58.5504 34.1236 57.9169 33.9915 57.3743 33.7273C56.8317 33.4602 56.4098 33.0881 56.1087 32.6108C55.8075 32.1335 55.657 31.5767 55.657 30.9403V25.2727H57.5021V30.7827C57.5021 31.1151 57.5746 31.4105 57.7195 31.669C57.8672 31.9276 58.0746 32.1307 58.3416 32.2784C58.6087 32.4261 58.9197 32.5 59.2749 32.5C59.6328 32.5 59.9439 32.4261 60.2081 32.2784C60.4751 32.1307 60.6811 31.9276 60.826 31.669C60.9737 31.4105 61.0476 31.1151 61.0476 30.7827V25.2727ZM64.4109 34V25.2727H66.256V32.4787H69.9975V34H64.4109Z" fill="white"/>
<path d="M76.4261 26.794V25.2727H83.5938V26.794H80.9219V34H79.098V26.794H76.4261ZM86.6193 25.2727V34H84.7741V25.2727H86.6193ZM88.1374 34V25.2727H91.5806C92.2425 25.2727 92.8065 25.3991 93.2724 25.652C93.7383 25.902 94.0934 26.25 94.3377 26.696C94.5849 27.1392 94.7085 27.6506 94.7085 28.2301C94.7085 28.8097 94.5835 29.321 94.3335 29.7642C94.0835 30.2074 93.7212 30.5526 93.2468 30.7997C92.7752 31.0469 92.2042 31.1705 91.5337 31.1705H89.3391V29.6918H91.2354C91.5906 29.6918 91.8832 29.6307 92.1133 29.5085C92.3462 29.3835 92.5195 29.2116 92.6332 28.9929C92.7496 28.7713 92.8079 28.517 92.8079 28.2301C92.8079 27.9403 92.7496 27.6875 92.6332 27.4716C92.5195 27.2528 92.3462 27.0838 92.1133 26.9645C91.8803 26.8423 91.5849 26.7812 91.2269 26.7812H89.9826V34H88.1374ZM100.641 27.7827C100.607 27.4389 100.461 27.1719 100.202 26.9815C99.9439 26.7912 99.593 26.696 99.1499 26.696C98.8487 26.696 98.5945 26.7386 98.3871 26.8239C98.1797 26.9062 98.0206 27.0213 97.9098 27.169C97.8018 27.3168 97.7479 27.4844 97.7479 27.6719C97.7422 27.8281 97.7749 27.9645 97.8459 28.081C97.9197 28.1974 98.0206 28.2983 98.1484 28.3835C98.2763 28.4659 98.424 28.5384 98.5916 28.6009C98.7592 28.6605 98.9382 28.7116 99.1286 28.7543L99.9126 28.9418C100.293 29.027 100.643 29.1406 100.961 29.2827C101.279 29.4247 101.555 29.5994 101.788 29.8068C102.021 30.0142 102.201 30.2585 102.329 30.5398C102.46 30.821 102.526 31.1435 102.529 31.5071C102.526 32.0412 102.39 32.5043 102.12 32.8963C101.853 33.2855 101.467 33.5881 100.961 33.804C100.458 34.017 99.8516 34.1236 99.1413 34.1236C98.4368 34.1236 97.8232 34.0156 97.3004 33.7997C96.7805 33.5838 96.3743 33.2642 96.0817 32.8409C95.7919 32.4148 95.6399 31.8878 95.6257 31.2599H97.4112C97.4311 31.5526 97.5149 31.7969 97.6626 31.9929C97.8132 32.1861 98.0135 32.3324 98.2635 32.4318C98.5163 32.5284 98.8018 32.5767 99.12 32.5767C99.4325 32.5767 99.7038 32.5312 99.9339 32.4403C100.167 32.3494 100.347 32.223 100.475 32.0611C100.603 31.8991 100.667 31.7131 100.667 31.5028C100.667 31.3068 100.609 31.142 100.492 31.0085C100.379 30.875 100.211 30.7614 99.9893 30.6676C99.7706 30.5739 99.5021 30.4886 99.1839 30.4119L98.2337 30.1733C97.4979 29.9943 96.9169 29.7145 96.4908 29.3338C96.0646 28.9531 95.853 28.4403 95.8558 27.7955C95.853 27.267 95.9936 26.8054 96.2777 26.4105C96.5646 26.0156 96.9581 25.7074 97.4581 25.4858C97.9581 25.2642 98.5263 25.1534 99.1626 25.1534C99.8104 25.1534 100.376 25.2642 100.859 25.4858C101.344 25.7074 101.722 26.0156 101.992 26.4105C102.262 26.8054 102.401 27.2628 102.41 27.7827H100.641ZM105.905 25.2727L105.739 31.3835H104.179L104.009 25.2727H105.905ZM104.959 34.1108C104.678 34.1108 104.436 34.0114 104.235 33.8125C104.033 33.6108 103.934 33.3693 103.936 33.0881C103.934 32.8097 104.033 32.571 104.235 32.3722C104.436 32.1733 104.678 32.0739 104.959 32.0739C105.229 32.0739 105.466 32.1733 105.671 32.3722C105.875 32.571 105.979 32.8097 105.982 33.0881C105.979 33.2756 105.929 33.4474 105.833 33.6037C105.739 33.7571 105.615 33.8807 105.462 33.9744C105.309 34.0653 105.141 34.1108 104.959 34.1108Z" fill="white"/>
</svg>
