<svg width="53" height="53" viewBox="0 0 53 53" fill="none" xmlns="http://www.w3.org/2000/svg">
<path d="M27.3836 22.5039C25.4976 22.5032 23.6299 22.8741 21.8873 23.5955C20.1447 24.3169 18.5614 25.3746 17.2277 26.7082C15.8941 28.0418 14.8364 29.6252 14.115 31.3678C13.3936 33.1104 13.0227 34.978 13.0234 36.864H15.0761C15.0761 33.5995 16.3729 30.4687 18.6813 28.1603C20.9897 25.852 24.1205 24.5552 27.385 24.5552C30.6495 24.5552 33.7803 25.852 36.0887 28.1603C38.3971 30.4687 39.6939 33.5995 39.6939 36.864H41.7437C41.7448 34.9779 41.3742 33.1101 40.6529 31.3673C39.9316 29.6246 38.8739 28.0411 37.5402 26.7074C36.2066 25.3737 34.6231 24.316 32.8803 23.5947C31.1375 22.8734 29.2697 22.5028 27.3836 22.5039Z" fill="#4ACFFF" stroke="#00B8F0" stroke-width="0.259459" stroke-linecap="round" stroke-linejoin="round"/>
<path d="M13.0225 36.8635C13.0225 34.9777 13.3939 33.1104 14.1156 31.3681C14.8372 29.6259 15.895 28.0428 17.2285 26.7094C18.5619 25.3759 20.145 24.3182 21.8872 23.5965C23.6295 22.8748 25.4968 22.5034 27.3826 22.5034C29.2684 22.5034 31.1357 22.8748 32.878 23.5965C34.6202 24.3182 36.2033 25.3759 37.5368 26.7094C38.8702 28.0428 39.928 29.6259 40.6496 31.3681C41.3713 33.1104 41.7427 34.9777 41.7427 36.8635H43.7954C43.7954 32.511 42.0664 28.3367 38.9886 25.2589C35.9109 22.1812 31.7366 20.4521 27.384 20.4521C23.0315 20.4521 18.8572 22.1812 15.7794 25.2589C12.7017 28.3367 10.9727 32.511 10.9727 36.8635H13.0225Z" fill="#00F5BC" stroke="#00DBA8" stroke-width="0.259459" stroke-linecap="round" stroke-linejoin="round"/>
<path d="M10.9725 36.864C10.9725 32.5114 12.7015 28.3371 15.7792 25.2594C18.857 22.1817 23.0313 20.4526 27.3838 20.4526C31.7364 20.4526 35.9107 22.1817 38.9884 25.2594C42.0662 28.3371 43.7952 32.5114 43.7952 36.864H45.8393C45.8393 31.9674 43.8941 27.2714 40.4317 23.8089C36.9693 20.3465 32.2733 18.4014 27.3767 18.4014C22.4801 18.4014 17.7841 20.3465 14.3216 23.8089C10.8592 27.2714 8.91406 31.9674 8.91406 36.864H10.9725Z" fill="#FFF48C" stroke="#FFE500" stroke-width="0.259459" stroke-linecap="round" stroke-linejoin="round"/>
<path d="M8.9209 36.8635C8.9209 31.9669 10.8661 27.2708 14.3285 23.8084C17.7909 20.346 22.4869 18.4009 27.3835 18.4009C32.2801 18.4009 36.9762 20.346 40.4386 23.8084C43.901 27.2708 45.8461 31.9669 45.8461 36.8635H47.8988C47.8988 31.4229 45.7375 26.2051 41.8905 22.358C38.0434 18.5109 32.8256 16.3496 27.385 16.3496C21.9443 16.3496 16.7266 18.5109 12.8795 22.358C9.03237 26.2051 6.87109 31.4229 6.87109 36.8635H8.9209Z" fill="#FF866E" stroke="#FF6242" stroke-width="0.259459" stroke-linecap="round" stroke-linejoin="round"/>
<path d="M46.0134 35.5434C45.0291 35.5401 44.0656 35.8265 43.243 36.3671C42.5819 35.6683 41.7832 35.1141 40.8972 34.7394C40.0113 34.3647 39.0572 34.1776 38.0954 34.19C37.1335 34.2024 36.1846 34.414 35.3086 34.8113C34.4326 35.2087 33.6484 35.7833 33.0054 36.4989C31.5082 35.0193 29.4881 34.1895 27.3832 34.1895C25.2782 34.1895 23.2581 35.0193 21.7609 36.4989C21.118 35.7833 20.3338 35.2087 19.4577 34.8113C18.5817 34.414 17.6328 34.2024 16.6709 34.19C15.7091 34.1776 14.7551 34.3647 13.8691 34.7394C12.9831 35.1141 12.1844 35.6683 11.5233 36.3671C10.7011 35.8268 9.73816 35.5404 8.75437 35.5434C6.14018 35.5434 4.02734 37.4801 4.02734 39.8679C4.02734 42.2558 6.14448 44.191 8.75437 44.191C9.59964 44.1933 10.432 43.9835 11.1752 43.5808C12.3584 45.1565 14.3437 46.1907 16.5926 46.1907C18.189 46.2016 19.7396 45.6583 20.9802 44.6537C22.3037 46.6204 24.6787 47.9325 27.3903 47.9325C30.1019 47.9325 32.4783 46.6204 33.8019 44.6537C35.0425 45.6583 36.5931 46.2016 38.1894 46.1907C40.4383 46.1907 42.4237 45.1565 43.6069 43.5808C44.348 43.9823 45.1777 44.1921 46.0205 44.191C48.6333 44.191 50.7476 42.2544 50.7476 39.8679C50.7476 37.4815 48.6261 35.5434 46.0134 35.5434Z" fill="white"/>
<path d="M48.7415 36.3369C48.8514 36.6894 48.9074 37.0564 48.9077 37.4256C48.9077 39.6258 46.9567 41.4092 44.5488 41.4092C44.2536 41.4094 43.9591 41.3816 43.6693 41.3261C43.2676 41.2447 42.8531 41.2498 42.4535 41.341C42.0539 41.4321 41.6783 41.6072 41.3516 41.8546C40.2132 42.7712 38.7937 43.2674 37.3322 43.2599C36.5085 43.2612 35.6919 43.1067 34.9257 42.8043C33.9645 42.4233 32.7985 42.5852 32.0608 43.2011C30.7384 44.2769 29.0858 44.8642 27.3811 44.8642C25.6764 44.8642 24.0237 44.2769 22.7013 43.2011C21.965 42.5852 20.8005 42.4219 19.8364 42.8043C19.0716 43.1061 18.2565 43.2607 17.4343 43.2599C15.9732 43.2697 14.5533 42.776 13.4134 41.8618C13.087 41.6144 12.7116 41.4393 12.3122 41.3482C11.9128 41.257 11.4987 41.2519 11.0972 41.3332C10.8073 41.3887 10.5128 41.4165 10.2177 41.4163C7.80975 41.4163 5.85734 39.6329 5.85734 37.4327C5.85732 37.0634 5.91384 36.6963 6.02494 36.3441C4.8131 37.1262 4.01953 38.4154 4.01953 39.875C4.01953 42.2615 6.13667 44.1981 8.74656 44.1981C9.59496 44.2 10.4301 43.9877 11.1745 43.5807C12.3577 45.1564 14.3431 46.1906 16.592 46.1906C18.1883 46.2015 19.739 45.6583 20.9795 44.6536C22.3031 46.6203 24.6781 47.9325 27.3897 47.9325C30.1013 47.9325 32.4777 46.6203 33.8012 44.6536C35.0418 45.6583 36.5925 46.2015 38.1888 46.1906C40.4377 46.1906 42.423 45.1564 43.6062 43.5807C44.3471 43.9829 45.177 44.1927 46.0199 44.1909C48.6326 44.1909 50.7469 42.2543 50.7469 39.8679C50.744 38.4082 49.9519 37.119 48.7415 36.3369Z" fill="#E5F8FF"/>
<path d="M46.0134 35.5434C45.0291 35.5401 44.0656 35.8265 43.243 36.3671C42.5819 35.6683 41.7832 35.1141 40.8972 34.7394C40.0113 34.3647 39.0572 34.1776 38.0954 34.19C37.1335 34.2024 36.1846 34.414 35.3086 34.8113C34.4326 35.2087 33.6484 35.7833 33.0054 36.4989C31.5082 35.0193 29.4881 34.1895 27.3832 34.1895C25.2782 34.1895 23.2581 35.0193 21.7609 36.4989C21.118 35.7833 20.3338 35.2087 19.4577 34.8113C18.5817 34.414 17.6328 34.2024 16.6709 34.19C15.7091 34.1776 14.7551 34.3647 13.8691 34.7394C12.9831 35.1141 12.1844 35.6683 11.5233 36.3671C10.7011 35.8268 9.73816 35.5404 8.75437 35.5434C6.14018 35.5434 4.02734 37.4801 4.02734 39.8679C4.02734 42.2558 6.14448 44.191 8.75437 44.191C9.59964 44.1933 10.432 43.9835 11.1752 43.5808C12.3584 45.1565 14.3437 46.1907 16.5926 46.1907C18.189 46.2016 19.7396 45.6583 20.9802 44.6537C22.3037 46.6204 24.6787 47.9325 27.3903 47.9325C30.1019 47.9325 32.4783 46.6204 33.8019 44.6537C35.0425 45.6583 36.5931 46.2016 38.1894 46.1907C40.4383 46.1907 42.4237 45.1565 43.6069 43.5808C44.348 43.9823 45.1777 44.1921 46.0205 44.191C48.6333 44.191 50.7476 42.2544 50.7476 39.8679C50.7476 37.4815 48.6261 35.5434 46.0134 35.5434Z" stroke="#45413C" stroke-width="0.259459" stroke-linecap="round" stroke-linejoin="round"/>
<path d="M24.7361 42.3088C25.5288 42.3088 26.1714 41.9054 26.1714 41.4078C26.1714 40.9102 25.5288 40.5068 24.7361 40.5068C23.9434 40.5068 23.3008 40.9102 23.3008 41.4078C23.3008 41.9054 23.9434 42.3088 24.7361 42.3088Z" fill="#F0F0F0"/>
<path d="M42.9571 24.8829C42.8465 24.7113 42.7032 24.5632 42.5353 24.447C42.3675 24.3309 42.1784 24.2489 41.9789 24.2058C41.7794 24.1627 41.5733 24.1593 41.3725 24.1959C41.1716 24.2324 40.98 24.3082 40.8084 24.4188C37.9951 26.2337 37.0655 26.0561 35.5242 25.761C35.2635 25.7108 34.987 25.6579 34.6876 25.6106C36.5438 24.0912 37.8853 22.0356 38.529 19.7248C39.1726 17.4141 39.087 14.9609 38.2836 12.7007C37.4803 10.4405 35.9986 8.48355 34.041 7.09733C32.0834 5.71112 29.7454 4.9633 27.3467 4.95611C24.948 4.94891 22.6056 5.68269 20.6397 7.05714C18.6738 8.43159 17.1804 10.3796 16.3635 12.635C15.5467 14.8903 15.4463 17.3429 16.076 19.6575C16.7058 21.972 18.035 24.0356 19.882 25.5662C18.3063 25.2668 16.2322 24.3414 14.3671 21.8032C14.1148 21.4977 13.7553 21.3002 13.3622 21.2512C12.969 21.2021 12.572 21.3052 12.2524 21.5394C11.9327 21.7735 11.7147 22.121 11.6429 22.5106C11.5711 22.9002 11.651 23.3026 11.8661 23.6353C15.0834 28.0156 18.9022 28.792 21.2041 28.792C21.3474 28.792 21.4734 28.792 21.5995 28.7834C21.313 32.545 22.5077 36.4068 23.5677 40.2901C23.7439 40.8201 23.9673 41.1811 24.4586 41.1811C24.6528 41.182 24.8418 41.1193 24.997 41.0027C25.1522 40.886 25.265 40.7218 25.3181 40.5351C25.7263 39.1027 25.7894 38.1873 25.9183 37.57C26.295 35.7551 28.7545 36.1762 29.1298 36.2636C30.3889 36.5587 32.1193 38.6887 36.5584 35.3569C36.7632 35.2785 36.9323 35.1279 37.0337 34.9335C37.1352 34.7391 37.162 34.5143 37.1092 34.3015C37.0563 34.0887 36.9275 33.9026 36.7468 33.7782C36.5662 33.6539 36.3463 33.5999 36.1287 33.6265C34.0301 34.4859 31.8987 34.9515 32.2024 32.7183L32.5934 28.5643C33.3848 28.5507 34.1749 28.632 34.9469 28.8063C35.6331 28.9544 36.3321 29.0359 37.034 29.0499C38.4922 29.0499 40.0693 28.5915 42.4987 27.0258C42.843 26.8019 43.0845 26.4506 43.1704 26.049C43.2563 25.6474 43.1796 25.2281 42.9571 24.8829Z" fill="white" stroke="#45413C" stroke-width="0.259459" stroke-linecap="round" stroke-linejoin="round"/>
<path d="M27.734 15.1209C27.734 15.3405 27.6468 15.5511 27.4915 15.7064C27.3362 15.8616 27.1257 15.9489 26.9061 15.9489C26.6865 15.9489 26.4759 15.8616 26.3206 15.7064C26.1654 15.5511 26.0781 15.3405 26.0781 15.1209V14.293C26.3318 14.4324 26.6166 14.5055 26.9061 14.5055C27.1955 14.5055 27.4803 14.4324 27.734 14.293V15.1209Z" fill="#FFA694" stroke="#45413C" stroke-width="0.259459" stroke-linecap="round" stroke-linejoin="round"/>
<path d="M28.6194 13.7182C28.8723 13.5057 29.1914 13.3881 29.5217 13.3858C29.8519 13.3834 30.1727 13.4964 30.4286 13.7053M25.1959 13.7182C24.943 13.5057 24.6239 13.3881 24.2936 13.3858C23.9633 13.3834 23.6426 13.4964 23.3867 13.7053" stroke="#45413C" stroke-width="0.259459" stroke-linecap="round" stroke-linejoin="round"/>
<path d="M26.6096 25.6777C25.5983 30.8015 30.861 33.3641 30.861 33.3641L33.5597 32.2182L31.6116 29.9076C29.8196 30.0423 27.3845 28.246 27.0794 25.6748L26.6096 25.6777Z" fill="#FF6242" stroke="#45413C" stroke-width="0.259459" stroke-linecap="round" stroke-linejoin="round"/>
<path d="M25.3426 10.9492C25.2065 11.2629 24.1966 11.7886 23.8672 11.7843M28.4696 10.9492C28.6057 11.2629 29.6155 11.7886 29.9464 11.7843" stroke="#45413C" stroke-width="0.259459" stroke-linecap="round" stroke-linejoin="round"/>
<path d="M22.7325 15.445C23.4564 15.445 24.0432 15.2103 24.0432 14.9208C24.0432 14.6312 23.4564 14.3965 22.7325 14.3965C22.0087 14.3965 21.4219 14.6312 21.4219 14.9208C21.4219 15.2103 22.0087 15.445 22.7325 15.445Z" fill="#FFB0CA"/>
<path d="M31.0763 15.445C31.8002 15.445 32.387 15.2103 32.387 14.9208C32.387 14.6312 31.8002 14.3965 31.0763 14.3965C30.3524 14.3965 29.7656 14.6312 29.7656 14.9208C29.7656 15.2103 30.3524 15.445 31.0763 15.445Z" fill="#FFB0CA"/>
<path d="M26.9061 22.7199C23.8837 22.7199 21.2595 22.0896 19.9359 20.6643C19.8616 20.599 19.773 20.552 19.6772 20.5272C19.5814 20.5023 19.4811 20.5002 19.3844 20.5211C19.171 20.5569 19.0234 20.6815 19.0234 20.8219C19.0234 23.5922 22.553 25.8354 26.9018 25.8354C31.2507 25.8354 34.7802 23.5894 34.7802 20.8219C34.7802 20.6787 34.6369 20.5569 34.4192 20.5211C34.3225 20.5002 34.2222 20.5023 34.1265 20.5272C34.0307 20.552 33.9421 20.599 33.8677 20.6643C32.5528 22.0896 29.9285 22.7199 26.9061 22.7199Z" fill="#F0F0F0"/>
<path d="M26.9042 26.4189C27.477 26.4173 27.9404 26.1063 27.9394 25.7242C27.9383 25.3421 27.4731 25.0336 26.9004 25.0352C26.3276 25.0368 25.8641 25.3478 25.8652 25.7299C25.8663 26.1121 26.3315 26.4205 26.9042 26.4189Z" fill="#FF6242" stroke="#45413C" stroke-width="0.259459" stroke-linecap="round" stroke-linejoin="round"/>
</svg>
