<svg width="207" height="200" viewBox="0 0 207 200" fill="none" xmlns="http://www.w3.org/2000/svg">
<g clip-path="url(#clip0_3913_1022)">
<path fill-rule="evenodd" clip-rule="evenodd" d="M185.563 123.846C182.671 112.015 171.295 118.19 166.232 128.126C161.431 137.549 150.363 173.055 140.902 185.165L143.938 186.951C161.611 174.682 189.266 138.992 185.563 123.846Z" fill="#66ADB8"/>
<path fill-rule="evenodd" clip-rule="evenodd" d="M142.823 186.295C166.204 164.321 179.381 122.688 179.426 122.547C179.509 122.289 179.362 122.015 179.098 121.933C178.834 121.853 178.552 121.997 178.47 122.254C178.424 122.396 165.234 164.077 141.945 185.778L142.823 186.295Z" fill="#7ABECA"/>
<path fill-rule="evenodd" clip-rule="evenodd" d="M157.039 129.387C151.676 120.679 144.212 128.406 142.749 137.571C141.536 145.168 141.663 169.821 138.773 183.911L142.776 186.266C152.982 170.448 163.37 139.668 157.039 129.387Z" fill="white"/>
<path fill-rule="evenodd" clip-rule="evenodd" d="M141.313 185.405C152.053 162.208 151.814 129.986 151.813 129.87C151.813 129.644 151.625 129.461 151.394 129.461C151.162 129.462 150.976 129.647 150.976 129.872C150.976 129.989 151.215 162.003 140.602 184.988L141.313 185.405Z" fill="#AEAFB9"/>
<path fill-rule="evenodd" clip-rule="evenodd" d="M183.984 159.248C193.623 160.479 189.642 169.617 182.157 174.271C177.093 177.419 161.732 184.072 150.131 190.594L143.777 186.856C155.078 173.314 174.022 157.975 183.984 159.248Z" fill="#369C7D"/>
<path fill-rule="evenodd" clip-rule="evenodd" d="M146.047 188.191C162.525 173.423 185.425 163.841 185.517 163.803C185.715 163.719 185.946 163.808 186.032 164.003C186.117 164.196 186.026 164.421 185.828 164.505C185.737 164.543 163.076 174.025 146.737 188.598L146.047 188.191Z" fill="#57ABA5"/>
<path fill-rule="evenodd" clip-rule="evenodd" d="M18.3842 134.826C20.811 124.901 30.3549 130.081 34.6027 138.418C38.6301 146.323 47.9153 176.111 55.8531 186.27L53.3062 187.769C38.4787 177.475 15.2781 147.533 18.3842 134.826Z" fill="#66ADB8"/>
<path fill-rule="evenodd" clip-rule="evenodd" d="M54.2425 187.219C34.6278 168.784 23.573 133.857 23.5351 133.738C23.4654 133.522 23.5889 133.291 23.8105 133.223C24.0316 133.155 24.2676 133.276 24.3372 133.492C24.3753 133.611 35.4414 168.579 54.9793 186.785L54.2425 187.219Z" fill="#7ABECA"/>
<path fill-rule="evenodd" clip-rule="evenodd" d="M42.3171 139.477C46.816 132.17 53.0787 138.653 54.3062 146.343C55.3237 152.715 55.2173 173.397 57.6418 185.219L54.2841 187.194C45.7216 173.924 37.0059 148.102 42.3171 139.477Z" fill="white"/>
<path fill-rule="evenodd" clip-rule="evenodd" d="M55.5131 186.473C46.5034 167.011 46.7031 139.979 46.7035 139.881C46.704 139.691 46.8624 139.537 47.056 139.538C47.25 139.539 47.4066 139.693 47.4061 139.883C47.4061 139.98 47.2064 166.839 56.1097 186.122L55.5131 186.473Z" fill="#AEAFB9"/>
<path fill-rule="evenodd" clip-rule="evenodd" d="M19.7123 164.528C11.6263 165.561 14.9653 173.227 21.2447 177.131C25.4933 179.772 38.3802 185.355 48.113 190.825L53.4435 187.69C43.9623 176.328 28.0703 163.46 19.7123 164.528Z" fill="#369C7D"/>
<path fill-rule="evenodd" clip-rule="evenodd" d="M51.5408 188.809C37.7168 176.419 18.5043 168.381 18.4272 168.349C18.2612 168.278 18.0678 168.353 17.9959 168.515C17.9238 168.678 18.0004 168.867 18.1665 168.937C18.2432 168.97 37.2537 176.925 50.9615 189.149L51.5408 188.809Z" fill="#57ABA5"/>
<path fill-rule="evenodd" clip-rule="evenodd" d="M18.8799 200C20.4639 200 21.7592 198.734 21.7592 197.186V196.951C21.7592 195.404 20.4635 194.138 18.8799 194.138C17.2966 194.138 16.0009 195.404 16.0009 196.951V197.186C16.0009 198.734 17.296 200 18.8799 200ZM16.6311 181.007H190.367C192.741 181.007 194.686 182.906 194.686 185.228C194.686 187.548 192.742 189.448 190.367 189.448H175.796C174.477 189.448 173.397 190.504 173.397 191.793C173.397 193.082 174.477 194.138 175.796 194.138H181.127C182.776 194.138 184.126 195.458 184.126 197.069C184.126 198.68 182.777 200 181.127 200H26.3476C24.698 200 23.3487 198.681 23.3487 197.069C23.3487 195.457 24.6986 194.138 26.3476 194.138H30.5466C31.8663 194.138 32.9461 193.082 32.9461 191.793C32.9461 190.503 31.8663 189.448 30.5466 189.448H16.6311C14.2556 189.448 12.3125 187.549 12.3125 185.228C12.3125 182.906 14.2571 181.007 16.6311 181.007Z" fill="#356664" fill-opacity="0.974026"/>
<path fill-rule="evenodd" clip-rule="evenodd" d="M88.0851 21.7823C87.8474 26.1201 87.0197 27.9812 83.0223 29.1648C76.6663 31.0479 76.8627 35.4745 79.4916 40.9204C80.009 41.9918 80.9572 43.6518 79.3838 46.2852C76.3875 51.3022 76.1269 58.6069 87.15 59.8203C98.1731 61.0346 98.018 50.4132 98.018 50.4132L98.5612 48.061C98.5612 48.061 105.936 45.6338 103.063 37.0608C100.191 28.4878 104.538 33.7229 104.538 33.7229L105.535 36.065C105.535 36.065 114.322 34.006 114.32 28.9431C114.308 6.40899 88.9306 6.35357 88.0851 21.7823Z" fill="#2F2F64"/>
<path fill-rule="evenodd" clip-rule="evenodd" d="M107.051 33.291C107.051 33.291 103.023 36.4979 101.101 39.3017C99.179 42.1059 94.2109 51.3614 94.2109 51.3614L95.6859 56.4445L98.558 57.127L105.699 50.2992L107.051 33.291Z" fill="#632B51"/>
<path fill-rule="evenodd" clip-rule="evenodd" d="M105.177 84.2697C105.177 84.2697 103.496 91.1959 103.496 97.5684C103.496 103.941 108.775 179.352 108.775 179.352C108.775 179.352 108.795 180.016 109.358 180.016C109.92 180.016 113.821 180.149 115.897 180.016C115.897 180.016 116.286 179.864 116.363 179.314C116.44 178.764 118.033 99.162 118.033 99.162L135.887 179.2C135.887 179.2 136.101 179.996 136.586 179.996C137.071 179.996 143.902 179.996 143.902 179.996C143.902 179.996 144.504 179.978 144.523 179.086C144.543 178.195 138.934 129.621 138.624 125.069C138.313 120.518 136.838 87.5182 133.151 82.3962C129.463 77.2737 105.177 84.2697 105.177 84.2697Z" fill="#3D3C7A"/>
<path fill-rule="evenodd" clip-rule="evenodd" d="M129.488 150.505L135.889 179.2C135.889 179.2 136.103 179.996 136.588 179.996H138.929L129.488 150.505Z" fill="#2F2F64"/>
<path fill-rule="evenodd" clip-rule="evenodd" d="M105.291 82.3036C105.291 82.3036 104.837 83.7043 105.07 84.1977C105.304 84.6905 119.877 86.9478 133.152 82.3961C133.152 82.3961 133.779 81.6733 133.329 79.9107C132.88 78.1472 112.775 78.3748 112.775 78.3748L105.291 82.3036Z" fill="white"/>
<path fill-rule="evenodd" clip-rule="evenodd" d="M105.291 82.3035C116.349 84.9236 133.329 79.9106 133.329 79.9106C133.329 79.9106 134.416 77.6721 134.105 76.9516C133.794 76.231 132.358 71.2996 132.358 70.0857C132.358 68.8719 133.134 68.6442 132.824 67.8857C132.513 67.1262 131.272 65.0787 131.272 64.016C131.272 62.9542 132.358 49.1466 132.358 49.1466C127.546 43.0769 131.583 30.6356 131.583 30.6356C131.583 30.6356 131.234 30.2939 130.301 30.0282C129.37 29.7625 122.077 28.6998 122.077 28.6998L112.354 30.5499C112.354 30.5499 107.478 33.0637 107.052 33.2909C106.625 33.5181 104.334 41.7123 104.102 45.6571C103.869 49.6024 105.187 63.4856 105.187 64.3962C105.187 65.3068 104.334 66.1414 104.489 66.5967C104.644 67.0511 104.955 67.5069 105.11 68.0382C105.265 68.5691 104.569 75.2558 104.101 78.1283C103.902 79.3531 102.993 81.725 105.16 82.2719C105.202 82.282 105.246 82.2934 105.291 82.3035Z" fill="#8A4066"/>
<path fill-rule="evenodd" clip-rule="evenodd" d="M104.943 71.1455C104.802 72.6685 104.599 74.498 104.398 76.0508L120.731 69.9889L121.329 66.1517L105.725 68.3518L104.943 71.1455Z" fill="#72355F"/>
<path fill-rule="evenodd" clip-rule="evenodd" d="M118.636 45.062L120.437 44.7248L119.451 46.902L118.96 51.2943L115.9 62.7008L111.863 64.5977L118.636 45.062Z" fill="#72355F"/>
<path fill-rule="evenodd" clip-rule="evenodd" d="M86.2127 72.4362C86.2127 72.4362 85.6958 73.8378 83.8055 75.4891C54.9211 100.725 67.1694 144.882 49.0048 173.536C49.0048 173.536 48.7742 174.221 49.0821 174.571C49.3896 174.921 50.5027 176.714 54.181 177.327C54.181 177.327 53.7578 179.631 53.2792 181.295C53.2792 181.295 53.1077 181.784 53.4686 182.037C53.8295 182.29 56.8699 183.726 61.1425 183.858L60.9526 185.036C60.9526 185.036 60.8772 185.501 61.366 185.585C61.8549 185.668 69.3553 188.372 84.6107 186.598C84.6107 186.598 84.9252 186.456 85.0194 186.065C85.0194 186.065 85.0382 186.533 85.4708 186.762C85.9039 186.992 94.0563 189.438 107.93 186.408C107.93 186.408 108.266 186.291 108.295 185.824C108.324 185.357 107.991 183.506 107.991 183.506C107.991 183.506 112.344 183.466 115.738 181.809C115.738 181.809 116.2 181.572 116.21 181.006C116.222 180.44 116.094 179.846 116.094 179.846C116.094 179.846 119.293 179.442 120.847 178.659C120.847 178.659 121.095 178.442 121.05 178.023C121.006 177.604 116.678 174.97 114.825 132.006C112.973 89.0421 100.506 83.6993 100.785 72.9478L100.025 71.7885L87.9408 71.7033L86.2127 72.4362Z" fill="#F3F2EF"/>
<path fill-rule="evenodd" clip-rule="evenodd" d="M101.287 77.0264C100.932 75.6948 100.746 74.3687 100.782 72.9478L100.022 71.7885L93.42 71.7422L91.1328 74.2693L101.287 77.0264Z" fill="#F8ABBC"/>
<path fill-rule="evenodd" clip-rule="evenodd" d="M86.457 70.4248C86.457 70.4248 86.127 71.8667 86.2437 72.4357C86.36 73.0041 91.7162 74.37 96.0248 74.2189C100.333 74.0668 100.158 73.4411 100.216 73.175C100.275 72.9098 100.236 71.3354 100.236 71.3354L86.457 70.4248Z" fill="#F8ABBC"/>
<path fill-rule="evenodd" clip-rule="evenodd" d="M89.199 37.6032C88.4627 39.206 82.6917 44.2514 82.8468 49.1069C83.002 53.9618 85.3309 62.4588 85.5633 63.521C85.7968 64.5832 85.4466 68.7937 85.5629 69.3626C85.6796 69.931 86.4562 70.4248 86.4562 70.4248C92.9771 72.4728 100.235 71.3354 100.235 71.3354C100.235 71.3354 100.817 70.9942 100.778 70.1596C100.74 69.3246 101.089 66.9724 103.03 62.876C104.971 58.7792 105.359 55.669 104.396 53.8601C103.433 52.0508 97.1691 43.1888 97.1691 43.1888C97.1691 43.1888 96.0109 41.8004 96.4388 40.8701L89.199 37.6032Z" fill="#F3F2EF"/>
<path fill-rule="evenodd" clip-rule="evenodd" d="M102.955 63.0345L103.03 62.8765C104.097 60.6219 104.695 58.6665 104.857 57.0619C104.85 57.0729 103.676 58.8804 99.6523 56.6872C95.6155 54.4871 90.084 56.744 90.084 56.744L87.2578 56.3409L94.0177 70.084C94.0177 70.084 99.8656 68.1244 99.8656 67.6691C99.8656 67.463 101.34 65.3211 102.955 63.0345Z" fill="#F8ABBC"/>
<path fill-rule="evenodd" clip-rule="evenodd" d="M89.199 37.6028C88.6858 38.7209 85.7246 41.5119 84.0312 44.7453C84.4282 44.9029 85.0225 44.7957 85.9121 44.1338C88.6675 42.0854 91.0349 41.8957 92.9373 43.9441C94.8388 45.993 97.65 47.2234 99.1943 46.0769C98.046 44.4292 97.1691 43.1884 97.1691 43.1884C97.1691 43.1884 96.011 41.8 96.4389 40.8697L89.199 37.6028Z" fill="#F8A293"/>
<path fill-rule="evenodd" clip-rule="evenodd" d="M96.985 42.9443C96.677 42.5046 96.1202 41.5619 96.438 40.8703L91.707 38.7357L96.985 42.9443Z" fill="#EA736F"/>
<path d="M115.804 33.6815C115.804 33.6815 113.863 46.1993 113.863 48.3998C113.863 50.5989 113.242 57.7308 113.475 65.0135C113.708 72.2975 112.699 78.8977 112.699 79.9594C112.699 81.0217 113.242 83.0596 113.242 83.0596" stroke="#72355F" stroke-width="0.622348" stroke-miterlimit="2.6131" stroke-linecap="round" stroke-linejoin="round"/>
<path fill-rule="evenodd" clip-rule="evenodd" d="M113.684 53.8695C114.151 53.0766 114.87 51.8939 115.354 50.8184C115.42 50.6719 115.429 47.8809 115.48 47.5323C115.529 47.1828 116.872 45.0281 117.01 44.838C117.15 44.647 118.481 43.9654 118.584 43.8976C118.685 43.8303 118.891 44.0108 118.891 44.0108C118.891 44.0108 119.646 43.5839 119.694 43.5463C119.74 43.5092 120.103 43.6178 120.146 43.9975C120.146 43.9975 120.492 44.1418 120.568 44.3314C120.644 44.5206 120.389 44.9077 119.379 45.7615L118.739 47.5401C118.739 47.5401 119.789 46.2608 119.889 46.1559C119.988 46.0514 120.786 45.3666 120.834 45.3098C120.884 45.254 121.196 45.5654 120.96 45.849C120.724 46.1325 120.352 46.5883 120.352 46.5883C120.352 46.5883 119.699 48.0747 119.712 48.2217C119.725 48.3697 119.701 50.1978 119.111 51.1267C118.997 51.3049 118.652 51.516 118.411 51.8074C117.715 52.6497 116.559 55.918 116.559 55.918L113.684 53.8695Z" fill="#F8A293"/>
<path d="M118.893 44.0101C118.893 44.0101 117.807 44.7146 117.65 44.8351C117.568 44.8992 117.463 45.005 117.349 45.175C117.016 45.6724 116.79 46.4117 116.508 46.9756" stroke="#EA736F" stroke-width="0.497826" stroke-miterlimit="2.6131" stroke-linecap="round" stroke-linejoin="round"/>
<path d="M120.148 43.9981L118.82 44.9687C118.82 44.9687 118.587 45.1363 118.501 45.315C118.414 45.4941 117.715 47.1064 117.715 47.1064" stroke="#EA736F" stroke-width="0.497826" stroke-miterlimit="2.6131" stroke-linecap="round" stroke-linejoin="round"/>
<path fill-rule="evenodd" clip-rule="evenodd" d="M101.902 72.9633C101.902 72.9633 90.0245 60.7492 87.8512 57.3349C85.6778 53.921 84.358 49.6729 85.7556 46.6379C87.1528 43.6032 90.646 44.0585 90.646 44.0585C90.646 44.0585 91.8875 44.1341 93.5181 46.7139C95.1482 49.2932 105.938 65.9079 105.938 65.9079L115.255 51.4273L117.958 52.4277L110.809 70.2672C109.281 74.081 105.729 76.9154 101.902 72.9633Z" fill="#F8A293"/>
<path fill-rule="evenodd" clip-rule="evenodd" d="M97.5733 28.8897C95.573 28.012 93.2019 28.8938 92.3039 30.8488L89.4064 37.1571C88.5084 39.1121 89.4102 41.4299 91.4105 42.3075C93.4114 43.1852 95.782 42.3039 96.6805 40.3484L99.5779 34.0396C100.476 32.0846 99.5742 29.7673 97.5733 28.8897Z" fill="#F8A293"/>
<path fill-rule="evenodd" clip-rule="evenodd" d="M91.0689 33.5359L89.4922 36.9694L95.5374 41.79C96.0164 41.4167 96.4129 40.9303 96.68 40.349L99.3324 34.5738C96.5029 33.5281 92.3165 32.2428 92.3165 32.2428L91.0689 33.5359Z" fill="#EA736F"/>
<path fill-rule="evenodd" clip-rule="evenodd" d="M114.183 18.6178C112.058 19.1437 110.759 21.2736 111.298 23.3514L113.035 30.055C113.572 32.1319 115.752 33.4012 117.878 32.8753C120.003 32.3495 121.302 30.219 120.764 28.1417L119.027 21.4381C118.488 19.3608 116.309 18.0915 114.183 18.6178Z" fill="#F8A293"/>
<path fill-rule="evenodd" clip-rule="evenodd" d="M111.66 24.7454L113.037 30.0551C113.192 30.6557 113.486 31.1888 113.875 31.6309L120.177 25.8676L119.935 24.9341L113.028 23.6378C113.028 23.6378 112.43 24.1178 111.66 24.7454Z" fill="#EA736F"/>
<path fill-rule="evenodd" clip-rule="evenodd" d="M102.944 16.3029C98.4112 14.9805 93.5945 17.5227 92.2409 21.953L90.4365 27.8592L90.0029 29.2797C89.8173 29.8875 89.7062 30.5004 89.6641 31.11C90.3066 40.0756 100.178 42.9559 105.745 35.8019C106.051 35.2706 106.303 34.698 106.489 34.0897L106.923 32.6693L108.727 26.7631C110.081 22.3328 107.479 17.6257 102.944 16.3029Z" fill="#F8A293"/>
<path fill-rule="evenodd" clip-rule="evenodd" d="M107.414 31.0566L108.726 26.7633C108.788 26.5604 108.842 26.356 108.887 26.1522C107.405 23.7964 105.4 20.9908 104.702 20.9207C103.55 20.8049 95.399 20.312 94.6613 20.5016C93.924 20.6913 92.4102 24.675 92.4102 24.675C92.4102 24.675 99.5703 26.9804 102.55 23.5326L103.2 23.3091C103.2 23.3091 103.71 28.8277 107.414 31.0566Z" fill="#EA736F"/>
<path fill-rule="evenodd" clip-rule="evenodd" d="M103.284 33.8816C102.689 33.6961 102.052 34.0176 101.863 34.5989C101.672 35.1802 102.001 35.8032 102.596 35.9887C103.191 36.1737 103.827 35.8526 104.017 35.2709C104.207 34.6901 103.879 34.0676 103.284 33.8816Z" fill="#EA736F"/>
<path fill-rule="evenodd" clip-rule="evenodd" d="M94.0146 30.9893C93.4194 30.8042 92.7829 31.1244 92.5931 31.7057C92.4028 32.2879 92.7313 32.9094 93.3261 33.0959C93.9213 33.2814 94.5583 32.9603 94.7481 32.3786C94.9379 31.7973 94.6099 31.1748 94.0146 30.9893Z" fill="#EA736F"/>
<path fill-rule="evenodd" clip-rule="evenodd" d="M94.7088 27.1108C94.5377 27.1402 94.3746 27.0284 94.3446 26.8616C94.3146 26.6945 94.4294 26.535 94.5991 26.5057C95.4971 26.3408 96.5517 26.5992 97.1783 27.2698C97.295 27.3939 97.2861 27.5895 97.1586 27.704C97.0311 27.8176 96.831 27.8098 96.7143 27.6848C96.2105 27.1456 95.4184 27.0023 94.7088 27.1108Z" fill="#2F2F64"/>
<path fill-rule="evenodd" clip-rule="evenodd" d="M104.161 32.7272C104.221 32.5307 104.199 32.3209 104.099 32.1409C104 31.9613 103.832 31.828 103.632 31.7694C103.431 31.7112 103.217 31.7328 103.033 31.8303C102.849 31.9274 102.712 32.0905 102.652 32.287C102.603 32.4496 102.427 32.5421 102.26 32.4936C102.094 32.4455 101.999 32.2737 102.048 32.1102C102.156 31.7575 102.402 31.463 102.734 31.2875C103.065 31.113 103.451 31.0736 103.812 31.179C104.174 31.2848 104.475 31.5239 104.654 31.8482C104.746 32.0149 104.802 32.1959 104.819 32.38C104.856 32.4001 104.93 32.4285 105.014 32.3983C105.06 32.3814 105.112 32.4047 105.129 32.4496C105.148 32.4959 105.124 32.5463 105.077 32.5628C104.982 32.5985 104.893 32.5898 104.823 32.5696V32.5765C104.891 32.6136 104.984 32.6429 105.095 32.6264C105.144 32.6196 105.19 32.653 105.197 32.7002C105.205 32.7487 105.171 32.7932 105.121 32.8009C104.998 32.8193 104.889 32.7964 104.8 32.7597V32.7616C104.866 32.8138 104.953 32.8591 105.06 32.8765C105.109 32.8848 105.142 32.9306 105.133 32.9787C105.125 33.0268 105.078 33.0588 105.029 33.0506C104.918 33.0318 104.827 32.9924 104.75 32.9429C104.685 33.0808 104.525 33.1546 104.373 33.1101C104.206 33.0611 104.111 32.8894 104.161 32.7272Z" fill="#2F2F64"/>
<path fill-rule="evenodd" clip-rule="evenodd" d="M108.109 31.636C108.109 31.636 103.295 28.1466 103.994 23.063C103.994 23.063 104.043 22.8455 103.887 22.8267C103.732 22.807 102.977 24.6346 103.412 26.7806C103.412 26.7806 103.528 27.1223 103.334 27.1984C103.14 27.274 102.15 25.4344 102.616 23.1588C102.616 23.1588 99.179 26.1481 93.6104 24.1834C93.6104 24.1834 91.3598 26.5351 91.4371 30.4039C91.5144 34.274 93.766 40.1156 85.6928 39.7363C77.6197 39.3566 87.5554 31.0117 87.5554 31.0117C87.5554 31.0117 92.6791 17.2036 93.2224 16.9008C93.7656 16.5971 101.206 14.1364 101.206 14.1364L106.497 15.9902L110.922 23.1973L108.109 31.636Z" fill="#2F2F64"/>
<path fill-rule="evenodd" clip-rule="evenodd" d="M105.224 30.1793C104.69 29.7071 103.947 29.4029 103.224 29.5834C103.056 29.6255 102.884 29.5252 102.842 29.3613C102.799 29.1982 102.901 29.0296 103.068 28.9875C103.968 28.7626 104.995 29.1116 105.653 29.7304C105.779 29.8468 105.786 30.041 105.667 30.1651C105.548 30.2884 105.35 30.2943 105.224 30.1793Z" fill="#2F2F64"/>
<path fill-rule="evenodd" clip-rule="evenodd" d="M108.554 15.608C108.433 14.925 108.171 14.2856 107.803 13.7217C106.797 12.9714 105.721 12.381 104.611 11.9435C103.369 15.3749 99.1113 20.0764 93.4762 17.5571C92.1535 16.9648 91.0812 16.2745 90.2118 15.5402C89.8612 16.0203 89.5472 16.537 89.2734 17.0894C90.8712 18.7063 93.1903 20.0608 96.5574 20.6567C103.094 21.8138 106.676 18.6009 108.554 15.608Z" fill="#3D3C7A"/>
<path fill-rule="evenodd" clip-rule="evenodd" d="M94.1608 29.8095C94.2208 29.6134 94.3568 29.4499 94.5414 29.3523C94.7251 29.2552 94.9398 29.2337 95.1399 29.2923C95.341 29.3505 95.5079 29.4838 95.6077 29.6638C95.7066 29.8438 95.7291 30.0536 95.6691 30.2496C95.6194 30.4123 95.7146 30.584 95.8809 30.6326C96.0478 30.6811 96.2235 30.5886 96.2737 30.4255C96.381 30.0733 96.3412 29.6949 96.1622 29.3706C95.9836 29.0463 95.6817 28.8072 95.3209 28.7019C94.9595 28.5965 94.5724 28.6355 94.241 28.8104C94.0709 28.8998 93.9232 29.0221 93.8051 29.1668C93.7629 29.1636 93.6851 29.148 93.6322 29.0775C93.6026 29.0381 93.5464 29.0298 93.5061 29.0592C93.4658 29.0871 93.4573 29.143 93.4869 29.1824C93.5469 29.2621 93.6256 29.3028 93.695 29.323L93.6917 29.329C93.6139 29.323 93.5197 29.2983 93.4363 29.2254C93.3997 29.1929 93.342 29.1966 93.3092 29.2318C93.2755 29.2685 93.2788 29.3244 93.3158 29.3564C93.4095 29.4384 93.5136 29.4778 93.6073 29.4939L93.6069 29.4961C93.522 29.5039 93.425 29.4952 93.3256 29.4531C93.2797 29.4339 93.2263 29.4545 93.2066 29.4989C93.1869 29.5442 93.208 29.596 93.2539 29.6152C93.3561 29.6592 93.4555 29.6748 93.5473 29.6748C93.5234 29.8246 93.6162 29.9716 93.7685 30.0165C93.9354 30.065 94.1112 29.9725 94.1608 29.8095Z" fill="#2F2F64"/>
<path fill-rule="evenodd" clip-rule="evenodd" d="M100.179 32.6964C100.179 32.6964 100.568 33.8961 100.442 34.3386C100.316 34.7815 99.5611 34.339 99.4899 34.0546C99.4186 33.7697 99.7631 32.3749 100.179 32.6964Z" fill="#F9C6BC"/>
<path fill-rule="evenodd" clip-rule="evenodd" d="M95.843 34.7038C95.7493 34.625 95.7394 34.4866 95.8205 34.395C95.9011 34.3039 96.0431 34.2938 96.1364 34.3735C96.143 34.3781 98.3172 36.2254 100.222 35.5878C100.339 35.5484 100.467 35.6102 100.506 35.7238C100.546 35.8388 100.483 35.9625 100.366 36.0019C98.2169 36.721 95.85 34.7102 95.843 34.7038Z" fill="#EA736F"/>
<path fill-rule="evenodd" clip-rule="evenodd" d="M122.341 14.3419C122.405 14.341 122.469 14.3414 122.532 14.3451H122.534C123.698 14.4055 124.708 15.2424 124.917 16.4137C125.159 17.7736 124.227 19.0695 122.835 19.3063C121.442 19.5431 120.117 18.6325 119.874 17.272C119.734 16.481 119.989 15.7124 120.502 15.1609C120.553 15.9002 120.814 16.7856 121.782 16.732L121.528 15.3107C121.426 14.7358 121.934 14.3872 122.341 14.3419Z" fill="#EA736F"/>
<path fill-rule="evenodd" clip-rule="evenodd" d="M110.86 3.80298C115.622 3.08337 120.121 6.30168 120.858 10.9555L121.84 17.1595L122.076 18.6518C122.178 19.2913 122.201 19.9248 122.158 20.545C120.237 29.5036 109.867 31.0716 105.266 23.0982C105.032 22.5206 104.86 21.9086 104.759 21.2701L104.522 19.7772L103.541 13.5738C102.804 8.91994 106.097 4.52305 110.86 3.80298Z" fill="#F8A293"/>
<path fill-rule="evenodd" clip-rule="evenodd" d="M111.849 3.70973C113.923 3.6282 115.899 4.27819 117.477 5.44348L118.224 10.1835L117.525 9.65258L114.178 12.2598L110.702 12.6753L103.941 16.1016L103.541 13.5735C103.147 11.0918 103.901 8.68103 105.414 6.86529C107.606 5.77741 109.898 4.65699 111.849 3.70973Z" fill="#EA736F"/>
<path fill-rule="evenodd" clip-rule="evenodd" d="M108.021 21.4946C108.648 21.3883 109.245 21.7983 109.354 22.4107C109.463 23.0241 109.043 23.6067 108.417 23.7134C107.79 23.8206 107.194 23.4107 107.084 22.7978C106.975 22.1849 107.394 21.6018 108.021 21.4946Z" fill="#EA736F"/>
<path fill-rule="evenodd" clip-rule="evenodd" d="M117.787 19.8325C118.414 19.7262 119.01 20.1362 119.12 20.7486C119.229 21.362 118.809 21.9451 118.183 22.0513C117.556 22.1585 116.958 21.7481 116.849 21.1357C116.74 20.5228 117.159 19.9397 117.787 19.8325Z" fill="#EA736F"/>
<path fill-rule="evenodd" clip-rule="evenodd" d="M117.638 15.826C117.805 15.8782 117.987 15.788 118.04 15.6236C118.094 15.4591 118.001 15.2823 117.834 15.2305C116.951 14.942 115.851 15.0592 115.123 15.651C114.988 15.761 114.969 15.9593 115.081 16.0912C115.194 16.2236 115.397 16.2424 115.532 16.1325C116.117 15.657 116.937 15.6199 117.638 15.826Z" fill="#2F2F64"/>
<path fill-rule="evenodd" clip-rule="evenodd" d="M106.59 17.4959C107.196 17.0915 107.989 16.8849 108.694 17.1657C108.857 17.2307 109.045 17.1528 109.111 16.9934C109.177 16.8336 109.098 16.6508 108.934 16.5858C108.058 16.2367 106.973 16.4493 106.221 16.9843C106.077 17.0841 106.043 17.2802 106.145 17.4213C106.247 17.5619 106.448 17.5944 106.59 17.4959Z" fill="#2F2F64"/>
<path fill-rule="evenodd" clip-rule="evenodd" d="M111.325 20.7207C111.325 20.7207 110.761 21.8773 110.825 22.3418C110.89 22.8053 111.715 22.4618 111.827 22.1837C111.94 21.9057 111.79 20.4518 111.325 20.7207Z" fill="#F9C6BC"/>
<path fill-rule="evenodd" clip-rule="evenodd" d="M115.41 23.3336C115.515 23.2663 115.546 23.1279 115.477 23.0244C115.408 22.9218 115.267 22.892 115.161 22.9603C115.154 22.9639 112.698 24.5328 110.865 23.6309C110.753 23.5755 110.616 23.6203 110.56 23.7303C110.503 23.8402 110.548 23.974 110.661 24.0294C112.728 25.0463 115.403 23.3386 115.41 23.3336Z" fill="#EA736F"/>
<path fill-rule="evenodd" clip-rule="evenodd" d="M116.246 18.87C116.278 19.0381 116.163 19.2002 115.99 19.2314C115.818 19.2616 115.653 19.1498 115.621 18.9817C115.553 18.6203 115.635 18.2498 115.849 17.9484C116.062 17.6456 116.387 17.4408 116.757 17.3744C117.126 17.3089 117.506 17.3882 117.814 17.597C118.123 17.8055 118.333 18.1243 118.402 18.4852C118.433 18.6538 118.318 18.8155 118.145 18.8466C117.973 18.8778 117.807 18.7651 117.776 18.5965C117.739 18.3977 117.623 18.2232 117.453 18.1082C117.283 17.9933 117.075 17.9497 116.871 17.9859C116.669 18.0221 116.489 18.1353 116.371 18.3011C116.254 18.4674 116.209 18.6707 116.246 18.87Z" fill="#2F2F64"/>
<path fill-rule="evenodd" clip-rule="evenodd" d="M107.344 20.2204C107.375 20.389 107.261 20.5512 107.088 20.5819C106.916 20.6125 106.75 20.5003 106.719 20.3318C106.651 19.9713 106.732 19.6007 106.946 19.2979C107.16 18.9965 107.486 18.7909 107.855 18.7249C108.225 18.6589 108.604 18.7391 108.913 18.948C109.222 19.1568 109.432 19.4747 109.499 19.8357C109.531 20.0042 109.417 20.1669 109.244 20.1971C109.071 20.2278 108.905 20.116 108.874 19.947C108.837 19.7487 108.721 19.5737 108.551 19.4587C108.381 19.3442 108.173 19.2998 107.969 19.3364C107.766 19.3726 107.587 19.4853 107.469 19.6515C107.352 19.8178 107.307 20.0216 107.344 20.2204Z" fill="#2F2F64"/>
<path fill-rule="evenodd" clip-rule="evenodd" d="M120.725 27.9873L122.08 28.7L118.562 34.2357C118.562 34.2357 118.426 34.4441 118.174 34.4152C117.921 34.3873 115.98 32.8862 115.98 32.8862L120.725 27.9873Z" fill="#F3F2EF"/>
<path fill-rule="evenodd" clip-rule="evenodd" d="M115.979 32.8863L113.035 30.0551L112.355 30.5502L113.786 34.1341C113.786 34.1341 113.912 34.3526 114.204 34.2385C114.495 34.1249 115.979 32.8863 115.979 32.8863Z" fill="#F3F2EF"/>
<path fill-rule="evenodd" clip-rule="evenodd" d="M121.818 17.0146C121.818 17.0146 120.01 16.4439 120.127 14.1674C120.127 14.1674 118.341 12.9915 117.526 11.9293C116.711 10.8675 117.254 8.70503 117.254 8.70503C116.275 9.46953 114.669 12.714 112.555 13.1363C111.234 13.4001 109.76 12.55 110.791 11.1144C110.791 11.1144 106.793 15.6286 102.912 14.7935C98.0381 13.7464 96.6686 7.00014 100.078 8.80031C96.521 4.28295 102.509 -1.29665 106.625 3.27522C106.625 3.27522 112.847 0.000112534 114.555 0.000112534C116.263 0.000112534 119.213 1.29001 119.679 4.17302C119.679 4.17302 122.55 4.62833 123.094 5.61453C123.638 6.60073 122.999 14.4115 122.999 14.4115C122.999 14.4115 121.518 15.1215 121.818 17.0146Z" fill="#2F2F64"/>
<path fill-rule="evenodd" clip-rule="evenodd" d="M99.0586 5.13928C99.36 3.43393 100.69 2.04098 102.325 1.66858C103.222 4.62304 106.964 9.04926 111.974 6.8089C115.54 5.21441 116.98 2.77983 117.562 0.992495C117.794 1.14732 118.018 1.3223 118.229 1.51606C117.524 4.39724 115.437 8.3837 109.335 9.4638C103.736 10.455 100.667 7.70302 99.0586 5.13928Z" fill="#3D3C7A"/>
<path fill-rule="evenodd" clip-rule="evenodd" d="M137.332 178.932C137.332 178.932 139.676 176.081 142.543 178.348C142.543 178.348 144.106 178.966 144.692 180.408C145.278 181.851 146.385 182.503 146.58 184.083C146.776 185.664 146.32 186.9 144.269 186.9C142.217 186.9 142.412 186.9 140.947 186.9C139.481 186.9 137.299 187.14 136.55 185.217C135.802 183.293 136.55 181.541 136.29 180.546C136.029 179.55 137.332 178.932 137.332 178.932Z" fill="#8A4066"/>
<path fill-rule="evenodd" clip-rule="evenodd" d="M137.331 178.931C137.331 178.931 139.676 176.08 142.542 178.347C142.542 178.347 142.843 178.466 143.23 178.721C143.398 179.971 143.534 181.302 143.41 181.642C143.161 182.321 139.459 182.176 138.938 181.933C138.548 181.752 137.66 179.907 137.234 178.983C137.295 178.948 137.331 178.931 137.331 178.931Z" fill="#632B51"/>
<path fill-rule="evenodd" clip-rule="evenodd" d="M146.363 186.899H136.651C136.334 186.899 136.074 186.644 136.074 186.335V185.288C136.074 184.977 136.334 184.724 136.651 184.724H146.363C146.681 184.724 146.941 184.977 146.941 185.288V186.335C146.941 186.644 146.681 186.899 146.363 186.899Z" fill="#F3F2EF"/>
<path fill-rule="evenodd" clip-rule="evenodd" d="M94.0403 68.3466C94.0403 68.3466 90.3639 67.6169 89.3244 67.2156C88.2848 66.8144 88.3134 67.7218 88.7455 68.2454C89.1776 68.768 90.176 69.3012 90.3981 69.434C90.6203 69.5669 90.4937 69.6946 89.838 69.9026C89.1828 70.1096 86.8515 70.5457 86.4536 70.4253C86.0557 70.3043 85.7468 69.5943 85.5823 69.4455C85.5823 69.4455 84.9847 70.3052 85.2182 70.6946C85.452 71.0826 86.1298 71.7362 86.6814 71.8177C86.6814 71.8177 86.5877 72.6945 86.8197 72.8965C87.0512 73.0985 87.6052 73.2844 87.6052 73.2844C87.6052 73.2844 87.7603 73.7141 88.0162 73.9147C88.2717 74.114 88.5787 74.2514 88.5787 74.2514C88.5787 74.2514 89.0727 74.6998 89.2845 74.8441C89.4964 74.9898 91.3121 75.0603 91.8112 74.5862C91.889 74.5116 93.8275 73.9047 94.7476 73.2689C95.0377 73.0678 95.3428 72.5964 95.3916 72.4998C96.1682 70.9516 94.7091 68.5216 94.7091 68.5216L94.0403 68.3466Z" fill="#F8A293"/>
<path fill-rule="evenodd" clip-rule="evenodd" d="M131.583 30.636C138.024 34.0187 137.642 39.7902 135.385 46.8402C133.982 51.2233 130.734 57.9078 126.009 66.4235C126.009 66.4235 124.224 68.8512 120.731 69.989C117.237 71.1277 94.9058 74.2256 94.9058 74.2256C94.9058 74.2256 94.5758 74.226 94.5566 73.9796C94.5365 73.7327 93.8423 69.9666 93.9201 68.0317C93.9201 68.0317 93.9201 67.5004 94.7352 67.1976C95.5503 66.8939 117.275 61.0564 117.275 61.0564C117.275 61.0564 118.285 59.3117 119.837 59.6149L129.385 33.1374C129.385 33.1374 130.324 30.035 131.583 30.636Z" fill="#632B51"/>
<path fill-rule="evenodd" clip-rule="evenodd" d="M116.122 33.3575C116.122 33.3575 119.323 31.387 119.66 31.2523C119.997 31.1176 120.767 32.6251 120.846 33.6369C120.925 34.6492 119.083 36.2222 118.734 36.492C118.384 36.7609 117.09 35.5654 115.977 34.3978L116.122 33.3575Z" fill="#2F2F64"/>
<path fill-rule="evenodd" clip-rule="evenodd" d="M115.588 33.3486L114.116 32.1256C114.116 32.1256 113.839 31.9987 113.637 32.2466C113.434 32.4944 112.867 33.64 112.867 33.64C112.867 33.64 112.648 34.0421 112.716 34.3426C112.786 34.6427 113.281 35.9678 113.281 35.9678C113.281 35.9678 113.549 36.2761 113.867 36.1703C114.184 36.0654 115.625 34.3367 115.625 34.3367L115.588 33.3486Z" fill="#2F2F64"/>
<path fill-rule="evenodd" clip-rule="evenodd" d="M115.947 32.8668C116.263 32.8668 116.52 33.1182 116.52 33.4251V34.2982C116.52 34.606 116.263 34.8584 115.947 34.8584C115.633 34.8584 115.375 34.606 115.375 34.2982V33.4251C115.375 33.1182 115.633 32.8668 115.947 32.8668Z" fill="#2F2F64"/>
<path d="M115.148 85.1923C115.459 88.1293 118.035 99.1621 118.035 99.1621" stroke="#2F2F64" stroke-width="0.622348" stroke-miterlimit="2.6131" stroke-linecap="round" stroke-linejoin="round"/>
<path d="M112.707 85.1551C112.707 85.1551 114.953 94.2416 115.381 95.0381C115.808 95.8351 117.437 96.5557 117.437 96.5557" stroke="#2F2F64" stroke-width="0.622348" stroke-miterlimit="2.6131" stroke-linecap="round" stroke-linejoin="round"/>
<path d="M107.591 84.751C107.591 84.751 106.9 86.7124 105.832 87.0156" stroke="#2F2F64" stroke-width="0.622348" stroke-miterlimit="2.6131" stroke-linecap="round" stroke-linejoin="round"/>
<path d="M126.086 84.2176C126.086 84.2176 128.072 88.6475 133.389 87.9265" stroke="#2F2F64" stroke-width="0.622348" stroke-miterlimit="2.6131" stroke-linecap="round" stroke-linejoin="round"/>
<path d="M131.82 82.8295C131.82 82.8295 134.127 89.5204 134.555 93.4651C134.981 97.4104 139.057 134.851 139.057 134.851" stroke="#2F2F64" stroke-width="0.622348" stroke-miterlimit="2.6131" stroke-linecap="round" stroke-linejoin="round"/>
<path d="M119.336 99.3438L114.445 98.7368" stroke="#2F2F64" stroke-width="0.622348" stroke-miterlimit="2.6131" stroke-linecap="round" stroke-linejoin="round"/>
<path fill-rule="evenodd" clip-rule="evenodd" d="M116.544 100.33C116.614 101.263 115.089 111.285 113.859 119.149C114.288 123.018 114.62 127.284 114.823 132.006C115.341 144.01 116.052 152.865 116.808 159.404C117.297 135.989 118.014 100.156 118.034 99.1817L115.832 98.9082C116.179 99.2142 116.494 99.6695 116.544 100.33Z" fill="#2F2F64"/>
<path d="M131.275 64.0164C131.275 64.0164 130.516 66.9108 126.402 68.2383" stroke="#72355F" stroke-width="0.622348" stroke-miterlimit="2.6131" stroke-linecap="round" stroke-linejoin="round"/>
<path d="M132.52 69.2192C132.52 69.2192 131.138 70.9315 127.062 71.1211" stroke="#72355F" stroke-width="0.622348" stroke-miterlimit="2.6131" stroke-linecap="round" stroke-linejoin="round"/>
<path d="M115.961 79.8076C115.961 79.8076 123.025 78.5942 126.984 76.3937" stroke="#72355F" stroke-width="0.622348" stroke-miterlimit="2.6131" stroke-linecap="round" stroke-linejoin="round"/>
<path d="M117.277 61.0559C117.277 61.0559 119.454 60.9931 120.191 63.3828" stroke="#8A4066" stroke-width="0.622348" stroke-miterlimit="2.6131" stroke-linecap="round" stroke-linejoin="round"/>
<path d="M119.836 59.6151L121.256 59.8936" stroke="#8A4066" stroke-width="0.622348" stroke-miterlimit="2.6131" stroke-linecap="round" stroke-linejoin="round"/>
<path d="M87.5655 72.7534C84.2678 86.2895 72.0471 89.0314 67.8477 123.355" stroke="#F8ABBC" stroke-width="0.622348" stroke-miterlimit="2.6131" stroke-linecap="round" stroke-linejoin="round"/>
<path d="M54.1797 177.326C54.1797 177.326 63.1903 155.674 66.6056 129.879" stroke="#F8ABBC" stroke-width="0.622348" stroke-miterlimit="2.6131" stroke-linecap="round" stroke-linejoin="round"/>
<path d="M61.1406 183.857C61.1406 183.857 70.3312 150.819 74.368 122.901C78.4044 94.9819 83.0622 88.6085 83.0622 88.6085" stroke="#F8ABBC" stroke-width="0.622348" stroke-miterlimit="2.6131" stroke-linecap="round" stroke-linejoin="round"/>
<path d="M85.0195 186.064C85.0195 186.064 87.1 134.811 89.2734 113.872" stroke="#F8ABBC" stroke-width="0.622348" stroke-miterlimit="2.6131" stroke-linecap="round" stroke-linejoin="round"/>
<path d="M93.3129 73.9955C93.3129 73.9955 90.6667 93.9943 89.2695 104.312" stroke="#F8ABBC" stroke-width="0.622348" stroke-miterlimit="2.6131" stroke-linecap="round" stroke-linejoin="round"/>
<path d="M107.99 183.506C107.99 183.506 104.673 163.505 104.643 140.577C104.614 117.648 100.141 85.8018 98.2773 79.5809" stroke="#F8ABBC" stroke-width="0.622348" stroke-miterlimit="2.6131" stroke-linecap="round" stroke-linejoin="round"/>
<path d="M116.093 179.846C116.093 179.846 111.629 167.053 110.387 133.065" stroke="#F8ABBC" stroke-width="0.622348" stroke-miterlimit="2.6131" stroke-linecap="round" stroke-linejoin="round"/>
<path d="M85.5625 63.521C85.5625 63.521 86.4736 65.3161 90.0057 66.0371" stroke="#F8ABBC" stroke-width="0.622348" stroke-miterlimit="2.6131" stroke-linecap="round" stroke-linejoin="round"/>
<path fill-rule="evenodd" clip-rule="evenodd" d="M33.0374 27.3375H53.6093C55.1035 27.3375 56.3263 28.5317 56.3263 29.9924V40.9423V41.7521V48.7224C56.3263 48.8447 56.2546 48.9491 56.1388 48.9958C56.0231 49.043 55.897 49.0188 55.8079 48.9317L51.1787 44.407H33.0374C31.5428 44.407 30.3203 43.2124 30.3203 41.7521V29.9924C30.3203 28.5317 31.5428 27.3375 33.0374 27.3375Z" fill="#9ECBDB"/>
<path fill-rule="evenodd" clip-rule="evenodd" d="M199.061 125.804C199.242 125.627 199.535 125.627 199.715 125.804C199.896 125.981 199.896 126.267 199.715 126.443L198.245 127.881C198.064 128.057 197.771 128.057 197.591 127.881C197.41 127.704 197.41 127.417 197.591 127.242L199.061 125.804ZM200.75 128.885C201.006 128.885 201.212 129.088 201.212 129.337C201.212 129.586 201.006 129.789 200.75 129.789H198.67C198.415 129.789 198.207 129.586 198.207 129.337C198.207 129.088 198.415 128.885 198.67 128.885H200.75ZM199.715 132.231C199.896 132.406 199.896 132.693 199.715 132.87C199.535 133.046 199.242 133.046 199.061 132.87L197.591 131.432C197.41 131.255 197.41 130.969 197.591 130.792C197.771 130.617 198.064 130.617 198.245 130.792L199.715 132.231ZM196.563 133.88C196.563 134.13 196.356 134.333 196.1 134.333C195.845 134.333 195.638 134.13 195.638 133.88V131.848C195.638 131.598 195.845 131.396 196.1 131.396C196.356 131.396 196.563 131.598 196.563 131.848V133.88ZM193.14 132.87C192.96 133.046 192.666 133.046 192.485 132.87C192.306 132.693 192.306 132.406 192.485 132.231L193.957 130.792C194.137 130.617 194.431 130.617 194.611 130.792C194.791 130.969 194.791 131.255 194.611 131.432L193.14 132.87ZM191.451 129.789C191.196 129.789 190.988 129.586 190.988 129.337C190.988 129.088 191.196 128.885 191.451 128.885H193.531C193.787 128.885 193.994 129.088 193.994 129.337C193.994 129.586 193.787 129.789 193.531 129.789H191.451ZM192.485 126.443C192.306 126.267 192.306 125.981 192.485 125.804C192.666 125.627 192.96 125.627 193.14 125.804L194.611 127.242C194.791 127.417 194.791 127.704 194.611 127.881C194.431 128.057 194.137 128.057 193.957 127.881L192.485 126.443ZM195.638 124.793C195.638 124.544 195.845 124.341 196.1 124.341C196.356 124.341 196.563 124.544 196.563 124.793V126.825C196.563 127.075 196.356 127.278 196.1 127.278C195.845 127.278 195.638 127.075 195.638 126.825V124.793Z" fill="white"/>
<path fill-rule="evenodd" clip-rule="evenodd" d="M189.729 80.4746C195.68 80.4746 200.532 75.7314 200.532 69.9159C200.532 64.1004 195.68 59.3577 189.729 59.3577C183.779 59.3577 178.926 64.1004 178.926 69.9159C178.926 75.7314 183.779 80.4746 189.729 80.4746Z" fill="#9ECBDB"/>
<path fill-rule="evenodd" clip-rule="evenodd" d="M147.259 57.7963C147.405 57.7963 147.548 57.8105 147.688 57.8366L147.74 57.8472V52.198C147.74 52.0262 147.81 51.8622 147.923 51.7381C148.036 51.613 148.194 51.5251 148.368 51.5054L156.368 50.5943C156.395 50.5906 156.42 50.5897 156.443 50.5897C156.599 50.5897 156.742 50.6461 156.852 50.7413C156.96 50.8366 157.034 50.9694 157.052 51.122C157.055 51.1481 157.056 51.1733 157.056 51.1966V59.2355C157.056 59.8466 156.803 60.399 156.394 60.7998C155.984 61.2002 155.418 61.448 154.794 61.448C154.168 61.448 153.603 61.2002 153.193 60.7998C152.783 60.399 152.53 59.8466 152.53 59.2355C152.53 58.6245 152.783 58.0716 153.193 57.6713C153.603 57.2714 154.168 57.0236 154.794 57.0236C154.938 57.0236 155.082 57.0373 155.222 57.0639L155.274 57.0744V54.7365L149.523 55.392V60.0078C149.523 60.6189 149.27 61.1718 148.86 61.5721C148.45 61.9729 147.884 62.2207 147.259 62.2207C146.635 62.2207 146.068 61.9729 145.659 61.5721C145.249 61.1718 144.996 60.6189 144.996 60.0078C144.996 59.3977 145.249 58.8444 145.659 58.444C146.068 58.0441 146.635 57.7963 147.259 57.7963Z" fill="#9ECBDB"/>
<path fill-rule="evenodd" clip-rule="evenodd" d="M33.3265 62.6855C33.4713 62.6855 33.6147 62.6992 33.7548 62.7253L33.8064 62.7358V57.0871C33.8064 56.9149 33.8767 56.7518 33.9897 56.6272C34.1026 56.5022 34.2606 56.4147 34.4354 56.3945L42.4345 55.483C42.4617 55.4798 42.487 55.4789 42.51 55.4789C42.6665 55.4789 42.809 55.5352 42.9187 55.6305C43.027 55.7262 43.1005 55.8586 43.1188 56.0111C43.1221 56.0372 43.1235 56.0624 43.1235 56.0853V64.1247C43.1235 64.7353 42.8699 65.2886 42.4608 65.6889C42.0511 66.0888 41.485 66.3366 40.8602 66.3366C40.235 66.3366 39.6693 66.0888 39.2596 65.6889C38.85 65.2886 38.5964 64.7353 38.5964 64.1247C38.5964 63.5136 38.85 62.9607 39.2596 62.5604C39.6693 62.1605 40.235 61.9127 40.8602 61.9127C41.005 61.9127 41.1484 61.9265 41.289 61.953L41.3401 61.9631V59.6256L35.5893 60.2811V64.897C35.5893 65.508 35.3362 66.0609 34.9266 66.4617C34.5169 66.862 33.9512 67.1094 33.3265 67.1094C32.7015 67.1094 32.1352 66.862 31.7258 66.4617C31.3163 66.0609 31.0625 65.508 31.0625 64.897C31.0625 64.2864 31.3161 63.7335 31.7258 63.3332C32.1352 62.9333 32.7015 62.6855 33.3265 62.6855Z" fill="white"/>
<path fill-rule="evenodd" clip-rule="evenodd" d="M147.697 91.7636C147.841 91.7636 147.985 91.7773 148.126 91.8039L148.177 91.814V86.1648C148.177 85.993 148.247 85.8299 148.36 85.7053C148.473 85.5803 148.631 85.4928 148.806 85.4731L152.316 85.0732C152.343 85.07 152.368 85.0686 152.39 85.0686C152.547 85.0686 152.69 85.125 152.799 85.2207C152.908 85.3155 152.981 85.4483 153 85.6013C153.002 85.627 153.005 85.6522 153.005 85.6756V88.1747C153.005 89.0317 152.312 89.0917 152.312 89.0917L151.221 89.2154L149.96 89.3592V93.9755C149.96 94.5861 149.707 95.1395 149.297 95.5394C148.887 95.9397 148.322 96.1875 147.697 96.1875C147.072 96.1875 146.506 95.9397 146.096 95.5394C145.687 95.1395 145.434 94.5861 145.434 93.9755C145.434 93.3645 145.687 92.8116 146.096 92.4117C146.506 92.0114 147.072 91.7636 147.697 91.7636Z" fill="white"/>
<path fill-rule="evenodd" clip-rule="evenodd" d="M56.9117 95.4716C57.0566 95.4716 57.2 95.4853 57.3406 95.5124L57.3922 95.5224V89.8732C57.3922 89.7014 57.462 89.5384 57.5749 89.4133C57.6879 89.2883 57.8463 89.2013 58.0211 89.1811L61.5307 88.7812C61.5579 88.778 61.5827 88.7771 61.6057 88.7771C61.7622 88.7771 61.9052 88.833 62.0144 88.9287C62.1231 89.024 62.1962 89.1564 62.2145 89.3094C62.2173 89.3355 62.2192 89.3602 62.2192 89.3836V91.8832C62.2192 92.7402 61.5269 92.8002 61.5269 92.8002L60.4363 92.9239L59.1751 93.0672V97.684C59.1751 98.2946 58.9215 98.8475 58.5119 99.2478C58.1027 99.6477 57.5365 99.8955 56.9117 99.8955C56.2865 99.8955 55.7208 99.6477 55.3112 99.2478C54.9015 98.8475 54.6484 98.2946 54.6484 97.684C54.6484 97.073 54.9015 96.5201 55.3112 96.1197C55.7208 95.7194 56.2865 95.4716 56.9117 95.4716Z" fill="#9ECBDB"/>
<path fill-rule="evenodd" clip-rule="evenodd" d="M38.0971 31.475C39.5341 30.0706 41.8855 30.0706 43.3221 31.475L43.9487 32.087L44.5758 31.475C46.0128 30.0706 48.3638 30.0706 49.8008 31.475C51.2378 32.8789 51.2378 35.1766 49.8008 36.581L49.1737 37.1934L43.9487 42.2998L38.7242 37.1934L38.0971 36.581C36.6601 35.1766 36.6606 32.8789 38.0971 31.475Z" fill="white"/>
<path fill-rule="evenodd" clip-rule="evenodd" d="M188.147 79.4258C194.098 79.4258 198.951 74.6831 198.951 68.8676C198.951 63.0521 194.098 58.3094 188.147 58.3094C182.197 58.3094 177.344 63.0521 177.344 68.8676C177.344 74.6831 182.197 79.4258 188.147 79.4258Z" fill="white"/>
<path fill-rule="evenodd" clip-rule="evenodd" d="M182.701 64.3223H182.702C184.039 63.0159 186.226 63.0159 187.562 64.3223L188.145 64.8921L188.729 64.3223C190.065 63.0159 192.253 63.0159 193.59 64.3223C194.926 65.6286 194.926 67.7664 193.59 69.0728L193.007 69.643L188.145 74.3936L183.285 69.643L182.701 69.0728C181.365 67.7664 181.365 65.6286 182.701 64.3223Z" fill="#9ECBDB"/>
<path fill-rule="evenodd" clip-rule="evenodd" d="M46.1548 109.916C46.3352 109.739 46.6281 109.739 46.809 109.916C46.9895 110.093 46.9895 110.379 46.809 110.555L45.3378 111.993C45.1574 112.169 44.864 112.169 44.684 111.993C44.5031 111.817 44.5031 111.53 44.684 111.353L46.1548 109.916ZM47.8434 112.997C48.0989 112.997 48.306 113.199 48.306 113.448C48.306 113.698 48.0989 113.901 47.8434 113.901H45.7634C45.508 113.901 45.3008 113.698 45.3008 113.448C45.3008 113.199 45.508 112.997 45.7634 112.997H47.8434ZM46.809 116.342C46.9895 116.519 46.9895 116.805 46.809 116.981C46.6281 117.158 46.3352 117.158 46.1548 116.981L44.684 115.544C44.5031 115.368 44.5031 115.081 44.684 114.905C44.864 114.728 45.1574 114.728 45.3378 114.905L46.809 116.342ZM43.6566 117.993C43.6566 118.242 43.4495 118.445 43.194 118.445C42.9386 118.445 42.7314 118.242 42.7314 117.993V115.961C42.7314 115.71 42.9386 115.508 43.194 115.508C43.4495 115.508 43.6566 115.71 43.6566 115.961V117.993ZM40.2333 116.981C40.0529 117.158 39.7595 117.158 39.579 116.981C39.3986 116.805 39.3986 116.519 39.579 116.342L41.0502 114.905C41.2307 114.728 41.5236 114.728 41.7045 114.905C41.885 115.081 41.885 115.368 41.7045 115.544L40.2333 116.981ZM38.5446 113.901C38.2892 113.901 38.082 113.698 38.082 113.448C38.082 113.199 38.2892 112.997 38.5446 112.997H40.6247C40.8801 112.997 41.0873 113.199 41.0873 113.448C41.0873 113.698 40.8801 113.901 40.6247 113.901H38.5446ZM39.579 110.555C39.3986 110.379 39.3986 110.093 39.579 109.916C39.7595 109.739 40.0529 109.739 40.2333 109.916L41.7045 111.353C41.885 111.53 41.885 111.817 41.7045 111.993C41.5236 112.169 41.2307 112.169 41.0502 111.993L39.579 110.555ZM42.7314 108.904C42.7314 108.655 42.9386 108.453 43.194 108.453C43.4495 108.453 43.6566 108.655 43.6566 108.904V110.937C43.6566 111.188 43.4495 111.39 43.194 111.39C42.9386 111.39 42.7314 111.188 42.7314 110.937V108.904Z" fill="white"/>
<path fill-rule="evenodd" clip-rule="evenodd" d="M142.867 17.0745C143.037 16.9083 143.314 16.9083 143.485 17.0745C143.656 17.2417 143.656 17.5124 143.485 17.6791L142.095 19.0382C141.924 19.205 141.647 19.205 141.476 19.0382C141.305 18.8715 141.305 18.6008 141.476 18.4336L142.867 17.0745ZM144.463 19.9873C144.705 19.9873 144.901 20.1788 144.901 20.4147C144.901 20.6506 144.705 20.8416 144.463 20.8416H142.496C142.255 20.8416 142.059 20.6506 142.059 20.4147C142.059 20.1788 142.255 19.9873 142.496 19.9873H144.463ZM143.485 23.1502C143.656 23.3169 143.656 23.5876 143.485 23.7544C143.314 23.9211 143.037 23.9211 142.867 23.7544L141.476 22.3953C141.305 22.2286 141.305 21.9579 141.476 21.7911C141.647 21.6244 141.924 21.6244 142.095 21.7911L143.485 23.1502ZM140.505 24.7108C140.505 24.9467 140.309 25.1377 140.067 25.1377C139.826 25.1377 139.63 24.9467 139.63 24.7108V22.7888C139.63 22.5529 139.826 22.3614 140.067 22.3614C140.309 22.3614 140.505 22.5529 140.505 22.7888V24.7108ZM137.269 23.7544C137.098 23.9211 136.82 23.9211 136.65 23.7544C136.48 23.5876 136.48 23.3169 136.65 23.1502L138.041 21.7911C138.212 21.6244 138.488 21.6244 138.66 21.7911C138.83 21.9579 138.83 22.2286 138.66 22.3953L137.269 23.7544ZM135.672 20.8416C135.431 20.8416 135.234 20.6506 135.234 20.4147C135.234 20.1788 135.431 19.9873 135.672 19.9873H137.639C137.88 19.9873 138.076 20.1788 138.076 20.4147C138.076 20.6506 137.88 20.8416 137.639 20.8416H135.672ZM136.65 17.6791C136.48 17.5124 136.48 17.2417 136.65 17.0745C136.82 16.9083 137.098 16.9083 137.269 17.0745L138.66 18.4336C138.83 18.6008 138.83 18.8715 138.66 19.0382C138.488 19.205 138.212 19.205 138.041 19.0382L136.65 17.6791ZM139.63 16.1186C139.63 15.8831 139.826 15.6917 140.067 15.6917C140.309 15.6917 140.505 15.8831 140.505 16.1186V18.0406C140.505 18.2765 140.309 18.4684 140.067 18.4684C139.826 18.4684 139.63 18.2765 139.63 18.0406V16.1186Z" fill="white"/>
<path fill-rule="evenodd" clip-rule="evenodd" d="M63.1313 22.4961H64.199C64.4563 22.4961 64.6663 22.2909 64.6663 22.0399V20.996C64.6663 20.7449 64.4563 20.5397 64.199 20.5397H63.1313C62.874 20.5397 62.6641 20.7449 62.6641 20.996V22.0399C62.6641 22.2909 62.874 22.4961 63.1313 22.4961Z" fill="#9ECBDB"/>
<path fill-rule="evenodd" clip-rule="evenodd" d="M66.8379 22.4961H67.9061C68.1629 22.4961 68.3733 22.2909 68.3733 22.0399V20.996C68.3733 20.7449 68.1629 20.5397 67.9061 20.5397H66.8379C66.5811 20.5397 66.3711 20.7449 66.3711 20.996V22.0399C66.3711 22.2909 66.5811 22.4961 66.8379 22.4961Z" fill="white"/>
<path fill-rule="evenodd" clip-rule="evenodd" d="M70.541 22.4961H71.6092C71.866 22.4961 72.0765 22.2909 72.0765 22.0399V20.996C72.0765 20.7449 71.866 20.5397 71.6092 20.5397H70.541C70.2837 20.5397 70.0742 20.7449 70.0742 20.996V22.0399C70.0742 22.2909 70.2837 22.4961 70.541 22.4961Z" fill="#9ECBDB"/>
<path fill-rule="evenodd" clip-rule="evenodd" d="M74.2442 22.4961H75.3123C75.5691 22.4961 75.7796 22.2909 75.7796 22.0399V20.996C75.7796 20.7449 75.5691 20.5397 75.3123 20.5397H74.2442C73.9873 20.5397 73.7773 20.7449 73.7773 20.996V22.0399C73.7773 22.2909 73.9873 22.4961 74.2442 22.4961Z" fill="white"/>
<path fill-rule="evenodd" clip-rule="evenodd" d="M70.6739 18.5498H71.7425C71.9993 18.5498 72.2093 18.3446 72.2093 18.0936V17.0497C72.2093 16.7987 71.9993 16.5934 71.7425 16.5934H70.6739C70.417 16.5934 70.207 16.7987 70.207 17.0497V18.0936C70.207 18.3446 70.417 18.5498 70.6739 18.5498Z" fill="white"/>
<path fill-rule="evenodd" clip-rule="evenodd" d="M74.377 18.5498H75.4451C75.702 18.5498 75.9124 18.3446 75.9124 18.0936V17.0497C75.9124 16.7987 75.702 16.5934 75.4451 16.5934H74.377C74.1201 16.5934 73.9102 16.7987 73.9102 17.0497V18.0936C73.9102 18.3446 74.1201 18.5498 74.377 18.5498Z" fill="#9ECBDB"/>
<path fill-rule="evenodd" clip-rule="evenodd" d="M153.983 108.562H155.05C155.308 108.562 155.517 108.357 155.517 108.106V107.062C155.517 106.811 155.308 106.606 155.05 106.606H153.983C153.726 106.606 153.516 106.811 153.516 107.062V108.106C153.516 108.357 153.726 108.562 153.983 108.562Z" fill="#9ECBDB"/>
<path fill-rule="evenodd" clip-rule="evenodd" d="M157.686 108.562H158.754C159.011 108.562 159.221 108.357 159.221 108.106V107.062C159.221 106.811 159.011 106.606 158.754 106.606H157.686C157.429 106.606 157.219 106.811 157.219 107.062V108.106C157.219 108.357 157.429 108.562 157.686 108.562Z" fill="white"/>
<path fill-rule="evenodd" clip-rule="evenodd" d="M161.389 108.562H162.457C162.714 108.562 162.924 108.357 162.924 108.106V107.062C162.924 106.811 162.714 106.606 162.457 106.606H161.389C161.131 106.606 160.922 106.811 160.922 107.062V108.106C160.922 108.357 161.131 108.562 161.389 108.562Z" fill="#9ECBDB"/>
<path fill-rule="evenodd" clip-rule="evenodd" d="M165.092 108.562H166.16C166.417 108.562 166.628 108.357 166.628 108.106V107.062C166.628 106.811 166.417 106.606 166.16 106.606H165.092C164.835 106.606 164.625 106.811 164.625 107.062V108.106C164.625 108.357 164.835 108.562 165.092 108.562Z" fill="white"/>
<path fill-rule="evenodd" clip-rule="evenodd" d="M168.799 108.562H169.867C170.124 108.562 170.334 108.357 170.334 108.106V107.062C170.334 106.811 170.124 106.606 169.867 106.606H168.799C168.542 106.606 168.332 106.811 168.332 107.062V108.106C168.332 108.357 168.542 108.562 168.799 108.562Z" fill="#9ECBDB"/>
<path fill-rule="evenodd" clip-rule="evenodd" d="M161.522 104.616H162.59C162.847 104.616 163.057 104.411 163.057 104.159V103.115C163.057 102.865 162.847 102.659 162.59 102.659H161.522C161.265 102.659 161.055 102.865 161.055 103.115V104.159C161.055 104.411 161.265 104.616 161.522 104.616Z" fill="white"/>
<path fill-rule="evenodd" clip-rule="evenodd" d="M165.229 104.616H166.296C166.554 104.616 166.764 104.411 166.764 104.159V103.115C166.764 102.865 166.554 102.659 166.296 102.659H165.229C164.971 102.659 164.762 102.865 164.762 103.115V104.159C164.762 104.411 164.971 104.616 165.229 104.616Z" fill="#9ECBDB"/>
<path fill-rule="evenodd" clip-rule="evenodd" d="M168.932 104.616H170C170.257 104.616 170.467 104.411 170.467 104.159V103.115C170.467 102.865 170.257 102.659 170 102.659H168.932C168.675 102.659 168.465 102.865 168.465 103.115V104.159C168.465 104.411 168.675 104.616 168.932 104.616Z" fill="white"/>
<path fill-rule="evenodd" clip-rule="evenodd" d="M18.0769 33.2383C18.5172 33.2383 18.8766 32.8869 18.8766 32.4568C18.8766 32.0263 18.5172 31.6754 18.0769 31.6754C17.6365 31.6754 17.2773 32.0263 17.2773 32.4568C17.2773 32.8869 17.6365 33.2383 18.0769 33.2383Z" fill="white"/>
<path fill-rule="evenodd" clip-rule="evenodd" d="M56.0847 70.3213C56.5253 70.3213 56.8843 69.9704 56.8843 69.5398C56.8843 69.1102 56.5253 68.7584 56.0847 68.7584C55.6446 68.7584 55.2852 69.1102 55.2852 69.5398C55.2852 69.9704 55.6446 70.3213 56.0847 70.3213Z" fill="white"/>
<path fill-rule="evenodd" clip-rule="evenodd" d="M166.159 70.3027C166.6 70.3027 166.958 69.9514 166.958 69.5213C166.958 69.0912 166.6 68.7398 166.159 68.7398C165.718 68.7398 165.359 69.0912 165.359 69.5213C165.359 69.9514 165.718 70.3027 166.159 70.3027Z" fill="white"/>
<path fill-rule="evenodd" clip-rule="evenodd" d="M147.464 116.462C147.904 116.462 148.263 116.112 148.263 115.681C148.263 115.251 147.904 114.899 147.464 114.899C147.023 114.899 146.664 115.251 146.664 115.681C146.664 116.112 147.023 116.462 147.464 116.462Z" fill="white"/>
<path fill-rule="evenodd" clip-rule="evenodd" d="M25.2253 108.568C25.6656 108.568 26.0246 108.217 26.0246 107.787C26.0246 107.357 25.6656 107.006 25.2253 107.006C24.785 107.006 24.4258 107.357 24.4258 107.787C24.4258 108.217 24.785 108.568 25.2253 108.568Z" fill="white"/>
<path fill-rule="evenodd" clip-rule="evenodd" d="M57.698 124.437C58.1386 124.437 58.4976 124.085 58.4976 123.655C58.4976 123.224 58.1386 122.874 57.698 122.874C57.2579 122.874 56.8984 123.224 56.8984 123.655C56.8984 124.085 57.2579 124.437 57.698 124.437Z" fill="white"/>
<path fill-rule="evenodd" clip-rule="evenodd" d="M186.331 139.061C186.771 139.061 187.13 138.71 187.13 138.28C187.13 137.849 186.771 137.499 186.331 137.499C185.891 137.499 185.531 137.849 185.531 138.28C185.531 138.71 185.891 139.061 186.331 139.061Z" fill="white"/>
</g>
<defs>
<clipPath id="clip0_3913_1022">
<rect width="207" height="200" fill="white"/>
</clipPath>
</defs>
</svg>
