<svg width="438" height="379" viewBox="0 0 438 379" fill="none" xmlns="http://www.w3.org/2000/svg">
<g clip-path="url(#clip0_3914_2475)">
<path d="M199.386 39.8199C195.819 36.1345 194.837 31.3136 197.191 29.0524C199.545 26.7912 204.344 27.9461 207.911 31.6333C209.356 33.0867 210.431 34.8638 211.045 36.816L225.958 52.6214L219.67 58.4818L204.47 43.1318C202.534 42.4483 200.791 41.3127 199.386 39.8199V39.8199Z" fill="#FFB6B6"/>
<path d="M215.512 41.9483L212.68 37.8662L204.051 44.4079L208.744 46.7457L215.512 41.9483Z" fill="#6C63FF"/>
<path d="M298.286 94.4599L293.912 71.4918L250.726 67.421L214.763 39.8047L206.125 45.8785L235.911 87.7364L298.286 94.4599Z" fill="#2F2E41"/>
<path d="M269.864 57.119C267.062 55.8848 263.214 58.441 261.268 62.8286C260.466 64.5717 260.095 66.481 260.185 68.3964L257.904 73.707L257.864 73.7119L247.388 91.8049L232.395 69.9765C230.102 66.6376 225.902 65.164 222.015 66.3345H222.015C215.65 68.2515 213.293 76.0069 217.522 81.1206L242.284 111.063C244.881 114.204 249.875 113.584 251.619 109.904L266.224 75.7412L268.011 71.8435C269.493 70.621 270.66 69.0626 271.413 67.2988C273.36 62.9099 272.666 58.3532 269.864 57.119V57.119Z" fill="#FFB6B6"/>
<path d="M438 361.434C438 361.983 437.558 362.424 437.007 362.424H0.993424C0.442475 362.424 0 361.983 0 361.434C0 360.885 0.442475 360.444 0.993424 360.444H437.007C437.558 360.444 438 360.885 438 361.434Z" fill="#3F3D56"/>
<path d="M270.887 58.8159L271.323 40.9436L281.759 35.2207L290.346 48.5258L270.887 58.8159Z" fill="#FFB6B6"/>
<path d="M291.161 46.6299L267.805 57.1908L266.703 71.0013L294.965 55.8369L291.161 46.6299Z" fill="#6C63FF"/>
<path d="M303.274 108.324L303.266 108.358C301.571 118.448 299.309 125.702 299.309 125.702L300.01 141.824L301.488 175.531L292.296 176.338L277.812 177.603L276.41 177.727L266.81 178.567L252.025 179.857L247.676 117.034C247.676 117.034 253.06 103.258 258.203 90.1395C261.676 81.2884 265.04 72.7284 266.551 68.9101C266.701 68.5358 266.835 68.2114 266.943 67.9368C268.705 63.5279 277.479 58.0542 284.274 54.3607C288.89 51.8401 292.605 50.1348 292.605 50.1348L296.312 56.9395L296.596 57.4635C302.156 64.2183 304.435 73.6185 304.96 83.2849C305.002 83.9836 305.027 84.6824 305.052 85.3812C305.294 93.4171 304.409 101.52 303.274 108.324Z" fill="#2F2E41"/>
<path d="M278.287 355.739L268.57 355.648L264.297 318.257L278.638 318.391L278.287 355.739Z" fill="#FFB6B6"/>
<path d="M244.996 355.211C244.688 355.716 244.513 357.353 244.508 357.943C244.491 359.758 245.954 361.243 247.775 361.26L277.868 361.54C279.11 361.551 280.127 360.557 280.139 359.319L280.15 358.07C280.15 358.07 281.674 354.332 278.652 349.679C278.652 349.679 274.809 353.264 269.17 347.54L267.52 344.494L255.287 353.236L248.545 354C247.07 354.167 245.766 353.946 244.996 355.211H244.996H244.996Z" fill="#2F2E41"/>
<path d="M328.025 343.815L319.202 347.871L299.301 315.887L312.324 309.9L328.025 343.815Z" fill="#FFB6B6"/>
<path d="M297.704 357.515C297.643 358.103 298.187 359.657 298.435 360.193C299.198 361.842 301.158 362.561 302.812 361.801L330.137 349.237C331.265 348.718 331.758 347.386 331.237 346.262L330.712 345.128C330.712 345.128 330.486 341.1 325.759 338.18C325.759 338.18 323.823 343.058 316.269 340.284L313.471 338.234L306.161 351.347L300.393 354.909C299.131 355.688 297.857 356.044 297.704 357.515L297.704 357.515L297.704 357.515Z" fill="#2F2E41"/>
<path d="M254.574 172.696L255.572 256.749L263.852 344.506H279.203L291.702 229.747C291.702 229.747 309.767 201.994 299.229 177.242V164.967L254.574 172.696H254.574Z" fill="#2F2E41"/>
<path d="M280.413 252.248L323.318 328.004L311.274 340.005L277.402 291.251L280.413 252.248Z" fill="#2F2E41"/>
<path d="M234.909 63.1489L217.517 57.1914C217.517 57.1914 202.842 74.5222 210.451 95.644L212.625 121.099C212.625 121.099 182.733 146.012 180.559 177.965C178.385 209.919 107.73 294.406 107.73 294.406C107.73 294.406 81.6417 296.031 80.0112 305.78C78.3807 315.528 89.2507 327.985 87.0767 338.816C84.9027 349.648 102.641 381.06 140.241 378.894C177.841 376.727 294.15 355.605 295.78 331.234C297.411 306.863 237.626 125.431 237.626 125.431L246.322 101.06C246.322 101.06 252.3 91.3113 243.605 81.0212C234.909 70.7311 234.908 63.1488 234.908 63.1488L234.909 63.1489Z" fill="#E6E6E6"/>
<path d="M216.676 58.277L217.116 57.1905L220.231 46.9004L235.993 52.3163L234.906 63.148L216.676 58.277Z" fill="#FFB6B6"/>
<path d="M275.765 47.1749C286.322 47.1749 294.881 38.6465 294.881 28.126C294.881 17.6056 286.322 9.07715 275.765 9.07715C265.207 9.07715 256.648 17.6056 256.648 28.126C256.648 38.6465 265.207 47.1749 275.765 47.1749Z" fill="#FFB6B6"/>
<path d="M272.972 36.292L264.931 28.5079L267.156 22.454C267.156 22.454 251.264 28.3333 255.207 15.9498C259.15 3.56633 279.27 4.81646 283.437 7.83788C287.604 10.8593 301.107 17.8547 297.642 27.6633C294.177 37.4718 287.604 46.2981 287.604 46.2981L282.407 43.2915C282.407 43.2915 282.242 31.9946 279.673 32.5453C277.104 33.096 272.972 36.292 272.972 36.292Z" fill="#2F2E41"/>
<path d="M235.36 54.6116C245.102 54.6116 253 46.7413 253 37.0328C253 27.3244 245.102 19.4541 235.36 19.4541C225.617 19.4541 217.719 27.3244 217.719 37.0328C217.719 46.7413 225.617 54.6116 235.36 54.6116Z" fill="#FFB6B6"/>
<path d="M233.952 13.3994C234.462 13.6964 235.146 13.2471 235.31 12.6812C235.473 12.1152 235.283 11.5143 235.094 10.9563L234.142 8.14708C233.467 6.15472 232.75 4.09274 231.288 2.57629C229.082 0.287464 225.575 -0.294805 222.418 0.127029C218.364 0.668744 214.364 2.85624 212.479 6.47355C210.594 10.0909 211.396 15.1383 214.802 17.3952C209.948 22.9396 208.256 29.1186 208.523 36.4718C208.79 43.825 216.832 50.5923 222.076 55.7724C223.247 55.0649 224.312 51.7497 223.668 50.5454C223.024 49.341 223.946 47.9457 223.149 46.8364C222.351 45.7271 221.684 47.4935 222.49 46.3904C222.999 45.6944 221.013 44.0931 221.769 43.6765C225.428 41.6616 226.644 37.1179 228.942 33.6385C231.713 29.4416 236.456 26.5995 241.476 26.128C244.241 25.8682 247.161 26.3387 249.427 27.9382C251.694 29.5378 253.161 32.3962 252.635 35.1137C253.996 33.7366 254.674 31.7184 254.418 29.8024C254.163 27.8863 252.98 26.1145 251.305 25.1395C252.323 21.7837 251.451 17.9236 249.087 15.3268C246.724 12.7299 237.136 13.1722 233.685 13.8557" fill="#2F2E41"/>
<path d="M233.415 26.2295C228.844 26.7211 225.544 30.6662 222.758 34.3094C221.152 36.4093 219.469 38.7283 219.509 41.3682C219.55 44.0373 221.341 46.3266 222.197 48.856C223.596 52.9905 222.232 57.9095 218.902 60.7424C222.193 61.3647 225.75 58.9061 226.318 55.617C226.979 51.7881 224.067 48.0926 224.412 44.2226C224.715 40.8131 227.412 38.1891 229.704 35.6398C231.996 33.0905 234.149 29.7077 233.095 26.4501" fill="#2F2E41"/>
<path d="M406.139 271.853C403.501 272.136 400.622 272.561 397.56 273.182C384.577 275.817 384.307 284.602 384.421 286.616L384.333 286.561C383.027 288.648 382.209 290.76 381.715 292.753L381.121 265.828C381.505 265.029 381.855 264.124 382.147 263.195C383.119 266.178 384.712 268.995 386.085 268.808C387.871 268.565 388.649 263.33 388.316 259.609C390.587 262.523 394.409 265.64 395.85 264.679C397.002 263.911 396.319 260.749 395.062 257.875C397.682 259.448 400.585 260.482 401.485 259.483C402.715 258.12 399.769 253.468 397.053 250.871C400.689 251.209 405.313 250.632 405.616 248.983C405.866 247.625 403.114 245.911 400.168 244.807C403.127 244.03 405.893 242.675 405.802 241.336C405.693 239.744 401.585 238.677 398.042 238.515C400.715 236.432 403.17 233.551 402.419 232.249C401.729 231.051 398.517 231.515 395.554 232.57C397.307 230.071 398.54 227.256 397.601 226.293C396.432 225.093 392.281 227.164 389.448 229.454C389.999 225.887 389.72 221.384 388.115 220.977C386.772 220.636 384.868 223.255 383.563 226.108C382.986 223.114 381.818 220.271 380.471 220.271C378.551 220.271 376.994 226.04 376.994 229.798C376.994 230.01 377 230.21 377.01 230.401C376.817 230.178 376.596 229.946 376.344 229.702C373.639 227.084 368.402 224.178 367.064 225.55C366.125 226.514 367.358 229.329 369.112 231.827C366.149 230.773 362.937 230.309 362.246 231.506C361.319 233.115 365.284 237.132 368.507 239.081C368.314 239.057 368.11 239.038 367.893 239.023C364.131 238.767 358.25 239.922 358.119 241.83C358.027 243.17 360.794 244.525 363.752 245.302C360.807 246.405 358.055 248.12 358.305 249.478C358.608 251.127 363.232 251.704 366.867 251.366C364.151 253.963 361.206 258.615 362.435 259.978C363.336 260.977 366.238 259.943 368.859 258.37C367.601 261.244 366.918 264.406 368.07 265.173C369.593 266.188 373.768 262.656 375.97 259.617C375.745 263.335 376.638 268.443 378.41 268.645C379.151 268.729 379.936 267.942 380.644 266.73L378.638 295.67C378.169 299.041 381.169 301.24 381.437 302.629L381.87 322.227C381.381 320.831 380.723 319.402 379.836 317.985L379.748 318.04C379.862 316.025 379.592 307.241 366.609 304.606C363.547 303.985 360.668 303.56 358.03 303.277C354.915 302.943 353.7 307.192 356.514 308.565C360.589 310.552 364.422 313.056 366.42 316.022C371.528 323.603 378.586 319.221 379.59 318.54C380.711 320.399 381.446 322.273 381.91 324.055L382.14 334.463C382.084 334.709 382.045 334.847 382.042 334.857L382.149 334.889L382.705 360.077L387.865 360.035L386.02 334.289C386.33 332.901 387.284 328.169 386.02 323.255L384.174 303.026C384.169 303.011 384.279 303.558 384.174 303.026L381.767 295.078C382.117 292.619 382.929 289.853 384.579 287.116C385.583 287.796 392.641 292.179 397.749 284.598C399.747 281.632 403.58 279.128 407.655 277.141C410.469 275.768 409.254 271.519 406.139 271.853L406.139 271.853ZM382.57 331.447L382.473 327.043C382.669 328.708 382.659 330.211 382.57 331.447Z" fill="#F2F2F2"/>
<path d="M64.7019 271.853C62.0631 272.136 59.1844 272.561 56.1224 273.182C43.139 275.817 42.8696 284.602 42.9833 286.616L42.8951 286.561C41.5896 288.648 40.772 290.76 40.2778 292.753L39.6833 265.828C40.0677 265.029 40.4175 264.124 40.7092 263.195C41.681 266.178 43.2742 268.995 44.6475 268.808C46.4332 268.565 47.2117 263.33 46.8786 259.609C49.1494 262.523 52.9712 265.64 54.4129 264.679C55.5649 263.911 54.8818 260.749 53.6241 257.875C56.2448 259.448 59.1473 260.482 60.0479 259.483C61.277 258.12 58.3319 253.468 55.6159 250.871C59.2515 251.209 63.8753 250.632 64.1784 248.983C64.4282 247.625 61.6763 245.911 58.7309 244.807C61.6893 244.03 64.4559 242.675 64.3641 241.336C64.2551 239.744 60.1478 238.677 56.6044 238.515C59.277 236.432 61.7328 233.551 60.9818 232.249C60.2914 231.051 57.0796 231.515 54.1163 232.57C55.8699 230.071 57.1028 227.256 56.1639 226.293C54.9942 225.093 50.8431 227.164 48.0102 229.454C48.5617 225.887 48.2829 221.384 46.6773 220.977C45.3342 220.636 43.4305 223.255 42.1254 226.108C41.5485 223.114 40.3808 220.271 39.0331 220.271C37.1131 220.271 35.5567 226.04 35.5567 229.798C35.5567 230.01 35.5624 230.21 35.5721 230.401C35.3794 230.178 35.1586 229.946 34.9067 229.702C32.2013 227.084 26.9644 224.178 25.6268 225.55C24.6879 226.514 25.9208 229.329 27.6744 231.827C24.7111 230.773 21.4993 230.309 20.8089 231.506C19.8812 233.115 23.8466 237.132 27.0699 239.081C26.8762 239.057 26.6726 239.038 26.4559 239.023C22.6934 238.767 16.8123 239.922 16.6816 241.83C16.5899 243.17 19.3564 244.525 22.3149 245.302C19.3695 246.405 16.6176 248.12 16.8674 249.478C17.1705 251.127 21.7943 251.704 25.4299 251.366C22.7138 253.963 19.7688 258.615 20.9978 259.978C21.8985 260.977 24.801 259.943 27.4217 258.37C26.164 261.244 25.4809 264.406 26.6329 265.173C28.1554 266.188 32.3308 262.656 34.5323 259.617C34.308 263.335 35.2008 268.443 36.9723 268.645C37.7131 268.729 38.4981 267.942 39.2066 266.73L37.2001 295.67C36.731 299.041 39.7312 301.24 39.9993 302.629L40.4321 322.227C39.9437 320.831 39.2858 319.402 38.399 317.985L38.3107 318.04C38.4245 316.025 38.1548 307.241 25.1717 304.606C22.1096 303.985 19.231 303.56 16.5922 303.277C13.4774 302.943 12.2624 307.192 15.0762 308.565C19.1513 310.552 22.9846 313.056 24.9827 316.022C30.0909 323.603 37.1489 319.221 38.1524 318.54C39.2733 320.399 40.0083 322.273 40.4725 324.055L40.7023 334.463C40.646 334.709 40.607 334.847 40.604 334.857L40.7117 334.889L41.2679 360.077L46.4275 360.035L44.582 334.289C44.8922 332.901 45.8462 328.169 44.582 323.255L42.7365 303.026C42.7319 303.011 42.8413 303.558 42.7365 303.026L40.3292 295.078C40.6793 292.619 41.4917 289.853 43.1416 287.116C44.1451 287.796 51.2032 292.179 56.3114 284.598C58.3094 281.632 62.1428 279.128 66.2178 277.141C69.0317 275.768 67.8167 271.519 64.7019 271.853L64.7019 271.853ZM41.1323 331.447L41.0351 327.043C41.2312 328.708 41.2213 330.211 41.1323 331.447Z" fill="#F2F2F2"/>
<path d="M212.538 122.244L238.094 122.162C239.706 122.156 239.709 119.661 238.094 119.666L212.538 119.748C210.926 119.753 210.923 122.249 212.538 122.244Z" fill="#6C63FF"/>
<path d="M282.276 172.683C280.835 170.899 278.987 169.485 276.885 168.559L275.492 166.92L275.561 166.853L248.464 122.294L233.778 78.7777C232.079 73.7427 226.532 71.1111 221.539 72.9704C216.543 74.8304 214.088 80.4447 216.122 85.357L233.283 126.807L268.17 174.008L269.013 175.05C269.533 177.28 270.581 179.353 272.069 181.097C275.735 185.511 280.99 187.205 283.809 184.881C286.627 182.557 285.941 177.096 282.276 172.683V172.683Z" fill="#FFB6B6"/>
<path d="M292.222 182.129C291.063 188.543 286.804 193.146 282.708 192.411C278.612 191.675 276.232 185.881 277.391 179.465C277.819 176.896 278.858 174.467 280.422 172.38L285.674 145.268L296.428 147.365L291.861 174.433C292.597 176.933 292.72 179.572 292.222 182.129L292.222 182.129Z" fill="#FFB6B6"/>
<path d="M282.406 163.962L280.289 169.915L293.494 173.913L292.417 167.345L282.406 163.962Z" fill="#6C63FF"/>
<path d="M305.054 85.3812L304.428 96.4451L303.276 108.324L303.267 108.358L300.012 141.824L297.549 167.196L297.081 171.946L293.024 171.039L292.457 170.914L288.324 169.991L281.195 168.385L280.861 168.319L279.434 167.994L283.065 108.574L283.633 83.027L284.134 60.6164L284.275 54.3607C288.892 51.8401 292.607 50.1348 292.607 50.1348L296.313 56.9395L296.597 57.4636C302.157 64.2184 304.436 73.6185 304.962 83.2849C305.004 83.9836 305.029 84.6824 305.054 85.3812H305.054Z" fill="#2F2E41"/>
</g>
<defs>
<clipPath id="clip0_3914_2475">
<rect width="438" height="379" fill="white"/>
</clipPath>
</defs>
</svg>
