<?xml version="1.0" encoding="UTF-8" standalone="no"?>
<!-- Created with Inkscape (http://www.inkscape.org/) -->

<svg
   width="14.910868mm"
   height="14.747713mm"
   viewBox="0 0 14.91087 14.747713"
   version="1.1"
   id="svg1015"
   inkscape:version="1.2.2 (1:1.2.2+202212051552+b0a8486541)"
   sodipodi:docname="pes_bahagia_flower_thx_top_m.svg"
   xmlns:inkscape="http://www.inkscape.org/namespaces/inkscape"
   xmlns:sodipodi="http://sodipodi.sourceforge.net/DTD/sodipodi-0.dtd"
   xmlns="http://www.w3.org/2000/svg"
   xmlns:svg="http://www.w3.org/2000/svg"
   xmlns:rdf="http://www.w3.org/1999/02/22-rdf-syntax-ns#"
   xmlns:cc="http://creativecommons.org/ns#"
   xmlns:dc="http://purl.org/dc/elements/1.1/">
  <defs
     id="defs1009" />
  <sodipodi:namedview
     id="base"
     pagecolor="#ffffff"
     bordercolor="#666666"
     borderopacity="1.0"
     inkscape:pageopacity="0.0"
     inkscape:pageshadow="2"
     inkscape:zoom="0.98994949"
     inkscape:cx="54.043161"
     inkscape:cy="-30.809653"
     inkscape:document-units="mm"
     inkscape:current-layer="g2644"
     showgrid="false"
     inkscape:window-width="1366"
     inkscape:window-height="699"
     inkscape:window-x="0"
     inkscape:window-y="800"
     inkscape:window-maximized="1"
     inkscape:showpageshadow="2"
     inkscape:pagecheckerboard="0"
     inkscape:deskcolor="#d1d1d1" />
  <metadata
     id="metadata1012">
    <rdf:RDF>
      <cc:Work
         rdf:about="">
        <dc:format>image/svg+xml</dc:format>
        <dc:type
           rdf:resource="http://purl.org/dc/dcmitype/StillImage" />
        <dc:title />
      </cc:Work>
    </rdf:RDF>
  </metadata>
  <g
     inkscape:label="Layer 1"
     inkscape:groupmode="layer"
     id="layer1"
     transform="translate(184.05515,-337.79605)">
    <g
       transform="matrix(0.35277777,0,0,-0.35277777,-312.46746,493.75403)"
       id="g2644">
      <g
         id="g6332"
         inkscape:export-filename="../../../../../../home/tegarkusuma/Documents/metashare/tema1/ilustrations/pesan_bahagia_flower_2.svg"
         inkscape:export-xdpi="96"
         inkscape:export-ydpi="96">
        <g
           id="g9069"
           inkscape:export-filename="../../../../../../home/tegarkusuma/Documents/metashare/tema1/ilustrations/pesan_bahagia_flower_2.svg"
           inkscape:export-xdpi="96"
           inkscape:export-ydpi="96">
          <g
             id="g6290"
             style="fill:#ef6351;fill-opacity:1">
            <path
               d="m 391.2613,415.47651 c 1.23091,-2.01121 1.83362,-4.38849 2.4926,-6.61617 0.59477,-2.01316 1.14949,-4.19464 0.28862,-6.20392 -0.72518,-1.69491 -2.07756,-2.72136 -3.98101,-2.26807 -1.99547,0.47526 -3.08009,2.64964 -3.75893,4.32969 -0.87279,2.16016 -1.74558,4.2389 -1.87698,6.59323 -0.0751,1.34178 -0.14463,2.66095 -0.12345,3.9995 0.008,0.51306 0.0976,1.43773 0.43821,1.93335 0.099,1.13177 1.31664,1.8823 2.48698,1.98699 2.04412,0.18577 3.19791,-2.39053 4.03396,-3.7546"
               style="fill:#ef6351;fill-opacity:1;fill-rule:nonzero;stroke:none;stroke-width:0.1"
               id="path478"
               inkscape:connector-curvature="0" />
            <g
               id="g6280"
               style="fill:#ef6351;fill-opacity:1">
              <path
                 d="m 383.50946,428.24717 c -0.2158,2.33236 0.29788,4.72967 0.69472,7.0168 0.35845,2.06614 0.82877,4.26669 2.49723,5.71121 1.40732,1.21965 3.08174,1.57149 4.59465,0.35733 1.58737,-1.27393 1.59796,-3.69094 1.46259,-5.49247 -0.17376,-2.31492 -0.31145,-4.55973 -1.23885,-6.73604 -0.52924,-1.24066 -1.05285,-2.45805 -1.66714,-3.65541 -0.235,-0.45911 -0.72749,-1.25422 -1.25441,-1.55663 -0.59179,-0.97669 -2.02195,-1.13727 -3.12344,-0.73761 -1.92431,0.69916 -1.81906,3.50937 -1.96535,5.09282"
                 style="fill:#ef6351;fill-opacity:1;fill-rule:nonzero;stroke:none;stroke-width:0.1"
                 id="path472"
                 inkscape:connector-curvature="0" />
              <path
                 d="m 390.21243,427.33606 c 1.73433,1.61899 3.97406,2.72169 6.05294,3.84442 1.8783,1.01513 3.93434,2.02801 6.13138,1.65549 1.8548,-0.31339 3.18103,-1.3715 3.15091,-3.28418 -0.0301,-2.00507 -1.96039,-3.52067 -3.48752,-4.54034 -1.96237,-1.31108 -3.84531,-2.60537 -6.16712,-3.25381 -1.32259,-0.37025 -2.62466,-0.72953 -3.96678,-1.00803 -0.51401,-0.10565 -1.45796,-0.22616 -2.02923,-0.0126 -1.15114,-0.15702 -2.17221,0.83454 -2.53794,1.92399 -0.63945,1.90427 1.67673,3.5756 2.85336,4.67506"
                 style="fill:#ef6351;fill-opacity:1;fill-rule:nonzero;stroke:none;stroke-width:0.1"
                 id="path474"
                 inkscape:connector-curvature="0" />
              <path
                 d="m 393.66255,421.652 c 2.37775,-0.3134 4.65753,-1.33532 6.85291,-2.22155 1.98389,-0.80126 4.076,-1.73821 5.14871,-3.64797 0.90555,-1.61059 0.88437,-3.28225 -0.66527,-4.45214 -1.62544,-1.22676 -4.0439,-0.69949 -5.81198,-0.16995 -2.27383,0.68139 -4.48344,1.31141 -6.45111,2.67872 -1.12102,0.77831 -2.22086,1.54888 -3.27999,2.39924 -0.40612,0.32632 -1.09025,0.9712 -1.27526,1.54113 -0.844,0.78025 -0.68679,2.17696 -0.0411,3.1362 1.12566,1.67521 3.9082,0.94988 5.52304,0.73632"
                 style="fill:#ef6351;fill-opacity:1;fill-rule:nonzero;stroke:none;stroke-width:0.1"
                 id="path476"
                 inkscape:connector-curvature="0" />
              <path
                 d="m 384.81682,413.4569 c -0.84234,-2.1928 -2.3708,-4.13487 -3.74436,-6.02687 -1.24084,-1.70945 -2.64286,-3.49289 -4.78823,-4.08866 -1.81069,-0.50273 -3.47577,-0.11018 -4.29961,1.62448 -0.86326,1.82027 0.20209,4.00369 1.12443,5.5684 1.18583,2.01316 2.30636,3.97559 4.11059,5.54385 1.02659,0.89333 2.04038,1.76922 3.12533,2.58825 0.41637,0.31242 1.2127,0.82064 1.82303,0.8704 0.96811,0.62872 2.32777,0.16832 3.14231,-0.65943 1.42188,-1.44419 0.0791,-3.93132 -0.49349,-5.42042"
                 style="fill:#ef6351;fill-opacity:1;fill-rule:nonzero;stroke:none;stroke-width:0.1"
                 id="path480"
                 inkscape:connector-curvature="0" />
              <path
                 d="m 379.18224,417.11747 c -2.2818,-0.72468 -4.78989,-0.76927 -7.16231,-0.90077 -2.14179,-0.11857 -4.44494,-0.16089 -6.2594,1.10528 -1.53206,1.0691 -2.25479,2.58341 -1.37935,4.29448 0.91923,1.79248 3.3311,2.34173 5.16092,2.61345 2.35137,0.3499 4.62194,0.7179 7.00188,0.31953 1.35612,-0.22681 2.68956,-0.45426 4.02208,-0.77218 0.51004,-0.12213 1.41427,-0.4129 1.83362,-0.84746 1.10746,-0.34731 1.58705,-1.67165 1.43215,-2.80924 -0.27041,-1.98634 -3.10028,-2.51167 -4.64959,-3.00309"
                 style="fill:#ef6351;fill-opacity:1;fill-rule:nonzero;stroke:none;stroke-width:0.1"
                 id="path482"
                 inkscape:connector-curvature="0" />
              <path
                 d="m 378.60104,423.69875 c -2.00354,1.28944 -3.60296,3.17692 -5.18739,4.90575 -1.43095,1.56181 -2.90086,3.29161 -3.0176,5.46599 -0.0994,1.83578 0.66275,3.33199 2.57932,3.73036 2.00848,0.41646 3.95297,-1.08266 5.31124,-2.30878 1.74658,-1.57731 3.45674,-3.07999 4.62113,-5.1458 0.66427,-1.17604 1.31332,-2.33495 1.88988,-3.55073 0.2201,-0.4646 0.55108,-1.33661 0.46437,-1.92786 0.41206,-1.06199 -0.34952,-2.25353 -1.35801,-2.84413 -1.75882,-1.03227 -3.94328,0.80028 -5.30294,1.6752"
                 style="fill:#ef6351;fill-opacity:1;fill-rule:nonzero;stroke:none;stroke-width:0.1"
                 id="path484"
                 inkscape:connector-curvature="0" />
            </g>
          </g>
          <path
             d="m 386.67758,427.83394 c 0.44384,1.64354 0.71425,3.31907 1.26037,4.9316 -0.11287,0.041 -0.21745,0.10145 -0.30152,0.18287 -0.19627,0.18771 -0.31112,0.52017 -0.24824,0.78251 0.0566,0.23941 0.27538,0.5499 0.54281,0.6003 0.12478,0.0226 0.27074,0.0123 0.40346,-0.0307 0.0751,-0.004 0.14993,-0.0165 0.22308,-0.0507 0.51765,-0.23876 0.58451,-0.8872 0.25154,-1.2917 -0.18468,-0.22261 -0.47594,-0.28658 -0.7447,-0.23036 -0.29126,-1.67779 -0.56465,-3.35364 -0.89662,-5.02626 -0.26677,-1.34243 -0.27438,-3.0073 -0.86451,-4.23309 -0.0745,-0.15573 -0.32337,-0.075 -0.32105,0.0843 0.0205,1.41512 0.32733,2.91618 0.69538,4.28122"
             style="fill:#044e57;fill-opacity:1;fill-rule:nonzero;stroke:none;stroke-width:0.1"
             id="path486"
             inkscape:connector-curvature="0" />
          <path
             d="m 391.80676,424.68514 c 1.59266,0.68591 3.10358,1.524 4.73531,2.11298 -0.0374,0.11082 -0.0546,0.22907 -0.0424,0.34377 0.0291,0.26655 0.22341,0.56152 0.47264,0.67784 0.22738,0.105 0.61165,0.13214 0.81884,-0.0407 0.097,-0.0804 0.17939,-0.19903 0.22738,-0.32697 0.0437,-0.0594 0.0801,-0.12439 0.0986,-0.20096 0.13173,-0.54472 -0.34587,-0.99931 -0.87775,-0.99769 -0.29358,0.001 -0.52626,0.18448 -0.64905,0.42421 -1.52515,-0.82419 -3.03805,-1.65969 -4.58505,-2.44867 -1.2405,-0.63422 -2.57865,-1.66649 -3.9297,-1.98053 -0.17079,-0.0401 -0.26049,0.20064 -0.13207,0.29821 1.14685,0.86652 2.5396,1.56827 3.86319,2.13852"
             style="fill:#044e57;fill-opacity:1;fill-rule:nonzero;stroke:none;stroke-width:0.1"
             id="path488"
             inkscape:connector-curvature="0" />
          <path
             d="m 392.48195,418.80721 c 1.54269,-0.78768 3.15588,-1.41835 4.64429,-2.2965 0.0672,0.0985 0.15027,0.18449 0.24989,0.2462 0.23202,0.14409 0.58881,0.1806 0.83771,0.062 0.22573,-0.10791 0.48621,-0.3848 0.4776,-0.65038 -0.004,-0.12406 -0.0477,-0.2604 -0.12014,-0.37736 -0.0202,-0.0691 -0.0496,-0.13828 -0.0993,-0.20096 -0.35415,-0.43908 -1.0161,-0.35863 -1.34642,0.0485 -0.18204,0.22487 -0.18038,0.51726 -0.0655,0.75958 -1.61054,0.65102 -3.22241,1.28459 -4.81938,1.97244 -1.28122,0.55216 -2.94174,0.92985 -4.03595,1.76535 -0.13868,0.10436 -0.003,0.32373 0.15556,0.28626 1.4093,-0.33569 2.83979,-0.96054 4.12167,-1.61512"
             style="fill:#044e57;fill-opacity:1;fill-rule:nonzero;stroke:none;stroke-width:0.1"
             id="path490"
             inkscape:connector-curvature="0" />
          <path
             d="m 388.19545,414.62712 c 0.33131,-1.66907 0.83142,-3.29323 1.05681,-4.97716 0.12048,0.0113 0.24129,0 0.3525,-0.0362 0.25981,-0.0869 0.51202,-0.33731 0.57226,-0.60062 0.0543,-0.24006 -0.005,-0.61096 -0.22242,-0.76992 -0.10227,-0.075 -0.23864,-0.12665 -0.37732,-0.14377 -0.0685,-0.0284 -0.14265,-0.0485 -0.22341,-0.0498 -0.57193,-0.003 -0.92045,0.55183 -0.80063,1.05714 0.0668,0.27947 0.30119,0.46105 0.56796,0.52373 -0.48356,1.63546 -0.98102,3.26027 -1.42586,4.90801 -0.35646,1.32304 -1.08991,2.82604 -1.10348,4.18107 -0.002,0.17156 0.25849,0.20354 0.32701,0.0595 0.61032,-1.28427 1.00187,-2.7666 1.27658,-4.15199"
             style="fill:#044e57;fill-opacity:1;fill-rule:nonzero;stroke:none;stroke-width:0.1"
             id="path492"
             inkscape:connector-curvature="0" />
          <path
             d="m 382.17495,415.29235 c -1.12963,-1.29396 -2.11859,-2.68808 -3.32733,-3.9087 0.0834,-0.0863 0.15093,-0.18481 0.19131,-0.29369 0.0914,-0.25233 0.0483,-0.6003 -0.12544,-0.81095 -0.15755,-0.19062 -0.49217,-0.37672 -0.7547,-0.31016 -0.12412,0.0323 -0.25055,0.10403 -0.34945,0.19967 -0.0663,0.0333 -0.12891,0.0779 -0.18025,0.13892 -0.3598,0.43456 -0.13199,1.04616 0.34846,1.26974 0.26504,0.12374 0.55564,0.0572 0.7731,-0.10695 1.00849,1.38895 2.00043,2.78146 3.04136,4.14812 0.83704,1.09688 1.58439,2.59406 2.66073,3.44863 0.13703,0.10888 0.32469,-0.0698 0.25188,-0.21163 -0.64839,-1.2665 -1.59135,-2.49003 -2.52967,-3.563"
             style="fill:#044e57;fill-opacity:1;fill-rule:nonzero;stroke:none;stroke-width:0.1"
             id="path494"
             inkscape:connector-curvature="0" />
          <path
             d="m 378.9542,420.30214 c -1.74075,0.0556 -3.47389,-0.0598 -5.2057,0.10209 -0.0167,-0.1176 -0.0535,-0.23036 -0.11505,-0.32858 -0.1452,-0.22745 -0.45086,-0.41193 -0.72765,-0.41032 -0.25108,9.7e-4 -0.6092,0.14055 -0.71909,0.38286 -0.0517,0.11437 -0.0736,0.25556 -0.0587,0.39094 -0.0137,0.0721 -0.0176,0.14636 -5e-4,0.22357 0.12346,0.54602 0.75556,0.75377 1.23442,0.52631 0.26349,-0.12503 0.39201,-0.38867 0.39628,-0.65683 1.74101,0.0956 3.47474,0.20806 5.21917,0.26525 1.39904,0.0449 3.06353,0.40838 4.42055,0.11922 0.1721,-0.0365 0.14629,-0.29175 -0.0132,-0.32438 -1.41858,-0.29498 -2.98576,-0.33763 -4.43048,-0.29013"
             style="fill:#044e57;fill-opacity:1;fill-rule:nonzero;stroke:none;stroke-width:0.1"
             id="path496"
             inkscape:connector-curvature="0" />
          <path
             d="m 380.95794,425.88314 c -1.04059,1.36278 -2.21292,2.6141 -3.16362,4.03665 -0.1042,-0.0604 -0.21822,-0.10145 -0.33535,-0.11696 -0.27269,-0.0313 -0.61052,0.0876 -0.78181,0.29983 -0.15476,0.19223 -0.26753,0.55215 -0.14119,0.78768 0.058,0.1105 0.15811,0.21453 0.2763,0.28852 0.0489,0.0549 0.10624,0.10436 0.17813,0.13925 0.51458,0.24587 1.07505,-0.10662 1.19229,-0.61451 0.0635,-0.2785 -0.0673,-0.54085 -0.27912,-0.71079 1.16217,-1.26876 2.33218,-2.52266 3.46578,-3.81824 0.90853,-1.0397 2.23741,-2.08424 2.85171,-3.29937 0.0788,-0.15443 -0.14199,-0.29271 -0.26776,-0.19159 -1.1207,0.89754 -2.1315,2.06744 -2.99536,3.19953"
             style="fill:#044e57;fill-opacity:1;fill-rule:nonzero;stroke:none;stroke-width:0.1"
             id="path498"
             inkscape:connector-curvature="0" />
          <path
             d="m 380.84276,423.18666 c 0.63151,1.75468 2.15434,2.64511 3.92441,3.0732 1.21271,0.29304 2.48367,0.0394 3.56861,-0.55442 0.6047,-0.26363 1.16207,-0.75279 1.61021,-1.29719 0.0662,-0.0763 0.12578,-0.15799 0.18668,-0.23779 0.0354,-0.0481 0.0715,-0.0953 0.10492,-0.14345 0.0877,-0.12213 0.16846,-0.24749 0.2436,-0.37575 0.0645,-0.10759 0.12411,-0.21453 0.17773,-0.31954 0.0132,-0.0268 0.0261,-0.053 0.0387,-0.0795 0.0175,-0.0362 0.0371,-0.0734 0.0526,-0.10856 0.74835,-1.64322 0.44517,-3.21342 -0.35712,-4.72838 -0.76754,-1.45066 -3.04964,-2.07066 -4.58207,-2.07648 -1.25077,-0.005 -3.61528,0.73244 -4.23123,1.89426 -0.80064,1.50946 -1.33517,3.29355 -0.73709,4.95357"
             style="fill:#dad5a9;fill-opacity:1;fill-rule:nonzero;stroke:none;stroke-width:0.1"
             id="path500"
             inkscape:connector-curvature="0" />
        </g>
      </g>
    </g>
  </g>
</svg>
