<?xml version="1.0" encoding="UTF-8" standalone="no"?>
<!-- Created with Inkscape (http://www.inkscape.org/) -->

<svg
   width="54.303497mm"
   height="27.167015mm"
   viewBox="0 0 54.303504 27.167015"
   version="1.1"
   id="svg1015"
   sodipodi:docname="pesan_bahagia_flower_1.svg"
   xmlns:inkscape="http://www.inkscape.org/namespaces/inkscape"
   xmlns:sodipodi="http://sodipodi.sourceforge.net/DTD/sodipodi-0.dtd"
   xmlns="http://www.w3.org/2000/svg"
   xmlns:svg="http://www.w3.org/2000/svg"
   xmlns:rdf="http://www.w3.org/1999/02/22-rdf-syntax-ns#"
   xmlns:cc="http://creativecommons.org/ns#"
   xmlns:dc="http://purl.org/dc/elements/1.1/">
  <sodipodi:namedview
     id="namedview41"
     pagecolor="#ffffff"
     bordercolor="#000000"
     borderopacity="0.25"
     inkscape:showpageshadow="2"
     inkscape:pageopacity="0.0"
     inkscape:pagecheckerboard="0"
     inkscape:deskcolor="#d1d1d1"
     inkscape:document-units="mm"
     showgrid="false" />
  <defs
     id="defs1009" />
  <metadata
     id="metadata1012">
    <rdf:RDF>
      <cc:Work
         rdf:about="">
        <dc:format>image/svg+xml</dc:format>
        <dc:type
           rdf:resource="http://purl.org/dc/dcmitype/StillImage" />
        <dc:title />
      </cc:Work>
    </rdf:RDF>
  </metadata>
  <g
     id="layer1"
     transform="translate(302.48366,-284.5942)">
    <g
       transform="matrix(0.35277777,0,0,-0.35277777,-370.09661,447.4983)"
       id="g2393">
      <g
         id="g965">
        <g
           id="g7104">
          <g
             id="g1548">
            <path
               d="m 258.657,429.251 c 2.556,-0.062 6.059,1.245 8.269,2.384 3.207,1.654 5.784,4.504 7.6,7.554 1.801,3.026 2.417,6.763 3.076,10.175 0.7,3.634 1.145,7.881 0.677,11.609 0.161,0.146 0.093,0.429 -0.102,0.484 -0.11,0.148 -0.359,0.124 -0.413,-0.067 -3.184,-0.851 -6.647,-2.429 -9.512,-3.976 -3.098,-1.672 -6.233,-3.34 -8.509,-6.101 -2.166,-2.624 -2.863,-6.056 -3.554,-9.262 -0.919,-4.258 1.245,-8.481 1.557,-12.661 0.035,-0.486 0.73,-0.516 0.911,-0.139"
               style="fill:#315375;fill-opacity:1;fill-rule:nonzero;stroke:none;stroke-width:0.1"
               id="path208"
               transform="translate(-1.5944881e-6)" />
            <path
               d="m 291.633,432.804 c -0.019,-0.415 0.472,-0.634 0.752,-0.409 0.12,-0.057 0.272,-0.057 0.438,0.025 0.852,0.432 2.666,0.218 3.598,0.346 1.518,0.207 3.129,0.537 4.583,1.011 3.679,1.194 6.877,2.451 9.761,5.133 4.977,4.628 7.817,10.874 9.846,17.223 0.054,0.176 -0.022,0.33 -0.13,0.447 -0.053,0.152 -0.15,0.287 -0.34,0.299 -7.263,0.48 -16.414,-0.839 -22.433,-5.174 -5.043,-3.63 -5.845,-13.244 -6.075,-18.901"
               style="fill:#315375;fill-opacity:1;fill-rule:nonzero;stroke:none;stroke-width:0.1"
               id="path210"
               transform="translate(-1.5944881e-6)" />
            <path
               d="m 345.086,422.751 c 0.331,0.105 0.232,0.528 -0.034,0.638 -6.022,4.66 -11.677,9.345 -19.499,10.377 -3.869,0.507 -8.127,-0.302 -11.638,-1.903 -3.072,-1.4 -5.075,-3.764 -7.403,-6.088 -0.09,-0.094 -0.128,-0.189 -0.15,-0.291 -0.148,-0.056 -0.267,-0.182 -0.328,-0.338 -0.052,-0.105 -0.061,-0.228 -0.028,-0.353 0.003,-0.028 0.008,-0.055 0.019,-0.082 0.008,-0.016 0.018,-0.033 0.027,-0.049 0.031,-0.057 0.069,-0.108 0.125,-0.154 0.008,-0.006 0.011,-0.018 0.022,-0.028 5.569,-4.746 9.921,-8.269 17.711,-8.23 7.575,0.04 14.211,4.315 21.176,6.501"
               style="fill:#315375;fill-opacity:1;fill-rule:nonzero;stroke:none;stroke-width:0.1"
               id="path212"
               transform="translate(-1.5944881e-6)" />
            <path
               d="m 296.432,393.807 c 3.613,-4.28 11.325,-8.958 17.071,-8.829 0.196,0.006 0.279,0.209 0.254,0.383 0.803,3.575 0.484,7.932 0.333,11.553 -0.155,3.78 -1.773,7.84 -3.808,10.971 -4.261,6.549 -11.44,8.083 -18.806,7.07 -0.365,-0.05 -0.507,-0.399 -0.446,-0.691 -0.015,-0.049 -0.032,-0.097 -0.034,-0.158 -0.003,-0.08 -0.006,-0.157 -0.005,-0.237 -10e-4,-0.039 0.023,-0.057 0.031,-0.092 0.258,-1.646 0.094,-3.374 0.004,-5.022 -0.107,-1.964 0.419,-3.785 0.814,-5.691 0.698,-3.385 2.374,-6.631 4.592,-9.257"
               style="fill:#315375;fill-opacity:1;fill-rule:nonzero;stroke:none;stroke-width:0.1"
               id="path214"
               transform="translate(-1.5944881e-6)" />
            <path
               d="m 286.384,386.891 c 0.013,0.004 0.014,0.01 0.023,0.014 0.143,-0.011 0.304,0.071 0.338,0.237 1.347,6.69 -2.05,14.98 -7.302,19.194 -4.69,3.766 -13.109,5.224 -19.049,3.684 -0.416,0.13 -0.583,0.12 -1.228,0.032 -0.212,-0.027 -0.463,-0.2 -0.523,-0.417 -0.763,-2.803 0.755,-7.172 1.511,-9.912 0.943,-3.405 2.437,-6.334 4.995,-8.823 5.689,-5.541 13.86,-5.712 21.235,-4.009"
               style="fill:#315375;fill-opacity:1;fill-rule:nonzero;stroke:none;stroke-width:0.1"
               id="path216"
               transform="translate(-1.5944881e-6)" />
            <path
               d="m 278.027,395.805 c -4.878,6.102 -10.654,10.095 -17.349,14.064 -3.744,2.223 -7.835,4.388 -12.118,5.212 9.014,2.981 18.346,5.196 27.808,6.729 5.19,-2.523 10.683,-4.987 14.938,-8.955 5.421,-5.054 10.104,-10.335 14.811,-16.039 0.1,-0.126 0.334,-10e-4 0.25,0.149 -5.492,9.49 -14.363,21.699 -25.689,25.498 16.313,2.298 32.924,2.694 48.881,1.759 0.363,-0.023 0.428,0.521 0.063,0.563 -15.038,1.717 -30.494,2.277 -45.603,0.407 3.15,1.974 6.19,4.736 8.393,6.484 6.351,5.046 11.649,10.969 16.459,17.457 0.053,0.074 -0.053,0.146 -0.109,0.083 -5.077,-5.536 -10.21,-10.553 -16.177,-15.111 -4.74,-3.621 -10.074,-6.357 -14.891,-9.838 -1.198,-0.207 -2.394,-0.428 -3.588,-0.666 -8.655,-1.74 -17.086,-3.933 -25.559,-6.237 10.379,7.834 18.114,20.742 22.895,32.045 0.075,0.18 -0.186,0.271 -0.272,0.11 -7.457,-13.421 -17.683,-22.947 -28.212,-33.695 -7.07,-2.013 -14.704,-5.006 -20.294,-9.731 -0.888,-0.751 0.001,-2.418 1.093,-1.808 6.219,3.47 12.73,6.415 19.438,8.911 13.466,-1.997 24.064,-9.194 34.676,-17.554 0.102,-0.08 0.237,0.063 0.156,0.163"
               style="fill:#20283a;fill-opacity:1;fill-rule:nonzero;stroke:none;stroke-width:0.1"
               id="path218"
               transform="translate(-1.5944881e-6)" />
            <path
               d="m 307.788,426.8 c 0.915,0.013 1.828,-0.02 2.736,-0.073 0.692,0.88 1.202,1.971 1.753,2.936 0.202,0.349 0.402,0.812 0.642,1.239 -1.909,-1.084 -3.644,-2.451 -5.131,-4.102 z m 8.248,5.563 c -0.867,-0.324 -1.705,-0.705 -2.516,-1.133 -0.428,-0.85 -0.889,-1.681 -1.348,-2.515 -0.359,-0.654 -0.681,-1.413 -1.148,-2.013 1.038,-0.067 2.07,-0.152 3.107,-0.222 0.972,1.168 1.721,2.506 2.607,3.737 0.631,0.879 1.202,2.042 1.964,2.869 -0.901,-0.177 -1.792,-0.395 -2.666,-0.723 z m 3.045,0.787 c -0.668,-1.268 -1.53,-2.4 -2.283,-3.619 -0.646,-1.046 -1.347,-2.127 -2.133,-3.085 0.749,-0.046 1.502,-0.079 2.257,-0.083 0.407,-0.002 0.815,-0.012 1.225,-0.025 0.671,1.522 2.001,2.924 2.975,4.238 0.632,0.86 1.25,2.174 2.024,3.017 -0.636,0.002 -1.269,0.007 -1.899,-0.091 -0.728,-0.113 -1.449,-0.221 -2.166,-0.352 z m 4.574,0.44 c -0.813,-0.98 -1.422,-2.263 -2.156,-3.293 -0.895,-1.26 -2.065,-2.583 -2.78,-3.985 1.17,-0.052 2.35,-0.141 3.527,-0.252 0.765,1.152 1.722,2.307 2.591,3.361 0.957,1.154 1.75,2.423 2.657,3.616 -0.963,0.199 -1.928,0.372 -2.899,0.582 -0.312,-0.024 -0.626,-0.03 -0.94,-0.029 z m 4.114,-0.609 c -0.53,-1.353 -1.778,-2.666 -2.592,-3.816 -0.754,-1.063 -1.649,-2.077 -2.389,-3.154 1.042,-0.103 2.079,-0.212 3.091,-0.331 0.47,-0.053 0.944,-0.093 1.418,-0.13 0.471,1.071 1.491,2.083 2.204,2.983 0.807,1.017 1.599,2.192 2.566,3.095 -0.389,0.159 -0.775,0.32 -1.167,0.469 -1.036,0.391 -2.08,0.658 -3.131,0.884 z m 4.654,-1.505 c -0.965,-1.179 -1.869,-2.418 -2.811,-3.613 -0.594,-0.755 -1.15,-1.62 -1.789,-2.352 1.118,-0.075 2.237,-0.138 3.35,-0.264 0.506,-0.06 1.039,-0.088 1.576,-0.12 0.424,0.683 1.174,1.303 1.747,1.866 0.705,0.697 1.29,1.551 2.008,2.232 -0.059,0.039 -0.116,0.081 -0.173,0.119 -1.222,0.85 -2.544,1.541 -3.908,2.132 z m 4.297,-2.403 c -0.313,-0.692 -1.042,-1.427 -1.534,-1.931 -0.635,-0.652 -1.335,-1.334 -1.917,-2.048 0.697,-0.049 1.389,-0.121 2.035,-0.283 1.024,-0.26 2.14,-0.444 3.237,-0.598 0.003,0.005 0.006,0.01 0.009,0.012 0.449,0.418 0.897,0.834 1.352,1.25 0.279,0.254 0.55,0.581 0.857,0.829 -1.335,0.936 -2.691,1.841 -4.039,2.769 z m 4.292,-2.948 c -0.291,-0.404 -0.628,-0.726 -0.989,-1.093 -0.296,-0.304 -0.628,-0.606 -0.963,-0.89 0.397,-0.052 0.791,-0.097 1.173,-0.142 1.53,-0.177 3.068,-0.488 4.591,-0.761 -1.231,1.026 -2.511,1.97 -3.812,2.886 z m -34.253,0.349 c 0.005,0.02 0.005,0.04 0.008,0.057 0.012,0.115 0.114,0.245 0.241,0.253 0.034,0 0.069,-0.002 0.104,0.001 2.362,2.807 5.672,5.125 9.193,6.189 1.76,0.535 3.498,0.877 5.33,1.011 0.923,0.069 2.112,0.232 3.079,0.026 4.038,-0.281 8.284,-1.782 11.573,-4.075 1.475,-1.024 3.064,-1.902 4.486,-3.004 1.551,-1.198 3.45,-2.257 4.745,-3.75 -10e-4,-0.002 0,-0.003 0,-0.003 0.009,-0.01 0.018,-0.018 0.025,-0.028 0.092,-0.099 0.036,-0.232 -0.058,-0.294 -0.034,-0.052 -0.083,-0.093 -0.162,-0.086 -1.698,0.088 -3.491,0.361 -5.144,0.756 -1.462,0.35 -3.014,0.309 -4.469,0.661 -1.445,0.346 -3.115,0.405 -4.604,0.488 -1.758,0.101 -3.545,0.229 -5.293,0.425 -2.978,0.334 -5.983,0.331 -8.958,0.667 -0.841,0.096 -8.489,0.557 -9.428,0.634 -0.027,-0.031 -0.054,-0.06 -0.08,-0.091 -0.033,-0.037 -0.064,-0.055 -0.103,-0.069 -0.168,-0.156 -0.517,-0.062 -0.485,0.232"
               style="fill:#416b96;fill-opacity:1;fill-rule:nonzero;stroke:none;stroke-width:0.1"
               id="path220"
               transform="translate(-1.5944881e-6)" />
            <path
               d="m 291.796,433.634 c 0.449,0.601 1.009,1.145 1.59,1.665 -0.394,0.834 -0.285,1.976 -0.462,2.855 -0.2,0.993 -0.289,2 -0.309,3.009 -0.223,-0.917 -0.41,-1.853 -0.465,-2.777 -0.087,-1.42 -0.573,-3.287 -0.354,-4.752 z m 1.058,8.22 c 0.358,-1.264 0.342,-2.723 0.569,-4.029 0.099,-0.578 0.368,-1.46 0.376,-2.161 0.371,0.325 0.74,0.641 1.085,0.955 0.448,0.408 0.915,0.793 1.386,1.176 -0.316,1.928 -0.352,3.897 -0.652,5.835 -0.231,1.476 -0.496,3.065 -0.502,4.593 -0.97,-1.713 -1.599,-3.635 -2.133,-5.622 -0.06,-0.222 -0.12,-0.45 -0.179,-0.677 0.023,-0.017 0.042,-0.043 0.05,-0.07 z m 2.625,6.978 c 0.568,-3.537 0.661,-7.155 1.218,-10.69 0.672,0.539 1.349,1.071 1.997,1.64 0.422,0.369 0.827,0.757 1.241,1.138 -0.133,0.667 -0.066,1.432 -0.093,2.103 -0.055,1.305 -0.239,2.571 -0.424,3.863 -0.066,0.475 -0.705,5.453 -0.527,5.429 -0.001,10e-4 -0.002,10e-4 -0.005,0 -0.207,-0.139 -0.419,-0.272 -0.616,-0.423 -1.163,-0.883 -2.064,-1.919 -2.791,-3.06 z m 3.7,3.684 c 0.06,-2.054 0.484,-4.184 0.8,-6.212 0.249,-1.633 0.087,-3.395 0.361,-5.016 0.925,0.867 1.843,1.749 2.743,2.648 -0.018,0.036 -0.027,0.077 -0.023,0.112 0.007,0.097 0.008,0.191 0.017,0.286 -0.073,2.097 -0.159,4.195 -0.198,6.297 -0.088,1.216 -0.151,2.429 -0.093,3.63 -1.281,-0.47 -2.508,-1.045 -3.607,-1.745 z m 3.95,1.874 c 0.087,-0.759 0.137,-1.527 0.168,-2.298 0.111,-1.209 0.088,-2.479 0.054,-3.577 -0.004,-0.052 -10e-4,-0.102 0,-0.154 0.021,-0.663 0.057,-1.604 0.07,-2.428 0.029,-0.539 0.045,-1.077 0.04,-1.615 0.799,0.799 1.592,1.603 2.39,2.405 0.205,0.211 0.427,0.403 0.635,0.607 -0.298,0.855 -0.056,2.252 -0.069,3.066 -0.03,1.641 -0.142,3.271 -0.076,4.909 -1.074,-0.243 -2.157,-0.546 -3.212,-0.915 z m 3.517,0.981 c 0.069,-1.657 0.098,-3.309 0.136,-4.966 0.017,-0.883 0.138,-1.809 0.099,-2.7 0.994,0.949 2.015,1.864 3.085,2.734 -0.123,0.231 -0.107,0.532 -0.08,0.785 0.07,0.703 0.026,1.41 0.104,2.11 0.104,0.909 0.227,1.812 0.462,2.693 -0.38,-0.056 -0.759,-0.112 -1.135,-0.168 -0.864,-0.123 -1.766,-0.291 -2.671,-0.488 z m 3.825,-2.092 c -0.062,-0.771 0.059,-1.693 -0.056,-2.484 0.9,0.711 1.817,1.4 2.767,2.045 0.491,0.332 1.006,0.638 1.521,0.931 0.053,0.928 0.082,1.893 0.028,2.818 -1.324,-0.131 -2.644,-0.322 -3.959,-0.515 -0.022,-0.938 -0.227,-1.859 -0.301,-2.795 z m 4.58,3.347 c 0.01,-0.103 0.001,-0.212 0.014,-0.346 0.028,-0.303 0.068,-0.61 0.076,-0.915 0.007,-0.4 0.084,-0.888 0.033,-1.324 0.568,0.315 1.141,0.625 1.702,0.95 0.945,0.544 1.939,1.267 2.973,1.695 -1.606,0.141 -3.204,0.084 -4.798,-0.06 z m -23.518,-23.61 c -0.063,0.028 -0.118,0.08 -0.14,0.164 -0.168,0.661 -10e-4,1.447 0.058,2.113 0.097,1.046 0.111,2.103 0.23,3.145 0.166,1.449 0.434,2.941 0.866,4.339 1.103,3.557 2.151,7.261 5.451,9.457 1.532,1.022 3.147,1.764 4.823,2.354 0.034,0.072 0.118,0.096 0.192,0.069 2.014,0.694 4.105,1.167 6.242,1.586 1.892,0.371 3.826,0.854 5.768,0.782 1.807,-0.068 3.653,0.35 5.424,-0.112 0.049,-0.009 0.069,-0.041 0.079,-0.078 0.064,-0.056 0.093,-0.146 10e-4,-0.218 -2.311,-1.806 -5.162,-2.803 -7.563,-4.483 -2.552,-1.784 -5.003,-3.835 -7.142,-6.105 -2.169,-2.299 -4.426,-4.568 -6.833,-6.615 -2.438,-2.074 -5.005,-4.035 -7.184,-6.395 -0.091,-0.098 -0.205,-0.074 -0.272,-0.003"
               style="fill:#416b96;fill-opacity:1;fill-rule:nonzero;stroke:none;stroke-width:0.1"
               id="path222"
               transform="translate(-1.5944881e-6)" />
            <path
               d="m 313.729,385.436 c 0.332,1.245 0.155,2.846 0.267,4.105 0.023,0.235 0.035,0.465 0.052,0.699 -0.103,-0.018 -0.22,-0.054 -0.301,-0.05 -0.368,0.024 -0.735,0.033 -1.105,0.039 -0.373,0.006 -0.748,0.044 -1.124,0.045 -0.119,0 -0.357,0.018 -0.578,0.023 0.955,-1.61 1.887,-3.23 2.789,-4.861 z m -3.054,5.301 c 0.288,0.034 0.607,-0.02 0.892,-0.027 0.464,-0.006 0.932,-0.026 1.392,-0.058 0.24,-0.019 0.776,0.025 1.113,-0.093 0.093,1.446 0.098,2.828 -0.036,4.314 -1.183,-0.198 -2.354,-0.184 -3.555,-0.233 -0.69,-0.03 -1.458,-0.089 -2.168,-0.005 0.801,-1.292 1.585,-2.594 2.362,-3.898 z m -2.625,4.319 c 0.134,0.013 0.258,-0.009 0.419,-0.013 0.813,-0.026 1.621,-0.004 2.433,0.018 1.004,0.028 2.092,0.16 3.107,0.106 -0.127,1.316 -0.282,2.75 -0.53,4.176 -2.532,-0.318 -5.12,-0.674 -7.669,-0.749 0.753,-1.174 1.5,-2.355 2.24,-3.538 z m -2.494,3.927 c 0.735,0.42 2.571,0.205 3.261,0.259 1.485,0.115 3.122,0.52 4.61,0.383 -0.251,1.373 -0.591,2.734 -1.086,3.965 -3.077,-0.337 -6.242,-0.769 -9.342,-0.767 0.368,-0.516 0.733,-1.034 1.084,-1.565 0.497,-0.751 0.984,-1.514 1.473,-2.275 z m -2.843,4.251 c 0.015,0.002 0.026,0.007 0.042,0.008 3.153,0.047 6.296,0.453 9.443,0.66 -0.111,0.259 -0.221,0.521 -0.35,0.764 -0.621,1.195 -1.269,2.322 -1.986,3.367 -1.272,-0.62 -2.854,-0.763 -4.21,-1.135 -1.564,-0.43 -3.143,-0.834 -4.696,-1.301 -0.001,0.001 -0.001,0.001 -0.001,0.001 0.59,-0.784 1.18,-1.568 1.758,-2.364 z m -2.046,2.746 c 0.005,0.002 0.006,0.01 0.014,0.011 1.449,0.434 2.916,0.808 4.377,1.2 1.463,0.394 3.117,0.992 4.647,1.073 -0.908,1.288 -1.929,2.446 -3.175,3.409 -1.743,-0.471 -3.489,-0.892 -5.217,-1.402 -1.013,-0.296 -2.066,-0.695 -3.116,-0.91 0.116,-0.156 0.234,-0.315 0.346,-0.467 0.685,-0.992 1.401,-1.954 2.124,-2.914 z m -2.831,3.862 c 1.077,0.408 2.291,0.647 3.405,0.894 1.636,0.357 3.278,0.964 4.948,1.19 -0.776,0.559 -1.634,1.051 -2.602,1.457 -0.973,0.41 -1.97,0.756 -2.984,1.038 -0.921,-0.458 -1.98,-0.716 -2.916,-1.141 -0.678,-0.303 -1.389,-0.737 -2.118,-0.94 0.101,-0.099 0.207,-0.198 0.304,-0.293 0.673,-0.656 1.354,-1.426 1.963,-2.205 z m -2.586,2.802 c 0.215,0.214 0.662,0.346 0.934,0.451 0.575,0.219 1.119,0.51 1.695,0.725 0.713,0.266 1.417,0.541 2.143,0.743 -0.846,0.212 -1.7,0.387 -2.569,0.502 -0.308,0.04 -4.495,0.162 -4.682,0.074 0.71,-0.854 1.627,-1.692 2.479,-2.495 z m 18.251,-27.751 c -1,1.826 -2.047,3.626 -3.115,5.418 -0.026,0.02 -0.042,0.051 -0.053,0.085 -0.561,0.939 -1.119,1.883 -1.7,2.809 -1.722,2.731 -3.345,5.602 -5.224,8.226 -1.775,2.483 -3.397,5.092 -5.41,7.407 -0.125,0.141 -0.248,0.288 -0.373,0.433 -0.104,0.026 -0.173,0.118 -0.187,0.22 -0.752,0.872 -1.502,1.755 -2.229,2.635 -0.845,1.024 -1.991,1.775 -2.795,2.819 -0.015,0.022 -0.023,0.042 -0.029,0.063 -0.045,0.038 -0.073,0.097 -0.066,0.173 0.003,0.017 0.002,0.03 0.003,0.045 0.008,0.092 0.088,0.179 0.185,0.191 4.023,0.503 8.013,-0.087 11.709,-1.801 3.752,-1.741 5.934,-4.701 7.793,-8.273 1.728,-3.319 1.986,-7.151 2.523,-10.787 0.27,-1.831 0.092,-3.598 -0.114,-5.429 -0.151,-1.336 0.112,-2.931 -0.358,-4.197 -0.042,-0.116 -0.141,-0.15 -0.231,-0.136 -0.11,-0.052 -0.257,-0.036 -0.329,0.099"
               style="fill:#416b96;fill-opacity:1;fill-rule:nonzero;stroke:none;stroke-width:0.1"
               id="path224"
               transform="translate(-1.5944881e-6)" />
            <path
               d="m 286.568,387.427 c 0.302,1.572 0.287,3.337 0.049,5.071 -0.477,-0.087 -0.923,-0.299 -1.406,-0.364 -0.522,-0.076 -1.043,-0.146 -1.563,-0.233 -0.322,-0.058 -0.756,-0.137 -1.11,-0.186 1.366,-1.41 2.779,-2.784 4.03,-4.288 z m -4.386,4.658 c 0.496,0.172 1.158,0.161 1.673,0.256 0.642,0.111 1.291,0.156 1.923,0.323 0.267,0.07 0.524,0.114 0.791,0.128 -0.237,1.566 -0.642,3.1 -1.165,4.439 -1.177,-0.416 -2.402,-0.681 -3.626,-0.958 -0.921,-0.214 -1.884,-0.522 -2.829,-0.645 0.637,-0.685 1.268,-1.377 1.879,-2.073 0.438,-0.502 0.892,-0.988 1.354,-1.47 z m -3.553,3.883 c 2.244,0.192 4.458,1.128 6.678,1.521 -0.014,0.036 -0.027,0.077 -0.044,0.113 -0.566,1.367 -1.238,2.684 -2.014,3.923 -2.416,-1.004 -4.951,-1.782 -7.409,-2.68 0.942,-0.944 1.875,-1.9 2.789,-2.877 z m -3.121,3.208 c 1.367,0.48 2.727,0.983 4.1,1.453 1.14,0.392 2.305,0.875 3.482,1.145 -0.635,0.98 -1.34,1.912 -2.129,2.764 -2.636,-1.27 -5.792,-1.675 -8.58,-2.528 0.76,-0.607 1.504,-1.231 2.19,-1.899 0.316,-0.308 0.625,-0.626 0.937,-0.935 z m -3.48,3.113 c 0.005,0.004 0.007,0.01 0.013,0.012 1.122,0.472 2.369,0.764 3.542,1.069 1.713,0.448 3.411,1.074 5.154,1.402 -0.865,0.9 -1.816,1.725 -2.89,2.424 -0.298,0.193 -0.606,0.368 -0.914,0.542 -1.336,-0.687 -2.697,-1.371 -4.02,-2.078 -1.055,-0.563 -2.142,-1.064 -3.2,-1.608 0.776,-0.579 1.554,-1.163 2.315,-1.763 z m -2.689,2.041 c 0.021,0.014 0.036,0.024 0.059,0.029 0.022,0.004 0.043,0.011 0.064,0.016 0.002,-0.002 0.003,-0.004 0.004,-0.004 0.123,0.086 0.263,0.154 0.411,0.204 0.733,0.564 2.854,1.477 3.298,1.686 0.883,0.416 1.799,0.753 2.645,1.235 0.263,0.149 0.517,0.314 0.791,0.425 -1.181,0.63 -2.428,1.12 -3.711,1.496 -1.397,-0.448 -2.633,-1.352 -3.983,-1.9 -0.629,-0.256 -1.204,-0.661 -1.831,-0.904 -0.164,-0.064 -0.318,-0.141 -0.476,-0.215 0.408,-0.303 0.816,-0.607 1.211,-0.914 0.496,-0.388 1.011,-0.768 1.518,-1.154 z m -3.156,2.39 c 0.017,0.007 0.038,0.02 0.054,0.025 1.079,0.306 2.264,1.012 3.269,1.519 0.83,0.422 1.793,1.036 2.756,1.332 -1.705,0.443 -3.46,0.705 -5.199,0.816 -0.516,-0.487 -1.149,-0.851 -1.754,-1.219 -0.402,-0.24 -0.864,-0.718 -1.34,-0.956 0.751,-0.488 1.493,-0.995 2.214,-1.517 z m -2.644,1.801 c 0.61,0.271 1.181,0.793 1.755,1.143 0.394,0.24 0.796,0.477 1.192,0.719 0.02,0.013 0.04,0.026 0.061,0.041 -1.143,0.015 -2.261,-0.158 -3.408,-0.172 -0.638,-0.007 -1.28,-0.01 -1.917,-0.054 -0.142,-0.01 -0.275,-0.059 -0.411,-0.105 0.921,-0.477 1.831,-1.007 2.728,-1.572 z m 22.995,-21.778 c -1.843,2.316 -4.142,4.274 -6.076,6.517 -1.811,2.109 -3.819,4.181 -5.805,6.125 -4.18,4.088 -9.396,7.645 -14.44,10.555 -0.117,0.066 -0.101,0.206 -0.028,0.297 10e-4,0.007 -10e-4,0.012 -10e-4,0.017 0.013,0.109 0.093,0.209 0.235,0.194 0.306,-0.034 0.978,0.219 1.365,0.228 0.677,0.014 1.359,-0.003 2.035,0.047 1.448,0.103 2.766,0.181 4.223,0.054 3.952,-0.359 7.742,-1.548 11.038,-3.838 3.25,-2.256 5.782,-6.421 6.987,-10.152 0.967,-3.004 1.63,-6.726 0.897,-9.838 -0.006,-0.011 -0.009,-0.02 -0.013,-0.028 0.023,-0.204 -0.259,-0.379 -0.417,-0.178"
               style="fill:#416b96;fill-opacity:1;fill-rule:nonzero;stroke:none;stroke-width:0.1"
               id="path226"
               transform="translate(-1.5944881e-6)" />
            <path
               d="m 257.82,431.381 c 0.567,0.624 1.112,1.27 1.655,1.917 -0.767,1.35 -1.293,3.093 -1.816,4.547 -0.397,1.11 -0.798,2.219 -1.143,3.348 -0.21,-3.346 0.295,-6.78 1.304,-9.812 z m -1.233,10.681 c 0.359,-0.457 0.422,-1.11 0.624,-1.652 0.293,-0.791 0.573,-1.589 0.881,-2.373 0.544,-1.399 1.043,-2.973 1.74,-4.326 0.774,0.938 1.533,1.891 2.267,2.857 -0.721,2.124 -1.339,4.281 -2.358,6.293 -0.706,1.38 -1.467,2.84 -1.95,4.34 -0.637,-1.63 -1.023,-3.367 -1.204,-5.139 z m 1.469,5.77 c 1.681,-3.502 3.197,-7.097 4.402,-10.789 0.583,0.777 1.15,1.568 1.713,2.359 -0.789,1.851 -1.353,3.926 -2.005,5.834 -0.696,2.037 -1.314,4.079 -1.885,6.149 -0.328,-0.349 -0.633,-0.717 -0.901,-1.115 -0.52,-0.773 -0.953,-1.591 -1.324,-2.438 z m 2.475,3.81 c 0.509,-1.005 0.702,-2.149 1.044,-3.215 0.386,-1.208 0.784,-2.413 1.209,-3.609 0.586,-1.656 1.189,-3.295 1.709,-4.973 0.637,0.907 1.267,1.822 1.882,2.738 -1.57,3.488 -2.376,7.673 -2.958,11.453 -0.978,-0.75 -2.004,-1.51 -2.886,-2.394 z m 3.157,2.596 c 0.648,-2.321 1.075,-4.695 1.738,-7.01 0.396,-1.391 0.871,-2.764 1.281,-4.148 0.673,1.008 1.338,2.013 1.993,3.02 0.058,0.091 0.113,0.189 0.169,0.284 -0.402,0.821 -0.517,1.889 -0.786,2.752 -0.229,0.746 -0.482,1.487 -0.691,2.237 -0.42,1.529 -0.755,3.071 -1.112,4.611 -0.896,-0.537 -1.763,-1.118 -2.592,-1.746 z m 2.955,1.953 c 0.583,-0.868 0.708,-2.916 0.91,-3.621 0.527,-1.854 1.341,-3.768 1.614,-5.697 0.688,1.114 1.335,2.262 1.953,3.433 -0.01,0.018 -0.029,0.028 -0.032,0.054 -0.432,2.47 -1.273,4.837 -1.486,7.352 -0.239,-0.112 -0.479,-0.228 -0.719,-0.339 -0.763,-0.353 -1.51,-0.754 -2.24,-1.182 z m 3.245,1.657 c 0.357,-1.132 0.444,-2.339 0.704,-3.5 0.258,-1.129 0.716,-2.252 0.862,-3.408 0.836,1.605 1.652,3.232 2.526,4.816 -0.201,1.236 -0.449,2.479 -0.552,3.725 -1.189,-0.524 -2.367,-1.079 -3.54,-1.633 z m 3.839,1.773 c 0.22,-0.382 0.214,-1.157 0.287,-1.487 0.121,-0.562 0.23,-1.15 0.325,-1.736 0.938,1.648 1.952,3.24 3.142,4.691 -1.172,-0.548 -2.468,-0.909 -3.651,-1.426 -0.036,-0.014 -0.068,-0.028 -0.103,-0.042 z M 257.41,430.838 c 10e-4,0.011 10e-4,0.019 0.003,0.029 -1,2.906 -1.707,6.429 -1.48,9.506 0.228,3.044 0.766,6.553 2.362,9.215 2.018,3.364 5.766,5.996 9.226,7.744 3.383,1.709 6.816,3.147 10.376,4.428 0.11,0.04 0.198,-0.003 0.248,-0.07 0.111,-0.025 0.203,-0.119 0.139,-0.253 -0.516,-1.116 -1.348,-2.178 -2.032,-3.197 -1.058,-1.578 -1.969,-3.283 -2.81,-4.99 -1.269,-2.582 -2.714,-5.088 -4.264,-7.508 -3.338,-5.213 -6.933,-10.642 -11.235,-15.115 -0.192,-0.201 -0.574,-0.11 -0.533,0.211"
               style="fill:#416b96;fill-opacity:1;fill-rule:nonzero;stroke:none;stroke-width:0.1"
               id="path228"
               transform="translate(-1.5944881e-6)" />
            <g
               id="g882"
               style="fill:#ef6351;fill-opacity:1">
              <path
                 id="path502"
                 style="fill:#ef6351;fill-opacity:1;fill-rule:nonzero;stroke:none;stroke-width:0.1"
                 d="m 212.814,431.474 c 0.235,3.28 1.74,7.059 5.654,6.871 1.505,-0.073 2.93,-0.926 3.823,-2.089 0.491,-0.64 0.957,-1.406 1.014,-2.181 1.357,1.171 3.224,1.673 5.093,1.366 3.309,-0.544 3.592,-4.349 2.633,-6.894 -1.201,-3.187 -3.585,-5.797 -5.905,-8.23 -1.202,-1.261 -2.76,-2.204 -4.212,-3.161 0.004,-0.053 -0.015,-0.106 -0.073,-0.152 -0.661,-0.518 -1.984,-1.693 -2.937,-1.42 -1.541,0.439 -2.133,1.078 -2.79,2.616 -0.829,1.938 -1.428,3.799 -1.701,5.892 -0.317,2.425 -0.774,4.931 -0.599,7.382" />
              <path
                 id="path504"
                 style="fill:#ef6351;fill-opacity:1;fill-rule:nonzero;stroke:none;stroke-width:0.1"
                 d="m 230.796,425.89 c 2.958,1.436 6.984,2.023 8.778,-1.461 0.688,-1.341 0.662,-3 0.102,-4.355 -0.308,-0.745 -0.739,-1.533 -1.382,-1.968 1.693,-0.591 3.061,-1.956 3.731,-3.729 1.182,-3.137 -1.971,-5.285 -4.655,-5.727 -3.361,-0.553 -6.813,0.205 -10.079,0.999 -1.694,0.409 -3.291,1.289 -4.844,2.068 -0.043,-0.03 -0.1,-0.042 -0.168,-0.014 -0.78,0.314 -2.458,0.873 -2.699,1.834 -0.39,1.553 -0.133,2.385 0.871,3.724 1.263,1.687 2.576,3.136 4.252,4.419 1.941,1.487 3.883,3.136 6.093,4.21" />
              <path
                 id="path506"
                 style="fill:#ef6351;fill-opacity:1;fill-rule:nonzero;stroke:none;stroke-width:0.1"
                 d="m 234.951,407.525 c 2.723,-1.844 5.245,-5.037 3.124,-8.333 -0.816,-1.266 -2.267,-2.073 -3.72,-2.265 -0.8,-0.106 -1.697,-0.125 -2.397,0.212 0.336,-1.76 -0.162,-3.628 -1.363,-5.094 -2.125,-2.593 -5.562,-0.937 -7.286,1.168 -2.16,2.633 -3.229,6.003 -4.176,9.227 -0.491,1.672 -0.529,3.493 -0.631,5.23 -0.047,0.022 -0.085,0.065 -0.096,0.137 -0.119,0.834 -0.474,2.566 0.239,3.256 1.151,1.114 2,1.307 3.661,1.107 2.092,-0.25 4.004,-0.662 5.953,-1.472 2.258,-0.938 4.657,-1.795 6.692,-3.173" />
              <path
                 id="path508"
                 style="fill:#ef6351;fill-opacity:1;fill-rule:nonzero;stroke:none;stroke-width:0.1"
                 d="m 221.124,394.745 c -0.235,-3.281 -1.739,-7.061 -5.653,-6.872 -1.506,0.073 -2.93,0.927 -3.823,2.088 -0.491,0.641 -0.957,1.408 -1.014,2.182 -1.358,-1.171 -3.224,-1.674 -5.094,-1.367 -3.308,0.545 -3.591,4.349 -2.632,6.894 1.201,3.189 3.585,5.798 5.905,8.23 1.201,1.262 2.759,2.205 4.212,3.163 -0.005,0.051 0.014,0.105 0.072,0.15 0.661,0.521 1.984,1.693 2.938,1.421 1.54,-0.439 2.132,-1.077 2.789,-2.616 0.829,-1.938 1.428,-3.799 1.701,-5.891 0.317,-2.424 0.775,-4.931 0.599,-7.382" />
              <path
                 id="path510"
                 style="fill:#ef6351;fill-opacity:1;fill-rule:nonzero;stroke:none;stroke-width:0.1"
                 d="m 203.142,400.33 c -2.958,-1.438 -6.983,-2.025 -8.776,1.46 -0.689,1.339 -0.664,2.999 -0.104,4.353 0.309,0.746 0.74,1.532 1.383,1.97 -1.694,0.59 -3.063,1.955 -3.73,3.728 -1.184,3.137 1.97,5.284 4.653,5.726 3.361,0.554 6.814,-0.204 10.08,-0.998 1.693,-0.411 3.289,-1.287 4.844,-2.067 0.043,0.029 0.099,0.041 0.169,0.013 0.78,-0.312 2.457,-0.872 2.698,-1.834 0.39,-1.554 0.133,-2.386 -0.871,-3.724 -1.263,-1.687 -2.577,-3.136 -4.252,-4.419 -1.942,-1.487 -3.882,-3.136 -6.094,-4.208" />
              <path
                 id="path512"
                 style="fill:#ef6351;fill-opacity:1;fill-rule:nonzero;stroke:none;stroke-width:0.1"
                 d="m 198.988,418.693 c -2.723,1.844 -5.245,5.037 -3.124,8.332 0.817,1.266 2.267,2.073 3.719,2.266 0.801,0.106 1.698,0.126 2.397,-0.212 -0.336,1.761 0.161,3.63 1.364,5.094 2.125,2.594 5.562,0.936 7.286,-1.167 2.161,-2.634 3.229,-6.004 4.176,-9.229 0.491,-1.672 0.528,-3.491 0.631,-5.228 0.046,-0.022 0.084,-0.066 0.095,-0.139 0.119,-0.831 0.474,-2.565 -0.238,-3.254 -1.15,-1.114 -2,-1.308 -3.662,-1.109 -2.092,0.253 -4.003,0.664 -5.952,1.474 -2.258,0.937 -4.658,1.794 -6.692,3.172" />
            </g>
            <g
               id="g2280"
               style="opacity:0.96;fill:#dad5a9;fill-opacity:1">
              <path
                 d="m 215.902,417.174 c -1.291,-0.631 -2.841,-0.457 -3.756,0.921 -1.075,1.616 -1.295,5.047 0.588,6.256 1.965,1.262 4.422,-0.447 5.157,-2.347 0.674,-1.747 0.35,-4.779 -1.989,-4.83"
                 style="fill:#dad5a9;fill-opacity:1;fill-rule:nonzero;stroke:none;stroke-width:0.1"
                 id="path514" />
              <path
                 d="m 219.884,416.108 c -1.192,0.802 -1.815,2.231 -1.081,3.713 0.862,1.738 3.724,3.644 5.713,2.618 2.075,-1.071 1.822,-4.053 0.545,-5.638 -1.175,-1.459 -3.963,-2.692 -5.177,-0.693"
                 style="fill:#dad5a9;fill-opacity:1;fill-rule:nonzero;stroke:none;stroke-width:0.1"
                 id="path516" />
              <path
                 d="m 220.952,412.125 c 0.098,1.434 1.026,2.687 2.675,2.793 1.937,0.124 5.019,-1.403 5.124,-3.638 0.11,-2.333 -2.599,-3.605 -4.611,-3.291 -1.849,0.288 -4.312,2.086 -3.188,4.136"
                 style="fill:#dad5a9;fill-opacity:1;fill-rule:nonzero;stroke:none;stroke-width:0.1"
                 id="path518" />
              <path
                 d="m 218.037,409.21 c 1.291,0.632 2.84,0.456 3.756,-0.921 1.075,-1.615 1.295,-5.048 -0.588,-6.256 -1.965,-1.262 -4.421,0.448 -5.156,2.347 -0.675,1.745 -0.35,4.778 1.988,4.83"
                 style="fill:#dad5a9;fill-opacity:1;fill-rule:nonzero;stroke:none;stroke-width:0.1"
                 id="path520" />
              <path
                 d="m 214.056,410.276 c 1.192,-0.802 1.814,-2.232 1.08,-3.713 -0.862,-1.738 -3.725,-3.646 -5.712,-2.619 -2.076,1.071 -1.823,4.052 -0.546,5.638 1.173,1.459 3.963,2.693 5.178,0.694"
                 style="fill:#dad5a9;fill-opacity:1;fill-rule:nonzero;stroke:none;stroke-width:0.1"
                 id="path522" />
              <path
                 d="m 209.798,418.395 c 1.85,-0.288 4.314,-2.085 3.189,-4.137 -0.098,-1.434 -1.026,-2.688 -2.674,-2.792 -1.938,-0.123 -5.021,1.401 -5.125,3.637 -0.111,2.333 2.599,3.605 4.61,3.292"
                 style="fill:#dad5a9;fill-opacity:1;fill-rule:nonzero;stroke:none;stroke-width:0.1"
                 id="path524" />
            </g>
            <path
               id="path526"
               style="fill:#044e57;fill-opacity:1;fill-rule:nonzero;stroke:none;stroke-width:0.1"
               d="m 218.779,422.209 c 0.718,2.078 1.222,4.213 2.067,6.241 -0.138,0.064 -0.265,0.153 -0.364,0.265 -0.227,0.261 -0.34,0.701 -0.235,1.033 0.095,0.304 0.4,0.684 0.742,0.723 0.159,0.018 0.342,-0.01 0.505,-0.078 0.093,-0.011 0.187,-0.036 0.276,-0.085 0.628,-0.358 0.649,-1.2 0.191,-1.69 -0.254,-0.27 -0.628,-0.326 -0.96,-0.229 -0.53,-2.135 -1.038,-4.272 -1.618,-6.397 -0.466,-1.708 -0.638,-3.854 -1.5,-5.381 -0.109,-0.193 -0.415,-0.066 -0.396,0.141 0.164,1.823 0.696,3.73 1.292,5.457" />
            <path
               id="path528"
               style="fill:#044e57;fill-opacity:1;fill-rule:nonzero;stroke:none;stroke-width:0.1"
               d="m 225.753,416.092 c 2.159,0.417 4.261,1.049 6.44,1.331 -0.015,0.152 -0.002,0.306 0.046,0.447 0.114,0.328 0.438,0.646 0.778,0.721 0.311,0.07 0.791,-0.005 0.996,-0.28 0.096,-0.13 0.164,-0.302 0.186,-0.477 0.037,-0.088 0.063,-0.18 0.064,-0.282 0.005,-0.723 -0.714,-1.163 -1.368,-1.011 -0.362,0.085 -0.596,0.381 -0.678,0.717 -2.114,-0.608 -4.219,-1.237 -6.35,-1.798 -1.711,-0.449 -3.656,-1.375 -5.409,-1.391 -0.223,-0.002 -0.264,0.327 -0.078,0.414 1.662,0.769 3.58,1.262 5.373,1.609" />
            <path
               id="path530"
               style="fill:#044e57;fill-opacity:1;fill-rule:nonzero;stroke:none;stroke-width:0.1"
               d="m 223.943,406.994 c 1.441,-1.66 3.039,-3.165 4.373,-4.91 0.125,0.087 0.264,0.153 0.41,0.182 0.341,0.066 0.777,-0.055 1.014,-0.312 0.215,-0.235 0.389,-0.688 0.254,-1.004 -0.064,-0.147 -0.18,-0.292 -0.319,-0.399 -0.058,-0.075 -0.125,-0.145 -0.213,-0.196 -0.624,-0.366 -1.365,0.037 -1.559,0.68 -0.108,0.354 0.032,0.705 0.283,0.944 -1.586,1.527 -3.182,3.036 -4.732,4.601 -1.246,1.256 -3.02,2.478 -3.911,3.988 -0.113,0.192 0.151,0.392 0.32,0.274 1.497,-1.054 2.883,-2.467 4.08,-3.848" />
            <path
               id="path532"
               style="fill:#044e57;fill-opacity:1;fill-rule:nonzero;stroke:none;stroke-width:0.1"
               d="m 215.159,404.012 c -0.718,-2.078 -1.222,-4.214 -2.066,-6.243 0.139,-0.061 0.264,-0.15 0.363,-0.264 0.228,-0.261 0.341,-0.7 0.236,-1.033 -0.095,-0.303 -0.4,-0.682 -0.742,-0.721 -0.159,-0.02 -0.343,0.009 -0.505,0.076 -0.094,0.013 -0.187,0.036 -0.277,0.086 -0.627,0.357 -0.649,1.201 -0.19,1.691 0.253,0.271 0.627,0.325 0.96,0.228 0.529,2.135 1.038,4.272 1.617,6.398 0.466,1.706 0.638,3.853 1.5,5.381 0.11,0.193 0.415,0.064 0.397,-0.141 -0.164,-1.823 -0.697,-3.731 -1.293,-5.458" />
            <path
               id="path534"
               style="fill:#044e57;fill-opacity:1;fill-rule:nonzero;stroke:none;stroke-width:0.1"
               d="m 208.185,410.129 c -2.158,-0.417 -4.261,-1.049 -6.44,-1.332 0.016,-0.151 0.003,-0.305 -0.046,-0.446 -0.113,-0.329 -0.437,-0.646 -0.777,-0.722 -0.311,-0.069 -0.791,0.006 -0.998,0.282 -0.095,0.129 -0.161,0.302 -0.184,0.476 -0.037,0.089 -0.063,0.181 -0.065,0.283 -0.004,0.723 0.716,1.162 1.369,1.01 0.361,-0.085 0.596,-0.381 0.677,-0.716 2.115,0.607 4.22,1.236 6.35,1.797 1.711,0.45 3.657,1.375 5.41,1.392 0.222,10e-4 0.264,-0.328 0.077,-0.414 -1.661,-0.77 -3.579,-1.263 -5.373,-1.61" />
            <path
               id="path536"
               style="fill:#044e57;fill-opacity:1;fill-rule:nonzero;stroke:none;stroke-width:0.1"
               d="m 209.995,419.227 c -1.441,1.661 -3.037,3.165 -4.373,4.911 -0.124,-0.089 -0.264,-0.154 -0.411,-0.183 -0.339,-0.067 -0.776,0.055 -1.012,0.312 -0.216,0.236 -0.391,0.688 -0.255,1.005 0.064,0.148 0.181,0.291 0.319,0.399 0.059,0.075 0.126,0.143 0.214,0.195 0.623,0.366 1.365,-0.037 1.559,-0.679 0.107,-0.355 -0.032,-0.707 -0.283,-0.945 1.585,-1.528 3.18,-3.036 4.733,-4.6 1.244,-1.257 3.018,-2.479 3.909,-3.99 0.113,-0.192 -0.151,-0.392 -0.319,-0.273 -1.497,1.054 -2.884,2.468 -4.081,3.848" />
            <path
               id="path538"
               style="fill:#044e57;fill-opacity:1;fill-rule:nonzero;stroke:none;stroke-width:0.1"
               d="m 211.416,417.313 c 1.383,1.869 4.413,2.145 6.545,2.153 1.639,0.005 3.795,-1.49 4.396,-2.997 0.126,-0.317 0.251,-0.64 0.366,-0.967 1.14,-2.295 0.634,-5.401 -1.551,-7.086 -3.693,-2.846 -9.607,-1.427 -10.843,3.304 -0.459,1.757 0.009,4.137 1.087,5.593" />
          </g>
        </g>
      </g>
    </g>
  </g>
</svg>
