<?xml version="1.0" encoding="UTF-8" standalone="no"?>
<!-- Created with Inkscape (http://www.inkscape.org/) -->

<svg
   version="1.1"
   id="svg2"
   width="113.79816"
   height="145.94116"
   viewBox="0 0 113.79816 145.94116"
   sodipodi:docname="6880847_3397617.eps"
   xmlns:inkscape="http://www.inkscape.org/namespaces/inkscape"
   xmlns:sodipodi="http://sodipodi.sourceforge.net/DTD/sodipodi-0.dtd"
   xmlns="http://www.w3.org/2000/svg"
   xmlns:svg="http://www.w3.org/2000/svg">
  <defs
     id="defs6" />
  <sodipodi:namedview
     id="namedview4"
     pagecolor="#ffffff"
     bordercolor="#000000"
     borderopacity="0.25"
     inkscape:showpageshadow="2"
     inkscape:pageopacity="0.0"
     inkscape:pagecheckerboard="0"
     inkscape:deskcolor="#d1d1d1"
     showgrid="false" />
  <g
     id="g10"
     inkscape:groupmode="layer"
     inkscape:label="Page 1"
     transform="matrix(1.3333333,0,0,-1.3333333,-764.92309,137.09526)">
    <g
       id="g12"
       transform="scale(0.1)">
      <g
         id="g6134"
         transform="translate(5705.7923,-575.66131)">
        <g
           id="g6354"
           transform="matrix(1.0646087,0,0,1.0646087,-241.42174,119.96878)"
           inkscape:export-filename="../Documents/metashare/tema1/ilustrations/resepsi_flower3.svg"
           inkscape:export-xdpi="96"
           inkscape:export-ydpi="96">
          <path
             d="M 592.48,1071.44 C 623.102,945.09 660.844,819.941 715.488,701.742 768.16,587.82 837.855,486.602 903.941,380.539 c 5.879,-9.418 -7.925,-20.078 -15.589,-11.91 -170.829,182.051 -277.75,454.312 -310.649,698.911 -1.262,9.43 12.391,13.76 14.777,3.9"
             style="fill:#748c54;fill-opacity:1;fill-rule:nonzero;stroke:none"
             id="path240" />
          <path
             d="m 689.73,710.41 c 1.399,-4.738 -0.648,-9.801 -4.871,-12.351 -14.171,-8.567 -53.66,-26.161 -113.668,-3.84 -56.828,21.14 -77.105,54.242 -83.765,69.812 -2.227,5.211 -0.098,11.25 4.902,13.918 14.707,7.86 50.918,19.153 115.996,-6.308 62.364,-24.411 77.77,-48.84 81.406,-61.231"
             style="fill:#748c54;fill-opacity:1;fill-rule:nonzero;stroke:none"
             id="path242" />
          <path
             d="m 712.754,701.73 c -4.856,-0.878 -9.668,1.68 -11.762,6.149 -7.023,15 -20.34,56.121 8.203,113.441 27.032,54.27 62.098,70.93 78.282,75.91 5.418,1.661 11.191,-1.089 13.316,-6.339 6.258,-15.461 13.66,-52.661 -18.543,-114.68 -30.855,-59.441 -56.785,-72.172 -69.496,-74.481"
             style="fill:#748c54;fill-opacity:1;fill-rule:nonzero;stroke:none"
             id="path244" />
          <path
             d="m 766.422,547.961 c 0.933,-4.859 -1.594,-9.691 -6.039,-11.832 -14.93,-7.16 -55.926,-20.879 -113.512,7.113 -54.527,26.508 -71.527,61.418 -76.66,77.547 -1.719,5.402 0.984,11.203 6.215,13.383 15.394,6.398 52.523,14.16 114.851,-17.442 59.731,-30.289 72.711,-56.089 75.145,-68.769"
             style="fill:#748c54;fill-opacity:1;fill-rule:nonzero;stroke:none"
             id="path246" />
          <path
             d="m 788.5,537.109 c -4.914,-0.418 -9.461,2.59 -11.113,7.25 -5.547,15.602 -14.848,57.813 19.074,112.121 32.125,51.418 68.633,64.629 85.219,68.032 5.55,1.136 11.031,-2.16 12.64,-7.602 4.743,-15.988 8.532,-53.719 -29.48,-112.359 -36.434,-56.192 -63.469,-66.371 -76.34,-67.442"
             style="fill:#748c54;fill-opacity:1;fill-rule:nonzero;stroke:none"
             id="path248" />
          <path
             d="M 722.262,935.359 C 648.551,864.492 519.531,831.699 436.063,886.68 c 0,0 -140.633,89.769 -83.563,193.55 39.145,71.19 95.258,30.46 95.258,30.46 0,0 -46.098,106.03 57.187,143.73 103.067,37.62 148.688,-73.53 148.688,-73.53 0,0 56.976,84.88 119.41,16.39 49.098,-53.86 38.906,-175.69 -50.781,-261.921"
             style="fill:#f68b20;fill-opacity:1;fill-rule:nonzero;stroke:none"
             id="path250" />
          <path
             d="m 636.121,869.242 c 0,0 141.578,31.43 135.563,129.918 -6.016,98.48 -171.309,-20.301 -135.563,-129.918"
             style="fill:#748c54;fill-opacity:1;fill-rule:nonzero;stroke:none"
             id="path252" />
          <path
             d="m 646.715,876.469 c 0,0 -115.899,-87.168 -186.836,-18.578 -70.938,68.589 126.762,117 186.836,18.578"
             style="fill:#748c54;fill-opacity:1;fill-rule:nonzero;stroke:none"
             id="path254" />
          <path
             d="m 1022.1501,1147.4548 c -10.27,0 -20.47,3.871 -27.03997,11.992 -15.08,18.661 -4.33,51.469 18.73997,57.2 0,0 2.55,1.191 6.68,1.191 0.82,0 1.7,-0.043 2.63,-0.152 23.66,-2.871 41.93,-30.141 31.58,-51.629 -5.84,-12.11 -19.28,-18.602 -32.59,-18.602"
             style="fill:#f68b20;fill-opacity:1;fill-rule:nonzero;stroke:none"
             id="path274" />
          <path
             d="m 324.832,420.512 c -10.277,0 -20.477,3.867 -27.051,12 -15.078,18.648 -4.324,51.457 18.75,57.179 0,0 2.539,1.2 6.664,1.2 0.821,0 1.703,-0.051 2.641,-0.161 23.668,-2.851 41.93,-30.14 31.582,-51.609 C 351.582,427 338.145,420.512 324.832,420.512"
             style="fill:#f68b20;fill-opacity:1;fill-rule:nonzero;stroke:none"
             id="path286" />
          <path
             d="m 290.047,1323.4721 c -10.277,0 -20.477,3.87 -27.051,12 -15.082,18.65 -4.324,51.47 18.754,57.19 0,0 2.531,1.19 6.652,1.19 0.821,0 1.703,-0.04 2.645,-0.16 23.664,-2.86 41.93,-30.13 31.586,-51.61 -5.84,-12.12 -19.278,-18.61 -32.586,-18.61"
             style="fill:#f68b20;fill-opacity:1;fill-rule:nonzero;stroke:none"
             id="path288" />
        </g>
      </g>
    </g>
  </g>
</svg>
