<?xml version="1.0" encoding="UTF-8" standalone="no"?>
<!-- Created with Inkscape (http://www.inkscape.org/) -->

<svg
   version="1.1"
   id="svg2"
   width="199.94983"
   height="156.73705"
   viewBox="0 0 199.94983 156.73705"
   xmlns="http://www.w3.org/2000/svg"
   xmlns:svg="http://www.w3.org/2000/svg">
  <defs
     id="defs6" />
  <g
     id="g10"
     transform="matrix(1.3333333,0,0,-1.3333333,-686.61425,511.36459)">
    <g
       id="g12"
       transform="scale(0.1)">
      <g
         id="g1998">
        <g
           id="g2015">
          <g
             id="g3782"
             transform="matrix(1.2231227,0,0,1.2231227,-1148.9939,-855.72763)">
            <path
               d="m 5938.0162,3410.7543 c 4.43,6.23 13.42,-0.78 10.62,-7.1 -10.04,-22.82 -20.08,-45.81 -30.33,-68.6 18.47,4.9 36.92,9.85 55.37,14.84 3.62,15.45 11.04,30.72 18.68,44.31 2.51,4.47 10.41,2.4 8.94,-3 -3.4,-12.53 -7.6,-25.62 -13.54,-37.51 63.85,17.36 127.56,35.5 190.96,55.65 5.48,1.73 8.3,-6.33 2.96,-8.41 -14.48,-5.64 -29.13,-11.22 -43.86,-16.76 10.58,-3.16 20.92,-7.59 31.45,-10.7 13.78,-4.07 27.86,-6.9 41.47,-11.48 8.38,-2.83 2.67,-13.99 -4.53,-13.46 -26.1,1.9 -64.52,12.37 -85.57,29.19 -25.27,-9.35 -50.86,-18.45 -76.69,-27.29 30.77,-9.76 61.85,-18.77 92.27,-29.38 5.95,-2.08 1.93,-10.02 -3.23,-9.61 -36.71,2.89 -75.09,15.93 -107.87,32.58 -46.58,-15.58 -93.89,-30.01 -141.46,-42.79 11.79,-6.65 23.62,-13.24 35.75,-19.15 16.26,-7.92 34.04,-13.26 49.06,-23.36 4.61,-3.1 -0.03,-8.84 -4.19,-8.57 -32.96,2.2 -68.42,25.02 -93.9,47.55 -57.44,-15.03 -115.18,-27.31 -172.5,-36.16 1.84,-6 5.33,-11.49 10.48,-15.65 30.44,-24.55 110.93,-58.79 308.19,-11.9 205.83,48.92 276.45,139.49 299.49,184.42 5.22,10.19 4.58,21.85 -0.69,31.23 -2.62,4.67 -6.29,8.81 -11.12,11.83 -43.42,27.25 -151,74.65 -328.86,29.2 -187.81,-47.98 -255.7,-159.88 -276.18,-205.64 l -0.68,-1.93 c -0.93,-2.48 -1.46,-5.03 -1.79,-7.58 68.53,19.1 137.19,37.21 205.79,55.35 6.06,28.06 19.18,56.9 35.51,79.88"
               style="fill:#748c54;fill-opacity:1;fill-rule:nonzero;stroke:none"
               id="path36" />
            <path
               d="m 5754.2862,3530.7243 c 0.89,6.16 10,4.45 10.34,-1.17 1.23,-20.26 2.54,-40.65 3.62,-60.97 11.54,10.43 122.43,112.66 160.81,150.88 3.32,3.3 8.37,-1.49 5.28,-4.98 -8.38,-9.49 -65.48,-71.89 -80.88,-87.92 25.92,4.41 51.77,9.48 77.76,13.14 5.07,0.71 5.14,-6.53 1.24,-8.17 -27.65,-11.59 -60.3,-16.46 -90.24,-16.63 -27.91,-28.65 -56.78,-56.74 -86.45,-83.73 11.02,-0.42 22.03,-0.78 33.03,-0.53 14.73,0.33 29.58,3.1 44.22,1.38 4.49,-0.53 3.28,-6.41 0.16,-7.76 -24.68,-10.7 -58.85,-7.4 -85.71,-0.59 -35.98,-32.3 -73.19,-62.73 -111.39,-90.51 3.58,-3.65 8.15,-6.33 13.43,-7.42 31.19,-6.42 102.22,-1.19 227.54,106.31 130.76,112.17 148.11,204.07 148.03,245.18 -0.01,9.33 -4.84,17.53 -12.14,22.35 -3.63,2.41 -7.84,4.04 -12.46,4.43 -41.59,3.53 -137.15,-2.27 -248.96,-101.5 -118.06,-104.77 -125.49,-211.09 -123.25,-251.86 l 0.23,-1.65 c 0.25,-2.14 0.82,-4.18 1.53,-6.15 42.49,39.38 85.44,78.09 128.34,116.81 -6.07,22.57 -7.33,48.35 -4.08,71.06"
               style="fill:#748c54;fill-opacity:1;fill-rule:nonzero;stroke:none"
               id="path38" />
            <path
               d="m 5788.7062,3230.5243 c 35.78,40.19 27.91,102.15 -17.91,128.62 -4.18,2.41 -8.73,3.99 -13.43,5.22 4.86,13.54 6.19,28.74 1.95,45.66 -21.93,87.36 -109.27,48.12 -109.27,48.12 -2.92,53.73 -52.17,92.15 -103.33,78.66 -10.86,-2.86 -20.42,-9.39 -28.79,-17.89 -46.95,83.1 -146.69,-4.47 -146.69,-4.47 0,0 -63.87,30.94 -115.22,-47.12 -16.11,-24.47 -13.94,-49.45 -3.37,-72.22 -37.29,5.32 -73.38,0.24 -89.22,-31.97 -39.01,-79.28 44.67,-106.1 44.67,-106.1 0,0 -89.31,-13.09 -47.21,-90 18.24,-33.33 47.47,-41.31 74.75,-39.68 -26.01,-22.71 -47.62,-55.16 -35.13,-96.27 26.18,-86.17 111.5,-42.69 111.5,-42.69 5.55,-53.52 56.62,-89.48 107.06,-73.5 15.31,4.85 27.61,17 37.39,31.67 16.5,-39.52 42.74,-76.9 82.35,-71.98 81.14,10.05 94.07,83.12 94.07,83.12 0,0 119.77,-16.9 127.1,88.02 0.87,12.38 -0.03,23.55 -2.2,33.71 28.38,0.56 56.89,10.15 74.58,39.96 45.99,77.44 -43.65,111.13 -43.65,111.13"
               style="fill:#ef6351;fill-opacity:1;fill-rule:nonzero;stroke:none"
               id="path40" />
            <path
               d="m 5627.3262,3221.8343 c 16.11,18.09 12.56,45.97 -8.05,57.89 -1.89,1.08 -3.94,1.79 -6.05,2.35 2.18,6.09 2.79,12.93 0.88,20.55 -9.87,39.31 -49.18,21.65 -49.18,21.65 -1.32,24.18 -23.47,41.47 -46.5,35.4 -4.89,-1.29 -9.19,-4.23 -12.96,-8.05 -21.13,37.4 -66.02,-2.01 -66.02,-2.01 0,0 -28.74,13.92 -51.85,-21.21 -7.25,-11.01 -6.27,-22.25 -1.53,-32.5 -16.77,2.39 -33.01,0.11 -40.14,-14.39 -17.56,-35.68 20.1,-47.75 20.1,-47.75 0,0 -40.19,-5.89 -21.24,-40.5 8.21,-15 21.36,-18.59 33.64,-17.86 -11.71,-10.22 -21.44,-24.82 -15.81,-43.32 11.77,-38.79 50.17,-19.22 50.17,-19.22 2.5,-24.09 25.49,-40.27 48.19,-33.07 6.89,2.18 12.43,7.64 16.82,14.25 7.43,-17.8 19.24,-34.61 37.06,-32.4 36.53,4.53 42.34,37.41 42.34,37.41 0,0 53.9,-7.6 57.2,39.62 0.4,5.56 -0.01,10.59 -0.98,15.16 12.76,0.26 25.59,4.57 33.56,17.99 20.7,34.85 -19.65,50.01 -19.65,50.01"
               style="fill:#618b95;fill-opacity:1;fill-rule:nonzero;stroke:none"
               id="path42" />
            <path
               d="m 5565.5856,3262.7647 c 27.9063,-41.2798 21.1125,-83.8985 -21.4494,-110.9614 -42.5619,-27.063 -93.3553,-24.8954 -121.2452,16.4003 -27.8982,41.2798 -13.3083,92.6963 29.2536,119.7513 42.5537,27.063 85.551,16.0976 113.441,-25.1902"
               style="fill:#ffedfe;fill-opacity:1;fill-rule:nonzero;stroke:none;stroke-width:0.809111"
               id="path44" />
            <path
               d="m 5223.6862,3764.8543 c -10.27,0 -20.47,3.87 -27.04,12 -15.09,18.66 -4.33,51.46 18.75,57.19 0,0 2.54,1.19 6.66,1.19 0.82,0 1.7,-0.04 2.64,-0.16 23.67,-2.85 41.93,-30.13 31.58,-51.61 -5.84,-12.12 -19.28,-18.61 -32.59,-18.61"
               style="fill:#ef6351;fill-opacity:1;fill-rule:nonzero;stroke:none"
               id="path292" />
            <path
               d="m 6340.1162,2954.8143 c -10.28,0 -20.47,3.86 -27.04,11.99 -15.09,18.66 -4.33,51.47 18.75,57.19 0,0 2.53,1.2 6.64,1.2 0.83,0 1.71,-0.05 2.65,-0.17 23.67,-2.85 41.94,-30.13 31.59,-51.61 -5.84,-12.11 -19.28,-18.6 -32.59,-18.6"
               style="fill:#ef6351;fill-opacity:1;fill-rule:nonzero;stroke:none"
               id="path294" />
            <path
               d="m 6125.2493,3763.9464 c -10.28,0 -20.47,3.87 -27.05,12 -15.08,18.65 -4.32,51.46 18.75,57.19 0,0 2.54,1.19 6.67,1.19 0.81,0 1.69,-0.04 2.63,-0.16 23.67,-2.85 41.93,-30.13 31.59,-51.61 -5.84,-12.12 -19.28,-18.61 -32.59,-18.61"
               style="fill:#ef6351;fill-opacity:1;fill-rule:nonzero;stroke:none"
               id="path310" />
          </g>
        </g>
      </g>
    </g>
  </g>
</svg>
