<?xml version="1.0" encoding="UTF-8" standalone="no"?>
<!-- Created with Inkscape (http://www.inkscape.org/) -->

<svg
   version="1.1"
   id="svg2"
   width="202.41571"
   height="170.31943"
   viewBox="0 0 202.41571 170.31943"
   sodipodi:docname="6880847_3397617.eps"
   xmlns:inkscape="http://www.inkscape.org/namespaces/inkscape"
   xmlns:sodipodi="http://sodipodi.sourceforge.net/DTD/sodipodi-0.dtd"
   xmlns="http://www.w3.org/2000/svg"
   xmlns:svg="http://www.w3.org/2000/svg">
  <defs
     id="defs6" />
  <sodipodi:namedview
     id="namedview4"
     pagecolor="#ffffff"
     bordercolor="#000000"
     borderopacity="0.25"
     inkscape:showpageshadow="2"
     inkscape:pageopacity="0.0"
     inkscape:pagecheckerboard="0"
     inkscape:deskcolor="#d1d1d1"
     showgrid="false" />
  <g
     id="g10"
     inkscape:groupmode="layer"
     inkscape:label="Page 1"
     transform="matrix(1.3333333,0,0,-1.3333333,-722.41351,301.73061)">
    <g
       id="g12"
       transform="scale(0.1)">
      <g
         id="g4632"
         transform="matrix(1.7174295,0,0,1.7174295,-4969.15,-469.80724)">
        <g
           id="g5291"
           inkscape:export-filename="../Documents/metashare/tema1/ilustrations/resepsi_flower2.svg"
           inkscape:export-xdpi="96"
           inkscape:export-ydpi="96">
          <path
             d="m 6449.9929,1118.3841 c 0.03,-46.192 -43.27,-70.461 -144.64,-102.871 -84.72,-27.08203 -91.83,66.98 -20.69,63.801 0,0 -91.14,-0.864 -82.5,49.296 7.19,41.684 94.81,22.563 94.81,22.563 0,0 -63.63,19.758 -60.05,43.418 12.12,79.98 213.03,-28.91 213.07,-76.207"
             style="fill:#618b95;fill-opacity:1;fill-rule:nonzero;stroke:none"
             id="path82" />
          <path
             d="m 6737.3629,987.32107 c -0.5,5.02 -4.36,9.02 -9.34,9.832 -16.7,2.688 -60.84,4.23903 -109.14,-39.871 -45.75,-41.781 -52.29,-80.898 -52.63,-98.191 -0.12,-5.797 4.21,-10.699 9.96,-11.297 16.94,-1.82 55.57,1.328 107.47,50.367 49.74,46.981 54.97,76.02 53.68,89.16"
             style="fill:#748c54;fill-opacity:1;fill-rule:nonzero;stroke:none"
             id="path84" />
          <path
             d="m 6450.2229,1090.2631 c 161.81,-17.102 291.14,-86.141 388.82,-218.83203 4.58,-6.219 14.17,0.551 11.12,7.242 -60.36,132.73003 -250.39,263.71103 -401.2,234.78903 -13.21,-2.531 -11.94,-21.82 1.26,-23.199"
             style="fill:#748c54;fill-opacity:1;fill-rule:nonzero;stroke:none"
             id="path86" />
          <path
             d="m 6493.3829,1266.4821 c 1.44,-3.809 0.1,-8.098 -3.22,-10.469 -11.09,-7.961 -42.41,-24.981 -93.18,-10.52 -48.08,13.688 -66.89,39.598 -73.37,51.961 -2.17,4.149 -0.8,9.238 3.13,11.75 11.58,7.418 40.61,19.047 95.75,2.34 52.84,-16.023 67.09,-35.113 70.89,-45.062"
             style="fill:#748c54;fill-opacity:1;fill-rule:nonzero;stroke:none"
             id="path88" />
          <path
             d="m 6646.5029,1090.8841 c -3.96,-3.113 -9.54,-3.09 -13.56,-0.063 -13.51,10.2 -45.18,40.981 -46.77,106.379 -1.5,61.922 22.21,93.723 34.45,105.953 4.1,4.09 10.63,4.348 15.06,0.618 13.03,-10.957 37.48,-41.028 38.02,-112.43 0.52,-68.418 -16.83,-92.289 -27.2,-100.457"
             style="fill:#748c54;fill-opacity:1;fill-rule:nonzero;stroke:none"
             id="path90" />
          <path
             d="m 6472.3429,1378.1221 c 37.8,-146.64 119.9,-264.758 257.39,-355.308 6.44,-4.25 1.39,-12.813 -5.29,-9.942 -132.52,56.789 -280.82,230.832 -274.01,366.77 0.59,11.922 18.83,10.449 21.91,-1.52"
             style="fill:#748c54;fill-opacity:1;fill-rule:nonzero;stroke:none"
             id="path92" />
          <path
             d="m 6463.0529,1099.6031 c 0,0 -10.28,-39.559 -39.83,-35.09 -29.55,4.449 0.85,89.808 15.06,88.91 14.21,-0.891 25.87,-25.992 24.77,-53.82"
             style="fill:#748c54;fill-opacity:1;fill-rule:nonzero;stroke:none"
             id="path94" />
          <path
             d="m 6475.9629,1353.5831 c -43.58,-15.32 -80.81,17.508 -144.94,102.449 -53.59,70.98 32.82,108.81 53.35,40.62 0,0 -30.97,85.73 19.22,94.16 41.72,7.03 52.67,-82 52.67,-82 0,0 -2.4,66.59 21.11,71.05 79.48,15.03 43.2,-210.599 -1.41,-226.279"
             style="fill:#618b95;fill-opacity:1;fill-rule:nonzero;stroke:none"
             id="path96" />
          <path
             d="m 6462.5629,1335.0441 c 0,0 -40.74,-3.402 -46.31,25.969 -5.57,29.359 85.05,28.918 88.9,15.199 3.86,-13.699 -15.98,-33.012 -42.59,-41.168"
             style="fill:#748c54;fill-opacity:1;fill-rule:nonzero;stroke:none"
             id="path98" />
          <path
             d="m 6082.1629,1509.3321 c -10.27,0 -20.47,3.87 -27.04,12 -15.08,18.66 -4.33,51.47 18.75,57.2 0,0 2.53,1.19 6.65,1.19 0.82,0 1.7,-0.05 2.65,-0.16 23.66,-2.86 41.93,-30.14 31.58,-51.62 -5.84,-12.12 -19.28,-18.61 -32.59,-18.61"
             style="fill:#618b95;fill-opacity:1;fill-rule:nonzero;stroke:none"
             id="path290" />
          <path
             d="m 6896.5329,1324.8921 c -10.27,0 -20.47,3.871 -27.04,12 -15.08,18.66 -4.33,51.461 18.75,57.199 0,0 2.53,1.18 6.65,1.18 0.82,0 1.71,-0.039 2.65,-0.161 23.67,-2.847 41.93,-30.128 31.58,-51.609 -5.84,-12.117 -19.28,-18.609 -32.59,-18.609"
             style="fill:#618b95;fill-opacity:1;fill-rule:nonzero;stroke:none"
             id="path298" />
          <path
             d="m 6118.4329,852.47407 c -10.28,0 -20.48,3.867 -27.04,12 -15.09,18.648 -4.33,51.457 18.74,57.179 0,0 2.54,1.2 6.66,1.2 0.82,0 1.7,-0.051 2.64,-0.161 23.67,-2.851 41.94,-30.14 31.59,-51.609 -5.84,-12.121 -19.28,-18.609 -32.59,-18.609"
             style="fill:#618b95;fill-opacity:1;fill-rule:nonzero;stroke:none"
             id="path314" />
        </g>
      </g>
    </g>
  </g>
</svg>
