<?xml version="1.0" encoding="UTF-8" standalone="no"?>
<!-- Created with Inkscape (http://www.inkscape.org/) -->

<svg
   version="1.1"
   id="svg2"
   width="463.22131"
   height="589.19257"
   viewBox="0 0 463.22132 589.19257"
   sodipodi:docname="18307752_5824867.eps"
   xmlns:inkscape="http://www.inkscape.org/namespaces/inkscape"
   xmlns:sodipodi="http://sodipodi.sourceforge.net/DTD/sodipodi-0.dtd"
   xmlns="http://www.w3.org/2000/svg"
   xmlns:svg="http://www.w3.org/2000/svg">
  <defs
     id="defs6" />
  <sodipodi:namedview
     id="namedview4"
     pagecolor="#ffffff"
     bordercolor="#000000"
     borderopacity="0.25"
     inkscape:showpageshadow="2"
     inkscape:pageopacity="0.0"
     inkscape:pagecheckerboard="0"
     inkscape:deskcolor="#d1d1d1"
     showgrid="false" />
  <g
     id="g10"
     inkscape:groupmode="layer"
     inkscape:label="Page 1"
     transform="matrix(1.3333333,0,0,-1.3333333,-816.12072,891.86772)">
    <g
       id="g1412"
       transform="translate(464.86089,-6.356317)">
      <g
         id="g7421"
         inkscape:export-filename="../../../opt/lampp/htdocs/tema1/assets/ilustrations/tema3/percin_lg.svg"
         inkscape:export-xdpi="96"
         inkscape:export-ydpi="96"
         transform="matrix(1.4198953,0,0,1.4198953,-61.821048,-206.39866)">
        <g
           id="g10013">
          <g
             id="g6051"
             style="fill:#404040;fill-opacity:1">
            <path
               d="m 230.78577,400.42794 c 3.658,4.079 7.083,9.198 10.98401,14.324 12.901,16.962 17.11971,18.27062 26.53071,32.96613 4.48692,7.00644 23.90598,34.33049 28.69798,42.80249 l 94.90838,130.40958 c -4.89,-8.657 -101.05133,-143.4581 -105.45232,-150.6581 -5.33559,-14.55991 -29.97364,-40.54626 -44.01175,-56.0451 -3.913,-5.145 -7.352,-10.28 -11.025,-14.373 l -0.632,0.574 v 0 0"
               style="fill:#404040;fill-opacity:1;fill-rule:nonzero;stroke:none;stroke-width:0.1"
               id="path256"
               sodipodi:nodetypes="ccscccccccc" />
            <path
               d="m 200.36778,384.58594 c -0.59201,-0.234 -1.17601,-0.46 -1.75301,-0.677 -0.39,0.049 -0.817,0.422 -0.848,0.65 0.831,0.289 1.766,0.643 2.786,1.052 -0.072,-0.33 -0.134,-0.672 -0.18499,-1.025 z m 30.715,16.749 c 0.072,-0.011 0.13899,-0.028 0.205,-0.054 0.705,0.803 8.497,10.75 9.332,11.845 0.275,0.361 0.844,0.189 0.981,-0.112 -0.938,-1.268 -9.028,-11.492 -9.762,-12.401 0.021,-0.099 0.026,-0.204 0.009,-0.311 -0.054,-0.371 -0.321,-0.656 -0.658,-0.749 -0.811,-5.451 -1.419,-9.341 -1.663,-14.327 -0.244,0.124 -0.491,0.247 -0.739,0.37 0.233,4.461 0.755,8.211 1.673,13.981 -5.353,-3.125 -11.272,-6.325 -17.115,-9.19 -0.609,0.057 -1.229,0.099 -1.859,0.126 6.112,2.945 12.845,6.46 18.579,9.742 -0.019,0.099 -0.023,0.203 -0.008,0.308 0.072,0.499 0.529,0.844 1.025,0.772 v 0 0"
               style="fill:#404040;fill-opacity:1;fill-rule:evenodd;stroke:none;stroke-width:0.1"
               id="path326" />
            <path
               d="m 315.67478,372.32194 c 3.427,4.278 6.562,9.583 10.171,14.921 11.939,17.664 24.69,39.224 33.229,55.126 7.572,14.103 16.269,31.822 24.442,49.179 h 0.936 c -8.248,-17.531 -15.54685,-38.91735 -23.13885,-53.05935 -8.556,-15.935 -24.2983,-37.01896 -36.2553,-54.70896 -3.621,-5.356 -5.27985,-7.70169 -8.71885,-11.99569 l -0.665,0.538 v 0 0"
               style="fill:#404040;fill-opacity:1;fill-rule:nonzero;stroke:none;stroke-width:0.1"
               id="path328"
               sodipodi:nodetypes="ccccccccccc" />
            <path
               d="m 293.45278,346.40294 c 0.051,-0.008 0.10199,-0.02 0.151,-0.035 2.739,2.771 6.184,6.46 9.632,10.5 2.845,3.336 6.347,8.218 8.81,11.73 0,0 0.321,-1.033 -0.104,-1.634 -2.393,-3.383 -5.489,-7.636 -8.064,-10.654 -3.468,-4.065 -6.932,-7.774 -9.684,-10.559 0.033,-0.119 0.043,-0.249 0.024,-0.381 -0.051,-0.35 -0.292,-0.625 -0.60301,-0.732 -1.432,-4.946 -2.50499,-9.748 -3.379,-14.683 -0.92699,-5.23 -1.645,-10.756 -2.317,-16.625 -0.25,-0.076 -0.66599,0.071 -0.833,0.24 0.674,5.885 1.383,11.286 2.31201,16.535 0.85899,4.848 1.90599,9.561 3.28999,14.396 -11.46799,-8.589 -20.742,-14.293 -30.83999,-20.504 -2.87101,-1.764 -5.42501,-3.331 -8.24001,-5.094 -0.437,-0.057 -0.846,0.239 -0.831,0.487 3.144,1.969 5.916,3.673 8.62601,5.341 10.161,6.249 19.48599,11.983 31.024,20.643 -0.011,0.083 -0.011,0.17 9.9e-4,0.258 0.072,0.497 0.531,0.843 1.02501,0.771 v 0 0"
               style="fill:#404040;fill-opacity:1;fill-rule:evenodd;stroke:none;stroke-width:0.1"
               id="path410" />
          </g>
          <path
             d="m 250.76477,317.82294 c -16.165,25.407 -34.985,45.455 -55.587,68.463 l -1.88,-1.788 56.156,-69.47 1.311,2.795 v 0 0"
             style="fill:#fad9cb;fill-opacity:1;fill-rule:evenodd;stroke:none;stroke-width:0.1"
             id="path248" />
          <path
             d="m 250.76477,317.82294 -1.311,-2.795 c 13.303,-2.79 26.526,-3.543 39.79001,-5.314 l 1.277,2.251 c -13.12101,2.864 -26.37801,4.778 -39.75601,5.858 v 0 0"
             style="fill:#fad9cb;fill-opacity:1;fill-rule:evenodd;stroke:none;stroke-width:0.1"
             id="path250" />
          <path
             d="m 250.76477,317.82294 -55.587,68.463 32.45101,-15.406 62.892,-58.915 -39.756,5.858 v 0 0"
             style="fill:#fff1eb;fill-opacity:1;fill-rule:evenodd;stroke:none;stroke-width:0.1"
             id="path252" />
          <path
             d="m 246.70877,322.81894 -14.01799,17.266 c 3.06399,3.947 9.829,7.133 18.46599,8.754 l 28.341,-26.548 c -4.592,-1.056 -9.809,-1.652 -15.344,-1.652 -6.399,0 -12.373,0.797 -17.445,2.18 v 0 0"
             style="fill:#fad9cb;fill-opacity:1;fill-rule:evenodd;stroke:none;stroke-width:0.1"
             id="path254" />
          <path
             d="m 261.11277,418.14994 c 0.222,6.23 4.524,12.27 19.65301,12.471 19.937,0.264 18.507,14.993 37.814,9.631 13.471,-2.797 21.712,-30.466 13.638,-48.558 -10.141,-22.73 -72.39,-9.532 -71.105,26.456 v 0"
             style="fill:#172038;fill-opacity:1;fill-rule:nonzero;stroke:none;stroke-width:0.1"
             id="path258" />
          <path
             d="m 321.49278,439.64694 c 0.18699,-0.088 0.267,-0.311 0.178,-0.498 -0.087,-0.187 -0.31,-0.267 -0.498,-0.179 -14.557,6.852 -17.791,3.47 -21.922,-0.85 -2.126,-2.225 -4.484,-4.69 -8.628,-6.234 -2.617,-0.976 -6.325,-1.173 -10.245,-1.381 -6.971,-0.37 -14.626,-0.777 -17.526,-5.673 -1.299,-2.191 -1.977,-6.676 -1.081,-11.493 0.685,-3.677 2.291,-7.534 5.245,-10.692 0.141,-0.15 0.133,-0.386 -0.017,-0.527 -0.151,-0.141 -0.387,-0.133 -0.528,0.017 -3.063,3.276 -4.727,7.266 -5.435,11.067 -0.931,4.997 -0.202,9.69 1.172,12.009 3.10399,5.24 10.969,5.658 18.132,6.039 3.862,0.205 7.515,0.399 10.022,1.334 3.982,1.484 6.276,3.883 8.34699,6.05 4.34001,4.539 7.738,8.092 22.78401,1.011 v 0"
             style="fill:#172038;fill-opacity:1;fill-rule:nonzero;stroke:none;stroke-width:0.1"
             id="path260" />
          <path
             d="m 272.40478,401.83194 c -1.35501,0.871 -4.95901,4.557 -5.83801,2.526 -0.726,-1.676 -2.223,-6.607 -5.615,-5.159 -11.302,-0.496 4.046,-15.735 8.923,-6.198 -1.961,3.997 0.495,5.893 2.53001,8.831 v 0 0"
             style="fill:#ffb291;fill-opacity:1;fill-rule:evenodd;stroke:none;stroke-width:0.1"
             id="path262" />
          <path
             d="m 272.40478,401.83194 c -1.35501,0.871 -4.95901,4.557 -5.83801,2.526 -0.44099,-1.016 -1.16399,-3.227 -2.419,-4.489 1.13201,-0.703 2.533,-1.259 4.093,-1.566 0.519,-0.103 1.033,-0.174 1.536,-0.214 0.642,1.233 1.682,2.375 2.62801,3.743 v 0 0"
             style="fill:#fa9d76;fill-opacity:1;fill-rule:evenodd;stroke:none;stroke-width:0.1"
             id="path264" />
          <path
             d="m 273.35877,401.85494 c 1.6,-1.267 3.58001,-0.542 4.28701,0.303 -4.022,4.844 0.31899,6.882 -1.13001,10.679 -4.251,1.277 -5.436,4.753 -7.018,5.926 -3.65999,-2.776 -9.885,-7.799 -7.667,-14.556 0.902,-1.706 6.793,-4.546 11.528,-2.352 v 0 0"
             style="fill:#ffb291;fill-opacity:1;fill-rule:evenodd;stroke:none;stroke-width:0.1"
             id="path266" />
          <path
             d="m 276.87278,401.55994 c 0.32399,0.17 0.59,0.38 0.773,0.598 -4.022,4.844 0.319,6.882 -1.13,10.679 -4.25101,1.277 -5.43601,4.753 -7.018,5.926 -0.309,-0.229 -0.638,-0.479 -0.981,-0.747 3.302,-0.82 3.19,-5.322 7.316,-6.567 1.052,-3.068 -2.221,-4.832 1.04,-9.889 v 0 0"
             style="fill:#fa9d76;fill-opacity:1;fill-rule:evenodd;stroke:none;stroke-width:0.1"
             id="path268" />
          <path
             d="m 267.83778,410.55994 c -0.894,-0.454 -1.30901,-0.416 -1.83001,-0.5 -0.339,-0.562 0.363,-1.525 0.671,-1.628 0.778,-0.121 1.158,1.605 1.15901,2.128 v 0 0"
             style="fill:#fc6b58;fill-opacity:1;fill-rule:evenodd;stroke:none;stroke-width:0.1"
             id="path270" />
          <path
             d="m 270.44578,408.16494 c -0.608,0.36 -1.34,0.249 -1.635,-0.249 -0.296,-0.499 -0.044,-1.195 0.564,-1.555 0.607,-0.361 1.33899,-0.249 1.634,0.249 0.296,0.498 0.044,1.195 -0.563,1.555 v 0 0"
             style="fill:#fc6b58;fill-opacity:1;fill-rule:evenodd;stroke:none;stroke-width:0.1"
             id="path272" />
          <path
             d="m 265.65378,412.24494 c -0.387,0.463 -1.009,0.583 -1.389,0.266 -0.38,-0.318 -0.37601,-0.95 0.011,-1.414 0.387,-0.464 1.008,-0.583 1.389,-0.265 0.379,0.316 0.375,0.949 -0.011,1.413 v 0 0"
             style="fill:#fc6b58;fill-opacity:1;fill-rule:evenodd;stroke:none;stroke-width:0.1"
             id="path274" />
          <path
             d="m 263.92878,408.87394 c -0.269,-0.509 -0.79001,-2.24 -0.60701,-2.893 1.21101,-1.444 3.40901,-1.086 4.543,-0.265 -2.256,0.896 -3.655,2.061 -3.936,3.158 v 0 0"
             style="fill:#fefefe;fill-opacity:1;fill-rule:evenodd;stroke:none;stroke-width:0.1"
             id="path276" />
          <path
             d="m 267.08577,415.49294 c 0.422,0.474 2.792,-1.131 2.371,-1.604 -0.421,-0.473 -2.791,1.13 -2.371,1.604 v 0 0"
             style="fill:#172038;fill-opacity:1;fill-rule:evenodd;stroke:none;stroke-width:0.1"
             id="path278" />
          <path
             d="m 271.20677,412.57894 c 0.58301,0.371 2.58801,-2.016 2.00501,-2.386 -0.58201,-0.371 -2.588,2.015 -2.00501,2.386 v 0 0"
             style="fill:#172038;fill-opacity:1;fill-rule:evenodd;stroke:none;stroke-width:0.1"
             id="path280" />
          <path
             d="m 272.21278,408.90394 c 0.20599,-0.01 0.36699,-0.185 0.35699,-0.391 -0.01,-0.206 -0.18599,-0.366 -0.392,-0.356 -0.57199,0.029 -1.25599,0.126 -1.8,0.44 -0.594,0.344 -1.01099,0.919 -0.95399,1.881 0.013,0.206 0.19,0.364 0.39599,0.351 0.20701,-0.012 0.36401,-0.189 0.35101,-0.395 -0.037,-0.617 0.21799,-0.979 0.582,-1.19 0.416,-0.24 0.98,-0.316 1.46,-0.34 v 0"
             style="fill:#172038;fill-opacity:1;fill-rule:nonzero;stroke:none;stroke-width:0.1"
             id="path282" />
          <path
             d="m 267.83977,412.46094 c 0.20701,-0.012 0.364,-0.19 0.35101,-0.397 -0.013,-0.206 -0.191,-0.362 -0.39801,-0.35 -0.21699,0.015 -0.43799,0.046 -0.64999,0.096 l -0.017,0.004 c -0.44601,0.109 -0.87,0.304 -1.18101,0.607 -0.33799,0.328 -0.53999,0.77 -0.50199,1.345 v 0.002 c 0.009,0.125 0.028,0.253 0.059,0.386 0.048,0.202 0.25,0.326 0.452,0.278 0.20101,-0.047 0.32601,-0.249 0.27801,-0.451 -0.023,-0.095 -0.036,-0.183 -0.042,-0.263 -0.022,-0.331 0.09,-0.579 0.276,-0.761 0.207,-0.201 0.508,-0.335 0.836,-0.414 l 0.014,-0.004 c 0.175,-0.041 0.352,-0.066 0.524,-0.078 v 0"
             style="fill:#172038;fill-opacity:1;fill-rule:nonzero;stroke:none;stroke-width:0.1"
             id="path284" />
          <path
             d="m 203.25578,389.94694 c -5.34,-2.487 -3.289,-19.589 2.656,-25.225 l 11.56399,0.325 c -4.78099,7.522 2.472,24.089 -14.21999,24.9 v 0"
             style="fill:#5e4e90;fill-opacity:1;fill-rule:evenodd;stroke:none;stroke-width:0.1"
             id="path286" />
          <path
             d="m 239.59978,370.74694 c -0.845,0.812 -3.26101,2.215 -6.719,3.43 -10.15501,3.569 -22.283,6.972 -34.642,6.917 -11.43001,1.785 -28.794,3.867 -36.2,7.126 -1.351,0.594 -2.86,2.294 -3.452,2.972 -11.213,12.033 -4.89501,-10.336 0.102,-10.022 7.708,0.263 21.112,-11.79 37.84099,-9.623 8.00101,-2.231 22.70001,-11.367 33.05,-13.07 5.355,-1.115 15.752,3.996 10.02,12.27 v 0 0"
             style="fill:#fa9d76;fill-opacity:1;fill-rule:evenodd;stroke:none;stroke-width:0.1"
             id="path288" />
          <path
             d="m 158.89178,381.24594 c -3.965,-1.524 -7.02101,0.406 -10.84901,1.835 -0.026,1.439 0.708,2.462 1.107,4.365 0.43801,0.037 1.477,-0.797 2.04401,-0.807 0.771,2.667 -0.56301,3.439 -0.778,6.158 -0.341,4.295 0.068,9.612 2,11.139 4.589,-1.027 3.45499,-7.393 6.171,-12.744 -3.314,2.092 -2.584,-6.802 0.305,-9.946 v 0"
             style="fill:#d86468;fill-opacity:1;fill-rule:evenodd;stroke:none;stroke-width:0.1"
             id="path290" />
          <path
             d="m 195.83878,369.40694 c 7.988,1.15 33.398,0.212 43.53799,-2.372 14.95001,-3.809 8.12301,-17.007 1.35001,-16.171 -10.793,0.671 -34.961,7.613 -44.125,8.353 -14.651,-1.256 -31.432,9.673 -37.344,9.932 -2.974,-0.577 -7.46501,-3.398 -8.406,2.952 -1.788,4.932 -2.628,6.475 -2.681,9.036 -1.262,1.992 -0.112,4.861 0.979,6.309 0.756,2.703 2.815,-0.725 2.738,-2.176 1.209,-2.36 1.528,-3.533 4.592,-5.64 8.618,-6.925 30.416,-8.63 39.359,-10.223 v 0"
             style="fill:#ffb291;fill-opacity:1;fill-rule:evenodd;stroke:none;stroke-width:0.1"
             id="path292" />
          <path
             d="m 209.56777,369.85994 c 3.897,-0.068 8.124,-0.247 12.23201,-0.531 0.414,-1.246 0.645,-2.636 0.645,-4.102 0,-5.301 -3.01501,-9.606 -6.756,-9.682 -0.781,0.175 -1.558,0.349 -2.327,0.521 0.73,6.926 -2.16301,12.36 -3.79401,13.794 v 0"
             style="fill:#fa9d76;fill-opacity:1;fill-rule:evenodd;stroke:none;stroke-width:0.1"
             id="path294" />
          <path
             d="m 159.25778,369.14894 c -3.256,-2.926 -5.873,-2.42 -9.826,-1.917 -0.532,1.381 -0.974,3.185 -1.257,5.164 0.409,0.19 1.034,0.239 1.585,0.429 -0.14001,2.075 -2.295,4.902 -2.46701,7.348 -0.317,4.498 0.60301,8.853 1.809,10.824 3.32001,0.233 2.875,-7.152 7.37801,-11.367 -3.27101,-0.649 -1.14601,-8.476 2.77799,-10.481 v 0"
             style="fill:#d86468;fill-opacity:0.889305;fill-rule:evenodd;stroke:none;stroke-width:0.1"
             id="path296" />
          <path
             d="m 254.33678,363.87794 c 2.476,2.816 9.15799,7.1 12.19,11.362 3.618,7.756 7.684,7.113 7.354,7.603 0.22699,1.255 0.096,2.609 -0.103,3.247 -0.68,2.182 -2.866,5.576 -3.90301,6.911 -6.846,-5.264 -16.329,2.735 -8.923,6.198 -2.243,0.958 -4.79,1.78 -7.243,2.054 -2.20999,-0.111 -13.791,-2.788 -17.10399,-4.822 0.012,-1.088 -8.92601,-6.421 -8.25801,-7.834 2.51101,-1.235 12.362,-0.16 15.48401,0.172 -1.191,-2.718 -1.73001,-7.231 -3.37601,-8.873 l 13.88201,-16.018 v 0 0"
             style="fill:#774e90;fill-opacity:1;fill-rule:evenodd;stroke:none;stroke-width:0.1"
             id="path298" />
          <path
             d="m 270.99878,391.40594 c -0.42801,0.651 -0.825,1.209 -1.124,1.595 -6.846,-5.264 -16.329,2.735 -8.923,6.198 -0.615,0.262 -1.252,0.514 -1.904,0.747 -8.899,-5.973 4.96399,-14.923 11.951,-8.54 v 0"
             style="fill:#77438b;fill-opacity:1;fill-rule:evenodd;stroke:none;stroke-width:0.1"
             id="path300" />
          <path
             d="m 239.92977,408.87694 c -1.08299,0.584 -3.762,2.023 -4.97699,2.246 -2.79601,-5.373 -8.36,-13.762 -6.60601,-22.526 7.665,0.723 9.081,6.365 9.87601,8.63 0.649,3.332 1.19499,7.127 1.707,11.65 v 0"
             style="fill:#774e90;fill-opacity:1;fill-rule:evenodd;stroke:none;stroke-width:0.1"
             id="path302" />
          <path
             d="m 257.08478,366.78394 -16.63001,13.112 c -9.8,3.638 -19.59099,13.106 -37.199,10.051 11.266,-2.288 4.163,-24.416 17.789,-38.783 2.31,-7.615 21.608,0.876 22.978,0.216 2.27601,-1.096 10.419,15.659 13.062,15.404 v 0 0"
             style="fill:#774e90;fill-opacity:1;fill-rule:evenodd;stroke:none;stroke-width:0.1"
             id="path304" />
          <path
             d="m 254.10578,366.67294 c -0.061,-0.197 -0.27,-0.308 -0.46701,-0.247 -0.19699,0.06 -0.30799,0.27 -0.24799,0.467 0.37099,1.194 2.917,5.545 5.87299,9.341 1.947,2.501 4.08301,4.777 5.91701,5.79 0.181,0.099 0.40799,0.033 0.508,-0.148 0.1,-0.181 0.033,-0.409 -0.147,-0.508 -1.736,-0.959 -3.796,-3.163 -5.69,-5.594 -2.904,-3.73 -5.392,-7.959 -5.746,-9.101 v 0"
             style="fill:#77438b;fill-opacity:1;fill-rule:nonzero;stroke:none;stroke-width:0.1"
             id="path306" />
          <path
             d="m 253.27778,370.23594 c 0.194,-0.068 0.298,-0.281 0.22899,-0.476 -0.067,-0.195 -0.281,-0.298 -0.475,-0.23 -2.90999,1.013 -5.26399,2.099 -7.227,3.457 -1.975,1.367 -3.552,3.005 -4.896,5.112 -0.111,0.174 -0.06,0.405 0.114,0.516 0.174,0.111 0.405,0.06 0.516,-0.114 1.289,-2.02 2.798,-3.59 4.691,-4.899 1.903,-1.317 4.199,-2.375 7.048,-3.366 v 0"
             style="fill:#77438b;fill-opacity:1;fill-rule:nonzero;stroke:none;stroke-width:0.1"
             id="path308" />
          <path
             d="m 234.53078,393.93394 c -0.189,-0.084 -0.41,0.002 -0.493,0.191 -0.083,0.19 0.003,0.411 0.191,0.494 1.58,0.7 2.42699,1.38 2.962,2.413 0.553,1.066 0.81099,2.551 1.19899,4.815 0.035,0.204 0.229,0.341 0.433,0.306 0.204,-0.034 0.341,-0.228 0.305,-0.432 -0.39899,-2.332 -0.66599,-3.863 -1.27199,-5.032 -0.624,-1.203 -1.573,-1.979 -3.325,-2.755 v 0"
             style="fill:#77438b;fill-opacity:1;fill-rule:nonzero;stroke:none;stroke-width:0.1"
             id="path310" />
          <path
             d="m 243.80277,384.57694 c 0.049,-0.2 -0.075,-0.402 -0.27499,-0.451 -0.2,-0.049 -0.40301,0.075 -0.45101,0.275 -0.29899,1.231 -0.141,4.28 1.621,7.016 1.13001,1.755 2.915,3.39 5.654,4.35 0.195,0.068 0.408,-0.035 0.477,-0.23 0.068,-0.195 -0.036,-0.408 -0.23099,-0.476 -2.55701,-0.897 -4.22101,-2.418 -5.27,-4.048 -1.63601,-2.54 -1.795,-5.323 -1.52501,-6.436 v 0"
             style="fill:#77438b;fill-opacity:1;fill-rule:nonzero;stroke:none;stroke-width:0.1"
             id="path312" />
          <path
             d="m 245.99878,417.40794 c 0.469,-0.633 -0.947,-2.562 -1.94601,-3.225 -0.361,-0.239 -0.575,-0.255 -0.757,-0.067 -0.349,0.353 0.477,1.984 1.043,2.676 0.30701,0.374 1.252,1.165 1.66,0.616 v 0"
             style="fill:#fa9d76;fill-opacity:1;fill-rule:evenodd;stroke:none;stroke-width:0.1"
             id="path314" />
          <path
             d="m 235.77078,410.88294 c 0.336,0.707 0.673,1.424 1.008,2.156 0.56999,1.244 0.977,2.824 1.446,3.735 0.24,0.228 0.714,0.402 1.036,0.82 0.326,0.424 0.737,0.703 1.33,0.793 0.401,0.062 0.56,0.352 1.003,0.611 0.404,0.236 1.094,0.445 1.414,0.472 0.526,0.045 3.241,-2.266 1.573,-3.491 0.213,-0.587 0.168,-1.248 -0.528,-1.796 -0.833,-0.656 -1.049,-2.612 -4.388,-2.871 -0.252,-0.648 -0.464,-1.298 -0.646,-1.95 -0.97,0.511 -2.265,1.161 -3.248,1.521 v 0"
             style="fill:#ffb291;fill-opacity:1;fill-rule:evenodd;stroke:none;stroke-width:0.1"
             id="path316" />
          <path
             d="m 242.66077,413.83094 c -0.15199,-10e-4 -0.274,0.121 -0.27499,0.272 0,0.15 0.12099,0.274 0.27299,0.274 0.555,0.003 0.68,0.31 0.67801,0.61 -0.001,0.216 -0.055,0.443 -0.091,0.59 -0.013,0.055 -0.025,0.101 -0.029,0.123 -0.092,0.472 -0.258,0.802 -0.579,1.021 -0.346,0.236 -0.88601,0.366 -1.711,0.423 l -0.092,0.006 c -0.25101,0.016 -0.53401,0.034 -0.777,0.168 -0.13201,0.073 -0.179,0.239 -0.105,0.371 0.072,0.132 0.23899,0.18 0.37099,0.106 0.133,-0.074 0.35001,-0.087 0.544,-0.099 l 0.095,-0.006 c 0.92699,-0.065 1.55099,-0.223 1.98399,-0.517 0.45801,-0.312 0.68601,-0.752 0.80701,-1.368 0.007,-0.036 0.014,-0.065 0.023,-0.1 0.041,-0.17 0.104,-0.434 0.106,-0.716 0.003,-0.57 -0.222,-1.153 -1.222,-1.158 v 0"
             style="fill:#fa9d76;fill-opacity:1;fill-rule:nonzero;stroke:none;stroke-width:0.1"
             id="path318" />
          <path
             d="m 240.93677,412.92594 c -0.042,0.145 0.042,0.295 0.18801,0.337 0.144,0.041 0.295,-0.042 0.336,-0.188 0.058,-0.199 0.159,-0.31 0.265,-0.335 0.046,-0.011 0.096,-0.006 0.145,0.014 0.06,0.025 0.121,0.073 0.177,0.144 0.218,0.274 0.32899,0.825 0.114,1.661 -0.021,0.08 -0.24601,0.268 -0.59201,0.472 -0.30199,0.178 -0.678,0.346 -1.07899,0.438 -0.028,0.008 -0.072,0.015 -0.12101,0.023 -0.31399,0.053 -0.838,0.141 -1.134,0.568 -0.085,0.124 -0.054,0.294 0.07,0.38 0.124,0.086 0.294,0.054 0.38,-0.07 0.163,-0.236 0.54601,-0.3 0.774,-0.339 0.058,-0.009 0.10901,-0.018 0.153,-0.028 0.46301,-0.108 0.892,-0.299 1.23401,-0.501 0.467,-0.275 0.79099,-0.605 0.84299,-0.808 0.266,-1.029 0.094,-1.75 -0.214,-2.137 -0.115,-0.145 -0.252,-0.248 -0.397,-0.308 -0.15699,-0.065 -0.32099,-0.079 -0.47699,-0.042 -0.291,0.068 -0.547,0.308 -0.66501,0.719 v 0"
             style="fill:#fa9d76;fill-opacity:1;fill-rule:nonzero;stroke:none;stroke-width:0.1"
             id="path320" />
          <path
             d="m 243.36977,414.51894 c -0.136,0.023 -0.228,0.152 -0.20499,0.288 0.022,0.136 0.151,0.228 0.28699,0.205 0.632,-0.105 0.847,0.153 0.899,0.461 0.061,0.365 -0.059,0.809 -0.097,0.943 l -0.008,0.037 c -0.161,0.602 -0.321,0.953 -0.626,1.137 -0.328,0.199 -0.857,0.248 -1.739,0.24 -0.115,-0.002 -0.249,0.013 -0.382,0.044 -0.12,0.028 -0.244,0.071 -0.36,0.13 -0.123,0.062 -0.173,0.212 -0.11,0.335 0.061,0.123 0.212,0.173 0.335,0.111 0.078,-0.04 0.164,-0.07 0.248,-0.09 0.098,-0.023 0.19,-0.033 0.265,-0.032 0.97801,0.009 1.579,-0.055 2,-0.31 0.443,-0.266 0.657,-0.705 0.85,-1.438 l 0.01,-0.033 c 0.043,-0.158 0.185,-0.681 0.106,-1.156 -0.093,-0.563 -0.453,-1.041 -1.473,-0.872 v 0"
             style="fill:#fa9d76;fill-opacity:1;fill-rule:nonzero;stroke:none;stroke-width:0.1"
             id="path322" />
          <path
             d="m 241.06177,413.75594 c 0.15001,0.003 0.274,-0.117 0.277,-0.267 0.004,-0.151 -0.11599,-0.276 -0.267,-0.278 -0.182,-0.004 -0.37099,-0.033 -0.558,-0.061 -0.48599,-0.073 -0.95999,-0.145 -1.577,0.143 -0.137,0.063 -0.19599,0.226 -0.132,0.364 0.064,0.137 0.227,0.196 0.363,0.132 0.46801,-0.218 0.86101,-0.158 1.26401,-0.098 0.19799,0.03 0.39799,0.061 0.62999,0.065 v 0"
             style="fill:#fa9d76;fill-opacity:1;fill-rule:nonzero;stroke:none;stroke-width:0.1"
             id="path324" />
          <path
             d="m 313.36178,375.70594 c 0.573,0.276 1.378,-0.201 1.798,-1.064 0.42,-0.862 0.295,-1.785 -0.27801,-2.059 -0.57499,-0.275 -1.38,0.2 -1.798,1.064 -0.41999,0.863 -0.296,1.784 0.27801,2.059 v 0 0"
             style="fill:#e88d66;fill-opacity:1;fill-rule:evenodd;stroke:none;stroke-width:0.1"
             id="path330" />
          <path
             d="m 315.92278,361.36594 c 0.977,0.661 2.658,3.979 4.4,6.678 0.909,1.999 -2.908,6.594 -3.296,6.735 -0.55101,0.199 -1.62,0.237 -2.603,-0.94 -0.341,-0.192 -1.32301,-0.155 -1.882,-1.565 -0.68401,-0.1 -1.222,-0.369 -1.28501,-1.793 -0.973,-0.604 -1.32999,-2.859 0.24001,-3.6 -0.832,-1.727 -0.812,-2.829 -0.36501,-3.509 -1.05599,-2.523 -1.805,-2.742 -3.58099,-4.257 l 5.765,-3.112 c 1.001,2.24 2.103,3.353 2.607,5.363 v 0"
             style="fill:#fa9d76;fill-opacity:1;fill-rule:evenodd;stroke:none;stroke-width:0.1"
             id="path332" />
          <path
             d="m 316.35478,372.91294 c -0.003,-0.131 -0.112,-0.236 -0.24401,-0.234 -0.132,0.003 -0.23699,0.112 -0.23499,0.244 0.002,0.083 0.008,0.175 0.021,0.288 0.013,0.109 0.032,0.245 0.062,0.421 0.021,0.13 0.144,0.219 0.274,0.197 0.131,-0.021 0.22,-0.144 0.198,-0.274 -0.026,-0.16 -0.045,-0.29 -0.057,-0.398 -0.012,-0.106 -0.018,-0.183 -0.019,-0.244 v 0"
             style="fill:#e88d66;fill-opacity:1;fill-rule:nonzero;stroke:none;stroke-width:0.1"
             id="path334" />
          <path
             d="m 314.15278,369.48494 c 0.078,-0.107 0.054,-0.257 -0.054,-0.335 -0.106,-0.077 -0.25701,-0.053 -0.33401,0.053 -0.25599,0.353 -0.79099,0.841 -1.353,1.078 -0.364,0.153 -0.734,0.195 -1.02,0.001 -0.10999,-0.074 -0.259,-0.045 -0.33299,0.065 -0.074,0.109 -0.045,0.258 0.065,0.333 0.44299,0.299 0.971,0.253 1.474,0.042 0.64799,-0.273 1.262,-0.833 1.555,-1.237 v 0"
             style="fill:#e88d66;fill-opacity:1;fill-rule:nonzero;stroke:none;stroke-width:0.1"
             id="path336" />
          <path
             d="m 315.57878,370.89994 c 0.077,-0.107 0.053,-0.257 -0.054,-0.335 -0.108,-0.077 -0.257,-0.054 -0.335,0.053 -0.225,0.31 -0.521,0.655 -0.881,0.93 -0.349,0.267 -0.76,0.47 -1.225,0.511 -0.131,0.011 -0.23,0.127 -0.218,0.26 0.011,0.132 0.128,0.229 0.259,0.218 0.568,-0.05 1.061,-0.291 1.475,-0.608 0.404,-0.31 0.732,-0.689 0.979,-1.029 v 0"
             style="fill:#e88d66;fill-opacity:1;fill-rule:nonzero;stroke:none;stroke-width:0.1"
             id="path338" />
          <path
             d="m 316.99678,372.21394 c 0.078,-0.107 0.053,-0.257 -0.053,-0.335 -0.10801,-0.077 -0.258,-0.053 -0.335,0.053 -0.225,0.311 -0.522,0.655 -0.88101,0.93 -0.34899,0.267 -0.75999,0.47 -1.22499,0.511 -0.13201,0.011 -0.23,0.128 -0.218,0.26 0.011,0.131 0.128,0.23 0.259,0.218 0.567,-0.05 1.06,-0.291 1.475,-0.608 0.404,-0.31 0.731,-0.689 0.978,-1.029 v 0"
             style="fill:#e88d66;fill-opacity:1;fill-rule:nonzero;stroke:none;stroke-width:0.1"
             id="path340" />
          <path
             d="m 311.41277,362.60194 c 0.038,-0.126 -0.033,-0.26 -0.15999,-0.299 -0.12601,-0.039 -0.259,0.032 -0.298,0.159 -0.68801,2.219 -0.091,3.081 0.5,3.935 0.212,0.307 0.423,0.613 0.556,0.979 0.137,0.38 -0.064,0.747 -0.20801,1.01 -0.13699,0.252 -0.24199,0.443 -0.11799,0.643 0.07,0.112 0.218,0.147 0.33,0.077 0.112,-0.07 0.147,-0.218 0.077,-0.33 -0.023,-0.037 0.07,-0.049 0.131,-0.161 0.187,-0.342 0.447,-0.819 0.238,-1.4 -0.154,-0.428 -0.383,-0.759 -0.613,-1.09 -0.525,-0.758 -1.056,-1.525 -0.435,-3.523 v 0"
             style="fill:#e88d66;fill-opacity:1;fill-rule:nonzero;stroke:none;stroke-width:0.1"
             id="path342" />
          <path
             d="m 299.00278,394.14894 -10.362,1.76 c -1.561,-3.518 -2.03801,-6.961 -3.796,-6.564 -15.24201,-7.583 17.281,-15.369 11.807,-6.474 -2.391,3.884 0.1,7.646 2.351,11.278 v 0"
             style="fill:#fa9d76;fill-opacity:1;fill-rule:evenodd;stroke:none;stroke-width:0.1"
             id="path344" />
          <path
             d="m 288.63977,395.90794 c 2.62301,2.311 8.35,1.911 10.36301,-1.759 -1.326,-2.141 -2.42601,-4.008 -2.973,-5.757 -2.42701,-0.615 -7.574,0.179 -9.75401,1.715 0.86501,1.071 1.25401,3.298 2.364,5.801 v 0 0"
             style="fill:#f28c61;fill-opacity:1;fill-rule:evenodd;stroke:none;stroke-width:0.1"
             id="path346" />
          <path
             d="m 297.73278,394.46194 c 1.053,-0.748 3.255,-0.096 4.135,1.233 1.513,2.285 -0.90701,4.464 -3.146,2.38 -0.56301,0.162 -1.08001,0.418 -1.08001,0.418 1.45101,3.311 -1.438,4.299 -0.469,7.112 -1.589,1.7 -4.528,-0.362 -9.565,2.857 -3.823,-4.387 -5.205,-12.125 -3.114,-17.089 0.727,-1.025 2.843,-1.855 4.26501,-1.784 3.953,0.209 6.88299,2.218 8.97399,4.873 v 0"
             style="fill:#fa9d76;fill-opacity:1;fill-rule:evenodd;stroke:none;stroke-width:0.1"
             id="path348" />
          <path
             d="m 297.13977,403.39294 c -0.19699,0.643 -0.267,1.339 0.033,2.212 -1.589,1.7 -4.528,-0.362 -9.565,2.857 -0.1,-0.114 -0.197,-0.232 -0.293,-0.35 1.02501,-1.217 5.692,-4.432 9.825,-4.719 v 0 0"
             style="fill:#f28c61;fill-opacity:1;fill-rule:evenodd;stroke:none;stroke-width:0.1"
             id="path350" />
          <path
             d="m 291.40278,403.00194 c 0.47399,1.069 4.09,-0.839 3.615,-1.909 -0.474,-1.067 -4.089,0.841 -3.615,1.909 v 0 0"
             style="fill:#172038;fill-opacity:1;fill-rule:evenodd;stroke:none;stroke-width:0.1"
             id="path352" />
          <path
             d="m 285.56878,404.73694 c 0.68099,0.911 3.711,-0.228 3.03,-1.14 -0.679,-0.91 -3.71001,0.23 -3.03,1.14 v 0 0"
             style="fill:#172038;fill-opacity:1;fill-rule:evenodd;stroke:none;stroke-width:0.1"
             id="path354" />
          <path
             d="m 286.25578,397.42394 c 0.2,-0.665 1.031,-1.04 1.774,-1.194 1.329,-0.275 1.031,3.142 0.06,4.02 -0.73401,-0.635 -1.55,-1.732 -1.83401,-2.826 v 0 0"
             style="fill:#fc6b58;fill-opacity:1;fill-rule:evenodd;stroke:none;stroke-width:0.1"
             id="path356" />
          <path
             d="m 283.87777,400.37294 c -0.074,-0.382 -0.135,-0.762 -0.18699,-1.146 0.128,-0.184 0.32,-0.343 0.563,-0.438 0.554,-0.22 1.15,-0.03 1.33,0.427 0.18,0.454 -0.123,1.002 -0.67801,1.22 -0.36999,0.146 -0.757,0.11 -1.028,-0.063 v 0 0"
             style="fill:#fc6b58;fill-opacity:1;fill-rule:evenodd;stroke:none;stroke-width:0.1"
             id="path358" />
          <path
             d="m 292.31078,397.66194 c -0.61201,0.241 -1.269,0.032 -1.468,-0.47 -0.199,-0.504 0.136,-1.106 0.74799,-1.35 0.61301,-0.242 1.27,-0.03 1.46901,0.472 0.199,0.502 -0.136,1.106 -0.749,1.348 v 0 0"
             style="fill:#fc6b58;fill-opacity:1;fill-rule:evenodd;stroke:none;stroke-width:0.1"
             id="path360" />
          <path
             d="m 285.22777,396.25494 c -0.044,-0.637 0.037,-2.352 0.516,-2.932 1.879,-0.922 3.845,0.404 4.897,1.497 -2.712,-0.186 -4.635,0.448 -5.413,1.435 v 0 0"
             style="fill:#fefefe;fill-opacity:1;fill-rule:evenodd;stroke:none;stroke-width:0.1"
             id="path362" />
          <path
             d="m 294.08478,399.09194 c 0.195,0.07 0.40999,-0.031 0.479,-0.226 0.069,-0.193 -0.032,-0.407 -0.226,-0.477 l -0.028,-0.01 c -0.553,-0.195 -1.363,-0.272 -2.106,-0.099 -0.783,0.183 -1.501,0.636 -1.81799,1.506 l -10e-4,0.002 -0.001,-10e-4 -0.008,0.022 c -0.069,0.195 0.033,0.41 0.228,0.479 0.194,0.07 0.40901,-0.032 0.479,-0.227 l 0.007,-0.022 h -10e-4 c 0.215,-0.587 0.725,-0.898 1.285,-1.029 0.60101,-0.141 1.251,-0.08 1.69,0.075 l 0.021,0.007 v 0"
             style="fill:#172038;fill-opacity:1;fill-rule:nonzero;stroke:none;stroke-width:0.1"
             id="path364" />
          <path
             d="m 287.33278,401.28894 c 0.196,0.068 0.409,-0.037 0.476,-0.232 0.066,-0.196 -0.037,-0.409 -0.233,-0.477 -0.282,-0.096 -0.596,-0.139 -0.911,-0.134 -0.438,0.008 -0.882,0.109 -1.245,0.289 -0.399,0.197 -0.712,0.492 -0.842,0.869 -0.043,0.126 -0.066,0.261 -0.063,0.406 0.003,0.206 0.173,0.371 0.38,0.367 0.206,-0.003 0.37,-0.173 0.367,-0.379 -10e-4,-0.051 0.008,-0.101 0.025,-0.15 0.061,-0.177 0.235,-0.329 0.464,-0.442 0.267,-0.132 0.597,-0.207 0.925,-0.212 0.229,-0.004 0.455,0.026 0.657,0.095 v 0"
             style="fill:#172038;fill-opacity:1;fill-rule:nonzero;stroke:none;stroke-width:0.1"
             id="path366" />
          <path
             d="m 300.34678,398.02194 c -0.612,0.131 -1.23401,-0.363 -1.389,-1.101 -0.032,-0.15 -0.041,-0.298 -0.033,-0.439 0.1,0.027 0.2,0.032 0.298,0.012 0.396,-0.082 0.64699,-0.562 0.652,-1.156 0.581,-0.064 1.148,0.416 1.296,1.117 0.157,0.735 -0.213,1.439 -0.824,1.567 v 0 0"
             style="fill:#f28c61;fill-opacity:1;fill-rule:evenodd;stroke:none;stroke-width:0.1"
             id="path368" />
          <path
             d="m 299.37078,396.23194 c -0.029,-0.204 -0.218,-0.347 -0.422,-0.319 -0.205,0.028 -0.348,0.217 -0.321,0.422 0.086,0.608 0.339,1.138 0.675,1.473 0.143,0.142 0.302,0.252 0.472,0.321 0.184,0.074 0.377,0.102 0.576,0.074 0.257,-0.036 0.512,-0.162 0.747,-0.4 0.146,-0.146 0.146,-0.383 -10e-4,-0.528 -0.146,-0.146 -0.384,-0.145 -0.529,10e-4 -0.112,0.113 -0.22,0.172 -0.319,0.186 -0.064,0.009 -0.12801,-0.001 -0.193,-0.027 -0.077,-0.032 -0.154,-0.085 -0.225,-0.157 -0.226,-0.225 -0.399,-0.6 -0.46,-1.046 v 0"
             style="fill:#f28c61;fill-opacity:1;fill-rule:nonzero;stroke:none;stroke-width:0.1"
             id="path370" />
          <path
             d="m 233.79377,360.29194 c -2.113,0.61 -3.77199,0.666 -6.096,0.64 -1.615,-0.296 -6.52199,-1.841 -6.29499,-4.633 1.74799,-1.227 12.40599,-0.011 13.221,-0.183 l -0.83001,4.176 v 0"
             style="fill:#ffb291;fill-opacity:1;fill-rule:evenodd;stroke:none;stroke-width:0.1"
             id="path372" />
          <path
             d="m 237.21377,362.30694 c -0.58899,-0.17 -1.17699,-0.343 -1.76099,-0.516 -1.37301,0.467 -3.33201,0.684 -5.223,0.468 -2.90501,-1.068 -5.997,-4.274 -6.43201,-7.24 2.127,-1.033 4.982,2.393 6.651,2.536 1.029,-0.094 0.995,-0.637 0.719,-0.991 -0.52199,-0.67 -3.711,-0.012 -4.13699,-1.755 1.619,0.092 4.026,-0.168 4.381,-0.071 1.70799,0.201 3.241,1.047 4.88,2.806 l 0.92199,4.763 v 0"
             style="fill:#fa9d76;fill-opacity:1;fill-rule:evenodd;stroke:none;stroke-width:0.1"
             id="path374" />
          <path
             d="m 257.08478,366.78394 c -4.968,-0.344 -13.889,-2.329 -21.325,-4.531 -0.094,-1.351 0.81999,-4.059 1.615,-4.616 6.059,0.586 10.779,-1.9 16.058,-1.387 2.048,0.199 4.50399,2.381 6.674,3.084 -0.298,9.126 0.99899,4.741 -3.022,7.45 v 0"
             style="fill:#d86468;fill-opacity:1;fill-rule:evenodd;stroke:none;stroke-width:0.1"
             id="path376" />
          <path
             d="m 174.69877,350.23394 c -2.33599,0.496 -5.05199,1.877 -8.567,1.505 -5.538,2.397 -5.38,7.763 -2.94,11.106 2.787,-2.838 6.249,-2.921 9.195,-3.459 1.816,-3.487 3.432,-6.782 2.312,-9.152 v 0"
             style="fill:#fa9d76;fill-opacity:1;fill-rule:evenodd;stroke:none;stroke-width:0.1"
             id="path378" />
          <path
             d="m 264.16677,351.24094 c -1.142,1.372 -2.72,4.703 -5.325,5.712 -28.61199,5.306 -43.246,-1.77 -89.294,3.821 -0.659,-3.276 -0.552,-8.153 0.34,-10.696 26.433,-6.964 60.99901,-4.769 84.047,-10.755 2.367,-0.345 16.024,-9.087 18.447,-8.363 4.79,1.431 -2.867,13.97 -8.215,20.281 v 0 0"
             style="fill:#774e90;fill-opacity:1;fill-rule:evenodd;stroke:none;stroke-width:0.1"
             id="path380" />
          <path
             d="m 166.13177,351.73894 c -1.048,-1.376 -3.62899,-0.874 -7.00999,-0.475 -2.81001,2.879 -7.26601,16.558 -4.83401,22.015 7.28701,1.214 3.09001,-7.265 11.905,-10.754 1.011,-0.79 -0.69999,-4.011 -3.25499,-3.58 -0.106,-3.135 0.67699,-5.33 3.194,-7.206 v 0"
             style="fill:#774e90;fill-opacity:1;fill-rule:evenodd;stroke:none;stroke-width:0.1"
             id="path382" />
          <path
             d="m 177.24078,337.20094 c -2.336,0.496 -5.053,1.876 -8.56701,1.504 -5.538,2.397 -6.398,7.357 -3.958,10.699 2.70101,-1.723 7.58801,-2.424 11.404,-2.809 1.81501,-3.487 2.24101,-7.024 1.12101,-9.394 v 0"
             style="fill:#fa9d76;fill-opacity:1;fill-rule:evenodd;stroke:none;stroke-width:0.1"
             id="path384" />
          <path
             d="m 272.38578,330.96594 c -1.243,-1.876 -2.85301,-3.358 -4.54401,-4.232 -3.257,-1.683 -9.61899,-2.312 -16.513,-1.006 -56.042,10.617 -54.333,3.096 -79.638,10.582 -1.192,2.999 -1.105,8.144 0.529,11.24 28.575,-2.536 48.237,2.902 76.038,-0.826 0.155,1.533 1.901,4.385 3.706,5.552 0.582,-2.183 7.035,-18.448 20.422,-21.31 v 0"
             style="fill:#774e90;fill-opacity:0.919118;fill-rule:evenodd;stroke:none;stroke-width:0.1"
             id="path386" />
          <path
             d="m 168.67377,338.70494 c -1.89,-2.078 -5.58699,-1.88 -7.065,-1.863 -1.089,1.078 -2.12399,2.977 -3.36199,5.081 l 0.43099,0.376 c -0.749,1.313 -2.53099,2.843 -3.18499,3.823 -2.39701,4.899 -3.16401,10.5 -1.052,12.91 6.18599,0.815 4.314,-7.304 13.32799,-10.242 1.05701,-0.725 0.34501,-4.328 -2.23199,-4.057 -0.057,-1.917 0.508,-4.31 3.13699,-6.028 v 0"
             style="fill:#774e90;fill-opacity:0.919118;fill-rule:evenodd;stroke:none;stroke-width:0.1"
             id="path388" />
          <path
             d="m 290.78577,349.90294 c -0.011,-4.333 1.181,-8.02 3.043,-8.887 2.066,-0.696 8.494,17.431 10.358,18.435 0.59601,3.139 1.113,9.441 0.68001,12.863 -1.34801,3.715 -4.77601,7.735 -8.21501,10.557 -8.453,-4.907 -17.337,-0.503 -11.807,6.474 -3.297,0.933 -4.983,1.292 -7.225,1.477 -10.683,-1.399 -11.499,-16.77 -21.39699,-24.374 l -1.395,-6.405 c -0.73201,-0.908 -1.24201,-1.668 -1.47001,-2.196 -0.851,-6.566 9.221,-25.556 19.543,-26.973 5.599,4.658 14.695,12.523 17.885,19.029 v 0"
             style="fill:#d86468;fill-opacity:1;fill-rule:evenodd;stroke:none;stroke-width:0.1"
             id="path392" />
          <path
             d="m 297.86277,381.82594 c -0.402,0.364 -0.807,0.712 -1.211,1.045 -8.453,-4.907 -17.337,-0.503 -11.807,6.474 -0.666,0.189 -1.265,0.354 -1.818,0.498 -7.158,-7.89 5.093,-16.045 14.836,-8.017 v 0"
             style="fill:#de524c;fill-opacity:0.695521;fill-rule:evenodd;stroke:none;stroke-width:0.1"
             id="path394" />
          <path
             d="m 309.52678,364.24694 c -3.258,-3.372 -10.795,-8.048 -12.827,-11.163 -2.778,-3.002 -2.579,-9.312 -2.871,-12.068 10.761,-1.916 18.598,12.6 22.084,18.57 -0.947,1.434 -4.665,4.048 -6.386,4.661 v 0"
             style="fill:#d86468;fill-opacity:1;fill-rule:evenodd;stroke:none;stroke-width:0.1"
             id="path396" />
          <path
             d="m 290.41877,362.00994 c -0.043,0.203 0.085,0.402 0.288,0.445 0.202,0.044 0.40101,-0.084 0.445,-0.287 0.37101,-1.711 0.254,-3.903 0.123,-6.362 -0.227,-4.255 -0.49699,-9.327 1.69801,-13.864 0.09,-0.186 0.012,-0.41 -0.174,-0.499 -0.18601,-0.091 -0.41001,-0.012 -0.5,0.174 -2.278,4.709 -2.00301,9.884 -1.771,14.227 0.128,2.404 0.242,4.548 -0.10901,6.166 v 0"
             style="fill:#de524c;fill-opacity:0.695521;fill-rule:nonzero;stroke:none;stroke-width:0.1"
             id="path398" />
          <path
             d="m 270.21077,381.96194 c 0.068,0.196 0.28101,0.3 0.477,0.233 0.195,-0.067 0.3,-0.28 0.23201,-0.476 -1.399,-4.059 -5.34601,-9.116 -8.106,-12.65 l -0.122,-0.156 c -0.152,-0.196 -0.582,-0.635 -1.184,-1.25 -2.25301,-2.303 -6.98601,-7.141 -7.791,-9.92 -0.057,-0.198 -0.264,-0.312 -0.463,-0.254 -0.198,0.057 -0.312,0.264 -0.254,0.462 0.857,2.96 5.679,7.889 7.975,10.237 0.586,0.599 1.004,1.026 1.128,1.185 l 0.122,0.156 c 2.726,3.491 6.626,8.487 7.986,12.433 v 0"
             style="fill:#de524c;fill-opacity:0.695521;fill-rule:nonzero;stroke:none;stroke-width:0.1"
             id="path400" />
          <path
             d="m 280.62278,377.03194 c -0.061,-0.198 -0.271,-0.309 -0.468,-0.248 -0.197,0.061 -0.308,0.27 -0.247,0.467 l 0.11,0.357 c 0.603,1.947 1.481,4.781 2.104,6.298 0.078,0.191 0.296,0.282 0.487,0.203 0.19099,-0.078 0.282,-0.296 0.204,-0.487 -0.60901,-1.483 -1.481,-4.299 -2.08001,-6.233 l -0.10999,-0.357 v 0"
             style="fill:#de524c;fill-opacity:0.695521;fill-rule:nonzero;stroke:none;stroke-width:0.1"
             id="path402" />
          <path
             d="m 279.05178,377.60794 c -0.199,-0.056 -0.406,0.06 -0.462,0.26 -0.055,0.198 0.061,0.405 0.26,0.461 l 0.356,0.101 c 1.95999,0.555 4.81599,1.365 6.428,1.67 0.203,0.038 0.399,-0.096 0.437,-0.299 0.038,-0.203 -0.096,-0.398 -0.299,-0.436 -1.575,-0.298 -4.416,-1.104 -6.364,-1.656 l -0.356,-0.101 v 0"
             style="fill:#de524c;fill-opacity:0.695521;fill-rule:nonzero;stroke:none;stroke-width:0.1"
             id="path404" />
          <path
             d="m 270.74178,338.74094 c 0.15999,-0.13 0.18599,-0.365 0.056,-0.526 -0.13,-0.161 -0.365,-0.187 -0.526,-0.057 -3.468,2.799 -6.671,5.845 -9.322,9.088 l -0.017,0.022 c -2.373,2.908 -4.305,5.975 -5.59,9.171 -0.077,0.192 0.017,0.409 0.208,0.487 0.192,0.076 0.409,-0.017 0.487,-0.208 1.254,-3.122 3.148,-6.126 5.475,-8.978 l 0.017,-0.019 c 2.619,-3.205 5.785,-6.214 9.212,-8.98 v 0"
             style="fill:#de524c;fill-opacity:0.695521;fill-rule:nonzero;stroke:none;stroke-width:0.1"
             id="path406" />
          <path
             d="m 307.11678,362.38794 c 0.151,0.14 0.38799,0.131 0.529,-0.02 0.14099,-0.151 0.132,-0.388 -0.02,-0.529 -1.97501,-1.833 -3.807,-3.147 -5.43901,-4.318 -2.26699,-1.626 -4.14299,-2.971 -5.42099,-5.018 -0.109,-0.176 -0.341,-0.229 -0.516,-0.12 -0.175,0.109 -0.229,0.34 -0.12,0.515 1.359,2.176 3.288,3.56 5.62,5.233 1.619,1.16 3.433,2.462 5.367,4.257 v 0"
             style="fill:#d84650;fill-opacity:1;fill-rule:nonzero;stroke:none;stroke-width:0.1"
             id="path408" />
        </g>
      </g>
    </g>
  </g>
</svg>
