<svg width="26" height="24" viewBox="0 0 26 24" fill="none" xmlns="http://www.w3.org/2000/svg">
<g id="in in-galery-Small">
<g id="Group 7">
<g id="Group 5">
<g id="Group 1">
<path id="path3578" d="M14.2051 3.81821L15.0171 1.75688C15.1695 1.37008 15.5451 1.1179 15.9608 1.11779C16.8378 1.11758 18.0161 1.10485 18.9679 1.09643C19.3885 1.0927 19.7654 1.35353 19.9115 1.74794L20.687 3.84152" stroke="#1A252D" stroke-opacity="0.780392" stroke-width="0.9"/>
<path id="path3523" d="M18.8202 22.8387H8.32663C6.31251 22.8387 5.30545 22.8387 4.52057 22.4843C3.63283 22.0835 2.92184 21.3725 2.52101 20.4848C2.16663 19.6999 2.16663 18.6929 2.16663 16.6787V10.1366C2.16663 8.12244 2.16663 7.11538 2.52101 6.33051C2.92184 5.44276 3.63283 4.73178 4.52057 4.33095C5.30545 3.97656 6.31251 3.97656 8.32662 3.97656H13.1217H17.9167C19.9309 3.97656 20.9379 3.97656 21.7228 4.33095C22.6105 4.73178 23.3215 5.44276 23.7224 6.33051C24.0767 7.11538 24.0767 8.12244 24.0767 10.1366V17.5268C24.0767 18.7356 24.0767 19.34 23.9465 19.8379C23.5842 21.2222 22.5102 22.3076 21.1298 22.6843C20.6333 22.8198 20.0289 22.8261 18.8202 22.8387V22.8387Z" stroke="#1A262D" stroke-opacity="0.780392" stroke-width="0.9" stroke-miterlimit="9.3" stroke-linecap="round" stroke-linejoin="bevel"/>
<path id="path3526" d="M7.42505 4.25818L7.42505 20.8724L7.42505 22.5573" stroke="#1A262D" stroke-opacity="0.780392" stroke-width="0.9"/>
<path id="path3570" d="M15.5464 16.9526C15.3113 17.2392 14.8751 17.2461 14.631 16.9672L12.5979 14.6443C11.9214 13.62 11.8121 12.6439 12.3052 11.7096C12.3261 11.6701 12.3525 11.633 12.3832 11.6006C13.0981 10.8466 14.0373 10.847 14.7509 11.3547C15.1242 11.6202 15.719 11.6145 16.0793 11.3315C16.7129 10.8338 17.4179 10.9519 18.1248 11.5897C18.1494 11.6119 18.1726 11.6372 18.1922 11.6639C18.9601 12.7093 18.1039 13.6288 17.5278 14.5371L15.5464 16.9526Z" stroke="#1A262D" stroke-opacity="0.780392" stroke-width="0.9" stroke-miterlimit="8.7" stroke-linecap="round" stroke-linejoin="bevel"/>
<path id="path3587" d="M6.25647 3.6951V3.28748C6.25647 2.73519 6.70418 2.28748 7.25647 2.28748H9.63849C10.1908 2.28748 10.6385 2.73519 10.6385 3.28748V3.6951" stroke="#1A252D" stroke-opacity="0.780392" stroke-width="0.9"/>
</g>
</g>
<circle id="Ellipse 3" cx="15.1124" cy="14" r="5.55" stroke="#1A262D" stroke-opacity="0.7804" stroke-width="0.9"/>
</g>
</g>
</svg>
