<svg width="17" height="14" viewBox="0 0 17 14" fill="none" xmlns="http://www.w3.org/2000/svg">
<g id="in in-maps">
<path id="path3570" d="M8.96832 6.9728C8.73302 7.26647 8.28858 7.27355 8.04404 6.98752L6.85788 5.6001C6.4138 4.91169 6.33837 4.2554 6.65424 3.62698C6.67414 3.58739 6.69979 3.55032 6.73058 3.51846C7.11291 3.1229 7.55232 3.17252 7.9377 3.44226C8.3175 3.7081 8.91726 3.70865 9.30223 3.45036C9.69352 3.18784 10.1215 3.17221 10.5101 3.51592C10.5348 3.53777 10.5574 3.56316 10.5763 3.59018C11.0692 4.29433 10.5061 4.91459 10.1266 5.52731L8.96832 6.9728Z" stroke="white" stroke-width="0.9" stroke-miterlimit="8.7" stroke-linecap="round" stroke-linejoin="bevel"/>
<g id="Group 1562">
<path id="Ellipse 16" d="M15.7038 11.3077C15.7038 11.4825 15.598 11.7206 15.2406 12.0023C14.8882 12.2799 14.3505 12.5497 13.6459 12.7846C12.2413 13.2527 10.2724 13.55 8.07692 13.55C5.88145 13.55 3.9125 13.2527 2.50798 12.7846C1.80337 12.5497 1.26562 12.2799 0.913263 12.0023C0.555836 11.7206 0.45 11.4825 0.45 11.3077C0.45 11.133 0.555836 10.8949 0.913263 10.6132C1.26562 10.3355 1.80337 10.0658 2.50798 9.83088C3.9125 9.36271 5.88145 9.06542 8.07692 9.06542C10.2724 9.06542 12.2413 9.36271 13.6459 9.83088C14.3505 10.0658 14.8882 10.3355 15.2406 10.6132C15.598 10.8949 15.7038 11.133 15.7038 11.3077Z" stroke="white" stroke-width="0.9"/>
<path id="Vector" d="M8.61538 0.45C10.5404 0.45 11.4932 1.01931 11.995 1.73149C12.5214 2.47859 12.6353 3.49141 12.6353 4.55621C12.6353 5.01364 12.4882 5.55055 12.2209 6.13907C11.9554 6.72353 11.5837 7.33219 11.1642 7.92562C10.3249 9.11273 9.32011 10.2029 8.66986 10.8668C8.47681 11.0639 8.17432 11.0602 7.98614 10.8583C7.3634 10.1904 6.40942 9.10236 5.61393 7.91946C4.80332 6.71406 4.21923 5.49869 4.21923 4.55621C4.21923 3.52594 4.41634 2.51002 5.02903 1.75609C5.62699 1.02027 6.691 0.45 8.61538 0.45Z" stroke="white" stroke-width="0.9"/>
</g>
</g>
</svg>
