<svg width="19" height="24" viewBox="0 0 19 24" fill="none" xmlns="http://www.w3.org/2000/svg">
<g id="in in-cover-small">
<g id="Group 2">
<rect id="Rectangle 1" x="1.45" y="1.45" width="16.1" height="21.1" rx="3.55" stroke="#1A262D" stroke-opacity="0.784" stroke-width="0.9"/>
<path id="path3570" d="M9.71157 17.5094C9.47617 17.8098 9.02388 17.8169 8.77908 17.5242L6.86629 15.237C6.21982 14.2125 6.11547 13.2363 6.58686 12.3019C6.60666 12.2627 6.63194 12.2256 6.66146 12.193C7.32624 11.4593 8.19411 11.4403 8.86858 11.9079C9.25373 12.1749 9.87122 12.1668 10.2444 11.8833C10.8361 11.4337 11.4904 11.5626 12.1465 12.1817C12.1704 12.2043 12.1929 12.23 12.2118 12.257C12.945 13.3022 12.1271 14.2216 11.5767 15.1297L9.71157 17.5094Z" stroke="#1A262D" stroke-opacity="0.780392" stroke-width="0.9" stroke-miterlimit="8.7" stroke-linecap="round" stroke-linejoin="bevel"/>
<path id="Vector 1" d="M7.40993 1.81482L7.40992 5.87938C7.40992 6.48912 8.21387 6.71015 8.52559 6.18611L8.70954 5.87685C9.02126 5.35281 9.82521 5.57385 9.82521 6.18359V7.46173C9.82521 7.7931 10.0938 8.06173 10.4252 8.06173H11.2689C11.6003 8.06173 11.8689 7.7931 11.8689 7.46173V1.81482" stroke="#1A262D" stroke-opacity="0.784" stroke-width="0.9"/>
</g>
</g>
</svg>
