<?xml version="1.0" encoding="UTF-8" standalone="no"?>
<!-- Svg Vector Icons : http://www.onlinewebfonts.com/icon -->

<svg
   version="1.1"
   x="0px"
   y="0px"
   viewBox="0 0 988.44135 988.34052"
   enable-background="new 0 0 1000 1000"
   xml:space="preserve"
   id="svg20"
   sodipodi:docname="40423e747567bfc23dd6cd60fc75bc6c.svg"
   inkscape:version="1.2.2 (1:1.2.2+202212051552+b0a8486541)"
   width="988.44135"
   height="988.34052"
   xmlns:inkscape="http://www.inkscape.org/namespaces/inkscape"
   xmlns:sodipodi="http://sodipodi.sourceforge.net/DTD/sodipodi-0.dtd"
   xmlns="http://www.w3.org/2000/svg"
   xmlns:svg="http://www.w3.org/2000/svg"><defs
   id="defs24" /><sodipodi:namedview
   id="namedview22"
   pagecolor="#ffffff"
   bordercolor="#000000"
   borderopacity="0.25"
   inkscape:showpageshadow="2"
   inkscape:pageopacity="0.0"
   inkscape:pagecheckerboard="0"
   inkscape:deskcolor="#d1d1d1"
   showgrid="false"
   inkscape:zoom="0.19657569"
   inkscape:cx="-48.327442"
   inkscape:cy="653.69224"
   inkscape:window-width="1366"
   inkscape:window-height="699"
   inkscape:window-x="0"
   inkscape:window-y="800"
   inkscape:window-maximized="1"
   inkscape:current-layer="g18" />
<metadata
   id="metadata2"> Svg Vector Icons : http://www.onlinewebfonts.com/icon </metadata>
<g
   id="g18"
   transform="translate(-9.9999997,-9.9999997)"><g
     id="g6"
     style="fill:#e93055;fill-opacity:1"
     transform="matrix(1.0085107,0,0,1.0085107,-0.08510728,-0.08510728)"
     inkscape:export-filename="g6.svg"
     inkscape:export-xdpi="96"
     inkscape:export-ydpi="96"><path
       d="m 859.3,91.7 c 28.6,0 49,20.4 49,49 v 718.7 c 0,28.6 -20.4,49 -49,49 H 140.7 c -28.6,0 -49,-20.4 -49,-49 V 140.7 c 0,-28.6 20.4,-49 49,-49 h 718.6 m 0,-81.7 H 140.7 C 67.2,10 10,67.2 10,140.7 V 859.4 C 10,932.8 67.2,990 140.7,990 h 718.7 c 73.5,0 130.7,-57.2 130.7,-130.7 V 140.7 C 990,67.2 932.8,10 859.3,10 Z"
       id="path4"
       style="fill:#e93055;fill-opacity:1" /></g><path
     d="m 722.41198,298.23237 h 139.98129 c 8.26979,0 12.30383,-4.1349 12.30383,-12.30383 V 145.8464 c 0,-8.26979 -4.1349,-12.30384 -12.30383,-12.30384 H 722.41198 c -8.26979,0 -12.30383,4.1349 -12.30383,12.30384 v 139.98128 c 0,8.26979 4.03404,12.40469 12.30383,12.40469 z"
     id="path8"
     style="fill:#ffffff;fill-opacity:1;stroke-width:1.00851" /><path
     d="m 705.97325,339.48045 c 53.55192,53.55192 86.42937,123.54257 86.42937,205.9379 0,160.65575 -127.67746,288.23236 -288.23236,288.23236 -160.55491,0 -288.23237,-127.67746 -288.23237,-288.23236 0,-82.39533 32.9783,-152.38598 86.53022,-205.9379 H 51.147238 V 957.19328 H 957.09242 V 339.48045 Z"
     id="path10"
     style="fill:#e93055;fill-opacity:1;stroke-width:1.00851" /><g
     id="g14"
     style="fill:#e93055;fill-opacity:1"
     transform="matrix(1.0085107,0,0,1.0085107,-0.08510728,-0.08510728)"><path
       d="m 500,336.7 c 114.3,0 204.2,89.8 204.2,204.2 C 704.2,655.2 614.3,745 500,745 385.7,745 295.8,655.2 295.8,540.8 295.8,426.5 385.7,336.7 500,336.7 M 500,255 C 340.8,255 214.2,381.6 214.2,540.8 214.2,700.1 340.8,826.6 500,826.6 659.3,826.6 785.8,700 785.8,540.8 785.8,381.6 659.3,255 500,255 Z"
       id="path12"
       style="fill:#e93055;fill-opacity:1" /></g><path
     d="m 504.17026,421.77493 c -12.30383,0 -24.70852,4.13489 -37.01235,4.13489 20.57362,8.26979 37.01235,32.97831 37.01235,57.68682 0,32.9783 -28.84341,61.82171 -61.82171,61.82171 -24.70851,0 -45.28213,-16.43873 -57.68681,-37.01235 0,12.30383 -4.1349,24.70851 -4.1349,37.01235 0,69.99064 53.55192,123.54256 123.54257,123.54256 69.99064,0 123.54256,-53.55192 123.54256,-123.54256 0.10085,-70.0915 -53.45107,-123.64342 -123.44171,-123.64342 z"
     id="path16"
     style="fill:#ffffff;fill-opacity:1;stroke-width:1.00851" /></g>
</svg>
