<?xml version="1.0" encoding="UTF-8" standalone="no"?>
<svg
   width="20"
   height="24"
   viewBox="0 0 20 24"
   fill="none"
   version="1.1"
   id="svg6"
   xmlns="http://www.w3.org/2000/svg"
   xmlns:svg="http://www.w3.org/2000/svg"
   xmlns:rdf="http://www.w3.org/1999/02/22-rdf-syntax-ns#"
   xmlns:cc="http://creativecommons.org/ns#"
   xmlns:dc="http://purl.org/dc/elements/1.1/">
  <metadata
     id="metadata12">
    <rdf:RDF>
      <cc:Work
         rdf:about="">
        <dc:format>image/svg+xml</dc:format>
        <dc:type
           rdf:resource="http://purl.org/dc/dcmitype/StillImage" />
      </cc:Work>
    </rdf:RDF>
  </metadata>
  <defs
     id="defs10" />
  <g
     id="g824"
     style="fill:#e8e8cf;fill-opacity:1">
    <path
       id="path2"
       fill="#CD6584"
       d="M 13.4748,8.67108 C 12.5713,8.06102 11.261,8.3517 10.6273,8.93917 10.1568,8.44025 9.19738,7.9053 7.94758,8.30224 6.32307,8.81764 5.89855,10.7126 7.98589,11.8942 c 0.66667,0.3768 1.47433,0.6101 1.94482,0.7053 0.28579,0.0586 0.53409,0.1002 0.53409,0.1002 0,0 0.0169,-0.0574 0.1119,-0.066 0.0958,-0.0085 0.0804,-0.0965 0.2031,-0.1142 0.1226,-0.0177 0.1417,-0.08 0.1417,-0.08 0,0 -1.38159,-0.1783 -2.48273,-0.8714 C 7.1085,10.7303 7.36061,9.78494 7.9062,9.27687 8.5108,8.71444 9.39968,8.68269 10.0066,8.96298 10.5698,9.22374 10.864,9.59625 10.8181,9.95227 10.7744,10.2894 10.5445,10.1672 10.4755,10.006 10.3782,9.77884 10.507,9.60297 10.5468,9.52236 10.4709,9.43808 10.3989,9.36603 10.3085,9.31168 c -0.082,0.12518 -0.1816,0.298 -0.1356,0.52029 0.072,0.34683 0.5854,0.57093 0.7387,0.23633 0.075,-0.16489 0.1226,-0.49343 -0.0529,-0.82074 0.2965,-0.22534 0.6827,-0.42259 1.3333,-0.31939 0.6115,0.09649 1.1042,0.65037 0.8399,1.29093 -0.3318,0.8037 -1.3717,0.7951 -1.3717,0.7951 0,0 0.0054,0.1973 -0.1057,0.2938 -0.1824,0.1581 -0.0322,0.2625 -0.1157,0.3456 -0.0828,0.083 -0.0215,0.3133 -0.0215,0.3133 0,0 0.869,-0.1081 1.6935,-0.5869 0.9571,-0.5551 1.4253,-1.99199 0.364,-2.70892 z"
       style="fill:#e8e8cf;fill-opacity:1" />
    <path
       fill="#CD6584"
       id="path4"
       d="M 9.99873,0 C 4.48359,0 0,4.33514 0,9.66221 0,10.5905 0.139399,11.5138 0.402991,12.376 1.75897,17.6761 9.18768,23.3583 9.50196,23.5959 L 10.0393,24 10.5766,23.5934 c 0.3574,-0.2718 8.767,-6.7011 9.2941,-12.2927 l 0.0127,-0.1861 C 19.962,10.6272 20,10.1398 20,9.65976 19.9975,4.33514 15.5113,0 9.99873,0 Z m 8.12317,11.073 -0.1267,0.8156 0.0177,0.0024 C 17.065,15.8661 11.7602,20.4437 10.0418,21.8422 8.33608,20.456 3.10987,15.9396 2.08339,11.9326 1.85781,11.1905 1.74122,10.4264 1.74122,9.66221 c 0,-4.40126 3.70296,-7.97959 8.25751,-7.97959 4.55207,0 8.25747,3.57832 8.25497,7.97714 0,0.46784 -0.0431,0.94054 -0.1318,1.41324 z"
       style="fill:#e8e8cf;fill-opacity:1" />
  </g>
</svg>
