<?xml version="1.0" encoding="UTF-8" standalone="no"?>
<!-- Created with Inkscape (http://www.inkscape.org/) -->

<svg
   width="9.5853729mm"
   height="23.532253mm"
   viewBox="0 0 9.5853729 23.532253"
   version="1.1"
   id="svg5"
   sodipodi:docname="sampul.svg"
   xml:space="preserve"
   inkscape:version="1.2.2 (1:1.2.2+202212051552+b0a8486541)"
   xmlns:inkscape="http://www.inkscape.org/namespaces/inkscape"
   xmlns:sodipodi="http://sodipodi.sourceforge.net/DTD/sodipodi-0.dtd"
   xmlns="http://www.w3.org/2000/svg"
   xmlns:svg="http://www.w3.org/2000/svg"><sodipodi:namedview
     id="namedview7"
     pagecolor="#ffffff"
     bordercolor="#000000"
     borderopacity="0.25"
     inkscape:showpageshadow="2"
     inkscape:pageopacity="0.0"
     inkscape:pagecheckerboard="0"
     inkscape:deskcolor="#d1d1d1"
     inkscape:document-units="mm"
     showgrid="false"
     inkscape:zoom="8"
     inkscape:cx="218.9375"
     inkscape:cy="376.1875"
     inkscape:window-width="1366"
     inkscape:window-height="699"
     inkscape:window-x="0"
     inkscape:window-y="800"
     inkscape:window-maximized="1"
     inkscape:current-layer="g15992" /><defs
     id="defs2" /><g
     inkscape:label="Layer 1"
     inkscape:groupmode="layer"
     id="layer1"
     transform="translate(-159.51559,-74.807201)"><g
       id="g8654"
       transform="translate(178.07851,-82.041756)"
       inkscape:export-filename="ils_sambutanpin.svg"
       inkscape:export-xdpi="96"
       inkscape:export-ydpi="96"><path
         d="m -13.770238,179.85787 v -0.52333 c -1.029399,0 -1.963551,-0.42024 -2.644931,-1.10057 -0.680858,-0.68139 -1.101096,-1.61554 -1.101096,-2.64545 v -13.94634 c 0,-1.02992 0.420238,-1.96407 1.101096,-2.64546 0.68138,-0.68085 1.615009,-1.10109 2.644931,-1.10109 1.029921,5.2e-4 1.964073,0.42024 2.645455,1.10109 0.680334,0.68139 1.100571,1.61554 1.100571,2.64546 v 13.94634 c 0,1.02991 -0.420237,1.96406 -1.100571,2.64545 -0.681382,0.68033 -1.615534,1.10057 -2.645455,1.10057 v 0.52333 0.52334 c 2.639697,-0.001 4.7906007,-2.153 4.7926947,-4.79269 v -13.94634 c -0.0021,-2.6397 -2.1529977,-4.79113 -4.7926947,-4.79322 -2.639176,0.001 -4.790602,2.15352 -4.792695,4.79322 v 13.94634 c 0.0021,2.63969 2.153519,4.7906 4.792695,4.79269 v -0.52334"
         style="fill:#d5cfa3;fill-opacity:0.992157;fill-rule:nonzero;stroke:none;stroke-width:0.0523335"
         id="path178" /><path
         d="m -13.770238,173.25811 v -0.52334 c -0.563108,-5.2e-4 -1.07336,-0.22974 -1.447544,-0.60288 -0.373136,-0.37419 -0.602881,-0.88443 -0.602881,-1.44754 v -8.40737 c 0,-0.56363 0.229745,-1.07388 0.602881,-1.44754 0.374184,-0.37367 0.884436,-0.60288 1.447544,-0.60288 0.56363,0 1.073882,0.22975 1.447542,0.60288 0.373138,0.37366 0.602881,0.88391 0.602881,1.44754 v 8.40737 c 0,0.56363 -0.229743,1.07335 -0.602881,1.44754 -0.37366,0.37314 -0.883912,0.60236 -1.447542,0.60288 v 0.52334 0.52334 c 1.707116,-0.001 3.094999,-1.3905 3.097092,-3.0971 v -8.40737 c -0.0021,-1.70711 -1.389976,-3.095 -3.097092,-3.09709 -1.706594,0.001 -3.094999,1.38998 -3.097092,3.09709 v 8.40737 c 0.0021,1.70712 1.390498,3.09499 3.097092,3.0971 v -0.52334"
         style="fill:#d5cfa3;fill-opacity:0.992157;fill-rule:nonzero;stroke:none;stroke-width:0.0523335"
         id="path202" /></g></g></svg>
