<?xml version="1.0" encoding="UTF-8" standalone="no"?>
<svg
   width="150"
   height="30"
   viewBox="0 0 150 30"
   fill="none"
   version="1.1"
   id="svg4"
   sodipodi:docname="sambutan_bismillah.svg"
   xmlns:inkscape="http://www.inkscape.org/namespaces/inkscape"
   xmlns:sodipodi="http://sodipodi.sourceforge.net/DTD/sodipodi-0.dtd"
   xmlns="http://www.w3.org/2000/svg"
   xmlns:svg="http://www.w3.org/2000/svg">
  <defs
     id="defs8" />
  <sodipodi:namedview
     id="namedview6"
     pagecolor="#ffffff"
     bordercolor="#000000"
     borderopacity="0.25"
     inkscape:showpageshadow="2"
     inkscape:pageopacity="0.0"
     inkscape:pagecheckerboard="0"
     inkscape:deskcolor="#d1d1d1"
     showgrid="false" />
  <path
     d="m 33.5672,3.04057 h 0.1108 c 0.9588,1.82434 1.4402,2.87257 1.4402,3.14191 L 34.8966,6.28384 34.5643,6.18248 h -0.2216 c 0,0.60812 0.4794,2.63516 1.4402,6.08112 0.5902,2.1616 0.8862,3.75 0.8862,4.7636 0,2.0934 -1.3676,3.4112 -4.0989,3.9527 -0.8137,0.2694 -1.2186,0.6745 -1.2186,1.2165 -0.5177,0.9451 -0.7755,1.9586 -0.7755,3.0406 0,1.148 0.5539,1.7227 1.6617,1.7227 h 0.3324 c 1.8453,0 4.3931,-1.4534 7.644,-4.3579 3.396,-2.6352 5.4646,-4.0891 6.2038,-4.3582 v -0.101 c -0.2215,-0.3391 -1.0715,-0.879 -2.548,-1.6217 -0.3703,-0.6763 -0.5539,-1.2512 -0.5539,-1.723 0,-1.0135 1.0333,-1.5884 3.1019,-1.723 h 0.1108 l 0.7755,0.1014 h 0.1108 c 2.3627,0 5.3538,0.3704 8.9734,1.1149 v 0.304 c 0,1.0799 -1.1078,1.8576 -3.3235,2.3311 -2.0686,0.7429 -3.4725,1.3842 -4.2098,1.9257 l 0.6647,1.3178 v 1.216 l -0.2215,0.1014 c -0.6647,0 -1.3294,-0.339 -1.9941,-1.0135 h -0.2216 c -1.1823,2.0936 -1.7725,3.5805 -1.7725,4.4594 0,0.3376 0.1836,0.6082 0.5539,0.8111 h 0.6647 c 0.8863,0 2.2885,-1.0135 4.2098,-3.0405 1.2548,-0.879 3.396,-1.7233 6.4254,-2.5339 0.5159,-0.2708 1.1441,-0.7444 1.8833,-1.4191 -0.0745,-0.4734 -0.149,-0.879 -0.2216,-1.2163 C 57.2002,10.9797 56.2777,6.96062 56.0561,5.47353 V 5.06761 c 0.0729,-0.81082 0.2216,-1.21623 0.4432,-1.21623 0.9588,1.3523 1.4401,2.36582 1.4401,3.04057 L 57.7179,6.9933 57.3855,6.89195 V 6.9933 l 2.2157,8.919 0.1108,1.4189 v 0.3043 c -0.0745,2.2295 -1.2569,3.6485 -3.5451,4.2566 -2.8803,0.6747 -5.1339,1.891 -6.7577,3.6487 -1.1079,0.9453 -1.9578,1.4189 -2.548,1.4189 h -0.3324 c -0.6647,0 -1.2186,-0.7092 -1.6617,-2.1282 0,-1.1498 0.7375,-2.7714 2.2156,-4.8649 v -0.3038 c -0.8862,0.0664 -3.8774,2.1616 -8.9734,6.2836 -2.3647,1.7565 -4.2842,2.6352 -5.7607,2.6352 -1.551,0 -2.3264,-0.879 -2.3264,-2.6352 v -0.6083 c 0,-0.9469 0.3323,-2.1634 0.997,-3.6485 h -0.2216 c -1.1078,0 -3.1019,1.216 -5.9822,3.6485 -0.6647,0.4056 -1.1824,0.6078 -1.551,0.6078 -1.1823,-0.2024 -1.7725,-0.7774 -1.7725,-1.7227 l -0.1108,-0.6081 c 0,-1.4871 0.6647,-3.109 1.9941,-4.8649 l 0.2216,-0.9125 c -0.9608,-0.2706 -1.6255,-0.676 -1.9941,-1.2159 l -0.7755,-1.419 -0.1108,-0.2027 h -0.1108 c -0.3703,0.2027 -0.7029,0.7429 -0.997,1.6217 l -1.1079,1.2159 c 0.516,0 0.9591,0.7098 1.3294,2.1284 v 0.4054 c 0,0.8111 -0.5176,1.2165 -1.5509,1.2165 -1.4781,0 -2.4755,-0.6763 -2.9912,-2.027 v -0.203 c -0.2215,0 -0.5921,0.6748 -1.1078,2.0271 -2.1431,1.9591 -4.80188,3.5126 -7.97636,4.6622 C 3.47055,26.925 1.40223,27.3651 0,27.3651 V 27.061 c 0,-0.136 2.32644,-1.0482 6.97932,-2.7365 2.73135,-1.1498 5.13228,-2.6349 7.20088,-4.4597 0.8118,-1.8241 1.3294,-2.7712 1.551,-2.8376 1.9941,0 3.545,-1.082 4.6528,-3.2433 l 0.6647,-0.3041 c 0.7376,1.6217 1.2915,2.4325 1.6618,2.4325 h 0.2216 v -0.1014 l -0.3324,-1.5202 c 0,-1.9604 1.1078,-2.9393 3.3235,-2.9393 0.5157,0 2.3264,0.3705 5.4284,1.1149 1.5509,0.4054 2.3264,0.6748 2.3264,0.8108 0,0.8775 -0.8137,1.4522 -2.4372,1.723 -2.6588,1.5535 -5.0232,2.5338 -7.0901,2.9392 0,0.6745 -0.4432,1.5203 -1.3294,2.5338 -0.6647,1.1481 -0.9971,2.0271 -0.9971,2.6352 v 0.5068 c 0,0.6745 0.2944,1.0135 0.8863,1.0135 h 0.2216 c 0.8862,0 2.2519,-0.8458 4.0989,-2.5338 0.5902,-0.8108 3.1019,-1.8593 7.5333,-3.1419 0.8862,-0.6761 1.3294,-1.0817 1.3294,-1.2163 -0.2961,-2.2297 -0.9971,-5.3384 -2.1049,-9.32437 L 33.0133,4.35814 c 0,-0.60811 0.1833,-1.04671 0.5539,-1.31757 z M 11.6322,25.7437 h 0.2216 v 0.1011 c -0.2216,0.2694 -1.5889,0.8772 -4.099,1.8244 H 7.64402 v -0.203 c 2.58428,-1.1496 3.91368,-1.7225 3.98818,-1.7225 z m 2.2157,-12.872 c 0.3686,0 0.6647,0.1346 0.8862,0.4054 v 0.3041 h -0.1108 v 0.2027 c -0.7389,-0.2706 -1.1078,-0.4736 -1.1078,-0.6081 v -0.1014 z m 0.5539,11.7569 c 0.3686,0 0.8117,0.2361 1.3294,0.7095 0,0.4056 -0.2958,0.8108 -0.8863,1.2162 l -1.2186,-0.6081 v -0.1014 c 0,-0.3388 0.2578,-0.7442 0.7755,-1.2162 z m 1.1078,-12.1623 h 0.2216 l 0.2215,0.2027 v 0.1014 c 0,0.1345 -0.1853,0.2027 -0.5539,0.2027 v 0.6081 l -0.3323,0.3041 -0.1108,-0.1014 c 0.0728,-0.879 0.2578,-1.3176 0.5539,-1.3176 z m 0.5539,6.2839 v 0.2027 c 0.4431,0.7429 1.2549,1.1148 2.4372,1.1148 h 0.1108 v -0.1013 c 0,-0.4054 -0.85,-0.8106 -2.548,-1.2162 z m 0.9971,5.4732 h 0.1107 c 0.2216,0 0.6647,0.2025 1.3294,0.6079 v 0.2027 c -0.1487,0.7429 -0.3703,1.1149 -0.6647,1.1149 -0.3702,0 -0.8137,-0.2706 -1.3294,-0.8108 0.1471,-0.7442 0.3324,-1.1147 0.554,-1.1147 z M 17.6145,9.02035 h 0.1108 c 0.5157,0 0.7754,0.2027 0.7754,0.60811 -0.2957,0.3375 -0.6284,0.50674 -0.997,0.50674 h -0.4431 c 0.0725,-0.74416 0.2578,-1.11485 0.5539,-1.11485 z m 2.2156,17.63525 h 0.5539 l 0.6647,0.6081 c 0,0.2694 -0.5921,0.4384 -1.7725,0.5068 L 20.0517,30 h -0.2216 l -0.6647,-2.027 v -0.3038 c 0.2216,-0.2707 0.5157,-0.4055 0.8863,-0.4055 0,-0.1363 -0.1108,-0.2029 -0.3323,-0.2029 V 26.8583 Z M 30.7976,4.15544 v 0.2027 C 30.5761,4.69691 28.6928,5.54093 25.1477,6.89195 23.2262,7.70277 22.1184,8.27769 21.8242,8.61494 L 21.6027,8.41223 c 0.0728,-0.33725 3.1382,-1.75618 9.1949,-4.25679 z m -7.644,9.62846 c 0.3687,1.6883 0.701,2.5338 0.9971,2.5338 1.698,0 3.8029,-0.7774 6.3146,-2.3308 -1.7,-0.6082 -3.4725,-1.0136 -5.3176,-1.2163 -1.2565,0.2025 -1.9215,0.5397 -1.9941,1.0133 z m 2.3265,13.1755 h 0.2215 c 0.4432,0.0669 0.6647,0.168 0.6647,0.3043 v 0.1014 l -0.6647,0.8108 v 0.1014 h 0.2216 l 1.551,-0.1014 v 0.1014 c 0,0.2693 -0.5177,0.4383 -1.551,0.5067 h -0.3324 l -0.1107,-0.2027 v -0.6081 l 0.4431,-0.5068 V 27.3651 H 25.7016 25.3693 L 25.1477,27.264 Z m 1.8833,-9.1217 h 0.1108 c 0.7372,0.4721 1.1078,0.9788 1.1078,1.5203 l -0.1108,0.203 h -0.1108 c -0.2961,-0.5418 -0.6647,-1.0135 -1.1078,-1.419 z m 3.4342,-10.23628 0.4432,1.21622 c 0,0.33725 -0.2958,0.50676 -0.8863,0.50676 l -0.5539,0.30406 c -0.3703,0 -0.5539,-0.40541 -0.5539,-1.21623 V 8.31088 h 0.2215 l 0.3324,0.70947 h 0.4431 L 29.9114,7.90547 30.0222,7.80412 c 0.2944,0 0.4431,0.23767 0.4431,0.70946 L 30.7976,8.81764 30.4653,7.70277 30.5761,7.60142 Z M 35.4505,0 c 0.0729,0 0.3324,0.372216 0.7755,1.11487 h 0.2216 L 37.5554,0.202704 37.9985,0 c 0.5157,0.270864 0.7755,0.541728 0.7755,0.810818 -0.4431,0.473572 -1.035,0.709462 -1.7725,0.709462 0,0.20271 -0.2598,0.30406 -0.7755,0.30406 L 35.8937,1.52028 C 35.5234,1.72299 35.1545,1.82434 34.7858,1.82434 H 34.5643 L 34.3427,1.62164 V 1.52028 C 35.0802,1.38574 35.4505,1.25094 35.4505,1.11487 L 35.3397,0.202704 Z m 0.4432,20.7772 c 0.8862,0.3373 1.3293,0.5402 1.3293,0.6079 v 0.5067 c -0.149,0.5402 -0.3323,0.8111 -0.5539,0.8111 h -0.3323 c -0.6647,-0.339 -0.9971,-0.6081 -0.9971,-0.8111 z M 37.223,1.11487 h 0.1108 C 37.777,1.04849 37.9985,0.947136 37.9985,0.810818 V 0.709465 h -0.3323 z m 1.3294,1.72299 h 0.1108 c 0.8118,1.555 1.2186,2.46717 1.2186,2.73651 L 39.6603,5.77708 39.3279,5.57437 v 0.20271 c 0.8118,3.17663 1.3657,5.84372 1.6618,8.00682 0.2215,0 0.4049,1.2829 0.5539,3.8516 0,0.7427 -0.149,1.3174 -0.4432,1.7228 l -0.4431,-0.2025 v -0.7097 l 0.1108,-0.2027 H 40.6573 V 17.5339 C 40.3615,15.3708 39.6966,11.8232 38.6632,6.89195 38.5142,6.01475 38.3309,5.57437 38.1093,5.57437 h 0.1108 V 5.37167 L 37.8877,3.95274 c 0.1471,-0.74266 0.3687,-1.11488 0.6647,-1.11488 z m 4.9853,22.50024 v 0.1011 c -2.8804,1.6882 -4.5803,2.5338 -5.096,2.5338 h -0.2216 v -0.2025 c 0.7375,-0.5417 2.5101,-1.3523 5.3176,-2.4324 z M 41.9867,7.60142 c 0.4431,0.27086 0.6647,0.94713 0.6647,2.02704 H 42.4298 L 41.7651,7.70277 41.8759,7.60142 Z m 8.8626,-5.06761 c 0.2216,0 0.3324,0.06815 0.3324,0.2027 L 50.9601,3.04057 H 50.8493 L 50.7386,2.93921 c -1.551,0.81082 -3.3617,1.21623 -5.4284,1.21623 H 43.87 c 0,0.2027 -0.0745,0.30406 -0.2215,0.30406 -0.4432,-0.53996 -0.6647,-0.94537 -0.6647,-1.21623 0.8862,0.33877 1.5872,0.50676 2.1048,0.50676 1.8451,0 3.7666,-0.40541 5.7607,-1.21622 z M 44.4239,15.0001 c 0.0729,0.2027 0.8863,0.8106 2.4373,1.8241 0.4431,0.3375 0.6647,0.6081 0.6647,0.8111 l 5.4283,-2.1284 c 0,-0.339 -2.3646,-0.5749 -7.0901,-0.7095 h -0.3323 z m 9.4166,-9.62843 0.1108,0.10135 v 0.10135 c -0.9608,0.60811 -3.1765,1.38574 -6.647,2.3311 L 45.0886,8.81764 V 9.3244 h -0.1108 c -0.149,0 -0.2215,-0.10135 -0.2215,-0.30405 0,-0.74266 1.4402,-1.41893 4.3205,-2.02705 2.8059,-1.08016 4.3934,-1.62163 4.7637,-1.62163 z m -6.3146,4.66223 c 0.3686,0 0.6264,0.168 0.7754,0.5067 v 0.2027 l -0.3323,0.4054 h -0.6647 c -0.1487,0 -0.2216,-0.1363 -0.2216,-0.4054 0.1471,-0.4054 0.2944,-0.6428 0.4432,-0.7094 z m 6.3146,-0.40544 c 0,0.3375 -0.4811,0.64134 -1.4402,0.91214 C 51.9572,10.3379 51.7356,9.93252 51.7356,9.3244 V 9.1217 l 0.1108,-0.10135 0.4431,0.81081 h 0.3324 L 52.4003,9.02035 V 8.81764 h 0.2216 c 0.2215,0.06816 0.3323,0.33725 0.3323,0.81082 h 0.3324 L 52.9542,8.81764 53.065,8.61494 c 0.2944,0.06816 0.5539,0.40541 0.7755,1.01352 z M 52.6219,25.5408 c 0.7375,0.2693 1.1078,0.472 1.1078,0.6081 0,0.4054 -0.5176,0.6081 -1.551,0.6081 0.516,1.3505 0.7755,2.2295 0.7755,2.6349 H 52.6219 L 51.8464,27.0608 V 26.757 c 0.147,-0.4057 0.2944,-0.6081 0.4431,-0.6081 l -0.1108,-0.1014 v -0.1013 z m 3.8774,-1.3174 c 0.4431,0.1346 0.6647,0.2694 0.6647,0.4054 v 0.2025 c -0.5177,0.3372 -0.7755,0.6413 -0.7755,0.9124 h 0.7755 l 1.6617,-0.4056 c -0.5919,0.6747 -1.3676,1.0135 -2.3264,1.0135 -0.2961,0 -0.5177,-0.1363 -0.6647,-0.4057 l 0.4431,-1.1146 h -0.1108 -0.4431 c 0.147,-0.4057 0.4052,-0.6079 0.7755,-0.6079 z M 58.7149,0.709465 59.3796,1.82434 h 0.3324 l 1.2186,-0.81082 h 0.5539 c 0.4431,0 0.6647,0.10135 0.6647,0.30406 v 0.2027 c 0,0.67628 -0.6647,1.01353 -1.9941,1.01353 L 59.6012,2.63516 59.3796,2.73651 C 59.3796,2.46717 59.3051,2.3311 59.1581,2.3311 58.862,2.60196 58.5296,2.73651 58.161,2.73651 H 57.9394 V 2.53381 L 58.9365,2.1284 C 58.6407,1.52028 58.4934,1.08168 58.4934,0.810818 L 58.6041,0.709465 Z M 68.353,23.8178 v 0.1011 c 0,0.4056 -1.7362,1.0804 -5.2068,2.027 -0.8137,0.4057 -1.2186,0.6748 -1.2186,0.8111 l -0.6647,-0.1014 -1.2186,0.4054 v -0.2027 c 0,-0.3387 1.8833,-1.0816 5.6499,-2.2297 1.4023,-0.5415 2.2883,-0.8108 2.6588,-0.8108 z M 60.5982,1.82434 h 0.2216 0.5539 V 1.52028 h -0.2216 z m 0.9971,1.92569 c 0.7375,1.48709 1.1078,2.46717 1.1078,2.93922 H 62.26 c 1.1078,5.47305 1.6617,8.88405 1.6617,10.23655 -0.1487,1.1481 -0.3703,1.7233 -0.6647,1.7233 L 63.1462,18.4461 63.257,17.0272 61.5953,8.81764 61.7061,8.41223 60.9306,5.06761 c 0.2215,-0.8772 0.4431,-1.31758 0.6647,-1.31758 z M 74.003,13.4798 c 0.8862,1.0136 1.3294,1.6881 1.3294,2.0271 v 0.1013 c -0.2216,0 -0.3324,0.0664 -0.3324,0.2025 0.812,1.8246 1.2186,3.0058 1.2186,3.5473 v 0.3043 c -0.149,1.6214 -0.7392,2.4325 -1.7725,2.4325 h -0.3324 c -1.0352,0 -1.8107,-0.5417 -2.3264,-1.6217 v -0.1013 h -0.2216 c 0,1.0804 -0.8137,1.891 -2.4372,2.4327 h -0.8863 c -0.9607,0 -1.6254,-0.8108 -1.994,-2.4327 l 0.2215,-1.9257 c -0.5176,0.54 -0.9607,1.891 -1.3294,4.0541 -0.4431,0.6081 -0.85,0.9454 -1.2186,1.0135 -0.9607,0 -1.6617,-1.2841 -2.1049,-3.8511 0.0726,-0.9474 0.2216,-1.4192 0.4432,-1.4192 0.147,0 0.2215,0.844 0.2215,2.5338 0.4432,0.8772 0.9226,1.3176 1.4402,1.3176 0.4432,0 0.9971,-1.2842 1.6618,-3.8514 0.5159,-1.2162 1.0333,-1.8925 1.5509,-2.027 0.2216,0.2693 0.3324,0.5402 0.3324,0.8108 l -0.3324,2.5338 c 0.0729,1.148 0.6268,1.723 1.6618,1.723 h 0.2215 c 1.1079,0 1.8451,-0.5418 2.2157,-1.6214 l -0.6647,-4.1555 v -0.3043 c 0,-0.676 0.1108,-1.0135 0.3323,-1.0135 0.6647,0.8772 1.1442,2.3643 1.4402,4.4598 0.3686,1.2828 1.0333,1.9256 1.9941,1.9256 h 0.1108 l 1.2186,-0.4054 c -1.3294,-3.0405 -1.9941,-4.8651 -1.9941,-5.4732 v -0.7095 c 0.0729,-0.3388 0.1836,-0.5068 0.3324,-0.5068 z m 71.787,-3.4459 c 0.516,0.3372 0.776,1.148 0.776,2.4324 1.033,2.0271 1.551,3.4113 1.551,4.1555 v 0.5067 c 0,1.4851 -0.629,2.3309 -1.884,2.5338 -0.592,0 -1.293,-0.3722 -2.104,-1.1148 h -0.111 c 0,0.6745 -0.592,1.148 -1.773,1.4189 h -0.221 c -0.592,0 -1.035,-0.3038 -1.33,-0.9122 -0.739,0.7429 -1.921,1.1149 -3.545,1.1149 -0.739,0 -1.218,-0.5068 -1.44,-1.5203 h -0.111 c -3.102,0.8775 -9.158,1.9257 -18.168,3.1419 -5.91,0.6748 -11.042,1.0135 -15.399,1.0135 -5.9097,0 -10.9312,-0.5417 -15.0664,-1.6213 H 86.743 c 0,0.8772 -0.4069,1.3173 -1.2186,1.3173 -0.8863,-0.2027 -1.847,-0.5749 -2.8801,-1.1149 -0.8863,1.8246 -3.0656,3.5473 -6.5365,5.169 -2.5114,1.351 -6.131,2.2964 -10.8567,2.8378 h -0.8863 v -0.2027 l 9.9705,-3.3446 c 3.3961,-1.5552 5.7228,-2.9395 6.9793,-4.1552 1.4023,-2.366 2.4375,-3.5473 3.1019,-3.5473 h 0.2216 l 2.6591,1.4189 c 3.545,1.1481 8.5303,1.723 14.9558,1.723 h 1.994 c 8.123,0 18.13,-1.2162 30.022,-3.6484 0.959,-0.339 1.734,-0.5068 2.326,-0.5068 v 0.2025 l -0.111,0.3043 v 0.1008 c 0,0.5402 0.333,0.844 0.998,0.9125 h 0.664 c 1.034,0 2.067,-0.5068 3.102,-1.5203 0.147,0 0.258,0.3038 0.333,0.9121 0.294,0.1346 0.626,0.2027 0.997,0.2027 h 0.11 c 0.516,0 1.108,-0.5417 1.773,-1.6213 h 0.11 c 0.073,0 0.147,0.2359 0.222,0.7092 0.369,0.3375 0.922,0.6081 1.662,0.8111 0.664,-0.1364 0.997,-0.3044 0.997,-0.5068 l -2.216,-6.2838 c 0.222,-0.8793 0.405,-1.3181 0.554,-1.3181 z m -77.9909,0.4054 h 0.2216 c 0.5157,0 0.8862,0.3372 1.1078,1.0135 v 0.4054 c 0,0.0664 -0.2961,0.1677 -0.8863,0.3041 -0.5176,0.8772 -1.2186,1.3175 -2.1048,1.3175 v -0.304 c 0.7375,-0.2709 1.3659,-0.676 1.8833,-1.2162 v -0.1014 c -0.3703,0 -0.5539,-0.0682 -0.5539,-0.2027 0,-0.8108 0.1108,-1.2162 0.3323,-1.2162 z M 75,4.86491 75.1108,4.96626 v 0.10135 c 0,0.2027 -1.7725,1.01352 -5.3176,2.43245 -0.8137,0.20271 -1.5889,0.64308 -2.3264,1.31758 L 67.5776,9.02035 67.4668,9.1217 67.1344,8.81764 V 8.41223 C 67.356,7.94019 69.9768,6.7574 75,4.86491 Z M 68.353,2.83786 h 0.5539 l 0.4432,0.50676 V 3.54733 C 69.1285,3.95274 68.7582,4.15544 68.2422,4.15544 L 68.0207,3.64868 C 68.0932,3.10873 68.2043,2.83786 68.353,2.83786 Z m 4.6529,6.68925 c 0.3686,0.33725 0.5539,0.74269 0.5539,1.21619 0,0.2694 -0.4813,0.4721 -1.4402,0.6081 C 71.6765,11.2151 71.455,10.946 71.455,10.5406 v -0.4054 l 0.1107,-0.1013 c 0.2216,0.4718 0.4049,0.7094 0.5539,0.7094 h 0.2216 L 72.1196,9.62846 h 0.2216 l 0.3324,0.91214 h 0.3323 L 72.6736,9.62846 72.7843,9.52711 Z m 6.4254,-6.7906 h 0.2216 c 0.516,0 0.7757,0.16926 0.7757,0.50676 0,0.81082 -0.5921,1.21623 -1.7725,1.21623 L 77.1052,4.15544 V 4.6622 H 76.8833 L 76.6617,4.4595 c 0,-0.60812 0.2582,-0.94537 0.7755,-1.01353 l 0.6647,0.30406 c 0.2216,-0.33725 0.6647,-0.6745 1.3294,-1.01352 z m -1.9941,3.04057 c 0.8863,1.41893 1.3297,2.3311 1.3297,2.7365 V 8.81764 L 78.6561,9.02035 78.4345,8.81764 h -0.1107 v 0.20271 c 0.8862,4.99945 1.3294,8.24295 1.3294,9.72985 v 0.6078 c 0,0.8111 -0.2598,1.3178 -0.7755,1.5203 H 78.7666 V 20.6758 L 78.8771,18.8513 78.3232,15.5069 76.9938,7.90547 76.883,7.29736 V 6.89195 c 0.1474,-0.74266 0.3327,-1.11487 0.5542,-1.11487 z m 1.3294,-2.02705 v 0.10135 l 0.886,-0.2027 V 3.34462 H 79.5421 C 79.0245,3.41278 78.7666,3.54733 78.7666,3.75003 Z M 89.7341,23.007 c -0.4431,0.2693 -3.2127,1.3175 -8.3087,3.1419 l -0.1108,-0.1014 v -0.1013 c 0.1471,-0.4054 2.8804,-1.4537 8.198,-3.142 z m -7.8656,-8.0069 c 0.516,0 0.7758,0.2694 0.7758,0.8106 v 0.1013 l -0.2218,0.3044 c 0,-0.2028 -0.2598,-0.3388 -0.7755,-0.4057 l -0.2216,-0.2025 v -0.1013 c 0.0729,-0.339 0.2216,-0.5068 0.4431,-0.5068 z m 0.7755,-4.2568 0.3324,0.4054 v 0.2027 c 0,0.0664 -0.185,0.1014 -0.5539,0.1014 l 0.2215,0.2027 h 0.9971 v 0.2027 c 0,0.4054 -0.6647,0.7427 -1.9941,1.0135 v -0.1013 l 0.4434,-0.5068 -0.4434,-0.4054 v -0.2027 c 0.147,-0.6081 0.4794,-0.9122 0.997,-0.9122 z m 0.7755,3.8514 0.4431,0.2027 v 0.2027 c 0,0.2027 -0.1487,0.3038 -0.4431,0.3038 v 0.5068 l -0.2216,0.5068 h -0.1107 v -1.3174 z m 0,5.473 c 0.6644,0.4718 1.3294,0.7095 1.9941,0.7095 -0.2961,-0.6079 -0.7029,-0.9124 -1.2186,-0.9124 -0.5176,0.0669 -0.7755,0.1348 -0.7755,0.2029 z m 2.548,5.4731 h 0.2216 c 0.5902,0 0.8862,0.2693 0.8862,0.8108 0,0.2027 -0.4434,0.3372 -1.3296,0.4056 v 0.3038 l 0.5539,1.8244 h -0.1105 c -0.0745,0 -0.4069,-0.6763 -0.9973,-2.0271 0,-0.2708 0.1836,-0.5067 0.5539,-0.7094 v -0.1014 -0.1013 z m 55.0595,-2.9393 h 0.221 v 0.1014 c 0,0.5399 -0.37,0.8106 -1.108,0.8106 l -0.332,0.1013 h -0.665 -0.11 c -1.551,1.1481 -2.548,1.723 -2.992,1.723 v -0.1011 l 1.884,-1.3178 1.218,-0.9122 1.108,0.1013 v -0.1013 l 0.222,-0.3038 0.221,0.3041 z M 139.919,9.3244 c 0.368,0.13455 0.554,0.37044 0.554,0.7095 v 0.1013 c 0,0.2694 -0.296,0.4721 -0.887,0.6081 h -0.11 c -0.222,0 -0.332,-0.2027 -0.332,-0.6081 0.294,-0.47355 0.553,-0.74416 0.775,-0.8108 z m -0.333,0.50676 -0.11,0.20274 0.221,0.1013 h 0.111 l 0.221,-0.1013 z m 0.333,3.44594 c 0.515,0.2027 0.775,0.54 0.775,1.0136 h -0.221 -0.111 c 0,-0.0682 -0.222,-0.1693 -0.665,-0.3041 v -0.5068 z m 1.662,-0.1013 0.11,0.304 v 0.3041 c -0.296,0 -0.443,0.168 -0.443,0.5068 h -0.332 c 0.147,-0.7445 0.368,-1.1149 0.665,-1.1149 z M 150,24.8313 c -0.296,0.4057 -3.323,1.4521 -9.084,3.1417 v -0.2025 c 0.443,-0.3388 3.47,-1.3178 9.084,-2.9392 z m -4.542,-2.3311 h 0.11 c 0.516,0 1.034,0.304 1.552,0.9122 0,0.472 -0.222,0.8442 -0.665,1.1148 h -0.111 c -0.37,0 -0.814,-0.2706 -1.329,-0.8105 v -0.1014 z"
     fill="black"
     id="path2"
     style="fill:#e8e8cf;fill-opacity:1" />
</svg>
