<?xml version="1.0" encoding="UTF-8" standalone="no"?>
<svg
   width="11"
   height="11"
   viewBox="0 0 11 11"
   fill="none"
   version="1.1"
   id="svg18733"
   sodipodi:docname="sambutan_insta.svg"
   xmlns:inkscape="http://www.inkscape.org/namespaces/inkscape"
   xmlns:sodipodi="http://sodipodi.sourceforge.net/DTD/sodipodi-0.dtd"
   xmlns="http://www.w3.org/2000/svg"
   xmlns:svg="http://www.w3.org/2000/svg">
  <defs
     id="defs18737" />
  <sodipodi:namedview
     id="namedview18735"
     pagecolor="#ffffff"
     bordercolor="#000000"
     borderopacity="0.25"
     inkscape:showpageshadow="2"
     inkscape:pageopacity="0.0"
     inkscape:pagecheckerboard="0"
     inkscape:deskcolor="#d1d1d1"
     showgrid="false" />
  <path
     d="M 8.54633,11 H 2.73092 C 0.995612,11 0,10.0863 0,8.49357 V 2.77918 C 0,1.11684 0.978775,0 2.43459,0 H 8.75622 C 9.8349,0 11,1.03714 11,2.71184 V 8.4599 C 11,9.88429 9.92245,11 8.54633,11 Z M 2.43459,0.457959 c -1.458059,0 -1.976631,1.250411 -1.976631,2.321221 v 5.71439 c 0,1.69263 1.235821,2.04843 2.272961,2.04843 h 5.81541 c 1.13816,0 1.99567,-0.89455 1.99567,-2.08098 V 2.71184 C 10.542,1.32 9.6149,0.457959 8.75622,0.457959 Z"
     fill="black"
     id="path18725"
     style="fill:#e8e8cf;fill-opacity:1" />
  <path
     d="M 5.5,8 C 4.12118,8 3,6.87882 3,5.5 3,4.12118 4.12118,3 5.5,3 6.87882,3 8,4.12118 8,5.5 8,6.87882 6.87882,8 5.5,8 Z m 0,-4.58937 c -1.15238,0 -2.08937,0.93699 -2.08937,2.08937 0,1.15238 0.93699,2.08937 2.08937,2.08937 1.15238,0 2.08937,-0.93699 2.08937,-2.08937 0,-1.15238 -0.938,-2.08937 -2.08937,-2.08937 z"
     fill="black"
     id="path18727"
     style="fill:#e8e8cf;fill-opacity:1" />
  <path
     d="M 9,1.7131 C 9,1.87157 8.87165,2 8.71264,2 H 8.28736 C 8.12899,2 8,1.87157 8,1.7131 V 1.2869 C 8,1.12843 8.12835,1 8.28736,1 H 8.71264 C 8.87101,1 9,1.12843 9,1.2869 Z"
     fill="black"
     id="path18729"
     style="fill:#e8e8cf;fill-opacity:1" />
  <path
     d="M 6.75791,5.22357 C 6.397,4.95456 5.87354,5.08274 5.62039,5.34179 5.43243,5.12179 5.04917,4.8859 4.5499,5.06093 3.90094,5.2882 3.73135,6.12377 4.56521,6.64482 4.83153,6.81097 5.15417,6.91383 5.34213,6.95584 5.45631,6.98169 5.55549,7 5.55549,7 5.55549,7 5.56222,6.97469 5.60018,6.97092 5.63845,6.96715 5.63232,6.92837 5.6813,6.92056 5.73028,6.91275 5.73793,6.88529 5.73793,6.88529 c 0,0 -0.55192,-0.07863 -0.99181,-0.38426 C 4.2147,6.13158 4.31542,5.71474 4.53337,5.4907 4.7749,5.24269 5.12999,5.22869 5.37243,5.35229 5.59743,5.46727 5.71498,5.63153 5.69661,5.78852 5.67916,5.93716 5.58733,5.8833 5.55977,5.81221 5.5209,5.71204 5.57233,5.63449 5.58824,5.59895 5.55794,5.56179 5.52916,5.53001 5.49304,5.50605 5.46029,5.56125 5.42049,5.63745 5.43886,5.73547 5.46763,5.88842 5.67273,5.98725 5.73395,5.83968 5.76395,5.76698 5.78293,5.6221 5.71283,5.47777 5.8313,5.37841 5.98558,5.29143 6.24547,5.33694 c 0.24428,0.04255 0.44111,0.28678 0.3355,0.56925 -0.13254,0.35437 -0.54794,0.3506 -0.54794,0.3506 0,0 0.00214,0.08698 -0.04225,0.12953 C 5.91793,6.45606 5.97793,6.5021 5.94456,6.53873 5.9115,6.57535 5.93599,6.67687 5.93599,6.67687 c 0,0 0.34713,-0.04767 0.67651,-0.25878 C 6.99484,6.17332 7.18188,5.53971 6.75791,5.22357 Z"
     fill="black"
     id="path18731"
     style="fill:#e8e8cf;fill-opacity:1" />
</svg>
