<?xml version="1.0" encoding="UTF-8" standalone="no"?>
<!-- Created with Inkscape (http://www.inkscape.org/) -->

<svg
   width="26.536924mm"
   height="7.1945419mm"
   viewBox="0 0 26.536924 7.1945419"
   version="1.1"
   id="svg5"
   xml:space="preserve"
   xmlns:inkscape="http://www.inkscape.org/namespaces/inkscape"
   xmlns:sodipodi="http://sodipodi.sourceforge.net/DTD/sodipodi-0.dtd"
   xmlns="http://www.w3.org/2000/svg"
   xmlns:svg="http://www.w3.org/2000/svg"><sodipodi:namedview
     id="namedview7"
     pagecolor="#ffffff"
     bordercolor="#000000"
     borderopacity="0.25"
     inkscape:showpageshadow="2"
     inkscape:pageopacity="0.0"
     inkscape:pagecheckerboard="0"
     inkscape:deskcolor="#d1d1d1"
     inkscape:document-units="mm"
     showgrid="false" /><defs
     id="defs2"><style
       id="style1379"
       type="text/css"><![CDATA[
    .fil1 {fill:#EC6722}
    .fil0 {fill:#007697}
   ]]></style><style
       id="style1379-3"
       type="text/css"><![CDATA[
    .fil1 {fill:#EC6722}
    .fil0 {fill:#007697}
   ]]></style><style
       id="style1379-8"
       type="text/css"><![CDATA[
    .fil1 {fill:#EC6722}
    .fil0 {fill:#007697}
   ]]></style></defs><g
     inkscape:label="Layer 1"
     inkscape:groupmode="layer"
     id="layer1"
     transform="translate(-17.70151,-79.923055)"><g
       style="fill:none"
       id="g2219"
       transform="matrix(0.66342553,0,0,0.66342553,17.70151,79.923052)"
       inkscape:export-filename="gift_card_va_dana.svg"
       inkscape:export-xdpi="96"
       inkscape:export-ydpi="96"><path
         fill-rule="evenodd"
         clip-rule="evenodd"
         d="M 5.27409,0.0196744 C 3.34548,0.189275 1.78252,1.1388 0.833278,2.60446 0.216433,3.55679 -0.0735233,4.68506 0.0158933,5.84294 0.234683,8.67565 2.85271,11.074 6.20368,10.827 9.21026,10.6054 11.6909,8.09053 11.4368,4.99735 11.3437,3.86487 10.9204,2.93151 10.2419,2.08873 9.93466,1.70715 9.87408,1.70092 9.55324,1.38853 9.1554,1.00103 8.31404,0.556192 7.77711,0.359378 7.05713,0.0953873 6.14039,-0.0565406 5.27409,0.0196744 Z"
         fill="#108de8"
         id="path2186" /><path
         fill-rule="evenodd"
         clip-rule="evenodd"
         d="M 2.41036,3.84193 C 2.33725,4.03825 2.38078,6.22097 2.38078,6.62584 c 0,0.43801 -0.09299,0.57477 0.64395,0.80914 C 4.97591,8.05545 6.90798,5.95165 8.84815,6.99255 8.93811,7.04075 9.04761,7.13966 9.07331,6.9799 L 9.07407,4.172 C 9.07417,3.86995 9.10322,3.77536 8.88778,3.63588 7.15161,2.51124 5.27181,4.43488 3.51015,4.21909 2.8582,4.13926 2.58823,3.82998 2.41036,3.84193 Z"
         fill="#ffffff"
         id="path2188" /><path
         fill-rule="evenodd"
         clip-rule="evenodd"
         d="M 15.8151,8.17047 C 16.5757,8.22098 17.4617,7.67251 17.7739,7.35842 18.8582,6.26721 18.8844,4.68838 17.7928,3.54576 17.3863,3.1203 16.4347,2.65006 15.8277,2.71593 l -2.1921,0.00151 -6e-4,5.4462 z M 14.8664,6.99039 C 15.0279,7.0165 15.6911,7.00676 15.8732,6.9912 17.3707,6.86387 17.8997,4.96 16.6407,4.16251 16.4318,4.03006 16.1993,3.92452 15.8942,3.89299 15.7271,3.87562 15.0135,3.86488 14.8657,3.88968 Z"
         fill="#108de8"
         id="path2190" /><path
         fill-rule="evenodd"
         clip-rule="evenodd"
         d="m 35.0149,8.18066 1.2469,-5e-4 0.0013,-1.17385 2.4742,4e-4 0.0072,1.17355 1.2463,2e-4 c 9e-4,-0.65229 4e-4,-1.29937 4e-4,-1.94634 0,-0.58281 0.0527,-1.31243 -0.102,-1.84111 -0.2615,-0.8948 -1.1767,-1.68838 -2.381,-1.6928 -1.2173,-0.00441 -2.1008,0.78686 -2.3829,1.6687 -0.167,0.52186 -0.1112,1.27005 -0.1112,1.84452 0,0.65471 -0.0073,1.31293 8e-4,1.96723 z m 1.2481,-2.35533 2.4804,10e-4 C 38.7495,5.32285 38.8076,4.83353 38.5646,4.44774 38.3907,4.1718 38.024,3.883 37.5089,3.88099 36.9834,3.87899 36.633,4.15623 36.4455,4.44211 36.1998,4.81706 36.2553,5.3333 36.263,5.82533 Z"
         fill="#108de8"
         id="path2192" /><path
         fill-rule="evenodd"
         clip-rule="evenodd"
         d="m 20.7532,8.17947 1.2426,10e-4 c 8e-4,-0.24501 -0.0334,-0.99601 0.0121,-1.17405 l 2.4647,3e-4 0.0087,1.17295 1.2443,0.0011 c -0.0065,-0.65038 -5e-4,-1.29977 -5e-4,-1.94654 0,-0.55489 0.0553,-1.34988 -0.1011,-1.84181 -0.7121,-2.24036 -4.0272,-2.25623 -4.763,-0.02239 -0.1666,0.50589 -0.1097,1.28008 -0.1097,1.84351 0,0.65019 -0.016,1.31795 0.0019,1.96593 z m 1.2434,-2.35413 2.4835,0.0012 C 24.4853,5.33039 24.5436,4.83183 24.3,4.44684 23.8542,3.74223 22.7205,3.64081 22.1812,4.44343 21.9347,4.81034 21.9885,5.34224 21.9966,5.82534 Z"
         fill="#108de8"
         id="path2194" /><path
         fill-rule="evenodd"
         clip-rule="evenodd"
         d="m 27.9128,4.84336 -0.0169,0.81357 c 0,0.68211 -0.0365,1.95457 0.0025,2.50796 l 1.2186,6e-4 c 0.0283,-0.3879 -0.044,-3.15604 0.0332,-3.2442 3e-4,-0.53793 0.6034,-1.03809 1.2135,-1.0402 0.3747,-0.00131 0.6479,0.14048 0.8468,0.30877 0.1553,0.13145 0.3928,0.43088 0.3883,0.73424 0.057,0.02982 0.0119,2.91725 0.0299,3.24059 l 1.2198,8e-4 -0.0097,-3.30556 C 32.8693,4.60096 32.7016,4.20061 32.594,3.99737 31.691,2.29061 29.099,2.26802 28.1703,3.96795 28.0614,4.16727 27.8871,4.57847 27.9128,4.84336 Z"
         fill="#108de8"
         id="path2196" /><path
         fill-rule="evenodd"
         clip-rule="evenodd"
         d="m 15.815,8.17046 -2.1801,-0.00683 5e-4,-5.4462 2.1921,-0.00151 C 15.7877,2.664 14.8731,2.69503 14.7449,2.69503 c -0.3189,0 -0.8224,-0.02791 -1.1188,0.00442 -0.028,0.08676 -0.0394,5.34168 -0.0019,5.48326 0.2018,0.0242 1.6085,0.00552 2.0532,0.00653 L 15.7996,8.17729 C 15.8035,8.17628 15.8099,8.17277 15.815,8.17046 Z"
         fill="#79bbe7"
         id="path2198" /><path
         fill-rule="evenodd"
         clip-rule="evenodd"
         d="m 31.5986,4.92378 c 0.0131,0.44555 -0.0259,3.10032 0.0188,3.25947 l 1.2421,0.00502 c 0.0324,-0.12762 0.0124,-2.19768 0.0124,-2.51107 0,-0.14982 0.0432,-0.73835 -0.0332,-0.81758 l 0.0097,3.30556 -1.2199,-8e-4 C 31.6106,7.84104 31.6556,4.95361 31.5986,4.92378 Z"
         fill="#79bbe7"
         id="path2200" /><path
         fill-rule="evenodd"
         clip-rule="evenodd"
         d="M 29.1499,4.92118 C 29.0727,5.00935 29.145,7.77749 29.1167,8.16539 l -1.2185,-6e-4 C 27.8591,7.6114 27.8956,6.33894 27.8956,5.65682 l 0.0169,-0.81356 c -0.0693,0.02802 -0.0383,1.47801 -0.0383,1.65896 0,0.26349 -0.0337,1.53082 0.0148,1.68185 l 1.2414,0.00422 z"
         fill="#79bbe7"
         id="path2202" /></g></g></svg>
