<?xml version="1.0" encoding="UTF-8" standalone="no"?>
<!-- Created with Inkscape (http://www.inkscape.org/) -->

<svg
   width="16.826656mm"
   height="9.9382439mm"
   viewBox="0 0 16.826656 9.9382439"
   version="1.1"
   id="svg5"
   xml:space="preserve"
   sodipodi:docname="i_gift_card_va_bri.svg"
   inkscape:version="1.2.2 (1:1.2.2+202212051552+b0a8486541)"
   xmlns:inkscape="http://www.inkscape.org/namespaces/inkscape"
   xmlns:sodipodi="http://sodipodi.sourceforge.net/DTD/sodipodi-0.dtd"
   xmlns="http://www.w3.org/2000/svg"
   xmlns:svg="http://www.w3.org/2000/svg"><sodipodi:namedview
     id="namedview7"
     pagecolor="#ffffff"
     bordercolor="#000000"
     borderopacity="0.25"
     inkscape:showpageshadow="2"
     inkscape:pageopacity="0.0"
     inkscape:pagecheckerboard="0"
     inkscape:deskcolor="#d1d1d1"
     inkscape:document-units="mm"
     showgrid="false"
     inkscape:zoom="1.7637569"
     inkscape:cx="45.641211"
     inkscape:cy="-43.373325"
     inkscape:window-width="1366"
     inkscape:window-height="699"
     inkscape:window-x="0"
     inkscape:window-y="32"
     inkscape:window-maximized="1"
     inkscape:current-layer="layer1" /><defs
     id="defs2"><style
       id="style1379"
       type="text/css"><![CDATA[
    .fil1 {fill:#EC6722}
    .fil0 {fill:#007697}
   ]]></style><style
       id="style1379-3"
       type="text/css"><![CDATA[
    .fil1 {fill:#EC6722}
    .fil0 {fill:#007697}
   ]]></style><style
       id="style1379-8"
       type="text/css"><![CDATA[
    .fil1 {fill:#EC6722}
    .fil0 {fill:#007697}
   ]]></style><clipPath
       clipPathUnits="userSpaceOnUse"
       id="clipPath224"><path
         d="M 0,0 H 595.276 V 841.89 H 0 Z"
         id="path226" /></clipPath><clipPath
       clipPathUnits="userSpaceOnUse"
       id="clipPath200"><path
         d="M 0,0 H 595.276 V 841.89 H 0 Z"
         id="path202" /></clipPath></defs><g
     inkscape:label="Layer 1"
     inkscape:groupmode="layer"
     id="layer1"
     transform="translate(-18.491467,-59.39168)"><g
       id="g3382"
       transform="matrix(0.20309806,0,0,0.20264192,149.23937,57.616918)"><g
         id="g3338"
         transform="matrix(0.90144407,0,0,0.89774674,-118.02793,30.000984)"><g
           transform="matrix(1.25,0,0,-1.25,-708.8199,347.27287)"
           id="g196"><g
             id="g198"
             clip-path="url(#clipPath200)"><g
               id="g204"
               transform="translate(100.48061,264.8557)"><path
                 d="m 0,0 h 5.432 c 2.2,0 3.84,-0.964 3.84,-2.995 0,-1.489 -0.761,-2.318 -2.081,-2.758 v -0.034 c 1.574,-0.322 2.386,-1.168 2.386,-2.606 0,-2.826 -2.488,-3.418 -4.603,-3.418 H 0 Z m 3.147,-4.671 h 0.88 c 1.032,0 2.099,0.254 2.099,1.253 0,1.082 -1.016,1.184 -2.066,1.184 H 3.147 Z m 0,-4.907 h 0.931 c 1.151,0 2.352,0.17 2.352,1.371 0,1.286 -1.235,1.404 -2.319,1.404 H 3.147 Z"
                 style="fill:#00529c;fill-opacity:1;fill-rule:nonzero;stroke:none"
                 id="path206" /></g></g></g><g
           id="g208"
           transform="matrix(1.25,0,0,-1.25,-566.08415,16.203244)"><path
             d="M 0,0 H 3.858 L 8.41,-11.811 H 4.958 l -0.88,2.521 h -4.433 l -0.931,-2.521 H -4.484 Z M 1.929,-2.437 H 1.895 l -1.523,-4.62 h 2.962 z"
             style="fill:#00529c;fill-opacity:1;fill-rule:nonzero;stroke:none"
             id="path210" /></g><g
           id="g212"
           transform="matrix(1.25,0,0,-1.25,-555.02428,16.203244)"><path
             d="M 0,0 H 4.01 L 8.004,-8.021 H 8.037 L 7.987,0 h 2.877 V -11.811 H 6.954 L 2.826,-3.739 H 2.793 l 0.1,-8.072 H 0 Z"
             style="fill:#00529c;fill-opacity:1;fill-rule:nonzero;stroke:none"
             id="path214" /></g><g
           id="g216"
           transform="matrix(1.25,0,0,-1.25,-540.1094,16.203244)"><path
             d="M 0,0 H 3.147 V -4.823 H 3.181 L 6.734,0 h 3.79 l -4.365,-5.499 4.704,-6.312 H 6.852 L 3.181,-6.447 H 3.147 v -5.364 H 0 Z"
             style="fill:#00529c;fill-opacity:1;fill-rule:nonzero;stroke:none"
             id="path218" /></g><g
           transform="matrix(1.25,0,0,-1.25,-708.8199,347.27287)"
           id="g220"><g
             id="g222"
             clip-path="url(#clipPath224)"><g
               id="g228"
               transform="translate(149.7343,264.8557)"><path
                 d="m 0,0 h 5.432 c 2.199,0 3.841,-0.964 3.841,-2.995 0,-1.489 -0.761,-2.318 -2.081,-2.758 v -0.034 c 1.574,-0.322 2.385,-1.168 2.385,-2.606 0,-2.826 -2.487,-3.418 -4.602,-3.418 H 0 Z m 3.147,-4.671 h 0.88 c 1.033,0 2.098,0.254 2.098,1.253 0,1.082 -1.014,1.184 -2.064,1.184 H 3.147 Z m 0,-4.907 h 0.931 c 1.15,0 2.352,0.17 2.352,1.371 0,1.286 -1.235,1.404 -2.318,1.404 H 3.147 Z"
                 style="fill:#00529c;fill-opacity:1;fill-rule:nonzero;stroke:none"
                 id="path230" /></g><g
               id="g232"
               transform="translate(160.00951,264.8557)"><path
                 d="m 0,0 h 5.618 c 2.098,0 3.807,-0.948 3.807,-2.979 0,-1.573 -0.744,-2.622 -2.267,-2.977 V -5.99 C 8.172,-6.261 8.24,-7.158 8.833,-8.596 l 1.15,-3.215 H 6.701 L 6.024,-9.68 c -0.643,2.031 -1.05,2.54 -2.217,2.54 h -0.66 v -4.671 H 0 Z m 3.147,-4.907 h 0.829 c 1.016,0 2.302,0.034 2.302,1.371 0,1.099 -1.1,1.302 -2.302,1.302 H 3.147 Z"
                 style="fill:#00529c;fill-opacity:1;fill-rule:nonzero;stroke:none"
                 id="path234" /></g></g></g><path
           d="m -495.2449,16.202874 h 3.93375 v 14.76375 h -3.93375 z"
           style="fill:#00529c;fill-opacity:1;fill-rule:nonzero;stroke:none"
           id="path236" /></g><g
         id="g246"
         transform="matrix(1.25,0,0,-1.25,-592.19652,8.7581244)"><path
           d="m 0,0 h -16.471 c -2,0 -3.621,-1.661 -3.621,-3.71 v -0.039 -16.273 c 0,-2.029 1.591,-3.679 3.565,-3.709 h 16.518 c 2,0 3.622,1.66 3.622,3.709 L 3.62,-3.71 C 3.62,-1.661 2,0 0,0 m -14.514,-21.83 -0.898,-0.01 c -1.088,0 -1.97,0.894 -1.97,1.997 l -0.005,0.157 v 15.064 l 0.006,0.812 c 0.041,1.067 0.852,1.925 1.913,1.925 h 1.827 c 1.656,0 2.998,-1.44 2.998,-3.137 0,-0.84 -0.329,-1.602 -0.862,-2.156 l -4.661,-4.73 4.369,-4.449 c 0.563,-0.581 0.903,-1.343 0.903,-2.178 0,-1.82 -1.62,-3.295 -3.62,-3.295 m 13.431,0.015 -8.145,0.003 c 0,0 0.941,2.035 0.941,3.295 0,1.537 -0.513,2.909 -1.317,3.817 l -2.786,2.84 2.843,2.938 c 0.847,0.795 1.409,2.207 1.409,3.816 0,1.274 -0.352,2.402 -0.919,3.221 h 1.973 c 1.656,0 2.999,-1.44 2.999,-3.137 0,-0.84 -0.329,-1.602 -0.862,-2.156 l -4.572,-4.681 9.496,-9.683 c -0.301,-0.189 -0.68,-0.273 -1.06,-0.273 m 1.989,3.023 -6.805,6.936 3.241,3.294 c 0.659,0.825 1.078,2.067 1.078,3.456 0,1.282 -0.357,2.439 -0.929,3.258 l 1.45,-0.044 c 1.088,0 1.97,-0.894 1.97,-1.997 z"
           style="fill:#00529c;fill-opacity:1;fill-rule:nonzero;stroke:none"
           id="path248" /></g></g></g></svg>
