<svg width="135" height="32" viewBox="0 0 135 32" fill="none" xmlns="http://www.w3.org/2000/svg">
<path id="bingBawah-akhir-for-AAs" d="M121.558 27.2625C123.379 28.2168 124.819 29.6284 125.662 31.2754C121.786 31.0324 117.829 28.951 115.485 25.9204C117.609 25.847 119.747 26.3146 121.558 27.2625ZM9.33714 31.2754C10.1802 29.6284 11.6195 28.2168 13.4418 27.2625C15.2518 26.3146 17.3889 25.8438 19.5139 25.9204C17.1696 28.951 13.2133 31.0324 9.33714 31.2754ZM0.23731 14.5877C0.295378 15.6307 0.607285 16.6449 1.19583 17.5507C2.48303 19.5313 5.02912 20.9883 8.00557 21.4475C11.3879 21.9687 14.6915 21.0527 16.4251 19.1123C17.7536 17.6254 18.0892 15.5484 17.2789 13.8216C16.4702 12.0943 14.5348 10.7579 12.3494 10.4179C10.2031 10.0849 8.00859 10.7981 7.01875 12.1542C6.44851 12.935 6.35144 13.9881 6.76496 14.9035C7.12728 15.7053 7.83822 16.2966 8.71572 16.525C8.9374 16.583 9.17354 16.4804 9.24233 16.2954C9.31188 16.1104 9.18812 15.9133 8.96634 15.8559C8.32809 15.6894 7.82664 15.2633 7.55223 14.656C7.22737 13.9384 7.2985 13.12 7.73643 12.5191C8.54897 11.4066 10.3827 10.8261 12.1958 11.1075C14.1021 11.4047 15.7899 12.5701 16.4961 14.0768C17.2024 15.5835 16.9097 17.3957 15.7509 18.6932C13.9959 20.6572 10.6732 21.1477 8.15843 20.7574C5.42886 20.3364 3.10214 19.0128 1.93495 17.2165C1.42663 16.4338 1.14685 15.5605 1.07958 14.6592C1.09041 14.6139 1.08822 14.5667 1.07522 14.5189C1.07368 14.5113 1.07302 14.5029 1.07085 14.4953C0.978333 12.4974 1.9193 10.3815 3.75531 8.82511C6.17072 6.7775 9.89096 5.69885 13.9574 5.8698C14.2914 5.88391 14.6285 5.90999 14.9671 5.93995C14.9823 5.94248 14.9932 5.94881 15.0077 5.95008C20.2276 6.39915 24.8214 9.83224 25.9298 14.1131C27.0297 18.3614 24.5875 23.0294 20.119 25.2575C19.7712 25.2301 19.4226 25.211 19.0748 25.211C16.9353 25.211 14.8143 25.7149 12.9951 26.6679C10.835 27.7995 9.17239 29.5263 8.31476 31.5311C8.26818 31.6389 8.2888 31.7595 8.36832 31.8533C8.44849 31.9464 8.57938 31.9974 8.71612 32C13.2443 31.9534 17.9803 29.4905 20.5394 25.8655C25.3152 23.4893 27.927 18.503 26.7514 13.9645C26.065 11.3121 24.1197 8.96983 21.5224 7.37385C22.5413 7.7132 23.5984 8.10677 24.7098 8.56732C44.5436 18.1701 57.0965 21.7471 66.8092 21.8786C79.6529 22.0526 87.5304 18.5315 105.724 10.6028C107.211 9.91709 108.748 9.20712 110.291 8.56732C111.402 8.10677 112.459 7.7132 113.478 7.37385C110.881 8.97047 108.936 11.3121 108.249 13.9645C107.074 18.503 109.685 23.4893 114.461 25.8655C117.02 29.4905 121.756 31.9534 126.284 32C126.418 32.0013 126.551 31.9464 126.631 31.8533C126.711 31.7595 126.732 31.6389 126.685 31.5311C125.827 29.5269 124.165 27.7995 122.005 26.6679C120.186 25.7149 118.064 25.2116 115.925 25.2116C115.577 25.2116 115.229 25.2307 114.881 25.2575C110.413 23.0301 107.97 18.3614 109.07 14.1131C110.179 9.83225 114.773 6.39915 119.993 5.95008C120.008 5.9488 120.019 5.94248 120.033 5.93995C120.371 5.90997 120.709 5.88383 121.043 5.8698C125.114 5.69886 128.829 6.77814 131.245 8.82511C133.081 10.3815 134.022 12.4974 133.929 14.4946C133.927 14.5029 133.927 14.5113 133.924 14.5189C133.911 14.5667 133.911 14.6139 133.92 14.6592C133.852 15.5605 133.573 16.4338 133.065 17.2165C131.897 19.0128 129.571 20.3364 126.841 20.7574C124.327 21.1452 121.003 20.6572 119.249 18.6932C118.089 17.3957 117.797 15.5835 118.503 14.0768C119.21 12.5701 120.898 11.4047 122.804 11.1075C124.618 10.8255 126.45 11.4066 127.263 12.5191C127.701 13.1194 127.772 13.9384 127.448 14.6554C127.173 15.2633 126.671 15.6894 126.033 15.8559C125.812 15.9133 125.688 16.1104 125.758 16.2954C125.826 16.4797 126.062 16.5824 126.284 16.525C127.162 16.2966 127.872 15.7053 128.235 14.9035C128.648 13.9881 128.551 12.935 127.981 12.1542C126.991 10.7981 124.8 10.0849 122.65 10.4179C120.465 10.7579 118.53 12.0936 117.72 13.8217C116.911 15.5484 117.246 17.6254 118.575 19.1123C120.308 21.0521 123.612 21.9674 126.994 21.4476C129.971 20.9883 132.517 19.5314 133.804 17.5507C134.393 16.6449 134.705 15.6307 134.763 14.5878C135.784 10.6278 133.441 6.10646 129.032 3.56258C125.182 1.34084 119.868 0.533913 114.451 1.34849C108.916 2.18093 103.946 4.52515 100.689 6.21618C100.327 6.40371 99.9655 6.59444 99.6034 6.78581C97.0997 8.10559 94.5109 9.47066 91.6356 9.97459C88.5607 10.513 84.6387 9.78259 83.0962 7.34205C82.2883 6.06373 82.273 4.46838 83.0572 3.17922C83.8399 1.89005 85.3916 0.957463 87.1053 0.746324C88.495 0.577278 89.8663 0.896877 90.773 1.60428C91.736 2.35635 92.0931 3.57407 91.6227 4.50091C91.1354 5.46156 89.7003 6.01525 88.6104 5.6625C88.3972 5.59361 88.1502 5.68163 88.0662 5.86279C87.9821 6.04332 88.0898 6.2468 88.3062 6.31696C89.8196 6.80749 91.7311 6.08669 92.397 4.7752C93.01 3.56769 92.5783 2.05271 91.3475 1.09206C90.4456 0.387837 89.176 -2.38419e-07 87.8361 -2.38419e-07C87.554 -2.38419e-07 87.2681 0.0171775 86.983 0.0523103C85.0033 0.295982 83.2116 1.37273 82.3074 2.86155C81.4016 4.35037 81.4192 6.19258 82.3525 7.66992C84.0891 10.4173 88.4239 11.2548 91.8088 10.6616C94.8319 10.1315 97.4857 8.732 100.052 7.37905C100.413 7.18896 100.773 6.99887 101.134 6.81133C106.216 4.17304 110.495 2.65616 114.6 2.03933C119.797 1.25664 124.885 2.02269 128.554 4.13988C131.432 5.80029 133.373 8.34991 133.969 10.9901C133.476 10.0224 132.764 9.11218 131.844 8.33332C129.435 6.29146 125.838 5.15092 121.872 5.15092C121.584 5.15092 121.293 5.15725 121.001 5.16942C117.663 5.30783 114.141 6.18812 109.917 7.93911C108.357 8.58592 106.812 9.29907 105.317 9.98926C103.52 10.8185 101.661 11.6765 99.7785 12.4177C90.4965 15.0357 79.8405 25.0044 67.367 14.8812L67.3662 14.8806C67.2607 14.8229 67.1451 14.8806 67.0481 14.8806C67.0481 14.8806 67.046 14.8806 67.0438 14.8812C57.6942 25.7227 42.5407 15.1869 35.5799 12.5373C33.6965 11.7961 31.48 10.8185 29.6822 9.98863C28.1879 9.29908 26.6423 8.58592 25.083 7.93911C20.8583 6.18812 17.3369 5.30784 13.9982 5.16942C13.7069 5.1573 13.4156 5.15092 13.1275 5.15092C9.16188 5.15092 5.5641 6.29146 3.15558 8.33332C2.23604 9.11218 1.52356 10.0224 1.03052 10.9901C1.62598 8.34991 3.56827 5.80029 6.44612 4.13988C10.1143 2.02274 15.2005 1.25792 20.399 2.03933C24.5044 2.65616 28.7841 4.17304 33.8664 6.81133C34.2272 6.99887 34.5871 7.18895 34.9487 7.37968C37.5147 8.73263 40.1686 10.1315 43.1909 10.6616C46.5763 11.2542 50.9095 10.4179 52.6469 7.66929C53.5803 6.19258 53.5978 4.35037 52.6928 2.86155C51.7878 1.37273 49.9962 0.295982 48.0172 0.0523103C47.7313 0.0172317 47.4462 -2.38419e-07 47.1634 -2.38419e-07C45.8242 -2.38419e-07 44.5539 0.387837 43.6527 1.09206C42.4213 2.05335 41.9894 3.56769 42.6032 4.7752C43.2682 6.08606 45.1783 6.80686 46.6933 6.31696C46.9095 6.24681 47.0174 6.04332 46.9333 5.86279C46.8493 5.68164 46.6047 5.59361 46.3891 5.6625C45.2999 6.01589 43.8652 5.4622 43.3767 4.50091C42.9066 3.5747 43.2636 2.35635 44.2267 1.60428C45.1324 0.896868 46.5037 0.576647 47.8949 0.746324C49.6079 0.957463 51.1595 1.89005 51.943 3.17922C52.7265 4.46838 52.7112 6.06373 51.9034 7.34205C50.3609 9.78259 46.4396 10.5136 43.3645 9.97459C40.4897 9.47066 37.9009 8.10623 35.3983 6.78644C35.0352 6.59508 34.6729 6.40435 34.3106 6.21618C31.0536 4.52515 26.0837 2.18093 20.5489 1.34849C15.1311 0.533913 9.81792 1.3409 5.96779 3.56258C1.55813 6.10583 -0.783885 10.6278 0.23731 14.5877Z" fill="white"/>
</svg>
