<svg width="149" height="36" viewBox="0 0 149 36" fill="none" xmlns="http://www.w3.org/2000/svg">
<path id="bing-akhir-for-desktop" d="M14.8362 5.3297C12.8257 4.25614 11.2369 2.66804 10.3067 0.815149C14.5845 1.08856 18.9516 3.43015 21.5385 6.83956C19.1948 6.92209 16.8343 6.39608 14.8362 5.3297ZM138.695 0.815149C137.764 2.66804 136.175 4.25614 134.164 5.3297C132.167 6.39608 129.808 6.92568 127.462 6.83956C130.05 3.43015 134.416 1.08856 138.695 0.815149ZM148.738 19.5888C148.674 18.4155 148.33 17.2745 147.68 16.2554C146.259 14.0272 143.449 12.3882 140.164 11.8715C136.431 11.2852 132.785 12.3157 130.872 14.4987C129.405 16.1715 129.035 18.5081 129.929 20.4506C130.822 22.394 132.958 23.8974 135.37 24.2799C137.739 24.6545 140.161 23.8522 141.253 22.3265C141.883 21.4481 141.99 20.2633 141.533 19.2336C141.134 18.3315 140.349 17.6663 139.38 17.4094C139.136 17.3441 138.875 17.4596 138.799 17.6677C138.722 17.8758 138.859 18.0976 139.104 18.1622C139.808 18.3495 140.362 18.8288 140.665 19.512C141.023 20.3193 140.945 21.24 140.461 21.916C139.564 23.1675 137.541 23.8206 135.539 23.5041C133.435 23.1697 131.573 21.8586 130.793 20.1636C130.014 18.4686 130.337 16.4298 131.616 14.9702C133.553 12.7606 137.22 12.2088 139.996 12.648C143.008 13.1216 145.576 14.6107 146.864 16.6315C147.425 17.512 147.734 18.4944 147.808 19.5084C147.797 19.5594 147.799 19.6125 147.813 19.6663C147.815 19.6748 147.816 19.6842 147.818 19.6928C147.92 21.9404 146.882 24.3208 144.855 26.0718C142.189 28.3753 138.083 29.5888 133.595 29.3965C133.226 29.3806 132.854 29.3513 132.481 29.3176C132.464 29.3147 132.452 29.3076 132.436 29.3062C126.675 28.801 121.604 24.9387 120.381 20.1228C119.167 15.3435 121.863 10.0919 126.795 7.58527C127.178 7.61613 127.563 7.63765 127.947 7.63765C130.308 7.63765 132.649 7.07074 134.657 5.99861C137.041 4.72556 138.876 2.78295 139.823 0.527476C139.874 0.406198 139.852 0.270568 139.764 0.165076C139.675 0.0603152 139.531 0.00289268 139.38 2.44598e-05C134.382 0.052405 129.155 2.82313 126.331 6.90136C121.059 9.57449 118.177 15.1841 119.474 20.29C120.232 23.2738 122.379 25.9089 125.246 27.7044C124.121 27.3227 122.954 26.8799 121.728 26.3618C99.8371 15.5586 85.9824 11.5345 75.2624 11.3865C61.0868 11.1909 52.3924 15.152 32.3118 24.0718C30.6711 24.8433 28.9746 25.642 27.2718 26.3618C26.0452 26.8799 24.879 27.3227 23.7543 27.7044C26.6206 25.9082 28.7673 23.2738 29.5255 20.29C30.8223 15.1841 27.9401 9.57449 22.6691 6.90136C19.8448 2.82313 14.6169 0.0524111 9.62006 2.44598e-05C9.47251 -0.00140965 9.32508 0.0602949 9.2364 0.165076C9.14816 0.27057 9.12597 0.4062 9.17714 0.527476C10.1242 2.78224 11.9585 4.72556 14.3424 5.99861C16.3503 7.07074 18.6924 7.63693 21.0529 7.63693C21.4369 7.63693 21.8215 7.61541 22.2053 7.58527C27.137 10.0912 29.8331 15.3434 28.6187 20.1228C27.3951 24.9387 22.325 28.801 16.5638 29.3062C16.5471 29.3076 16.5349 29.3147 16.5194 29.3176C16.1457 29.3513 15.7729 29.3807 15.4045 29.3965C10.9118 29.5888 6.81091 28.3746 4.14487 26.0718C2.1182 24.3208 1.07979 21.9404 1.18231 19.6936C1.18459 19.6842 1.18467 19.6748 1.18706 19.6663C1.20141 19.6124 1.20144 19.5593 1.19188 19.5084C1.26673 18.4944 1.57449 17.512 2.13602 16.6315C3.42451 14.6106 5.99236 13.1216 9.00542 12.648C11.7795 12.2116 15.448 12.7606 17.3848 14.9702C18.6644 16.4298 18.9874 18.4686 18.2073 20.1636C17.4276 21.8586 15.5644 23.1697 13.4612 23.5041C11.4589 23.8213 9.43649 23.1675 8.53981 21.916C8.05641 21.2407 7.97792 20.3193 8.33532 19.5127C8.63819 18.8288 9.19245 18.3494 9.89636 18.1621C10.1412 18.0976 10.2777 17.8758 10.2008 17.6677C10.125 17.4603 9.86542 17.3448 9.61991 17.4094C8.65132 17.6663 7.86706 18.3315 7.467 19.2335C7.01093 20.2633 7.11806 21.4481 7.74717 22.3265C8.83993 23.8521 11.2581 24.6544 13.6312 24.2798C16.0421 23.8973 18.1775 22.3947 19.0716 20.4506C19.9653 18.508 19.5952 16.1715 18.1287 14.4987C16.216 12.3164 12.5687 11.2866 8.83625 11.8715C5.55062 12.3882 2.74099 14.0272 1.32032 16.2554C0.670119 17.2745 0.326098 18.4155 0.261816 19.5888C-0.865209 24.0437 1.72071 29.1302 6.58649 31.9921C10.836 34.4916 16.7011 35.3993 22.6801 34.4829C28.7895 33.5465 34.2742 30.9092 37.8688 29.0068C38.2683 28.7958 38.6677 28.5813 39.0674 28.366C41.8307 26.8812 44.6879 25.3455 47.8614 24.7786C51.2552 24.1729 55.5839 24.9946 57.2864 27.7402C58.1781 29.1783 58.195 30.9731 57.3294 32.4234C56.4656 33.8737 54.753 34.9229 52.8615 35.1604C51.3278 35.3506 49.8143 34.991 48.8135 34.1952C47.7506 33.3491 47.3566 31.9792 47.8757 30.9365C48.4135 29.8557 49.9974 29.2328 51.2004 29.6297C51.4357 29.7072 51.7083 29.6082 51.801 29.4044C51.8938 29.2013 51.775 28.9724 51.5361 28.8934C49.8657 28.3416 47.756 29.1525 47.0211 30.6279C46.3445 31.9863 46.8209 33.6907 48.1794 34.7714C49.1748 35.5637 50.5761 36 52.055 36C52.3663 36 52.6819 35.9807 52.9965 35.9412C55.1816 35.667 57.159 34.4557 58.157 32.7808C59.1567 31.1058 59.1373 29.0333 58.1073 27.3713C56.1905 24.2806 51.4063 23.3383 47.6703 24.0057C44.3336 24.6021 41.4047 26.1765 38.5722 27.6986C38.1738 27.9124 37.7764 28.1263 37.3786 28.3373C31.7694 31.3053 27.0463 33.0118 22.5154 33.7058C16.7796 34.5863 11.1641 33.7245 7.11443 31.3426C3.93823 29.4747 1.7956 26.6063 1.1378 23.6361C1.68187 24.7248 2.4681 25.7488 3.48316 26.625C6.14189 28.9221 10.112 30.2052 14.4894 30.2052C14.8077 30.2052 15.1287 30.1981 15.4506 30.1844C19.1349 30.0287 23.0226 29.0384 27.6847 27.0685C29.4055 26.3408 31.1116 25.5385 32.7613 24.7621C34.7448 23.8292 36.7964 22.864 38.8741 22.0301C49.1187 19.0849 60.8797 7.87001 74.6468 19.2587L74.6476 19.2594C74.7641 19.3242 74.8917 19.2594 74.9987 19.2594C74.9987 19.2594 75.0011 19.2594 75.0035 19.2587C85.3227 7.06202 102.048 18.9147 109.73 21.8955C111.809 22.7294 114.255 23.8292 116.24 24.7628C117.889 25.5385 119.595 26.3408 121.316 27.0685C125.979 29.0384 129.865 30.0287 133.55 30.1844C133.872 30.198 134.193 30.2052 134.511 30.2052C138.888 30.2052 142.859 28.9221 145.517 26.625C146.532 25.7488 147.318 24.7248 147.863 23.6361C147.205 26.6063 145.062 29.4747 141.885 31.3426C137.837 33.7244 132.223 34.5848 126.486 33.7058C121.954 33.0118 117.231 31.3053 111.622 28.3373C111.223 28.1263 110.826 27.9124 110.427 27.6979C107.595 26.1758 104.666 24.6021 101.33 24.0057C97.5936 23.339 92.811 24.2798 90.8934 27.3721C89.8633 29.0333 89.8439 31.1058 90.8427 32.7808C91.8416 34.4557 93.819 35.667 96.0032 35.9412C96.3187 35.9806 96.6334 36 96.9455 36C98.4236 36 99.8257 35.5637 100.82 34.7714C102.179 33.69 102.656 31.9863 101.979 30.6279C101.245 29.1532 99.1365 28.3423 97.4644 28.8934C97.2258 28.9723 97.1067 29.2013 97.1995 29.4044C97.2923 29.6082 97.5622 29.7072 97.8001 29.6297C99.0023 29.2321 100.586 29.855 101.125 30.9365C101.644 31.9785 101.25 33.3491 100.187 34.1952C99.1872 34.991 97.6736 35.3513 96.1382 35.1604C94.2476 34.9229 92.5351 33.8737 91.6703 32.4234C90.8056 30.9731 90.8224 29.1783 91.714 27.7402C93.4165 24.9946 97.7444 24.1722 101.138 24.7786C104.311 25.3455 107.169 26.8805 109.931 28.3652C110.331 28.5805 110.731 28.7951 111.131 29.0068C114.726 30.9092 120.211 33.5465 126.32 34.4829C132.3 35.3993 138.164 34.4915 142.413 31.9921C147.28 29.1309 149.865 24.0438 148.738 19.5888Z" fill="white"/>
</svg>
