<svg width="175" height="42" viewBox="0 0 175 42" fill="none" xmlns="http://www.w3.org/2000/svg">
<g id="corak-tasyakuran">
<g id="Group 1745">
<rect id="Rectangle 9086" y="25" width="175" height="11" fill="white"/>
<g id="Group 1744">
<g id="Group 1694">
<path id="path829" d="M106.645 21.8182C103.437 29.1329 97.7367 35.7568 90.9804 40.032C86.5893 37.4303 82.0716 34.7251 78.4358 31.0488C74.3334 26.9017 72.0444 22.0374 71.9881 17.3535C71.9542 14.4986 73.0305 10.6013 76.1757 9.00885C77.1039 8.53814 78.1636 8.30568 79.2829 8.30568C80.6189 8.30568 82.0369 8.65643 83.4151 9.31162C82.2123 9.1379 81.0483 9.31081 80.063 9.86425C77.5961 11.2483 76.7515 14.5532 76.7771 16.9638C76.8185 20.7734 78.4854 24.7128 81.471 28.0574C84.1191 31.0248 87.3893 33.1715 90.5519 35.2488C90.6106 35.2869 90.676 35.3059 90.743 35.3059C90.8117 35.3059 90.8812 35.2852 90.9407 35.2447C95.9233 31.8082 99.9645 26.6395 102.321 20.6915C103.226 18.4032 103.613 16.6205 103.573 14.9089C103.521 12.6554 102.628 10.6642 101.186 9.58297C100.124 8.78631 98.7625 8.49347 97.3744 8.70277C97.3835 8.69781 97.3925 8.69036 97.4025 8.6854C100.106 7.18474 103.227 7.14504 105.353 8.58365C107.143 9.79476 108.295 12.1508 108.361 14.7352C108.415 16.8058 107.886 18.9906 106.645 21.8182ZM95.2565 10.22C97.1328 9.06677 99.2969 9.03532 100.769 10.1389C102.023 11.0795 102.831 12.9135 102.877 14.9254C102.914 16.5386 102.544 18.2378 101.674 20.4342C99.4317 26.096 95.4534 31.2234 90.7372 34.5382C87.673 32.5255 84.5228 30.4325 81.9897 27.5941C79.1166 24.3753 77.5117 20.598 77.4729 16.9572C77.4497 14.736 78.2025 11.7049 80.403 10.4706C81.0458 10.1099 81.7788 9.93207 82.5539 9.93207C83.5929 9.93207 84.7065 10.2531 85.7703 10.8851C86.3643 11.2383 86.9161 11.666 87.4414 12.1343C87.6308 12.308 87.8195 12.4834 88.0056 12.6629C88.0304 12.6869 88.0552 12.71 88.08 12.734C88.1082 12.7613 88.1355 12.7894 88.1628 12.8159C88.8742 13.5307 89.5393 14.3091 90.1937 15.0752C90.2657 15.1587 90.3724 15.2034 90.4857 15.196C90.5809 15.1885 90.6619 15.1356 90.7215 15.0636C90.8174 15.0313 90.9052 14.9792 90.9631 14.894C92.0981 13.218 93.4399 11.7049 94.8421 10.4979C94.9811 10.402 95.1192 10.3044 95.2565 10.22ZM105.873 7.81512C103.462 6.18458 99.9595 6.20609 96.9516 7.87468C94.6882 9.13046 92.3694 11.3087 90.5229 13.9005C88.6897 11.9696 86.7697 10.0239 84.3524 8.72676C81.4115 7.14917 78.1984 6.94483 75.7563 8.18076C72.2305 9.96599 71.0227 14.2438 71.0599 17.3642C71.1195 22.2897 73.5045 27.3824 77.7765 31.7015C81.5628 35.5309 86.2336 38.2981 90.7504 40.9743C90.8232 41.0173 90.9051 41.0388 90.987 41.0388C91.0714 41.0388 91.1566 41.0157 91.2319 40.9693C98.3505 36.5385 104.126 29.8691 107.494 22.1913C108.793 19.2322 109.346 16.9249 109.289 14.7103C109.214 11.7901 107.937 9.21154 105.873 7.81512Z" fill="url(#paint0_linear_444_46)"/>
<path id="path831" d="M90.3294 18.0915C89.5856 17.2203 88.8254 16.3352 87.8716 15.7685C86.9185 15.2018 85.7231 14.9983 84.7577 15.5402C83.5838 16.1987 83.0486 17.7837 83.0643 19.2422C83.0883 21.4774 84.1555 23.5737 85.5734 25.1629C86.993 26.7521 88.7493 27.9094 90.4849 29.0494C93.1503 27.2112 95.3566 24.3894 96.6174 21.2044C97.0029 20.2307 97.3114 19.1917 97.2874 18.1278C97.2618 17.0648 96.8573 15.9687 96.0623 15.3731C95.1275 14.6724 93.8328 14.8006 92.8459 15.407C91.859 16.0142 90.9622 17.0557 90.3294 18.0915Z" fill="url(#paint1_linear_444_46)"/>
<path id="path833" d="M83.6178 6.02337C84.6139 6.73978 85.7224 7.28082 86.7705 7.91781C87.8079 8.54819 88.7477 9.28528 89.4608 10.2755C88.5864 8.21811 87.2925 6.34271 85.6744 4.80069C85.2318 4.37796 84.7288 3.96432 84.1224 3.88491C83.5169 3.80549 82.8121 4.21085 82.7939 4.82137C82.7782 5.32766 83.2067 5.72804 83.6178 6.02337Z" fill="url(#paint2_linear_444_46)"/>
<path id="path835" d="M94.0766 7.91934C95.0966 7.23933 96.182 6.65197 97.1474 5.89586C97.5462 5.58315 97.9565 5.16537 97.9201 4.65991C97.8754 4.05022 97.1549 3.67465 96.5526 3.77971C95.9512 3.88395 95.4656 4.31909 95.0412 4.7592C93.4893 6.36822 92.2749 8.29573 91.4873 10.3879C92.1582 9.36869 93.0657 8.59273 94.0766 7.91934Z" fill="url(#paint3_linear_444_46)"/>
<path id="path837" d="M90.4195 10.2679C90.4195 10.2679 90.6661 9.0907 90.7587 8.7267C90.8836 8.24027 91.0069 7.753 91.1269 7.26491C91.3659 6.28957 91.5934 5.31011 91.7953 4.32567C92.0137 3.26263 92.2023 2.15824 91.9665 1.09851C91.8565 0.603809 91.5653 0.057817 91.0615 0.00404491C90.5519 -0.0497272 90.149 0.435043 89.9555 0.908238C89.627 1.71316 89.6022 2.60496 89.6155 3.47441C89.6312 4.56722 89.6982 5.65921 89.8165 6.74541C89.9273 7.77204 90.0291 9.31157 90.4195 10.2679Z" fill="url(#paint4_linear_444_46)"/>
<path id="path839" d="M62.72 14.1826C60.7238 14.1296 58.8774 15.1852 58.0049 16.69C57.5108 17.2559 57.2009 17.9872 57.2009 18.7979C57.2009 20.574 58.6406 22.0135 60.4169 22.0135C62.1936 22.0135 63.6332 20.574 63.6332 18.7979C63.6332 17.0631 62.2573 15.6593 60.5391 15.5939C61.1899 15.2754 61.9341 15.0942 62.6974 15.1099C64.6098 15.1571 66.5407 16.3674 67.5011 18.1204C68.9414 20.7478 68.0124 24.3132 65.4296 26.0687C63.7825 27.1888 61.5026 27.7058 58.6612 27.6165C54.0233 27.4635 49.559 25.8776 45.2418 24.3447C41.7766 23.1137 38.1929 21.8406 34.4784 21.2772C33.0794 21.0646 31.2665 20.9 29.6492 21.5105C28.1136 22.0904 26.6943 23.5853 26.9512 25.3225C27.1822 26.8869 28.9218 28.1029 30.6025 27.8697C31.4546 27.7522 32.2424 27.274 32.7647 26.5576C33.2393 25.9041 33.4301 25.148 33.3014 24.4258C33.2572 24.1743 33.0171 24.0047 32.764 24.051C32.5113 24.0957 32.3433 24.3364 32.3882 24.5887C32.4722 25.0594 32.3394 25.5649 32.0146 26.0116C31.6404 26.5262 31.0798 26.8678 30.4761 26.9514C29.2921 27.1119 28.027 26.2565 27.8689 25.1868C27.686 23.9493 28.8184 22.8159 29.9771 22.3783C31.3926 21.8439 33.0522 22.0002 34.3394 22.1946C37.9658 22.7448 41.5071 24.0022 44.9316 25.2191C49.3154 26.776 53.8485 28.3859 58.6305 28.5431C58.857 28.5505 59.0791 28.5546 59.2988 28.5546C62.0369 28.5546 64.2727 27.9772 65.9516 26.8364C68.9182 24.8195 69.978 20.7097 68.3152 17.6745C67.1826 15.6096 64.9862 14.2388 62.72 14.1826Z" fill="url(#paint5_linear_444_46)"/>
<path id="path841" d="M20.9717 23.4836L10.4377 24.1049C10.2056 24.1181 10.015 24.3034 10.0008 24.5417C9.98591 24.7973 10.1814 25.0174 10.4377 25.0323L20.9717 25.6535C21.0121 25.656 21.059 25.656 21.1 25.6535C21.6995 25.618 22.1567 25.1042 22.1212 24.5045C22.086 23.9055 21.5712 23.4481 20.9717 23.4836Z" fill="url(#paint6_linear_444_46)"/>
<path id="path843" d="M169.563 24.1048L159.028 23.4835C158.988 23.4811 158.941 23.4811 158.9 23.4835C158.301 23.5191 157.844 24.0329 157.879 24.6326C157.914 25.2324 158.429 25.689 159.028 25.6535L169.563 25.0322C169.795 25.0189 169.985 24.8336 169.999 24.5954C170.014 24.3398 169.819 24.1197 169.563 24.1048Z" fill="url(#paint7_linear_444_46)"/>
<path id="path845" d="M150.066 21.5105C148.45 20.9 146.637 21.0646 145.237 21.2772C141.522 21.8406 137.939 23.1137 134.473 24.3447C130.156 25.8776 125.692 27.4635 121.054 27.6165C118.212 27.7058 115.933 27.1888 114.285 26.0687C111.703 24.3132 110.774 20.7478 112.214 18.1204C113.175 16.3674 115.106 15.1571 117.018 15.1099C117.776 15.0901 118.523 15.2721 119.176 15.5939C117.458 15.6593 116.082 17.0631 116.082 18.7979C116.082 20.574 117.522 22.0135 119.298 22.0135C121.075 22.0135 122.515 20.574 122.515 18.7979C122.515 17.983 122.202 17.2476 121.703 16.6801C120.823 15.1819 118.969 14.1321 116.996 14.1826C114.729 14.2388 112.533 15.6096 111.401 17.6745C109.737 20.7097 110.798 24.8195 113.763 26.8364C115.443 27.9772 117.678 28.5546 120.416 28.5546C120.636 28.5546 120.859 28.5505 121.085 28.5431C125.866 28.3859 130.4 26.776 134.783 25.2191C138.208 24.0022 141.75 22.7448 145.376 22.1946C146.665 21.9994 148.324 21.8439 149.738 22.3783C150.897 22.8159 152.03 23.9493 151.847 25.1868C151.689 26.2565 150.42 27.1119 149.239 26.9514C148.636 26.8678 148.075 26.5262 147.7 26.0116C147.376 25.5649 147.244 25.0594 147.327 24.5887C147.372 24.3364 147.204 24.0957 146.952 24.051C146.699 24.0014 146.459 24.1743 146.414 24.4258C146.286 25.148 146.476 25.9041 146.951 26.5576C147.473 27.274 148.26 27.7522 149.112 27.8697C150.791 28.1046 152.532 26.8877 152.764 25.3225C153.022 23.5853 151.602 22.0904 150.066 21.5105Z" fill="url(#paint8_linear_444_46)"/>
</g>
</g>
</g>
</g>
<defs>
<linearGradient id="paint0_linear_444_46" x1="90.1758" y1="41.0388" x2="90.1758" y2="6.60754" gradientUnits="userSpaceOnUse">
<stop offset="0.282403" stop-color="#5E887C"/>
<stop offset="1" stop-color="#EFC207" stop-opacity="0.66"/>
</linearGradient>
<linearGradient id="paint1_linear_444_46" x1="90.1764" y1="29.0494" x2="90.1764" y2="14.898" gradientUnits="userSpaceOnUse">
<stop offset="0.282403" stop-color="#5E887C"/>
<stop offset="1" stop-color="#EFC207" stop-opacity="0.66"/>
</linearGradient>
<linearGradient id="paint2_linear_444_46" x1="86.1271" y1="10.2755" x2="86.1271" y2="3.87499" gradientUnits="userSpaceOnUse">
<stop offset="0.282403" stop-color="#5E887C"/>
<stop offset="1" stop-color="#EFC207" stop-opacity="0.66"/>
</linearGradient>
<linearGradient id="paint3_linear_444_46" x1="94.7048" y1="10.3879" x2="94.7048" y2="3.76215" gradientUnits="userSpaceOnUse">
<stop offset="0.282403" stop-color="#5E887C"/>
<stop offset="1" stop-color="#EFC207" stop-opacity="0.66"/>
</linearGradient>
<linearGradient id="paint4_linear_444_46" x1="90.8441" y1="10.2679" x2="90.8441" y2="-5.34058e-05" gradientUnits="userSpaceOnUse">
<stop offset="0.282403" stop-color="#5E887C"/>
<stop offset="1" stop-color="#EFC207" stop-opacity="0.66"/>
</linearGradient>
<linearGradient id="paint5_linear_444_46" x1="48.0114" y1="28.5546" x2="48.0114" y2="14.1807" gradientUnits="userSpaceOnUse">
<stop offset="0.282403" stop-color="#5E887C"/>
<stop offset="1" stop-color="#EFC207" stop-opacity="0.66"/>
</linearGradient>
<linearGradient id="paint6_linear_444_46" x1="16.0616" y1="25.6554" x2="16.0616" y2="23.4817" gradientUnits="userSpaceOnUse">
<stop offset="0.282403" stop-color="#5E887C"/>
<stop offset="1" stop-color="#EFC207" stop-opacity="0.66"/>
</linearGradient>
<linearGradient id="paint7_linear_444_46" x1="163.938" y1="25.6554" x2="163.938" y2="23.4817" gradientUnits="userSpaceOnUse">
<stop offset="0.282403" stop-color="#5E887C"/>
<stop offset="1" stop-color="#EFC207" stop-opacity="0.66"/>
</linearGradient>
<linearGradient id="paint8_linear_444_46" x1="131.704" y1="28.5546" x2="131.704" y2="14.1808" gradientUnits="userSpaceOnUse">
<stop offset="0.282403" stop-color="#5E887C"/>
<stop offset="1" stop-color="#EFC207" stop-opacity="0.66"/>
</linearGradient>
</defs>
</svg>
