<svg width="169" height="26" viewBox="0 0 169 26" fill="none" xmlns="http://www.w3.org/2000/svg">
<g id="Group 1590">
<path id="Vector 11" d="M0.00223878 23.7303L18.2849 23.3841L38.8548 22.6102L48.5707 21.7809L59.4314 20.518L73.7197 19.2725L93.156 16.735L113.739 13.3244L137.641 8.95614L168.646 0.860311L155.489 4.30883L139.471 8.62167L137.641 8.95614L110.87 15.9465L99.4332 18.0854L89.715 19.3542L80.5681 20.6259L71.9924 21.9005L62.8478 22.7327L46.8457 23.9694L34.847 24.3476L15.9953 24.2514L0.00223878 23.7303Z" fill="#2989A8"/>
<path id="MetaShare" d="M0.8685 4.77295C1.45444 4.79248 2.06479 4.80225 2.69955 4.80225C3.34409 4.80225 3.93002 4.80225 4.45737 4.80225C4.5062 4.80225 4.65756 4.80225 4.91147 4.80225C5.17514 4.79248 5.45834 4.7876 5.76108 4.7876C6.06381 4.7876 6.34702 4.7876 6.61069 4.7876C6.88412 4.77783 7.05502 4.77295 7.12338 4.77295L12.9242 20.564C12.9339 20.5151 13.0218 20.2612 13.1878 19.8022C13.3636 19.3335 13.5833 18.7329 13.847 18.0005C14.1205 17.2583 14.4281 16.4282 14.7699 15.5103C15.1117 14.5825 15.4583 13.6401 15.8099 12.6831C16.1712 11.7163 16.5228 10.7739 16.8646 9.85596C17.2064 8.92822 17.514 8.09814 17.7874 7.36572C18.0609 6.62354 18.2806 6.01807 18.4466 5.54932C18.6224 5.08057 18.7201 4.82178 18.7396 4.77295C18.7787 4.77295 18.8812 4.77295 19.0472 4.77295C19.2132 4.77295 19.4085 4.77783 19.6331 4.7876C19.8578 4.7876 20.0921 4.79248 20.3363 4.80225C20.5902 4.80225 20.8294 4.80713 21.054 4.81689C21.2787 4.81689 21.4691 4.81689 21.6253 4.81689C21.7816 4.81689 21.8792 4.81689 21.9183 4.81689C22.1624 4.81689 22.4212 4.81689 22.6947 4.81689C22.9779 4.81689 23.2562 4.81689 23.5296 4.81689C23.8128 4.80713 24.0863 4.80225 24.3499 4.80225C24.6136 4.79248 24.8578 4.78271 25.0824 4.77295V6.22314H24.1742C23.7933 6.22314 23.4955 6.24756 23.2806 6.29639C23.0755 6.33545 22.9242 6.39893 22.8265 6.48682C22.7289 6.56494 22.6703 6.66748 22.6507 6.79443C22.6312 6.92139 22.6214 7.06787 22.6214 7.23389V20.9155C22.6214 21.228 22.641 21.4722 22.68 21.6479C22.7289 21.8237 22.8119 21.9556 22.929 22.0435C23.0462 22.1216 23.2074 22.1704 23.4124 22.1899C23.6273 22.2095 23.9007 22.2192 24.2328 22.2192H25.1263V23.6694C24.7845 23.6694 24.4525 23.6694 24.1302 23.6694C23.8177 23.6597 23.4906 23.6548 23.1488 23.6548C22.8167 23.6548 22.4603 23.6548 22.0794 23.6548C21.6986 23.645 21.2738 23.6401 20.805 23.6401C20.4437 23.6401 20.1214 23.645 19.8382 23.6548C19.5648 23.6548 19.3109 23.6548 19.0765 23.6548C18.8421 23.6548 18.6126 23.6597 18.388 23.6694C18.1732 23.6694 17.9437 23.6694 17.6996 23.6694V22.2192H18.5785C18.9691 22.2192 19.2718 22.1899 19.4867 22.1313C19.7113 22.063 19.8724 21.9702 19.9701 21.853C20.0775 21.7358 20.141 21.5991 20.1605 21.4429C20.18 21.2769 20.1898 21.0962 20.1898 20.9009V6.09131L18.8568 9.57764L13.554 23.6694H11.8988C11.5374 22.7417 11.1664 21.77 10.7855 20.7544C10.4046 19.7388 10.0189 18.7134 9.62827 17.6782C9.24741 16.6333 8.86166 15.5933 8.47104 14.5581C8.08041 13.5132 7.69955 12.4976 7.32846 11.5112C6.95737 10.5249 6.60092 9.57764 6.25912 8.66943C5.91733 7.76123 5.59506 6.92139 5.29233 6.1499V21.0181C5.29233 21.3013 5.30698 21.5259 5.33627 21.6919C5.37534 21.8481 5.44858 21.9653 5.556 22.0435C5.66342 22.1216 5.81967 22.1704 6.02475 22.1899C6.22983 22.2095 6.50327 22.2192 6.84506 22.2192H7.72397V23.6694C7.47006 23.6694 7.2308 23.6694 7.0062 23.6694C6.78159 23.6597 6.54233 23.6548 6.28842 23.6548C6.04428 23.6548 5.78061 23.6548 5.49741 23.6548C5.2142 23.645 4.89194 23.6401 4.53061 23.6401C4.13998 23.6401 3.77866 23.645 3.44662 23.6548C3.11459 23.6548 2.79721 23.6548 2.49448 23.6548C2.20151 23.6548 1.91342 23.6597 1.63022 23.6694C1.34702 23.6694 1.05893 23.6694 0.765961 23.6694V22.2192H1.67416C2.11362 22.2192 2.44077 22.1948 2.65561 22.146C2.88022 22.0972 3.03647 22.0239 3.12436 21.9263C3.22202 21.8286 3.27084 21.7017 3.27084 21.5454C3.28061 21.3892 3.28549 21.2036 3.28549 20.9888L3.30014 7.27783C3.30014 7.03369 3.27084 6.84326 3.21225 6.70654C3.15366 6.56006 3.06088 6.45264 2.93393 6.38428C2.81674 6.31592 2.65561 6.27197 2.45053 6.25244C2.25522 6.23291 2.01596 6.22314 1.73276 6.22314H0.8685V4.77295ZM41.4505 17.561H31.0794C31.0892 18.3423 31.2113 19.0308 31.4456 19.6265C31.68 20.2222 32.0121 20.73 32.4417 21.1499C32.8714 21.5601 33.3841 21.8774 33.9798 22.1021C34.5853 22.3267 35.2542 22.439 35.9867 22.439C37.0121 22.439 37.9007 22.229 38.6527 21.8091C39.4046 21.3892 39.9857 20.7397 40.3958 19.8608L42.1683 20.1392C41.7191 21.3794 40.9281 22.3315 39.7953 22.9956C38.6722 23.6499 37.2904 23.9771 35.6497 23.9771C34.5462 23.9771 33.555 23.811 32.6761 23.479C31.7972 23.147 31.0501 22.6782 30.4349 22.0728C29.8294 21.4673 29.3656 20.7593 29.0433 19.9487C28.721 19.1284 28.5599 18.1958 28.5599 17.1509C28.5599 16.0962 28.7259 15.1489 29.058 14.3091C29.39 13.4595 29.8587 12.7319 30.4642 12.1265C31.0697 11.521 31.7972 11.0522 32.6468 10.7202C33.5062 10.3882 34.4583 10.2222 35.5033 10.2222C36.558 10.2222 37.5052 10.3833 38.3451 10.7056C39.1849 11.0181 39.8978 11.4771 40.4837 12.0825C41.0697 12.688 41.5189 13.4253 41.8314 14.2944C42.1537 15.1636 42.3197 16.1646 42.3294 17.2974L41.4505 17.561ZM39.9564 16.2427C39.8392 14.7681 39.3997 13.6499 38.638 12.8882C37.8763 12.1265 36.8412 11.7456 35.5326 11.7456C34.9173 11.7456 34.3558 11.853 33.848 12.0679C33.3402 12.2729 32.8958 12.5659 32.515 12.9468C32.1341 13.3179 31.8216 13.7769 31.5775 14.3237C31.3431 14.8706 31.182 15.5103 31.0941 16.2427H39.9564ZM50.0257 6.85303V10.5591H53.5414V11.8628H50.0404V19.2017C50.0404 19.6997 50.0453 20.1489 50.055 20.5493C50.0648 20.9399 50.1087 21.2769 50.1869 21.5601C50.2747 21.8433 50.4115 22.063 50.597 22.2192C50.7826 22.3657 51.0511 22.439 51.4027 22.439C51.5394 22.439 51.6761 22.4146 51.8128 22.3657C51.9496 22.3071 52.0667 22.2144 52.1644 22.0874C52.2718 21.9604 52.3548 21.7993 52.4134 21.604C52.4818 21.3989 52.516 21.1499 52.516 20.8569L53.849 20.7251C53.849 21.3013 53.766 21.7944 53.5999 22.2046C53.4437 22.6147 53.2289 22.9517 52.9554 23.2153C52.6917 23.4692 52.3792 23.6597 52.0179 23.7866C51.6566 23.9136 51.2757 23.9771 50.8753 23.9771C50.1917 23.9771 49.6351 23.8647 49.2054 23.6401C48.7855 23.4155 48.4535 23.1079 48.2093 22.7173C47.9749 22.3169 47.8138 21.8286 47.7259 21.2524C47.638 20.6763 47.5941 20.0366 47.5941 19.3335V11.8628H45.1917V10.7056C45.4359 10.6958 45.7093 10.6812 46.0121 10.6616C46.3148 10.6323 46.6029 10.6079 46.8763 10.5884C47.1986 10.5591 47.5208 10.5298 47.8431 10.5005C47.8529 10.4321 47.8675 10.3101 47.8871 10.1343C47.9066 9.94873 47.9261 9.73877 47.9456 9.50439C47.9652 9.26025 47.9896 9.01123 48.0189 8.75732C48.0482 8.49365 48.0726 8.25439 48.0921 8.03955C48.1117 7.81494 48.1263 7.62939 48.1361 7.48291C48.1556 7.32666 48.1654 7.24365 48.1654 7.23389L50.0257 6.85303ZM69.221 20.3882C69.221 20.896 69.2357 21.2866 69.265 21.5601C69.304 21.8237 69.3724 22.019 69.4701 22.146C69.5677 22.2632 69.7044 22.3315 69.8802 22.3511C70.0658 22.3608 70.305 22.3657 70.598 22.3657H71.2572V23.6694C70.4857 23.6694 69.7191 23.6743 68.9574 23.6841C68.2054 23.6938 67.5023 23.7085 66.848 23.728V21.7212C66.2621 22.4731 65.5638 23.0396 64.7533 23.4204C63.9525 23.7915 63.015 23.9771 61.9408 23.9771C61.2376 23.9771 60.6029 23.8745 60.0365 23.6694C59.4701 23.4741 58.9867 23.2007 58.5863 22.8491C58.1859 22.4976 57.8734 22.0776 57.6488 21.5894C57.4339 21.1011 57.3265 20.564 57.3265 19.978C57.3265 19.353 57.4535 18.7866 57.7074 18.2788C57.9613 17.7612 58.3324 17.3218 58.8206 16.9604C59.3089 16.5991 59.8997 16.3208 60.5931 16.1255C61.2962 15.9204 62.097 15.8179 62.9955 15.8179C63.6107 15.8179 64.2308 15.8667 64.8558 15.9644C65.4808 16.0522 66.1156 16.1792 66.7601 16.3452V14.2358C66.7601 13.3472 66.4622 12.6685 65.8665 12.1997C65.2806 11.731 64.3773 11.4966 63.1566 11.4966C62.1312 11.4966 61.3255 11.6968 60.7396 12.0972C60.1634 12.4878 59.7777 13.0981 59.5824 13.9282L58.2347 13.7671L58.4251 11.189C59.0501 10.9058 59.7777 10.6763 60.6078 10.5005C61.4476 10.3149 62.39 10.2222 63.4349 10.2222C64.4701 10.2222 65.3539 10.3149 66.0863 10.5005C66.8187 10.686 67.4144 10.9692 67.8734 11.3501C68.3421 11.731 68.6839 12.2192 68.8988 12.8149C69.1136 13.4009 69.221 14.0942 69.221 14.895V20.3882ZM63.5521 17.0483C62.9662 17.0483 62.4388 17.1167 61.9701 17.2534C61.5013 17.3804 61.1009 17.5659 60.7689 17.8101C60.4466 18.0542 60.1976 18.3521 60.0218 18.7036C59.846 19.0552 59.7581 19.4556 59.7581 19.9048C59.7581 20.3052 59.8265 20.6616 59.9632 20.9741C60.1097 21.2769 60.3099 21.5356 60.5638 21.7505C60.8275 21.9653 61.14 22.1362 61.5013 22.2632C61.8626 22.3901 62.2581 22.4487 62.6878 22.439C63.1566 22.4487 63.6302 22.3804 64.1087 22.2339C64.597 22.0776 65.0365 21.8628 65.4271 21.5894C65.8177 21.3062 66.1351 20.9546 66.3792 20.5347C66.6331 20.105 66.7601 19.5923 66.7601 18.9966V17.561C66.1742 17.395 65.6175 17.2681 65.0902 17.1802C64.5628 17.0923 64.0501 17.0483 63.5521 17.0483ZM87.5667 9.88525H85.8529C85.8431 9.77783 85.8333 9.67529 85.8236 9.57764C85.8236 9.47998 85.8236 9.38232 85.8236 9.28467C85.804 8.77686 85.682 8.31787 85.4574 7.90771C85.2328 7.49756 84.9154 7.15088 84.5052 6.86768C84.1048 6.58447 83.6263 6.36475 83.0697 6.2085C82.513 6.05225 81.8929 5.97412 81.2093 5.97412C80.5941 5.97412 80.0374 6.05225 79.5394 6.2085C79.0511 6.35498 78.6361 6.56494 78.2943 6.83838C77.9525 7.11182 77.6888 7.43896 77.5033 7.81982C77.3275 8.19092 77.2396 8.59619 77.2396 9.03564C77.2396 9.50439 77.3324 9.90967 77.5179 10.2515C77.7035 10.5933 77.9574 10.896 78.2796 11.1597C78.6019 11.4233 78.9828 11.6577 79.4222 11.8628C79.8714 12.0581 80.3548 12.2485 80.8724 12.4341C81.39 12.6099 81.9369 12.7905 82.513 12.9761C83.0892 13.1616 83.6703 13.3618 84.2562 13.5767C84.8617 13.811 85.4134 14.0796 85.9115 14.3823C86.4193 14.6753 86.8539 15.022 87.2152 15.4224C87.5765 15.8228 87.8548 16.2817 88.0501 16.7993C88.2552 17.3071 88.3578 17.8931 88.3578 18.5571C88.3578 19.3286 88.2064 20.0464 87.9037 20.7104C87.6107 21.3745 87.1908 21.9556 86.6439 22.4536C86.1068 22.9419 85.4525 23.3276 84.681 23.6108C83.9193 23.8843 83.0697 24.021 82.1322 24.021C80.8138 24.021 79.6761 23.8403 78.7191 23.479C77.7718 23.1079 77.0394 22.6001 76.5218 21.9556V23.6694H74.5882V17.6929H76.346C76.346 18.396 76.4388 19.0356 76.6244 19.6118C76.8099 20.188 77.1029 20.6812 77.5033 21.0913C77.9037 21.5015 78.4164 21.8188 79.0414 22.0435C79.6761 22.2681 80.4378 22.3804 81.3265 22.3804C81.971 22.3804 82.5619 22.2974 83.099 22.1313C83.6361 21.9653 84.0951 21.731 84.4759 21.4282C84.8665 21.1157 85.1693 20.7446 85.3841 20.3149C85.599 19.8755 85.7064 19.3872 85.7064 18.8501C85.7064 18.147 85.516 17.5757 85.1351 17.1362C84.7542 16.687 84.2513 16.3062 83.6263 15.9937C83.0013 15.6812 82.2884 15.4028 81.4876 15.1587C80.6966 14.9048 79.891 14.6216 79.0706 14.3091C78.348 14.0356 77.7132 13.7427 77.1664 13.4302C76.6195 13.1079 76.1605 12.7515 75.7894 12.3608C75.4281 11.9702 75.1546 11.5308 74.9691 11.0425C74.7835 10.5542 74.6908 10.0024 74.6908 9.38721C74.6908 8.69385 74.8275 8.04443 75.1009 7.43896C75.3744 6.8335 75.7699 6.31104 76.2874 5.87158C76.805 5.42236 77.4349 5.0708 78.1771 4.81689C78.9193 4.55322 79.7591 4.42139 80.6966 4.42139C81.1751 4.42139 81.6341 4.4458 82.0736 4.49463C82.5228 4.54346 82.9525 4.63135 83.3626 4.7583C83.7826 4.87549 84.1878 5.0415 84.5785 5.25635C84.9691 5.46143 85.3597 5.72998 85.7503 6.06201V4.84619C85.9847 4.84619 86.2679 4.85107 86.5999 4.86084C86.932 4.86084 87.2542 4.86084 87.5667 4.86084V9.88525ZM103.466 15.8765C103.466 15.1636 103.427 14.5435 103.349 14.0161C103.281 13.4888 103.144 13.0591 102.939 12.7271C102.743 12.3853 102.47 12.1362 102.118 11.98C101.777 11.8237 101.327 11.7456 100.771 11.7456C100.243 11.7456 99.7503 11.8286 99.2914 11.9946C98.8421 12.1606 98.4369 12.3755 98.0755 12.6392C97.724 12.8931 97.4164 13.1665 97.1527 13.4595C96.889 13.7427 96.679 14.0112 96.5228 14.2651V21.7358C96.5228 21.8921 96.557 22.0142 96.6253 22.1021C96.6937 22.1899 96.8109 22.2534 96.9769 22.2925C97.1429 22.3315 97.3675 22.356 97.6507 22.3657C97.9437 22.3657 98.3099 22.3657 98.7494 22.3657V23.6694C98.4662 23.6694 98.1927 23.6694 97.929 23.6694C97.6654 23.6694 97.3919 23.6694 97.1087 23.6694C96.8255 23.6694 96.5277 23.6694 96.2152 23.6694C95.9027 23.6597 95.5609 23.6499 95.1898 23.6401C94.848 23.6401 94.5306 23.645 94.2376 23.6548C93.9447 23.6548 93.6615 23.6548 93.388 23.6548C93.1244 23.6548 92.8656 23.6597 92.6117 23.6694C92.3578 23.6694 92.099 23.6694 91.8353 23.6694V22.3657C92.3822 22.3657 92.807 22.356 93.1097 22.3364C93.4124 22.3071 93.6322 22.2681 93.7689 22.2192C93.9154 22.1606 94.0033 22.0874 94.0326 21.9995C94.0619 21.9019 94.0765 21.7847 94.0765 21.6479V6.6333C94.0765 6.48682 94.0228 6.37451 93.9154 6.29639C93.8177 6.2085 93.6712 6.1499 93.4759 6.12061C93.2904 6.08154 93.0658 6.06201 92.8021 6.06201C92.5384 6.05225 92.2455 6.04736 91.9232 6.04736V4.729C92.099 4.729 92.2796 4.73389 92.4652 4.74365C92.6605 4.74365 92.8851 4.74365 93.139 4.74365C93.6761 4.74365 94.223 4.73877 94.7796 4.729C95.3363 4.70947 95.9124 4.68994 96.5081 4.67041C96.5081 5.23682 96.5081 5.84717 96.5081 6.50146C96.5179 7.15576 96.5228 7.82471 96.5228 8.5083C96.5228 9.18213 96.5228 9.85107 96.5228 10.5151C96.5228 11.1694 96.5228 11.7798 96.5228 12.3462C97.2259 11.6138 98.0023 11.0767 98.8519 10.7349C99.7113 10.3931 100.659 10.2222 101.694 10.2222C102.602 10.2222 103.334 10.3638 103.891 10.647C104.448 10.9302 104.877 11.355 105.18 11.9214C105.483 12.478 105.683 13.1763 105.781 14.0161C105.888 14.856 105.942 15.8374 105.942 16.9604V21.4868C105.942 21.7114 105.976 21.8823 106.044 21.9995C106.113 22.1167 106.225 22.2046 106.381 22.2632C106.547 22.312 106.762 22.3413 107.026 22.3511C107.289 22.3608 107.621 22.3657 108.022 22.3657V23.6694C107.758 23.6694 107.499 23.6694 107.245 23.6694C107.001 23.6694 106.747 23.6694 106.484 23.6694C106.22 23.6694 105.937 23.6694 105.634 23.6694C105.341 23.6597 105.019 23.6499 104.667 23.6401C103.964 23.6401 103.349 23.645 102.822 23.6548C102.304 23.6646 101.782 23.6694 101.254 23.6694V22.3657C101.684 22.356 102.04 22.3413 102.324 22.3218C102.607 22.3022 102.831 22.2681 102.997 22.2192C103.173 22.1606 103.295 22.0776 103.364 21.9702C103.432 21.8628 103.466 21.7163 103.466 21.5308V15.8765ZM123.028 20.3882C123.028 20.896 123.042 21.2866 123.072 21.5601C123.111 21.8237 123.179 22.019 123.277 22.146C123.374 22.2632 123.511 22.3315 123.687 22.3511C123.872 22.3608 124.112 22.3657 124.405 22.3657H125.064V23.6694C124.292 23.6694 123.526 23.6743 122.764 23.6841C122.012 23.6938 121.309 23.7085 120.655 23.728V21.7212C120.069 22.4731 119.37 23.0396 118.56 23.4204C117.759 23.7915 116.822 23.9771 115.747 23.9771C115.044 23.9771 114.41 23.8745 113.843 23.6694C113.277 23.4741 112.793 23.2007 112.393 22.8491C111.993 22.4976 111.68 22.0776 111.455 21.5894C111.241 21.1011 111.133 20.564 111.133 19.978C111.133 19.353 111.26 18.7866 111.514 18.2788C111.768 17.7612 112.139 17.3218 112.627 16.9604C113.116 16.5991 113.706 16.3208 114.4 16.1255C115.103 15.9204 115.904 15.8179 116.802 15.8179C117.417 15.8179 118.037 15.8667 118.662 15.9644C119.287 16.0522 119.922 16.1792 120.567 16.3452V14.2358C120.567 13.3472 120.269 12.6685 119.673 12.1997C119.087 11.731 118.184 11.4966 116.963 11.4966C115.938 11.4966 115.132 11.6968 114.546 12.0972C113.97 12.4878 113.584 13.0981 113.389 13.9282L112.041 13.7671L112.232 11.189C112.857 10.9058 113.584 10.6763 114.414 10.5005C115.254 10.3149 116.197 10.2222 117.242 10.2222C118.277 10.2222 119.16 10.3149 119.893 10.5005C120.625 10.686 121.221 10.9692 121.68 11.3501C122.149 11.731 122.491 12.2192 122.705 12.8149C122.92 13.4009 123.028 14.0942 123.028 14.895V20.3882ZM117.359 17.0483C116.773 17.0483 116.245 17.1167 115.777 17.2534C115.308 17.3804 114.908 17.5659 114.576 17.8101C114.253 18.0542 114.004 18.3521 113.828 18.7036C113.653 19.0552 113.565 19.4556 113.565 19.9048C113.565 20.3052 113.633 20.6616 113.77 20.9741C113.916 21.2769 114.117 21.5356 114.37 21.7505C114.634 21.9653 114.947 22.1362 115.308 22.2632C115.669 22.3901 116.065 22.4487 116.494 22.439C116.963 22.4487 117.437 22.3804 117.915 22.2339C118.404 22.0776 118.843 21.8628 119.234 21.5894C119.624 21.3062 119.942 20.9546 120.186 20.5347C120.44 20.105 120.567 19.5923 120.567 18.9966V17.561C119.981 17.395 119.424 17.2681 118.897 17.1802C118.369 17.0923 117.857 17.0483 117.359 17.0483ZM138.546 13.313H137.667C137.472 12.8442 137.228 12.5269 136.935 12.3608C136.642 12.1851 136.242 12.0972 135.734 12.0972C135.255 12.0972 134.816 12.2095 134.415 12.4341C134.015 12.6587 133.668 12.981 133.375 13.4009C133.082 13.811 132.853 14.3091 132.687 14.895C132.531 15.4712 132.448 16.1157 132.438 16.8286C132.428 16.8384 132.423 16.9604 132.423 17.1948C132.423 17.4194 132.418 17.7026 132.409 18.0444C132.409 18.3862 132.409 18.7573 132.409 19.1577C132.409 19.5483 132.409 19.9194 132.409 20.271C132.409 20.6226 132.409 20.9204 132.409 21.1646C132.409 21.3989 132.409 21.5259 132.409 21.5454C132.409 21.7505 132.448 21.9116 132.526 22.0288C132.614 22.1362 132.755 22.2192 132.951 22.2778C133.146 22.3267 133.405 22.356 133.727 22.3657C134.049 22.3657 134.445 22.3657 134.913 22.3657V23.6694C134.601 23.6694 134.298 23.6694 134.005 23.6694C133.722 23.6597 133.424 23.6548 133.112 23.6548C132.799 23.6548 132.467 23.6548 132.116 23.6548C131.774 23.645 131.393 23.6401 130.973 23.6401C130.612 23.6401 130.285 23.645 129.992 23.6548C129.699 23.6548 129.42 23.6548 129.157 23.6548C128.903 23.6548 128.654 23.6597 128.41 23.6694C128.165 23.6694 127.911 23.6694 127.648 23.6694V22.3657C128.204 22.3657 128.634 22.356 128.937 22.3364C129.249 22.3071 129.479 22.2583 129.625 22.1899C129.772 22.1216 129.855 22.0239 129.874 21.897C129.904 21.77 129.918 21.6089 129.918 21.4136V12.5366C129.918 12.3706 129.889 12.2437 129.83 12.1558C129.782 12.0581 129.674 11.9897 129.508 11.9507C129.352 11.9019 129.127 11.8774 128.834 11.8774C128.551 11.8677 128.18 11.8628 127.721 11.8628V10.5591C127.828 10.5591 127.994 10.564 128.219 10.5737C128.453 10.5737 128.683 10.5737 128.908 10.5737H129.772C130.182 10.5737 130.592 10.564 131.002 10.5444C131.422 10.5249 131.852 10.5103 132.291 10.5005V13.1665C132.76 12.2485 133.41 11.5308 134.24 11.0132C135.079 10.4858 136.071 10.2222 137.213 10.2222C137.643 10.2222 138.087 10.2515 138.546 10.3101V13.313ZM154.548 17.561H144.177C144.187 18.3423 144.309 19.0308 144.543 19.6265C144.778 20.2222 145.11 20.73 145.539 21.1499C145.969 21.5601 146.482 21.8774 147.077 22.1021C147.683 22.3267 148.352 22.439 149.084 22.439C150.11 22.439 150.998 22.229 151.75 21.8091C152.502 21.3892 153.083 20.7397 153.493 19.8608L155.266 20.1392C154.817 21.3794 154.026 22.3315 152.893 22.9956C151.77 23.6499 150.388 23.9771 148.747 23.9771C147.644 23.9771 146.653 23.811 145.774 23.479C144.895 23.147 144.148 22.6782 143.533 22.0728C142.927 21.4673 142.463 20.7593 142.141 19.9487C141.819 19.1284 141.658 18.1958 141.658 17.1509C141.658 16.0962 141.824 15.1489 142.156 14.3091C142.488 13.4595 142.956 12.7319 143.562 12.1265C144.167 11.521 144.895 11.0522 145.744 10.7202C146.604 10.3882 147.556 10.2222 148.601 10.2222C149.656 10.2222 150.603 10.3833 151.443 10.7056C152.283 11.0181 152.995 11.4771 153.581 12.0825C154.167 12.688 154.617 13.4253 154.929 14.2944C155.251 15.1636 155.417 16.1646 155.427 17.2974L154.548 17.561ZM153.054 16.2427C152.937 14.7681 152.497 13.6499 151.736 12.8882C150.974 12.1265 149.939 11.7456 148.63 11.7456C148.015 11.7456 147.453 11.853 146.946 12.0679C146.438 12.2729 145.993 12.5659 145.613 12.9468C145.232 13.3179 144.919 13.7769 144.675 14.3237C144.441 14.8706 144.28 15.5103 144.192 16.2427H153.054Z" fill="url(#paint0_linear_241_30)"/>
</g>
<defs>
<linearGradient id="paint0_linear_241_30" x1="76.0122" y1="2.66943" x2="88.0152" y2="27.0424" gradientUnits="userSpaceOnUse">
<stop offset="0.125" stop-color="#CCA829"/>
<stop offset="1" stop-color="#EC268F"/>
</linearGradient>
</defs>
</svg>
