<svg width="105" height="76" viewBox="0 0 105 76" fill="none" xmlns="http://www.w3.org/2000/svg">
<g id="note-demo-for-Apple-mini" filter="url(#filter0_d_298_25)">
<path id="path5092" d="M34.1101 2.44379e-06L105 51.3435V76L0 2.44379e-06H34.1101Z" fill="#D90003"/>
<path id="Demo" d="M45.795 27.3417L43.0935 25.3331L49.6026 16.5787L52.4238 18.6763C53.2731 19.3077 53.8694 20.0233 54.213 20.823C54.5586 21.6199 54.6498 22.4643 54.4866 23.3564C54.3255 24.2455 53.9081 25.1432 53.2343 26.0494C52.5563 26.9614 51.8101 27.6257 50.9958 28.0424C50.1836 28.4563 49.3355 28.609 48.4515 28.5005C47.5696 28.3891 46.6841 28.0028 45.795 27.3417ZM44.8528 25.1809L46.4258 26.3505C47.1497 26.8887 47.8534 27.195 48.5369 27.2696C49.2205 27.3442 49.8709 27.2104 50.488 26.8684C51.1052 26.5263 51.6787 25.9991 52.2084 25.2867C52.7339 24.5799 53.0708 23.8857 53.2193 23.204C53.3699 22.5194 53.3174 21.8697 53.062 21.255C52.8088 20.6375 52.3402 20.0744 51.6562 19.5659L49.9635 18.3073L44.8528 25.1809ZM54.6207 34.1163C53.9881 33.6459 53.5462 33.1005 53.295 32.4801C53.0488 31.859 52.9893 31.204 53.1164 30.5153C53.2485 29.8258 53.5646 29.1448 54.0646 28.4723C54.5647 27.7997 55.1279 27.2981 55.7544 26.9674C56.3858 26.6359 57.0294 26.4905 57.6851 26.5311C58.3458 26.5709 58.9725 26.8112 59.5653 27.2519C59.9072 27.5062 60.2026 27.8143 60.4512 28.1762C60.6999 28.5381 60.8657 28.949 60.9485 29.4089C61.0335 29.8659 61.0015 30.3643 60.8525 30.9039C60.7034 31.4436 60.4011 32.0198 59.9456 32.6325L59.6278 33.06L54.5666 29.2969L55.215 28.4249L59.2502 31.4252C59.5257 31.0547 59.6974 30.669 59.7653 30.2682C59.8361 29.8695 59.7986 29.4854 59.6529 29.1159C59.5101 28.7486 59.2562 28.4294 58.8915 28.1582C58.4897 27.8594 58.0678 27.7006 57.626 27.6819C57.1891 27.6624 56.7747 27.7525 56.3828 27.9523C55.9909 28.1521 55.6603 28.433 55.3912 28.7949L54.959 29.3762C54.5903 29.8721 54.3633 30.356 54.2779 30.8279C54.1975 31.2992 54.2444 31.7389 54.4187 32.1473C54.5951 32.5528 54.887 32.9071 55.2945 33.2101C55.5596 33.4071 55.8265 33.5481 56.0953 33.6329C56.3691 33.717 56.6405 33.7418 56.9095 33.7073C57.1807 33.6699 57.4438 33.5691 57.6988 33.4046L58.47 34.4029C58.1216 34.6572 57.7331 34.8196 57.3044 34.8903C56.8778 34.9581 56.4345 34.9294 55.9745 34.8042C55.5165 34.6762 55.0653 34.4468 54.6207 34.1163ZM59.3368 37.4104L64.2186 30.8446L65.1933 31.5693L64.4305 32.5952L64.516 32.6587C64.9134 32.4099 65.3366 32.302 65.7856 32.3349C66.2367 32.365 66.676 32.539 67.1035 32.8568C67.5366 33.1789 67.824 33.5452 67.9656 33.9558C68.1122 34.3657 68.1364 34.8063 68.0382 35.2776L68.1066 35.3285C68.5269 35.1144 68.9793 35.0326 69.4639 35.0831C69.9506 35.1308 70.4291 35.3295 70.8993 35.6791C71.4864 36.1156 71.8299 36.6564 71.9299 37.3016C72.032 37.944 71.7959 38.6513 71.2217 39.4235L67.9544 43.8178L66.9456 43.0678L70.2129 38.6735C70.5731 38.189 70.698 37.7442 70.5877 37.3392C70.4773 36.9341 70.2426 36.598 69.8835 36.3311C69.4219 35.9878 68.9604 35.8615 68.4991 35.9522C68.04 36.0401 67.6526 36.2963 67.3368 36.7209L64.1586 40.9955L63.1327 40.2327L66.4762 35.7358C66.7538 35.3625 66.8562 34.9718 66.7835 34.5637C66.7129 34.1528 66.4867 33.8054 66.1048 33.5215C65.8426 33.3265 65.5456 33.2141 65.2138 33.1842C64.8849 33.1565 64.5584 33.2147 64.2344 33.3588C63.9154 33.5021 63.6362 33.7348 63.3968 34.0569L60.3456 38.1605L59.3368 37.4104ZM72.7257 47.5778C72.1329 47.1371 71.7177 46.6093 71.4801 45.9945C71.2453 45.3819 71.1911 44.7287 71.3175 44.035C71.4467 43.3434 71.7635 42.6585 72.2678 41.9802C72.7763 41.2963 73.3441 40.7914 73.9713 40.4657C74.6014 40.142 75.2436 40.0044 75.8979 40.0528C76.5551 40.1034 77.1801 40.349 77.7728 40.7897C78.3655 41.2304 78.7793 41.7571 79.0141 42.3698C79.2517 42.9846 79.3049 43.6392 79.1735 44.3336C79.0451 45.0302 78.7265 45.7205 78.218 46.4044C77.7137 47.0826 77.1476 47.5822 76.5197 47.9029C75.8946 48.2259 75.2535 48.3621 74.5963 48.3115C73.942 48.2631 73.3184 48.0185 72.7257 47.5778ZM73.3995 46.6716C73.8497 47.0064 74.306 47.1664 74.7683 47.1517C75.2306 47.137 75.6714 46.9935 76.0908 46.7211C76.5101 46.4488 76.8829 46.0932 77.2092 45.6543C77.5355 45.2155 77.7697 44.7546 77.9119 44.2718C78.0541 43.7889 78.0667 43.3226 77.9498 42.8728C77.8329 42.423 77.5493 42.0307 77.099 41.6959C76.6487 41.3612 76.1914 41.2026 75.727 41.2201C75.2626 41.2377 74.8196 41.384 74.3982 41.6592C73.9767 41.9344 73.6029 42.2914 73.2766 42.7303C72.9503 43.1692 72.7171 43.6286 72.577 44.1086C72.437 44.5886 72.4265 45.052 72.5455 45.499C72.6646 45.9459 72.9492 46.3368 73.3995 46.6716Z" fill="white"/>
</g>
<defs>
<filter id="filter0_d_298_25" x="-4" y="0" width="113" height="84" filterUnits="userSpaceOnUse" color-interpolation-filters="sRGB">
<feFlood flood-opacity="0" result="BackgroundImageFix"/>
<feColorMatrix in="SourceAlpha" type="matrix" values="0 0 0 0 0 0 0 0 0 0 0 0 0 0 0 0 0 0 127 0" result="hardAlpha"/>
<feOffset dy="4"/>
<feGaussianBlur stdDeviation="2"/>
<feComposite in2="hardAlpha" operator="out"/>
<feColorMatrix type="matrix" values="0 0 0 0 0 0 0 0 0 0 0 0 0 0 0 0 0 0 0.23 0"/>
<feBlend mode="normal" in2="BackgroundImageFix" result="effect1_dropShadow_298_25"/>
<feBlend mode="normal" in="SourceGraphic" in2="effect1_dropShadow_298_25" result="shape"/>
</filter>
</defs>
</svg>
