<svg width="698" height="110" viewBox="0 0 698 110" fill="none" xmlns="http://www.w3.org/2000/svg">
<g id="wave-mempelai-for-tablets-mini">
<path id="Vector" fill-rule="evenodd" clip-rule="evenodd" d="M0 29.2565V13.9898C20.9656 29.935 77.726 30.4065 116.589 39.7968C154.941 48.7398 193.804 24.5935 232.667 15.2033C271.53 6.26016 310.393 12.0732 349.256 27.7236C387.607 42.9268 426.47 67.0732 465.333 67.0732C504.196 67.0732 543.059 42.9268 581.922 27.7236C620.274 12.0732 659.137 6.26016 678.569 3.13008L698 0V110H678.569C659.137 110 620.274 110 581.922 110C543.059 110 504.196 110 465.333 110C426.47 110 387.607 110 349.256 110C310.393 110 271.53 110 232.667 110C193.804 110 154.941 110 116.589 110C77.726 110 38.863 110 19.4315 110H0V29.2565Z" fill="#ABC1B9" fill-opacity="0.42"/>
<path id="Vector_2" fill-rule="evenodd" clip-rule="evenodd" d="M0 48.7461V37.1645C20.9656 49.2608 77.726 49.6185 116.589 56.7422C154.941 63.5266 193.804 45.2086 232.667 38.085C271.53 31.3006 310.393 35.7105 349.256 47.5832C387.607 59.1167 426.47 77.4346 465.333 77.4346C504.196 77.4346 543.059 59.1167 581.922 47.5832C620.274 35.7105 659.137 31.3006 678.569 28.9261L698 26.5515V110H678.569C659.137 110 620.274 110 581.922 110C543.059 110 504.196 110 465.333 110C426.47 110 387.607 110 349.256 110C310.393 110 271.53 110 232.667 110C193.804 110 154.941 110 116.589 110C77.726 110 38.863 110 19.4315 110H0V48.7461Z" fill="url(#paint0_linear_140_4)"/>
</g>
<defs>
<linearGradient id="paint0_linear_140_4" x1="349" y1="26.5515" x2="349" y2="110" gradientUnits="userSpaceOnUse">
<stop offset="0.204055" stop-color="#5E887C" stop-opacity="0.4"/>
<stop offset="0.704084" stop-color="#D6E1DE" stop-opacity="0.847607"/>
<stop offset="0.865552" stop-color="white"/>
</linearGradient>
</defs>
</svg>
