<svg width="794" height="110" viewBox="0 0 794 110" fill="none" xmlns="http://www.w3.org/2000/svg">
<g id="wave-mempelai-for-tablets">
<path id="Vector" fill-rule="evenodd" clip-rule="evenodd" d="M0 27.6606V13.2267C23.819 28.3022 88.3048 28.748 132.457 37.626C176.029 46.0813 220.181 23.252 264.333 14.374C308.486 5.9187 352.638 11.4146 396.79 26.2114C440.362 40.5854 484.514 63.4146 528.667 63.4146C572.819 63.4146 616.971 40.5854 661.124 26.2114C704.695 11.4146 748.848 5.9187 770.924 2.95935L793 0V104H770.924C748.848 104 704.695 104 661.124 104C616.971 104 572.819 104 528.667 104C484.514 104 440.362 104 396.79 104C352.638 104 308.486 104 264.333 104C220.181 104 176.029 104 132.457 104C88.3048 104 44.1524 104 22.0762 104H0V27.6606Z" fill="#ABC1B9" fill-opacity="0.42"/>
<path id="Vector_2" fill-rule="evenodd" clip-rule="evenodd" d="M0 44.2915V31.8676C23.8221 44.8437 88.3162 45.2274 132.474 52.8691C176.051 60.1469 220.21 40.4968 264.368 32.8551C308.526 25.5773 352.684 30.3079 396.842 43.044C440.419 55.4163 484.577 75.0665 528.735 75.0665C572.893 75.0665 617.052 55.4163 661.21 43.044C704.787 30.3079 748.945 25.5773 771.024 23.03L793.103 20.4828V110H771.024C748.945 110 704.787 110 661.21 110C617.052 110 572.893 110 528.735 110C484.577 110 440.419 110 396.842 110C352.684 110 308.526 110 264.368 110C220.21 110 176.051 110 132.474 110C88.3162 110 44.1581 110 22.0791 110H0V44.2915Z" fill="url(#paint0_linear_307_4)"/>
</g>
<defs>
<linearGradient id="paint0_linear_307_4" x1="396.552" y1="20.4828" x2="396.552" y2="110" gradientUnits="userSpaceOnUse">
<stop offset="0.204055" stop-color="#5E887C" stop-opacity="0.4"/>
<stop offset="0.755208" stop-color="#D6E1DE" stop-opacity="0.847607"/>
<stop offset="0.865552" stop-color="white"/>
</linearGradient>
</defs>
</svg>
