<svg width="360" height="57" viewBox="0 0 360 57" fill="none" xmlns="http://www.w3.org/2000/svg">
<g id="wave-mempelai-for-AAsmartphone">
<path id="Vector" fill-rule="evenodd" clip-rule="evenodd" d="M0 11.9685V5.7231C10.8132 12.2461 40.0879 12.439 60.1319 16.2805C79.9121 19.939 99.956 10.061 120 6.21951C140.044 2.56098 160.088 4.93903 180.132 11.3415C199.912 17.561 219.956 20.0455 240 20.0455C260.044 20.0455 280.088 17.561 300.132 11.3415C319.912 4.93903 339.956 2.56098 349.978 1.28049L360 0V45H349.978C339.956 45 319.912 45 300.132 45C280.088 45 260.044 45 240 45C219.956 45 199.912 45 180.132 45C160.088 45 140.044 45 120 45C99.956 45 79.9121 45 60.1319 45C40.0879 45 20.044 45 10.022 45H0V11.9685Z" fill="#C9D2D3" fill-opacity="0.42"/>
<path id="Vector_2" fill-rule="evenodd" clip-rule="evenodd" d="M0 25.4768V19.5166C10.8132 25.7417 40.0879 25.9258 60.1319 29.5919C79.9121 33.0834 99.956 23.6564 120 19.9903C140.044 16.4988 160.088 18.7683 180.132 24.8784C199.912 30.8139 219.956 33.1849 240 33.1849C260.044 33.1849 280.088 30.8139 300.132 24.8784C319.912 18.7683 339.956 16.4988 349.978 15.2768L360 14.0548V57H349.978C339.956 57 319.912 57 300.132 57C280.088 57 260.044 57 240 57C219.956 57 199.912 57 180.132 57C160.088 57 140.044 57 120 57C99.956 57 79.9121 57 60.1319 57C40.0879 57 20.044 57 10.022 57H0V25.4768Z" fill="url(#paint0_linear_289_2)"/>
</g>
<defs>
<linearGradient id="paint0_linear_289_2" x1="180" y1="14.0548" x2="180" y2="57" gradientUnits="userSpaceOnUse">
<stop offset="0.204055" stop-color="#5E887C" stop-opacity="0.4"/>
<stop offset="0.625" stop-color="#D6E1DE" stop-opacity="0.847607"/>
<stop offset="0.776042" stop-color="white"/>
</linearGradient>
</defs>
</svg>
