<svg width="1489" height="129" viewBox="0 0 1489 129" fill="none" xmlns="http://www.w3.org/2000/svg">
<g id="wave-mempelai-for-Desktop">
<g id="Group 1558">
<path id="Vector" fill-rule="evenodd" clip-rule="evenodd" d="M0 29.7884V14.2442C44.7245 30.4792 165.808 30.9594 248.712 40.5203C330.525 49.626 413.429 25.0406 496.333 15.4797C579.237 6.37398 662.141 12.2927 745.045 28.2276C826.859 43.7073 909.763 68.2927 992.667 68.2927C1075.57 68.2927 1158.47 43.7073 1241.38 28.2276C1323.19 12.2927 1406.1 6.37398 1447.55 3.18699L1489 0V112H1447.55C1406.1 112 1323.19 112 1241.38 112C1158.47 112 1075.57 112 992.667 112C909.763 112 826.859 112 745.045 112C662.141 112 579.237 112 496.333 112C413.429 112 330.525 112 248.712 112C165.808 112 82.904 112 41.452 112H0V29.7884Z" fill="#ABC1B9" fill-opacity="0.42"/>
<path id="Vector_2" fill-rule="evenodd" clip-rule="evenodd" d="M0 52.7113V38.2869C44.7245 53.3524 165.808 53.7979 248.712 62.67C330.525 71.1197 413.429 48.3056 496.333 39.4334C579.237 30.9837 662.141 36.476 745.045 51.263C826.859 65.6274 909.763 88.4416 992.667 88.4416C1075.57 88.4416 1158.47 65.6274 1241.38 51.263C1323.19 36.476 1406.1 30.9837 1447.55 28.0264L1489 25.069V129H1447.55C1406.1 129 1323.19 129 1241.38 129C1158.47 129 1075.57 129 992.667 129C909.763 129 826.859 129 745.045 129C662.141 129 579.237 129 496.333 129C413.429 129 330.525 129 248.712 129C165.808 129 82.904 129 41.452 129H0V52.7113Z" fill="url(#paint0_linear_128_5)"/>
</g>
</g>
<defs>
<linearGradient id="paint0_linear_128_5" x1="744.5" y1="25.069" x2="744.5" y2="129" gradientUnits="userSpaceOnUse">
<stop offset="0.204055" stop-color="#5E887C" stop-opacity="0.4"/>
<stop offset="0.704084" stop-color="#D6E1DE" stop-opacity="0.847607"/>
<stop offset="0.865552" stop-color="white"/>
</linearGradient>
</defs>
</svg>
