<svg width="161" height="22" viewBox="0 0 161 22" fill="none" xmlns="http://www.w3.org/2000/svg">
<path d="M83.1923 17.0283C83.1506 17.0457 83.0671 17.0803 83.1088 17.0977C83.1088 17.1324 83.2339 17.1845 83.2757 17.1671C83.526 17.1324 83.5678 17.0803 83.4009 17.0283C83.3592 17.0109 83.2758 17.0283 83.1923 17.0283ZM150.363 13.0535C151.364 12.6023 151.907 12.3419 152.533 12.1162C153.325 11.8212 154.202 11.5782 155.286 11.4914C158.874 11.1963 161.503 12.2724 160.919 13.8172C160.71 14.39 159.5 14.7198 158.123 14.5636C157.623 14.4942 157.164 14.39 156.663 14.3032C154.994 13.9735 154.869 13.9908 153.701 14.4768C151.198 15.5182 150.655 16.8547 150.28 18.2086C150.196 18.4689 150.238 18.7466 150.154 19.007C150.113 19.1805 149.988 19.3541 149.821 19.5103C149.529 19.7707 148.986 19.8922 148.277 19.8748C147.568 19.8401 147.151 19.6492 147.067 19.3715C146.859 18.5731 146.692 17.792 146.483 17.0109C146.149 15.848 145.44 14.7545 143.646 13.8346C143.187 13.6089 142.686 13.5222 141.977 13.6436C141.393 13.7478 140.767 13.7999 140.183 13.8867C138.723 14.0949 137.68 13.8172 136.887 13.366C136.136 12.9147 135.844 12.4113 136.303 11.8733C136.387 11.7865 136.512 11.6997 136.637 11.6476C138.222 10.9013 141.059 10.745 142.937 11.3525C144.063 11.7344 145.065 12.1857 146.149 12.5849C146.859 12.4808 146.65 12.2204 146.65 12.0295C146.441 10.6756 145.273 9.47798 143.062 8.47129C141.018 7.55134 138.598 6.85707 136.095 6.19749C132.673 5.31232 125.956 5.50322 122.785 6.45787C119.949 7.30835 118.572 8.33242 118.405 9.73831C118.363 10.0334 118.363 10.3458 118.405 10.6583C118.447 10.8839 118.655 11.0922 119.239 11.1616C119.782 11.231 120.241 11.1616 120.574 10.9533C120.825 10.8145 121.033 10.6409 121.325 10.5368C122.076 10.2417 123.37 10.4326 123.537 10.8492C123.912 11.6823 122.785 12.6369 119.949 12.4634C118.071 12.3419 116.527 12.0295 115.818 11.231C115.61 10.988 115.359 10.745 115.025 10.3979C114.567 10.8665 114.233 11.231 113.899 11.5955C112.898 12.6543 111.771 13.6957 110.478 14.7024C108.517 16.2125 105.555 17.2019 102.05 17.9829C99.7138 18.521 97.1688 18.8334 94.5404 19.007C93.4139 19.0764 92.6212 19.2673 91.9119 19.6318C91.2444 19.979 90.5352 20.2914 89.7842 20.6038C87.1141 21.6626 83.8181 22.0618 80.1884 21.9924C78.3109 21.9577 76.8089 21.437 76.2666 20.6733C75.9745 20.222 76.5587 19.7707 77.6434 19.6492C78.0606 19.5971 78.4778 19.5797 78.895 19.5971C80.0215 19.5971 80.4804 19.7359 80.6473 20.3087C80.7725 20.6732 81.0645 20.76 81.8155 20.76C84.4439 20.7253 86.7385 20.3088 88.6577 19.5451C88.8663 19.4583 89.075 19.3541 88.908 19.1459C87.6564 19.059 86.3631 18.9376 85.028 18.8681C81.9823 18.7119 79.3956 18.1218 76.9759 17.4101C72.5117 16.1257 68.6733 14.5636 65.3773 12.7585C62.0397 10.9013 57.9511 9.40854 53.3201 8.14147C52.2353 7.8464 51.2339 7.8464 50.0658 7.91583C48.9393 7.98526 48.0214 8.05471 47.479 8.50599C47.2288 8.73163 46.7281 8.81841 46.144 8.76637C45.5182 8.69694 45.0593 8.33243 45.0593 8.03736C45.0593 7.58608 46.1858 7.29101 46.1023 6.75295C40.6785 6.0066 35.2131 5.88506 29.6642 6.57933C28.7046 6.70085 28.0788 6.92649 27.4947 7.27365C26.243 8.02 25.5755 8.83574 25.3252 9.72096C25.2 10.0681 25.1166 10.4326 25.7424 10.7277C25.9927 10.8665 26.3265 11.0054 26.702 11.0401C27.2026 11.0922 27.3278 10.8665 27.3695 10.693C27.3695 10.6583 27.4112 10.6062 27.453 10.5715C27.7033 10.259 28.0788 9.99869 28.9549 9.99869C29.7059 10.016 30.3734 10.3632 30.4986 10.7451C30.6655 11.3178 29.8311 11.9253 28.6212 12.151C26.9106 12.446 24.8663 12.2204 23.7815 11.6129C22.7802 11.0748 22.1961 10.4673 22.4464 9.77305C22.5716 9.47798 22.9054 9.1829 22.4047 8.83574C21.0696 9.04404 20.3187 9.5474 19.4008 9.9466C18.6081 10.2938 17.9406 10.693 17.2313 11.0748C16.8141 11.2831 16.3134 11.4567 15.6042 11.3525C15.0618 11.2658 14.9784 10.8839 15.5207 10.5368C16.1048 10.1202 16.7724 9.72096 17.4399 9.32177C17.6485 9.1829 17.9823 9.07877 17.7737 8.80105C15.3956 9.1482 12.8923 9.26968 10.3891 9.28703C8.76193 9.28703 7.21827 9.1829 5.67458 9.04404C2.42034 8.74896 -0.0411981 7.42987 0.000522497 6.07603C0.0422431 5.41645 1.21043 4.77421 2.71238 4.618C4.1309 4.47918 5.42425 4.73952 6.21696 5.29493C7.05138 5.90242 6.30039 6.44051 4.50639 6.56199C3.79712 6.61407 3.58851 6.7356 3.79712 6.94385C4.29777 7.41252 5.09048 7.6902 6.38383 7.79437C10.8897 8.15883 15.2287 8.05471 19.3174 7.15214C22.4464 6.47522 25.7841 6.05867 29.0384 5.53796C30.9992 5.24289 33.0853 5.06929 35.2131 5.10402C37.3408 5.13872 39.4269 5.10402 41.3878 5.10402C41.9301 4.68744 41.4295 4.40975 41.3043 4.11467C41.054 3.47244 41.513 2.8997 42.3891 2.37898C43.307 1.84088 44.934 1.66732 46.3526 1.91031C47.1035 2.04917 47.5207 2.3269 47.4374 2.63932C47.3956 2.93439 46.9367 3.07326 45.8937 3.12534C44.5586 3.19473 44.2249 3.33359 44.2665 3.80227C44.3082 4.23616 44.7672 4.5833 45.5598 4.80895C47.3539 5.27757 48.9393 5.85038 50.8585 6.24958C56.908 7.46456 62.3318 9.04405 66.5456 11.2658C67.9641 12.0295 69.5077 12.7585 71.0514 13.4874C73.6799 14.7024 76.7255 15.7265 79.9798 16.6291C80.6056 16.7853 81.1897 16.9936 82.0241 16.9588C82.3161 16.9415 82.6916 16.8547 82.5665 16.7158C82.2327 16.3513 81.8155 15.9869 81.44 15.6224C80.7725 14.9107 80.397 14.1991 81.1479 13.4527C81.3148 13.2965 81.5235 13.1229 81.7321 12.9841C82.5665 12.5154 83.8598 12.4113 85.1115 12.7237C85.6955 12.8626 86.1545 13.0361 86.071 13.3486C86.0292 13.661 85.4869 13.7478 84.8194 13.8346C83.6511 13.9734 83.4843 14.1123 83.5678 14.5462C83.6512 14.9975 84.0267 15.3967 84.6942 15.7612C84.9029 15.8654 85.1115 15.9521 85.3618 16.0389C89.2835 17.7399 90.118 17.9829 96.9185 17.3581C97.8781 17.2713 98.9211 17.1671 99.7555 16.82C98.9211 16.4729 98.045 16.1604 97.2523 15.8133C96.4595 15.4835 96.1258 15.0669 96.4178 14.5983C96.5848 14.39 96.8767 14.1991 97.5026 14.1818C97.9615 14.147 98.3787 14.2685 98.5039 14.4247C99.1297 15.0149 100.048 15.4662 101.466 15.7439C102.593 15.9869 103.594 16.0216 104.637 15.605C105.68 15.1711 106.681 14.7198 107.39 14.1818C108.684 13.175 109.894 12.151 110.812 11.0748C111.479 10.3285 112.188 9.5821 113.023 8.88783C114.608 7.63816 115.109 7.42987 119.364 5.7983C119.281 5.45114 118.53 5.45114 118.029 5.36436C114.692 4.79161 112.188 3.40302 112.814 1.26813C112.898 0.851539 113.357 0.504417 114.149 0.261385C115.025 -0.0336435 116.277 -0.0857188 117.111 0.139922C117.988 0.365563 118.363 0.730056 118.405 1.1466C118.405 1.49376 117.904 1.70205 117.153 1.82352C116.653 1.89295 116.027 1.89297 115.943 2.17069C115.902 2.37899 115.902 2.62197 116.068 2.81287C116.736 3.61131 118.071 4.16671 120.115 4.32292C121.242 4.40975 122.41 4.39236 123.578 4.39236C126.123 4.35767 128.668 4.30559 131.171 4.2709C132.006 4.2709 132.924 4.23615 133.716 4.35766C135.26 4.60065 136.47 4.63539 137.388 3.92373C137.722 3.69809 138.681 3.8196 138.932 4.09728C138.973 4.13202 139.057 4.16672 139.057 4.20146C138.932 5.2255 140.559 5.72887 142.311 6.28432C146.108 7.48191 148.861 8.99201 149.904 11.0054C150.196 11.5955 150.113 12.203 150.363 13.0535Z" fill="url(#paint0_linear_468_2576)" fill-opacity="0.79"/>
<defs>
<linearGradient id="paint0_linear_468_2576" x1="80.5" y1="0" x2="80.5" y2="22" gradientUnits="userSpaceOnUse">
<stop stop-color="#1C2D46"/>
<stop offset="0.802083" stop-color="#71A8CA" stop-opacity="0.83"/>
</linearGradient>
</defs>
</svg>
