<svg width="161" height="22" viewBox="0 0 161 22" fill="none" xmlns="http://www.w3.org/2000/svg">
<path d="M77.8077 4.97174C77.8494 4.95435 77.9329 4.91965 77.8912 4.9023C77.8912 4.86757 77.7661 4.81554 77.7243 4.83289C77.474 4.86758 77.4322 4.91966 77.5991 4.97174C77.6408 4.98909 77.7242 4.97174 77.8077 4.97174ZM10.6369 8.94645C9.63558 9.39773 9.09322 9.65811 8.46741 9.88375C7.67467 10.1788 6.79847 10.4218 5.71378 10.5086C2.12574 10.8037 -0.502619 9.72756 0.0814056 8.18276C0.290009 7.61001 1.49995 7.28019 2.87671 7.4364C3.37738 7.50583 3.83635 7.61 4.33702 7.69678C6.00585 8.02655 6.13101 8.00921 7.29916 7.52323C9.8024 6.4818 10.3448 5.14529 10.7202 3.79145C10.8037 3.53107 10.7621 3.2534 10.8455 2.99302C10.8872 2.81946 11.0123 2.6459 11.1793 2.48969C11.4713 2.22931 12.0137 2.10785 12.7229 2.12519C13.4322 2.15989 13.8494 2.35082 13.9328 2.6285C14.1415 3.42694 14.3083 4.208 14.5169 4.98909C14.8507 6.15199 15.5599 7.2455 17.354 8.16541C17.8129 8.39105 18.3135 8.47783 19.0228 8.35636C19.6068 8.25219 20.2326 8.20015 20.8168 8.11332C22.277 7.90507 23.32 8.18276 24.1128 8.63404C24.8637 9.08533 25.1558 9.58868 24.6969 10.1267C24.6134 10.2135 24.4883 10.3003 24.363 10.3524C22.7777 11.0987 19.9407 11.255 18.0631 10.6475C16.9368 10.2656 15.9354 9.81432 14.8506 9.41512C14.1415 9.51925 14.3501 9.77964 14.3501 9.97054C14.5587 11.3244 15.7268 12.522 17.938 13.5287C19.9824 14.4487 22.4021 15.1429 24.9055 15.8025C28.3266 16.6877 35.0437 16.4968 38.2145 15.5421C41.0515 14.6916 42.4282 13.6676 42.5952 12.2617C42.6368 11.9666 42.6368 11.6542 42.5952 11.3417C42.5535 11.1161 42.3449 10.9078 41.7608 10.8384C41.2184 10.769 40.7594 10.8384 40.4257 11.0467C40.1754 11.1855 39.9668 11.3591 39.6747 11.4632C38.9238 11.7583 37.6304 11.5674 37.4635 11.1508C37.088 10.3177 38.2145 9.36305 41.0515 9.53661C42.9289 9.65812 44.4726 9.97053 45.1819 10.769C45.3905 11.012 45.6409 11.255 45.9746 11.6021C46.4335 11.1335 46.7673 10.769 47.1011 10.4045C48.1023 9.3457 49.2288 8.30428 50.5222 7.29759C52.4831 5.78749 55.4452 4.79814 58.9498 4.01709C61.2862 3.47903 63.8312 3.16662 66.4596 2.99302C67.5861 2.92359 68.3788 2.73269 69.0881 2.36819C69.7556 2.02103 70.4648 1.7086 71.2158 1.39618C73.8859 0.337407 77.1819 -0.0617925 80.8116 0.00763893C82.6891 0.0423326 84.1911 0.563043 84.7334 1.32674C85.0255 1.77803 84.4413 2.22932 83.3566 2.35084C82.9394 2.40288 82.5222 2.42025 82.105 2.40286C80.9785 2.40286 80.5196 2.26406 80.3527 1.69126C80.2275 1.32676 79.9355 1.23998 79.1845 1.23998C76.5561 1.27472 74.2615 1.69125 72.3423 2.45495C72.1337 2.54173 71.925 2.64589 72.092 2.85414C73.3436 2.94097 74.6369 3.06244 75.972 3.13187C79.0177 3.28808 81.6044 3.87824 84.0241 4.5899C88.4883 5.87431 92.3267 7.4364 95.6227 9.24153C98.9603 11.0987 103.049 12.5915 107.68 13.8585C108.765 14.1536 109.766 14.1536 110.934 14.0842C112.061 14.0147 112.979 13.9453 113.521 13.494C113.771 13.2684 114.272 13.1816 114.856 13.2336C115.482 13.3031 115.941 13.6676 115.941 13.9626C115.941 14.4139 114.814 14.709 114.898 15.247C120.321 15.9934 125.787 16.1149 131.336 15.4207C132.295 15.2991 132.921 15.0735 133.505 14.7264C134.757 13.98 135.424 13.1643 135.675 12.279C135.8 11.9319 135.883 11.5674 135.258 11.2723C135.007 11.1335 134.674 10.9946 134.298 10.9599C133.797 10.9078 133.672 11.1335 133.63 11.307C133.63 11.3417 133.589 11.3938 133.547 11.4285C133.297 11.741 132.921 12.0013 132.045 12.0013C131.294 11.984 130.627 11.6368 130.501 11.2549C130.335 10.6822 131.169 10.0747 132.379 9.84901C134.089 9.55399 136.134 9.77963 137.218 10.3871C138.22 10.9252 138.804 11.5327 138.554 12.227C138.428 12.522 138.095 12.8171 138.595 13.1643C139.93 12.956 140.681 12.4526 141.599 12.0534C142.392 11.7062 143.059 11.307 143.769 10.9252C144.186 10.7169 144.687 10.5433 145.396 10.6475C145.938 10.7342 146.022 11.1161 145.479 11.4632C144.895 11.8798 144.228 12.279 143.56 12.6782C143.351 12.8171 143.018 12.9212 143.226 13.199C145.604 12.8518 148.108 12.7303 150.611 12.713C152.238 12.713 153.782 12.8171 155.325 12.956C158.58 13.251 161.041 14.5701 160.999 15.924C160.958 16.5835 159.79 17.2258 158.288 17.382C156.869 17.5208 155.576 17.2605 154.783 16.7051C153.949 16.0976 154.7 15.5595 156.494 15.438C157.203 15.3859 157.411 15.2644 157.203 15.0561C156.702 14.5875 155.91 14.3098 154.616 14.2056C150.11 13.8412 145.771 13.9453 141.683 14.8479C138.554 15.5248 135.216 15.9413 131.962 16.462C130.001 16.7571 127.915 16.9307 125.787 16.896C123.659 16.8613 121.573 16.896 119.612 16.896C119.07 17.3126 119.57 17.5903 119.696 17.8853C119.946 18.5276 119.487 19.1003 118.611 19.621C117.693 20.1591 116.066 20.3327 114.647 20.0897C113.896 19.9508 113.479 19.6731 113.563 19.3607C113.604 19.0656 114.063 18.9267 115.106 18.8747C116.441 18.8053 116.775 18.6664 116.733 18.1977C116.692 17.7638 116.233 17.4167 115.44 17.1911C113.646 16.7224 112.061 16.1496 110.142 15.7504C104.092 14.5354 98.6682 12.9559 94.4544 10.7342C93.0359 9.97053 91.4923 9.24152 89.9486 8.51256C87.3201 7.29758 84.2745 6.2735 81.0202 5.37093C80.3944 5.21472 79.8103 5.00644 78.9759 5.04118C78.6839 5.05853 78.3084 5.14531 78.4335 5.28417C78.7673 5.64867 79.1845 6.01313 79.56 6.37763C80.2275 7.08929 80.603 7.8009 79.8521 8.54726C79.6851 8.70347 79.4765 8.87707 79.2679 9.01589C78.4335 9.48456 77.1402 9.58869 75.8885 9.27627C75.3045 9.13741 74.8455 8.96385 74.929 8.65143C74.9708 8.33897 75.5131 8.25219 76.1806 8.16541C77.3489 8.02655 77.5157 7.88768 77.4322 7.45379C77.3488 7.00251 76.9733 6.60326 76.3058 6.23876C76.0971 6.13463 75.8885 6.04787 75.6382 5.96109C71.7165 4.26009 70.882 4.01708 64.0815 4.64192C63.1219 4.7287 62.0789 4.83288 61.2445 5.17999C62.0789 5.52715 62.955 5.83958 63.7477 6.18673C64.5405 6.5165 64.8742 6.93307 64.5822 7.4017C64.4152 7.61 64.1233 7.8009 63.4974 7.81824C63.0385 7.85298 62.6213 7.73147 62.4961 7.57526C61.8703 6.98511 60.9525 6.53383 59.5339 6.25615C58.4074 6.01312 57.4061 5.97844 56.3631 6.39503C55.3201 6.82892 54.3188 7.28018 53.6096 7.81824C52.3162 8.82498 51.1062 9.84903 50.1885 10.9252C49.5209 11.6715 48.8116 12.4179 47.9772 13.1122C46.3918 14.3618 45.8911 14.5701 41.6356 16.2017C41.7191 16.5489 42.47 16.5489 42.9707 16.6356C46.3083 17.2084 48.8116 18.597 48.1858 20.7319C48.1023 21.1485 47.6434 21.4956 46.8507 21.7386C45.9746 22.0336 44.723 22.0857 43.8886 21.8601C43.0124 21.6344 42.6368 21.2699 42.5952 20.8534C42.5952 20.5062 43.0958 20.2979 43.8468 20.1765C44.3475 20.107 44.9733 20.107 45.0567 19.8293C45.0984 19.621 45.0984 19.378 44.9316 19.1871C44.264 18.3887 42.9289 17.8333 40.8846 17.6771C39.7582 17.5903 38.5899 17.6076 37.4218 17.6076C34.8767 17.6423 32.3318 17.6944 29.8285 17.7291C28.9941 17.7291 28.0762 17.7639 27.2836 17.6423C25.7399 17.3993 24.53 17.3646 23.6121 18.0763C23.2783 18.3019 22.3188 18.1804 22.0684 17.9027C22.0267 17.868 21.9433 17.8333 21.9433 17.7985C22.0684 16.7745 20.4414 16.2711 18.6891 15.7157C14.8924 14.5181 12.1388 13.008 11.0958 10.9946C10.8037 10.4045 10.8872 9.79697 10.6369 8.94645Z" fill="url(#paint0_linear_543_2)" fill-opacity="0.79"/>
<defs>
<linearGradient id="paint0_linear_543_2" x1="80.5" y1="22" x2="80.5" y2="0" gradientUnits="userSpaceOnUse">
<stop stop-color="#1C2D46"/>
<stop offset="0.802083" stop-color="#71A8CA" stop-opacity="0.83"/>
</linearGradient>
</defs>
</svg>
