<svg width="10" height="10" viewBox="0 0 10 10" fill="none" xmlns="http://www.w3.org/2000/svg">
<path d="M6.87449 8.75C6.87449 9.0949 6.5949 9.37449 6.25 9.37449H1.25C0.905102 9.37449 0.62551 9.0949 0.62551 8.75V3.75C0.62551 3.4051 0.906122 3.12551 1.25 3.12551H1.87449V2.5H1.25C0.559184 2.5 0 3.0602 0 3.75V8.75C0 9.44184 0.559184 10 1.25 10H6.25C6.94082 10 7.5 9.44082 7.5 8.75V8.12551H6.87551L6.87449 8.75ZM8.75 0H3.75C3.05918 0 2.5 0.559184 2.5 1.24898V6.24898C2.5 6.93878 3.05918 7.49898 3.75 7.49898H8.75C9.44184 7.5 10 6.93878 10 6.25V1.25C10 0.559184 9.44082 0 8.75 0ZM9.37551 6.25C9.37551 6.59592 9.09592 6.87449 8.75102 6.87449H3.75102C3.40612 6.87449 3.12653 6.59592 3.12653 6.25V1.25C3.12653 0.905102 3.40714 0.62551 3.75102 0.62551H8.75102C9.09592 0.62551 9.37551 0.905102 9.37551 1.25V6.25Z" fill="#2989A8"/>
</svg>
