<?xml version="1.0" encoding="UTF-8" standalone="no"?>
<svg
   width="20"
   height="20"
   viewBox="0 0 20 20"
   fill="none"
   version="1.1"
   id="svg12"
   xmlns="http://www.w3.org/2000/svg"
   xmlns:svg="http://www.w3.org/2000/svg">
  <defs
     id="defs16" />
  <g
     id="g1584">
    <circle
       cx="10"
       cy="10"
       r="9"
       fill="#ffffe8"
       id="circle2" />
    <path
       d="M 10,0 C 4.48571,0 0,4.48617 0,10.001 c 0,2.2798 0.787755,4.5107 2.21633,6.2803 0.15306,0.1898 0.42857,0.2183 0.61836,0.0653 C 3.02449,16.1935 3.05306,15.9179 2.9,15.7281 1.59796,14.1137 0.879592,12.0808 0.879592,10.001 0.879592,4.97194 4.97143,0.879682 10,0.879682 c 5.0286,0 9.1204,4.092258 9.1204,9.121318 0,5.0291 -4.0918,9.1214 -9.1204,9.1214 -1.69388,0 -3.3449,-0.4674 -4.77959,-1.3512 C 5.01429,17.6447 4.74286,17.7079 4.61633,17.9141 4.4898,18.1202 4.55306,18.3917 4.75918,18.5182 6.33061,19.4877 8.14286,20 10,20 15.5143,20 20,15.5138 20,9.99898 20,4.48413 15.5143,0 10,0 Z"
       fill="#757A82"
       id="path4"
       style="fill:#ef6351;fill-opacity:1" />
    <path
       d="m 6.76318,10.001 c 0,1.7859 1.45306,3.2371 3.23674,3.2371 1.78368,0 3.23678,-1.4512 3.23678,-3.2371 0,-0.8776 -0.3449,-1.69809 -0.9715,-2.31244 -0.1734,-0.1694 -0.451,-0.16736 -0.6224,0.00612 -0.1694,0.17349 -0.1674,0.45107 0.0061,0.62252 0.4551,0.44698 0.7082,1.045 0.7082,1.6838 0,1.3002 -1.0572,2.3595 -2.35922,2.3595 -1.30204,0 -2.35715,-1.0593 -2.35715,-2.3595 0,-1.30009 1.05919,-2.35938 2.35919,-2.35938 0.24288,0 0.43878,-0.19594 0.43878,-0.43882 0,-0.24288 -0.1959,-0.43882 -0.43878,-0.43882 -1.78572,0 -3.23674,1.45117 -3.23674,3.23702 z"
       fill="#757A82"
       id="path6"
       style="fill:#ef6351;fill-opacity:1" />
    <path
       d="m 16.296,10.001 c 0,0.2429 0.1959,0.4389 0.4387,0.4389 0.2429,0 0.4388,-0.196 0.4388,-0.4389 0,-3.95546 -3.2183,-7.17416 -7.1734,-7.17416 -0.2429,0 -0.43882,0.19594 -0.43882,0.43882 0,0.24289 0.19592,0.43882 0.43882,0.43882 3.4714,0 6.2959,2.82478 6.2959,6.29652 z"
       fill="#757A82"
       id="path8"
       style="fill:#ef6351;fill-opacity:1" />
    <path
       d="m 8.57959,10.001 c 0,0.7838 0.63673,1.4206 1.42041,1.4206 0.7837,0 1.4204,-0.6368 1.4204,-1.4206 0,-0.78376 -0.6367,-1.42056 -1.4204,-1.42056 -0.78368,0 -1.42041,0.6368 -1.42041,1.42056 z m 1.96121,0 c 0,0.298 -0.2428,0.5409 -0.5408,0.5409 -0.29796,0 -0.54082,-0.2429 -0.54082,-0.5409 0,-0.29799 0.24286,-0.54087 0.54082,-0.54087 0.298,0 0.5408,0.24288 0.5408,0.54087 z"
       fill="#757A82"
       id="path10"
       style="fill:#ef6351;fill-opacity:1" />
  </g>
</svg>
