<?xml version="1.0" encoding="UTF-8" standalone="no"?>
<svg
   width="15.995966"
   height="18.003408"
   viewBox="0 0 15.995966 18.003408"
   fill="none"
   version="1.1"
   id="svg1637"
   xmlns="http://www.w3.org/2000/svg"
   xmlns:svg="http://www.w3.org/2000/svg">
  <defs
     id="defs1641" />
  <path
     d="m 13.830833,11.619217 0.0174,-0.0114 0.0171,-0.0094 3e-4,-10e-5 10e-5,-10e-5 3e-4,-10e-5 4e-4,-3e-4 0.0048,-0.0027 c 0.0056,-0.0032 0.0151,-0.0087 0.028,-0.0164 0.0258,-0.0154 0.0653,-0.0397 0.1152,-0.0725 0.1001,-0.0659 0.2403,-0.1651 0.3952,-0.2953 0.3144,-0.2642 0.6662,-0.6362 0.8826,-1.0938 0.2103,-0.4444103 0.2981,-0.9772503 0.0852,-1.6104003 -0.2178,-0.64793 -0.7668,-1.44809 -1.9297,-2.37347 -2.4297,-1.93353 -5.3474402,-4.17873 -7.7897902,-5.15141302 -1.22699,-0.488659 -2.22535,-0.610613 -2.95395,-0.328472 -0.68555,0.265466 -1.28396,0.95384502 -1.56866,2.48374502 -0.59606296,3.20312 -0.68134696,6.08793 -0.61735296,8.1717103 0.031979,1.0414 0.101189,1.8811 0.162102,2.4587 0.030452,0.2887 0.058817,0.5118 0.079391,0.6616 0.010287,0.0749 0.018625,0.1315 0.0243,0.1688 l 0.006426,0.0413 0.001547,0.0097 3.28e-4,0.002 2e-5,10e-5 2.4e-5,10e-5 5e-6,1e-4 0.003514,0.0211 0.001579,0.0202 c -1.7e-5,-2e-4 -1.3e-5,-2e-4 1.3e-5,10e-5 l 6e-6,10e-5 2.2e-5,3e-4 3.2e-5,4e-4 3.87e-4,0.004 c 4.99e-4,0.0052 0.001422,0.0142 0.002887,0.0268 0.002933,0.0252 0.008025,0.0645 0.016226,0.1156 0.016443,0.1023 0.045146,0.2503 0.093411,0.4249 0.097483,0.3526 0.26958296,0.7953 0.56578296,1.1917 0.29204,0.3909 0.70382,0.7366 1.29755,0.9161 0.585,0.1769 1.38914,0.205 2.49233,-0.1035 z"
     fill="#F7FDFF"
     stroke="#C3CCDA"
     id="path1635"
     style="fill:#ffffe8;fill-opacity:1;stroke:#ef6351;stroke-opacity:1" />
</svg>
