<?xml version="1.0" encoding="UTF-8" standalone="no"?>
<svg
   width="26"
   height="20"
   viewBox="0 0 26 20"
   fill="none"
   version="1.1"
   id="svg3348"
   sodipodi:docname="floating_gift_card.svg"
   inkscape:version="1.2.2 (1:1.2.2+202212051552+b0a8486541)"
   xmlns:inkscape="http://www.inkscape.org/namespaces/inkscape"
   xmlns:sodipodi="http://sodipodi.sourceforge.net/DTD/sodipodi-0.dtd"
   xmlns="http://www.w3.org/2000/svg"
   xmlns:svg="http://www.w3.org/2000/svg">
  <sodipodi:namedview
     id="namedview3350"
     pagecolor="#ffffff"
     bordercolor="#000000"
     borderopacity="0.25"
     inkscape:showpageshadow="2"
     inkscape:pageopacity="0.0"
     inkscape:pagecheckerboard="0"
     inkscape:deskcolor="#d1d1d1"
     showgrid="false"
     inkscape:zoom="13.9"
     inkscape:cx="11.834532"
     inkscape:cy="12.338129"
     inkscape:window-width="1366"
     inkscape:window-height="699"
     inkscape:window-x="0"
     inkscape:window-y="800"
     inkscape:window-maximized="1"
     inkscape:current-layer="g3962" />
  <g
     id="g3962">
    <rect
       x="1"
       y="1"
       width="24"
       height="18"
       fill="white"
       id="rect3274" />
    <path
       d="M1.2313 0.0467387C0.752946 0.176485 0.274595 0.659804 0.0965724 1.19078C0.00504085 1.47395 0 1.75097 0 10.0058C0 18.2786 0.00504085 18.5319 0.0965724 18.8209C0.228961 19.2043 0.620557 19.6876 0.956438 19.8586L1.22095 20H13.0001H24.779L25.0436 19.8586C25.3794 19.6876 25.771 19.204 25.9034 18.8209C25.995 18.5319 26 18.2786 26 10.0058C26 1.73313 25.995 1.47948 25.9034 1.19078C25.771 0.807383 25.3794 0.324063 25.0436 0.153117L24.779 0.0116876L13.1017 4.84404e-06C6.41092 -0.000302612 1.34326 0.0175304 1.2313 0.0467387ZM5.49508 1.52683C5.51046 1.60339 5.62216 2.25796 5.74447 2.97741C5.94796 4.16849 5.98351 4.31576 6.1159 4.47502C6.38545 4.80523 6.41092 4.79939 6.5839 4.37479L6.73646 3.9914L6.53296 2.80031C6.42604 2.1399 6.32443 1.55635 6.31408 1.49731C6.29366 1.40293 6.75158 1.39708 15.4219 1.39708H24.5551L24.6772 1.54435L24.8043 1.68578V3.24243C24.8043 4.43936 24.7889 4.81076 24.7432 4.8286C24.7077 4.84612 22.1077 5.43582 18.9683 6.14943L13.2593 7.44074L13.1983 7.60584C13.1628 7.70023 13.0508 7.93021 12.9439 8.12483C12.8269 8.33697 12.7759 8.47256 12.8115 8.47256C12.8521 8.47256 13.2238 8.39601 13.6409 8.29578C14.0582 8.20139 16.6988 7.6 19.5127 6.9691C22.3263 6.33236 24.6668 5.8017 24.7178 5.78386C24.7992 5.75435 24.8043 6.07871 24.8043 12.04V18.3259L24.6772 18.4673L24.5551 18.6146H16.8975C9.6522 18.6146 9.23991 18.6088 9.21948 18.5085C9.20409 18.4553 8.98044 17.164 8.7207 15.6427L8.2527 12.8833L7.9322 13.2842C7.75418 13.5084 7.61171 13.7442 7.60667 13.8029C7.60667 13.909 8.34449 18.2782 8.40047 18.5082C8.42594 18.6085 8.23757 18.6143 4.93554 18.6143H1.44514L1.3231 18.467L1.19601 18.3256V14.7287V11.1259L1.31301 11.0964C1.37403 11.0786 1.6794 11.0078 1.99486 10.9313L2.56474 10.8015L2.15219 10.4304L1.7452 10.0532L1.47034 10.1119L1.19575 10.1651V5.9256V1.68609L1.32283 1.54466L1.44487 1.39739H3.45459H5.46961L5.49508 1.52683Z"
       fill="url(#paint0_linear_3139_728)"
       id="path3276" />
    <path
       d="M9.68756 3.0776C8.13046 3.53755 7.33692 4.99981 7.1589 7.76538L7.12335 8.32556L6.9249 7.91296C6.2075 6.42702 5.31713 5.36569 4.32487 4.81134C3.65311 4.4341 3.18511 4.39259 2.6712 4.64624C1.78587 5.09451 1.49084 6.62164 2.02491 8.00704C2.58471 9.46346 4.22299 10.507 6.01913 10.5602C6.34467 10.566 6.50253 10.6014 6.58902 10.6721L6.7161 10.7723L6.58902 11.0555C6.51261 11.2147 6.17699 11.663 5.76974 12.1285C5.39327 12.5648 5.00645 13.0542 4.91492 13.2077C4.52306 13.8798 4.15163 15.1535 4.22299 15.584C4.2994 16.0556 4.92527 16.1912 5.11841 15.7728C5.14892 15.7079 5.22029 15.4367 5.27096 15.1772C5.32694 14.9177 5.46437 14.4931 5.58137 14.2278C5.76444 13.821 5.89683 13.6322 6.49218 12.954C7.1841 12.158 7.45392 11.7512 7.63699 11.2322C7.68793 11.073 7.75903 10.9491 7.7845 10.9491C7.81501 10.9491 7.92697 10.8784 8.03389 10.7957C8.21695 10.6484 8.24242 10.6422 8.44087 10.7133C8.79692 10.8313 9.24476 11.1437 9.51458 11.4502C9.65705 11.6095 9.95738 12.0636 10.1863 12.4525C10.6596 13.2602 10.9138 13.5671 11.3465 13.8678C11.8909 14.245 12.7763 14.4987 13.0612 14.3631C13.3971 14.2038 13.4531 13.5966 13.1477 13.3783C13.0917 13.3371 12.8882 13.2664 12.6898 13.219C11.9114 13.0303 11.545 12.6942 10.8682 11.5446C10.4002 10.7545 9.95234 10.2355 9.51484 9.97014C9.36229 9.87575 9.23494 9.78721 9.23494 9.76968C9.23494 9.75185 9.38749 9.64578 9.5809 9.53971C10.1102 9.23901 11.026 8.50788 11.3821 8.10112C11.9976 7.39951 12.2979 6.62718 12.303 5.73064C12.308 5.0819 12.1961 4.58659 11.9265 4.10912C11.4532 3.26023 10.522 2.82979 9.68756 3.0776ZM10.5984 4.257C10.8528 4.38091 11.0003 4.55185 11.1582 4.90573C11.2651 5.14739 11.2906 5.28298 11.2906 5.67222C11.2956 6.08483 11.2752 6.19705 11.138 6.5331C10.9345 7.02841 10.5681 7.45885 9.91174 7.96584C9.23972 8.47868 8.26789 9.02103 8.17132 8.92695C8.12038 8.87376 8.1103 8.73233 8.13577 8.26653C8.25781 6.12018 8.60377 5.02933 9.32143 4.5045C9.76397 4.18014 10.2421 4.08575 10.5984 4.257ZM3.69874 5.74263C4.56869 6.13187 5.52035 7.29343 6.12579 8.69666C6.30381 9.10343 6.32928 9.20366 6.27834 9.31004C6.2274 9.42195 6.19689 9.4281 5.78991 9.39274C5.24045 9.33955 4.58912 9.12157 4.0853 8.82087C3.28645 8.33725 2.81845 7.58859 2.78263 6.72187C2.7423 5.8075 3.06784 5.45393 3.69874 5.74263Z"
       fill="url(#paint1_linear_3139_728)"
       id="path3278" />
    <path
       d="M15.4883 9.65228C15.2238 9.70547 14.8625 9.90009 14.6895 10.0886C14.6234 10.1534 14.5061 10.3422 14.435 10.5073C14.308 10.7726 14.2976 10.8612 14.2976 11.4567C14.2976 12.064 14.3077 12.1288 14.4502 12.459C14.7807 13.2135 15.4525 13.4377 16.6023 13.1843C16.7703 13.1431 16.8873 13.0841 16.9178 13.0134C16.9483 12.9544 16.9687 12.5476 16.9687 12.1055C16.9687 11.1265 16.9687 11.1265 16.2919 11.1265C15.7069 11.1265 15.6456 11.1677 15.6456 11.5391C15.6456 11.8045 15.6557 11.834 15.7727 11.8635C16.1901 11.9637 16.1595 11.9342 16.1442 12.2054L16.129 12.4529L15.8595 12.4704C15.366 12.5058 15.137 12.1934 15.137 11.4918C15.137 10.9848 15.2591 10.6484 15.4931 10.507C15.661 10.4068 16.18 10.3893 16.3835 10.4775C16.47 10.5128 16.5514 10.5187 16.6074 10.4833C16.7093 10.4185 16.8414 9.99386 16.8008 9.86412C16.7451 9.69348 15.9308 9.55789 15.4883 9.65228Z"
       fill="url(#paint2_linear_3139_728)"
       id="path3280" />
    <path
       d="M17.6609 9.74634C17.5898 9.8229 17.5794 10.0649 17.5794 11.4503C17.5794 13.3076 17.564 13.2486 18.0119 13.2486C18.4597 13.2486 18.4443 13.3076 18.4443 11.4503C18.4443 9.59292 18.4597 9.65195 18.0119 9.65195C17.8338 9.65226 17.7118 9.68147 17.6609 9.74634Z"
       fill="url(#paint3_linear_3139_728)"
       id="path3282" />
    <path
       d="M19.1874 9.74638C19.1163 9.82293 19.106 10.0649 19.106 11.4503C19.106 12.8357 19.116 13.0777 19.1874 13.1542C19.284 13.2661 19.7674 13.284 19.8592 13.1779C19.8947 13.1367 19.9202 12.9184 19.9202 12.6119C19.9202 11.9398 19.9457 11.8924 20.3526 11.8924C20.5307 11.8924 20.7087 11.8746 20.7546 11.8571C20.8565 11.81 20.9071 11.4915 20.8411 11.2852C20.7901 11.1318 20.775 11.1259 20.4086 11.1259C19.9916 11.1259 19.9202 11.0669 19.9202 10.7487C19.9202 10.495 20.0422 10.4185 20.4495 10.4185C20.6684 10.4185 20.8413 10.389 20.8769 10.3478C20.9124 10.3066 20.9379 10.171 20.9379 10.0354C20.9379 9.8998 20.9124 9.76421 20.8769 9.72301C20.8363 9.67597 20.5768 9.65229 20.0425 9.65229C19.406 9.65229 19.2535 9.66982 19.1874 9.74638Z"
       fill="url(#paint4_linear_3139_728)"
       id="path3284" />
    <path
       d="M21.299 9.73473C21.2634 9.78208 21.243 9.94687 21.2531 10.1061L21.2684 10.3893L21.5534 10.4188C22.0214 10.4659 22.0063 10.4247 22.0063 11.8574C22.0063 12.7536 22.0217 13.125 22.0673 13.1782C22.1487 13.2726 22.6778 13.2726 22.7592 13.1782C22.8051 13.125 22.8202 12.7478 22.8202 11.8574C22.8202 10.6251 22.8202 10.6014 22.9322 10.5132C22.9983 10.46 23.1511 10.4188 23.2832 10.4188C23.553 10.4188 23.5835 10.3715 23.5835 10.0059C23.5835 9.83496 23.5581 9.75809 23.487 9.71105C23.4259 9.6757 22.9731 9.65202 22.3727 9.65202C21.5587 9.65233 21.3449 9.66985 21.299 9.73473Z"
       fill="url(#paint5_linear_3139_728)"
       id="path3286" />
    <path
       d="M14.883 14.6404C14.649 14.7582 14.4912 14.9353 14.359 15.224C14.2675 15.4186 14.2471 15.56 14.2471 16.02C14.2471 16.6921 14.354 16.9869 14.6899 17.2406C14.8729 17.382 14.9594 17.4057 15.3362 17.4232C15.8755 17.441 16.023 17.37 16.0435 17.0813C16.0689 16.7923 15.9724 16.7336 15.6261 16.804C15.3871 16.8572 15.3261 16.8452 15.1783 16.7508C14.8883 16.5503 14.7968 15.9785 14.9849 15.5068C15.1173 15.165 15.2648 15.0942 15.6362 15.1825C15.9111 15.2532 15.9313 15.2474 16.0177 15.1234C16.1398 14.9525 16.1093 14.7167 15.9517 14.6223C15.7734 14.5165 15.1019 14.5285 14.883 14.6404Z"
       fill="url(#paint6_linear_3139_728)"
       id="path3288" />
    <path
       d="M17.101 14.6758C17.045 14.7818 16.6176 16.2383 16.3886 17.117C16.343 17.2937 16.4802 17.4355 16.694 17.4355C16.9434 17.4355 17.0554 17.3531 17.096 17.1348C17.1365 16.9165 17.2689 16.8519 17.6099 16.8814C17.7473 16.8931 17.8797 16.899 17.8998 16.9051C17.9203 16.9051 17.9763 17.0054 18.0219 17.1234C18.1185 17.3946 18.1644 17.4358 18.4034 17.4358C18.5713 17.4358 18.7494 17.3177 18.7494 17.2117C18.7494 17.1056 18.037 14.7056 17.981 14.629C17.9402 14.57 17.808 14.5466 17.5486 14.5466C17.2183 14.546 17.1673 14.5638 17.101 14.6758ZM17.7218 15.7666C17.8184 16.1734 17.7828 16.2678 17.5438 16.2441C17.3708 16.2266 17.3504 16.2087 17.3607 16.0731C17.3658 15.9907 17.3912 15.8078 17.4268 15.6722C17.5032 15.3303 17.6252 15.3657 17.7218 15.7666Z"
       fill="url(#paint7_linear_3139_728)"
       id="path3290" />
    <path
       d="M19.172 14.6109C19.1211 14.6699 19.106 15.0296 19.106 16.0024C19.106 17.2406 19.111 17.3174 19.2025 17.3761C19.35 17.4647 19.5944 17.4469 19.6859 17.3408C19.7469 17.2759 19.7674 17.1286 19.7674 16.8101C19.7674 16.4209 19.7775 16.368 19.8589 16.3855C19.9048 16.3972 20.0523 16.6155 20.1897 16.875C20.3221 17.1286 20.4593 17.3645 20.4951 17.3881C20.5816 17.453 20.826 17.4472 20.943 17.3765C21.0905 17.2821 21.065 17.1523 20.8106 16.716C20.6835 16.498 20.5816 16.2681 20.5816 16.209C20.5816 16.15 20.6376 16.0381 20.7087 15.9615C20.8716 15.7848 20.953 15.4545 20.8918 15.2184C20.8053 14.8882 20.7697 14.8353 20.5609 14.7114C20.3014 14.5522 19.2789 14.4811 19.172 14.6109ZM20.1285 15.1947C20.1945 15.2418 20.225 15.3186 20.225 15.4659C20.225 15.6252 20.1996 15.6839 20.0926 15.7371C19.9197 15.8315 19.7976 15.7371 19.7772 15.4954C19.752 15.1889 19.9048 15.0592 20.1285 15.1947Z"
       fill="url(#paint8_linear_3139_728)"
       id="path3292" />
    <path
       d="M21.5329 14.6347C21.4565 14.7171 21.4465 14.8883 21.4465 15.9908C21.4465 17.5475 21.4059 17.4651 22.1333 17.4236C22.8863 17.3765 23.2272 17.1699 23.441 16.6159C23.558 16.321 23.5785 15.6311 23.4816 15.3421C23.4052 15.1063 23.1967 14.8585 22.9473 14.7054C22.6624 14.5344 21.66 14.4812 21.5329 14.6347ZM22.6268 15.2597C22.9523 15.4602 22.9423 16.4213 22.6114 16.6925C22.4485 16.8222 22.2246 16.8164 22.1585 16.6749C22.0872 16.5098 22.0925 15.3541 22.1686 15.2656C22.2453 15.177 22.4894 15.1712 22.6268 15.2597Z"
       fill="url(#paint9_linear_3139_728)"
       id="path3294" />
  </g>
  <defs
     id="defs3346">
    <linearGradient
       id="paint0_linear_3139_728"
       x1="13"
       y1="20"
       x2="13"
       y2="0"
       gradientUnits="userSpaceOnUse">
      <stop
         stop-color="#CCA829"
         id="stop3296"
         offset="0"
         style="stop-color:#de8b95;stop-opacity:1;" />
      <stop
         offset="1"
         stop-color="#FFC700"
         id="stop3298"
         style="stop-color:#618bff;stop-opacity:1;" />
    </linearGradient>
    <linearGradient
       id="paint1_linear_3139_728"
       x1="7.5531"
       y1="16.0231"
       x2="7.5531"
       y2="3.00802"
       gradientUnits="userSpaceOnUse">
      <stop
         stop-color="#CCA829"
         id="stop3301"
         offset="0"
         style="stop-color:#618b95;stop-opacity:1;" />
      <stop
         offset="1"
         stop-color="#FFC90A"
         id="stop3303"
         style="stop-color:#658bfb;stop-opacity:1;" />
    </linearGradient>
    <linearGradient
       id="paint2_linear_3139_728"
       x1="15.6332"
       y1="13.2842"
       x2="15.6332"
       y2="9.62127"
       gradientUnits="userSpaceOnUse">
      <stop
         stop-color="#CCA829"
         id="stop3306"
         offset="0"
         style="stop-color:#db8b98;stop-opacity:1;" />
      <stop
         offset="1"
         stop-color="#FFC90A"
         id="stop3308"
         style="stop-color:#648bfd;stop-opacity:1;" />
    </linearGradient>
    <linearGradient
       id="paint3_linear_3139_728"
       x1="18.0119"
       y1="13.2488"
       x2="18.0119"
       y2="9.65174"
       gradientUnits="userSpaceOnUse">
      <stop
         stop-color="#CCA829"
         id="stop3311"
         offset="0"
         style="stop-color:#658bfc;stop-opacity:1;" />
      <stop
         offset="1"
         stop-color="#FFC90A"
         id="stop3313"
         style="stop-color:#d88b9a;stop-opacity:1;" />
    </linearGradient>
    <linearGradient
       id="paint4_linear_3139_728"
       x1="20.0219"
       y1="13.2485"
       x2="20.0219"
       y2="9.65229"
       gradientUnits="userSpaceOnUse">
      <stop
         stop-color="#CCA829"
         id="stop3316"
         offset="0"
         style="stop-color:#d68b9c;stop-opacity:1;" />
      <stop
         offset="1"
         stop-color="#FFC90A"
         id="stop3318"
         style="stop-color:#678bfa;stop-opacity:1;" />
    </linearGradient>
    <linearGradient
       id="paint5_linear_3139_728"
       x1="22.417"
       y1="13.249"
       x2="22.417"
       y2="9.65202"
       gradientUnits="userSpaceOnUse">
      <stop
         stop-color="#CCA829"
         id="stop3321"
         offset="0"
         style="stop-color:#d98b99;stop-opacity:1;" />
      <stop
         offset="1"
         stop-color="#FFC90A"
         id="stop3323"
         style="stop-color:#678bfa;stop-opacity:1;" />
    </linearGradient>
    <linearGradient
       id="paint6_linear_3139_728"
       x1="15.1699"
       y1="17.4258"
       x2="15.1699"
       y2="14.5493"
       gradientUnits="userSpaceOnUse">
      <stop
         stop-color="#CCA829"
         id="stop3326"
         offset="0"
         style="stop-color:#da8b98;stop-opacity:1;" />
      <stop
         offset="1"
         stop-color="#FFC90A"
         id="stop3328"
         style="stop-color:#688bf9;stop-opacity:1;" />
    </linearGradient>
    <linearGradient
       id="paint7_linear_3139_728"
       x1="17.5646"
       y1="17.4358"
       x2="17.5646"
       y2="14.5466"
       gradientUnits="userSpaceOnUse">
      <stop
         stop-color="#CCA829"
         id="stop3331"
         offset="0"
         style="stop-color:#658bfb;stop-opacity:1;" />
      <stop
         offset="1"
         stop-color="#FFC90A"
         id="stop3333"
         style="stop-color:#db8b97;stop-opacity:1;" />
    </linearGradient>
    <linearGradient
       id="paint8_linear_3139_728"
       x1="20.0697"
       y1="17.4333"
       x2="20.0697"
       y2="14.5436"
       gradientUnits="userSpaceOnUse">
      <stop
         stop-color="#CCA829"
         id="stop3336"
         offset="0"
         style="stop-color:#d98b99;stop-opacity:1;" />
      <stop
         offset="1"
         stop-color="#FFC90A"
         id="stop3338"
         style="stop-color:#668bfb;stop-opacity:1;" />
    </linearGradient>
    <linearGradient
       id="paint9_linear_3139_728"
       x1="22.4946"
       y1="17.4402"
       x2="22.4946"
       y2="14.544"
       gradientUnits="userSpaceOnUse">
      <stop
         stop-color="#CCA829"
         id="stop3341"
         offset="0"
         style="stop-color:#db8b98;stop-opacity:1;" />
      <stop
         offset="1"
         stop-color="#FFC90A"
         id="stop3343"
         style="stop-color:#648bea;stop-opacity:1;" />
    </linearGradient>
  </defs>
</svg>
