<svg width="11" height="11" viewBox="0 0 11 11" fill="none" xmlns="http://www.w3.org/2000/svg">
<path d="M8.54633 11H2.73092C0.995612 11 0 10.0863 0 8.49357V2.77918C0 1.11684 0.978775 0 2.43459 0H8.75622C9.8349 0 11 1.03714 11 2.71184V8.4599C11 9.88429 9.92245 11 8.54633 11ZM2.43459 0.457959C0.976531 0.457959 0.457959 1.70837 0.457959 2.77918V8.49357C0.457959 10.1862 1.69378 10.542 2.73092 10.542H8.54633C9.68449 10.542 10.542 9.64745 10.542 8.46102V2.71184C10.542 1.32 9.6149 0.457959 8.75622 0.457959H2.43459Z" fill="black"/>
<path d="M5.5 8C4.12118 8 3 6.87882 3 5.5C3 4.12118 4.12118 3 5.5 3C6.87882 3 8 4.12118 8 5.5C8 6.87882 6.87882 8 5.5 8ZM5.5 3.41063C4.34762 3.41063 3.41063 4.34762 3.41063 5.5C3.41063 6.65238 4.34762 7.58937 5.5 7.58937C6.65238 7.58937 7.58937 6.65238 7.58937 5.5C7.58937 4.34762 6.65137 3.41063 5.5 3.41063Z" fill="black"/>
<path d="M9 1.7131C9 1.87157 8.87165 2 8.71264 2H8.28736C8.12899 2 8 1.87157 8 1.7131V1.2869C8 1.12843 8.12835 1 8.28736 1H8.71264C8.87101 1 9 1.12843 9 1.2869V1.7131Z" fill="black"/>
<path d="M6.75791 5.22357C6.397 4.95456 5.87354 5.08274 5.62039 5.34179C5.43243 5.12179 5.04917 4.8859 4.5499 5.06093C3.90094 5.2882 3.73135 6.12377 4.56521 6.64482C4.83153 6.81097 5.15417 6.91383 5.34213 6.95584C5.45631 6.98169 5.55549 7 5.55549 7C5.55549 7 5.56222 6.97469 5.60018 6.97092C5.63845 6.96715 5.63232 6.92837 5.6813 6.92056C5.73028 6.91275 5.73793 6.88529 5.73793 6.88529C5.73793 6.88529 5.18601 6.80666 4.74612 6.50103C4.2147 6.13158 4.31542 5.71474 4.53337 5.4907C4.7749 5.24269 5.12999 5.22869 5.37243 5.35229C5.59743 5.46727 5.71498 5.63153 5.69661 5.78852C5.67916 5.93716 5.58733 5.8833 5.55977 5.81221C5.5209 5.71204 5.57233 5.63449 5.58824 5.59895C5.55794 5.56179 5.52916 5.53001 5.49304 5.50605C5.46029 5.56125 5.42049 5.63745 5.43886 5.73547C5.46763 5.88842 5.67273 5.98725 5.73395 5.83968C5.76395 5.76698 5.78293 5.6221 5.71283 5.47777C5.8313 5.37841 5.98558 5.29143 6.24547 5.33694C6.48975 5.37949 6.68658 5.62372 6.58097 5.90619C6.44843 6.26056 6.03303 6.25679 6.03303 6.25679C6.03303 6.25679 6.03517 6.34377 5.99078 6.38632C5.91793 6.45606 5.97793 6.5021 5.94456 6.53873C5.9115 6.57535 5.93599 6.67687 5.93599 6.67687C5.93599 6.67687 6.28312 6.6292 6.6125 6.41809C6.99484 6.17332 7.18188 5.53971 6.75791 5.22357Z" fill="black"/>
</svg>
