<?xml version="1.0" encoding="UTF-8" standalone="no"?>
<!-- Created with Inkscape (http://www.inkscape.org/) -->

<svg
   width="20.625345mm"
   height="5.9735794mm"
   viewBox="0 0 20.625345 5.9735794"
   version="1.1"
   id="svg5"
   xml:space="preserve"
   xmlns:inkscape="http://www.inkscape.org/namespaces/inkscape"
   xmlns:sodipodi="http://sodipodi.sourceforge.net/DTD/sodipodi-0.dtd"
   xmlns="http://www.w3.org/2000/svg"
   xmlns:svg="http://www.w3.org/2000/svg"><sodipodi:namedview
     id="namedview7"
     pagecolor="#ffffff"
     bordercolor="#000000"
     borderopacity="0.25"
     inkscape:showpageshadow="2"
     inkscape:pageopacity="0.0"
     inkscape:pagecheckerboard="0"
     inkscape:deskcolor="#d1d1d1"
     inkscape:document-units="mm"
     showgrid="false" /><defs
     id="defs2"><style
       id="style1379"
       type="text/css"><![CDATA[
    .fil1 {fill:#EC6722}
    .fil0 {fill:#007697}
   ]]></style><style
       id="style1379-3"
       type="text/css"><![CDATA[
    .fil1 {fill:#EC6722}
    .fil0 {fill:#007697}
   ]]></style><style
       id="style1379-8"
       type="text/css"><![CDATA[
    .fil1 {fill:#EC6722}
    .fil0 {fill:#007697}
   ]]></style><clipPath
       id="clip1-9"><path
         id="path1405-7"
         d="M 451,0 H 651 V 217.19922 H 451 Z m 0,0"
         inkscape:connector-curvature="0" /></clipPath></defs><g
     inkscape:label="Layer 1"
     inkscape:groupmode="layer"
     id="layer1"
     transform="translate(-18.37546,-119.49533)"><g
       id="surface1"
       transform="matrix(0.02750075,0,0,0.02750075,18.37417,119.49726)"
       style="stroke-width:209.9"
       inkscape:export-filename="gift_card_va_bni.svg"
       inkscape:export-xdpi="96"
       inkscape:export-ydpi="96"><path
         id="path1410"
         d="M 0.046875,205.53516 H 206.40234 V -0.0703125 H 0.046875 Z m 0,0"
         style="fill:#ffffff;fill-opacity:1;fill-rule:evenodd;stroke:none;stroke-width:209.9"
         inkscape:connector-curvature="0" /><path
         id="path1412"
         d="m 82.71875,138.6875 21.87891,-17.68359 C 100.96875,116.42969 97.507813,111.71484 94.207031,106.94922 68.804688,70.296875 53.839844,32.933594 64.683594,-0.0703125 H 0.046875 V 35.570313 Z m 0,0"
         style="fill:#e84c0f;fill-opacity:1;fill-rule:evenodd;stroke:none;stroke-width:209.9"
         inkscape:connector-curvature="0" /><path
         id="path1414"
         d="m 117.30469,85.386719 c 1.35937,-11.621094 4.85937,-33.589844 26.22656,-49.871094 18.50391,-14.101562 41.60937,-16.800781 62.11328,-8.105469 V -0.0703125 H 91.554688 C 84.019531,33.40625 103.82813,70.164063 117.30469,85.386719 Z m 0,0"
         style="fill:#e84c0f;fill-opacity:1;fill-rule:evenodd;stroke:none;stroke-width:209.9"
         inkscape:connector-curvature="0" /><path
         id="path1416"
         d="m 144.94922,51.871094 -0.0781,0.0625 c -21.46093,17.425781 -16.17578,44.785156 3.76953,69.343746 15.42188,18.98828 36.01954,32.28125 57.00391,22.20313 V 62.589844 C 186.79687,43.296875 164.17187,36.253906 144.94922,51.871094 Z m 0,0"
         style="fill:#e84c0f;fill-opacity:1;fill-rule:evenodd;stroke:none;stroke-width:209.9"
         inkscape:connector-curvature="0" /><path
         id="path1418"
         d="M 0.046875,77.753906 V 205.53125 H 0.0625 l 62.210938,-50.30859 z m 0,0"
         style="fill:#e84c0f;fill-opacity:1;fill-rule:evenodd;stroke:none;stroke-width:209.9"
         inkscape:connector-curvature="0" /><path
         id="path1420"
         d="m 113.16406,131.16797 c -6.0664,5.02734 -13.636716,11.21094 -22.042966,18.0039 l 8.070312,10.0625 c 11.718754,14.6211 28.785154,39.89454 49.980464,33.0586 l 0.78125,0.96094 -15.04687,12.27734 h 70.73828 v -48.65234 c -36.39844,19.79687 -67.66406,1.78125 -92.48047,-25.71094 z m 0,0"
         style="fill:#e84c0f;fill-opacity:1;fill-rule:evenodd;stroke:none;stroke-width:209.9"
         inkscape:connector-curvature="0" /><path
         id="path1422"
         d="m 79.027344,176.08984 -8.363281,-10.41406 c -17.128907,13.76563 -35.21875,28.21484 -49.839844,39.85547 H 99.992188 C 94.84375,194.60156 85.496094,184.14844 79.027344,176.08984 Z m 0,0"
         style="fill:#e84c0f;fill-opacity:1;fill-rule:evenodd;stroke:none;stroke-width:209.9"
         inkscape:connector-curvature="0" /><path
         id="path1424"
         d="m 376.94531,85.839844 c 18.92578,-3.316406 31.23047,-19.699219 31.23047,-40.621094 0,-27.78125 -24.05469,-45.2890625 -65.28516,-45.2890625 h -81.5625 V 0.863281 c 16.65625,9.148438 16.28125,23.890625 16.28125,37.941407 V 166.30078 c 0,14.35547 0.375,29.25391 -16.28125,38.23438 v 0.93359 h 39.27344 c 38.38281,0 67.76563,0.65234 89.76563,-9.67578 23.32812,-10.96094 37.5,-30.61719 37.5,-54.66406 0,-30.61719 -22.81641,-49.355472 -50.92188,-55.289066 z m -67.34375,-66.96875 25.79297,0.441406 c 19.14063,0 38.72656,9.359375 38.72656,30.921875 0,25.609375 -17.30468,32.480469 -42,32.480469 l -22.51953,0.04687 z m 24.875,165.449216 -24.875,0.0391 v -82.18749 l 26.72656,-0.10157 c 31.14844,0 56.85157,11.57422 56.85157,41.86719 0,29.69141 -26.98047,40.38281 -58.70313,40.38281 z m 0,0"
         style="fill:#006182;fill-opacity:1;fill-rule:evenodd;stroke:none;stroke-width:209.9"
         inkscape:connector-curvature="0" /><g
         id="g1428"
         clip-path="url(#clip1-9)"
         style="clip-rule:nonzero;stroke-width:209.9"><path
           id="path1426"
           d="m 490.37109,166.33984 c 0,17.50391 -0.3164,30.00391 16.23828,39.67969 v 0.9375 h -55.28906 v -0.9375 c 16.57031,-9.67578 16.28125,-22.17578 16.28125,-39.67969 V 41.441406 c 0,-17.492187 0.28906,-31.207031 -16.2539,-40.578125 v -0.9335935 h 45.89843 V 0.246094 c 1.2461,3.75 3.24219,5.804687 4.69141,7.804687 1.43359,1.996094 4.36328,6.246094 4.36328,6.246094 L 611.55859,156.19531 V 40.230469 c 0,-17.492188 0.32032,-29.996094 -16.25,-39.367188 v -0.9335935 h 54.98828 V 0.863281 c -16.24609,9.371094 -16.24609,21.875 -16.24609,39.367188 V 217.14453 C 624.04687,213.16406 596.02344,189.87891 576.09375,163.07031 540.35937,114.98828 490.37109,48.214844 490.37109,48.214844 Z m 0,0"
           style="fill:#006182;fill-opacity:1;fill-rule:evenodd;stroke:none;stroke-width:209.9"
           inkscape:connector-curvature="0" /></g><path
         id="path1430"
         d="m 701.53906,37.171875 c 0,-14.363281 -0.21094,-27.148437 -16.17969,-36.308594 v -0.9335935 h 64.67969 V 0.863281 C 734.03125,9.753906 733.88672,23.117188 733.88672,37.171875 V 168.58594 c 0,14.03125 -0.36719,28.20312 16.15234,37.39843 v 0.92969 h -64.67969 v -0.92969 c 16.6211,-9.28906 16.17969,-23.25781 16.17969,-37.30468 z m 0,0"
         style="fill:#006182;fill-opacity:1;fill-rule:evenodd;stroke:none;stroke-width:209.9"
         inkscape:connector-curvature="0" /></g></g></svg>
