<?xml version="1.0" encoding="UTF-8" standalone="no"?>
<!-- Created with Inkscape (http://www.inkscape.org/) -->

<svg
   width="20.361767mm"
   height="6.6490707mm"
   viewBox="0 0 20.361767 6.6490707"
   version="1.1"
   id="svg5"
   xml:space="preserve"
   xmlns:inkscape="http://www.inkscape.org/namespaces/inkscape"
   xmlns:sodipodi="http://sodipodi.sourceforge.net/DTD/sodipodi-0.dtd"
   xmlns="http://www.w3.org/2000/svg"
   xmlns:svg="http://www.w3.org/2000/svg"><sodipodi:namedview
     id="namedview7"
     pagecolor="#ffffff"
     bordercolor="#000000"
     borderopacity="0.25"
     inkscape:showpageshadow="2"
     inkscape:pageopacity="0.0"
     inkscape:pagecheckerboard="0"
     inkscape:deskcolor="#d1d1d1"
     inkscape:document-units="mm"
     showgrid="false" /><defs
     id="defs2"><style
       id="style1379"
       type="text/css"><![CDATA[
    .fil1 {fill:#EC6722}
    .fil0 {fill:#007697}
   ]]></style><style
       id="style1379-3"
       type="text/css"><![CDATA[
    .fil1 {fill:#EC6722}
    .fil0 {fill:#007697}
   ]]></style><style
       id="style1379-8"
       type="text/css"><![CDATA[
    .fil1 {fill:#EC6722}
    .fil0 {fill:#007697}
   ]]></style></defs><g
     inkscape:label="Layer 1"
     inkscape:groupmode="layer"
     id="layer1"
     transform="translate(-17.993039,-98.694738)"><g
       style="fill:none"
       id="g683"
       transform="matrix(0.61702522,0,0,0.61702522,17.993039,98.694738)"
       inkscape:export-filename="gift_card_va_bca.svg"
       inkscape:export-xdpi="96"
       inkscape:export-ydpi="96"><path
         fill-rule="evenodd"
         clip-rule="evenodd"
         d="m 5.47105,0.368652 c -0.01079,0 -0.02158,0 -0.03237,0 C 3.9892,0.368652 2.59457,0.704489 1.24309,1.382 0.694594,2.68314 0.385275,4.00583 0.36909,5.35547 0.34751,6.69432 0.624008,8.0655 1.23725,9.46407 2.64852,10.0765 4.05978,10.3908 5.47105,10.4074 6.88232,10.3908 8.29358,10.0765 9.7044,9.46407 10.3181,8.0655 10.5946,6.69432 10.573,5.35547 10.5568,4.00583 10.2475,2.68314 9.699,1.382 8.34753,0.704489 6.9529,0.368652 5.50342,0.368652 c -0.01079,0 -0.02158,0 -0.03237,0 z"
         fill="#fefefe"
         id="path656" /><path
         d="M 1.01518,1.08429 C 2.43723,0.357836 3.91324,0 5.4387,0 5.44949,0 5.46028,0 5.47107,0 5.48186,0 5.49265,0 5.50344,0 7.02891,0 8.50491,0.357836 9.92697,1.08429 l 0.08723,0.09204 c 0.5804,1.36579 0.9118,2.75897 0.9279,4.17371 0,0.02694 0,0.04849 0,0.07588 V 5.52334 C 10.9368,6.88375 10.6436,8.27155 10.0142,9.68089 L 9.91618,9.77293 C 8.43478,10.4289 6.95292,10.7593 5.47107,10.776 3.98922,10.7593 2.50737,10.4289 1.02597,9.77293 L 0.927956,9.68089 C 0.298528,8.27155 0.00539509,6.88375 0,5.52334 V 5.42592 C 0,5.39853 0,5.37698 0,5.35004 0.0161853,3.9353 0.347534,2.54212 0.927956,1.17633 Z M 5.47107,0.368612 c -0.01079,0 -0.02158,0 -0.03237,0 -1.44948,0 -2.84411,0.335837 -4.19558,1.013348 C 0.694618,2.6831 0.385299,4.00579 0.369114,5.35543 0.347534,6.69428 0.624032,8.06546 1.23727,9.46403 2.64854,10.0764 4.05981,10.3907 5.47107,10.4073 6.88234,10.3907 8.29361,10.0764 9.70442,9.46403 10.3181,8.06546 10.5946,6.69428 10.573,5.35543 10.5568,4.00579 10.2475,2.6831 9.69903,1.38196 8.34756,0.704449 6.95292,0.368612 5.50344,0.368612 c -0.01079,0 -0.02158,0 -0.03237,0 z"
         fill="#003399"
         id="path658" /><path
         fill-rule="evenodd"
         clip-rule="evenodd"
         d="M 5.56863,8.3962 C 5.49265,7.36085 5.54165,6.28196 5.23233,5.29555 4.9446,4.37424 3.85344,3.84849 3.83186,2.83469 3.81028,2.04314 4.41273,1.12723 5.54165,1.12723 6.59999,1.12184 7.25684,1.89139 7.33282,2.74804 7.42499,3.73984 6.22009,4.40657 5.90537,5.34988 5.57942,6.31473 5.67204,7.38241 5.56863,8.3962 Z"
         fill="#003399"
         id="path660" /><path
         fill-rule="evenodd"
         clip-rule="evenodd"
         d="M 5.98676,8.1468 C 5.94315,7.24704 5.94315,6.38545 6.19312,5.62084 6.46962,4.75386 7.04509,4.02202 7.92449,3.78362 8.52694,3.62108 9.41129,4.32553 9.27057,5.04659 9.15098,5.62668 8.57011,6.30957 7.63675,6.38545 7.20245,6.42316 7.01812,6.77023 6.74656,6.97092 7.96226,6.85149 8.74949,6.37467 9.29754,5.87586 9.37892,6.29835 9.43332,7.00863 9.10197,7.25243 8.45096,7.71308 7.84851,7.33908 7.08286,7.55594 6.6544,7.68076 6.38824,7.95194 5.98676,8.1468 Z"
         fill="#003399"
         id="path662" /><path
         fill-rule="evenodd"
         clip-rule="evenodd"
         d="M 5.15625,8.1468 C 5.20481,7.24704 5.19941,6.38545 4.95529,5.62084 4.67834,4.75386 4.10331,4.02202 3.22391,3.78362 2.62146,3.62108 1.73127,4.32553 1.87783,5.04659 1.99743,5.62668 2.57785,6.30957 3.51165,6.38545 3.94056,6.42316 4.13029,6.77023 4.40184,6.97092 3.1803,6.85149 2.39891,6.37467 1.85086,5.87586 1.76948,6.29835 1.71508,7.00863 2.04598,7.25243 2.69744,7.71308 3.29989,7.33908 4.0651,7.55594 4.494,7.68076 4.75432,7.95194 5.15625,8.1468 Z"
         fill="#003399"
         id="path664" /><path
         fill-rule="evenodd"
         clip-rule="evenodd"
         d="M 8.04928,9.4858 V 9.33944 L 8.15808,9.3125 8.04928,9.14997 V 8.87878 L 8.53799,9.55629 8.36444,9.59984 8.24485,9.43148 Z m 0,-0.60702 V 9.14997 L 7.9733,9.04131 7.94093,9.36682 8.04928,9.33944 V 9.4858 L 7.92474,9.51319 7.90271,9.71344 7.72917,9.75699 7.84337,8.8734 8.01691,8.82984 Z M 6.4321,9.95768 V 9.8167 H 6.46987 C 6.52966,9.81131 6.56788,9.80593 6.58406,9.80009 6.60564,9.7947 6.62722,9.77854 6.63846,9.76237 6.65465,9.74082 6.66004,9.71882 6.66004,9.69188 6.65465,9.66495 6.64925,9.64295 6.63262,9.62678 6.62183,9.61062 6.60025,9.59984 6.57867,9.59446 6.55709,9.58907 6.50808,9.58907 6.4321,9.59446 V 9.45348 c 0.04316,0 0.07059,-0.00539 0.08138,-0.00539 C 6.54045,9.4427 6.56248,9.42609 6.57867,9.40993 6.59485,9.39376 6.60025,9.37221 6.59485,9.34482 6.59485,9.31788 6.58406,9.29633 6.56788,9.28511 6.55709,9.26895 6.53506,9.25817 6.50269,9.25817 c -0.01079,0 -0.03282,0 -0.07059,0.00539 V 9.12258 c 0.0598,-0.00539 0.10296,-0.00539 0.13038,0 0.03237,0 0.06474,0.01122 0.09217,0.02739 C 6.68162,9.16074 6.7032,9.18229 6.72523,9.20923 6.74142,9.23662 6.75221,9.26895 6.7576,9.30711 6.763,9.34482 6.75221,9.38299 6.73602,9.41531 6.71984,9.44809 6.69241,9.47503 6.65465,9.49658 6.7086,9.5078 6.75221,9.52935 6.77918,9.56168 6.81201,9.59446 6.82819,9.63217 6.83359,9.68111 6.83359,9.71882 6.82819,9.75699 6.8174,9.7947 6.80122,9.83286 6.77918,9.8598 6.75221,9.88719 6.71984,9.90874 6.68702,9.9249 6.64386,9.93568 6.61643,9.94107 6.54585,9.94646 6.44289,9.95768 Z m 1.02552,-0.45571 0.16859,0.022 C 7.61542,9.61601 7.588,9.69188 7.53944,9.74621 7.49044,9.7947 7.41985,9.83286 7.33308,9.84903 7.22428,9.86519 7.12672,9.84364 7.04534,9.78393 6.95857,9.71882 6.90957,9.62678 6.88259,9.49658 6.86056,9.36144 6.8772,9.24739 6.93654,9.16074 6.99094,9.07409 7.07771,9.01976 7.19191,8.99821 c 0.10296,-0.01661 0.18433,0 0.26031,0.04849 0.04361,0.02739 0.08138,0.07049 0.1088,0.13559 L 7.40367,9.24739 C 7.38748,9.20923 7.36006,9.1769 7.32769,9.16074 7.28947,9.13919 7.25171,9.1338 7.2081,9.13919 7.1483,9.14997 7.10514,9.18229 7.07232,9.23123 7.03995,9.28511 7.03455,9.35605 7.05074,9.45348 7.07232,9.55629 7.10514,9.62678 7.1483,9.66495 7.19191,9.70266 7.24631,9.71882 7.30566,9.70805 7.34927,9.69727 7.38209,9.67572 7.40906,9.64295 7.43604,9.61062 7.45222,9.56168 7.45762,9.50197 Z M 6.4321,9.12258 v 0.14098 c -0.02158,0 -0.04361,0.00539 -0.07058,0.00539 L 6.26395,9.28017 6.28014,9.46964 6.39389,9.45886 c 0.01079,0 0.02742,0 0.03821,-0.00538 v 0.14098 c 0,0 0,0 -0.00539,0 L 6.29632,9.60523 6.31251,9.82748 6.4321,9.8167 V 9.95768 L 6.16055,9.98462 6.08457,9.15535 6.41592,9.12841 C 6.42131,9.12258 6.42671,9.12258 6.4321,9.12258 Z M 5.38455,9.67033 V 9.52935 c 0.03777,0 0.0598,-0.00538 0.07598,-0.01077 C 5.48211,9.51319 5.4983,9.49658 5.51494,9.48041 5.52573,9.45886 5.53112,9.43731 5.53112,9.41531 5.53652,9.38299 5.52573,9.36144 5.50909,9.33944 5.49291,9.31788 5.47132,9.30711 5.44435,9.30172 5.42771,9.30172 5.41153,9.29633 5.38455,9.29633 V 9.15535 c 0.08138,0 0.13039,0.00539 0.15736,0.01617 0.04901,0.01077 0.08677,0.03771 0.11959,0.08126 0.03237,0.04355 0.04856,0.09743 0.04316,0.16253 0,0.04894 -0.01079,0.09249 -0.02697,0.13021 C 5.65566,9.57784 5.63408,9.60523 5.6071,9.62678 5.57428,9.64295 5.54731,9.65372 5.51494,9.66495 5.48212,9.67033 5.43895,9.67033 5.38455,9.67033 Z m 0,-0.51498 v 0.14098 c -0.01618,0 -0.03821,0 -0.06519,0 L 5.23799,9.29095 v 0.2384 h 0.08677 c 0.02158,0 0.04361,0 0.05979,0 v 0.14098 c -0.01079,0 -0.02742,0 -0.04361,0 H 5.23259 L 5.2272,9.98462 5.0586,9.97923 5.07523,9.14997 5.34094,9.15535 c 0.01619,0 0.03282,0 0.04361,0 z M 3.81593,9.58907 V 9.33405 C 3.86494,9.34482 3.89731,9.34482 3.91349,9.34482 3.93552,9.33944 3.95171,9.33405 3.96789,9.31788 3.97868,9.30172 3.98947,9.28511 3.99487,9.25817 4.00026,9.23123 3.99487,9.20923 3.98408,9.18768 3.97329,9.16613 3.95171,9.15535 3.92428,9.14458 3.91349,9.13919 3.87573,9.1338 3.81593,9.12258 V 8.9816 L 3.88652,8.99282 C 3.97329,9.00899 4.03308,9.02515 4.07085,9.0467 4.10906,9.0687 4.13604,9.10103 4.15222,9.14458 4.16886,9.18229 4.17425,9.23123 4.16346,9.28017 4.15222,9.33944 4.12525,9.38837 4.08209,9.4207 4.04387,9.45348 3.98408,9.46964 3.9081,9.46964 3.94092,9.49658 3.96789,9.52397 3.98408,9.5509 4.00566,9.58368 4.02769,9.63217 4.05466,9.70266 L 4.12525,9.8818 3.92968,9.84364 3.84291,9.64295 C 3.83212,9.62678 3.82672,9.60523 3.81593,9.58907 Z M 4.2934,9.07409 4.45615,9.09025 4.41838,9.54013 C 4.41299,9.61062 4.41299,9.65956 4.41299,9.67572 4.41838,9.71344 4.43457,9.74082 4.45615,9.76237 4.48357,9.78931 4.51594,9.80009 4.56495,9.80592 4.61395,9.81131 4.65172,9.80009 4.6733,9.78393 4.70073,9.76776 4.71691,9.74621 4.7277,9.71882 4.7331,9.69188 4.73849,9.64295 4.74389,9.57784 L 4.7821,9.11719 4.95025,9.1338 4.91248,9.56707 C 4.90709,9.67033 4.89585,9.74082 4.87966,9.77854 4.86887,9.8167 4.84729,9.85441 4.82526,9.87597 4.79829,9.90335 4.76052,9.9249 4.71691,9.93568 4.6787,9.95229 4.62474,9.95229 4.55955,9.94646 4.47818,9.94107 4.41838,9.9249 4.38017,9.90335 4.3424,9.8818 4.30958,9.85441 4.288,9.82748 4.26642,9.7947 4.25563,9.76237 4.25024,9.73005 c -0.0054,-0.04894 -0.0054,-0.11943 0,-0.21147 z M 2.97475,9.31788 3.00712,9.18229 3.36005,9.27433 3.27327,9.59446 C 3.22966,9.62139 3.17526,9.63756 3.09928,9.64295 3.0287,9.64833 2.96396,9.64295 2.89877,9.62678 2.81154,9.60523 2.74141,9.56707 2.6924,9.51858 2.638,9.46425 2.60563,9.39915 2.58945,9.32866 2.57821,9.25278 2.57821,9.1769 2.60024,9.10103 2.62182,9.01976 2.65958,8.94927 2.71398,8.88956 2.76299,8.83568 2.82818,8.8029 2.90416,8.78674 2.96396,8.77058 3.03409,8.77597 3.11052,8.79752 3.20808,8.82446 3.28406,8.86262 3.32723,8.92233 3.37084,8.97621 3.39242,9.0467 3.38702,9.12258 L 3.21887,9.1118 C 3.21887,9.0687 3.20808,9.03054 3.18066,8.99821 3.15368,8.97082 3.12131,8.94388 3.07231,8.93311 3.00172,8.91695 2.94193,8.92233 2.88753,8.95466 2.83357,8.98744 2.79536,9.05209 2.76838,9.13919 2.74141,9.23662 2.7468,9.3125 2.77378,9.37221 2.80615,9.43148 2.85515,9.46964 2.92035,9.4858 2.95811,9.49658 2.99093,9.49658 3.0287,9.49658 3.06691,9.49119 3.09928,9.48042 3.1321,9.46964 L 3.15908,9.36682 Z M 3.81593,8.9816 3.53359,8.93311 3.39242,9.7516 3.55517,9.77854 3.61496,9.43731 3.65318,9.4427 C 3.69094,9.44809 3.71837,9.45886 3.73455,9.46425 3.75074,9.47503 3.76153,9.49119 3.77772,9.5078 3.78311,9.52397 3.79975,9.5509 3.81593,9.58907 V 9.33405 c -0.01618,0 -0.03282,-0.00539 -0.0544,-0.00539 L 3.64239,9.30711 3.67476,9.10103 3.80514,9.12258 c 0.0054,0 0.01079,0 0.01079,0 V 8.9816 Z"
         fill="#003399"
         id="path666" /><path
         fill-rule="evenodd"
         clip-rule="evenodd"
         d="M 29.6837,7.96801 V 6.43924 h 0.6731 V 3.75075 L 29.6837,5.09499 V 1.73977 h 2.6432 l 0.673,7.72963 H 30.3568 V 7.96801 Z m 0,-6.22824 v 3.35522 l -0.673,1.34425 h 0.673 v 1.52877 h -1.2701 l -0.521,1.42013 H 26.2534 V 7.62095 L 28.0823,3.68026 H 27.7078 L 28.7499,1.73977 Z M 26.2534,4.31467 27.073,2.37418 26.2534,1.91892 Z M 19.7347,3.57206 c 0.0383,-0.22225 0.0383,-0.4391 0,-0.64519 z M 26.2534,1.91892 V 4.31467 L 26.145,4.57463 C 24.5274,3.4203 22.1392,4.47181 22.0034,5.69124 21.8681,6.96499 22.8396,7.99495 25.32,7.2254 L 24.4676,9.50173 C 21.195,9.86495 19.9249,8.56965 19.7347,7.05748 V 6.20083 c 0.049,-0.39555 0.152,-0.78033 0.2932,-1.13816 1.6122,-4.00041 4.2279,-3.10065 5.2215,-3.17653 L 25.396,1.44165 Z m 0,5.70203 -0.8196,1.76719 h 0.8196 z M 16.7931,9.3392 C 18.546,8.99258 20.2666,6.88912 18.5406,5.21442 19.2137,4.85659 19.6318,4.21185 19.7347,3.57206 V 2.92687 C 19.6156,2.26014 19.0999,1.71822 18.1284,1.70206 L 16.7931,1.67467 v 1.48522 h 0.5534 c 0.5917,0 0.5157,1.52878 -0.2225,1.52878 h -0.3309 v 1.17094 c 0.798,0.15175 0.5156,1.25714 0,1.59881 z m 2.9416,-3.13837 v 0.85665 c -0.0323,-0.28196 -0.0323,-0.5693 0,-0.85665 z M 14.4808,1.62618 13.4009,3.71842 13.8838,3.68026 12.5813,9.38814 h 3.7289 c 0.1628,0 0.3201,-0.01617 0.4829,-0.04894 V 7.45842 c -0.0922,0.0651 -0.1956,0.10282 -0.2986,0.10282 H 15.1539 L 15.599,5.84299 h 1.0039 c 0.0706,0 0.1358,0.00539 0.1902,0.01662 V 4.68867 h -0.9338 l 0.3745,-1.52878 h 0.5593 V 1.67467 Z"
         fill="#003399"
         id="path668" /></g></g></svg>
