<?xml version="1.0" encoding="UTF-8" standalone="no"?>
<!-- Created with Inkscape (http://www.inkscape.org/) -->

<svg
   width="43.456516mm"
   height="6.6300964mm"
   viewBox="0 0 43.456516 6.6300964"
   version="1.1"
   id="svg5"
   xml:space="preserve"
   xmlns:inkscape="http://www.inkscape.org/namespaces/inkscape"
   xmlns:sodipodi="http://sodipodi.sourceforge.net/DTD/sodipodi-0.dtd"
   xmlns="http://www.w3.org/2000/svg"
   xmlns:svg="http://www.w3.org/2000/svg"><sodipodi:namedview
     id="namedview7"
     pagecolor="#ffffff"
     bordercolor="#000000"
     borderopacity="0.25"
     inkscape:showpageshadow="2"
     inkscape:pageopacity="0.0"
     inkscape:pagecheckerboard="0"
     inkscape:deskcolor="#d1d1d1"
     inkscape:document-units="mm"
     showgrid="false" /><defs
     id="defs2"><style
       id="style1379"
       type="text/css"><![CDATA[
    .fil1 {fill:#EC6722}
    .fil0 {fill:#007697}
   ]]></style><style
       id="style1379-3"
       type="text/css"><![CDATA[
    .fil1 {fill:#EC6722}
    .fil0 {fill:#007697}
   ]]></style><style
       id="style1379-8"
       type="text/css"><![CDATA[
    .fil1 {fill:#EC6722}
    .fil0 {fill:#007697}
   ]]></style></defs><g
     inkscape:label="Layer 1"
     inkscape:groupmode="layer"
     id="layer1"
     transform="translate(-17.876929,-88.839025)"><g
       id="g2184"
       transform="matrix(0.04012161,0,0,0.04012161,17.876929,88.83902)"
       style="fill:none"
       inkscape:export-filename="gift_card_va_cimbniaga.svg"
       inkscape:export-xdpi="96"
       inkscape:export-ydpi="96"><g
         id="#790008ff"><path
           fill="#790008"
           opacity="1"
           d="m 0,0 h 165.25 c 0,55.08 0,110.16 -0.01,165.24 -55.08,0.01 -110.16,0 -165.24,0.01 V 0 m 22.01,31.02 c 12.86,17.22 25.91,34.29 38.83,51.46 -12.81,17.24 -25.94,34.24 -38.77,51.47 29.33,0.12 58.65,0 87.98,0.06 13.2,-17.08 25.92,-34.53 39.21,-51.55 l -0.25,0.01 C 136.06,65.3 123.05,48.17 110.12,31 80.75,31.02 51.38,30.97 22.01,31.02 Z"
           id="path2136" /><path
           fill="#790008"
           opacity="1"
           d="m 221.25,48.29 c 9.84,-12.27 24.97,-20.15 40.69,-21.04 14.89,-1.15 30.04,4.08 41.23,13.93 -5.05,5.09 -10.11,10.15 -15.2,15.2 -8.61,-6.98 -20.57,-9.73 -31.29,-6.67 -11.96,3.14 -21.56,13.36 -24.23,25.4 -3.26,13.07 1.45,27.92 12.2,36.2 12.28,10.05 31.33,9.54 43.4,-0.61 5.06,5.07 10.23,10.05 15.16,15.26 -9.99,8.68 -22.98,13.9 -36.24,14.06 -16.71,0.46 -33.45,-6.89 -44.36,-19.56 -7.63,-8.69 -12.49,-19.79 -13.58,-31.31 -1.53,-14.52 2.94,-29.57 12.22,-40.86 z"
           id="path2138" /><path
           fill="#790008"
           opacity="1"
           d="m 323.25,30.25 c 7.25,0 14.49,0.01 21.74,-0.01 0.02,35.59 0,71.17 0.01,106.76 -7.25,0 -14.5,0.01 -21.75,-0.01 0.01,-35.58 0,-71.16 0,-106.74 z"
           id="path2140" /><path
           fill="#790008"
           opacity="1"
           d="m 371,30 c 7.05,-0.02 14.1,0.04 21.16,-0.03 12.57,22.61 24.82,45.42 37.55,67.95 12.34,-22.68 24.86,-45.25 37.2,-67.93 7.11,0.02 14.22,0 21.34,0.01 -0.04,35.6 0.07,71.19 -0.06,106.79 -7.24,-0.11 -14.47,0.02 -21.71,-0.07 0.05,-21.07 0,-42.13 0.03,-63.19 -12.47,21.29 -24.35,42.94 -37.04,64.09 -12.12,-21.43 -24.57,-42.67 -36.74,-64.07 0.04,21.07 0.01,42.13 0.02,63.2 -7.25,0 -14.49,-0.01 -21.74,0.01 -0.03,-35.59 0,-71.17 -0.01,-106.76 z"
           id="path2142" /><path
           fill="#790008"
           opacity="1"
           d="m 513.01,30.24 c 14.68,0.02 29.35,0 44.03,0.01 6.79,0.13 13.76,1.56 19.56,5.25 14.01,8.56 17.23,30.79 5.53,42.57 -1.5,1.6 -3.28,2.92 -5.05,4.2 6.67,3.51 11.79,10.02 13.03,17.52 1.81,10.12 -0.5,21.74 -8.35,28.88 -6.26,5.99 -15.16,8.15 -23.6,8.26 -15.05,0.16 -30.11,0.03 -45.16,0.07 0.01,-35.59 -0.02,-71.17 0.01,-106.76 m 21.74,19.51 c -0.01,7.75 0,15.5 0,23.25 6.4,-0.02 12.81,0.03 19.22,-0.01 3.73,-0.07 7.76,-0.85 10.49,-3.6 3.88,-4.12 3.98,-11.07 0.53,-15.49 -2.65,-3.19 -7.03,-4.18 -11,-4.16 -6.42,0.01 -12.83,0.01 -19.24,0.01 m 0,42.76 c 0,8.24 -0.01,16.49 0,24.74 7.07,0.01 14.14,-0.01 21.21,0.02 3.31,0.1 6.79,-0.83 9.27,-3.12 4.94,-4.76 5.03,-13.63 -0.01,-18.35 -2.72,-2.58 -6.62,-3.25 -10.23,-3.3 -6.75,-0.01 -13.5,0 -20.24,0.01 z"
           id="path2144" /><path
           fill="#790008"
           opacity="1"
           d="m 635.24,30.01 c 3.63,0.04 7.26,-0.13 10.89,0.05 1.66,1.29 2.59,3.31 3.92,4.93 19.92,27.21 39.68,54.54 59.71,81.67 -0.02,-28.89 0,-57.77 -0.01,-86.66 3.75,0 7.5,0 11.25,0 0,35.5 0,71 0,106.5 -3.79,0 -7.58,-0.01 -11.36,0.02 -21.04,-28.94 -42.07,-57.89 -63.14,-86.81 0,28.93 0,57.86 0,86.78 -3.78,-0.01 -7.56,0.08 -11.32,-0.08 0.17,-35.46 0.03,-70.93 0.06,-106.4 z"
           id="path2146" /><path
           fill="#790008"
           opacity="1"
           d="m 749,30 c 3.75,0 7.49,0 11.25,0 0,35.5 -0.01,70.99 0,106.48 -3.75,0.03 -7.5,0.01 -11.24,0.02 -0.03,-35.5 0,-71 -0.01,-106.5 z"
           id="path2148" /><path
           fill="#790008"
           opacity="1"
           d="m 777.57,137.22 c 12.97,-35.51 25.95,-71.02 39.01,-106.49 5.2,0.05 10.39,0.01 15.59,0.02 12.37,35.25 24.72,70.52 37.13,105.75 -4.42,-0.01 -8.84,0.01 -13.25,-0.01 -3.29,-9.43 -6.63,-18.85 -10.02,-28.25 -14.69,0.01 -29.37,0.01 -44.05,0.01 -3.28,9.65 -6.43,19.36 -9.72,29.01 -4.9,-0.04 -9.8,0.02 -14.69,-0.04 m 28.91,-41.74 c 11.69,0.05 23.39,0.01 35.08,0.02 -5.86,-17.08 -11.64,-34.19 -17.4,-51.3 -5.87,17.1 -11.86,34.16 -17.68,51.28 z"
           id="path2150" /><path
           fill="#790008"
           opacity="1"
           d="m 894.27,48.18 c 8.88,-9.14 20.76,-15.71 33.57,-16.89 15.79,-1.59 31.51,4.27 44.28,13.26 -2.49,3.23 -5.11,6.35 -7.58,9.59 -4.25,-6.05 -11.78,-8.31 -18.57,-10.14 -11.81,-3.25 -25.21,-1.49 -35.18,5.84 -9.01,6.8 -15.03,17.13 -17.42,28.08 -1.35,11.32 -0.23,23.68 6.49,33.26 2.31,3.62 5.99,5.95 9.14,8.76 6.68,5.45 15.44,7.92 23.98,7.84 10.51,0.1 20.91,-2.59 30.52,-6.72 -0.01,-10.94 0.02,-21.88 -0.01,-32.82 -8.33,0.01 -16.66,0.01 -24.99,0 0,-3.32 0,-6.64 -0.01,-9.96 11.83,-0.07 23.66,0 35.5,-0.04 0.02,16.92 0,33.83 0.01,50.75 -11.29,6.3 -24.23,8.94 -36.97,10.21 -13.49,0.28 -27.58,-3.18 -38.08,-11.99 -10.26,-8.43 -16.25,-21.26 -18.01,-34.26 -1.35,-15.82 2.67,-32.67 13.33,-44.77 z"
           id="path2152" /><path
           fill="#790008"
           opacity="1"
           d="m 992.04,137.11 c 13.03,-35.43 26,-70.88 38.93,-106.35 5.2,-0.03 10.4,0.03 15.61,-0.05 11.95,33.65 23.63,67.4 35.54,101.07 0.56,1.51 0.87,3.09 1,4.71 -4.19,0.02 -8.36,0 -12.53,0.02 -3.39,-9.4 -6.69,-18.84 -10.03,-28.25 -14.74,-0.02 -29.48,-0.03 -44.21,0.01 -3.16,9.67 -6.44,19.3 -9.62,28.96 -4.9,-0.03 -9.8,0.16 -14.69,-0.12 m 46.54,-92.84 c -5.8,17.11 -11.85,34.13 -17.6,51.26 11.65,-0.06 23.31,-0.02 34.96,-0.02 -5.67,-17.12 -11.55,-34.17 -17.36,-51.24 z"
           id="path2154" /></g><g
         id="#ffffffff"><path
           fill="#ffffff"
           opacity="1"
           d="m 22.01,31.02 c 29.37,-0.05 58.74,0 88.11,-0.02 12.93,17.17 25.94,34.3 38.89,51.47 C 119.62,82.53 90.23,82.5 60.84,82.48 47.92,65.31 34.87,48.24 22.01,31.02 Z"
           id="path2157" /></g><g
         id="#ed3024ff"><path
           fill="#ed3024"
           opacity="1"
           d="m 60.84,82.48 c 29.39,0.02 58.78,0.05 88.17,-0.01 l 0.25,-0.01 C 135.97,99.48 123.25,116.93 110.05,134.01 80.72,133.95 51.4,134.07 22.07,133.95 34.9,116.72 48.03,99.72 60.84,82.48 Z"
           id="path2160" /></g></g></g></svg>
