<svg width="211" height="204" viewBox="0 0 211 204" fill="none" xmlns="http://www.w3.org/2000/svg">
<path d="M12.1738 179.448C12.1738 181.105 13.517 182.448 15.1738 182.448H181.618C183.275 182.448 184.618 181.105 184.618 179.448V13.0045C184.618 11.3477 183.275 10.0045 181.618 10.0045H15.1738C13.517 10.0045 12.1738 11.3477 12.1738 13.0045V179.448Z" stroke="white" stroke-width="2" stroke-miterlimit="10"/>
<path d="M190.379 170.004C190.549 171.652 189.351 173.126 187.703 173.296L22.1373 190.379C20.4892 190.549 19.0153 189.351 18.8452 187.703L1.76306 22.138C1.59302 20.4899 2.79121 19.016 4.43931 18.8459L170.004 1.76304C171.652 1.59299 173.126 2.79119 173.296 4.4393L190.379 170.004Z" stroke="white" stroke-width="2" stroke-miterlimit="10" stroke-dasharray="96 34.57"/>
<path d="M175.856 167.787C172.459 172.327 167.513 175.419 162.168 177.359C159.488 178.328 156.696 179.028 153.856 179.483C151.006 179.935 148.111 180.187 145.197 180.313C139.425 180.573 133.573 180.482 127.7 181.012C124.865 181.28 121.972 181.533 119.118 182.149C116.273 182.752 113.448 183.688 110.989 185.233C110.635 185.454 111.001 186.217 111.375 186.041C116.578 183.585 122.314 182.508 128.018 182.02C133.744 181.554 139.501 181.646 145.24 181.372C148.176 181.236 151.112 181.013 154.021 180.583C156.927 180.148 159.803 179.458 162.561 178.446C165.31 177.419 167.962 176.09 170.288 174.319C172.636 172.586 174.613 170.383 176.047 167.913C176.1 167.826 175.919 167.708 175.856 167.787Z" fill="url(#paint0_linear_584_96)"/>
<path d="M117.132 183.165C117.132 183.165 117.086 183.231 117.008 183.345C116.925 183.451 116.808 183.625 116.651 183.81C116.343 184.208 115.894 184.721 115.346 185.246C114.809 185.803 114.158 186.341 113.474 186.896C112.784 187.437 112.046 187.963 111.291 188.44C110.92 188.687 110.53 188.903 110.153 189.122C109.779 189.348 109.4 189.551 109.014 189.727C108.28 190.126 107.522 190.419 106.861 190.687C106.177 190.928 105.579 191.127 105.123 191.244C104.898 191.305 104.699 191.335 104.572 191.365C104.44 191.386 104.364 191.399 104.364 191.399C104.364 191.399 104.368 191.322 104.387 191.188C104.411 191.058 104.433 190.854 104.49 190.616C104.6 190.137 104.788 189.456 105.163 188.756C105.515 188.027 106.045 187.279 106.699 186.549C107.361 185.838 108.16 185.164 109.036 184.624C109.468 184.34 109.926 184.106 110.386 183.894C110.844 183.676 111.308 183.491 111.776 183.361C112.696 183.059 113.604 182.927 114.395 182.874C115.189 182.834 115.874 182.902 116.356 182.976C116.598 183.013 116.796 183.076 116.926 183.105C117.059 183.139 117.131 183.165 117.131 183.165L117.132 183.165Z" fill="url(#paint1_linear_584_96)"/>
<path d="M124.303 181.708C124.303 181.708 124.237 181.711 124.12 181.702C124.004 181.693 123.833 181.678 123.616 181.659C123.422 181.663 123.187 181.669 122.917 181.674C122.637 181.693 122.339 181.686 122.004 181.69C121.667 181.696 121.316 181.669 120.931 181.67C120.551 181.656 120.15 181.633 119.727 181.591C118.892 181.54 117.978 181.381 117.047 181.221C116.108 181.028 115.148 180.815 114.203 180.508C113.734 180.358 113.269 180.204 112.82 180.035C112.376 179.873 111.933 179.668 111.532 179.483C111.127 179.292 110.744 179.087 110.414 178.903C110.075 178.696 109.784 178.494 109.552 178.324C109.315 178.138 109.144 177.952 109.03 177.847C108.918 177.734 108.863 177.669 108.863 177.669C108.863 177.669 109.152 177.596 109.657 177.47C109.902 177.391 110.186 177.315 110.5 177.23C110.827 177.137 111.178 177.069 111.566 176.982C111.959 176.899 112.368 176.819 112.814 176.765C113.255 176.717 113.717 176.678 114.199 176.657C115.153 176.628 116.172 176.692 117.168 176.885C118.169 177.076 119.148 177.367 120.044 177.793C120.491 177.983 120.917 178.224 121.314 178.474C121.708 178.715 122.079 179.002 122.405 179.263C122.733 179.531 123.027 179.84 123.273 180.101C123.534 180.397 123.746 180.678 123.9 180.904C124.042 181.137 124.132 181.355 124.203 181.487C124.267 181.627 124.303 181.707 124.303 181.707L124.303 181.708Z" fill="url(#paint2_linear_584_96)"/>
<path d="M124.967 181.62C124.967 181.62 124.96 181.719 124.946 181.892C124.926 182.063 124.908 182.325 124.864 182.634C124.794 182.942 124.686 183.322 124.542 183.767C124.394 184.16 124.22 184.595 124.011 185.041C123.795 185.451 123.563 185.935 123.299 186.362C123.036 186.8 122.755 187.249 122.452 187.654C121.869 188.528 121.207 189.28 120.577 190.009C119.302 191.436 118.045 192.486 117.123 193.189C116.891 193.358 116.678 193.513 116.487 193.652C116.305 193.792 116.136 193.907 115.99 193.996C115.859 194.094 115.75 194.177 115.675 194.234C115.598 194.288 115.556 194.317 115.556 194.317C115.556 194.317 115.544 194.228 115.522 194.071C115.506 193.915 115.474 193.672 115.462 193.377C115.456 193.094 115.476 192.771 115.51 192.394C115.554 192.034 115.622 191.638 115.718 191.216C115.818 190.806 115.958 190.377 116.132 189.954C116.309 189.535 116.504 189.084 116.748 188.674C117.227 187.83 117.831 187.024 118.513 186.304C119.186 185.578 119.933 184.931 120.667 184.392C121.04 184.124 121.398 183.867 121.75 183.636C121.935 183.534 122.103 183.417 122.269 183.314C122.439 183.215 122.601 183.109 122.765 183.02C123.077 182.825 123.371 182.647 123.645 182.507C123.908 182.352 124.138 182.217 124.327 182.105C124.517 181.938 124.685 181.821 124.793 181.738C124.904 181.658 124.968 181.62 124.968 181.62L124.967 181.62Z" fill="url(#paint3_linear_584_96)"/>
<path d="M133.862 181.012C133.862 181.012 133.791 180.994 133.666 180.948C133.544 180.898 133.356 180.839 133.132 180.735C132.919 180.674 132.66 180.6 132.362 180.516C132.064 180.439 131.723 180.344 131.367 180.232C130.994 180.14 130.612 180.013 130.191 179.89C129.777 179.753 129.341 179.61 128.878 179.458C127.969 179.14 126.978 178.757 125.977 178.303C124.97 177.855 123.949 177.348 122.971 176.77C122.485 176.49 122.007 176.173 121.552 175.879C121.1 175.581 120.666 175.238 120.273 174.934C119.878 174.593 119.516 174.291 119.206 173.986C118.895 173.661 118.634 173.378 118.431 173.126C118.229 172.853 118.093 172.621 117.997 172.476C117.905 172.326 117.861 172.242 117.861 172.242C117.861 172.242 117.947 172.25 118.108 172.265C118.263 172.287 118.493 172.302 118.752 172.344C119.028 172.363 119.36 172.378 119.712 172.422C120.076 172.453 120.481 172.49 120.907 172.545C121.351 172.579 121.803 172.655 122.291 172.737C122.776 172.822 123.278 172.92 123.798 173.046C124.827 173.301 125.911 173.658 126.95 174.124C127.994 174.596 128.982 175.152 129.874 175.824C130.319 176.143 130.739 176.506 131.127 176.857C131.512 177.211 131.863 177.608 132.175 177.962C132.488 178.35 132.756 178.712 132.986 179.064C133.219 179.449 133.405 179.781 133.534 180.061C133.648 180.348 133.724 180.596 133.782 180.754C133.832 180.919 133.862 181.012 133.862 181.012L133.862 181.012Z" fill="url(#paint4_linear_584_96)"/>
<path d="M143.429 181.006C143.429 181.006 143.363 180.965 143.246 180.88C143.135 180.781 142.947 180.691 142.755 180.576C142.65 180.521 142.533 180.459 142.407 180.392C142.282 180.331 142.146 180.265 142.002 180.194C141.715 180.063 141.39 179.915 141.037 179.754C140.685 179.594 140.305 179.418 139.903 179.234C139.505 179.041 139.077 178.84 138.644 178.611C138.205 178.389 137.76 178.14 137.3 177.881C136.842 177.616 136.381 177.332 135.916 177.032C135.452 176.73 134.989 176.412 134.535 176.076C134.079 175.743 133.63 175.387 133.2 175.024C132.339 174.295 131.534 173.517 130.878 172.742C130.546 172.359 130.25 171.977 130 171.619C129.75 171.255 129.548 170.916 129.394 170.623C129.24 170.324 129.141 170.075 129.078 169.901C129.016 169.73 128.99 169.635 128.99 169.635C128.99 169.635 129.066 169.662 129.209 169.713C129.34 169.774 129.554 169.822 129.795 169.907C130.281 170.042 130.972 170.236 131.777 170.484C132.174 170.61 132.605 170.747 133.043 170.912C133.481 171.079 133.945 171.258 134.414 171.469C134.879 171.681 135.354 171.913 135.833 172.171C136.312 172.429 136.779 172.717 137.25 173.021C137.722 173.331 138.177 173.66 138.621 174.013C139.064 174.366 139.498 174.74 139.899 175.13C140.711 175.908 141.435 176.764 142.001 177.611C142.285 178.034 142.53 178.459 142.73 178.853C142.929 179.256 143.082 179.629 143.19 179.948C143.303 180.289 143.36 180.55 143.387 180.726C143.415 180.906 143.43 181.006 143.43 181.006L143.429 181.006Z" fill="url(#paint5_linear_584_96)"/>
<path d="M153.268 180.28C153.268 180.28 153.205 180.249 153.098 180.18C152.992 180.093 152.829 180.049 152.658 179.982C152.468 179.915 152.248 179.84 151.997 179.772C151.743 179.705 151.465 179.632 151.16 179.552C150.859 179.474 150.529 179.371 150.185 179.272C149.839 179.163 149.48 179.05 149.108 178.905C148.36 178.626 147.585 178.261 146.811 177.814C146.044 177.37 145.282 176.844 144.598 176.246C143.909 175.657 143.282 174.994 142.782 174.338C142.277 173.681 141.89 173.019 141.666 172.498C141.439 171.972 141.379 171.625 141.379 171.625C141.379 171.625 141.437 171.639 141.548 171.667C141.649 171.703 141.814 171.718 141.999 171.757C142.382 171.826 142.904 171.896 143.51 172.023C143.813 172.088 144.146 172.169 144.482 172.262C144.819 172.361 145.176 172.472 145.542 172.615C146.268 172.877 147.037 173.258 147.79 173.702C148.547 174.16 149.302 174.689 149.998 175.31C150.702 175.926 151.344 176.602 151.881 177.319C152.417 178.03 152.826 178.753 153.04 179.334C153.154 179.632 153.217 179.883 153.235 180.033C153.256 180.192 153.269 180.28 153.269 180.28L153.268 180.28Z" fill="url(#paint6_linear_584_96)"/>
<path d="M162 178.246C162 178.246 161.937 178.205 161.821 178.128C161.766 178.083 161.694 178.035 161.617 178.013C161.536 177.984 161.474 177.958 161.37 177.928C161.18 177.867 160.963 177.813 160.71 177.772C160.46 177.73 160.178 177.684 159.876 177.633C159.268 177.528 158.565 177.422 157.813 177.199C157.065 177.009 156.272 176.696 155.497 176.32C154.721 175.935 153.967 175.456 153.281 174.898C152.58 174.336 151.965 173.719 151.454 173.071C150.944 172.428 150.559 171.775 150.329 171.254C150.213 170.995 150.14 170.772 150.096 170.615C150.052 170.459 150.036 170.376 150.036 170.376C150.036 170.376 150.088 170.392 150.185 170.424C150.274 170.463 150.419 170.479 150.582 170.516C150.917 170.573 151.375 170.65 151.929 170.744C152.2 170.799 152.496 170.863 152.81 170.949C153.111 171.03 153.427 171.122 153.758 171.245C154.427 171.487 155.133 171.782 155.883 172.185C156.616 172.562 157.396 173.045 158.137 173.578C158.51 173.84 158.881 174.137 159.237 174.438C159.594 174.742 159.931 175.049 160.247 175.374C160.563 175.702 160.852 176.025 161.102 176.362C161.349 176.687 161.555 177.016 161.697 177.303C161.768 177.432 161.835 177.596 161.876 177.713C161.925 177.834 161.946 177.926 161.958 178.004C161.984 178.159 161.998 178.245 161.998 178.245L162 178.246Z" fill="url(#paint7_linear_584_96)"/>
<path d="M133.869 181.209C133.869 181.209 133.867 181.302 133.865 181.467C133.864 181.628 133.841 181.877 133.77 182.203C133.736 182.355 133.691 182.519 133.64 182.701C133.587 182.874 133.52 183.057 133.447 183.253C133.297 183.631 133.105 184.038 132.879 184.444C132.428 185.259 131.831 186.068 131.173 186.804C130.516 187.548 129.786 188.204 129.063 188.782C128.332 189.351 127.628 189.843 126.947 190.223C126.273 190.613 125.638 190.903 125.091 191.126C124.813 191.228 124.56 191.32 124.333 191.404C124.105 191.482 123.905 191.55 123.741 191.606C123.579 191.667 123.434 191.697 123.346 191.739C123.251 191.772 123.199 191.789 123.199 191.789C123.199 191.789 123.213 191.44 123.337 190.895C123.462 190.356 123.702 189.652 124.07 188.919C124.442 188.195 124.94 187.444 125.533 186.745C126.125 186.047 126.812 185.396 127.536 184.835C128.258 184.266 129.019 183.779 129.753 183.374C130.118 183.167 130.479 182.99 130.82 182.818C131.165 182.655 131.491 182.5 131.793 182.358C132.1 182.216 132.38 182.085 132.63 181.97C132.755 181.905 132.873 181.846 132.982 181.791C133.092 181.729 133.193 181.674 133.283 181.623C133.449 181.521 133.615 181.433 133.71 181.334C133.81 181.25 133.869 181.209 133.869 181.209L133.869 181.209Z" fill="url(#paint8_linear_584_96)"/>
<path d="M143.649 180.999C143.649 180.999 143.648 181.104 143.648 181.294C143.648 181.48 143.624 181.762 143.549 182.14C143.512 182.314 143.461 182.504 143.405 182.717C143.345 182.917 143.269 183.131 143.186 183.36C143.012 183.801 142.789 184.28 142.519 184.755C141.979 185.708 141.251 186.678 140.428 187.552C140.223 187.776 140.009 187.99 139.79 188.198C139.573 188.411 139.355 188.618 139.13 188.815C138.682 189.214 138.21 189.588 137.75 189.942C137.287 190.291 136.815 190.619 136.355 190.92C135.897 191.221 135.443 191.492 135.001 191.742C134.566 191.995 134.145 192.216 133.744 192.418C133.343 192.612 132.968 192.792 132.624 192.958C132.276 193.113 131.951 193.249 131.679 193.379C131.4 193.507 131.156 193.617 130.955 193.709C130.759 193.812 130.586 193.876 130.482 193.944C130.37 194.006 130.312 194.039 130.312 194.039C130.312 194.039 130.362 193.634 130.576 193.01C130.684 192.703 130.831 192.347 131.017 191.961C131.204 191.581 131.431 191.17 131.694 190.753C132.229 189.925 132.905 189.065 133.692 188.263C134.084 187.862 134.497 187.467 134.927 187.091C135.361 186.718 135.806 186.359 136.256 186.014C136.708 185.673 137.169 185.35 137.62 185.041C138.075 184.737 138.526 184.444 138.964 184.177C139.408 183.909 139.829 183.654 140.229 183.413C140.63 183.175 141.011 182.949 141.361 182.741C141.715 182.533 142.028 182.329 142.313 182.144C142.453 182.045 142.584 181.954 142.705 181.869C142.825 181.775 142.935 181.688 143.034 181.61C143.212 181.451 143.389 181.312 143.485 181.178C143.592 181.06 143.649 180.999 143.649 180.999Z" fill="url(#paint9_linear_584_96)"/>
<path d="M153.622 180.031C153.622 180.031 153.646 180.131 153.689 180.312C153.735 180.489 153.78 180.76 153.791 181.158C153.793 181.343 153.782 181.539 153.771 181.765C153.755 181.984 153.716 182.208 153.678 182.461C153.582 182.938 153.438 183.469 153.226 183.994C152.808 185.04 152.153 186.109 151.346 187.051C151.149 187.292 150.937 187.52 150.718 187.74C150.501 187.97 150.277 188.187 150.043 188.4C149.583 188.814 149.099 189.204 148.602 189.564C146.617 191.002 144.5 191.87 142.913 192.363C142.126 192.609 141.447 192.782 140.979 192.909C140.748 192.982 140.548 193.019 140.423 193.069C140.288 193.108 140.216 193.129 140.216 193.129C140.216 193.129 140.323 192.748 140.614 192.166C140.76 191.88 140.951 191.549 141.183 191.194C141.414 190.843 141.696 190.468 142.007 190.082C142.321 189.704 142.668 189.313 143.041 188.93C143.42 188.545 143.822 188.159 144.244 187.787C144.662 187.416 145.103 187.045 145.552 186.69C146 186.335 146.455 185.996 146.913 185.658C147.825 184.995 148.735 184.371 149.568 183.803C149.98 183.515 150.379 183.236 150.756 182.971C151.125 182.709 151.475 182.454 151.781 182.2C152.096 181.953 152.361 181.709 152.604 181.481C152.718 181.358 152.825 181.242 152.924 181.136C153.019 181.015 153.105 180.905 153.184 180.806C153.256 180.699 153.32 180.603 153.376 180.52C153.44 180.434 153.472 180.326 153.509 180.256C153.583 180.109 153.622 180.03 153.622 180.03L153.622 180.031Z" fill="url(#paint10_linear_584_96)"/>
<path d="M166.981 175.127C166.981 175.127 166.93 175.13 166.839 175.122C166.749 175.112 166.612 175.109 166.452 175.079C166.298 175.086 166.148 175.127 166.004 175.15C165.828 175.177 165.63 175.193 165.432 175.21C165.215 175.238 165.011 175.238 164.772 175.251C164.54 175.259 164.298 175.244 164.035 175.216C163.78 175.183 163.511 175.14 163.24 175.073C162.971 175.002 162.694 174.932 162.415 174.813C161.85 174.586 161.294 174.287 160.773 173.902C160.515 173.713 160.258 173.484 160.021 173.26C159.788 173.037 159.559 172.78 159.363 172.542C159.163 172.295 158.981 172.033 158.832 171.803C158.676 171.55 158.55 171.317 158.456 171.122C158.357 170.914 158.295 170.727 158.253 170.616C158.216 170.499 158.195 170.435 158.195 170.435C158.195 170.435 158.363 170.423 158.58 170.391C158.697 170.366 158.83 170.346 158.974 170.325C159.127 170.295 159.289 170.284 159.467 170.266C159.647 170.245 159.829 170.241 160.038 170.244C160.244 170.255 160.462 170.272 160.697 170.316C161.155 170.389 161.662 170.537 162.208 170.77C162.49 170.898 162.754 171.013 163.041 171.169C163.323 171.32 163.608 171.488 163.9 171.686C164.184 171.868 164.483 172.1 164.756 172.314C165.025 172.521 165.307 172.786 165.547 173.011C165.802 173.267 166.025 173.516 166.224 173.756C166.449 174.036 166.618 174.278 166.727 174.472C166.814 174.667 166.873 174.84 166.918 174.949C166.958 175.064 166.98 175.128 166.98 175.128L166.981 175.127Z" fill="url(#paint11_linear_584_96)"/>
<path d="M167.105 174.873C167.105 174.873 167.158 174.927 167.253 175.025C167.344 175.123 167.484 175.262 167.636 175.507C167.721 175.63 167.79 175.756 167.871 175.901C167.957 176.048 168.026 176.205 168.101 176.379C168.254 176.728 168.377 177.124 168.474 177.555C168.565 177.984 168.621 178.445 168.632 178.914C168.641 179.382 168.615 179.872 168.536 180.333C168.383 181.262 168.058 182.188 167.625 182.997C167.186 183.793 166.651 184.546 166.071 185.117C165.492 185.702 164.89 186.189 164.332 186.533C163.775 186.887 163.274 187.165 162.903 187.343C162.725 187.439 162.558 187.508 162.461 187.569C162.352 187.625 162.293 187.656 162.293 187.656C162.293 187.656 162.228 187.349 162.24 186.828C162.247 186.571 162.274 186.266 162.325 185.931C162.375 185.598 162.451 185.238 162.547 184.863C162.644 184.486 162.761 184.09 162.896 183.699C163.033 183.308 163.18 182.912 163.345 182.526C163.673 181.762 164.044 180.984 164.422 180.295C164.803 179.607 165.172 178.925 165.524 178.355C165.878 177.783 166.189 177.233 166.444 176.774C166.57 176.539 166.69 176.327 166.774 176.109C166.867 175.896 166.929 175.683 166.982 175.516C167.007 175.423 167.03 175.341 167.049 175.269C167.06 175.184 167.07 175.111 167.077 175.053C167.096 174.937 167.106 174.873 167.106 174.873L167.105 174.873Z" fill="url(#paint12_linear_584_96)"/>
<path d="M161.827 177.752C161.827 177.752 161.857 177.853 161.909 178.038C161.961 178.22 162.022 178.495 162.063 178.877C162.097 179.236 162.112 179.67 162.082 180.157C162.048 180.636 161.974 181.17 161.845 181.724C161.587 182.826 161.111 183.999 160.444 185.129C160.28 185.408 160.101 185.686 159.91 185.955C159.723 186.23 159.527 186.504 159.318 186.768C158.902 187.298 158.449 187.785 157.972 188.266C157.493 188.747 156.991 189.174 156.477 189.584C155.955 189.998 155.441 190.359 154.936 190.687C153.914 191.361 152.926 191.859 152.046 192.253C151.18 192.627 150.415 192.906 149.887 193.078C149.626 193.175 149.4 193.229 149.258 193.286C149.106 193.334 149.026 193.36 149.026 193.36C149.026 193.36 149.146 192.97 149.443 192.361C149.592 192.061 149.786 191.71 150.017 191.328C150.248 190.951 150.529 190.532 150.835 190.103C151.45 189.249 152.202 188.332 153.019 187.426C153.424 186.98 153.85 186.516 154.278 186.069C154.717 185.624 155.153 185.182 155.583 184.748C156.021 184.315 156.452 183.891 156.871 183.477C157.289 183.067 157.698 182.666 158.088 182.285C158.471 181.893 158.836 181.522 159.183 181.168C159.528 180.826 159.84 180.474 160.126 180.161C160.413 179.846 160.663 179.552 160.883 179.28C160.988 179.138 161.086 179.004 161.177 178.88C161.264 178.75 161.344 178.63 161.416 178.522C161.541 178.31 161.668 178.122 161.722 177.97C161.791 177.827 161.827 177.754 161.827 177.754L161.827 177.752Z" fill="url(#paint13_linear_584_96)"/>
<path d="M195.561 167.92C190.94 170.791 185.395 171.689 179.958 171.36C174.489 171.038 169.142 169.349 163.998 167.149C158.893 164.965 153.915 162.368 148.668 160.208C146.128 159.178 143.488 158.104 140.613 157.667C139.18 157.445 137.708 157.392 136.239 157.604C134.766 157.811 133.352 158.307 132.117 159.066C131.758 159.286 132.136 160.044 132.492 159.878C134.996 158.693 137.855 158.478 140.572 158.876C143.306 159.257 145.933 160.186 148.478 161.247C153.573 163.393 158.484 165.961 163.576 168.122C168.768 170.323 174.21 172.205 179.883 172.515C182.701 172.654 185.557 172.489 188.274 171.762C190.996 171.079 193.556 169.827 195.693 168.107C195.772 168.048 195.645 167.872 195.561 167.92L195.561 167.92Z" fill="url(#paint14_linear_584_96)"/>
<path d="M138.426 157.986C138.426 157.986 138.365 158.037 138.259 158.126C138.151 158.207 137.994 158.344 137.799 158.481C137.411 158.773 136.867 159.151 136.285 159.563C135.709 159.97 135.079 160.417 134.432 160.875C133.802 161.34 133.151 161.771 132.543 162.228C131.943 162.666 131.351 163.097 130.779 163.514C130.224 163.932 129.694 164.333 129.213 164.695C128.742 165.073 128.299 165.427 127.974 165.703C127.821 165.844 127.669 165.954 127.578 166.035C127.478 166.112 127.42 166.157 127.42 166.157C127.42 166.157 127.383 166.095 127.329 165.977C127.28 165.861 127.192 165.683 127.119 165.453C126.971 164.996 126.856 164.312 126.946 163.492C127.038 162.683 127.328 161.727 127.886 160.855C128.425 159.968 129.206 159.154 130.104 158.521C131.009 157.899 132.022 157.445 133.022 157.213C134.015 156.96 134.995 156.954 135.814 157.045C136.646 157.155 137.294 157.388 137.739 157.597C137.961 157.699 138.134 157.81 138.249 157.873C138.365 157.94 138.426 157.985 138.426 157.985L138.426 157.986Z" fill="url(#paint15_linear_584_96)"/>
<path d="M145.43 159.33C145.43 159.33 145.373 159.303 145.274 159.244C145.178 159.183 145.037 159.096 144.853 158.989C144.681 158.912 144.472 158.818 144.232 158.711C143.975 158.611 143.717 158.474 143.417 158.343C143.111 158.217 142.808 158.049 142.458 157.898C142.118 157.731 141.761 157.556 141.381 157.368C140.626 157 139.805 156.553 138.93 156.108C138.048 155.652 137.132 155.18 136.173 154.684C135.695 154.454 135.198 154.214 134.713 153.98C134.255 153.754 133.769 153.513 133.329 153.295C132.89 153.07 132.469 152.827 132.109 152.637C131.74 152.417 131.42 152.206 131.165 152.03C130.906 151.836 130.726 151.651 130.604 151.547C130.483 151.435 130.426 151.369 130.426 151.369C130.426 151.369 130.795 151.272 131.447 151.153C131.767 151.072 132.132 150.999 132.546 150.943C132.978 150.864 133.43 150.804 133.947 150.768C134.464 150.72 134.998 150.715 135.59 150.736C136.189 150.749 136.716 150.835 137.29 150.929C138.407 151.144 139.543 151.517 140.544 152.047C141.551 152.581 142.452 153.225 143.161 153.982C143.525 154.34 143.835 154.74 144.109 155.129C144.387 155.507 144.604 155.935 144.794 156.31C144.982 156.695 145.113 157.099 145.221 157.439C145.328 157.817 145.395 158.158 145.43 158.43C145.453 158.703 145.436 158.937 145.439 159.088C145.434 159.241 145.43 159.329 145.43 159.329L145.43 159.33Z" fill="url(#paint16_linear_584_96)"/>
<path d="M146.041 159.539C146.041 159.539 145.991 159.625 145.902 159.774C145.81 159.918 145.678 160.144 145.504 160.405C145.308 160.65 145.05 160.945 144.734 161.282C144.439 161.569 144.105 161.888 143.743 162.21C143.389 162.495 142.998 162.839 142.613 163.123C142.223 163.411 141.828 163.727 141.44 163.988C140.664 164.57 139.929 165.066 139.3 165.545C138.676 166.025 138.167 166.445 137.765 166.795C137.669 166.88 137.575 166.963 137.483 167.043C137.422 167.127 137.366 167.202 137.312 167.266C137.204 167.4 137.103 167.526 137.013 167.621C136.926 167.738 136.842 167.805 136.774 167.889C136.71 167.977 136.644 168.024 136.599 168.081C136.561 168.149 136.52 168.181 136.498 168.213C136.469 168.237 136.458 168.254 136.458 168.254C136.458 168.254 136.432 168.172 136.388 168.025C136.349 167.884 136.286 167.66 136.232 167.391C136.184 167.138 136.138 166.829 136.115 166.483C136.101 166.161 136.108 165.801 136.149 165.415C136.201 165.068 136.28 164.663 136.408 164.295C136.537 163.934 136.705 163.541 136.917 163.208C137.34 162.492 138.029 161.88 138.772 161.395C139.519 160.908 140.366 160.54 141.191 160.311C141.607 160.19 142.012 160.102 142.407 160.025C142.607 160.003 142.798 159.961 142.983 159.931C143.172 159.902 143.353 159.879 143.532 159.865C143.882 159.818 144.211 159.779 144.509 159.766C144.803 159.733 145.06 159.711 145.272 159.696C145.509 159.627 145.706 159.599 145.837 159.568C145.968 159.545 146.04 159.539 146.04 159.539L146.041 159.539Z" fill="url(#paint17_linear_584_96)"/>
<path d="M153.933 162.932C153.933 162.932 153.882 162.885 153.795 162.79C153.712 162.692 153.578 162.557 153.433 162.368C153.278 162.219 153.091 162.039 152.875 161.833C152.657 161.634 152.406 161.4 152.152 161.146C151.876 160.898 151.612 160.613 151.307 160.32C151.008 160.021 150.707 159.698 150.389 159.352C149.754 158.668 149.086 157.875 148.415 157.027C147.746 156.165 147.049 155.267 146.4 154.304C146.066 153.84 145.752 153.345 145.439 152.876C145.134 152.403 144.841 151.911 144.572 151.466C144.317 150.989 144.066 150.557 143.866 150.148C143.675 149.719 143.517 149.349 143.395 149.036C143.287 148.705 143.231 148.436 143.185 148.265C143.143 148.09 143.129 147.995 143.129 147.995C143.129 147.995 143.223 148.037 143.397 148.115C143.561 148.197 143.811 148.303 144.07 148.454C144.358 148.59 144.714 148.744 145.061 148.941C145.426 149.127 145.847 149.332 146.245 149.577C146.68 149.81 147.094 150.085 147.535 150.377C147.98 150.67 148.396 151 148.832 151.348C149.684 152.045 150.48 152.867 151.173 153.747C151.871 154.639 152.448 155.577 152.895 156.565C153.13 157.042 153.319 157.551 153.484 158.036C153.651 158.518 153.771 159.026 153.877 159.477C153.966 159.959 154.028 160.401 154.065 160.816C154.09 161.26 154.1 161.637 154.083 161.943C154.052 162.249 154.004 162.501 153.981 162.669C153.951 162.837 153.934 162.932 153.934 162.932L153.933 162.932Z" fill="url(#paint18_linear_584_96)"/>
<path d="M162.169 167.03C162.169 167.03 162.129 166.965 162.066 166.839C162.013 166.704 161.891 166.541 161.775 166.357C161.708 166.263 161.635 166.159 161.555 166.045C161.474 165.939 161.386 165.822 161.292 165.698C161.102 165.458 160.888 165.187 160.654 164.892C160.424 164.599 160.173 164.281 159.909 163.945C159.651 163.601 159.375 163.241 159.106 162.851C158.828 162.464 158.556 162.05 158.282 161.622C158.011 161.19 157.739 160.736 157.48 160.269C157.223 159.8 156.969 159.316 156.733 158.821C156.498 158.325 156.281 157.815 156.076 157.305C155.675 156.282 155.353 155.237 155.145 154.262C155.043 153.775 154.974 153.305 154.923 152.878C154.877 152.446 154.859 152.055 154.863 151.727C154.87 151.394 154.898 151.129 154.925 150.948C154.956 150.769 154.972 150.673 154.972 150.673C154.972 150.673 155.025 150.73 155.122 150.837C155.206 150.948 155.365 151.085 155.53 151.265C155.883 151.597 156.356 152.073 156.935 152.641C157.215 152.924 157.5 153.233 157.803 153.569C158.103 153.907 158.41 154.266 158.704 154.655C159.004 155.043 159.309 155.455 159.59 155.888C159.872 156.322 160.152 156.782 160.41 157.252C160.666 157.727 160.909 158.216 161.132 158.722C161.35 159.224 161.549 159.74 161.722 160.262C162.07 161.304 162.308 162.371 162.425 163.375C162.482 163.873 162.506 164.358 162.507 164.796C162.502 165.241 162.469 165.642 162.424 165.975C162.373 166.33 162.308 166.588 162.255 166.76C162.201 166.933 162.17 167.03 162.17 167.03L162.169 167.03Z" fill="url(#paint19_linear_584_96)"/>
<path d="M171.01 170.452C171.01 170.452 170.968 170.4 170.904 170.291C170.848 170.168 170.726 170.059 170.604 169.924C170.468 169.785 170.307 169.631 170.117 169.467C169.925 169.303 169.714 169.123 169.482 168.924C169.257 168.723 169.013 168.504 168.754 168.273C168.5 168.041 168.239 167.775 167.979 167.493C167.449 166.946 166.937 166.277 166.463 165.565C165.993 164.836 165.568 164.062 165.239 163.23C164.904 162.411 164.661 161.564 164.519 160.757C164.375 159.954 164.343 159.207 164.379 158.641C164.416 158.073 164.517 157.735 164.517 157.735C164.517 157.735 164.561 157.774 164.643 157.845C164.713 157.919 164.848 158.004 164.985 158.113C165.273 158.328 165.687 158.612 166.147 158.979C166.374 159.161 166.616 159.364 166.864 159.592C167.11 159.826 167.362 160.068 167.609 160.343C168.116 160.889 168.599 161.528 169.054 162.248C169.502 162.959 169.923 163.762 170.258 164.601C170.601 165.436 170.871 166.335 171.037 167.19C171.205 168.046 171.258 168.883 171.203 169.499C171.178 169.817 171.131 170.07 171.084 170.214C171.037 170.367 171.01 170.452 171.01 170.452L171.01 170.452Z" fill="url(#paint20_linear_584_96)"/>
<path d="M179.465 172.101C179.465 172.101 179.426 172.039 179.354 171.923C179.323 171.86 179.278 171.788 179.219 171.737C179.159 171.679 179.114 171.63 179.035 171.562C178.893 171.433 178.722 171.302 178.517 171.162C178.321 171.014 178.086 170.862 177.842 170.696C177.35 170.373 176.782 169.967 176.215 169.477C175.642 169.004 175.081 168.393 174.566 167.746C174.057 167.067 173.606 166.356 173.24 165.55C172.871 164.773 172.598 163.946 172.434 163.153C172.268 162.369 172.214 161.626 172.236 161.052C172.245 160.768 172.276 160.535 172.303 160.374C172.335 160.216 172.352 160.133 172.352 160.133C172.352 160.133 172.389 160.171 172.459 160.24C172.517 160.311 172.635 160.391 172.757 160.488C173.011 160.675 173.376 160.912 173.795 161.234C173.999 161.388 174.222 161.561 174.451 161.761C174.682 161.967 174.917 162.183 175.14 162.416C175.6 162.893 176.072 163.466 176.547 164.115C177.018 164.772 177.494 165.487 177.92 166.294C178.138 166.678 178.341 167.095 178.533 167.509C178.722 167.93 178.895 168.362 179.045 168.778C179.191 169.202 179.319 169.611 179.406 170.018C179.497 170.413 179.55 170.796 179.564 171.116C179.576 171.263 179.571 171.439 179.562 171.563C179.559 171.693 179.541 171.786 179.522 171.862C179.485 172.016 179.464 172.101 179.464 172.101L179.465 172.101Z" fill="url(#paint21_linear_584_96)"/>
<path d="M153.848 163.111C153.848 163.111 153.805 163.194 153.729 163.34C153.655 163.483 153.522 163.695 153.313 163.955C153.216 164.075 153.103 164.202 152.976 164.343C152.852 164.474 152.712 164.607 152.561 164.751C152.26 165.022 151.91 165.303 151.532 165.562C150.772 166.081 149.892 166.554 148.988 166.906C148.087 167.282 147.143 167.526 146.271 167.722C145.397 167.908 144.576 168.029 143.868 168.088C143.153 168.15 142.545 168.164 142.05 168.151C141.809 168.14 141.589 168.131 141.393 168.122C141.203 168.112 141.033 168.093 140.903 168.092C140.771 168.094 140.663 168.073 140.589 168.082C140.514 168.079 140.473 168.078 140.473 168.078C140.473 168.078 140.604 167.758 140.889 167.298C141.171 166.838 141.613 166.28 142.186 165.757C142.762 165.235 143.471 164.754 144.261 164.378C145.05 163.993 145.914 163.722 146.783 163.535C147.652 163.358 148.525 163.246 149.337 163.227C149.743 163.206 150.135 163.205 150.505 163.202C150.875 163.21 151.225 163.219 151.548 163.225C151.875 163.233 152.175 163.24 152.441 163.247C152.578 163.246 152.705 163.245 152.823 163.244C152.945 163.238 153.057 163.232 153.157 163.226C153.346 163.207 153.528 163.201 153.654 163.154C153.779 163.122 153.849 163.112 153.849 163.112L153.848 163.111Z" fill="url(#paint22_linear_584_96)"/>
<path d="M162.361 167.117C162.361 167.117 162.314 167.211 162.23 167.382C162.149 167.549 162.005 167.793 161.775 168.101C161.668 168.241 161.542 168.391 161.4 168.558C161.26 168.713 161.101 168.872 160.929 169.043C160.587 169.365 160.184 169.702 159.74 170.014C158.847 170.643 157.796 171.2 156.683 171.63C156.407 171.743 156.125 171.843 155.844 171.933C155.561 172.031 155.275 172.122 154.989 172.201C154.416 172.361 153.85 172.497 153.283 172.608C152.715 172.714 152.166 172.806 151.626 172.871C151.084 172.934 150.568 172.979 150.073 173.008C149.576 173.039 149.102 173.043 148.666 173.052C148.228 173.054 147.814 173.04 147.44 173.029C147.069 173.012 146.728 172.996 146.426 172.982C146.124 172.969 145.86 172.958 145.643 172.948C145.426 172.952 145.247 172.933 145.125 172.948C144.999 172.95 144.932 172.951 144.932 172.951C144.932 172.951 145.164 172.621 145.635 172.159C145.869 171.934 146.159 171.682 146.496 171.421C146.831 171.164 147.218 170.905 147.638 170.654C148.477 170.15 149.459 169.691 150.503 169.324C151.022 169.137 151.562 168.97 152.105 168.824C152.647 168.679 153.193 168.552 153.741 168.444C154.288 168.337 154.826 168.245 155.359 168.167C155.891 168.094 156.407 168.024 156.907 167.974C157.411 167.924 157.888 167.877 158.341 167.832C158.795 167.789 159.223 167.75 159.619 167.712C160.016 167.676 160.375 167.628 160.704 167.581C160.869 167.551 161.023 167.524 161.165 167.499C161.31 167.465 161.442 167.433 161.563 167.405C161.786 167.338 161.999 167.289 162.14 167.208C162.284 167.149 162.36 167.117 162.36 167.117L162.361 167.117Z" fill="url(#paint23_linear_584_96)"/>
<path d="M171.424 170.366C171.424 170.366 171.404 170.466 171.368 170.649C171.334 170.829 171.262 171.094 171.107 171.46C171.032 171.629 170.942 171.804 170.838 172.006C170.733 172.197 170.606 172.386 170.468 172.602C170.184 173 169.838 173.418 169.436 173.804C168.632 174.585 167.603 175.29 166.497 175.802C166.219 175.939 165.934 176.059 165.645 176.169C165.356 176.287 165.07 176.386 164.776 176.48C164.193 176.662 163.584 176.819 163.001 176.929C160.623 177.394 158.364 177.266 156.755 177.024C155.935 176.904 155.288 176.768 154.804 176.676C154.565 176.64 154.37 176.586 154.24 176.577C154.105 176.554 154.034 176.541 154.034 176.541C154.034 176.541 154.295 176.245 154.807 175.85C155.063 175.658 155.38 175.443 155.743 175.226C156.105 175.011 156.513 174.795 156.954 174.584C157.391 174.38 157.877 174.177 158.373 173.992C158.872 173.808 159.387 173.635 159.924 173.479C160.459 173.321 161.001 173.176 161.546 173.046C162.095 172.915 162.644 172.798 163.185 172.69C164.276 172.469 165.329 172.297 166.307 172.12C166.79 172.037 167.254 171.953 167.696 171.862C168.132 171.771 168.543 171.687 168.914 171.589C169.293 171.492 169.629 171.376 169.936 171.267C170.087 171.201 170.229 171.141 170.359 171.085C170.491 171.016 170.611 170.953 170.72 170.896C170.828 170.827 170.923 170.767 171.007 170.714C171.098 170.661 171.172 170.575 171.233 170.527C171.359 170.422 171.424 170.366 171.424 170.366Z" fill="url(#paint24_linear_584_96)"/>
<path d="M185.038 171.212C185.038 171.212 184.991 171.194 184.914 171.152C184.838 171.108 184.719 171.052 184.589 170.962C184.451 170.91 184.3 170.872 184.166 170.842C184.001 170.799 183.82 170.738 183.639 170.677C183.439 170.619 183.258 170.54 183.045 170.459C182.837 170.362 182.629 170.254 182.41 170.128C182.199 169.998 181.979 169.855 181.768 169.688C181.561 169.528 181.342 169.323 181.145 169.115C180.739 168.682 180.372 168.21 180.066 167.629C179.914 167.35 179.781 167.043 179.663 166.744C179.548 166.449 179.451 166.124 179.373 165.83C179.297 165.524 179.242 165.216 179.203 164.942C179.165 164.646 179.148 164.381 179.142 164.163C179.137 163.932 179.156 163.734 179.163 163.617C179.176 163.495 179.183 163.429 179.183 163.429C179.183 163.429 179.331 163.498 179.526 163.547C179.635 163.569 179.754 163.6 179.884 163.636C180.025 163.669 180.166 163.717 180.325 163.774C180.487 163.837 180.644 163.906 180.819 163.987C180.989 164.075 181.168 164.175 181.351 164.305C181.719 164.57 182.094 164.894 182.477 165.32C182.669 165.539 182.863 165.777 183.05 166.024C183.238 166.272 183.422 166.537 183.602 166.832C183.781 167.111 183.955 167.435 184.117 167.747C184.279 168.054 184.427 168.404 184.555 168.705C184.684 169.039 184.79 169.356 184.876 169.653C184.971 169.998 185.031 170.287 185.056 170.509C185.061 170.721 185.05 170.904 185.049 171.022C185.042 171.142 185.038 171.211 185.038 171.211L185.038 171.212Z" fill="url(#paint25_linear_584_96)"/>
<path d="M185.242 171.024C185.242 171.024 185.268 171.095 185.316 171.222C185.361 171.348 185.434 171.529 185.478 171.814C185.509 171.96 185.523 172.103 185.541 172.268C185.563 172.437 185.566 172.609 185.569 172.798C185.576 173.179 185.538 173.592 185.463 174.027C185.385 174.459 185.263 174.905 185.096 175.343C184.927 175.785 184.721 176.199 184.474 176.602C183.984 177.403 183.336 178.129 182.636 178.693C181.93 179.269 181.163 179.724 180.414 180.026C179.659 180.348 178.935 180.527 178.291 180.633C177.645 180.75 177.093 180.776 176.684 180.799C176.485 180.817 176.307 180.814 176.194 180.832C176.073 180.84 176.008 180.845 176.008 180.845C176.008 180.845 176.072 180.538 176.291 180.064C176.401 179.832 176.548 179.563 176.727 179.275C176.907 178.989 177.118 178.688 177.353 178.382C177.588 178.08 177.846 177.777 178.122 177.465C178.401 177.16 178.687 176.853 178.987 176.563C179.58 175.99 180.209 175.443 180.814 174.943C181.418 174.462 182.006 173.996 182.536 173.598C183.068 173.211 183.55 172.841 183.948 172.509C184.147 172.344 184.333 172.185 184.489 172.029C184.652 171.882 184.785 171.7 184.894 171.569C184.951 171.493 185.001 171.426 185.045 171.367C185.085 171.293 185.12 171.23 185.149 171.179C185.208 171.078 185.24 171.024 185.24 171.024L185.242 171.024Z" fill="url(#paint26_linear_584_96)"/>
<path d="M179.508 171.579C179.508 171.579 179.494 171.684 179.469 171.874C179.443 172.063 179.391 172.339 179.278 172.706C179.169 173.05 179.012 173.455 178.795 173.891C178.578 174.317 178.301 174.788 177.97 175.233C177.312 176.12 176.412 177.045 175.369 177.782C175.11 177.973 174.837 178.156 174.557 178.327C174.278 178.506 173.99 178.679 173.699 178.825C173.114 179.13 172.502 179.406 171.877 179.647C171.257 179.87 170.622 180.067 169.987 180.23C169.364 180.386 168.762 180.5 168.162 180.596C166.982 180.773 165.862 180.83 164.927 180.807C163.975 180.792 163.201 180.71 162.644 180.647C162.365 180.615 162.142 180.589 161.987 180.572C161.833 180.549 161.752 180.538 161.752 180.538C161.752 180.538 162.019 180.239 162.549 179.812C162.812 179.603 163.136 179.366 163.507 179.118C163.878 178.872 164.297 178.615 164.749 178.356C165.671 177.829 166.708 177.328 167.82 176.836C168.375 176.589 168.93 176.362 169.5 176.126C170.07 175.902 170.637 175.68 171.194 175.462C171.762 175.246 172.318 175.034 172.859 174.828C173.397 174.621 173.922 174.419 174.422 174.227C174.915 174.037 175.395 173.84 175.836 173.652C176.28 173.464 176.689 173.3 177.067 173.114C177.445 172.937 177.781 172.763 178.081 172.604C178.23 172.518 178.368 172.437 178.496 172.363C178.624 172.278 178.741 172.198 178.847 172.128C179.039 171.981 179.224 171.857 179.331 171.737C179.447 171.633 179.507 171.579 179.507 171.579L179.508 171.579Z" fill="url(#paint27_linear_584_96)"/>
<path d="M160.468 172.843C160.468 172.843 160.348 172.758 160.103 172.635C159.987 172.575 159.845 172.501 159.681 172.416C159.514 172.346 159.324 172.266 159.116 172.179C158.279 171.86 157.14 171.669 155.885 171.7C154.634 171.72 153.219 171.924 151.853 172.293C150.357 172.669 148.624 173.176 146.568 173.551C145.54 173.731 144.434 173.865 143.282 173.883C142.137 173.905 140.921 173.793 139.821 173.53C138.717 173.273 137.708 172.887 136.817 172.435C135.925 171.988 135.154 171.457 134.496 170.926C133.177 169.857 132.331 168.734 131.817 167.904C131.302 167.072 131.109 166.516 131.109 166.516C131.109 166.516 131.694 166.55 132.612 166.647C133.071 166.693 133.609 166.747 134.215 166.809C134.814 166.869 135.47 166.931 136.159 166.972C136.844 167.027 137.568 167.051 138.295 167.057C139.024 167.064 139.76 167.045 140.488 166.988C141.91 166.881 143.422 166.594 145.278 166.266C147.113 165.951 149.244 165.614 151.448 165.75C153.776 165.869 155.871 166.635 157.415 167.714C158.979 168.776 159.9 170.187 160.23 171.204C160.31 171.466 160.369 171.695 160.414 171.893C160.443 172.101 160.459 172.275 160.47 172.414C160.497 172.688 160.47 172.843 160.47 172.843L160.468 172.843Z" fill="white"/>
<path d="M160.798 172.372C160.146 171.987 159.486 171.733 158.859 171.555C158.213 171.393 157.604 171.303 157.004 171.261C155.802 171.19 154.658 171.276 153.546 171.434C151.455 171.744 149.098 172.501 146.461 172.97C145.146 173.203 143.67 173.38 142.087 173.304C140.489 173.226 138.891 172.852 137.487 172.217C134.655 170.955 132.566 168.735 131.588 166.23L131.018 167.078C133.756 167.229 136.278 167.512 138.602 167.542C139.767 167.564 140.857 167.511 141.928 167.391C143.017 167.262 144.171 167.062 145.379 166.85C146.588 166.638 147.928 166.404 149.393 166.299C150.128 166.249 150.886 166.237 151.67 166.283C152.492 166.33 153.298 166.469 154.076 166.678C155.627 167.107 157.091 167.882 158.204 168.983C158.755 169.539 159.204 170.177 159.51 170.839C159.8 171.521 159.943 172.218 159.904 172.871C159.883 173.177 160.123 173.317 160.416 173.331C160.702 173.342 161.018 173.218 161.038 172.863C161.173 171.313 160.398 169.539 159.137 168.27C157.881 166.969 156.242 166.087 154.528 165.593C153.665 165.34 152.777 165.181 151.867 165.122C150.977 165.061 150.169 165.068 149.378 165.121C147.802 165.225 146.402 165.471 145.169 165.685C143.941 165.899 142.81 166.098 141.795 166.22C140.799 166.345 139.777 166.393 138.661 166.391C136.437 166.374 133.941 166.123 131.203 165.964C130.835 165.945 130.482 166.462 130.616 166.801C131.654 169.468 133.872 171.861 136.935 173.262C138.457 173.953 140.199 174.39 141.957 174.479C143.7 174.574 145.287 174.378 146.67 174.137C149.455 173.636 151.725 172.908 153.593 172.594C154.612 172.428 155.651 172.326 156.714 172.356C157.774 172.391 158.923 172.57 160.106 173.282C160.378 173.441 160.713 173.345 160.893 173.127C161.073 172.916 161.106 172.558 160.798 172.374L160.798 172.372Z" fill="url(#paint28_linear_584_96)"/>
<path d="M160.679 172.481C159.836 171.304 158.642 170.57 157.435 170.121C156.218 169.668 154.968 169.455 153.693 169.29C151.13 168.971 148.462 169.329 145.848 169.461C144.666 169.522 143.422 169.519 142.214 169.384C141.006 169.256 139.842 168.973 138.701 168.634C136.417 167.937 134.29 167.026 131.944 166.518C131.651 166.453 131.405 166.926 131.653 167.101C133.811 168.594 136.356 169.278 138.844 169.896C140.105 170.219 141.409 170.416 142.743 170.474C144.075 170.53 145.422 170.471 146.747 170.385C149.171 170.235 151.701 170.052 153.917 170.4C155.05 170.558 156.141 170.81 157.195 171.151C158.253 171.498 159.278 171.951 160.327 172.731C160.47 172.853 160.817 172.68 160.68 172.482L160.679 172.481Z" fill="url(#paint29_linear_584_96)"/>
<path d="M171.64 143.024C171.64 143.024 171.698 142.887 171.743 142.649C171.787 142.411 171.805 142.079 171.721 141.722C171.641 141.35 171.465 141.023 171.193 140.681C170.927 140.39 170.586 140.067 170.174 139.687C169.76 139.306 169.257 138.776 168.776 138.279C168.288 137.77 167.791 137.24 167.295 136.694C166.308 135.623 165.239 134.388 164.217 132.885C163.208 131.387 162.277 129.6 161.803 127.664C161.558 126.683 161.452 125.71 161.465 124.787C161.475 123.864 161.621 122.992 161.842 122.218C162.299 120.656 163.126 119.547 163.821 118.968C164.162 118.668 164.471 118.489 164.683 118.378C164.888 118.263 165.022 118.226 165.022 118.226C165.022 118.226 165.026 118.35 165.063 118.58C165.091 118.805 165.134 119.122 165.212 119.493C165.29 119.864 165.401 120.288 165.554 120.735C165.706 121.183 165.904 121.657 166.131 122.142C166.348 122.628 166.631 123.13 166.921 123.638C167.215 124.146 167.537 124.661 167.883 125.167C168.684 126.329 169.515 127.535 170.349 128.745C171.243 130.089 172.2 131.622 172.898 133.291C173.245 134.115 173.515 134.941 173.716 135.739C173.919 136.554 174.035 137.271 174.128 138.08C174.219 138.89 174.222 139.742 174.033 140.531C173.94 140.882 173.804 141.273 173.634 141.565C173.466 141.864 173.274 142.106 173.082 142.3C172.697 142.688 172.306 142.87 172.047 142.949C171.783 143.028 171.639 143.024 171.639 143.024L171.64 143.024Z" fill="white"/>
<path d="M172.163 143.26C172.415 142.515 172.304 141.848 172.104 141.326C171.888 140.803 171.559 140.423 171.212 140.067C170.518 139.399 169.657 138.549 168.922 137.73C168.168 136.904 167.462 136.105 166.761 135.264C166.056 134.418 165.357 133.517 164.706 132.553C164.058 131.591 163.413 130.503 162.901 129.271C162.393 128.061 162.002 126.636 161.957 125.234C161.899 123.834 162.14 122.417 162.74 121.211C163.318 120.005 164.289 119.047 165.373 118.64L164.47 118.16C164.609 119.42 164.934 120.463 165.322 121.412C165.709 122.357 166.146 123.222 166.617 124.057C167.525 125.674 168.666 127.294 169.86 129.078C170.452 129.961 171.09 130.93 171.683 132.007C172.28 133.091 172.81 134.287 173.158 135.505C173.335 136.116 173.474 136.735 173.567 137.358C173.658 137.975 173.745 138.676 173.702 139.41C173.661 140.142 173.472 140.911 173.055 141.508C172.649 142.089 172.043 142.477 171.482 142.499C171.217 142.506 171.217 142.705 171.19 142.995C171.21 143.264 171.331 143.589 171.666 143.61C172.549 143.553 173.365 143.035 173.933 142.292C174.217 141.919 174.445 141.488 174.597 140.997L174.611 140.951L174.613 140.945C174.614 140.921 174.613 140.993 174.616 140.888L174.619 140.881L174.625 140.868L174.65 140.815C174.666 140.775 174.683 140.755 174.698 140.7L174.772 140.302C174.816 140.068 174.842 139.839 174.86 139.609C174.924 138.695 174.812 137.867 174.705 137.175C174.605 136.502 174.464 135.85 174.278 135.197C173.915 133.901 173.356 132.616 172.727 131.465C172.103 130.319 171.442 129.314 170.84 128.414C170.281 127.587 169.706 126.735 169.122 125.869C168.579 125.053 168.133 124.386 167.678 123.618C167.235 122.86 166.81 122.092 166.424 121.253C166.049 120.417 165.694 119.485 165.562 118.325C165.521 118.014 165.004 117.659 164.691 117.788C163.446 118.265 162.356 119.373 161.683 120.742C161.01 122.111 160.731 123.696 160.784 125.251C160.83 126.795 161.256 128.392 161.806 129.705C162.36 131.042 163.048 132.209 163.728 133.22C164.411 134.232 165.132 135.157 165.84 136C166.544 136.836 167.242 137.616 168 138.433C168.375 138.834 168.767 139.247 169.162 139.64C169.548 140.011 169.887 140.275 170.195 140.506L170.421 140.681C170.459 140.713 170.492 140.696 170.532 140.729L170.585 140.834L170.612 140.886C170.612 140.898 170.614 140.802 170.615 140.843L170.616 140.844L170.619 140.846L170.626 140.852L170.639 140.86C170.779 140.96 170.914 141.114 171.019 141.296C171.231 141.657 171.37 142.154 171.209 142.699C171.093 142.957 171.205 143.279 171.413 143.468C171.463 143.514 171.518 143.554 171.574 143.582C171.648 143.598 171.731 143.596 171.814 143.578C171.972 143.541 172.102 143.44 172.166 143.264L172.163 143.26Z" fill="url(#paint30_linear_584_96)"/>
<path d="M172.029 143.163C172.522 142.62 172.709 141.957 172.729 141.342C172.746 140.702 172.57 140.155 172.348 139.63C171.88 138.606 171.274 137.674 170.782 136.658C169.784 134.629 168.673 132.613 167.663 130.563C166.759 128.712 166.005 126.545 165.678 124.593C165.51 123.601 165.402 122.646 165.328 121.728C165.251 120.806 165.193 119.926 165.174 118.939C165.175 118.696 164.684 118.493 164.559 118.726C164.062 119.731 163.944 120.882 164.024 121.983C164.106 123.092 164.354 124.168 164.613 125.257C165.128 127.448 166.095 129.613 167.131 131.682C168.095 133.581 169.043 135.539 169.98 137.436C170.444 138.386 171.016 139.338 171.42 140.108C171.52 140.301 171.612 140.52 171.689 140.694C171.711 140.737 171.727 140.82 171.746 140.881C171.762 140.897 171.781 140.972 171.796 141.016C171.825 141.119 171.853 141.228 171.871 141.342C171.945 141.794 171.949 142.317 171.713 142.866C171.639 143.024 171.855 143.345 172.029 143.164L172.029 143.163Z" fill="url(#paint31_linear_584_96)"/>
<path d="M174.434 139.196C174.434 139.196 174.468 139.042 174.492 138.748C174.525 138.461 174.57 138.053 174.581 137.558C174.616 136.569 174.474 135.267 174.114 133.86C173.756 132.445 173.181 130.885 172.484 129.27C171.771 127.622 170.897 125.727 170.148 123.546C169.414 121.377 168.841 118.853 168.957 116.353C169.009 115.115 169.218 113.946 169.533 112.887C169.842 111.826 170.277 110.881 170.73 110.058C171.662 108.414 172.767 107.308 173.61 106.652C174.451 105.992 175.031 105.747 175.031 105.747C175.031 105.747 174.987 106.369 174.918 107.361C174.885 107.853 174.86 108.439 174.843 109.081C174.838 109.729 174.833 110.431 174.87 111.175C174.901 111.916 174.978 112.696 175.079 113.487C175.183 114.279 175.326 115.084 175.517 115.883C175.895 117.469 176.49 119.21 177.159 121.176C177.812 123.139 178.523 125.323 178.836 127.643C179.162 129.997 178.982 132.3 178.371 134.185C177.773 136.08 176.762 137.474 175.905 138.22C175.483 138.604 175.108 138.842 174.847 138.99C174.596 139.145 174.436 139.196 174.436 139.196L174.434 139.196Z" fill="white"/>
<path d="M175.015 139.282C175.218 137.698 175.103 136.274 174.837 134.94C174.579 133.609 174.192 132.346 173.751 131.103C173.316 129.853 172.809 128.683 172.267 127.38C171.732 126.096 171.182 124.754 170.708 123.356C170.233 121.961 169.803 120.406 169.592 118.724C169.492 117.882 169.452 117.011 169.487 116.138C169.535 115.267 169.653 114.409 169.85 113.58C170.633 110.258 172.742 107.479 175.323 106.236L174.451 105.701C174.284 108.666 174.315 111.372 174.645 113.915C174.813 115.193 175.062 116.373 175.4 117.594C175.742 118.817 176.16 120.076 176.596 121.367C177.03 122.658 177.508 124.058 177.889 125.587C178.266 127.092 178.556 128.815 178.498 130.506C178.458 132.193 178.108 133.901 177.372 135.387C176.655 136.873 175.491 138.093 174.189 138.676C173.88 138.809 173.838 139.116 173.945 139.394C174.051 139.666 174.305 139.89 174.648 139.738C176.161 139.107 177.498 137.728 178.342 136.076C179.193 134.42 179.595 132.542 179.666 130.7C179.743 128.867 179.447 126.973 179.05 125.379C178.652 123.759 178.157 122.299 177.716 120.985C177.273 119.671 176.858 118.424 176.529 117.251C176.201 116.084 175.964 114.986 175.797 113.762C175.469 111.338 175.406 108.714 175.598 105.808C175.621 105.417 175.098 105.071 174.745 105.245C171.931 106.571 169.626 109.571 168.738 113.175C168.279 114.958 168.188 116.95 168.412 118.781C168.627 120.612 169.092 122.271 169.586 123.738C170.085 125.206 170.649 126.58 171.187 127.862C171.735 129.166 172.211 130.263 172.645 131.464C173.067 132.648 173.442 133.825 173.702 135.059C173.948 136.284 174.093 137.603 173.867 139.078C173.82 139.417 174.056 139.673 174.338 139.733C174.616 139.794 174.959 139.654 175.014 139.282L175.015 139.282Z" fill="url(#paint32_linear_584_96)"/>
<path d="M174.864 139.218C175.25 138.548 175.529 137.842 175.728 137.131C175.906 136.414 176.017 135.697 176.062 134.983C176.144 133.553 176.032 132.151 175.866 130.73C175.551 127.874 174.703 125.05 174.085 122.22C173.805 120.94 173.581 119.583 173.487 118.227C173.384 116.868 173.431 115.534 173.588 114.224C173.895 111.589 174.56 109.173 175.032 106.637C175.095 106.32 174.609 106.099 174.431 106.382C173.685 107.61 173.201 108.985 172.904 110.378C172.595 111.774 172.465 113.19 172.364 114.618C172.134 117.491 172.659 120.465 173.333 123.32C173.937 125.943 174.613 128.667 174.854 131.254C174.972 132.557 175.043 133.836 175 135.101C174.974 136.376 174.824 137.633 174.487 139.005C174.426 139.2 174.728 139.437 174.864 139.218Z" fill="url(#paint33_linear_584_96)"/>
<path d="M181.253 141.818C181.253 141.818 180.803 141.503 180.315 140.691C179.814 139.891 179.374 138.574 179.139 137.098C178.898 135.608 178.854 133.857 179.048 132.089C179.23 130.314 179.637 128.532 180.112 126.866C180.604 125.19 181.14 123.657 181.689 122.214C181.962 121.503 182.228 120.807 182.486 120.134C182.734 119.468 183 118.829 183.217 118.219C183.678 117.004 184.044 115.896 184.304 115.056C184.557 114.218 184.72 113.677 184.72 113.677C184.72 113.677 185.172 114.005 185.756 114.738C186.048 115.104 186.363 115.572 186.674 116.142C186.975 116.712 187.267 117.382 187.505 118.133C187.741 118.884 187.926 119.711 188.044 120.59C188.154 121.466 188.196 122.388 188.168 123.328C188.111 125.202 187.739 127.14 187.224 128.905C186.703 130.683 186.056 132.331 185.375 133.809C184.695 135.289 183.996 136.61 183.354 137.771C182.712 138.948 182.141 139.861 181.789 140.587C181.433 141.305 181.253 141.818 181.253 141.818L181.253 141.818Z" fill="white"/>
<path d="M181.707 141.507C180.762 140.751 180.171 139.456 179.849 138.19C179.519 136.923 179.392 135.596 179.417 134.293C179.462 131.673 180.064 129.189 180.681 127.027C181.308 124.849 182.042 122.731 182.824 120.591C183.607 118.445 184.475 116.306 185.279 113.738L184.303 114.045C185.287 114.834 186.083 115.919 186.626 117.138C187.175 118.36 187.486 119.707 187.606 121.056C187.855 123.763 187.322 126.457 186.655 128.744C185.986 131.054 185.097 133.305 184.07 135.41C183.553 136.466 183 137.495 182.404 138.519C181.814 139.538 181.176 140.483 180.705 141.716C180.594 142.012 180.838 142.221 181.113 142.245C181.389 142.274 181.701 142.137 181.799 141.883C182.241 140.767 182.86 139.93 183.441 138.959C184.043 137.97 184.599 136.934 185.122 135.885C186.169 133.78 187.09 131.488 187.793 129.068C188.495 126.68 189.048 123.804 188.763 120.895C188.518 118.01 187.294 115.019 185.131 113.296C184.848 113.063 184.271 113.312 184.166 113.633C183.357 116.164 182.49 118.202 181.704 120.296C180.916 122.386 180.189 124.476 179.541 126.706C178.91 128.912 178.289 131.497 178.247 134.263C178.229 135.647 178.37 137.043 178.721 138.416C179.07 139.8 179.726 141.278 180.816 142.167C181.066 142.368 181.392 142.256 181.606 142.083C181.818 141.906 181.924 141.684 181.707 141.509L181.707 141.507Z" fill="url(#paint34_linear_584_96)"/>
<path d="M181.553 141.567C181.169 140.553 181.052 139.373 181.067 138.206C181.083 137.035 181.219 135.858 181.522 134.706C182.132 132.382 183.142 130.216 184.103 128.013C184.973 126.026 186.057 123.784 186.533 121.313C186.768 120.084 186.846 118.804 186.671 117.567C186.499 116.333 186.068 115.144 185.356 114.184C185.181 113.944 184.689 114.154 184.75 114.422C185.293 116.729 185.739 119.16 185.281 121.553C184.827 123.945 183.863 126.156 182.893 128.343C182.013 130.342 180.964 132.475 180.399 134.794C180.117 135.951 179.966 137.147 180.02 138.337C180.074 139.524 180.387 140.797 181.14 141.699C181.252 141.832 181.615 141.732 181.553 141.567L181.553 141.567Z" fill="url(#paint35_linear_584_96)"/>
<path d="M187.849 182.269C187.156 182.446 186.431 182.515 185.696 182.474C182.68 182.305 179.885 180.349 178.399 177.369L178.209 176.99L178.122 177.406C177.21 181.737 175.119 184.35 171.906 185.172C171.323 185.321 170.696 185.412 170.04 185.441C168.676 185.502 167.458 185.142 166.168 184.759L165.824 184.658C163.953 184.109 162.152 183.988 160.244 183.861L159.763 183.828C156.864 183.629 154.719 182.781 153.014 181.156C151.187 179.415 150.091 177.02 150.006 174.584C149.955 173.079 150.207 171.633 150.451 170.235C150.813 168.159 151.188 166.014 150.544 163.703C150.48 163.471 150.41 163.232 150.339 162.99C149.736 160.934 149.054 158.604 150.596 156.864C151.045 156.358 151.607 156.024 152.314 155.843C153.249 155.604 154.295 155.677 155.103 155.769L155.484 155.812L155.23 155.524C154.931 155.184 154.616 154.855 154.302 154.526C152.886 153.046 151.55 151.649 151.763 149.438C152.099 145.946 155.53 143.898 156.989 143.179C157.922 142.718 158.975 142.342 160.207 142.027C161.357 141.733 162.554 141.519 163.711 141.312C164.875 141.103 166.079 140.888 167.243 140.59C167.856 140.434 168.409 140.267 168.934 140.082C171.167 139.292 172.99 137.846 174.754 136.445C176.278 135.236 177.853 133.985 179.677 133.178C180.174 132.959 180.661 132.788 181.125 132.67C183.167 132.147 184.97 132.547 186.966 133.968C188.976 135.398 191.132 136.528 193.216 137.622C194.82 138.463 196.479 139.332 198.06 140.332C199.766 141.411 202.646 143.73 202.764 147.138C202.806 148.337 202.488 149.539 201.893 150.435C201.562 150.933 200.947 151.358 200.353 151.769C199.716 152.209 199.057 152.663 198.699 153.234L198.588 153.409L198.79 153.456C202.844 154.402 206.166 160.039 206.214 164.075C206.267 168.562 203.473 172.059 198.347 173.923C196.005 174.775 194.719 175.727 193.253 177.695C193.088 177.918 192.925 178.144 192.762 178.371C192.28 179.044 191.781 179.74 191.195 180.326C190.223 181.296 189.097 181.95 187.849 182.27L187.849 182.269Z" fill="white"/>
<path d="M172.71 150.738C167.603 151.88 164.501 157.111 166.306 162.129C168.384 167.903 175.747 169.637 181.031 167.317C185.19 165.49 190.015 157.133 186.897 152.898C185.334 150.774 181.951 150.251 179.546 149.819C176.698 149.306 173.644 149.247 171.344 151.213C170.857 151.629 171.468 152.299 171.984 152.057C175.669 150.332 181.325 150.346 184.864 152.718C189.128 155.577 184.738 164.388 181.017 166.314C176.843 168.473 170.199 167.457 167.764 163.206C164.987 158.358 167.786 152.882 172.827 151.195C173.112 151.1 173.009 150.671 172.71 150.738Z" fill="url(#paint36_linear_584_96)"/>
<path d="M171.778 151.314C169.459 152.675 169.494 156.117 170.632 158.274C171.47 159.864 172.963 161.012 174.563 161.766C176.139 162.509 181.433 162.666 181.476 165.068C181.491 165.904 182.816 165.914 182.766 165.092C182.613 162.561 180.441 162.196 178.31 161.823C172.907 160.879 168.756 156.958 171.986 151.523C172.063 151.393 171.911 151.235 171.778 151.313L171.778 151.314Z" fill="url(#paint37_linear_584_96)"/>
<path d="M175.144 160.91C175.258 158.083 177.979 157.397 179.679 155.634C180.91 154.357 181.482 152.579 180.606 150.949C180.233 150.258 179.174 150.862 179.545 151.556C180.956 154.197 177.167 155.874 175.654 157.284C174.745 158.131 173.498 159.712 174.178 160.996C174.277 161.182 174.551 161.314 174.759 161.242C174.816 161.222 174.873 161.201 174.93 161.181C175.052 161.138 175.138 161.044 175.144 160.911L175.144 160.91Z" fill="url(#paint38_linear_584_96)"/>
<path d="M174.731 150.325C174.766 150.316 174.752 150.262 174.717 150.271C174.683 150.28 174.697 150.334 174.731 150.325Z" fill="url(#paint39_linear_584_96)"/>
<path d="M179.734 150.442C180.385 145.367 175.37 143.125 171.122 144.649C169.473 145.24 168.04 146.238 166.516 147.075C164.699 148.072 162.918 148.483 161.002 149.133C158.873 149.855 157.444 151.081 156.917 153.32C156.203 156.351 156.612 159.596 156.008 162.677C155.564 164.94 154.688 167.539 155.963 169.703C159.389 175.52 165.921 166.544 169.305 166.212C170.01 166.142 170.035 165.031 169.326 165.102C165.57 165.48 164.108 169.044 160.757 170.117C154.893 171.995 156.621 165.267 157.126 162.471C157.435 160.757 157.593 159.034 157.656 157.293C157.73 155.255 157.521 152.858 159.106 151.271C160.534 149.841 163.33 149.736 165.107 148.966C167.058 148.12 168.746 146.772 170.692 145.919C174.641 144.19 178.975 145.625 179.028 150.429C179.033 150.895 179.679 150.885 179.735 150.442L179.734 150.442Z" fill="url(#paint40_linear_584_96)"/>
<path d="M168.92 165.285C164.864 166.023 163.561 173.398 167.232 175.436C169.677 176.792 172.602 175.238 174.943 174.488C178.827 173.243 181.899 175.786 185.718 175.355C187.865 175.113 189.994 174.111 191.341 172.387C193.413 169.733 192.146 166.289 193.686 163.478C194.691 161.642 195.707 160.338 193.782 158.616C191.82 156.859 189.153 157.866 187.035 158.758C186.27 159.081 186.916 160.234 187.683 159.891C188.479 159.484 189.309 159.175 190.173 158.963C191.182 159.197 192.192 159.431 193.202 159.665C194.75 160.993 192.8 162.535 192.317 163.576C191.823 164.641 191.736 165.801 191.637 166.953C191.426 169.376 191.136 171.536 188.916 173.004C186.987 174.281 184.647 174.477 182.452 173.902C178.871 172.966 177.015 172.536 173.424 173.83C170.725 174.803 167.136 175.948 166.322 171.78C165.808 169.149 167.149 167.202 169.145 165.681C169.348 165.526 169.124 165.248 168.92 165.285L168.92 165.285Z" fill="url(#paint41_linear_584_96)"/>
<path d="M179.352 150.165C179.687 148.907 179.773 147.533 180.22 146.309C180.761 144.015 182.304 143.137 184.851 143.673C185.4 144.088 185.918 144.537 186.408 145.02C187.887 146.252 189.158 146.797 191.073 147.133C192.209 147.334 193.414 147.322 194.505 147.732C197.919 149.015 197.655 152.478 195.249 154.622C193.055 156.577 189.857 157.774 187.173 158.845C186.554 159.093 186.799 160.113 187.434 159.867C190.913 158.517 195.987 157.004 197.846 153.432C199.511 150.231 197.696 147.3 194.425 146.411C191.694 145.669 189.303 145.863 186.996 143.911C185.932 143.01 184.927 142.062 183.449 142.073C179.475 142.103 178.823 147.073 178.55 150.044C178.507 150.51 179.235 150.607 179.352 150.165L179.352 150.165Z" fill="url(#paint42_linear_584_96)"/>
<path d="M157.441 155.913C155.234 155.678 152.23 154.831 150.522 156.757C148.739 158.769 149.826 161.527 150.44 163.733C151.502 167.55 149.767 170.808 149.896 174.579C149.983 177.107 151.125 179.516 152.95 181.254C154.868 183.082 157.192 183.788 159.791 183.967C161.872 184.109 163.808 184.2 165.82 184.79C167.253 185.211 168.574 185.646 170.083 185.579C176.441 185.295 178.396 179.524 178.739 174.135C178.791 173.322 177.526 173.302 177.476 174.111C177.299 177.029 177.061 180.186 174.802 182.308C172.554 184.422 169.792 184.643 166.971 183.89C165.021 183.369 163.345 182.957 161.33 182.842C158.3 182.667 155.724 182.46 153.484 180.14C149.408 175.916 152.281 171.284 152.096 166.354C152.015 164.172 150.771 162.231 150.68 160.072C150.508 155.997 155.089 157.258 157.497 156.391C157.756 156.297 157.72 155.942 157.441 155.913L157.441 155.913Z" fill="url(#paint43_linear_584_96)"/>
<path d="M177.278 173.713C177.576 178.174 181.106 182.353 185.726 182.612C187.876 182.732 189.826 181.93 191.338 180.421C192.129 179.63 192.745 178.667 193.41 177.774C194.861 175.826 196.154 174.883 198.436 174.052C202.938 172.415 206.461 169.214 206.4 164.063C206.352 159.958 202.881 153.939 198.508 153.216C197.718 153.085 197.377 154.156 198.16 154.43C202.48 155.942 205.787 161.755 204.672 166.177C204.094 168.468 202.594 170.503 200.54 171.687C198.845 172.663 196.829 172.891 195.178 173.959C192.303 175.82 191.426 179.866 188.02 181.022C182.641 182.847 179.571 177.594 177.732 173.597C177.634 173.383 177.263 173.479 177.278 173.713L177.278 173.713Z" fill="url(#paint44_linear_584_96)"/>
<path d="M156.704 156.319C154.968 153.511 151.242 151.293 153.306 147.549C154.921 144.618 158.418 143.461 161.478 142.789C164.473 142.131 167.593 141.911 170.441 140.691C172.895 139.64 174.812 137.85 176.903 136.246C180.111 133.787 183.302 132.578 186.8 135.206C189.129 136.956 191.552 138.313 194.185 139.555C197.476 141.108 202.099 143.478 201.601 147.824C201.263 150.773 198.125 150.896 197.427 153.403C197.207 154.196 198.435 154.547 198.655 153.754C199.032 152.395 201.255 151.707 202.054 150.506C202.703 149.529 202.991 148.288 202.95 147.122C202.845 144.094 200.606 141.734 198.177 140.197C194.534 137.892 190.634 136.359 187.089 133.838C184.666 132.114 182.407 131.818 179.655 133.034C175.704 134.778 173.062 138.469 168.921 139.931C165.019 141.31 160.719 141.184 156.96 143.036C154.455 144.27 151.937 146.453 151.653 149.413C151.334 152.721 154.4 154.278 156.018 156.712C156.296 157.131 156.975 156.756 156.704 156.319L156.704 156.319Z" fill="url(#paint45_linear_584_96)"/>
<path d="M180.252 150.064C178.42 145.475 181.183 141.642 182.272 137.315C182.327 137.096 182.042 136.983 181.918 137.163C179.555 140.587 177.414 146.385 180.061 150.142C180.123 150.229 180.299 150.182 180.252 150.064L180.252 150.064Z" fill="url(#paint46_linear_584_96)"/>
<path d="M180.085 149.537C179.669 146.895 181.125 142.618 183.438 141.17C184.657 140.407 186.508 139.835 186.781 138.229C186.845 137.855 186.431 137.547 186.124 137.838C184.43 139.442 181.952 140.276 180.83 142.427C179.702 144.59 178.923 147.254 179.682 149.64C179.764 149.899 180.127 149.8 180.085 149.537L180.085 149.537Z" fill="url(#paint47_linear_584_96)"/>
<path d="M183.496 142.874C185.461 142.202 188.879 141.83 189.501 139.402C189.55 139.211 189.3 139.034 189.155 139.196C188.378 140.062 187.584 140.709 186.495 141.147C185.41 141.584 184.346 141.889 183.356 142.53C183.189 142.638 183.285 142.946 183.496 142.874L183.496 142.874Z" fill="url(#paint48_linear_584_96)"/>
<path d="M180.118 149.737C180.1 148.076 179.692 146.425 178.91 144.952C178.438 144.064 177.754 143.302 177.308 142.4C176.717 141.205 176.583 139.997 176.388 138.708C176.342 138.404 175.846 138.405 175.785 138.7C175.451 140.322 175.809 141.782 176.646 143.213C177.218 144.193 177.921 145.042 178.393 146.084C178.935 147.283 179.167 148.571 179.64 149.793C179.731 150.029 180.121 150.035 180.118 149.737Z" fill="url(#paint49_linear_584_96)"/>
<path d="M179.317 150.227C179.653 148.698 179.246 147.372 178.216 146.176C177.645 145.512 176.941 144.988 176.167 144.579C174.955 143.938 172.048 143.499 172.706 141.424C172.764 141.241 172.515 141.089 172.382 141.232C171.571 142.11 171.761 143.141 172.644 143.931C173.549 144.741 174.996 144.865 176.033 145.423C177.891 146.424 178.901 148.098 179.073 150.19C179.083 150.321 179.285 150.376 179.318 150.227L179.317 150.227Z" fill="url(#paint50_linear_584_96)"/>
<path d="M168.155 165.74C166.103 166.56 164.848 168.198 163.765 170.079C163.063 171.3 162.48 172.562 161.613 173.683C160.422 175.223 158.942 176.004 157.36 177.049C157.049 177.254 157.232 177.741 157.608 177.661C163.447 176.419 163.831 169.129 168.388 166.314C168.671 166.139 168.497 165.605 168.155 165.741L168.155 165.74Z" fill="url(#paint51_linear_584_96)"/>
<path d="M167.303 166.659C165.792 166.885 165.244 167.795 164.342 168.933C163.218 170.353 158.481 175.214 156.353 172.992C156.047 172.672 155.64 173.071 155.783 173.424C156.596 175.422 158.986 174.361 160.389 173.628C161.566 173.013 162.639 172.209 163.566 171.258C164.836 169.953 165.676 167.724 167.399 167.035C167.63 166.944 167.554 166.622 167.303 166.659Z" fill="url(#paint52_linear_584_96)"/>
<path d="M166.518 167.075C164.828 167.529 164.169 170.647 163.892 172.082C163.609 173.553 163.746 175.128 163.182 176.529C162.567 178.056 161.356 178.697 160.17 179.688C160.066 179.774 160.147 179.967 160.28 179.961C161.993 179.883 163.392 178.348 164.009 176.826C165.249 173.765 164.33 170.185 166.749 167.482C166.904 167.31 166.762 167.009 166.518 167.075Z" fill="url(#paint53_linear_584_96)"/>
<path d="M165.1 169.006C164.317 170.12 164.357 171.394 164.858 172.639C165.882 175.188 168.102 176.558 168.074 179.554C168.071 179.92 168.613 180.009 168.714 179.65C169.87 175.534 164 173.365 165.365 169.12C165.418 168.955 165.19 168.876 165.1 169.006L165.1 169.006Z" fill="url(#paint54_linear_584_96)"/>
<path d="M191.555 158.678C194.848 156.716 197.781 158.43 200.678 160.145C200.912 160.284 201.147 159.972 200.966 159.776C198.57 157.182 194.2 155.641 191.339 158.393C191.192 158.533 191.378 158.784 191.555 158.678Z" fill="url(#paint55_linear_584_96)"/>
<path d="M192.404 158.593C195.418 157.971 196.822 160.817 198.441 162.718C198.642 162.954 198.932 162.657 198.836 162.418C197.821 159.921 195.247 157.206 192.308 158.216C192.073 158.297 192.157 158.644 192.404 158.592L192.404 158.593Z" fill="url(#paint56_linear_584_96)"/>
<path d="M178.224 173.843C179.053 176.875 183.18 178.164 185.929 178.315C186.301 178.336 186.334 177.822 186.02 177.703C184.551 177.143 182.987 176.893 181.57 176.184C180.313 175.556 179.507 174.678 178.632 173.612C178.477 173.421 178.165 173.622 178.224 173.844L178.224 173.843Z" fill="url(#paint57_linear_584_96)"/>
<path d="M179.188 174.371C182.228 176.246 187.026 177.105 190.441 175.899C190.747 175.791 190.727 175.323 190.373 175.312C188.599 175.259 186.849 175.48 185.073 175.282C183.107 175.062 181.284 174.436 179.401 173.878C179.103 173.791 178.928 174.211 179.188 174.371Z" fill="url(#paint58_linear_584_96)"/>
<path d="M156.658 156.635C156.92 155.279 156.509 154.107 156.078 152.816C155.76 151.867 155.47 150.956 155.618 149.945C155.755 149.003 156.277 148.163 156.623 147.28C156.732 147.003 156.331 146.792 156.138 146.993C153.185 150.073 155.712 153.03 156.032 156.541C156.061 156.869 156.583 157.021 156.658 156.635Z" fill="url(#paint59_linear_584_96)"/>
<path d="M156.918 155.806C157.633 154.503 157.309 153.051 157.598 151.637C157.939 149.966 158.833 148.654 159.803 147.294C160.013 147 159.586 146.756 159.347 146.938C158.194 147.819 157.432 149.143 157.002 150.514C156.473 152.204 156.873 153.924 156.463 155.61C156.398 155.877 156.777 156.064 156.918 155.806L156.918 155.806Z" fill="url(#paint60_linear_584_96)"/>
<path d="M156.394 156.301C155.765 158.306 153.009 157.566 152.014 159.103C151.874 159.319 152.048 159.666 152.318 159.648C153.358 159.576 154.686 158.971 155.562 158.403C156.301 157.923 156.768 157.248 156.898 156.377C156.942 156.081 156.478 156.036 156.394 156.302L156.394 156.301Z" fill="url(#paint61_linear_584_96)"/>
<path d="M155.573 157.189C155.752 158.625 155.301 159.883 154.314 160.923C153.768 161.498 153.031 162.085 152.978 162.927C152.963 163.172 153.306 163.331 153.474 163.14C153.89 162.663 154.201 162.118 154.634 161.644C155.007 161.236 155.38 160.834 155.648 160.346C156.211 159.324 156.299 158.196 155.949 157.092C155.871 156.848 155.543 156.945 155.573 157.189L155.573 157.189Z" fill="url(#paint62_linear_584_96)"/>
<path d="M197.403 152.884C199.194 150.885 200.141 147.42 198.396 145.091C198.253 144.901 197.927 144.995 197.988 145.256C198.588 147.834 198.745 150.248 196.945 152.42C196.682 152.738 197.119 153.202 197.403 152.885L197.403 152.884Z" fill="url(#paint63_linear_584_96)"/>
<path d="M187.528 159.202C188.094 156.709 190.462 155.442 192.487 154.316C193.647 153.67 194.635 152.762 194.671 151.359C194.681 150.988 194.18 150.95 194.058 151.268C193.251 153.378 190.801 153.822 189.218 155.19C188.069 156.184 187.022 157.557 187.051 159.13C187.057 159.395 187.464 159.481 187.528 159.202L187.528 159.202Z" fill="url(#paint64_linear_584_96)"/>
<path d="M187.08 158.961C188.218 158.261 188.469 157.062 188.478 155.79C188.484 154.76 188.333 153.744 188.706 152.75C189.092 151.726 189.885 151.085 190.637 150.344C190.844 150.138 190.64 149.764 190.353 149.842C189.032 150.203 188.124 151.416 187.744 152.694C187.161 154.652 188.201 156.845 186.79 158.577C186.629 158.775 186.828 159.117 187.081 158.961L187.08 158.961Z" fill="url(#paint65_linear_584_96)"/>
<path d="M187.353 157.456C187.524 155.894 187.676 154.346 187.236 152.816C186.936 151.773 186.307 150.837 186.299 149.712C186.291 148.675 186.789 147.772 187.114 146.823C187.207 146.552 186.809 146.297 186.617 146.529C185.734 147.601 185.225 148.971 185.47 150.376C185.651 151.42 186.281 152.333 186.556 153.35C186.913 154.674 186.937 156.086 186.978 157.449C186.985 157.693 187.327 157.693 187.353 157.456L187.353 157.456Z" fill="url(#paint66_linear_584_96)"/>
<path d="M185.33 151.786C184.619 150.701 184.413 149.486 183.87 148.336C183.763 148.11 183.354 148.147 183.311 148.403C183.079 149.819 183.914 151.153 184.815 152.178C185.056 152.453 185.533 152.097 185.33 151.786Z" fill="url(#paint67_linear_584_96)"/>
<path d="M168.579 166.393C167.385 162.859 162.917 165.893 160.564 164.424C160.315 164.269 159.996 164.575 160.153 164.829C162.051 167.889 166.199 163.974 168.146 166.568C168.29 166.761 168.673 166.67 168.58 166.393L168.579 166.393Z" fill="url(#paint68_linear_584_96)"/>
<path d="M168.586 165.496C167.503 164.429 166.336 163.5 164.979 162.8C163.299 161.932 161.512 161.474 160.329 159.874C160.173 159.662 159.876 159.784 159.909 160.045C160.11 161.658 161.414 162.371 162.794 162.947C164.729 163.753 166.564 164.676 168.281 165.886C168.515 166.051 168.785 165.692 168.586 165.496L168.586 165.496Z" fill="url(#paint69_linear_584_96)"/>
<path d="M168.385 166.982C168.787 165.631 168.498 164.561 167.68 163.413C167.052 162.531 166.173 161.913 165.438 161.134C163.892 159.493 163.313 157.675 163.674 155.459C163.732 155.104 163.279 154.977 163.14 155.306C162.434 156.984 162.443 158.577 163.372 160.18C164.772 162.597 168.138 163.727 168.031 166.93C168.025 167.136 168.327 167.178 168.385 166.983L168.385 166.982Z" fill="url(#paint70_linear_584_96)"/>
<path d="M169.357 165.488C168.097 165.509 167.72 166.69 167.6 167.765C167.47 168.933 167.481 170.558 168.681 171.176C168.944 171.312 169.357 171.013 169.14 170.724C168.326 169.644 167.692 166.615 169.412 165.967C169.65 165.877 169.653 165.484 169.356 165.488L169.357 165.488Z" fill="url(#paint71_linear_584_96)"/>
<path d="M168.267 166.026C167.473 168.338 171.951 169.792 173.507 170.2C174.029 170.337 174.24 169.573 173.735 169.399C171.943 168.781 169.388 167.858 168.623 165.982C168.554 165.815 168.315 165.886 168.267 166.026Z" fill="url(#paint72_linear_584_96)"/>
<path d="M186.312 159.799C187.994 159.441 188.552 161.438 189.097 162.584C189.193 162.788 189.532 162.695 189.524 162.475C189.467 160.761 188.137 158.628 186.167 159.442C185.957 159.529 186.108 159.843 186.312 159.799L186.312 159.799Z" fill="url(#paint73_linear_584_96)"/>
<path d="M186.298 160.323C187.039 162.259 187.189 164.223 187.283 166.274C187.297 166.566 187.739 166.667 187.814 166.354C188.328 164.208 187.811 162.047 186.846 160.102C186.699 159.806 186.177 160.007 186.298 160.324L186.298 160.323Z" fill="url(#paint74_linear_584_96)"/>
<path d="M174.531 160.547C173.054 158.146 173.085 156.082 173.286 153.382C173.305 153.12 172.918 153.016 172.795 153.243C171.636 155.38 172.112 159.295 174.028 160.93C174.287 161.151 174.733 160.875 174.531 160.547Z" fill="url(#paint75_linear_584_96)"/>
<path d="M175.118 160.865C173.834 158.439 174.632 156.192 175.199 153.729C175.258 153.47 174.897 153.288 174.756 153.539C173.474 155.834 173.345 158.822 174.889 160.997C174.985 161.132 175.198 161.019 175.118 160.866L175.118 160.865Z" fill="url(#paint76_linear_584_96)"/>
<path d="M175.342 160.901C174.762 159.179 175.397 157.708 176.481 156.375C177.083 155.635 177.819 154.869 177.792 153.857C177.786 153.627 177.492 153.542 177.367 153.737C175.853 156.066 173.537 158.079 175.049 161.019C175.13 161.177 175.4 161.073 175.342 160.901Z" fill="url(#paint77_linear_584_96)"/>
<path d="M178.097 159.95C180.386 160.501 183.3 163.19 181.847 165.753C181.741 165.939 181.913 166.217 182.139 166.143C183.663 165.637 183.044 163.276 182.495 162.221C181.605 160.512 180.032 159.619 178.15 159.596C177.95 159.594 177.894 159.901 178.097 159.95Z" fill="url(#paint78_linear_584_96)"/>
<path d="M182.355 165.547C183.875 165.915 183.775 163.508 183.706 162.591C183.566 160.689 182.829 158.622 181.149 157.579C180.994 157.483 180.837 157.666 180.91 157.814C181.476 158.959 182.192 160.003 182.556 161.24C182.75 161.902 183.443 164.955 182.36 165.146C182.156 165.182 182.159 165.501 182.355 165.547Z" fill="url(#paint79_linear_584_96)"/>
<path d="M183.078 164.561C185.106 161.606 186.184 156.863 183.349 153.999C183.124 153.771 182.797 154.054 182.922 154.323C183.748 156.106 184.423 157.593 184.267 159.638C184.139 161.31 183.579 162.928 182.863 164.434C182.794 164.579 182.986 164.695 183.078 164.561L183.078 164.561Z" fill="url(#paint80_linear_584_96)"/>
<path d="M182.274 166.046C182.286 164.337 180.761 163.437 179.193 163.316C177.932 163.218 176.68 163.53 175.414 163.382C173.593 163.169 172.189 162.285 170.639 161.402C170.28 161.197 169.947 161.655 170.207 161.955C171.327 163.253 172.995 163.978 174.66 164.297C176.712 164.689 180.723 163.375 181.441 166.144C181.559 166.601 182.27 166.529 182.274 166.047L182.274 166.046Z" fill="url(#paint81_linear_584_96)"/>
<path d="M181.968 166.116C180.973 165.216 179.999 165.114 178.677 165.284C176.242 165.597 174.48 165.796 172.067 165.172C171.65 165.064 171.392 165.639 171.768 165.867C172.941 166.579 174.313 166.715 175.668 166.646C177.621 166.546 179.9 165.401 181.731 166.419C181.917 166.523 182.138 166.269 181.968 166.116L181.968 166.116Z" fill="url(#paint82_linear_584_96)"/>
<path d="M160.601 144.731C162.545 143.781 165.205 144.62 166.846 143.06C166.947 142.964 166.847 142.766 166.707 142.815C164.667 143.521 162.072 142.934 160.359 144.413C160.179 144.569 160.405 144.826 160.601 144.731L160.601 144.731Z" fill="url(#paint83_linear_584_96)"/>
<path d="M192.659 140.458C193.307 140.837 193.935 141.252 194.575 141.646C195.174 142.015 195.717 142.486 196.408 142.668C196.606 142.72 196.779 142.506 196.678 142.324C196.309 141.668 195.639 141.29 195.007 140.915C194.333 140.515 193.6 140.237 192.854 140.003C192.582 139.917 192.414 140.315 192.658 140.458L192.659 140.458Z" fill="url(#paint84_linear_584_96)"/>
<defs>
<linearGradient id="paint0_linear_584_96" x1="143.25" y1="175.944" x2="145.087" y2="183.124" gradientUnits="userSpaceOnUse">
<stop offset="0.21875" stop-color="#1C2D46" stop-opacity="0.69"/>
<stop offset="0.979167" stop-color="#71A8CA" stop-opacity="0.83"/>
</linearGradient>
<linearGradient id="paint1_linear_584_96" x1="109.865" y1="183.829" x2="111.354" y2="189.65" gradientUnits="userSpaceOnUse">
<stop offset="0.21875" stop-color="#1C2D46" stop-opacity="0.69"/>
<stop offset="0.979167" stop-color="#71A8CA" stop-opacity="0.83"/>
</linearGradient>
<linearGradient id="paint2_linear_584_96" x1="115.619" y1="175.919" x2="117.542" y2="183.437" gradientUnits="userSpaceOnUse">
<stop offset="0.21875" stop-color="#1C2D46" stop-opacity="0.69"/>
<stop offset="0.979167" stop-color="#71A8CA" stop-opacity="0.83"/>
</linearGradient>
<linearGradient id="paint3_linear_584_96" x1="119.027" y1="183.139" x2="121.497" y2="192.797" gradientUnits="userSpaceOnUse">
<stop offset="0.21875" stop-color="#1C2D46" stop-opacity="0.69"/>
<stop offset="0.979167" stop-color="#71A8CA" stop-opacity="0.83"/>
</linearGradient>
<linearGradient id="paint4_linear_584_96" x1="124.318" y1="170.59" x2="127.406" y2="182.663" gradientUnits="userSpaceOnUse">
<stop offset="0.21875" stop-color="#1C2D46" stop-opacity="0.69"/>
<stop offset="0.979167" stop-color="#71A8CA" stop-opacity="0.83"/>
</linearGradient>
<linearGradient id="paint5_linear_584_96" x1="134.423" y1="168.245" x2="138.04" y2="182.385" gradientUnits="userSpaceOnUse">
<stop offset="0.21875" stop-color="#1C2D46" stop-opacity="0.69"/>
<stop offset="0.979167" stop-color="#71A8CA" stop-opacity="0.83"/>
</linearGradient>
<linearGradient id="paint6_linear_584_96" x1="145.938" y1="170.458" x2="148.747" y2="181.437" gradientUnits="userSpaceOnUse">
<stop offset="0.21875" stop-color="#1C2D46" stop-opacity="0.69"/>
<stop offset="0.979167" stop-color="#71A8CA" stop-opacity="0.83"/>
</linearGradient>
<linearGradient id="paint7_linear_584_96" x1="154.716" y1="169.178" x2="157.341" y2="179.438" gradientUnits="userSpaceOnUse">
<stop offset="0.21875" stop-color="#1C2D46" stop-opacity="0.69"/>
<stop offset="0.979167" stop-color="#71A8CA" stop-opacity="0.83"/>
</linearGradient>
<linearGradient id="paint8_linear_584_96" x1="127.592" y1="182.814" x2="129.477" y2="190.183" gradientUnits="userSpaceOnUse">
<stop offset="0.21875" stop-color="#1C2D46" stop-opacity="0.69"/>
<stop offset="0.979167" stop-color="#71A8CA" stop-opacity="0.83"/>
</linearGradient>
<linearGradient id="paint9_linear_584_96" x1="135.825" y1="183.001" x2="138.136" y2="192.037" gradientUnits="userSpaceOnUse">
<stop offset="0.21875" stop-color="#1C2D46" stop-opacity="0.69"/>
<stop offset="0.979167" stop-color="#71A8CA" stop-opacity="0.83"/>
</linearGradient>
<linearGradient id="paint10_linear_584_96" x1="145.758" y1="182.041" x2="148.08" y2="191.118" gradientUnits="userSpaceOnUse">
<stop offset="0.21875" stop-color="#1C2D46" stop-opacity="0.69"/>
<stop offset="0.979167" stop-color="#71A8CA" stop-opacity="0.83"/>
</linearGradient>
<linearGradient id="paint11_linear_584_96" x1="161.755" y1="169.525" x2="163.421" y2="176.039" gradientUnits="userSpaceOnUse">
<stop offset="0.21875" stop-color="#1C2D46" stop-opacity="0.69"/>
<stop offset="0.979167" stop-color="#71A8CA" stop-opacity="0.83"/>
</linearGradient>
<linearGradient id="paint12_linear_584_96" x1="163.634" y1="175.761" x2="166.408" y2="186.603" gradientUnits="userSpaceOnUse">
<stop offset="0.21875" stop-color="#1C2D46" stop-opacity="0.69"/>
<stop offset="0.979167" stop-color="#71A8CA" stop-opacity="0.83"/>
</linearGradient>
<linearGradient id="paint13_linear_584_96" x1="153.951" y1="179.767" x2="156.912" y2="191.342" gradientUnits="userSpaceOnUse">
<stop offset="0.21875" stop-color="#1C2D46" stop-opacity="0.69"/>
<stop offset="0.979167" stop-color="#71A8CA" stop-opacity="0.83"/>
</linearGradient>
<linearGradient id="paint14_linear_584_96" x1="160.662" y1="151.286" x2="167.274" y2="177.135" gradientUnits="userSpaceOnUse">
<stop offset="0.21875" stop-color="#1C2D46" stop-opacity="0.69"/>
<stop offset="0.979167" stop-color="#71A8CA" stop-opacity="0.83"/>
</linearGradient>
<linearGradient id="paint15_linear_584_96" x1="131.702" y1="157.549" x2="133.506" y2="164.6" gradientUnits="userSpaceOnUse">
<stop offset="0.21875" stop-color="#1C2D46" stop-opacity="0.69"/>
<stop offset="0.979167" stop-color="#71A8CA" stop-opacity="0.83"/>
</linearGradient>
<linearGradient id="paint16_linear_584_96" x1="136.642" y1="149.779" x2="139.475" y2="160.853" gradientUnits="userSpaceOnUse">
<stop offset="0.21875" stop-color="#1C2D46" stop-opacity="0.69"/>
<stop offset="0.979167" stop-color="#71A8CA" stop-opacity="0.83"/>
</linearGradient>
<linearGradient id="paint17_linear_584_96" x1="140.377" y1="160.514" x2="141.995" y2="166.838" gradientUnits="userSpaceOnUse">
<stop offset="0.21875" stop-color="#1C2D46" stop-opacity="0.69"/>
<stop offset="0.979167" stop-color="#71A8CA" stop-opacity="0.83"/>
</linearGradient>
<linearGradient id="paint18_linear_584_96" x1="146.792" y1="147.058" x2="151.042" y2="163.672" gradientUnits="userSpaceOnUse">
<stop offset="0.21875" stop-color="#1C2D46" stop-opacity="0.69"/>
<stop offset="0.979167" stop-color="#71A8CA" stop-opacity="0.83"/>
</linearGradient>
<linearGradient id="paint19_linear_584_96" x1="156.653" y1="150.243" x2="161.022" y2="167.323" gradientUnits="userSpaceOnUse">
<stop offset="0.21875" stop-color="#1C2D46" stop-opacity="0.69"/>
<stop offset="0.979167" stop-color="#71A8CA" stop-opacity="0.83"/>
</linearGradient>
<linearGradient id="paint20_linear_584_96" x1="166.075" y1="157.337" x2="169.527" y2="170.832" gradientUnits="userSpaceOnUse">
<stop offset="0.21875" stop-color="#1C2D46" stop-opacity="0.69"/>
<stop offset="0.979167" stop-color="#71A8CA" stop-opacity="0.83"/>
</linearGradient>
<linearGradient id="paint21_linear_584_96" x1="174.149" y1="159.673" x2="177.459" y2="172.614" gradientUnits="userSpaceOnUse">
<stop offset="0.21875" stop-color="#1C2D46" stop-opacity="0.69"/>
<stop offset="0.979167" stop-color="#71A8CA" stop-opacity="0.83"/>
</linearGradient>
<linearGradient id="paint22_linear_584_96" x1="146.641" y1="163.561" x2="147.62" y2="167.39" gradientUnits="userSpaceOnUse">
<stop offset="0.21875" stop-color="#1C2D46" stop-opacity="0.69"/>
<stop offset="0.979167" stop-color="#71A8CA" stop-opacity="0.83"/>
</linearGradient>
<linearGradient id="paint23_linear_584_96" x1="153.261" y1="168.527" x2="154.25" y2="172.396" gradientUnits="userSpaceOnUse">
<stop offset="0.21875" stop-color="#1C2D46" stop-opacity="0.69"/>
<stop offset="0.979167" stop-color="#71A8CA" stop-opacity="0.83"/>
</linearGradient>
<linearGradient id="paint24_linear_584_96" x1="162.522" y1="172.643" x2="163.587" y2="176.808" gradientUnits="userSpaceOnUse">
<stop offset="0.21875" stop-color="#1C2D46" stop-opacity="0.69"/>
<stop offset="0.979167" stop-color="#71A8CA" stop-opacity="0.83"/>
</linearGradient>
<linearGradient id="paint25_linear_584_96" x1="180.909" y1="162.987" x2="183.138" y2="171.698" gradientUnits="userSpaceOnUse">
<stop offset="0.21875" stop-color="#1C2D46" stop-opacity="0.69"/>
<stop offset="0.979167" stop-color="#71A8CA" stop-opacity="0.83"/>
</linearGradient>
<linearGradient id="paint26_linear_584_96" x1="179.751" y1="172.428" x2="181.641" y2="179.816" gradientUnits="userSpaceOnUse">
<stop offset="0.21875" stop-color="#1C2D46" stop-opacity="0.69"/>
<stop offset="0.979167" stop-color="#71A8CA" stop-opacity="0.83"/>
</linearGradient>
<linearGradient id="paint27_linear_584_96" x1="170.1" y1="173.986" x2="171.592" y2="179.819" gradientUnits="userSpaceOnUse">
<stop offset="0.21875" stop-color="#1C2D46" stop-opacity="0.69"/>
<stop offset="0.979167" stop-color="#71A8CA" stop-opacity="0.83"/>
</linearGradient>
<linearGradient id="paint28_linear_584_96" x1="144.114" y1="162.643" x2="147.693" y2="176.631" gradientUnits="userSpaceOnUse">
<stop offset="0.21875" stop-color="#1C2D46" stop-opacity="0.69"/>
<stop offset="0.979167" stop-color="#71A8CA" stop-opacity="0.83"/>
</linearGradient>
<linearGradient id="paint29_linear_584_96" x1="144.478" y1="163.283" x2="147.739" y2="176.032" gradientUnits="userSpaceOnUse">
<stop offset="0.21875" stop-color="#1C2D46" stop-opacity="0.69"/>
<stop offset="0.979167" stop-color="#71A8CA" stop-opacity="0.83"/>
</linearGradient>
<linearGradient id="paint30_linear_584_96" x1="164.245" y1="117.899" x2="170.885" y2="143.855" gradientUnits="userSpaceOnUse">
<stop offset="0.21875" stop-color="#1C2D46" stop-opacity="0.69"/>
<stop offset="0.979167" stop-color="#71A8CA" stop-opacity="0.83"/>
</linearGradient>
<linearGradient id="paint31_linear_584_96" x1="164.964" y1="118.56" x2="171.312" y2="143.377" gradientUnits="userSpaceOnUse">
<stop offset="0.21875" stop-color="#1C2D46" stop-opacity="0.69"/>
<stop offset="0.979167" stop-color="#71A8CA" stop-opacity="0.83"/>
</linearGradient>
<linearGradient id="paint32_linear_584_96" x1="170.401" y1="106.347" x2="178.681" y2="138.715" gradientUnits="userSpaceOnUse">
<stop offset="0.21875" stop-color="#1C2D46" stop-opacity="0.69"/>
<stop offset="0.979167" stop-color="#71A8CA" stop-opacity="0.83"/>
</linearGradient>
<linearGradient id="paint33_linear_584_96" x1="170.774" y1="107.239" x2="178.717" y2="138.289" gradientUnits="userSpaceOnUse">
<stop offset="0.21875" stop-color="#1C2D46" stop-opacity="0.69"/>
<stop offset="0.979167" stop-color="#71A8CA" stop-opacity="0.83"/>
</linearGradient>
<linearGradient id="paint34_linear_584_96" x1="179.942" y1="114.438" x2="186.703" y2="140.866" gradientUnits="userSpaceOnUse">
<stop offset="0.21875" stop-color="#1C2D46" stop-opacity="0.69"/>
<stop offset="0.979167" stop-color="#71A8CA" stop-opacity="0.83"/>
</linearGradient>
<linearGradient id="paint35_linear_584_96" x1="180.069" y1="115.361" x2="186.486" y2="140.447" gradientUnits="userSpaceOnUse">
<stop offset="0.21875" stop-color="#1C2D46" stop-opacity="0.69"/>
<stop offset="0.979167" stop-color="#71A8CA" stop-opacity="0.83"/>
</linearGradient>
<linearGradient id="paint36_linear_584_96" x1="174.746" y1="149.632" x2="179.416" y2="167.886" gradientUnits="userSpaceOnUse">
<stop offset="0.21875" stop-color="#1C2D46" stop-opacity="0.69"/>
<stop offset="0.979167" stop-color="#71A8CA" stop-opacity="0.83"/>
</linearGradient>
<linearGradient id="paint37_linear_584_96" x1="173.857" y1="150.775" x2="177.956" y2="166.8" gradientUnits="userSpaceOnUse">
<stop offset="0.21875" stop-color="#1C2D46" stop-opacity="0.69"/>
<stop offset="0.979167" stop-color="#71A8CA" stop-opacity="0.83"/>
</linearGradient>
<linearGradient id="paint38_linear_584_96" x1="176.305" y1="151.601" x2="178.525" y2="160.28" gradientUnits="userSpaceOnUse">
<stop offset="0.21875" stop-color="#1C2D46" stop-opacity="0.69"/>
<stop offset="0.979167" stop-color="#71A8CA" stop-opacity="0.83"/>
</linearGradient>
<linearGradient id="paint39_linear_584_96" x1="174.717" y1="150.271" x2="174.731" y2="150.325" gradientUnits="userSpaceOnUse">
<stop offset="0.21875" stop-color="#1C2D46" stop-opacity="0.69"/>
<stop offset="0.979167" stop-color="#71A8CA" stop-opacity="0.83"/>
</linearGradient>
<linearGradient id="paint40_linear_584_96" x1="164.471" y1="146.313" x2="170.247" y2="168.89" gradientUnits="userSpaceOnUse">
<stop offset="0.21875" stop-color="#1C2D46" stop-opacity="0.69"/>
<stop offset="0.979167" stop-color="#71A8CA" stop-opacity="0.83"/>
</linearGradient>
<linearGradient id="paint41_linear_584_96" x1="178.569" y1="160.675" x2="182.555" y2="176.256" gradientUnits="userSpaceOnUse">
<stop offset="0.21875" stop-color="#1C2D46" stop-opacity="0.69"/>
<stop offset="0.979167" stop-color="#71A8CA" stop-opacity="0.83"/>
</linearGradient>
<linearGradient id="paint42_linear_584_96" x1="186.191" y1="141.241" x2="190.74" y2="159.026" gradientUnits="userSpaceOnUse">
<stop offset="0.21875" stop-color="#1C2D46" stop-opacity="0.69"/>
<stop offset="0.979167" stop-color="#71A8CA" stop-opacity="0.83"/>
</linearGradient>
<linearGradient id="paint43_linear_584_96" x1="159.012" y1="153.977" x2="167.33" y2="186.495" gradientUnits="userSpaceOnUse">
<stop offset="0.21875" stop-color="#1C2D46" stop-opacity="0.69"/>
<stop offset="0.979167" stop-color="#71A8CA" stop-opacity="0.83"/>
</linearGradient>
<linearGradient id="paint44_linear_584_96" x1="188.515" y1="155.705" x2="194.888" y2="180.621" gradientUnits="userSpaceOnUse">
<stop offset="0.21875" stop-color="#1C2D46" stop-opacity="0.69"/>
<stop offset="0.979167" stop-color="#71A8CA" stop-opacity="0.83"/>
</linearGradient>
<linearGradient id="paint45_linear_584_96" x1="173.69" y1="134.418" x2="179.943" y2="158.861" gradientUnits="userSpaceOnUse">
<stop offset="0.21875" stop-color="#1C2D46" stop-opacity="0.69"/>
<stop offset="0.979167" stop-color="#71A8CA" stop-opacity="0.83"/>
</linearGradient>
<linearGradient id="paint46_linear_584_96" x1="179.435" y1="137.744" x2="182.468" y2="149.599" gradientUnits="userSpaceOnUse">
<stop offset="0.21875" stop-color="#1C2D46" stop-opacity="0.69"/>
<stop offset="0.979167" stop-color="#71A8CA" stop-opacity="0.83"/>
</linearGradient>
<linearGradient id="paint47_linear_584_96" x1="181.946" y1="138.849" x2="184.448" y2="148.628" gradientUnits="userSpaceOnUse">
<stop offset="0.21875" stop-color="#1C2D46" stop-opacity="0.69"/>
<stop offset="0.979167" stop-color="#71A8CA" stop-opacity="0.83"/>
</linearGradient>
<linearGradient id="paint48_linear_584_96" x1="186.112" y1="139.94" x2="186.656" y2="142.067" gradientUnits="userSpaceOnUse">
<stop offset="0.21875" stop-color="#1C2D46" stop-opacity="0.69"/>
<stop offset="0.979167" stop-color="#71A8CA" stop-opacity="0.83"/>
</linearGradient>
<linearGradient id="paint49_linear_584_96" x1="176.316" y1="138.409" x2="179.313" y2="150.124" gradientUnits="userSpaceOnUse">
<stop offset="0.21875" stop-color="#1C2D46" stop-opacity="0.69"/>
<stop offset="0.979167" stop-color="#71A8CA" stop-opacity="0.83"/>
</linearGradient>
<linearGradient id="paint50_linear_584_96" x1="174.381" y1="140.691" x2="176.99" y2="150.889" gradientUnits="userSpaceOnUse">
<stop offset="0.21875" stop-color="#1C2D46" stop-opacity="0.69"/>
<stop offset="0.979167" stop-color="#71A8CA" stop-opacity="0.83"/>
</linearGradient>
<linearGradient id="paint51_linear_584_96" x1="161.762" y1="167.373" x2="163.979" y2="176.038" gradientUnits="userSpaceOnUse">
<stop offset="0.21875" stop-color="#1C2D46" stop-opacity="0.69"/>
<stop offset="0.979167" stop-color="#71A8CA" stop-opacity="0.83"/>
</linearGradient>
<linearGradient id="paint52_linear_584_96" x1="161.168" y1="168.207" x2="162.496" y2="173.399" gradientUnits="userSpaceOnUse">
<stop offset="0.21875" stop-color="#1C2D46" stop-opacity="0.69"/>
<stop offset="0.979167" stop-color="#71A8CA" stop-opacity="0.83"/>
</linearGradient>
<linearGradient id="paint53_linear_584_96" x1="162.102" y1="168.205" x2="164.828" y2="178.863" gradientUnits="userSpaceOnUse">
<stop offset="0.21875" stop-color="#1C2D46" stop-opacity="0.69"/>
<stop offset="0.979167" stop-color="#71A8CA" stop-opacity="0.83"/>
</linearGradient>
<linearGradient id="paint54_linear_584_96" x1="165.194" y1="168.944" x2="168.019" y2="179.99" gradientUnits="userSpaceOnUse">
<stop offset="0.21875" stop-color="#1C2D46" stop-opacity="0.69"/>
<stop offset="0.979167" stop-color="#71A8CA" stop-opacity="0.83"/>
</linearGradient>
<linearGradient id="paint55_linear_584_96" x1="195.494" y1="156.627" x2="196.675" y2="161.241" gradientUnits="userSpaceOnUse">
<stop offset="0.21875" stop-color="#1C2D46" stop-opacity="0.69"/>
<stop offset="0.979167" stop-color="#71A8CA" stop-opacity="0.83"/>
</linearGradient>
<linearGradient id="paint56_linear_584_96" x1="194.774" y1="157.571" x2="196.267" y2="163.409" gradientUnits="userSpaceOnUse">
<stop offset="0.21875" stop-color="#1C2D46" stop-opacity="0.69"/>
<stop offset="0.979167" stop-color="#71A8CA" stop-opacity="0.83"/>
</linearGradient>
<linearGradient id="paint57_linear_584_96" x1="181.427" y1="172.774" x2="183.038" y2="179.071" gradientUnits="userSpaceOnUse">
<stop offset="0.21875" stop-color="#1C2D46" stop-opacity="0.69"/>
<stop offset="0.979167" stop-color="#71A8CA" stop-opacity="0.83"/>
</linearGradient>
<linearGradient id="paint58_linear_584_96" x1="184.276" y1="172.591" x2="185.457" y2="177.209" gradientUnits="userSpaceOnUse">
<stop offset="0.21875" stop-color="#1C2D46" stop-opacity="0.69"/>
<stop offset="0.979167" stop-color="#71A8CA" stop-opacity="0.83"/>
</linearGradient>
<linearGradient id="paint59_linear_584_96" x1="155.147" y1="147.207" x2="157.545" y2="156.58" gradientUnits="userSpaceOnUse">
<stop offset="0.21875" stop-color="#1C2D46" stop-opacity="0.69"/>
<stop offset="0.979167" stop-color="#71A8CA" stop-opacity="0.83"/>
</linearGradient>
<linearGradient id="paint60_linear_584_96" x1="157.152" y1="147.475" x2="159.157" y2="155.313" gradientUnits="userSpaceOnUse">
<stop offset="0.21875" stop-color="#1C2D46" stop-opacity="0.69"/>
<stop offset="0.979167" stop-color="#71A8CA" stop-opacity="0.83"/>
</linearGradient>
<linearGradient id="paint61_linear_584_96" x1="154.161" y1="156.754" x2="154.758" y2="159.089" gradientUnits="userSpaceOnUse">
<stop offset="0.21875" stop-color="#1C2D46" stop-opacity="0.69"/>
<stop offset="0.979167" stop-color="#71A8CA" stop-opacity="0.83"/>
</linearGradient>
<linearGradient id="paint62_linear_584_96" x1="153.806" y1="157.447" x2="155.163" y2="162.753" gradientUnits="userSpaceOnUse">
<stop offset="0.21875" stop-color="#1C2D46" stop-opacity="0.69"/>
<stop offset="0.979167" stop-color="#71A8CA" stop-opacity="0.83"/>
</linearGradient>
<linearGradient id="paint63_linear_584_96" x1="196.893" y1="145.316" x2="198.756" y2="152.598" gradientUnits="userSpaceOnUse">
<stop offset="0.21875" stop-color="#1C2D46" stop-opacity="0.69"/>
<stop offset="0.979167" stop-color="#71A8CA" stop-opacity="0.83"/>
</linearGradient>
<linearGradient id="paint64_linear_584_96" x1="190.071" y1="152.142" x2="191.64" y2="158.275" gradientUnits="userSpaceOnUse">
<stop offset="0.21875" stop-color="#1C2D46" stop-opacity="0.69"/>
<stop offset="0.979167" stop-color="#71A8CA" stop-opacity="0.83"/>
</linearGradient>
<linearGradient id="paint65_linear_584_96" x1="187.722" y1="150.515" x2="189.714" y2="158.301" gradientUnits="userSpaceOnUse">
<stop offset="0.21875" stop-color="#1C2D46" stop-opacity="0.69"/>
<stop offset="0.979167" stop-color="#71A8CA" stop-opacity="0.83"/>
</linearGradient>
<linearGradient id="paint66_linear_584_96" x1="185.679" y1="146.718" x2="188.392" y2="157.324" gradientUnits="userSpaceOnUse">
<stop offset="0.21875" stop-color="#1C2D46" stop-opacity="0.69"/>
<stop offset="0.979167" stop-color="#71A8CA" stop-opacity="0.83"/>
</linearGradient>
<linearGradient id="paint67_linear_584_96" x1="183.698" y1="148.151" x2="184.773" y2="152.352" gradientUnits="userSpaceOnUse">
<stop offset="0.21875" stop-color="#1C2D46" stop-opacity="0.69"/>
<stop offset="0.979167" stop-color="#71A8CA" stop-opacity="0.83"/>
</linearGradient>
<linearGradient id="paint68_linear_584_96" x1="163.821" y1="163.503" x2="164.862" y2="167.576" gradientUnits="userSpaceOnUse">
<stop offset="0.21875" stop-color="#1C2D46" stop-opacity="0.69"/>
<stop offset="0.979167" stop-color="#71A8CA" stop-opacity="0.83"/>
</linearGradient>
<linearGradient id="paint69_linear_584_96" x1="163.276" y1="158.954" x2="165.267" y2="166.738" gradientUnits="userSpaceOnUse">
<stop offset="0.21875" stop-color="#1C2D46" stop-opacity="0.69"/>
<stop offset="0.979167" stop-color="#71A8CA" stop-opacity="0.83"/>
</linearGradient>
<linearGradient id="paint70_linear_584_96" x1="163.861" y1="154.99" x2="167.039" y2="167.416" gradientUnits="userSpaceOnUse">
<stop offset="0.21875" stop-color="#1C2D46" stop-opacity="0.69"/>
<stop offset="0.979167" stop-color="#71A8CA" stop-opacity="0.83"/>
</linearGradient>
<linearGradient id="paint71_linear_584_96" x1="168.12" y1="165.753" x2="169.476" y2="171.055" gradientUnits="userSpaceOnUse">
<stop offset="0.21875" stop-color="#1C2D46" stop-opacity="0.69"/>
<stop offset="0.979167" stop-color="#71A8CA" stop-opacity="0.83"/>
</linearGradient>
<linearGradient id="paint72_linear_584_96" x1="170.368" y1="165.394" x2="171.729" y2="170.715" gradientUnits="userSpaceOnUse">
<stop offset="0.21875" stop-color="#1C2D46" stop-opacity="0.69"/>
<stop offset="0.979167" stop-color="#71A8CA" stop-opacity="0.83"/>
</linearGradient>
<linearGradient id="paint73_linear_584_96" x1="187.348" y1="159.114" x2="188.329" y2="162.949" gradientUnits="userSpaceOnUse">
<stop offset="0.21875" stop-color="#1C2D46" stop-opacity="0.69"/>
<stop offset="0.979167" stop-color="#71A8CA" stop-opacity="0.83"/>
</linearGradient>
<linearGradient id="paint74_linear_584_96" x1="186.39" y1="160.001" x2="188.036" y2="166.437" gradientUnits="userSpaceOnUse">
<stop offset="0.21875" stop-color="#1C2D46" stop-opacity="0.69"/>
<stop offset="0.979167" stop-color="#71A8CA" stop-opacity="0.83"/>
</linearGradient>
<linearGradient id="paint75_linear_584_96" x1="172.239" y1="153.307" x2="174.214" y2="161.029" gradientUnits="userSpaceOnUse">
<stop offset="0.21875" stop-color="#1C2D46" stop-opacity="0.69"/>
<stop offset="0.979167" stop-color="#71A8CA" stop-opacity="0.83"/>
</linearGradient>
<linearGradient id="paint76_linear_584_96" x1="173.912" y1="153.677" x2="175.752" y2="160.87" gradientUnits="userSpaceOnUse">
<stop offset="0.21875" stop-color="#1C2D46" stop-opacity="0.69"/>
<stop offset="0.979167" stop-color="#71A8CA" stop-opacity="0.83"/>
</linearGradient>
<linearGradient id="paint77_linear_584_96" x1="175.518" y1="154.144" x2="177.168" y2="160.594" gradientUnits="userSpaceOnUse">
<stop offset="0.21875" stop-color="#1C2D46" stop-opacity="0.69"/>
<stop offset="0.979167" stop-color="#71A8CA" stop-opacity="0.83"/>
</linearGradient>
<linearGradient id="paint78_linear_584_96" x1="179.829" y1="159.16" x2="181.647" y2="166.269" gradientUnits="userSpaceOnUse">
<stop offset="0.21875" stop-color="#1C2D46" stop-opacity="0.69"/>
<stop offset="0.979167" stop-color="#71A8CA" stop-opacity="0.83"/>
</linearGradient>
<linearGradient id="paint79_linear_584_96" x1="181.364" y1="157.47" x2="183.399" y2="165.424" gradientUnits="userSpaceOnUse">
<stop offset="0.21875" stop-color="#1C2D46" stop-opacity="0.69"/>
<stop offset="0.979167" stop-color="#71A8CA" stop-opacity="0.83"/>
</linearGradient>
<linearGradient id="paint80_linear_584_96" x1="182.203" y1="154.154" x2="184.764" y2="164.166" gradientUnits="userSpaceOnUse">
<stop offset="0.21875" stop-color="#1C2D46" stop-opacity="0.69"/>
<stop offset="0.979167" stop-color="#71A8CA" stop-opacity="0.83"/>
</linearGradient>
<linearGradient id="paint81_linear_584_96" x1="175.269" y1="160.109" x2="177.199" y2="167.655" gradientUnits="userSpaceOnUse">
<stop offset="0.21875" stop-color="#1C2D46" stop-opacity="0.69"/>
<stop offset="0.979167" stop-color="#71A8CA" stop-opacity="0.83"/>
</linearGradient>
<linearGradient id="paint82_linear_584_96" x1="176.326" y1="164.031" x2="177.244" y2="167.621" gradientUnits="userSpaceOnUse">
<stop offset="0.21875" stop-color="#1C2D46" stop-opacity="0.69"/>
<stop offset="0.979167" stop-color="#71A8CA" stop-opacity="0.83"/>
</linearGradient>
<linearGradient id="paint83_linear_584_96" x1="163.449" y1="143.204" x2="163.728" y2="144.292" gradientUnits="userSpaceOnUse">
<stop offset="0.21875" stop-color="#1C2D46" stop-opacity="0.69"/>
<stop offset="0.979167" stop-color="#71A8CA" stop-opacity="0.83"/>
</linearGradient>
<linearGradient id="paint84_linear_584_96" x1="194.183" y1="139.625" x2="195.058" y2="143.044" gradientUnits="userSpaceOnUse">
<stop offset="0.21875" stop-color="#1C2D46" stop-opacity="0.69"/>
<stop offset="0.979167" stop-color="#71A8CA" stop-opacity="0.83"/>
</linearGradient>
</defs>
</svg>
