<svg width="19" height="24" viewBox="0 0 19 24" fill="none" xmlns="http://www.w3.org/2000/svg">
<g id="in in-ring-small">
<g id="Group 3">
<circle id="Ellipse 1" cx="7" cy="17" r="5.55" stroke="#1A262D" stroke-opacity="0.7804" stroke-width="0.9"/>
<circle id="Ellipse 2" cx="12" cy="15" r="5.55" stroke="#1A262D" stroke-opacity="0.7804" stroke-width="0.9"/>
<path id="path3570" d="M10.5477 6.95293C10.3126 7.23939 9.87661 7.24636 9.63248 6.96756L7.59813 4.64433C6.92132 3.61997 6.812 2.64389 7.30536 1.70964C7.32622 1.67014 7.35268 1.63299 7.38342 1.60058C8.09873 0.846372 9.0387 0.84704 9.75268 1.35504C10.1259 1.62059 10.7205 1.61487 11.0807 1.33187C11.7147 0.833733 12.4202 0.951767 13.1276 1.58976C13.1522 1.6119 13.1754 1.63725 13.195 1.66389C13.9632 2.70926 13.1067 3.62881 12.5303 4.53709L10.5477 6.95293Z" stroke="#1A262D" stroke-opacity="0.780392" stroke-width="0.9" stroke-miterlimit="8.7" stroke-linecap="round" stroke-linejoin="bevel"/>
</g>
</g>
</svg>
