<?xml version="1.0" encoding="UTF-8" standalone="no"?>
<!-- Created with Inkscape (http://www.inkscape.org/) -->

<svg
   width="53.440132mm"
   height="26.273792mm"
   viewBox="0 0 53.440139 26.273792"
   version="1.1"
   id="svg1015"
   sodipodi:docname="pesan_bahagia_flower_3.svg"
   xmlns:inkscape="http://www.inkscape.org/namespaces/inkscape"
   xmlns:sodipodi="http://sodipodi.sourceforge.net/DTD/sodipodi-0.dtd"
   xmlns="http://www.w3.org/2000/svg"
   xmlns:svg="http://www.w3.org/2000/svg"
   xmlns:rdf="http://www.w3.org/1999/02/22-rdf-syntax-ns#"
   xmlns:cc="http://creativecommons.org/ns#"
   xmlns:dc="http://purl.org/dc/elements/1.1/">
  <sodipodi:namedview
     id="namedview1764"
     pagecolor="#ffffff"
     bordercolor="#000000"
     borderopacity="0.25"
     inkscape:showpageshadow="2"
     inkscape:pageopacity="0.0"
     inkscape:pagecheckerboard="0"
     inkscape:deskcolor="#d1d1d1"
     inkscape:document-units="mm"
     showgrid="false" />
  <defs
     id="defs1009" />
  <metadata
     id="metadata1012">
    <rdf:RDF>
      <cc:Work
         rdf:about="">
        <dc:format>image/svg+xml</dc:format>
        <dc:type
           rdf:resource="http://purl.org/dc/dcmitype/StillImage" />
        <dc:title />
      </cc:Work>
    </rdf:RDF>
  </metadata>
  <g
     id="layer1"
     transform="translate(211.07596,-250.73725)">
    <g
       id="g2229"
       transform="matrix(0.35277777,0,0,-0.35277777,-360.16956,413.27976)">
      <g
         transform="translate(331.83085)"
         id="g1007">
        <g
           id="g8453">
          <g
             id="g2345"
             inkscape:export-filename="pesan_bahagia_flower_2.svg"
             inkscape:export-xdpi="96"
             inkscape:export-ydpi="96">
            <path
               d="m 506.701,429.295 c -2.472,-0.059 -5.86,1.205 -7.997,2.307 -3.101,1.598 -5.595,4.355 -7.35,7.305 -1.742,2.926 -2.337,6.54 -2.974,9.84 -0.677,3.515 -1.108,7.622 -0.655,11.228 -0.157,0.14 -0.09,0.414 0.098,0.468 0.107,0.143 0.348,0.12 0.4,-0.066 3.079,-0.822 6.428,-2.348 9.199,-3.844 2.996,-1.618 6.028,-3.231 8.229,-5.902 2.094,-2.537 2.768,-5.856 3.437,-8.957 0.889,-4.117 -1.203,-8.201 -1.505,-12.244 -0.034,-0.469 -0.707,-0.499 -0.882,-0.135"
               style="fill:#315375;fill-opacity:1;fill-rule:nonzero;stroke:none;stroke-width:0.1"
               id="path186"
               transform="translate(-331.83085)" />
            <path
               d="m 474.81,432.732 c 0.018,-0.402 -0.457,-0.614 -0.727,-0.396 -0.117,-0.056 -0.264,-0.055 -0.424,0.024 -0.824,0.419 -2.579,0.211 -3.48,0.335 -1.468,0.2 -3.027,0.519 -4.433,0.977 -3.557,1.156 -6.65,2.371 -9.439,4.965 -4.813,4.476 -7.56,10.516 -9.522,16.656 -0.053,0.17 0.021,0.32 0.125,0.433 0.051,0.147 0.145,0.278 0.328,0.289 7.026,0.464 15.875,-0.811 21.697,-5.003 4.877,-3.512 5.652,-12.809 5.875,-18.28"
               style="fill:#315375;fill-opacity:1;fill-rule:nonzero;stroke:none;stroke-width:0.1"
               id="path188"
               transform="translate(-331.83085)" />
            <path
               d="m 423.114,423.009 c -0.32,0.102 -0.224,0.511 0.032,0.618 5.825,4.506 11.293,9.036 18.86,10.035 3.741,0.49 7.859,-0.292 11.255,-1.841 2.97,-1.354 4.907,-3.64 7.159,-5.887 0.087,-0.091 0.123,-0.183 0.144,-0.282 0.144,-0.054 0.259,-0.175 0.318,-0.326 0.051,-0.103 0.059,-0.221 0.027,-0.342 -0.003,-0.027 -0.007,-0.054 -0.018,-0.08 -0.007,-0.014 -0.018,-0.031 -0.026,-0.047 -0.03,-0.055 -0.066,-0.105 -0.121,-0.148 -0.008,-0.007 -0.011,-0.018 -0.021,-0.028 -5.387,-4.59 -9.595,-7.997 -17.129,-7.959 -7.326,0.039 -13.743,4.174 -20.48,6.287"
               style="fill:#315375;fill-opacity:1;fill-rule:nonzero;stroke:none;stroke-width:0.1"
               id="path190"
               transform="translate(-331.83085)" />
            <path
               d="m 470.169,395.017 c -3.495,-4.14 -10.953,-8.663 -16.51,-8.539 -0.189,0.007 -0.27,0.203 -0.246,0.371 -0.776,3.457 -0.468,7.671 -0.322,11.172 0.15,3.657 1.715,7.583 3.682,10.611 4.122,6.333 11.065,7.817 18.189,6.838 0.352,-0.049 0.49,-0.386 0.431,-0.669 0.014,-0.047 0.031,-0.094 0.033,-0.153 0.003,-0.077 0.005,-0.152 0.005,-0.229 0,-0.038 -0.023,-0.055 -0.031,-0.089 -0.249,-1.591 -0.09,-3.262 -0.004,-4.857 0.104,-1.899 -0.405,-3.66 -0.787,-5.503 -0.674,-3.274 -2.296,-6.413 -4.44,-8.953"
               style="fill:#315375;fill-opacity:1;fill-rule:nonzero;stroke:none;stroke-width:0.1"
               id="path192"
               transform="translate(-331.83085)" />
            <path
               d="m 479.886,388.328 c -0.013,0.004 -0.014,0.01 -0.022,0.014 -0.138,-0.011 -0.295,0.069 -0.327,0.229 -1.303,6.47 1.983,14.488 7.062,18.563 4.535,3.642 12.677,5.052 18.422,3.563 0.403,0.125 0.565,0.116 1.189,0.031 0.204,-0.027 0.446,-0.193 0.505,-0.403 0.737,-2.711 -0.731,-6.937 -1.462,-9.586 -0.911,-3.294 -2.357,-6.126 -4.83,-8.533 -5.502,-5.359 -13.405,-5.524 -20.537,-3.878"
               style="fill:#315375;fill-opacity:1;fill-rule:nonzero;stroke:none;stroke-width:0.1"
               id="path194"
               transform="translate(-331.83085)" />
            <path
               d="m 487.969,396.949 c 4.717,5.901 10.302,9.763 16.778,13.601 3.621,2.151 7.576,4.245 11.719,5.041 -8.717,2.884 -17.742,5.025 -26.894,6.509 -5.018,-2.441 -10.332,-4.823 -14.446,-8.661 -5.242,-4.888 -9.772,-9.996 -14.324,-15.512 -0.097,-0.121 -0.323,0 -0.242,0.144 5.312,9.178 13.89,20.985 24.844,24.66 -15.776,2.222 -31.841,2.605 -47.273,1.701 -0.351,-0.023 -0.414,0.504 -0.062,0.544 14.544,1.661 29.492,2.202 44.105,0.394 -3.048,1.91 -5.987,4.581 -8.117,6.271 -6.143,4.88 -11.266,10.608 -15.918,16.883 -0.052,0.071 0.05,0.14 0.105,0.08 4.91,-5.354 9.873,-10.206 15.645,-14.614 4.584,-3.502 9.743,-6.148 14.401,-9.515 1.159,-0.2 2.315,-0.413 3.47,-0.643 8.371,-1.684 16.525,-3.804 24.719,-6.032 -10.038,7.576 -17.519,20.059 -22.143,30.991 -0.072,0.173 0.181,0.261 0.264,0.105 7.212,-12.978 17.101,-22.191 27.284,-32.586 6.838,-1.947 14.22,-4.841 19.627,-9.411 0.859,-0.727 -10e-4,-2.338 -1.058,-1.749 -6.014,3.357 -12.311,6.205 -18.798,8.618 -13.023,-1.93 -23.272,-8.891 -33.536,-16.976 -0.098,-0.078 -0.229,0.06 -0.15,0.157"
               style="fill:#20283a;fill-opacity:1;fill-rule:nonzero;stroke:none;stroke-width:0.1"
               id="path196"
               transform="translate(-331.83085)" />
            <path
               d="m 454.224,430.893 c 0.232,-0.414 0.424,-0.862 0.621,-1.199 0.532,-0.933 1.025,-1.988 1.694,-2.839 0.879,0.051 1.762,0.083 2.647,0.07 -1.438,1.597 -3.117,2.919 -4.962,3.968 z m -5.593,2.111 c 0.736,-0.799 1.289,-1.925 1.899,-2.774 0.858,-1.192 1.581,-2.485 2.522,-3.615 1.003,0.068 2.001,0.151 3.004,0.215 -0.451,0.581 -0.763,1.315 -1.11,1.947 -0.444,0.807 -0.89,1.61 -1.303,2.433 -0.785,0.413 -1.596,0.782 -2.434,1.095 -0.846,0.318 -1.707,0.529 -2.578,0.699 z m -2.461,0.403 c -0.609,0.094 -1.222,0.09 -1.837,0.088 0.748,-0.816 1.346,-2.087 1.958,-2.919 0.941,-1.27 2.228,-2.626 2.876,-4.098 0.396,0.013 0.791,0.023 1.186,0.025 0.729,0.003 1.458,0.036 2.182,0.079 -0.76,0.927 -1.438,1.972 -2.063,2.984 -0.728,1.18 -1.562,2.274 -2.207,3.5 -0.695,0.127 -1.391,0.231 -2.095,0.341 z m -3.238,0.113 c -0.94,-0.203 -1.873,-0.371 -2.804,-0.563 0.877,-1.154 1.644,-2.381 2.569,-3.497 0.841,-1.02 1.766,-2.137 2.506,-3.251 1.139,0.107 2.279,0.194 3.411,0.244 -0.691,1.356 -1.823,2.635 -2.688,3.854 -0.71,0.996 -1.299,2.237 -2.086,3.185 -0.303,-0.002 -0.607,0.004 -0.908,0.028 z m -6.099,-1.472 c -0.378,-0.144 -0.752,-0.3 -1.128,-0.454 0.936,-0.873 1.701,-2.009 2.483,-2.993 0.689,-0.87 1.675,-1.849 2.13,-2.885 0.459,0.036 0.917,0.075 1.371,0.126 0.98,0.115 1.983,0.221 2.991,0.32 -0.717,1.041 -1.582,2.022 -2.312,3.051 -0.786,1.112 -1.994,2.381 -2.506,3.69 -1.016,-0.219 -2.026,-0.477 -3.029,-0.855 z m -5.252,-2.663 c -0.055,-0.037 -0.11,-0.076 -0.167,-0.115 0.694,-0.658 1.26,-1.484 1.942,-2.158 0.554,-0.545 1.28,-1.144 1.69,-1.805 0.518,0.031 1.034,0.058 1.524,0.116 1.076,0.122 2.158,0.183 3.24,0.255 -0.619,0.708 -1.156,1.545 -1.73,2.274 -0.911,1.157 -1.786,2.355 -2.72,3.495 -1.318,-0.572 -2.597,-1.24 -3.779,-2.062 z m -4.282,-2.94 c 0.297,-0.24 0.559,-0.556 0.829,-0.801 0.44,-0.403 0.873,-0.805 1.308,-1.21 0.002,-0.001 0.004,-0.006 0.008,-0.011 1.061,0.149 2.14,0.327 3.13,0.579 0.625,0.157 1.294,0.226 1.969,0.273 -0.564,0.69 -1.24,1.35 -1.854,1.981 -0.476,0.488 -1.181,1.198 -1.484,1.867 -1.304,-0.897 -2.614,-1.772 -3.906,-2.678 z m -3.932,-2.964 c 1.474,0.264 2.961,0.565 4.441,0.736 0.37,0.044 0.751,0.088 1.134,0.138 -0.324,0.274 -0.645,0.566 -0.932,0.86 -0.348,0.355 -0.674,0.666 -0.955,1.058 -1.258,-0.886 -2.496,-1.8 -3.688,-2.792 z m 36.345,2.904 c -0.038,0.014 -0.068,0.031 -0.1,0.067 -0.024,0.03 -0.051,0.059 -0.077,0.088 -0.908,-0.075 -8.305,-0.52 -9.118,-0.613 -2.877,-0.325 -5.784,-0.322 -8.663,-0.646 -1.691,-0.188 -3.419,-0.312 -5.119,-0.41 -1.441,-0.08 -3.056,-0.137 -4.453,-0.472 -1.408,-0.34 -2.909,-0.301 -4.323,-0.64 -1.597,-0.381 -3.332,-0.645 -4.974,-0.731 -0.076,-0.006 -0.123,0.034 -0.156,0.083 -0.091,0.06 -0.145,0.19 -0.056,0.285 0.007,0.01 0.015,0.018 0.024,0.027 0,0 10e-4,10e-4 -10e-4,0.003 1.253,1.444 3.09,2.468 4.589,3.627 1.376,1.065 2.913,1.914 4.339,2.905 3.182,2.217 7.287,3.669 11.192,3.94 0.936,0.2 2.085,0.042 2.978,-0.025 1.772,-0.129 3.453,-0.459 5.155,-0.977 3.405,-1.029 6.606,-3.271 8.891,-5.985 0.034,-0.003 0.068,-10e-4 0.1,-10e-4 0.123,-0.008 0.221,-0.134 0.234,-0.246 0.002,-0.016 0.003,-0.035 0.007,-0.054 0.032,-0.284 -0.307,-0.376 -0.469,-0.225"
               style="fill:#416b96;fill-opacity:1;fill-rule:nonzero;stroke:none;stroke-width:0.1"
               id="path198"
               transform="translate(-331.83085)" />
            <path
               d="m 474.31,438.13 c -0.053,0.893 -0.235,1.8 -0.45,2.686 -0.02,-0.977 -0.105,-1.95 -0.298,-2.91 -0.172,-0.85 -0.067,-1.955 -0.448,-2.761 0.563,-0.503 1.104,-1.03 1.538,-1.611 0.211,1.417 -0.257,3.222 -0.342,4.596 z m -0.633,3.422 c -0.057,0.219 -0.115,0.44 -0.173,0.654 -0.516,1.923 -1.124,3.782 -2.063,5.438 -0.005,-1.478 -0.262,-3.015 -0.485,-4.442 -0.29,-1.875 -0.325,-3.778 -0.631,-5.644 0.455,-0.37 0.907,-0.743 1.34,-1.137 0.335,-0.303 0.69,-0.609 1.05,-0.923 0.008,0.677 0.267,1.531 0.364,2.089 0.22,1.264 0.203,2.674 0.549,3.897 0.009,0.026 0.027,0.052 0.049,0.068 z m -5.286,9.639 c -0.191,0.147 -0.396,0.276 -0.596,0.41 -0.003,10e-4 -0.003,10e-4 -0.004,0 0.171,0.023 -0.446,-4.792 -0.511,-5.251 -0.178,-1.249 -0.356,-2.473 -0.41,-3.735 -0.025,-0.649 0.039,-1.389 -0.089,-2.035 0.4,-0.368 0.792,-0.743 1.199,-1.1 0.627,-0.55 1.283,-1.065 1.932,-1.586 0.539,3.419 0.629,6.919 1.178,10.339 -0.702,1.103 -1.575,2.105 -2.699,2.958 z m -4.368,2.292 c 0.057,-1.162 -0.004,-2.335 -0.089,-3.511 -0.038,-2.032 -0.121,-4.061 -0.192,-6.089 0.009,-0.092 0.01,-0.184 0.017,-0.277 0.004,-0.034 -0.006,-0.074 -0.023,-0.108 0.87,-0.869 1.758,-1.723 2.653,-2.561 0.264,1.567 0.108,3.271 0.349,4.851 0.305,1.961 0.715,4.021 0.774,6.007 -1.063,0.677 -2.25,1.234 -3.489,1.688 z m -3.438,1.01 c 0.063,-1.584 -0.044,-3.161 -0.073,-4.748 -0.013,-0.787 0.221,-2.138 -0.068,-2.965 0.202,-0.198 0.417,-0.383 0.616,-0.587 0.77,-0.775 1.538,-1.553 2.31,-2.326 -0.004,0.521 0.011,1.041 0.039,1.561 0.013,0.798 0.047,1.708 0.069,2.349 10e-4,0.05 0.003,0.099 0,0.149 -0.034,1.062 -0.056,2.29 0.05,3.46 0.032,0.745 0.079,1.488 0.163,2.221 -1.019,0.358 -2.067,0.651 -3.106,0.886 z m -2.878,0.536 c -0.363,0.053 -0.73,0.108 -1.098,0.161 0.228,-0.852 0.347,-1.725 0.448,-2.604 0.075,-0.676 0.033,-1.36 0.1,-2.04 0.026,-0.245 0.041,-0.536 -0.077,-0.759 1.034,-0.841 2.022,-1.727 2.983,-2.644 -0.038,0.861 0.08,1.757 0.095,2.611 0.037,1.602 0.066,3.2 0.132,4.803 -0.875,0.19 -1.747,0.353 -2.583,0.472 z m -1.407,0.207 c -1.272,0.187 -2.548,0.372 -3.829,0.498 -0.052,-0.895 -0.025,-1.827 0.027,-2.725 0.499,-0.283 0.996,-0.579 1.471,-0.9 0.919,-0.623 1.805,-1.29 2.677,-1.979 -0.112,0.766 0.005,1.658 -0.054,2.403 -0.072,0.906 -0.272,1.796 -0.292,2.703 z m -8.779,0.592 c 1,-0.414 1.961,-1.114 2.875,-1.639 0.542,-0.314 1.097,-0.614 1.647,-0.918 -0.05,0.421 0.024,0.893 0.032,1.28 0.008,0.294 0.046,0.591 0.072,0.885 0.013,0.13 0.005,0.234 0.014,0.334 -1.541,0.139 -3.087,0.194 -4.64,0.058 z m 27.123,-22.889 c -2.109,2.283 -4.591,4.179 -6.949,6.185 -2.328,1.981 -4.51,4.174 -6.607,6.397 -2.069,2.197 -4.44,4.179 -6.908,5.905 -2.323,1.625 -5.079,2.589 -7.314,4.335 -0.09,0.069 -0.061,0.157 0.001,0.212 0.009,0.035 0.029,0.065 0.075,0.075 1.714,0.447 3.499,0.042 5.246,0.108 1.878,0.07 3.75,-0.397 5.579,-0.756 2.067,-0.405 4.089,-0.863 6.037,-1.534 0.071,0.026 0.153,0.003 0.185,-0.066 1.621,-0.571 3.184,-1.289 4.665,-2.277 3.192,-2.124 4.204,-5.707 5.272,-9.147 0.418,-1.351 0.678,-2.794 0.838,-4.196 0.114,-1.007 0.128,-2.029 0.221,-3.042 0.058,-0.643 0.219,-1.404 0.057,-2.043 -0.021,-0.081 -0.075,-0.131 -0.136,-0.158 -0.065,-0.069 -0.176,-0.092 -0.262,0.002"
               style="fill:#416b96;fill-opacity:1;fill-rule:nonzero;stroke:none;stroke-width:0.1"
               id="path200"
               transform="translate(-331.83085)" />
            <path
               d="m 456.138,391.623 c -0.214,-0.006 -0.445,-0.022 -0.56,-0.023 -0.363,0 -0.725,-0.038 -1.087,-0.043 -0.357,-0.007 -0.713,-0.015 -1.067,-0.037 -0.079,-0.005 -0.193,0.03 -0.292,0.047 0.016,-0.226 0.028,-0.448 0.051,-0.676 0.107,-1.218 -0.064,-2.766 0.257,-3.97 0.873,1.578 1.774,3.145 2.698,4.702 z m 2.541,4.195 c -0.688,-0.082 -1.43,-0.025 -2.098,0.004 -1.161,0.048 -2.294,0.034 -3.437,0.225 -0.13,-1.436 -0.125,-2.773 -0.036,-4.172 0.327,0.115 0.845,0.073 1.077,0.091 0.445,0.031 0.898,0.05 1.345,0.056 0.277,0.007 0.585,0.059 0.865,0.026 0.751,1.261 1.508,2.52 2.284,3.77 z m 2.42,3.828 c -2.466,0.073 -4.968,0.418 -7.417,0.725 -0.24,-1.379 -0.39,-2.766 -0.513,-4.039 0.982,0.052 2.034,-0.075 3.006,-0.103 0.784,-0.021 1.566,-0.042 2.352,-0.017 0.156,0.004 0.277,0.026 0.405,0.013 0.716,1.144 1.439,2.286 2.167,3.421 z m 1.67,2.577 c 0.339,0.515 0.693,1.015 1.048,1.513 -2.998,-10e-4 -6.058,0.416 -9.035,0.742 -0.478,-1.19 -0.806,-2.506 -1.05,-3.834 1.439,0.132 3.022,-0.259 4.458,-0.371 0.667,-0.052 2.444,0.156 3.155,-0.25 0.472,0.736 0.944,1.473 1.424,2.2 z m 3.025,4.197 c 0,0 0,0 -10e-4,0 -1.502,0.451 -3.029,0.842 -4.541,1.258 -1.313,0.359 -2.842,0.498 -4.072,1.097 -0.694,-1.011 -1.32,-2.101 -1.921,-3.255 -0.124,-0.236 -0.231,-0.49 -0.338,-0.74 3.044,-0.2 6.083,-0.592 9.132,-0.638 0.015,-10e-4 0.027,-0.006 0.041,-0.008 0.559,0.77 1.13,1.528 1.7,2.286 z m 2.333,3.187 c 0.108,0.148 0.222,0.301 0.335,0.453 -1.016,0.208 -2.034,0.593 -3.014,0.88 -1.672,0.493 -3.36,0.9 -5.046,1.355 -1.205,-0.931 -2.192,-2.05 -3.07,-3.295 1.48,-0.08 3.079,-0.658 4.494,-1.039 1.413,-0.379 2.831,-0.741 4.234,-1.161 0.006,-0.001 0.007,-0.008 0.012,-0.011 0.699,0.929 1.393,1.859 2.055,2.818 z m 2.582,3.05 c 0.094,0.091 0.196,0.188 0.294,0.283 -0.705,0.197 -1.393,0.617 -2.048,0.91 -0.905,0.411 -1.93,0.66 -2.82,1.104 -0.982,-0.274 -1.946,-0.608 -2.886,-1.005 -0.936,-0.392 -1.766,-0.868 -2.518,-1.409 1.617,-0.219 3.204,-0.806 4.787,-1.151 1.077,-0.239 2.252,-0.469 3.293,-0.864 0.589,0.754 1.247,1.498 1.898,2.132 z m 3.001,2.99 c -0.182,0.087 -4.231,-0.032 -4.529,-0.071 -0.84,-0.111 -1.666,-0.281 -2.485,-0.486 0.702,-0.195 1.383,-0.461 2.073,-0.717 0.557,-0.209 1.083,-0.49 1.64,-0.703 0.263,-0.101 0.695,-0.229 0.904,-0.435 0.822,0.777 1.709,1.587 2.397,2.412 z M 453.343,386.3 c -0.088,-0.013 -0.183,0.02 -0.223,0.132 -0.456,1.224 -0.201,2.767 -0.348,4.059 -0.199,1.771 -0.371,3.48 -0.109,5.251 0.52,3.516 0.769,7.222 2.44,10.432 1.797,3.454 3.908,6.318 7.537,8 3.574,1.659 7.433,2.228 11.324,1.742 0.094,-0.011 0.171,-0.096 0.179,-0.184 0.001,-0.015 -10e-4,-0.028 0.003,-0.044 0.006,-0.074 -0.021,-0.13 -0.065,-0.167 -0.006,-0.021 -0.014,-0.04 -0.028,-0.061 -0.778,-1.01 -1.886,-1.737 -2.703,-2.726 -0.703,-0.852 -1.428,-1.705 -2.156,-2.549 -0.013,-0.097 -0.08,-0.187 -0.18,-0.212 -0.121,-0.141 -0.24,-0.283 -0.361,-0.419 -1.947,-2.239 -3.515,-4.762 -5.232,-7.164 -1.817,-2.537 -3.387,-5.314 -5.053,-7.956 -0.561,-0.895 -1.1,-1.808 -1.643,-2.716 -0.011,-0.032 -0.027,-0.063 -0.051,-0.082 -1.033,-1.733 -2.047,-3.474 -3.014,-5.24 -0.069,-0.131 -0.211,-0.146 -0.317,-0.096"
               style="fill:#416b96;fill-opacity:1;fill-rule:nonzero;stroke:none;stroke-width:0.1"
               id="path202"
               transform="translate(-331.83085)" />
            <path
               d="m 483.605,392.994 c -0.341,0.047 -0.762,0.124 -1.074,0.18 -0.502,0.084 -1.006,0.151 -1.51,0.224 -0.468,0.064 -0.899,0.269 -1.36,0.353 -0.231,-1.677 -0.245,-3.384 0.047,-4.904 1.209,1.454 2.576,2.783 3.897,4.147 z m 1.654,1.779 c 0.591,0.673 1.201,1.342 1.817,2.005 -0.913,0.119 -1.846,0.417 -2.736,0.624 -1.183,0.268 -2.367,0.524 -3.507,0.926 -0.506,-1.295 -0.896,-2.778 -1.126,-4.292 0.259,-0.014 0.507,-0.057 0.765,-0.125 0.612,-0.161 1.239,-0.204 1.86,-0.312 0.498,-0.092 1.138,-0.08 1.617,-0.247 0.448,0.466 0.887,0.936 1.31,1.421 z m 4.824,5.116 c -2.377,0.869 -4.828,1.621 -7.165,2.593 -0.751,-1.2 -1.4,-2.472 -1.948,-3.795 -0.016,-0.035 -0.03,-0.074 -0.042,-0.109 2.146,-0.38 4.288,-1.286 6.458,-1.471 0.884,0.945 1.787,1.87 2.697,2.782 z m 1.227,1.225 c 0.664,0.646 1.383,1.249 2.119,1.836 -2.697,0.825 -5.749,1.217 -8.299,2.445 -0.763,-0.824 -1.444,-1.725 -2.059,-2.673 1.139,-0.261 2.266,-0.728 3.368,-1.107 1.328,-0.455 2.643,-0.942 3.965,-1.406 0.302,0.299 0.601,0.607 0.906,0.905 z m 4.699,3.811 c -1.024,0.526 -2.074,1.011 -3.095,1.555 -1.28,0.684 -2.596,1.345 -3.888,2.01 -0.297,-0.169 -0.595,-0.337 -0.884,-0.524 -1.038,-0.677 -1.957,-1.474 -2.795,-2.345 1.686,-0.317 3.328,-0.922 4.984,-1.356 1.136,-0.294 2.341,-0.576 3.427,-1.033 0.006,-0.002 0.007,-0.009 0.012,-0.011 0.736,0.579 1.489,1.145 2.239,1.704 z m 1.83,1.385 c 0.382,0.296 0.776,0.591 1.171,0.884 -0.154,0.072 -0.302,0.146 -0.461,0.208 -0.607,0.235 -1.161,0.626 -1.771,0.875 -1.305,0.529 -2.501,1.403 -3.851,1.836 -1.24,-0.363 -2.448,-0.836 -3.59,-1.446 0.265,-0.108 0.512,-0.267 0.766,-0.412 0.818,-0.466 1.704,-0.791 2.557,-1.194 0.43,-0.202 2.481,-1.085 3.19,-1.63 0.144,-0.049 0.279,-0.114 0.398,-0.197 0,0 0.002,0.001 0.004,0.003 0.019,-0.005 0.04,-0.012 0.061,-0.015 0.023,-0.006 0.038,-0.015 0.057,-0.027 0.491,0.373 0.988,0.74 1.469,1.115 z m 3.725,2.662 c -0.46,0.231 -0.907,0.693 -1.296,0.926 -0.585,0.354 -1.198,0.707 -1.696,1.178 -1.682,-0.108 -3.38,-0.36 -5.028,-0.789 0.932,-0.287 1.861,-0.881 2.665,-1.288 0.972,-0.49 2.118,-1.173 3.161,-1.47 0.016,-0.004 0.036,-0.016 0.053,-0.023 0.696,0.505 1.414,0.994 2.141,1.466 z m 3.054,1.795 c -0.132,0.045 -0.261,0.092 -0.397,0.102 -0.617,0.042 -1.238,0.045 -1.855,0.053 -1.108,0.012 -2.19,0.18 -3.296,0.166 0.021,-0.015 0.04,-0.027 0.06,-0.041 0.383,-0.233 0.771,-0.463 1.152,-0.695 0.555,-0.338 1.108,-0.843 1.698,-1.104 0.867,0.546 1.748,1.058 2.638,1.519 z m -25.281,-22.41 c -0.004,0.008 -0.007,0.017 -0.012,0.027 -0.709,3.011 -0.068,6.61 0.867,9.515 1.165,3.608 3.615,7.637 6.758,9.818 3.188,2.215 6.853,3.365 10.675,3.712 1.409,0.123 2.684,0.048 4.083,-0.052 0.655,-0.048 1.313,-0.032 1.969,-0.045 0.374,-0.009 1.024,-0.253 1.32,-0.221 0.138,0.014 0.215,-0.082 0.228,-0.188 0,-0.005 -0.002,-0.01 -0.001,-0.017 0.07,-0.087 0.086,-0.222 -0.028,-0.286 -4.879,-2.814 -9.923,-6.255 -13.965,-10.208 -1.92,-1.881 -3.863,-3.884 -5.615,-5.925 -1.869,-2.169 -4.093,-4.062 -5.875,-6.302 -0.153,-0.194 -0.426,-0.025 -0.404,0.172"
               style="fill:#416b96;fill-opacity:1;fill-rule:nonzero;stroke:none;stroke-width:0.1"
               id="path204"
               transform="translate(-331.83085)" />
            <path
               d="m 508.771,440.844 c -0.333,-1.091 -0.72,-2.164 -1.105,-3.237 -0.505,-1.407 -1.015,-3.092 -1.756,-4.398 0.526,-0.625 1.052,-1.25 1.601,-1.854 0.975,2.933 1.465,6.254 1.26,9.489 z m -1.232,5.811 c -0.467,-1.451 -1.203,-2.862 -1.887,-4.198 -0.985,-1.945 -1.583,-4.031 -2.28,-6.085 0.71,-0.935 1.444,-1.856 2.192,-2.763 0.675,1.308 1.157,2.83 1.684,4.184 0.297,0.757 0.568,1.53 0.852,2.294 0.195,0.525 0.255,1.156 0.603,1.598 -0.175,1.714 -0.548,3.394 -1.164,4.97 z m -1.537,2.968 c -0.26,0.385 -0.554,0.741 -0.871,1.079 -0.553,-2.002 -1.151,-3.978 -1.823,-5.947 -0.631,-1.846 -1.176,-3.852 -1.94,-5.642 0.545,-0.765 1.094,-1.53 1.656,-2.281 1.166,3.57 2.632,7.047 4.259,10.433 -0.36,0.82 -0.779,1.611 -1.281,2.358 z m -3.904,3.643 c -0.563,-3.655 -1.343,-7.704 -2.862,-11.077 0.596,-0.886 1.205,-1.77 1.822,-2.648 0.503,1.623 1.085,3.208 1.652,4.81 0.411,1.156 0.795,2.322 1.17,3.49 0.33,1.03 0.516,2.138 1.009,3.109 -0.853,0.855 -1.845,1.59 -2.791,2.316 z m -2.769,1.884 c -0.346,-1.489 -0.669,-2.982 -1.076,-4.46 -0.201,-0.726 -0.446,-1.442 -0.667,-2.163 -0.261,-0.836 -0.372,-1.867 -0.762,-2.662 0.055,-0.091 0.109,-0.186 0.165,-0.275 0.632,-0.973 1.276,-1.945 1.927,-2.92 0.397,1.338 0.855,2.666 1.239,4.011 0.641,2.239 1.054,4.535 1.681,6.78 -0.802,0.607 -1.641,1.168 -2.507,1.689 z m -2.517,1.342 c -0.232,0.108 -0.464,0.22 -0.696,0.328 -0.207,-2.432 -1.019,-4.72 -1.437,-7.109 -0.003,-0.026 -0.021,-0.036 -0.031,-0.053 0.597,-1.133 1.223,-2.243 1.888,-3.32 0.265,1.866 1.052,3.717 1.562,5.51 0.195,0.681 0.316,2.662 0.881,3.502 -0.708,0.413 -1.429,0.801 -2.167,1.142 z m -4.396,2.04 c -0.1,-1.206 -0.339,-2.408 -0.534,-3.603 0.846,-1.532 1.635,-3.106 2.443,-4.658 0.142,1.118 0.584,2.204 0.833,3.297 0.252,1.122 0.336,2.289 0.682,3.384 -1.135,0.536 -2.274,1.073 -3.424,1.58 z m -0.389,0.175 c -1.144,0.5 -2.397,0.85 -3.531,1.379 1.15,-1.403 2.132,-2.942 3.039,-4.536 0.092,0.566 0.196,1.136 0.314,1.679 0.071,0.319 0.065,1.068 0.278,1.437 -0.034,0.015 -0.064,0.028 -0.1,0.041 z m 15.365,-28.081 c -4.161,4.326 -7.638,9.577 -10.866,14.618 -1.499,2.34 -2.897,4.765 -4.124,7.261 -0.812,1.651 -1.694,3.3 -2.717,4.827 -0.662,0.984 -1.466,2.011 -1.965,3.091 -0.062,0.129 0.027,0.221 0.134,0.245 0.048,0.064 0.133,0.106 0.24,0.068 3.443,-1.24 6.762,-2.63 10.035,-4.283 3.347,-1.691 6.971,-4.236 8.922,-7.49 1.544,-2.574 2.064,-5.967 2.285,-8.911 0.219,-2.976 -0.464,-6.384 -1.432,-9.193 0.002,-0.011 0.002,-0.018 0.003,-0.029 0.04,-0.311 -0.33,-0.398 -0.515,-0.204"
               style="fill:#416b96;fill-opacity:1;fill-rule:nonzero;stroke:none;stroke-width:0.1"
               id="path206"
               transform="translate(-331.83085)" />
            <g
               id="g2275"
               style="fill:#ef6351;fill-opacity:1">
              <path
                 d="m 212.814,431.474 c 0.235,3.28 1.74,7.059 5.654,6.871 1.505,-0.073 2.93,-0.926 3.823,-2.089 0.491,-0.64 0.957,-1.406 1.014,-2.181 1.357,1.171 3.224,1.673 5.093,1.366 3.309,-0.544 3.592,-4.349 2.633,-6.894 -1.201,-3.187 -3.585,-5.797 -5.905,-8.23 -1.202,-1.261 -2.76,-2.204 -4.212,-3.161 0.004,-0.053 -0.015,-0.106 -0.073,-0.152 -0.661,-0.518 -1.984,-1.693 -2.937,-1.42 -1.541,0.439 -2.133,1.078 -2.79,2.616 -0.829,1.938 -1.428,3.799 -1.701,5.892 -0.317,2.425 -0.774,4.931 -0.599,7.382"
                 style="fill:#ef6351;fill-opacity:1;fill-rule:nonzero;stroke:none;stroke-width:0.1"
                 id="path967" />
              <path
                 d="m 230.796,425.89 c 2.958,1.436 6.984,2.023 8.778,-1.461 0.688,-1.341 0.662,-3 0.102,-4.355 -0.308,-0.745 -0.739,-1.533 -1.382,-1.968 1.693,-0.591 3.061,-1.956 3.731,-3.729 1.182,-3.137 -1.971,-5.285 -4.655,-5.727 -3.361,-0.553 -6.813,0.205 -10.079,0.999 -1.694,0.409 -3.291,1.289 -4.844,2.068 -0.043,-0.03 -0.1,-0.042 -0.168,-0.014 -0.78,0.314 -2.458,0.873 -2.699,1.834 -0.39,1.553 -0.133,2.385 0.871,3.724 1.263,1.687 2.576,3.136 4.252,4.419 1.941,1.487 3.883,3.136 6.093,4.21"
                 style="fill:#ef6351;fill-opacity:1;fill-rule:nonzero;stroke:none;stroke-width:0.1"
                 id="path969" />
              <path
                 d="m 234.951,407.525 c 2.723,-1.844 5.245,-5.037 3.124,-8.333 -0.816,-1.266 -2.267,-2.073 -3.72,-2.265 -0.8,-0.106 -1.697,-0.125 -2.397,0.212 0.336,-1.76 -0.162,-3.628 -1.363,-5.094 -2.125,-2.593 -5.562,-0.937 -7.286,1.168 -2.16,2.633 -3.229,6.003 -4.176,9.227 -0.491,1.672 -0.529,3.493 -0.631,5.23 -0.047,0.022 -0.085,0.065 -0.096,0.137 -0.119,0.834 -0.474,2.566 0.239,3.256 1.151,1.114 2,1.307 3.661,1.107 2.092,-0.25 4.004,-0.662 5.953,-1.472 2.258,-0.938 4.657,-1.795 6.692,-3.173"
                 style="fill:#ef6351;fill-opacity:1;fill-rule:nonzero;stroke:none;stroke-width:0.1"
                 id="path971" />
              <path
                 d="m 221.124,394.745 c -0.235,-3.281 -1.739,-7.061 -5.653,-6.872 -1.506,0.073 -2.93,0.927 -3.823,2.088 -0.491,0.641 -0.957,1.408 -1.014,2.182 -1.358,-1.171 -3.224,-1.674 -5.094,-1.367 -3.308,0.545 -3.591,4.349 -2.632,6.894 1.201,3.189 3.585,5.798 5.905,8.23 1.201,1.262 2.759,2.205 4.212,3.163 -0.005,0.051 0.014,0.105 0.072,0.15 0.661,0.521 1.984,1.693 2.938,1.421 1.54,-0.439 2.132,-1.077 2.789,-2.616 0.829,-1.938 1.428,-3.799 1.701,-5.891 0.317,-2.424 0.775,-4.931 0.599,-7.382"
                 style="fill:#ef6351;fill-opacity:1;fill-rule:nonzero;stroke:none;stroke-width:0.1"
                 id="path973" />
              <path
                 d="m 203.142,400.33 c -2.958,-1.438 -6.983,-2.025 -8.776,1.46 -0.689,1.339 -0.664,2.999 -0.104,4.353 0.309,0.746 0.74,1.532 1.383,1.97 -1.694,0.59 -3.063,1.955 -3.73,3.728 -1.184,3.137 1.97,5.284 4.653,5.726 3.361,0.554 6.814,-0.204 10.08,-0.998 1.693,-0.411 3.289,-1.287 4.844,-2.067 0.043,0.029 0.099,0.041 0.169,0.013 0.78,-0.312 2.457,-0.872 2.698,-1.834 0.39,-1.554 0.133,-2.386 -0.871,-3.724 -1.263,-1.687 -2.577,-3.136 -4.252,-4.419 -1.942,-1.487 -3.882,-3.136 -6.094,-4.208"
                 style="fill:#ef6351;fill-opacity:1;fill-rule:nonzero;stroke:none;stroke-width:0.1"
                 id="path975" />
              <path
                 d="m 198.988,418.693 c -2.723,1.844 -5.245,5.037 -3.124,8.332 0.817,1.266 2.267,2.073 3.719,2.266 0.801,0.106 1.698,0.126 2.397,-0.212 -0.336,1.761 0.161,3.63 1.364,5.094 2.125,2.594 5.562,0.936 7.286,-1.167 2.161,-2.634 3.229,-6.004 4.176,-9.229 0.491,-1.672 0.528,-3.491 0.631,-5.228 0.046,-0.022 0.084,-0.066 0.095,-0.139 0.119,-0.831 0.474,-2.565 -0.238,-3.254 -1.15,-1.114 -2,-1.308 -3.662,-1.109 -2.092,0.253 -4.003,0.664 -5.952,1.474 -2.258,0.937 -4.658,1.794 -6.692,3.172"
                 style="fill:#ef6351;fill-opacity:1;fill-rule:nonzero;stroke:none;stroke-width:0.1"
                 id="path977" />
            </g>
            <g
               style="opacity:0.96;fill:#dad5a9;fill-opacity:1"
               id="g991">
              <path
                 id="path979"
                 style="fill:#dad5a9;fill-opacity:1;fill-rule:nonzero;stroke:none;stroke-width:0.1"
                 d="m 215.902,417.174 c -1.291,-0.631 -2.841,-0.457 -3.756,0.921 -1.075,1.616 -1.295,5.047 0.588,6.256 1.965,1.262 4.422,-0.447 5.157,-2.347 0.674,-1.747 0.35,-4.779 -1.989,-4.83" />
              <path
                 id="path981"
                 style="fill:#dad5a9;fill-opacity:1;fill-rule:nonzero;stroke:none;stroke-width:0.1"
                 d="m 219.884,416.108 c -1.192,0.802 -1.815,2.231 -1.081,3.713 0.862,1.738 3.724,3.644 5.713,2.618 2.075,-1.071 1.822,-4.053 0.545,-5.638 -1.175,-1.459 -3.963,-2.692 -5.177,-0.693" />
              <path
                 id="path983"
                 style="fill:#dad5a9;fill-opacity:1;fill-rule:nonzero;stroke:none;stroke-width:0.1"
                 d="m 220.952,412.125 c 0.098,1.434 1.026,2.687 2.675,2.793 1.937,0.124 5.019,-1.403 5.124,-3.638 0.11,-2.333 -2.599,-3.605 -4.611,-3.291 -1.849,0.288 -4.312,2.086 -3.188,4.136" />
              <path
                 id="path985"
                 style="fill:#dad5a9;fill-opacity:1;fill-rule:nonzero;stroke:none;stroke-width:0.1"
                 d="m 218.037,409.21 c 1.291,0.632 2.84,0.456 3.756,-0.921 1.075,-1.615 1.295,-5.048 -0.588,-6.256 -1.965,-1.262 -4.421,0.448 -5.156,2.347 -0.675,1.745 -0.35,4.778 1.988,4.83" />
              <path
                 id="path987"
                 style="fill:#dad5a9;fill-opacity:1;fill-rule:nonzero;stroke:none;stroke-width:0.1"
                 d="m 214.056,410.276 c 1.192,-0.802 1.814,-2.232 1.08,-3.713 -0.862,-1.738 -3.725,-3.646 -5.712,-2.619 -2.076,1.071 -1.823,4.052 -0.546,5.638 1.173,1.459 3.963,2.693 5.178,0.694" />
              <path
                 id="path989"
                 style="fill:#dad5a9;fill-opacity:1;fill-rule:nonzero;stroke:none;stroke-width:0.1"
                 d="m 209.798,418.395 c 1.85,-0.288 4.314,-2.085 3.189,-4.137 -0.098,-1.434 -1.026,-2.688 -2.674,-2.792 -1.938,-0.123 -5.021,1.401 -5.125,3.637 -0.111,2.333 2.599,3.605 4.61,3.292" />
            </g>
            <path
               d="m 218.779,422.209 c 0.718,2.078 1.222,4.213 2.067,6.241 -0.138,0.064 -0.265,0.153 -0.364,0.265 -0.227,0.261 -0.34,0.701 -0.235,1.033 0.095,0.304 0.4,0.684 0.742,0.723 0.159,0.018 0.342,-0.01 0.505,-0.078 0.093,-0.011 0.187,-0.036 0.276,-0.085 0.628,-0.358 0.649,-1.2 0.191,-1.69 -0.254,-0.27 -0.628,-0.326 -0.96,-0.229 -0.53,-2.135 -1.038,-4.272 -1.618,-6.397 -0.466,-1.708 -0.638,-3.854 -1.5,-5.381 -0.109,-0.193 -0.415,-0.066 -0.396,0.141 0.164,1.823 0.696,3.73 1.292,5.457"
               style="fill:#044e57;fill-opacity:1;fill-rule:nonzero;stroke:none;stroke-width:0.1"
               id="path993" />
            <path
               d="m 225.753,416.092 c 2.159,0.417 4.261,1.049 6.44,1.331 -0.015,0.152 -0.002,0.306 0.046,0.447 0.114,0.328 0.438,0.646 0.778,0.721 0.311,0.07 0.791,-0.005 0.996,-0.28 0.096,-0.13 0.164,-0.302 0.186,-0.477 0.037,-0.088 0.063,-0.18 0.064,-0.282 0.005,-0.723 -0.714,-1.163 -1.368,-1.011 -0.362,0.085 -0.596,0.381 -0.678,0.717 -2.114,-0.608 -4.219,-1.237 -6.35,-1.798 -1.711,-0.449 -3.656,-1.375 -5.409,-1.391 -0.223,-0.002 -0.264,0.327 -0.078,0.414 1.662,0.769 3.58,1.262 5.373,1.609"
               style="fill:#044e57;fill-opacity:1;fill-rule:nonzero;stroke:none;stroke-width:0.1"
               id="path995" />
            <path
               d="m 223.943,406.994 c 1.441,-1.66 3.039,-3.165 4.373,-4.91 0.125,0.087 0.264,0.153 0.41,0.182 0.341,0.066 0.777,-0.055 1.014,-0.312 0.215,-0.235 0.389,-0.688 0.254,-1.004 -0.064,-0.147 -0.18,-0.292 -0.319,-0.399 -0.058,-0.075 -0.125,-0.145 -0.213,-0.196 -0.624,-0.366 -1.365,0.037 -1.559,0.68 -0.108,0.354 0.032,0.705 0.283,0.944 -1.586,1.527 -3.182,3.036 -4.732,4.601 -1.246,1.256 -3.02,2.478 -3.911,3.988 -0.113,0.192 0.151,0.392 0.32,0.274 1.497,-1.054 2.883,-2.467 4.08,-3.848"
               style="fill:#044e57;fill-opacity:1;fill-rule:nonzero;stroke:none;stroke-width:0.1"
               id="path997" />
            <path
               d="m 215.159,404.012 c -0.718,-2.078 -1.222,-4.214 -2.066,-6.243 0.139,-0.061 0.264,-0.15 0.363,-0.264 0.228,-0.261 0.341,-0.7 0.236,-1.033 -0.095,-0.303 -0.4,-0.682 -0.742,-0.721 -0.159,-0.02 -0.343,0.009 -0.505,0.076 -0.094,0.013 -0.187,0.036 -0.277,0.086 -0.627,0.357 -0.649,1.201 -0.19,1.691 0.253,0.271 0.627,0.325 0.96,0.228 0.529,2.135 1.038,4.272 1.617,6.398 0.466,1.706 0.638,3.853 1.5,5.381 0.11,0.193 0.415,0.064 0.397,-0.141 -0.164,-1.823 -0.697,-3.731 -1.293,-5.458"
               style="fill:#044e57;fill-opacity:1;fill-rule:nonzero;stroke:none;stroke-width:0.1"
               id="path999" />
            <path
               d="m 208.185,410.129 c -2.158,-0.417 -4.261,-1.049 -6.44,-1.332 0.016,-0.151 0.003,-0.305 -0.046,-0.446 -0.113,-0.329 -0.437,-0.646 -0.777,-0.722 -0.311,-0.069 -0.791,0.006 -0.998,0.282 -0.095,0.129 -0.161,0.302 -0.184,0.476 -0.037,0.089 -0.063,0.181 -0.065,0.283 -0.004,0.723 0.716,1.162 1.369,1.01 0.361,-0.085 0.596,-0.381 0.677,-0.716 2.115,0.607 4.22,1.236 6.35,1.797 1.711,0.45 3.657,1.375 5.41,1.392 0.222,10e-4 0.264,-0.328 0.077,-0.414 -1.661,-0.77 -3.579,-1.263 -5.373,-1.61"
               style="fill:#044e57;fill-opacity:1;fill-rule:nonzero;stroke:none;stroke-width:0.1"
               id="path1001" />
            <path
               d="m 209.995,419.227 c -1.441,1.661 -3.037,3.165 -4.373,4.911 -0.124,-0.089 -0.264,-0.154 -0.411,-0.183 -0.339,-0.067 -0.776,0.055 -1.012,0.312 -0.216,0.236 -0.391,0.688 -0.255,1.005 0.064,0.148 0.181,0.291 0.319,0.399 0.059,0.075 0.126,0.143 0.214,0.195 0.623,0.366 1.365,-0.037 1.559,-0.679 0.107,-0.355 -0.032,-0.707 -0.283,-0.945 1.585,-1.528 3.18,-3.036 4.733,-4.6 1.244,-1.257 3.018,-2.479 3.909,-3.99 0.113,-0.192 -0.151,-0.392 -0.319,-0.273 -1.497,1.054 -2.884,2.468 -4.081,3.848"
               style="fill:#044e57;fill-opacity:1;fill-rule:nonzero;stroke:none;stroke-width:0.1"
               id="path1003" />
            <path
               d="m 211.416,417.313 c 1.383,1.869 4.413,2.145 6.545,2.153 1.639,0.005 3.795,-1.49 4.396,-2.997 0.126,-0.317 0.251,-0.64 0.366,-0.967 1.14,-2.295 0.634,-5.401 -1.551,-7.086 -3.693,-2.846 -9.607,-1.427 -10.843,3.304 -0.459,1.757 0.009,4.137 1.087,5.593"
               style="fill:#044e57;fill-opacity:1;fill-rule:nonzero;stroke:none;stroke-width:0.1"
               id="path1005" />
          </g>
        </g>
      </g>
    </g>
  </g>
</svg>
