<?xml version="1.0" encoding="UTF-8" standalone="no"?>
<!-- Created with Inkscape (http://www.inkscape.org/) -->

<svg
   version="1.1"
   id="svg574733"
   width="239.79077"
   height="244.57607"
   viewBox="0 0 239.79077 244.57606"
   sodipodi:docname="15628329_5655032.eps"
   xmlns:inkscape="http://www.inkscape.org/namespaces/inkscape"
   xmlns:sodipodi="http://sodipodi.sourceforge.net/DTD/sodipodi-0.dtd"
   xmlns="http://www.w3.org/2000/svg"
   xmlns:svg="http://www.w3.org/2000/svg">
  <defs
     id="defs574737">
    <clipPath
       clipPathUnits="userSpaceOnUse"
       id="clipPath575471">
      <path
         d="m 2701.76,1305.7 c 0,0 281.02,-27.79 296.74,-239.39 15.73,-211.599 -87.64,-355.201 -87.64,-355.201 0,0 -194.61,35.313 -268.16,226.469 -73.55,191.172 59.06,368.122 59.06,368.122 z"
         id="path575469" />
    </clipPath>
    <clipPath
       clipPathUnits="userSpaceOnUse"
       id="clipPath575495">
      <path
         d="m 2849.1,1459.22 c 0,0 228.42,137.39 354.5,-1.33 126.08,-138.72 125.03,-296.48 125.03,-296.48 0,0 -166.85,-83.94 -325.83,8.28 -158.98,92.22 -153.7,289.53 -153.7,289.53 z"
         id="path575493" />
    </clipPath>
    <clipPath
       clipPathUnits="userSpaceOnUse"
       id="clipPath575681">
      <path
         d="m 1527.99,4298.03 c 0,0 139.7,-245.41 -23.92,-380.51 -163.61,-135.1 -340.54,-133.72 -340.54,-133.72 0,0 -83.62,179.24 29.89,349.73 113.52,170.49 334.57,164.5 334.57,164.5 z"
         id="path575679" />
    </clipPath>
    <clipPath
       clipPathUnits="userSpaceOnUse"
       id="clipPath575705">
      <path
         d="m 1425.36,4441.59 c 0,0 -91.64,-267.1 -301.19,-233.77 -209.545,33.33 -325.541,166.94 -325.541,166.94 0,0 79.09,181.28 282.041,208.92 202.95,27.64 344.69,-142.09 344.69,-142.09 z"
         id="path575703" />
    </clipPath>
  </defs>
  <sodipodi:namedview
     id="namedview574735"
     pagecolor="#ffffff"
     bordercolor="#000000"
     borderopacity="0.25"
     inkscape:showpageshadow="2"
     inkscape:pageopacity="0.0"
     inkscape:pagecheckerboard="0"
     inkscape:deskcolor="#d1d1d1"
     showgrid="false" />
  <g
     id="g574741"
     inkscape:groupmode="layer"
     inkscape:label="Page 1"
     transform="matrix(1.3333333,0,0,-1.3333333,895.36267,812.59023)">
    <g
       id="g576586">
      <path
         d="m -355.23825,323.63288 c -0.001,0.117 0.038,0.235 0.119,0.333 0.177,0.212 18.101,21.328 46.407,24.708 0.279,0.033 0.531,-0.166 0.565,-0.445 0.034,-0.283 -0.166,-0.532 -0.445,-0.565 -27.909,-3.332 -45.572,-24.14 -45.747,-24.35 -0.18,-0.216 -0.501,-0.244 -0.716,-0.064 -0.119,0.098 -0.181,0.24 -0.183,0.383"
         style="fill:#f48c6a;fill-opacity:1;fill-rule:nonzero;stroke:none;stroke-width:0.1"
         id="path575423" />
      <path
         d="m -332.87125,342.55388 c -0.065,5.065 7.731,13.258 8.099,13.641 0.195,0.203 0.516,0.21 0.719,0.016 0.204,-0.194 0.21,-0.516 0.015,-0.719 -2.66,-2.773 -9.206,-10.713 -7.571,-14.079 0.122,-0.254 0.016,-0.557 -0.235,-0.679 -0.253,-0.123 -0.557,-0.018 -0.68,0.235 -0.232,0.477 -0.339,1.012 -0.347,1.585"
         style="fill:#f48c6a;fill-opacity:1;fill-rule:nonzero;stroke:none;stroke-width:0.1"
         id="path575425" />
      <path
         d="m -325.71825,343.96188 c -10e-4,0.134 0.05,0.269 0.153,0.371 0.201,0.196 0.523,0.192 0.719,-0.009 0.074,-0.076 7.49,-7.562 14.402,-5.767 0.273,0.071 0.55,-0.092 0.621,-0.364 0.072,-0.273 -0.093,-0.549 -0.364,-0.62 -7.487,-1.944 -15.068,5.714 -15.386,6.04 -0.095,0.098 -0.144,0.223 -0.145,0.349"
         style="fill:#f48c6a;fill-opacity:1;fill-rule:nonzero;stroke:none;stroke-width:0.1"
         id="path575427" />
      <path
         d="m -344.41825,338.27288 c -0.119,9.214 6.347,15.815 6.423,15.89 0.198,0.199 0.52,0.199 0.718,0.001 0.199,-0.199 0.2,-0.521 0.002,-0.719 -0.083,-0.083 -8.231,-8.423 -5.609,-19.26 0.069,-0.273 -0.101,-0.548 -0.375,-0.613 -0.272,-0.066 -0.547,0.102 -0.613,0.374 -0.361,1.492 -0.528,2.94 -0.546,4.327"
         style="fill:#f48c6a;fill-opacity:1;fill-rule:nonzero;stroke:none;stroke-width:0.1"
         id="path575429" />
      <path
         d="m -350.11225,328.85288 c -10e-4,0.061 0.009,0.124 0.032,0.184 0.098,0.263 0.391,0.397 0.654,0.299 0.138,-0.052 13.983,-5.127 24.512,-1.617 0.266,0.088 0.554,-0.056 0.643,-0.322 0.089,-0.266 -0.055,-0.555 -0.322,-0.643 -10.873,-3.625 -24.609,1.413 -25.188,1.629 -0.203,0.076 -0.329,0.267 -0.331,0.47"
         style="fill:#f48c6a;fill-opacity:1;fill-rule:nonzero;stroke:none;stroke-width:0.1"
         id="path575431" />
      <path
         d="m -334.96325,325.80688 c -10e-4,0.073 0.014,0.146 0.045,0.216 1.64,3.628 4.791,5.188 4.925,5.253 0.252,0.122 0.555,0.017 0.678,-0.235 0.123,-0.253 0.017,-0.556 -0.234,-0.679 -0.029,-0.015 -2.959,-1.476 -4.442,-4.758 -0.116,-0.256 -0.417,-0.369 -0.673,-0.254 -0.186,0.084 -0.296,0.266 -0.299,0.457"
         style="fill:#f48c6a;fill-opacity:1;fill-rule:nonzero;stroke:none;stroke-width:0.1"
         id="path575433" />
      <path
         d="m -343.18025,325.82888 c -0.009,0.647 0.098,1.079 0.102,1.093 0.071,0.272 0.349,0.434 0.621,0.363 0.271,-0.072 0.43,-0.35 0.363,-0.62 -0.044,-0.172 -0.927,-3.935 4.195,-5.38 0.27,-0.077 0.429,-0.357 0.351,-0.628 -0.076,-0.27 -0.357,-0.427 -0.628,-0.351 -4.307,1.216 -4.984,3.98 -5.004,5.523"
         style="fill:#f48c6a;fill-opacity:1;fill-rule:nonzero;stroke:none;stroke-width:0.1"
         id="path575435" />
      <path
         d="m -321.14325,340.16488 c 0,0.057 0.009,0.115 0.029,0.173 0.986,2.844 3.993,3.759 4.12,3.796 0.269,0.08 0.551,-0.074 0.631,-0.343 0.08,-0.269 -0.074,-0.551 -0.343,-0.631 -0.026,-0.008 -2.635,-0.813 -3.448,-3.155 -0.092,-0.266 -0.381,-0.406 -0.647,-0.314 -0.208,0.072 -0.339,0.266 -0.342,0.474"
         style="fill:#f48c6a;fill-opacity:1;fill-rule:nonzero;stroke:none;stroke-width:0.1"
         id="path575437" />
      <path
         d="m -337.01625,337.93688 c -10e-4,0.131 0.047,0.262 0.145,0.362 0.197,0.201 0.519,0.204 0.719,0.008 0.051,-0.049 5.103,-4.92 10.718,-3.744 0.274,0.058 0.544,-0.118 0.601,-0.393 0.059,-0.279 -0.119,-0.544 -0.393,-0.602 -6.153,-1.288 -11.417,3.796 -11.638,4.013 -0.1,0.098 -0.15,0.227 -0.152,0.356"
         style="fill:#f48c6a;fill-opacity:1;fill-rule:nonzero;stroke:none;stroke-width:0.1"
         id="path575439" />
      <path
         d="m -317.61725,348.12688 c -0.005,0.336 0.042,0.676 0.14,1.018 0.794,2.777 4.759,4.727 4.927,4.808 0.252,0.123 0.556,0.017 0.679,-0.235 0.124,-0.252 0.017,-0.557 -0.235,-0.679 -0.037,-0.018 -3.726,-1.835 -4.394,-4.175 -0.204,-0.72 -0.096,-1.404 0.335,-2.088 0.151,-0.238 0.077,-0.551 -0.16,-0.701 -0.237,-0.15 -0.551,-0.079 -0.7,0.159 -0.386,0.612 -0.584,1.246 -0.592,1.893"
         style="fill:#f48c6a;fill-opacity:1;fill-rule:nonzero;stroke:none;stroke-width:0.1"
         id="path575441" />
      <path
         d="m -305.59225,346.37088 c -1.223,-0.593 -2.695,-0.082 -3.288,1.14 -0.593,1.223 -0.082,2.695 1.141,3.288 1.222,0.593 2.694,0.082 3.287,-1.141 0.593,-1.222 0.083,-2.694 -1.14,-3.287"
         style="fill:#f5c767;fill-opacity:1;fill-rule:nonzero;stroke:none;stroke-width:0.1"
         id="path575443" />
      <path
         d="m -307.04125,335.82388 c -1.223,-0.593 -2.695,-0.082 -3.288,1.141 -0.593,1.222 -0.082,2.694 1.141,3.287 1.222,0.593 2.694,0.082 3.287,-1.14 0.593,-1.223 0.082,-2.695 -1.14,-3.288"
         style="fill:#f5c767;fill-opacity:1;fill-rule:nonzero;stroke:none;stroke-width:0.1"
         id="path575445" />
      <path
         d="m -322.36525,324.56588 c -1.223,-0.593 -2.694,-0.082 -3.287,1.141 -0.593,1.222 -0.083,2.694 1.14,3.287 1.223,0.593 2.695,0.082 3.288,-1.14 0.592,-1.223 0.082,-2.695 -1.141,-3.288"
         style="fill:#f5c767;fill-opacity:1;fill-rule:nonzero;stroke:none;stroke-width:0.1"
         id="path575447" />
      <path
         d="m -321.82825,332.48288 c -1.223,-0.593 -2.695,-0.082 -3.287,1.14 -0.594,1.223 -0.083,2.695 1.14,3.288 1.223,0.593 2.695,0.082 3.287,-1.141 0.593,-1.222 0.083,-2.694 -1.14,-3.287"
         style="fill:#f5c767;fill-opacity:1;fill-rule:nonzero;stroke:none;stroke-width:0.1"
         id="path575449" />
      <path
         d="m -336.33425,352.24788 c -1.222,-0.594 -2.694,-0.083 -3.287,1.14 -0.593,1.223 -0.082,2.695 1.14,3.287 1.223,0.593 2.695,0.083 3.288,-1.14 0.593,-1.223 0.082,-2.694 -1.141,-3.287"
         style="fill:#f5c767;fill-opacity:1;fill-rule:nonzero;stroke:none;stroke-width:0.1"
         id="path575451" />
      <path
         d="m -322.21725,354.71588 c -1.223,-0.592 -2.695,-0.082 -3.288,1.141 -0.593,1.223 -0.082,2.695 1.141,3.288 1.222,0.592 2.694,0.082 3.287,-1.141 0.593,-1.223 0.082,-2.694 -1.14,-3.288"
         style="fill:#f5c767;fill-opacity:1;fill-rule:nonzero;stroke:none;stroke-width:0.1"
         id="path575453" />
      <path
         d="m -347.53925,346.52188 c -0.019,1.428 0.309,2.408 0.34,2.497 0.091,0.265 0.38,0.405 0.645,0.314 0.265,-0.091 0.405,-0.381 0.316,-0.646 -0.061,-0.177 -1.429,-4.359 2.409,-8.085 0.201,-0.195 0.207,-0.516 0.01,-0.719 -0.195,-0.201 -0.517,-0.206 -0.718,-0.01 -2.406,2.336 -2.979,4.848 -3.002,6.649"
         style="fill:#f48c6a;fill-opacity:1;fill-rule:nonzero;stroke:none;stroke-width:0.1"
         id="path575455" />
      <path
         d="m -343.30925,345.27688 c -0.002,0.09 0.021,0.181 0.07,0.264 0.142,0.242 0.453,0.322 0.695,0.18 2.664,-1.566 4.785,0.827 4.874,0.929 0.184,0.212 0.505,0.234 0.717,0.051 0.213,-0.184 0.235,-0.506 0.051,-0.717 -0.945,-1.09 -3.448,-2.73 -6.156,-1.139 -0.159,0.093 -0.249,0.26 -0.251,0.432"
         style="fill:#f48c6a;fill-opacity:1;fill-rule:nonzero;stroke:none;stroke-width:0.1"
         id="path575457" />
      <path
         d="m -332.40425,350.48688 c -0.032,2.461 1.913,4.042 1.94,4.064 0.22,0.174 0.538,0.138 0.713,-0.082 0.174,-0.219 0.138,-0.538 -0.08,-0.713 -0.129,-0.104 -3.12,-2.569 -0.435,-6.112 0.17,-0.224 0.126,-0.543 -0.098,-0.713 -0.224,-0.169 -0.542,-0.125 -0.712,0.098 -0.964,1.271 -1.315,2.439 -1.328,3.458"
         style="fill:#f48c6a;fill-opacity:1;fill-rule:nonzero;stroke:none;stroke-width:0.1"
         id="path575459" />
      <path
         d="m -453.24725,361.27888 c -9.138,-3.258 3.923,-10.653 5.67,-11.607 1.22,-2.906 3.182,-5.355 5.709,-7.514 -3.121,1.402 -11.466,4.64 -11.261,-0.909 0.341,-9.228 10.474,-1.248 12.172,0.156 2.804,-2.21 6.204,-4.126 9.982,-5.954 -3.802,0.56 -11.299,1.082 -9.827,-3.839 2.558,-8.556 9.941,0.762 11.594,3.001 2.59,-1.202 5.323,-2.381 8.15,-3.597 1.214,-0.521 2.436,-1.049 3.662,-1.582 -3.51,0.625 -14.181,2.053 -12.337,-4.115 3.028,-10.124 12.059,1.985 13.288,3.7 4.143,-1.819 8.306,-3.761 12.305,-6.01 -3.738,0.638 -16.707,2.397 -14.527,-4.369 3.468,-10.762 13.772,1.93 15.32,3.923 0.115,-0.066 0.233,-0.129 0.347,-0.196 3.754,-2.186 6.477,-4.305 8.447,-6.282 -4.842,0.866 -14.403,1.974 -12.832,-3.161 2.505,-8.189 11.169,-1.356 14.34,1.503 5.009,-6.074 2.996,-10.471 2.873,-10.726 l 0.764,-0.38 0.762,-0.384 c 0.05,0.099 0.36,0.743 0.543,1.814 0.355,2.065 0.234,5.718 -3.115,10.105 2.641,2.144 12.224,10.658 0.862,12.829 -8.85,1.691 -6.364,-5.06 -3.859,-9.566 -1.986,1.843 -4.568,3.767 -7.926,5.723 -0.148,0.086 -0.299,0.166 -0.447,0.251 2.472,2.635 11.8,13.454 0.109,15.206 -11.003,1.65 -4.301,-10.172 -1.625,-14.352 -3.792,2.083 -7.701,3.897 -11.588,5.605 2.306,2.685 9.891,12.432 -0.039,14.041 -9.545,1.547 -3.691,-9.544 -1.385,-13.42 -1.094,0.475 -2.185,0.945 -3.269,1.411 -2.796,1.202 -5.498,2.367 -8.052,3.552 1.911,2.201 9.046,11.143 0.072,12.597 -8.63,1.399 -3.085,-8.841 -1.121,-12.106 -3.938,1.87 -7.466,3.814 -10.323,6.049 2.677,1.876 11.111,8.467 3.016,12.026 -7.703,3.388 -5.4,-6.955 -4.251,-10.994 -2.443,2.15 -4.291,4.572 -5.308,7.457 l -0.745,-0.262 c 0.69,3.626 1.829,13.22 -6.15,10.376"
         style="fill:#d9da9b;fill-opacity:1;fill-rule:nonzero;stroke:none;stroke-width:0.1"
         id="path575461" />
      <path
         d="m -371.29025,301.71888 c 0,0 28.102,-2.779 29.674,-23.939 1.573,-21.1599 -8.764,-35.5201 -8.764,-35.5201 0,0 -19.461,3.5313 -26.816,22.6469 -7.355,19.1172 5.906,36.8122 5.906,36.8122"
         style="fill:#608a70;fill-opacity:1;fill-rule:nonzero;stroke:none;stroke-width:0.1"
         id="path575463" />
      <g
         id="g575465"
         transform="matrix(0.1,0,0,0.1,-641.46625,171.14888)">
        <g
           id="g575467"
           clip-path="url(#clipPath575471)">
          <path
             d="m 2904.74,719.949 c 0,0 -178.44,465.321 -202.98,585.751"
             style="fill:none;stroke:#cfd7d0;stroke-width:11.4105;stroke-linecap:butt;stroke-linejoin:miter;stroke-miterlimit:10;stroke-dasharray:none;stroke-opacity:1"
             id="path575473" />
          <path
             d="m 2959.66,1235.71 -232.69,-4.17 -150.3,-189.2"
             style="fill:none;stroke:#cfd7d0;stroke-width:11.4105;stroke-linecap:butt;stroke-linejoin:miter;stroke-miterlimit:10;stroke-dasharray:none;stroke-opacity:1"
             id="path575475" />
          <path
             d="m 2976.02,1155.43 -232.7,-4.17 -150.29,-189.201"
             style="fill:none;stroke:#cfd7d0;stroke-width:11.4105;stroke-linecap:butt;stroke-linejoin:miter;stroke-miterlimit:10;stroke-dasharray:none;stroke-opacity:1"
             id="path575477" />
          <path
             d="m 2999.86,1073.8 -232.69,-4.17 -150.3,-189.208"
             style="fill:none;stroke:#cfd7d0;stroke-width:11.4105;stroke-linecap:butt;stroke-linejoin:miter;stroke-miterlimit:10;stroke-dasharray:none;stroke-opacity:1"
             id="path575479" />
          <path
             d="m 3017.58,1001 -232.69,-4.168 -150.3,-189.211"
             style="fill:none;stroke:#cfd7d0;stroke-width:11.4105;stroke-linecap:butt;stroke-linejoin:miter;stroke-miterlimit:10;stroke-dasharray:none;stroke-opacity:1"
             id="path575481" />
          <path
             d="m 3048.91,918 -232.69,-4.172 -150.3,-189.199"
             style="fill:none;stroke:#cfd7d0;stroke-width:11.4105;stroke-linecap:butt;stroke-linejoin:miter;stroke-miterlimit:10;stroke-dasharray:none;stroke-opacity:1"
             id="path575483" />
          <path
             d="m 3082.95,849.969 -232.69,-4.16 -150.3,-189.207"
             style="fill:none;stroke:#cfd7d0;stroke-width:11.4105;stroke-linecap:butt;stroke-linejoin:miter;stroke-miterlimit:10;stroke-dasharray:none;stroke-opacity:1"
             id="path575485" />
        </g>
      </g>
      <path
         d="m -356.55625,317.07088 c 0,0 22.842,13.739 35.45,-0.133 12.608,-13.872 12.503,-29.648 12.503,-29.648 0,0 -16.685,-8.394 -32.583,0.828 -15.898,9.222 -15.37,28.953 -15.37,28.953"
         style="fill:#608a70;fill-opacity:1;fill-rule:nonzero;stroke:none;stroke-width:0.1"
         id="path575487" />
      <g
         id="g575489"
         transform="matrix(0.1,0,0,0.1,-641.46625,171.14888)">
        <g
           id="g575491"
           clip-path="url(#clipPath575495)">
          <path
             d="m 3319.21,1164.16 c 0,0 -386.52,224.82 -470.11,295.06"
             style="fill:none;stroke:#cfd7d0;stroke-width:10.3974;stroke-linecap:butt;stroke-linejoin:miter;stroke-miterlimit:10;stroke-dasharray:none;stroke-opacity:1"
             id="path575497" />
          <path
             d="m 3082.72,1554.3 -174.49,-132.71 -12.09,-215.72"
             style="fill:none;stroke:#cfd7d0;stroke-width:10.3974;stroke-linecap:butt;stroke-linejoin:miter;stroke-miterlimit:10;stroke-dasharray:none;stroke-opacity:1"
             id="path575499" />
          <path
             d="m 3138.45,1507.47 -174.49,-132.71 -12.1,-215.72"
             style="fill:none;stroke:#cfd7d0;stroke-width:10.3974;stroke-linecap:butt;stroke-linejoin:miter;stroke-miterlimit:10;stroke-dasharray:none;stroke-opacity:1"
             id="path575501" />
          <path
             d="m 3200.6,1463.86 -174.49,-132.7 -12.1,-215.73"
             style="fill:none;stroke:#cfd7d0;stroke-width:10.3974;stroke-linecap:butt;stroke-linejoin:miter;stroke-miterlimit:10;stroke-dasharray:none;stroke-opacity:1"
             id="path575503" />
          <path
             d="m 3253.32,1423 -174.49,-132.7 -12.1,-215.72"
             style="fill:none;stroke:#cfd7d0;stroke-width:10.3974;stroke-linecap:butt;stroke-linejoin:miter;stroke-miterlimit:10;stroke-dasharray:none;stroke-opacity:1"
             id="path575505" />
          <path
             d="M 3321.88,1382.63 3147.39,1249.92 3135.3,1034.2"
             style="fill:none;stroke:#cfd7d0;stroke-width:10.3974;stroke-linecap:butt;stroke-linejoin:miter;stroke-miterlimit:10;stroke-dasharray:none;stroke-opacity:1"
             id="path575507" />
          <path
             d="m 3384.43,1354.2 -174.48,-132.7 -12.1,-215.73"
             style="fill:none;stroke:#cfd7d0;stroke-width:10.3974;stroke-linecap:butt;stroke-linejoin:miter;stroke-miterlimit:10;stroke-dasharray:none;stroke-opacity:1"
             id="path575509" />
        </g>
      </g>
      <path
         d="m -335.77325,392.25788 c 0,0 14.928,7.646 20.79,21.956 5.861,14.31 7.281,22.575 7.281,22.575 0,0 -27.853,-28.402 -28.071,-44.531"
         style="fill:#c1bd6f;fill-opacity:1;fill-rule:nonzero;stroke:none;stroke-width:0.1"
         id="path575511" />
      <path
         d="m -354.90325,338.58888 c 0,0 -2.37,27.58 32.61,75.179"
         style="fill:none;stroke:#608a70;stroke-width:1.44026;stroke-linecap:round;stroke-linejoin:round;stroke-miterlimit:10;stroke-dasharray:none;stroke-opacity:1"
         id="path575513" />
      <path
         d="m -343.47325,378.01388 c 0,0 5.874,12.071 0.269,29.291 -5.604,17.219 -9.695,16.296 -9.695,16.296 0,0 1.048,-42.749 9.426,-45.587"
         style="fill:#c1bd6f;fill-opacity:1;fill-rule:nonzero;stroke:none;stroke-width:0.1"
         id="path575515" />
      <path
         d="m -312.17925,395.86288 c 0,0 -10.258,-25.042 -25.387,-31.378 -15.128,-6.336 -12.707,-4.624 -12.707,-4.624 0,0 24.585,36.621 38.094,36.002"
         style="fill:#c1bd6f;fill-opacity:1;fill-rule:nonzero;stroke:none;stroke-width:0.1"
         id="path575517" />
      <path
         d="m -353.35925,349.32888 c 0,0 4.706,17.486 -6.673,30.503 -11.378,13.016 -11.378,13.016 -11.378,13.016 0,0 3.141,-33.725 18.051,-43.519"
         style="fill:#c1bd6f;fill-opacity:1;fill-rule:nonzero;stroke:none;stroke-width:0.1"
         id="path575519" />
      <path
         d="m -343.47325,378.01388 c 0,0 -1.381,31.971 -8.349,44.656"
         style="fill:none;stroke:#608a70;stroke-width:1.44026;stroke-linecap:round;stroke-linejoin:round;stroke-miterlimit:10;stroke-dasharray:none;stroke-opacity:1"
         id="path575521" />
      <path
         d="m -321.74125,386.01788 c 0,0 -20.49,-23.923 -27.421,-24.646"
         style="fill:none;stroke:#608a70;stroke-width:1.44026;stroke-linecap:round;stroke-linejoin:round;stroke-miterlimit:10;stroke-dasharray:none;stroke-opacity:1"
         id="path575523" />
      <path
         d="m -353.35925,349.32888 c 0,0 -9.18,18.383 -10.783,28.868"
         style="fill:none;stroke:#608a70;stroke-width:1.44026;stroke-linecap:round;stroke-linejoin:round;stroke-miterlimit:10;stroke-dasharray:none;stroke-opacity:1"
         id="path575525" />
      <path
         d="m -446.21425,297.15088 c 0,0 -16.055,4.853 -30.205,-1.383 -14.151,-6.236 -20.909,-11.202 -20.909,-11.202 0,0 39.765,1.122 51.114,12.585"
         style="fill:#c1bd6f;fill-opacity:1;fill-rule:nonzero;stroke:none;stroke-width:0.1"
         id="path575527" />
      <path
         d="m -395.19725,322.52088 c 0,0 -17.432,-21.504 -75.649,-31.504"
         style="fill:none;stroke:#608a70;stroke-width:1.44026;stroke-linecap:round;stroke-linejoin:round;stroke-miterlimit:10;stroke-dasharray:none;stroke-opacity:1"
         id="path575529" />
      <path
         d="m -430.78525,302.06488 c 0,0 -12.606,-4.617 -20.52,-20.905 -7.913,-16.288 -4.328,-18.4622 -4.328,-18.4622 0,0 28.911,31.5092 24.848,39.3672"
         style="fill:#c1bd6f;fill-opacity:1;fill-rule:nonzero;stroke:none;stroke-width:0.1"
         id="path575531" />
      <path
         d="m -465.70425,310.92688 c 0,0 24.763,10.914 40.053,4.977 15.29,-5.936 12.359,-5.488 12.359,-5.488 0,0 -43.114,-9.308 -52.412,0.511"
         style="fill:#c1bd6f;fill-opacity:1;fill-rule:nonzero;stroke:none;stroke-width:0.1"
         id="path575533" />
      <path
         d="m -403.76225,315.85888 c 0,0 -15.522,-9.326 -16.362,-26.595 -0.839,-17.268 -0.839,-17.268 -0.839,-17.268 0,0 21.141,26.464 17.201,43.863"
         style="fill:#c1bd6f;fill-opacity:1;fill-rule:nonzero;stroke:none;stroke-width:0.1"
         id="path575535" />
      <path
         d="m -430.78525,302.06488 c 0,0 -21.192,-23.979 -24.976,-37.9488"
         style="fill:none;stroke:#608a70;stroke-width:1.44026;stroke-linecap:round;stroke-linejoin:round;stroke-miterlimit:10;stroke-dasharray:none;stroke-opacity:1"
         id="path575537" />
      <path
         d="m -451.98825,311.38088 c 0,0 31.354,3.007 36.848,-1.282"
         style="fill:none;stroke:#608a70;stroke-width:1.44026;stroke-linecap:round;stroke-linejoin:round;stroke-miterlimit:10;stroke-dasharray:none;stroke-opacity:1"
         id="path575539" />
      <path
         d="m -403.76225,315.85888 c 0,0 -6.145,-19.607 -12.268,-28.269"
         style="fill:none;stroke:#608a70;stroke-width:1.44026;stroke-linecap:round;stroke-linejoin:round;stroke-miterlimit:10;stroke-dasharray:none;stroke-opacity:1"
         id="path575541" />
      <path
         d="m -375.01225,333.18088 c -14.465,9.646 -7.835,32.915 3.406,33.608 11.241,0.693 7.22,-3.305 11.011,-10.276 0.325,-0.597 9.836,6.124 11.724,-4.466 1.887,-10.591 -13.988,-26.971 -26.141,-18.866"
         style="fill:#f5c767;fill-opacity:1;fill-rule:nonzero;stroke:none;stroke-width:0.1"
         id="path575543" />
      <path
         d="m -373.08425,356.69088 c -0.577,-2.082 -1.122,-4.166 -1.529,-6.276 -0.437,-2.101 -0.773,-4.22 -0.961,-6.337 -0.155,-2.111 -0.21,-4.253 0.251,-6.249 0.228,-0.989 0.571,-1.945 1.133,-2.718 0.551,-0.776 1.328,-1.348 2.218,-1.63 1.782,-0.624 3.796,0.19 5.456,1.365 1.702,1.173 3.175,2.726 4.569,4.327 2.745,3.258 5.159,6.84 7.371,10.545 -1.746,-3.952 -3.873,-7.76 -6.549,-11.217 -1.337,-1.726 -2.836,-3.36 -4.643,-4.704 -0.91,-0.661 -1.917,-1.236 -3.047,-1.585 -1.121,-0.35 -2.408,-0.414 -3.579,-0.024 -1.163,0.377 -2.193,1.162 -2.878,2.152 -0.692,0.987 -1.086,2.107 -1.308,3.219 -0.431,2.237 -0.328,4.465 -0.046,6.633 0.59,4.339 1.878,8.513 3.542,12.499"
         style="fill:#f3ac9b;fill-opacity:1;fill-rule:nonzero;stroke:none;stroke-width:0.1"
         id="path575545" />
      <path
         d="m -366.62525,354.78288 c -1.548,-3.217 -3.045,-6.449 -4.377,-9.722 -0.639,-1.643 -1.271,-3.296 -1.659,-4.97 -0.188,-0.829 -0.346,-1.685 -0.276,-2.429 0.065,-0.78 0.393,-1.136 0.897,-1.07 0.549,0.061 1.256,0.605 1.83,1.179 0.593,0.591 1.13,1.271 1.655,1.963 1.047,1.392 1.972,2.898 2.891,4.409 1.799,3.048 3.507,6.172 5.174,9.329 -1.184,-3.371 -2.58,-6.67 -4.248,-9.848 -0.822,-1.596 -1.742,-3.145 -2.774,-4.646 -0.528,-0.745 -1.097,-1.467 -1.756,-2.145 -0.333,-0.336 -0.682,-0.666 -1.104,-0.953 -0.399,-0.294 -0.908,-0.551 -1.519,-0.64 -0.627,-0.104 -1.36,0.184 -1.776,0.69 -0.423,0.51 -0.568,1.114 -0.592,1.616 -0.071,1.037 0.118,1.959 0.351,2.854 0.492,1.779 1.169,3.454 1.935,5.082 1.522,3.257 3.343,6.343 5.348,9.301"
         style="fill:#f3ac9b;fill-opacity:1;fill-rule:nonzero;stroke:none;stroke-width:0.1"
         id="path575547" />
      <path
         d="m -367.30325,324.18288 c 1.927,17.28 25.643,22.074 31.419,12.406 5.777,-9.668 0.379,-7.932 -4.072,-14.5 -0.382,-0.563 9.956,-5.926 1.415,-12.466 -8.542,-6.54 -30.382,0.042 -28.762,14.56"
         style="fill:#f5c767;fill-opacity:1;fill-rule:nonzero;stroke:none;stroke-width:0.1"
         id="path575549" />
      <path
         d="m -345.53325,333.26488 c -2.114,-0.443 -4.216,-0.916 -6.277,-1.523 -2.067,-0.577 -4.104,-1.251 -6.071,-2.056 -1.945,-0.832 -3.875,-1.766 -5.436,-3.092 -0.775,-0.657 -1.465,-1.401 -1.895,-2.254 -0.436,-0.846 -0.587,-1.8 -0.429,-2.72 0.264,-1.87 1.912,-3.285 3.718,-4.219 1.823,-0.975 3.88,-1.569 5.941,-2.073 4.155,-0.942 8.446,-1.442 12.753,-1.706 -4.312,-0.263 -8.672,-0.122 -12.971,0.668 -2.148,0.394 -4.288,0.976 -6.312,1.965 -1.005,0.504 -1.978,1.134 -2.807,1.978 -0.825,0.835 -1.473,1.949 -1.665,3.168 -0.198,1.207 0.026,2.482 0.591,3.545 0.56,1.068 1.374,1.933 2.259,2.64 1.789,1.41 3.815,2.342 5.871,3.087 4.126,1.468 8.425,2.241 12.73,2.592"
         style="fill:#f3ac9b;fill-opacity:1;fill-rule:nonzero;stroke:none;stroke-width:0.1"
         id="path575551" />
      <path
         d="m -344.26225,326.65088 c -3.568,-0.102 -7.127,-0.256 -10.646,-0.575 -1.753,-0.187 -3.512,-0.384 -5.178,-0.809 -0.822,-0.213 -1.654,-0.466 -2.283,-0.87 -0.664,-0.416 -0.829,-0.87 -0.539,-1.287 0.306,-0.46 1.114,-0.839 1.887,-1.085 0.797,-0.256 1.648,-0.42 2.503,-0.569 1.719,-0.291 3.481,-0.421 5.245,-0.544 3.533,-0.198 7.093,-0.281 10.663,-0.313 -3.538,-0.496 -7.11,-0.77 -10.699,-0.748 -1.796,-0.003 -3.594,0.103 -5.401,0.331 -0.903,0.127 -1.806,0.302 -2.711,0.576 -0.452,0.141 -0.905,0.3 -1.354,0.543 -0.444,0.219 -0.906,0.553 -1.266,1.056 -0.381,0.508 -0.461,1.292 -0.202,1.894 0.258,0.61 0.728,1.016 1.162,1.268 0.889,0.538 1.795,0.794 2.697,0.998 1.808,0.38 3.606,0.548 5.404,0.615 3.592,0.144 7.17,-0.058 10.718,-0.481"
         style="fill:#f3ac9b;fill-opacity:1;fill-rule:nonzero;stroke:none;stroke-width:0.1"
         id="path575553" />
      <path
         d="m -368.87025,319.71588 c 17.202,-2.528 21.168,-26.396 11.304,-31.833 -9.863,-5.436 -7.94,-0.101 -14.349,4.576 -0.55,0.401 -6.269,-9.744 -12.508,-0.98 -6.238,8.764 1.1,30.362 15.553,28.237"
         style="fill:#f5c767;fill-opacity:1;fill-rule:nonzero;stroke:none;stroke-width:0.1"
         id="path575555" />
      <path
         d="m -360.55125,297.64288 c -0.37,2.129 -0.769,4.245 -1.305,6.326 -0.504,2.086 -1.107,4.145 -1.842,6.139 -0.764,1.974 -1.631,3.934 -2.901,5.541 -0.63,0.796 -1.349,1.512 -2.188,1.972 -0.829,0.465 -1.778,0.649 -2.702,0.524 -1.878,-0.199 -3.35,-1.797 -4.347,-3.569 -1.037,-1.789 -1.703,-3.823 -2.277,-5.866 -1.087,-4.119 -1.736,-8.39 -2.15,-12.686 -0.113,4.319 0.18,8.671 1.119,12.941 0.469,2.132 1.125,4.25 2.183,6.239 0.539,0.987 1.203,1.937 2.076,2.736 0.862,0.796 1.999,1.405 3.224,1.554 1.213,0.156 2.479,-0.112 3.522,-0.714 1.047,-0.596 1.883,-1.44 2.56,-2.35 1.346,-1.837 2.207,-3.894 2.88,-5.975 1.323,-4.174 1.946,-8.497 2.148,-12.812"
         style="fill:#f3ac9b;fill-opacity:1;fill-rule:nonzero;stroke:none;stroke-width:0.1"
         id="path575557" />
      <path
         d="m -367.20625,296.60288 c 0.022,3.57 -0.008,7.132 -0.204,10.66 -0.126,1.759 -0.262,3.522 -0.628,5.203 -0.184,0.829 -0.408,1.669 -0.79,2.312 -0.393,0.678 -0.841,0.859 -1.268,0.584 -0.47,-0.29 -0.877,-1.085 -1.149,-1.85 -0.284,-0.786 -0.478,-1.631 -0.657,-2.481 -0.351,-1.707 -0.542,-3.464 -0.726,-5.222 -0.321,-3.525 -0.527,-7.079 -0.683,-10.647 -0.373,3.554 -0.523,7.133 -0.376,10.719 0.06,1.795 0.228,3.588 0.519,5.387 0.159,0.898 0.364,1.795 0.669,2.689 0.157,0.447 0.332,0.894 0.591,1.334 0.234,0.437 0.584,0.887 1.099,1.229 0.521,0.363 1.307,0.416 1.9,0.136 0.6,-0.28 0.99,-0.763 1.227,-1.206 0.506,-0.908 0.731,-1.821 0.903,-2.731 0.317,-1.818 0.423,-3.622 0.426,-5.421 0.019,-3.595 -0.307,-7.164 -0.853,-10.695"
         style="fill:#f3ac9b;fill-opacity:1;fill-rule:nonzero;stroke:none;stroke-width:0.1"
         id="path575559" />
      <path
         d="m -382.75725,330.36088 c -13.511,-10.943 -33.756,2.306 -31.075,13.245 2.681,10.939 5.302,5.91 13.085,7.457 0.667,0.133 -2.923,11.212 7.75,9.866 10.674,-1.346 21.592,-21.374 10.24,-30.568"
         style="fill:#f5c767;fill-opacity:1;fill-rule:nonzero;stroke:none;stroke-width:0.1"
         id="path575561" />
      <path
         d="m -404.63025,339.19188 c 1.816,-1.17 3.643,-2.31 5.537,-3.326 1.877,-1.041 3.799,-1.992 5.765,-2.801 1.969,-0.775 3.998,-1.465 6.041,-1.62 1.013,-0.075 2.027,-0.031 2.932,0.274 0.905,0.296 1.682,0.869 2.216,1.634 1.126,1.516 0.947,3.681 0.319,5.615 -0.614,1.974 -1.66,3.842 -2.773,5.648 -2.295,3.59 -4.997,6.96 -7.877,10.174 3.254,-2.842 6.258,-6.005 8.763,-9.588 1.251,-1.789 2.365,-3.706 3.111,-5.832 0.36,-1.066 0.61,-2.197 0.607,-3.38 0.001,-1.174 -0.32,-2.422 -1.041,-3.424 -0.706,-0.998 -1.762,-1.749 -2.911,-2.109 -1.148,-0.366 -2.335,-0.409 -3.462,-0.291 -2.264,0.253 -4.36,1.014 -6.346,1.928 -3.968,1.853 -7.57,4.324 -10.881,7.098"
         style="fill:#f3ac9b;fill-opacity:1;fill-rule:nonzero;stroke:none;stroke-width:0.1"
         id="path575563" />
      <path
         d="m -400.88725,344.79188 c 2.61,-2.434 5.251,-4.825 7.98,-7.07 1.379,-1.098 2.769,-2.193 4.252,-3.062 0.735,-0.426 1.505,-0.83 2.237,-0.985 0.764,-0.17 1.201,0.037 1.288,0.538 0.105,0.542 -0.204,1.379 -0.582,2.098 -0.387,0.741 -0.877,1.457 -1.381,2.163 -1.018,1.415 -2.181,2.745 -3.35,4.072 -2.375,2.623 -4.851,5.183 -7.37,7.713 2.867,-2.132 5.602,-4.446 8.141,-6.983 1.279,-1.26 2.485,-2.599 3.611,-4.03 0.554,-0.725 1.073,-1.484 1.525,-2.315 0.222,-0.418 0.433,-0.849 0.582,-1.338 0.162,-0.468 0.257,-1.03 0.159,-1.64 -0.086,-0.629 -0.579,-1.243 -1.187,-1.49 -0.612,-0.252 -1.232,-0.211 -1.718,-0.086 -1.011,0.242 -1.835,0.696 -2.621,1.185 -1.552,0.999 -2.951,2.142 -4.276,3.359 -2.658,2.42 -5.063,5.078 -7.29,7.871"
         style="fill:#f3ac9b;fill-opacity:1;fill-rule:nonzero;stroke:none;stroke-width:0.1"
         id="path575565" />
      <path
         d="m -379.37525,320.45488 c 5.186,-16.594 -14.598,-30.524 -23.776,-23.996 -9.178,6.528 -3.537,7.11 -2.104,14.913 0.123,0.67 -11.499,1.42 -6.31,10.844 5.19,9.423 27.833,12.183 32.19,-1.761"
         style="fill:#f5c767;fill-opacity:1;fill-rule:nonzero;stroke:none;stroke-width:0.1"
         id="path575567" />
      <path
         d="m -395.65425,303.38288 c 1.758,1.256 3.492,2.535 5.135,3.92 1.66,1.36 3.254,2.796 4.73,4.324 1.447,1.545 2.838,3.176 3.734,5.018 0.444,0.913 0.778,1.872 0.828,2.826 0.059,0.95 -0.187,1.884 -0.7,2.662 -0.995,1.606 -3.073,2.239 -5.102,2.368 -2.062,0.158 -4.184,-0.124 -6.273,-0.493 -4.183,-0.808 -8.313,-2.077 -12.363,-3.567 3.843,1.976 7.891,3.6 12.145,4.607 2.125,0.502 4.318,0.83 6.569,0.739 1.123,-0.057 2.267,-0.243 3.365,-0.682 1.092,-0.432 2.134,-1.192 2.799,-2.231 0.667,-1.025 0.975,-2.283 0.885,-3.483 -0.083,-1.203 -0.48,-2.322 -1.006,-3.326 -1.071,-2.011 -2.551,-3.679 -4.134,-5.187 -3.186,-3.004 -6.811,-5.441 -10.612,-7.495"
         style="fill:#f3ac9b;fill-opacity:1;fill-rule:nonzero;stroke:none;stroke-width:0.1"
         id="path575569" />
      <path
         d="m -399.47825,308.92788 c 3.226,1.529 6.423,3.101 9.516,4.809 1.53,0.876 3.06,1.764 4.415,2.823 0.667,0.526 1.327,1.093 1.741,1.715 0.44,0.648 0.409,1.13 -0.025,1.396 -0.465,0.297 -1.357,0.319 -2.164,0.233 -0.832,-0.086 -1.678,-0.277 -2.521,-0.485 -1.69,-0.425 -3.356,-1.015 -5.02,-1.612 -3.315,-1.24 -6.607,-2.596 -9.889,-4.004 3.04,1.878 6.2,3.566 9.495,4.99 1.643,0.724 3.332,1.351 5.078,1.869 0.878,0.247 1.775,0.45 2.714,0.564 0.47,0.053 0.949,0.089 1.458,0.047 0.495,-0.022 1.052,-0.142 1.583,-0.457 0.553,-0.313 0.942,-0.997 0.947,-1.653 0.009,-0.662 -0.258,-1.223 -0.554,-1.629 -0.597,-0.85 -1.324,-1.448 -2.068,-1.999 -1.501,-1.074 -3.08,-1.952 -4.699,-2.736 -3.231,-1.576 -6.588,-2.832 -10.007,-3.871"
         style="fill:#f3ac9b;fill-opacity:1;fill-rule:nonzero;stroke:none;stroke-width:0.1"
         id="path575571" />
      <path
         d="m -364.53325,332.42588 c -5.779,8.015 -16.03,5.739 -20.273,-0.7 -4.243,-6.438 5.23,-16.26 10.606,-16.176 5.376,0.084 17.022,6.677 9.667,16.876"
         style="fill:#ffffff;fill-opacity:1;fill-rule:nonzero;stroke:none;stroke-width:0.1"
         id="path575573" />
      <path
         d="m -374.30625,333.30688 c -0.94,0.779 3.841,3.38 5.431,1.405 1.591,-1.975 0.34,-3.946 0.34,-3.946 0,0 3.149,-0.094 3.925,-1.996 0.776,-1.901 -1.796,-3.817 -1.796,-3.817 0,0 2.24,-3.17 -0.042,-4.67 -2.282,-1.499 -3.747,-0.231 -3.747,-0.231 0,0 -1.09,-3.69 -3.859,-2.873 -2.768,0.818 -2.548,3.261 -2.548,3.261 0,0 -2.3,-0.993 -4.18,0.567 -1.881,1.558 -0.249,4.253 -0.249,4.253 0,0 -3.292,1.307 -2.981,4.058 0.31,2.751 4.508,1.678 4.508,1.678 0,0 -1.625,2.989 1.073,4.198 2.699,1.21 4.125,-1.887 4.125,-1.887"
         style="fill:#608a70;fill-opacity:1;fill-rule:nonzero;stroke:none;stroke-width:0.1"
         id="path575575" />
      <path
         d="m -378.56725,327.37488 c -0.059,2.191 2.235,3.405 4.426,3.464 2.192,0.06 4.292,-2.695 4.351,-4.886 0.059,-2.191 -2.066,-3.031 -4.257,-3.091 -2.191,-0.059 -4.461,2.322 -4.52,4.513"
         style="fill:#f5c767;fill-opacity:1;fill-rule:nonzero;stroke:none;stroke-width:0.1"
         id="path575577" />
      <path
         d="m -391.93625,274.16888 c 5.226,-2.237 5.3,-5.429 3.892,-6.7751 -0.726,-0.6937 -3.203,2.3403 -3.203,2.3403 0,0 1.646,-4.7403 -0.008,-5.7922 -1.652,-1.052 -3.411,0.0371 -3.202,2.341 0.21,2.3031 -0.964,3.9371 -0.964,3.9371 0,0 0.5,-4.9961 -1.157,-5.6301 -1.5,-0.5738 -4.282,-0.2121 -3.05,2.818 1.232,3.0308 3.668,4.886 3.668,4.886 0,0 -4.53,-5.3251 -6.367,-2.618 -1.522,2.242 2.229,3.677 3.968,4.175 1.739,0.497 -4.75,-0.853 -3.03,1.232 1.719,2.084 6.874,0.189 9.453,-0.914"
         style="fill:#ec8db7;fill-opacity:1;fill-rule:nonzero;stroke:none;stroke-width:0.1"
         id="path575579" />
      <path
         d="m -391.73125,269.03288 c 0.138,1.2148 0.263,2.412 0.185,3.553 -0.064,1.11 -0.434,2.264 -1.242,2.511 -0.362,0.141 -0.861,0.047 -1.351,-0.154 -0.504,-0.181 -0.987,-0.501 -1.473,-0.816 -0.964,-0.656 -1.883,-1.428 -2.833,-2.203 0.592,1.079 1.358,2.055 2.289,2.896 0.461,0.428 0.979,0.804 1.585,1.102 0.597,0.275 1.354,0.5 2.153,0.241 0.789,-0.29 1.283,-0.937 1.523,-1.604 0.226,-0.671 0.276,-1.337 0.227,-1.975 -0.091,-1.276 -0.48,-2.469 -1.063,-3.551"
         style="fill:#608a70;fill-opacity:1;fill-rule:nonzero;stroke:none;stroke-width:0.1"
         id="path575581" />
      <path
         d="m -393.35525,269.47898 c 0.002,1.166 0.114,2.3049 0.252,3.4349 l 0.218,1.679 c 0.038,0.27 0.078,0.563 0.085,0.787 0.014,0.109 -0.012,0.23 -0.009,0.206 0,0 0.063,-0.153 0.255,-0.202 0.173,-0.028 0.188,0.018 0.176,0.003 -0.085,-0.034 -0.312,-0.24 -0.477,-0.423 l -0.534,-0.613 -1.047,-1.317 c -0.698,-0.892 -1.396,-1.795 -2.166,-2.6639 0.388,1.0959 0.892,2.1309 1.459,3.1369 0.279,0.505 0.589,0.994 0.926,1.475 0.167,0.243 0.344,0.481 0.547,0.711 0.22,0.232 0.383,0.46 0.802,0.699 0.113,0.048 0.273,0.145 0.587,0.082 0.334,-0.085 0.491,-0.368 0.533,-0.502 0.09,-0.295 0.073,-0.466 0.063,-0.639 -0.025,-0.346 -0.076,-0.617 -0.125,-0.91 -0.11,-0.573 -0.244,-1.13 -0.393,-1.686 -0.302,-1.107 -0.663,-2.1982 -1.152,-3.2579"
         style="fill:#608a70;fill-opacity:1;fill-rule:nonzero;stroke:none;stroke-width:0.1"
         id="path575583" />
      <path
         d="m -392.23725,275.45788 c 0,0 11.795,14.227 7.055,23.05"
         style="fill:none;stroke:#608a70;stroke-width:1.1295;stroke-linecap:butt;stroke-linejoin:miter;stroke-miterlimit:10;stroke-dasharray:none;stroke-opacity:1"
         id="path575585" />
      <path
         d="m -410.07225,269.87588 c 4.421,-3.5731 3.625,-6.6649 1.904,-7.5782 -0.886,-0.4699 -2.446,3.1231 -2.446,3.1231 0,0 0.295,-5.009 -1.581,-5.5719 -1.877,-0.5629 -3.274,0.9629 -2.446,3.1219 0.827,2.1613 0.142,4.0523 0.142,4.0523 0,0 -0.877,-4.9441 -2.643,-5.1043 -1.6,-0.1437 -4.179,0.9602 -2.17,3.5422 2.01,2.5809 4.858,3.7039 4.858,3.7039 0,0 -5.806,-3.893 -6.839,-0.789 -0.855,2.571 3.144,2.933 4.953,2.939 1.81,0.006 -4.802,0.471 -2.581,2.009 2.221,1.538 6.667,-1.686 8.849,-3.448"
         style="fill:#ec8db7;fill-opacity:1;fill-rule:nonzero;stroke:none;stroke-width:0.1"
         id="path575587" />
      <path
         d="m -411.27125,264.87698 c 0.463,1.1321 0.908,2.25 1.144,3.3688 0.24,1.0871 0.197,2.2972 -0.513,2.7543 -0.309,0.2338 -0.816,0.2788 -1.342,0.2188 -0.534,-0.037 -1.086,-0.213 -1.639,-0.3848 -1.105,-0.368 -2.201,-0.861 -3.325,-1.3493 0.863,0.877 1.865,1.6082 2.99,2.1651 0.56,0.286 1.16,0.507 1.825,0.629 0.649,0.103 1.438,0.113 2.138,-0.354 0.679,-0.493 0.98,-1.2498 1.029,-1.9569 0.035,-0.707 -0.098,-1.3609 -0.318,-1.9621 -0.435,-1.2031 -1.133,-2.2461 -1.989,-3.1289"
         style="fill:#608a70;fill-opacity:1;fill-rule:nonzero;stroke:none;stroke-width:0.1"
         id="path575589" />
      <path
         d="m -412.71225,265.74768 c 0.319,1.1223 0.736,2.1883 1.176,3.2371 l 0.667,1.5571 c 0.109,0.25 0.227,0.5211 0.295,0.734 0.042,0.101 0.051,0.224 0.047,0.201 0,0 0.019,-0.165 0.19,-0.263 0.16,-0.0752 0.186,-0.035 0.171,-0.045 -0.091,-0.01 -0.366,-0.1458 -0.574,-0.2778 l -0.681,-0.4453 -1.365,-0.9821 c -0.914,-0.6699 -1.831,-1.3488 -2.808,-1.9757 0.67,0.9488 1.437,1.8089 2.255,2.6218 0.408,0.4102 0.838,0.7961 1.293,1.1691 0.226,0.187 0.461,0.369 0.72,0.535 0.275,0.164 0.493,0.339 0.961,0.455 0.122,0.015 0.302,0.065 0.588,-0.081 0.298,-0.172 0.372,-0.488 0.376,-0.628 0.006,-0.308 -0.056,-0.4688 -0.113,-0.6329 -0.118,-0.3261 -0.242,-0.5722 -0.368,-0.841 -0.261,-0.5211 -0.542,-1.0211 -0.836,-1.5152 -0.592,-0.984 -1.236,-1.936 -1.994,-2.8231"
         style="fill:#608a70;fill-opacity:1;fill-rule:nonzero;stroke:none;stroke-width:0.1"
         id="path575591" />
      <path
         d="m -410.01125,271.19688 c 0,0 5.27,6.646 10.272,10.222"
         style="fill:none;stroke:#608a70;stroke-width:1.1295;stroke-linecap:butt;stroke-linejoin:miter;stroke-miterlimit:10;stroke-dasharray:none;stroke-opacity:1"
         id="path575593" />
      <path
         d="m -393.08525,289.75888 c 4.645,-5.566 2.882,-9.236 0.503,-9.951 -1.225,-0.368 -2.285,4.513 -2.285,4.513 0,0 -0.873,-6.338 -3.36,-6.577 -2.487,-0.238 -3.855,2.016 -2.284,4.513 1.57,2.496 1.183,5.032 1.183,5.032 0,0 -2.324,-5.967 -4.573,-5.728 -2.037,0.216 -4.988,2.237 -1.835,4.968 3.153,2.729 6.996,3.428 6.996,3.428 0,0 -8.229,-3.428 -8.75,0.71 -0.433,3.428 4.66,2.888 6.924,2.447 2.264,-0.441 -5.89,1.78 -2.73,3.153 3.16,1.373 7.92,-3.762 10.211,-6.508"
         style="fill:#ec8db7;fill-opacity:1;fill-rule:nonzero;stroke:none;stroke-width:0.1"
         id="path575595" />
      <path
         d="m -395.82325,283.80388 c 0.859,1.301 1.694,2.589 2.267,3.931 0.569,1.299 0.816,2.823 0.041,3.571 -0.329,0.37 -0.952,0.552 -1.625,0.607 -0.677,0.086 -1.411,0.002 -2.145,-0.074 -1.474,-0.188 -2.966,-0.533 -4.494,-0.864 1.297,0.884 2.732,1.549 4.277,1.966 0.772,0.219 1.577,0.347 2.439,0.334 0.837,-0.032 1.827,-0.215 2.586,-0.972 0.728,-0.786 0.916,-1.807 0.801,-2.703 -0.13,-0.893 -0.459,-1.679 -0.884,-2.376 -0.842,-1.397 -1.974,-2.528 -3.263,-3.42"
         style="fill:#608a70;fill-opacity:1;fill-rule:nonzero;stroke:none;stroke-width:0.1"
         id="path575597" />
      <path
         d="m -397.41025,285.24988 c 0.677,1.325 1.464,2.555 2.274,3.758 l 1.221,1.782 c 0.197,0.285 0.413,0.594 0.551,0.844 0.078,0.117 0.119,0.269 0.108,0.241 -10e-4,-0.015 -0.005,-0.039 0.012,-0.122 0.016,-0.065 0.074,-0.19 0.161,-0.255 0.181,-0.133 0.224,-0.089 0.202,-0.098 -0.116,0.009 -0.494,-0.093 -0.787,-0.205 l -0.962,-0.389 c -0.648,-0.279 -1.294,-0.591 -1.951,-0.889 -1.309,-0.611 -2.625,-1.233 -4.003,-1.774 1.075,1.02 2.247,1.905 3.472,2.719 0.611,0.413 1.246,0.789 1.907,1.141 0.33,0.179 0.669,0.347 1.033,0.491 0.385,0.137 0.701,0.301 1.315,0.33 0.157,-0.011 0.394,0.008 0.715,-0.246 0.331,-0.289 0.345,-0.703 0.315,-0.879 -0.068,-0.387 -0.186,-0.572 -0.298,-0.763 -0.228,-0.379 -0.444,-0.657 -0.669,-0.962 -0.456,-0.587 -0.931,-1.142 -1.422,-1.687 -0.984,-1.084 -2.025,-2.115 -3.194,-3.037"
         style="fill:#608a70;fill-opacity:1;fill-rule:nonzero;stroke:none;stroke-width:0.1"
         id="path575599" />
      <path
         d="m -392.67925,291.39688 c 0,0 9.174,8.632 14.738,11.55"
         style="fill:none;stroke:#608a70;stroke-width:1.1295;stroke-linecap:butt;stroke-linejoin:miter;stroke-miterlimit:10;stroke-dasharray:none;stroke-opacity:1"
         id="path575601" />
      <path
         d="m -332.19725,393.42388 c -1.991,0.263 -9.157,-9.704 -13.027,-15.325 -0.082,0.046 -0.161,0.096 -0.243,0.139 2.375,5.674 6.175,15.673 4.023,16.943 -3.026,1.785 -4.244,-1.019 -4.244,-1.019 0,0 -0.835,4.645 -3.305,3.334 -1.621,-0.86 -1.81,-11.167 -1.748,-18.141 -0.018,-10e-4 -0.037,-0.002 -0.055,-0.003 -0.192,5.523 -0.741,13.942 -2.317,16.279 -2.399,3.56 -4.7,-3.498 -4.7,-3.498 0,0 -5.786,5.172 -5.004,-1.779 0.516,-4.585 3.466,-9.878 5.419,-12.959 -3.748,3.861 -8.737,8.609 -11.157,9.235 -4.159,1.074 -1.216,-5.73 -1.216,-5.73 0,0 -7.767,0.037 -2.581,-4.645 1.676,-1.514 4.741,-2.964 8.12,-4.234 -5.18,1.188 -10.015,1.63 -10.588,-0.653 -1.285,-5.117 2.734,-4.964 2.734,-4.964 0,0 -5.101,-4.315 -0.944,-5.389 2.337,-0.604 9.059,1.652 14.498,3.743 0.148,-0.259 0.306,-0.513 0.48,-0.76 -6.384,-3.705 -13.587,-8.478 -11.945,-10.334 2.844,-3.216 3.208,-2.421 3.208,-2.421 0,0 -1.021,-4.334 1.507,-4.046 1.47,0.168 7.228,6.712 11.789,12.158 -3.366,-6.353 -7.189,-14.468 -5.387,-15.548 3.015,-1.806 4.592,-0.276 4.592,-0.276 0,0 3.291,-2.508 5.769,-1.214 1.324,0.691 1.92,7.666 2.189,14.013 2.12,-4.749 4.888,-10.28 6.808,-11.623 3.518,-2.46 3.139,4.948 3.139,4.948 0,0 7.259,-2.749 4.038,3.455 -2.181,4.198 -7.026,8.176 -9.935,10.314 0,10e-4 0.001,10e-4 0.001,0.002 0.125,0.157 0.233,0.322 0.347,0.484 5.607,-4.424 14.773,-10.93 16.815,-7.959 2.989,4.349 -0.827,5.612 -0.827,5.612 0,0 6.283,2.262 2.765,4.722 -2.242,1.568 -11.04,1.659 -17.132,1.518 0.04,0.233 0.064,0.469 0.088,0.704 6.613,0.224 16.118,1.018 15.406,3.748 -1.082,4.157 -1.765,3.611 -1.765,3.611 0,0 2.867,3.41 0.485,4.295 -1.379,0.512 -8.938,-3.174 -15.07,-6.373 -0.183,0.377 -0.387,0.746 -0.62,1.102 4.871,2.962 15.483,9.774 14.382,12.26 -1.424,3.214 -4.041,1.635 -4.041,1.635 0,0 2.017,4.272 -0.751,4.639"
         style="fill:#9ec8cd;fill-opacity:1;fill-rule:nonzero;stroke:none;stroke-width:0.1"
         id="path575603" />
      <path
         d="m -363.61525,368.24688 c 4.101,1.602 8.392,2.502 12.714,3.115 4.325,0.542 8.747,0.781 13.092,0.062 -4.339,-0.661 -8.585,-1.198 -12.867,-1.784 -4.283,-0.549 -8.556,-1.132 -12.939,-1.393"
         style="fill:#608a70;fill-opacity:1;fill-rule:nonzero;stroke:none;stroke-width:0.1"
         id="path575605" />
      <path
         d="m -349.66925,356.04588 c -1.487,4.394 -2.147,9.021 -2.193,13.673 -0.003,2.326 0.173,4.674 0.707,6.971 0.513,2.275 1.377,4.59 2.973,6.317 -1.017,-2.094 -1.355,-4.331 -1.638,-6.545 -0.241,-2.225 -0.339,-4.476 -0.306,-6.736 -0.008,-2.259 0.073,-4.526 0.17,-6.802 l 0.287,-6.878"
         style="fill:#608a70;fill-opacity:1;fill-rule:nonzero;stroke:none;stroke-width:0.1"
         id="path575607" />
      <path
         d="m -360.42425,378.29988 c 4.236,-1.547 8.013,-4.179 11.27,-7.309 1.625,-1.574 3.071,-3.344 4.31,-5.242 1.268,-1.881 2.167,-4.001 2.808,-6.145 -1.261,1.869 -2.503,3.665 -3.905,5.345 -1.41,1.664 -2.84,3.304 -4.428,4.8 -1.55,1.532 -3.187,2.98 -4.862,4.401 -1.695,1.396 -3.402,2.798 -5.193,4.15"
         style="fill:#608a70;fill-opacity:1;fill-rule:nonzero;stroke:none;stroke-width:0.1"
         id="path575609" />
      <path
         d="m -358.31025,359.58488 c 1.791,4.192 4.473,7.933 7.529,11.301 1.541,1.676 3.227,3.226 5.031,4.621 1.789,1.415 3.784,2.57 5.848,3.507 -1.707,-1.51 -3.367,-2.986 -4.965,-4.534 -1.579,-1.565 -3.16,-3.116 -4.641,-4.771 -3.023,-3.255 -5.86,-6.669 -8.802,-10.124"
         style="fill:#608a70;fill-opacity:1;fill-rule:nonzero;stroke:none;stroke-width:0.1"
         id="path575611" />
      <path
         d="m -346.64525,358.45488 c -1.981,3.526 -3.409,7.266 -4.63,11.077 -0.579,1.916 -1.122,3.846 -1.497,5.827 -0.352,1.963 -0.749,4.02 -0.38,6.045 0.356,-1.976 1.098,-3.804 1.69,-5.697 l 1.844,-5.655 c 1.156,-3.799 2.284,-7.612 2.973,-11.597"
         style="fill:#608a70;fill-opacity:1;fill-rule:nonzero;stroke:none;stroke-width:0.1"
         id="path575613" />
      <path
         d="m -361.27325,373.04988 c 2.017,-0.035 4.003,-0.308 5.966,-0.674 1.966,-0.362 3.904,-0.853 5.818,-1.44 1.901,-0.622 3.793,-1.292 5.601,-2.18 1.807,-0.875 3.572,-1.89 5.096,-3.215 -3.76,1.396 -7.454,2.569 -11.218,3.737 -3.748,1.194 -7.519,2.31 -11.263,3.772"
         style="fill:#608a70;fill-opacity:1;fill-rule:nonzero;stroke:none;stroke-width:0.1"
         id="path575615" />
      <path
         d="m -354.87225,358.33188 c 0.511,4.108 1.664,8.059 3.114,11.907 0.767,1.909 1.574,3.81 2.628,5.606 0.523,0.9 1.066,1.788 1.742,2.604 0.625,0.82 1.438,1.602 2.375,2.038 -1.406,-1.503 -2.075,-3.415 -2.903,-5.242 -0.775,-1.854 -1.498,-3.743 -2.224,-5.631 -1.482,-3.77 -2.911,-7.569 -4.732,-11.282"
         style="fill:#608a70;fill-opacity:1;fill-rule:nonzero;stroke:none;stroke-width:0.1"
         id="path575617" />
      <path
         d="m -360.89525,364.23288 c 3.215,2.698 6.774,4.858 10.451,6.799 1.855,0.94 3.745,1.825 5.705,2.556 1.95,0.72 3.999,1.37 6.11,1.451 -1.94,-0.786 -3.733,-1.749 -5.562,-2.69 l -5.46,-2.86 c -3.667,-1.87 -7.338,-3.74 -11.244,-5.256"
         style="fill:#608a70;fill-opacity:1;fill-rule:nonzero;stroke:none;stroke-width:0.1"
         id="path575619" />
      <path
         d="m -351.94725,371.88088 c 0.921,-0.734 1.073,-2.078 0.338,-3.002 -0.734,-0.924 -2.078,-1.079 -3.001,-0.345 -0.921,0.733 -1.073,2.077 -0.338,3.001 0.734,0.925 2.078,1.079 3.001,0.346"
         style="fill:#ffffff;fill-opacity:1;fill-rule:nonzero;stroke:none;stroke-width:0.1"
         id="path575621" />
      <path
         d="m -348.60325,377.09488 c 0.923,-0.733 1.074,-2.077 0.339,-3.002 -0.735,-0.924 -2.078,-1.079 -3,-0.345 -0.923,0.734 -1.075,2.077 -0.34,3.002 0.736,0.924 2.079,1.078 3.001,0.345"
         style="fill:#ffffff;fill-opacity:1;fill-rule:nonzero;stroke:none;stroke-width:0.1"
         id="path575623" />
      <path
         d="m -347.14225,372.07588 c 0.923,-0.733 1.074,-2.077 0.34,-3.001 -0.736,-0.924 -2.079,-1.079 -3.001,-0.346 -0.923,0.734 -1.075,2.078 -0.34,3.002 0.736,0.924 2.079,1.079 3.001,0.345"
         style="fill:#ffffff;fill-opacity:1;fill-rule:nonzero;stroke:none;stroke-width:0.1"
         id="path575625" />
      <path
         d="m -343.99825,369.57588 c 0.922,-0.733 1.073,-2.077 0.339,-3.001 -0.735,-0.924 -2.079,-1.079 -3.001,-0.345 -0.923,0.733 -1.074,2.077 -0.339,3.001 0.735,0.924 2.078,1.079 3.001,0.345"
         style="fill:#ffffff;fill-opacity:1;fill-rule:nonzero;stroke:none;stroke-width:0.1"
         id="path575627" />
      <path
         d="m -343.49825,374.64188 c 0.923,-0.733 1.074,-2.077 0.339,-3.001 -0.735,-0.925 -2.078,-1.079 -3,-0.346 -0.923,0.734 -1.075,2.077 -0.34,3.002 0.736,0.924 2.079,1.079 3.001,0.345"
         style="fill:#ffffff;fill-opacity:1;fill-rule:nonzero;stroke:none;stroke-width:0.1"
         id="path575629" />
      <path
         d="m -348.54525,367.08588 c 0.922,-0.734 1.074,-2.078 0.339,-3.002 -0.735,-0.924 -2.078,-1.079 -3.001,-0.346 -0.922,0.734 -1.074,2.078 -0.339,3.002 0.735,0.924 2.079,1.079 3.001,0.346"
         style="fill:#ffffff;fill-opacity:1;fill-rule:nonzero;stroke:none;stroke-width:0.1"
         id="path575631" />
      <path
         d="m -388.95525,366.68688 c -9.823,-7.978 -21.022,-1.756 -21.135,-1.691 l 0.488,0.855 c 0.1,-0.057 9.313,-5.175 18.097,0.227 -6.79,-1.004 -17.033,2.786 -17.528,2.972 l 0.345,0.921 c 0.104,-0.039 8.092,-2.995 14.465,-3.074 -7.388,1.913 -17.84,8.942 -18.41,9.328 l 0.552,0.815 c 3.543,-2.4 11.642,-7.304 17.497,-9.036 -4.74,2.595 -10.591,7.604 -12.223,9.034 l 0.649,0.74 c 5.071,-4.445 12.366,-9.824 15.515,-10.373 -5.008,2.707 -15.633,14.091 -16.977,15.543 l 0.722,0.668 c 5.665,-6.117 14.802,-15.094 17.697,-15.74 0.054,0.106 0.101,0.217 0.128,0.349 -0.689,1.842 -5.169,7.302 -13.374,16.286 -1.152,1.263 -1.848,2.024 -2.036,2.27 l 0.781,0.598 c 0.162,-0.212 0.965,-1.091 1.982,-2.204 6.462,-7.077 10.343,-11.623 12.252,-14.423 -1.296,3.78 -5.215,9.819 -8.21,13.798 l 0.786,0.592 c 6.809,-9.047 8.499,-13.713 8.711,-16.051 1.597,5.494 -7.484,21.75 -7.576,21.914 l 0.858,0.482 c 0.352,-0.626 7.906,-14.165 7.874,-20.969 1.819,5.618 -1.659,16.842 -1.702,16.98 l 0.939,0.296 c 0.149,-0.475 2.467,-7.957 2.238,-13.942 -0.016,-0.427 -0.048,-0.843 -0.092,-1.251 3.534,8.149 -0.934,18.663 -0.991,18.791 l 0.902,0.393 c 0.044,-0.1 2.666,-6.253 2.41,-12.935 -0.13,-3.378 -1,-6.891 -3.307,-9.825 -0.375,-0.716 -0.86,-1.317 -1.481,-1.762 2.481,-2.086 12.759,-11.383 14.482,-23.594 l -0.975,-0.138 c -1.733,12.285 -12.437,21.581 -14.353,23.156"
         style="fill:#cfd7d0;fill-opacity:1;fill-rule:nonzero;stroke:none;stroke-width:0.1"
         id="path575723" />
      <path
         d="m -329.62425,277.09088 c 11.955,7.497 23.506,-0.911 23.622,-0.998 l -0.655,-0.88 c -0.103,0.077 -9.606,6.992 -20.061,2.206 7.651,0.189 18.474,-5.396 18.997,-5.669 l -0.507,-0.9729 c -0.11,0.0571 -8.551,4.4129 -15.593,5.3669 7.917,-3.12 18.531,-12.32 19.109,-12.8239 l -0.721,-0.8281 c -3.596,3.1371 -11.894,9.666 -18.138,12.377 4.893,-3.515 10.688,-9.854 12.301,-11.6591 l -0.819,-0.7308 c -5.009,5.6097 -12.354,12.5529 -15.764,13.5879 5.176,-3.675 15.389,-17.7188 16.68,-19.5078 l -0.89,-0.6422 c -5.439,7.541 -14.333,18.717 -17.45,19.825 -0.074,-0.109 -0.142,-0.226 -0.188,-0.369 0.511,-2.133 4.729,-8.7842 12.59,-19.8431 1.104,-1.5528 1.77,-2.4899 1.945,-2.7879 l -0.945,-0.5551 c -0.151,0.2562 -0.92,1.3383 -1.895,2.7082 -6.191,8.7098 -9.869,14.2687 -11.602,17.6279 0.921,-4.3611 4.439,-11.5771 7.214,-16.3881 l -0.951,-0.548 c -6.308,10.9391 -7.545,16.3321 -7.461,18.9481 -2.515,-5.863 5.329,-25.0899 5.408,-25.2829 l -1.015,-0.4172 c -0.304,0.7403 -6.826,16.752 -5.867,24.2781 -2.777,-5.971 -0.451,-18.866 -0.422,-19.0249 l -1.079,-0.2 c -0.101,0.5461 -1.651,9.1418 -0.584,15.7359 0.075,0.4691 0.168,0.9262 0.272,1.3719 -5.019,-8.541 -1.5,-20.784 -1.456,-20.934 l -1.051,-0.3117 c -0.035,0.1168 -2.102,7.2816 -0.911,14.6437 0.602,3.7211 2.042,7.4911 4.994,10.4261 0.512,0.742 1.131,1.341 1.879,1.749 -2.463,2.646 -12.577,14.332 -12.825,28.081 l 1.098,0.02 c 0.249,-13.832 10.835,-25.575 12.741,-27.579"
         style="fill:#cfd7d0;fill-opacity:1;fill-rule:nonzero;stroke:none;stroke-width:0.1"
         id="path575725" />
    </g>
    <g
       id="g576682"
       transform="translate(-284.51498,-27.101275)"
       inkscape:export-filename="../Documents/metashare/tema1/ilustrations/sambutan_flower4.svg"
       inkscape:export-xdpi="96"
       inkscape:export-ydpi="96">
      <path
         d="m -331.78396,540.98696 c -0.109,-0.043 -0.233,-0.05 -0.353,-0.009 -0.263,0.09 -26.4,9.252 -39.7033,34.465 -0.1309,0.248 -0.0359,0.555 0.2129,0.686 0.2504,0.133 0.5558,0.036 0.6867,-0.212 13.1167,-24.86 38.8737,-33.889 39.1317,-33.977 0.267,-0.091 0.408,-0.379 0.317,-0.645 -0.049,-0.146 -0.159,-0.255 -0.292,-0.308"
         style="fill:#f48c6a;fill-opacity:1;fill-rule:nonzero;stroke:none;stroke-width:0.1"
         id="path575633" />
      <path
         d="m -357.46696,555.08296 c -4.704,-1.877 -15.1471,2.464 -15.6378,2.671 -0.2589,0.108 -0.3804,0.406 -0.2714,0.665 0.1078,0.259 0.4054,0.38 0.6648,0.272 3.543,-1.49 13.3024,-4.753 15.8584,-2.02 0.193,0.205 0.514,0.214 0.718,0.023 0.205,-0.192 0.216,-0.514 0.024,-0.718 -0.363,-0.388 -0.823,-0.68 -1.356,-0.893"
         style="fill:#f48c6a;fill-opacity:1;fill-rule:nonzero;stroke:none;stroke-width:0.1"
         id="path575635" />
      <path
         d="m -361.34496,561.25596 c -0.125,-0.05 -0.269,-0.05 -0.401,0.01 -0.254,0.117 -0.366,0.419 -0.25,0.674 0.045,0.097 4.374,9.704 0.221,15.513 -0.164,0.229 -0.111,0.546 0.117,0.709 0.229,0.166 0.546,0.111 0.709,-0.117 4.499,-6.291 0.068,-16.114 -0.123,-16.529 -0.056,-0.123 -0.156,-0.213 -0.273,-0.26"
         style="fill:#f48c6a;fill-opacity:1;fill-rule:nonzero;stroke:none;stroke-width:0.1"
         id="path575637" />
      <path
         d="m -349.32996,545.83796 c -8.558,-3.414 -17.039,0.256 -17.137,0.3 -0.256,0.114 -0.372,0.414 -0.258,0.67 0.114,0.257 0.415,0.373 0.67,0.259 0.108,-0.047 10.814,-4.664 19.991,1.67 0.23,0.162 0.547,0.102 0.707,-0.13 0.159,-0.231 0.101,-0.548 -0.13,-0.707 -1.263,-0.872 -2.555,-1.548 -3.843,-2.062"
         style="fill:#f48c6a;fill-opacity:1;fill-rule:nonzero;stroke:none;stroke-width:0.1"
         id="path575639" />
      <path
         d="m -338.49496,543.90096 c -0.056,-0.023 -0.119,-0.036 -0.183,-0.037 -0.281,-0.002 -0.51,0.223 -0.513,0.503 -0.002,0.149 -0.227,14.892 -7.279,23.463 -0.178,0.217 -0.147,0.537 0.07,0.716 0.217,0.178 0.537,0.147 0.716,-0.07 7.282,-8.851 7.503,-23.48 7.509,-24.098 0.002,-0.217 -0.131,-0.402 -0.32,-0.477"
         style="fill:#f48c6a;fill-opacity:1;fill-rule:nonzero;stroke:none;stroke-width:0.1"
         id="path575641" />
      <path
         d="m -341.08296,559.13396 c -0.067,-0.026 -0.141,-0.039 -0.217,-0.035 -3.975,0.23 -6.561,2.613 -6.67,2.714 -0.204,0.192 -0.215,0.513 -0.024,0.718 0.193,0.206 0.513,0.215 0.719,0.024 0.024,-0.022 2.438,-2.233 6.033,-2.441 0.281,-0.016 0.495,-0.256 0.479,-0.537 -0.012,-0.203 -0.142,-0.372 -0.32,-0.443"
         style="fill:#f48c6a;fill-opacity:1;fill-rule:nonzero;stroke:none;stroke-width:0.1"
         id="path575643" />
      <path
         d="m -338.15696,551.45496 c -0.601,-0.239 -1.043,-0.294 -1.057,-0.296 -0.279,-0.03 -0.531,0.171 -0.561,0.45 -0.03,0.279 0.172,0.527 0.448,0.561 0.177,0.02 4.005,0.546 3.519,5.845 -0.025,0.28 0.179,0.528 0.459,0.553 0.28,0.025 0.528,-0.181 0.554,-0.46 0.408,-4.457 -1.929,-6.08 -3.362,-6.653"
         style="fill:#f48c6a;fill-opacity:1;fill-rule:nonzero;stroke:none;stroke-width:0.1"
         id="path575645" />
      <path
         d="m -359.43996,566.88896 c -0.054,-0.022 -0.112,-0.034 -0.172,-0.036 -3.01,-0.099 -4.941,2.38 -5.022,2.485 -0.17,0.223 -0.128,0.541 0.095,0.712 0.222,0.171 0.541,0.128 0.712,-0.093 0.017,-0.022 1.703,-2.169 4.182,-2.088 0.28,0.009 0.515,-0.211 0.524,-0.491 0.007,-0.221 -0.126,-0.412 -0.319,-0.489"
         style="fill:#f48c6a;fill-opacity:1;fill-rule:nonzero;stroke:none;stroke-width:0.1"
         id="path575647" />
      <path
         d="m -351.66996,552.86896 c -0.121,-0.048 -0.262,-0.05 -0.39,0.006 -0.258,0.112 -0.376,0.411 -0.265,0.668 0.028,0.066 2.763,6.527 -0.348,11.347 -0.152,0.236 -0.084,0.551 0.152,0.703 0.239,0.155 0.55,0.084 0.702,-0.151 3.409,-5.283 0.55,-12.019 0.426,-12.303 -0.055,-0.128 -0.157,-0.222 -0.277,-0.27"
         style="fill:#f48c6a;fill-opacity:1;fill-rule:nonzero;stroke:none;stroke-width:0.1"
         id="path575649" />
      <path
         d="m -368.13756,567.32496 c -0.3121,-0.125 -0.6461,-0.203 -1.0004,-0.234 -2.8769,-0.254 -6.1187,2.748 -6.255,2.875 -0.2051,0.192 -0.2157,0.514 -0.0239,0.719 0.191,0.206 0.5137,0.215 0.7188,0.024 0.0297,-0.029 3.0484,-2.821 5.4722,-2.605 0.745,0.067 1.345,0.413 1.8293,1.061 0.1672,0.226 0.486,0.27 0.7116,0.102 0.225,-0.168 0.271,-0.486 0.102,-0.711 -0.4331,-0.579 -0.9542,-0.991 -1.5546,-1.231"
         style="fill:#f48c6a;fill-opacity:1;fill-rule:nonzero;stroke:none;stroke-width:0.1"
         id="path575651" />
      <path
         d="m -370.80906,579.17996 c 0.9918,-0.929 1.0426,-2.486 0.1137,-3.478 -0.9285,-0.991 -2.4855,-1.043 -3.4777,-0.114 -0.9918,0.929 -1.043,2.486 -0.1141,3.478 0.9289,0.992 2.486,1.043 3.4781,0.114"
         style="fill:#f5c767;fill-opacity:1;fill-rule:nonzero;stroke:none;stroke-width:0.1"
         id="path575653" />
      <path
         d="m -360.44396,581.60896 c 0.992,-0.929 1.043,-2.486 0.114,-3.478 -0.929,-0.992 -2.486,-1.043 -3.478,-0.114 -0.992,0.929 -1.043,2.486 -0.114,3.478 0.929,0.992 2.486,1.042 3.478,0.114"
         style="fill:#f5c767;fill-opacity:1;fill-rule:nonzero;stroke:none;stroke-width:0.1"
         id="path575655" />
      <path
         d="m -344.44096,571.33996 c 0.992,-0.929 1.043,-2.486 0.114,-3.478 -0.929,-0.992 -2.486,-1.042 -3.478,-0.114 -0.991,0.929 -1.043,2.487 -0.113,3.478 0.928,0.992 2.485,1.043 3.477,0.114"
         style="fill:#f5c767;fill-opacity:1;fill-rule:nonzero;stroke:none;stroke-width:0.1"
         id="path575657" />
      <path
         d="m -352.02296,569.00296 c 0.991,-0.929 1.043,-2.486 0.113,-3.478 -0.928,-0.992 -2.485,-1.043 -3.478,-0.114 -0.991,0.929 -1.042,2.486 -0.113,3.478 0.928,0.992 2.485,1.043 3.478,0.114"
         style="fill:#f5c767;fill-opacity:1;fill-rule:nonzero;stroke:none;stroke-width:0.1"
         id="path575659" />
      <path
         d="m -365.27396,548.37596 c 0.992,-0.93 1.043,-2.486 0.114,-3.478 -0.929,-0.992 -2.4858,-1.043 -3.4776,-0.114 -0.9922,0.929 -1.0429,2.486 -0.1144,3.478 0.9293,0.992 2.486,1.042 3.478,0.114"
         style="fill:#f5c767;fill-opacity:1;fill-rule:nonzero;stroke:none;stroke-width:0.1"
         id="path575661" />
      <path
         d="m -372.63946,560.66796 c 0.9918,-0.929 1.0425,-2.486 0.1136,-3.478 -0.9285,-0.992 -2.4855,-1.043 -3.4781,-0.114 -0.9914,0.929 -1.0422,2.486 -0.1137,3.478 0.929,0.992 2.4864,1.043 3.4782,0.114"
         style="fill:#f5c767;fill-opacity:1;fill-rule:nonzero;stroke:none;stroke-width:0.1"
         id="path575663" />
      <path
         d="m -355.91096,539.96796 c -1.327,-0.53 -2.36,-0.575 -2.454,-0.579 -0.28,-0.009 -0.514,0.211 -0.524,0.49 -0.009,0.28 0.21,0.515 0.49,0.526 0.186,0.007 4.581,0.23 6.683,5.148 0.111,0.258 0.409,0.379 0.668,0.268 0.257,-0.11 0.377,-0.409 0.267,-0.668 -1.318,-3.083 -3.458,-4.518 -5.13,-5.185"
         style="fill:#f48c6a;fill-opacity:1;fill-rule:nonzero;stroke:none;stroke-width:0.1"
         id="path575665" />
      <path
         d="m -356.26596,544.36196 c -0.084,-0.033 -0.176,-0.044 -0.271,-0.028 -0.277,0.046 -0.464,0.307 -0.418,0.584 0.506,3.048 -2.487,4.17 -2.614,4.217 -0.264,0.095 -0.4,0.387 -0.305,0.651 0.096,0.264 0.388,0.401 0.651,0.305 1.356,-0.492 3.785,-2.241 3.27,-5.339 -0.029,-0.182 -0.153,-0.326 -0.313,-0.39"
         style="fill:#f48c6a;fill-opacity:1;fill-rule:nonzero;stroke:none;stroke-width:0.1"
         id="path575667" />
      <path
         d="m -365.03896,552.67496 c -2.2865,-0.912 -4.4595,0.336 -4.4904,0.354 -0.2406,0.143 -0.3207,0.454 -0.1789,0.695 0.1426,0.242 0.4535,0.322 0.6953,0.181 0.143,-0.083 3.517,-1.992 5.862,1.786 0.148,0.238 0.461,0.311 0.699,0.164 0.239,-0.149 0.312,-0.462 0.164,-0.701 -0.841,-1.355 -1.805,-2.102 -2.751,-2.479"
         style="fill:#f48c6a;fill-opacity:1;fill-rule:nonzero;stroke:none;stroke-width:0.1"
         id="path575669" />
      <path
         d="m -207.16396,585.06096 c -0.001,10.686 -12.503,-0.131 -14.138,-1.592 -3.467,-0.191 -6.734,-1.32 -9.907,-3.144 2.608,2.72 9.053,10.18 3.221,12.019 -9.701,3.059 -5.168,-10.406 -4.34,-12.686 -3.329,-2.092 -6.575,-4.911 -9.868,-8.155 1.987,3.738 5.301,11.323 -0.349,11.616 -9.822,0.51 -2.886,-10.596 -1.174,-13.139 -2.204,-2.242 -4.439,-4.641 -6.745,-7.125 -0.99,-1.067 -1.989,-2.14 -2.995,-3.214 1.946,3.41 7.374,13.953 0.292,14.32 -11.624,0.603 -2.399,-13.245 -1.075,-15.154 -3.419,-3.626 -6.973,-7.226 -10.784,-10.545 2.044,3.643 8.664,16.448 0.838,16.688 -12.449,0.382 -3.09,-15.002 -1.595,-17.345 -0.111,-0.095 -0.219,-0.194 -0.331,-0.288 -3.657,-3.086 -6.862,-5.128 -9.642,-6.44 2.689,4.702 7.375,14.213 1.466,14.482 -9.422,0.429 -5.538,-11.087 -3.743,-15.434 -8.154,-2.951 -11.972,0.763 -12.191,0.985 l -0.676,-0.653 -0.681,-0.647 c 0.084,-0.089 0.638,-0.649 1.681,-1.235 2.012,-1.131 5.847,-2.357 11.636,-0.505 1.248,-3.531 6.538,-16.622 12.991,-5.637 5.027,8.556 -2.896,8.474 -8.497,7.541 2.647,1.379 5.598,3.346 8.868,6.107 0.144,0.122 0.283,0.248 0.426,0.371 1.82,-3.539 9.595,-17.217 15.736,-5.736 5.781,10.805 -8.963,8.223 -14.289,6.992 3.563,3.165 6.89,6.55 10.099,9.951 1.933,-3.385 9.242,-14.859 14.583,-5.152 5.134,9.331 -8.537,7.359 -13.412,6.4 0.897,0.959 1.789,1.917 2.673,2.869 2.28,2.457 4.489,4.829 6.663,7.041 1.576,-2.797 8.216,-13.505 13.042,-4.733 4.642,8.437 -8.032,6.47 -12.145,5.64 3.396,3.394 6.717,6.336 10.093,8.473 0.956,-3.471 4.676,-14.658 11.362,-7.575 6.362,6.739 -5.219,8.173 -9.835,8.475 3.134,1.74 6.331,2.761 9.7,2.75 l 0.003,0.869 c 3.508,-2.055 13.04,-6.785 13.039,2.545"
         style="fill:#d9da9b;fill-opacity:1;fill-rule:nonzero;stroke:none;stroke-width:0.1"
         id="path575671" />
      <path
         d="m -314.07096,504.53496 c 0,0 13.97,-24.541 -2.392,-38.051 -16.361,-13.51 -34.054,-13.372 -34.054,-13.372 0,0 -8.362,17.924 2.989,34.973 11.352,17.049 33.457,16.45 33.457,16.45"
         style="fill:#608a70;fill-opacity:1;fill-rule:nonzero;stroke:none;stroke-width:0.1"
         id="path575673" />
      <g
         id="g575675"
         transform="matrix(0.1,0,0,0.1,-466.86996,74.731959)">
        <g
           id="g575677"
           clip-path="url(#clipPath575681)">
          <path
             d="m 1167.21,3793.92 c 0,0 276.68,414.5 360.78,504.11"
             style="fill:none;stroke:#cfd7d0;stroke-width:11.4105;stroke-linecap:butt;stroke-linejoin:miter;stroke-miterlimit:10;stroke-dasharray:none;stroke-opacity:1"
             id="path575683" />
          <path
             d="m 1619.89,4047.11 -137.86,187.51 -241.26,13.34"
             style="fill:none;stroke:#cfd7d0;stroke-width:11.4105;stroke-linecap:butt;stroke-linejoin:miter;stroke-miterlimit:10;stroke-dasharray:none;stroke-opacity:1"
             id="path575685" />
          <path
             d="m 1563.82,3987.37 -137.86,187.5 -241.26,13.34"
             style="fill:none;stroke:#cfd7d0;stroke-width:11.4105;stroke-linecap:butt;stroke-linejoin:miter;stroke-miterlimit:10;stroke-dasharray:none;stroke-opacity:1"
             id="path575687" />
          <path
             d="m 1510.97,3920.74 -137.86,187.5 -241.26,13.34"
             style="fill:none;stroke:#cfd7d0;stroke-width:11.4105;stroke-linecap:butt;stroke-linejoin:miter;stroke-miterlimit:10;stroke-dasharray:none;stroke-opacity:1"
             id="path575689" />
          <path
             d="m 1461.79,3864.21 -137.85,187.51 -241.27,13.34"
             style="fill:none;stroke:#cfd7d0;stroke-width:11.4105;stroke-linecap:butt;stroke-linejoin:miter;stroke-miterlimit:10;stroke-dasharray:none;stroke-opacity:1"
             id="path575691" />
          <path
             d="m 1412.16,3790.69 -137.86,187.5 -241.27,13.34"
             style="fill:none;stroke:#cfd7d0;stroke-width:11.4105;stroke-linecap:butt;stroke-linejoin:miter;stroke-miterlimit:10;stroke-dasharray:none;stroke-opacity:1"
             id="path575693" />
          <path
             d="m 1376.31,3723.59 -137.86,187.51 -241.266,13.34"
             style="fill:none;stroke:#cfd7d0;stroke-width:11.4105;stroke-linecap:butt;stroke-linejoin:miter;stroke-miterlimit:10;stroke-dasharray:none;stroke-opacity:1"
             id="path575695" />
        </g>
      </g>
      <path
         d="m -324.33396,518.89096 c 0,0 -9.164,-26.71 -30.119,-23.377 -20.9545,3.333 -32.5541,16.694 -32.5541,16.694 0,0 7.909,18.128 28.2041,20.892 20.295,2.764 34.469,-14.209 34.469,-14.209"
         style="fill:#608a70;fill-opacity:1;fill-rule:nonzero;stroke:none;stroke-width:0.1"
         id="path575697" />
      <g
         id="g575699"
         transform="matrix(0.1,0,0,0.1,-466.86996,74.731959)">
        <g
           id="g575701"
           clip-path="url(#clipPath575705)">
          <path
             d="m 808.641,4378.69 c 0,0 493.879,66.7 616.719,62.9"
             style="fill:none;stroke:#cfd7d0;stroke-width:11.4105;stroke-linecap:butt;stroke-linejoin:miter;stroke-miterlimit:10;stroke-dasharray:none;stroke-opacity:1"
             id="path575707" />
          <path
             d="m 1297.97,4206.69 49.42,227.42 -149.59,189.76"
             style="fill:none;stroke:#cfd7d0;stroke-width:11.4105;stroke-linecap:butt;stroke-linejoin:miter;stroke-miterlimit:10;stroke-dasharray:none;stroke-opacity:1"
             id="path575709" />
          <path
             d="m 1216.07,4209.22 49.43,227.42 -149.59,189.76"
             style="fill:none;stroke:#cfd7d0;stroke-width:11.4105;stroke-linecap:butt;stroke-linejoin:miter;stroke-miterlimit:10;stroke-dasharray:none;stroke-opacity:1"
             id="path575711" />
          <path
             d="m 1131.14,4204.78 49.43,227.42 -149.59,189.76"
             style="fill:none;stroke:#cfd7d0;stroke-width:11.4105;stroke-linecap:butt;stroke-linejoin:miter;stroke-miterlimit:10;stroke-dasharray:none;stroke-opacity:1"
             id="path575713" />
          <path
             d="m 1056.22,4204.27 49.43,227.42 -149.591,189.76"
             style="fill:none;stroke:#cfd7d0;stroke-width:11.4105;stroke-linecap:butt;stroke-linejoin:miter;stroke-miterlimit:10;stroke-dasharray:none;stroke-opacity:1"
             id="path575715" />
          <path
             d="m 968.246,4192.86 49.434,227.41 -149.594,189.77"
             style="fill:none;stroke:#cfd7d0;stroke-width:11.4105;stroke-linecap:butt;stroke-linejoin:miter;stroke-miterlimit:10;stroke-dasharray:none;stroke-opacity:1"
             id="path575717" />
          <path
             d="m 894.219,4175.36 49.429,227.42 -149.597,189.76"
             style="fill:none;stroke:#cfd7d0;stroke-width:11.4105;stroke-linecap:butt;stroke-linejoin:miter;stroke-miterlimit:10;stroke-dasharray:none;stroke-opacity:1"
             id="path575719" />
        </g>
      </g>
      <path
         d="m -259.41996,601.66496 c -5.688,11.303 2.789,20.91 2.876,21.006 l 0.73,-0.659 c -0.077,-0.085 -7.049,-7.988 -3.654,-17.725 0.474,6.847 6.369,16.04 6.657,16.485 l 0.826,-0.535 c -0.06,-0.093 -4.658,-7.263 -6.102,-13.471 3.452,6.806 12.557,15.511 13.056,15.984 l 0.677,-0.713 c -3.102,-2.946 -9.628,-9.807 -12.574,-15.155 3.55,4.074 9.696,8.716 11.444,10.004 l 0.583,-0.792 c -5.429,-4.002 -12.245,-9.976 -13.455,-12.934 3.716,4.312 17.112,12.252 18.818,13.254 l 0.499,-0.848 c -7.19,-4.223 -17.916,-11.225 -19.167,-13.915 0.092,-0.075 0.191,-0.146 0.314,-0.2 1.947,0.278 8.24,3.486 18.773,9.575 1.48,0.855 2.372,1.372 2.653,1.502 l 0.417,-0.891 c -0.241,-0.112 -1.272,-0.709 -2.577,-1.463 -8.297,-4.796 -13.569,-7.613 -16.714,-8.878 3.971,0.456 10.709,2.99 15.238,5.064 l 0.41,-0.895 c -10.297,-4.713 -15.216,-5.365 -17.545,-5.07 5.024,-2.738 22.848,2.65 23.028,2.705 l 0.287,-0.941 c -0.687,-0.209 -15.53,-4.689 -22.168,-3.2 5.097,-2.98 16.805,-1.987 16.95,-1.974 l 0.088,-0.98 c -0.496,-0.045 -8.301,-0.707 -14.099,0.799 -0.412,0.108 -0.813,0.228 -1.202,0.358 7.204,-5.197 18.43,-3.085 18.568,-3.057 l 0.19,-0.965 c -0.107,-0.021 -6.678,-1.265 -13.151,0.417 -3.272,0.85 -6.517,2.452 -8.889,5.334 -0.619,0.52 -1.102,1.122 -1.403,1.825 -2.569,-1.977 -13.853,-10.025 -26.148,-9.092 l 0.074,0.981 c 12.37,-0.938 23.743,7.526 25.692,9.06"
         style="fill:#cfd7d0;fill-opacity:1;fill-rule:nonzero;stroke:none;stroke-width:0.1"
         id="path575721" />
      <path
         d="m -336.96996,598.18396 c 0,0 -16.113,4.659 -24.596,17.588 -8.4833,12.929 -11.4536,20.772 -11.4536,20.772 0,0 32.7586,-22.568 36.0496,-38.36"
         style="fill:#c1bd6f;fill-opacity:1;fill-rule:nonzero;stroke:none;stroke-width:0.1"
         id="path575727" />
      <path
         d="m -307.95496,549.14796 c 0,0 -2.934,27.526 -46.351,67.58"
         style="fill:none;stroke:#608a70;stroke-width:1.44026;stroke-linecap:round;stroke-linejoin:round;stroke-miterlimit:10;stroke-dasharray:none;stroke-opacity:1"
         id="path575729" />
      <path
         d="m -326.69496,585.66996 c 0,0 -8.068,10.73 -5.851,28.702 2.217,17.973 6.409,17.846 6.409,17.846 0,0 7.124,-42.164 -0.558,-46.548"
         style="fill:#c1bd6f;fill-opacity:1;fill-rule:nonzero;stroke:none;stroke-width:0.1"
         id="path575731" />
      <path
         d="m -360.81896,597.22296 c 0,0 14.846,-22.626 30.905,-25.96 16.06,-3.334 13.356,-2.116 13.356,-2.116 0,0 -31.118,31.26 -44.261,28.076"
         style="fill:#c1bd6f;fill-opacity:1;fill-rule:nonzero;stroke:none;stroke-width:0.1"
         id="path575733" />
      <path
         d="m -311.51996,559.39696 c 0,0 -7.954,16.268 0.733,31.216 8.687,14.948 8.687,14.948 8.687,14.948 0,0 3.349,-33.706 -9.42,-46.164"
         style="fill:#c1bd6f;fill-opacity:1;fill-rule:nonzero;stroke:none;stroke-width:0.1"
         id="path575735" />
      <path
         d="m -326.69496,585.66996 c 0,0 -4.742,31.648 -0.321,45.428"
         style="fill:none;stroke:#608a70;stroke-width:1.44026;stroke-linecap:round;stroke-linejoin:round;stroke-miterlimit:10;stroke-dasharray:none;stroke-opacity:1"
         id="path575737" />
      <path
         d="m -349.55396,589.38196 c 0,0 24.676,-19.575 31.619,-18.963"
         style="fill:none;stroke:#608a70;stroke-width:1.44026;stroke-linecap:round;stroke-linejoin:round;stroke-miterlimit:10;stroke-dasharray:none;stroke-opacity:1"
         id="path575739" />
      <path
         d="m -311.51996,559.39696 c 0,0 5.506,19.797 5.079,30.396"
         style="fill:none;stroke:#608a70;stroke-width:1.44026;stroke-linecap:round;stroke-linejoin:round;stroke-miterlimit:10;stroke-dasharray:none;stroke-opacity:1"
         id="path575741" />
      <path
         d="m -265.66596,563.25096 c -4.764,3.102 -4.289,6.259 -2.669,7.343 0.833,0.559 2.752,-2.857 2.752,-2.857 0,0 -0.807,4.953 1.003,5.705 1.809,0.752 3.355,-0.623 2.752,-2.856 -0.602,-2.233 0.273,-4.045 0.273,-4.045 0,0 0.367,5.008 2.108,5.347 1.576,0.308 4.255,-0.526 2.52,-3.3 -1.734,-2.773 -4.453,-4.182 -4.453,-4.182 0,0 5.378,4.466 6.722,1.484 1.114,-2.47 -2.827,-3.239 -4.626,-3.43 -1.799,-0.191 4.825,0.023 2.773,-1.735 -2.052,-1.758 -6.804,0.995 -9.155,2.526"
         style="fill:#ec8db7;fill-opacity:1;fill-rule:nonzero;stroke:none;stroke-width:0.1"
         id="path575743" />
      <path
         d="m -264.98496,568.34496 c -0.345,-1.173 -0.674,-2.33 -0.794,-3.468 -0.127,-1.105 0.039,-2.305 0.793,-2.687 0.331,-0.201 0.84,-0.194 1.357,-0.08 0.528,0.091 1.058,0.323 1.591,0.55 1.062,0.48 2.101,1.082 3.17,1.682 -0.769,-0.96 -1.691,-1.79 -2.753,-2.459 -0.528,-0.341 -1.103,-0.624 -1.751,-0.812 -0.635,-0.169 -1.42,-0.26 -2.163,0.132 -0.726,0.422 -1.103,1.144 -1.224,1.842 -0.107,0.7 -0.042,1.365 0.116,1.985 0.309,1.241 0.897,2.35 1.658,3.315"
         style="fill:#608a70;fill-opacity:1;fill-rule:nonzero;stroke:none;stroke-width:0.1"
         id="path575745" />
      <path
         d="m -263.46296,567.62696 c -0.202,-1.149 -0.508,-2.252 -0.838,-3.341 l -0.504,-1.617 c -0.083,-0.259 -0.173,-0.541 -0.219,-0.76 -0.031,-0.105 -0.027,-0.228 -0.026,-0.205 0,0 -0.036,0.162 -0.216,0.243 -0.167,0.058 -0.189,0.015 -0.174,0.027 0.089,0.019 0.348,0.183 0.543,0.335 l 0.63,0.512 1.259,1.117 c 0.84,0.76 1.683,1.529 2.591,2.252 -0.571,-1.012 -1.245,-1.946 -1.976,-2.838 -0.363,-0.45 -0.751,-0.878 -1.166,-1.295 -0.206,-0.21 -0.421,-0.414 -0.662,-0.606 -0.256,-0.191 -0.456,-0.387 -0.909,-0.551 -0.12,-0.027 -0.294,-0.096 -0.593,0.02 -0.315,0.141 -0.42,0.448 -0.438,0.587 -0.039,0.306 0.007,0.471 0.047,0.641 0.084,0.336 0.181,0.593 0.28,0.875 0.207,0.544 0.435,1.07 0.677,1.591 0.488,1.04 1.031,2.053 1.694,3.013"
         style="fill:#608a70;fill-opacity:1;fill-rule:nonzero;stroke:none;stroke-width:0.1"
         id="path575747" />
      <path
         d="m -265.59196,561.92896 c 0,0 -14.065,-11.987 -10.912,-21.494"
         style="fill:none;stroke:#608a70;stroke-width:1.1295;stroke-linecap:butt;stroke-linejoin:miter;stroke-miterlimit:10;stroke-dasharray:none;stroke-opacity:1"
         id="path575749" />
      <path
         d="m -247.06196,564.36196 c -3.742,4.28 -2.426,7.189 -0.574,7.792 0.954,0.311 1.873,-3.496 1.873,-3.496 0,0 0.57,4.985 2.516,5.217 1.945,0.232 3.059,-1.512 1.873,-3.497 -1.187,-1.985 -0.837,-3.967 -0.837,-3.967 0,0 1.714,4.72 3.482,4.574 1.6,-0.133 3.95,-1.664 1.528,-3.862 -2.423,-2.197 -5.422,-2.814 -5.422,-2.814 0,0 6.389,2.837 6.872,-0.399 0.401,-2.68 -3.601,-2.348 -5.385,-2.044 -1.783,0.306 4.651,-1.289 2.198,-2.422 -2.453,-1.134 -6.278,2.807 -8.124,4.918"
         style="fill:#ec8db7;fill-opacity:1;fill-rule:nonzero;stroke:none;stroke-width:0.1"
         id="path575751" />
      <path
         d="m -245.02196,569.07996 c -0.651,-1.035 -1.282,-2.06 -1.706,-3.122 -0.423,-1.029 -0.589,-2.229 0.031,-2.802 0.265,-0.283 0.757,-0.415 1.285,-0.446 0.533,-0.055 1.106,0.024 1.681,0.097 1.152,0.174 2.316,0.471 3.507,0.759 -1.001,-0.717 -2.113,-1.264 -3.317,-1.619 -0.601,-0.186 -1.231,-0.301 -1.906,-0.306 -0.657,0.01 -1.437,0.136 -2.045,0.715 -0.585,0.603 -0.751,1.401 -0.677,2.106 0.086,0.702 0.33,1.324 0.65,1.878 0.635,1.11 1.502,2.018 2.497,2.74"
         style="fill:#608a70;fill-opacity:1;fill-rule:nonzero;stroke:none;stroke-width:0.1"
         id="path575753" />
      <path
         d="m -243.75196,567.97496 c -0.507,-1.051 -1.102,-2.03 -1.715,-2.988 l -0.925,-1.418 c -0.15,-0.228 -0.313,-0.474 -0.417,-0.673 -0.059,-0.092 -0.088,-0.212 -0.081,-0.19 0,0 0.01,0.166 -0.142,0.293 -0.144,0.1 -0.177,0.066 -0.16,0.073 0.091,-0.006 0.385,0.081 0.613,0.175 l 0.748,0.322 1.514,0.732 c 1.015,0.503 2.035,1.014 3.105,1.464 -0.824,-0.82 -1.726,-1.535 -2.673,-2.195 -0.471,-0.334 -0.962,-0.641 -1.474,-0.929 -0.255,-0.147 -0.518,-0.284 -0.801,-0.404 -0.299,-0.114 -0.545,-0.249 -1.025,-0.283 -0.123,0.006 -0.309,-0.012 -0.565,0.181 -0.265,0.221 -0.283,0.545 -0.263,0.683 0.046,0.305 0.136,0.452 0.22,0.604 0.172,0.301 0.336,0.523 0.507,0.766 0.347,0.468 0.71,0.912 1.084,1.348 0.752,0.868 1.55,1.695 2.45,2.439"
         style="fill:#608a70;fill-opacity:1;fill-rule:nonzero;stroke:none;stroke-width:0.1"
         id="path575755" />
      <path
         d="m -247.34996,563.06996 c 0,0 -6.334,-5.641 -11.876,-8.303"
         style="fill:none;stroke:#608a70;stroke-width:1.1295;stroke-linecap:butt;stroke-linejoin:miter;stroke-miterlimit:10;stroke-dasharray:none;stroke-opacity:1"
         id="path575757" />
      <path
         d="m -267.21496,547.69496 c -3.618,6.282 -1.251,9.594 1.216,9.889 1.27,0.152 1.475,-4.838 1.475,-4.838 0,0 1.949,6.094 4.44,5.901 2.491,-0.192 3.452,-2.649 1.475,-4.838 -1.976,-2.189 -2.031,-4.754 -2.031,-4.754 0,0 3.315,5.478 5.49,4.856 1.969,-0.562 4.528,-3.061 0.953,-5.208 -3.575,-2.148 -7.48,-2.175 -7.48,-2.175 0,0 8.696,1.963 8.497,-2.204 -0.163,-3.451 -5.087,-2.044 -7.242,-1.22 -2.155,0.823 5.497,-2.766 2.148,-3.576 -3.349,-0.81 -7.156,5.068 -8.941,8.167"
         style="fill:#ec8db7;fill-opacity:1;fill-rule:nonzero;stroke:none;stroke-width:0.1"
         id="path575759" />
      <path
         d="m -263.49396,553.09096 c -1.07,-1.134 -2.114,-2.259 -2.908,-3.483 -0.784,-1.182 -1.29,-2.642 -0.655,-3.511 0.261,-0.421 0.842,-0.707 1.497,-0.877 0.651,-0.201 1.388,-0.245 2.126,-0.296 1.484,-0.068 3.013,0.015 4.575,0.079 -1.43,-0.648 -2.958,-1.057 -4.551,-1.202 -0.798,-0.083 -1.614,-0.071 -2.461,0.091 -0.818,0.175 -1.763,0.525 -2.38,1.401 -0.582,0.899 -0.592,1.938 -0.325,2.801 0.283,0.857 0.742,1.575 1.28,2.188 1.07,1.231 2.379,2.151 3.802,2.809"
         style="fill:#608a70;fill-opacity:1;fill-rule:nonzero;stroke:none;stroke-width:0.1"
         id="path575761" />
      <path
         d="m -262.17896,551.39296 c -0.895,-1.188 -1.881,-2.265 -2.886,-3.311 l -1.509,-1.546 c -0.244,-0.246 -0.509,-0.514 -0.688,-0.737 -0.097,-0.101 -0.164,-0.244 -0.148,-0.217 0.003,0.014 0.012,0.037 0.009,0.122 -0.005,0.066 -0.04,0.199 -0.114,0.279 -0.156,0.161 -0.206,0.126 -0.183,0.131 0.113,-0.03 0.503,0.006 0.811,0.067 l 1.014,0.217 c 0.686,0.164 1.377,0.36 2.076,0.541 1.394,0.376 2.797,0.763 4.247,1.059 -1.234,-0.82 -2.54,-1.491 -3.888,-2.082 -0.672,-0.301 -1.362,-0.563 -2.074,-0.796 -0.356,-0.12 -0.718,-0.227 -1.102,-0.306 -0.403,-0.069 -0.742,-0.177 -1.352,-0.1 -0.153,0.038 -0.39,0.061 -0.662,0.366 -0.276,0.342 -0.219,0.752 -0.16,0.92 0.134,0.37 0.282,0.531 0.425,0.701 0.29,0.333 0.55,0.57 0.824,0.832 0.551,0.499 1.114,0.965 1.691,1.417 1.156,0.899 2.359,1.736 3.669,2.443"
         style="fill:#608a70;fill-opacity:1;fill-rule:nonzero;stroke:none;stroke-width:0.1"
         id="path575763" />
      <path
         d="m -267.89596,546.15096 c 0,0 -10.521,-6.927 -16.504,-8.844"
         style="fill:none;stroke:#608a70;stroke-width:1.1295;stroke-linecap:butt;stroke-linejoin:miter;stroke-miterlimit:10;stroke-dasharray:none;stroke-opacity:1"
         id="path575765" />
      <path
         d="m -316.87996,531.69496 c -17.245,-6.423 -33.09,13.695 -26.712,23.766 6.377,10.07 7.312,4.142 15.642,3.07 0.714,-0.091 0.847,12.234 11.101,7.285 10.255,-4.949 14.458,-28.724 -0.031,-34.121"
         style="fill:#f48c6a;fill-opacity:1;fill-rule:nonzero;stroke:none;stroke-width:0.1"
         id="path575767" />
      <path
         d="m -335.84796,547.92996 c 1.427,-1.786 2.876,-3.546 4.434,-5.203 1.532,-1.678 3.14,-3.281 4.839,-4.755 1.714,-1.442 3.517,-2.818 5.515,-3.661 0.991,-0.417 2.022,-0.715 3.034,-0.714 1.008,-0.008 1.98,0.305 2.774,0.891 1.641,1.143 2.192,3.375 2.213,5.527 0.05,2.188 -0.369,4.414 -0.878,6.602 -1.092,4.375 -2.667,8.667 -4.472,12.863 2.306,-3.949 4.253,-8.135 5.559,-12.574 0.651,-2.217 1.123,-4.516 1.155,-6.9 0.002,-1.191 -0.129,-2.411 -0.531,-3.596 -0.395,-1.178 -1.138,-2.322 -2.198,-3.085 -1.046,-0.763 -2.358,-1.16 -3.632,-1.133 -1.275,0.019 -2.481,0.376 -3.571,0.875 -2.186,1.017 -4.034,2.486 -5.718,4.074 -3.356,3.197 -6.136,6.889 -8.523,10.789"
         style="fill:#f3ac9b;fill-opacity:1;fill-rule:nonzero;stroke:none;stroke-width:0.1"
         id="path575769" />
      <path
         d="m -330.20496,552.28696 c 1.798,-3.323 3.642,-6.612 5.623,-9.784 1.013,-1.567 2.038,-3.134 3.234,-4.506 0.594,-0.675 1.23,-1.341 1.912,-1.742 0.71,-0.428 1.217,-0.368 1.473,0.106 0.289,0.507 0.261,1.452 0.124,2.3 -0.138,0.875 -0.388,1.758 -0.657,2.637 -0.544,1.762 -1.262,3.489 -1.988,5.214 -1.498,3.433 -3.119,6.835 -4.793,10.224 2.157,-3.107 4.121,-6.35 5.813,-9.751 0.859,-1.696 1.616,-3.445 2.264,-5.261 0.311,-0.915 0.577,-1.851 0.75,-2.837 0.082,-0.494 0.148,-0.998 0.132,-1.538 0.006,-0.525 -0.09,-1.12 -0.393,-1.699 -0.299,-0.603 -1,-1.053 -1.693,-1.096 -0.699,-0.046 -1.307,0.203 -1.753,0.494 -0.932,0.583 -1.606,1.317 -2.23,2.072 -1.221,1.526 -2.238,3.144 -3.158,4.811 -1.85,3.326 -3.368,6.802 -4.66,10.356"
         style="fill:#f3ac9b;fill-opacity:1;fill-rule:nonzero;stroke:none;stroke-width:0.1"
         id="path575771" />
      <path
         d="m -304.38296,532.72696 c -13.624,12.37 -3.027,35.683 8.847,34.642 11.875,-1.042 7.038,-4.595 9.911,-12.487 0.246,-0.676 11.257,4.865 11.568,-6.517 0.312,-11.382 -18.878,-26.031 -30.326,-15.638"
         style="fill:#f48c6a;fill-opacity:1;fill-rule:nonzero;stroke:none;stroke-width:0.1"
         id="path575773" />
      <path
         d="m -298.66896,557.03096 c -0.932,-2.088 -1.829,-4.183 -2.587,-6.328 -0.787,-2.131 -1.472,-4.296 -2.002,-6.482 -0.493,-2.185 -0.888,-4.419 -0.72,-6.58 0.084,-1.071 0.294,-2.125 0.759,-3.024 0.455,-0.898 1.179,-1.619 2.065,-2.054 1.768,-0.933 4.004,-0.398 5.926,0.571 1.966,0.96 3.752,2.355 5.462,3.811 3.385,2.979 6.475,6.35 9.373,9.88 -2.449,-3.862 -5.274,-7.514 -8.618,-10.712 -1.67,-1.597 -3.496,-3.071 -5.599,-4.194 -1.057,-0.549 -2.2,-0.993 -3.438,-1.18 -1.228,-0.19 -2.586,-0.055 -3.75,0.537 -1.158,0.578 -2.113,1.562 -2.675,2.705 -0.568,1.142 -0.804,2.377 -0.862,3.575 -0.1,2.409 0.358,4.725 0.994,6.95 1.299,4.449 3.303,8.615 5.672,12.525"
         style="fill:#f3ac9b;fill-opacity:1;fill-rule:nonzero;stroke:none;stroke-width:0.1"
         id="path575775" />
      <path
         d="m -292.20796,554.01896 c -2.126,-3.124 -4.201,-6.271 -6.11,-9.488 -0.927,-1.619 -1.848,-3.249 -2.518,-4.941 -0.327,-0.838 -0.626,-1.709 -0.669,-2.499 -0.055,-0.827 0.232,-1.25 0.77,-1.261 0.583,-0.022 1.409,0.436 2.1,0.947 0.714,0.524 1.383,1.152 2.041,1.793 1.315,1.294 2.52,2.725 3.719,4.161 2.361,2.907 4.64,5.909 6.881,8.952 -1.769,-3.342 -3.748,-6.576 -5.993,-9.641 -1.112,-1.541 -2.318,-3.017 -3.634,-4.427 -0.669,-0.696 -1.379,-1.362 -2.175,-1.968 -0.401,-0.3 -0.819,-0.59 -1.306,-0.824 -0.463,-0.245 -1.037,-0.435 -1.69,-0.431 -0.673,-0.011 -1.394,0.406 -1.751,1.001 -0.362,0.6 -0.419,1.255 -0.366,1.784 0.09,1.097 0.433,2.032 0.817,2.933 0.795,1.785 1.766,3.432 2.824,5.015 2.104,3.17 4.497,6.114 7.06,8.894"
         style="fill:#f3ac9b;fill-opacity:1;fill-rule:nonzero;stroke:none;stroke-width:0.1"
         id="path575777" />
      <path
         d="m -301.52296,528.61296 c 12.837,13.186 35.767,1.784 34.313,-10.047 -1.454,-11.831 -4.837,-6.873 -12.824,-9.47 -0.684,-0.222 4.47,-11.42 -6.916,-11.335 -11.386,0.085 -25.359,19.774 -14.573,30.852"
         style="fill:#f48c6a;fill-opacity:1;fill-rule:nonzero;stroke:none;stroke-width:0.1"
         id="path575779" />
      <path
         d="m -277.43196,522.05796 c -2.055,1.003 -4.118,1.973 -6.235,2.805 -2.102,0.861 -4.241,1.621 -6.408,2.226 -2.166,0.569 -4.385,1.042 -6.551,0.949 -1.074,-0.047 -2.134,-0.219 -3.048,-0.654 -0.913,-0.423 -1.659,-1.122 -2.125,-1.992 -0.994,-1.734 -0.537,-3.988 0.365,-5.942 0.891,-1.999 2.223,-3.832 3.619,-5.591 2.859,-3.487 6.119,-6.692 9.547,-9.711 -3.775,2.581 -7.326,5.532 -10.406,8.985 -1.538,1.725 -2.948,3.601 -3.997,5.742 -0.512,1.075 -0.915,2.233 -1.059,3.477 -0.147,1.234 0.035,2.586 0.667,3.728 0.618,1.138 1.634,2.058 2.796,2.579 1.162,0.529 2.404,0.723 3.603,0.738 2.411,0.016 4.71,-0.522 6.911,-1.235 4.402,-1.454 8.495,-3.601 12.321,-6.104"
         style="fill:#f3ac9b;fill-opacity:1;fill-rule:nonzero;stroke:none;stroke-width:0.1"
         id="path575781" />
      <path
         d="m -280.66696,515.70496 c -3.048,2.234 -6.122,4.417 -9.269,6.437 -1.587,0.982 -3.184,1.959 -4.852,2.688 -0.825,0.356 -1.686,0.685 -2.473,0.756 -0.825,0.084 -1.258,-0.188 -1.287,-0.725 -0.043,-0.583 0.386,-1.425 0.873,-2.133 0.499,-0.731 1.103,-1.422 1.721,-2.102 1.247,-1.36 2.635,-2.613 4.029,-3.862 2.824,-2.461 5.744,-4.842 8.707,-7.189 -3.279,1.885 -6.442,3.975 -9.426,6.326 -1.502,1.165 -2.936,2.421 -4.298,3.786 -0.673,0.693 -1.313,1.425 -1.892,2.242 -0.286,0.412 -0.561,0.839 -0.778,1.334 -0.229,0.472 -0.398,1.051 -0.372,1.704 0.012,0.672 0.454,1.379 1.062,1.715 0.613,0.341 1.268,0.375 1.795,0.304 1.093,-0.128 2.016,-0.503 2.902,-0.918 1.757,-0.857 3.369,-1.885 4.914,-2.998 3.095,-2.213 5.954,-4.707 8.644,-7.365"
         style="fill:#f3ac9b;fill-opacity:1;fill-rule:nonzero;stroke:none;stroke-width:0.1"
         id="path575783" />
      <path
         d="m -319.26496,523.30396 c 1.006,-18.374 -22.914,-27.521 -30.632,-18.437 -7.719,9.083 -1.781,8.213 1.719,15.848 0.3,0.654 -11.429,4.446 -3.655,12.765 7.774,8.319 31.723,5.263 32.568,-10.176"
         style="fill:#f48c6a;fill-opacity:1;fill-rule:nonzero;stroke:none;stroke-width:0.1"
         id="path575785" />
      <path
         d="m -340.40496,510.02196 c 2.13,0.831 4.241,1.692 6.287,2.686 2.057,0.964 4.065,2.023 5.978,3.207 1.886,1.208 3.736,2.52 5.135,4.176 0.694,0.822 1.284,1.719 1.584,2.686 0.308,0.958 0.299,1.98 -0.026,2.913 -0.603,1.906 -2.571,3.095 -4.619,3.755 -2.074,0.699 -4.324,0.961 -6.564,1.125 -4.502,0.259 -9.069,0.031 -13.611,-0.445 4.456,1.028 9.032,1.642 13.658,1.569 2.311,-0.037 4.646,-0.27 6.932,-0.949 1.137,-0.352 2.262,-0.84 3.275,-1.576 1.008,-0.727 1.879,-1.777 2.292,-3.016 0.418,-1.225 0.406,-2.596 0.003,-3.804 -0.398,-1.212 -1.097,-2.257 -1.898,-3.15 -1.622,-1.785 -3.574,-3.111 -5.59,-4.247 -4.05,-2.254 -8.403,-3.811 -12.836,-4.93"
         style="fill:#f3ac9b;fill-opacity:1;fill-rule:nonzero;stroke:none;stroke-width:0.1"
         id="path575787" />
      <path
         d="m -342.88696,516.70496 c 3.707,0.729 7.395,1.511 11.014,2.459 1.797,0.502 3.598,1.015 5.263,1.748 0.821,0.366 1.646,0.776 2.232,1.308 0.62,0.55 0.714,1.053 0.338,1.438 -0.4,0.427 -1.31,0.681 -2.161,0.802 -0.876,0.128 -1.793,0.152 -2.712,0.157 -1.844,0.004 -3.707,-0.168 -5.57,-0.348 -3.722,-0.41 -7.453,-0.946 -11.185,-1.536 3.607,1.136 7.287,2.046 11.038,2.65 1.874,0.316 3.769,0.52 5.696,0.598 0.965,0.025 1.938,10e-4 2.93,-0.127 0.497,-0.069 0.998,-0.156 1.508,-0.331 0.503,-0.151 1.044,-0.419 1.506,-0.881 0.487,-0.465 0.707,-1.268 0.543,-1.942 -0.164,-0.682 -0.583,-1.188 -0.993,-1.527 -0.834,-0.717 -1.735,-1.142 -2.641,-1.513 -1.82,-0.713 -3.668,-1.202 -5.533,-1.585 -3.725,-0.778 -7.495,-1.193 -11.273,-1.37"
         style="fill:#f3ac9b;fill-opacity:1;fill-rule:nonzero;stroke:none;stroke-width:0.1"
         id="path575789" />
      <path
         d="m -308.67196,520.06096 c 17.449,-5.845 17.126,-31.45 5.835,-35.274 -11.29,-3.822 -8.29,1.376 -14.095,7.445 -0.498,0.521 -8.35,-8.982 -13.213,1.314 -4.864,10.295 6.812,31.426 21.473,26.515"
         style="fill:#f48c6a;fill-opacity:1;fill-rule:nonzero;stroke:none;stroke-width:0.1"
         id="path575791" />
      <path
         d="m -304.12596,495.51196 c 0.013,2.287 -0.008,4.566 -0.177,6.834 -0.137,2.268 -0.381,4.525 -0.775,6.74 -0.427,2.198 -0.964,4.402 -1.987,6.314 -0.508,0.947 -1.124,1.828 -1.911,2.462 -0.778,0.64 -1.731,1.008 -2.718,1.051 -1.994,0.143 -3.825,-1.247 -5.195,-2.907 -1.414,-1.67 -2.488,-3.665 -3.467,-5.686 -1.902,-4.089 -3.374,-8.417 -4.608,-12.815 0.688,4.52 1.806,9 3.581,13.273 0.887,2.134 1.965,4.218 3.44,6.093 0.746,0.927 1.614,1.793 2.672,2.462 1.048,0.669 2.345,1.091 3.649,1.017 1.293,-0.063 2.563,-0.579 3.537,-1.401 0.98,-0.817 1.693,-1.852 2.228,-2.925 1.06,-2.165 1.573,-4.47 1.885,-6.763 0.6,-4.596 0.442,-9.216 -0.154,-13.749"
         style="fill:#f3ac9b;fill-opacity:1;fill-rule:nonzero;stroke:none;stroke-width:0.1"
         id="path575793" />
      <path
         d="m -311.25296,495.67096 c 0.69,3.715 1.323,7.431 1.777,11.144 0.197,1.855 0.385,3.718 0.317,5.537 -0.037,0.898 -0.113,1.816 -0.391,2.556 -0.283,0.78 -0.716,1.052 -1.213,0.845 -0.543,-0.214 -1.115,-0.966 -1.542,-1.712 -0.442,-0.767 -0.802,-1.611 -1.147,-2.462 -0.684,-1.714 -1.211,-3.508 -1.731,-5.306 -0.993,-3.612 -1.871,-7.276 -2.699,-10.964 0.275,3.772 0.786,7.529 1.609,11.238 0.398,1.858 0.908,3.695 1.546,5.515 0.333,0.906 0.715,1.801 1.2,2.676 0.246,0.436 0.512,0.87 0.863,1.28 0.327,0.411 0.775,0.815 1.375,1.075 0.611,0.28 1.439,0.189 2.005,-0.212 0.573,-0.404 0.889,-0.98 1.053,-1.486 0.359,-1.04 0.422,-2.034 0.432,-3.013 -0.01,-1.955 -0.236,-3.853 -0.569,-5.728 -0.65,-3.749 -1.656,-7.407 -2.885,-10.983"
         style="fill:#f3ac9b;fill-opacity:1;fill-rule:nonzero;stroke:none;stroke-width:0.1"
         id="path575795" />
      <path
         d="m -309.73396,540.21596 c -10.458,0.013 -14.864,-10.19 -11.973,-17.822 2.891,-7.633 17.189,-5.599 20.452,-0.937 3.261,4.663 4.83,18.741 -8.479,18.759"
         style="fill:#ffffff;fill-opacity:1;fill-rule:nonzero;stroke:none;stroke-width:0.1"
         id="path575797" />
      <path
         d="m -316.54996,532.37896 c -1.252,-0.323 -0.517,5.391 2.163,5.53 2.68,0.14 3.595,-2.156 3.595,-2.156 0,0 2.034,2.643 4.146,2.129 2.112,-0.514 2.16,-3.908 2.16,-3.908 0,0 4.108,-0.045 3.979,-2.932 -0.129,-2.888 -2.126,-3.357 -2.126,-3.357 0,0 2.49,-3.224 0.072,-5.092 -2.419,-1.867 -4.378,-0.163 -4.378,-0.163 0,0 -0.575,-2.588 -3.078,-3.234 -2.503,-0.646 -3.803,2.425 -3.803,2.425 0,0 -3.163,-2.013 -5.329,-0.04 -2.167,1.972 1.357,4.907 1.357,4.907 0,0 -3.571,0.46 -2.935,3.524 0.636,3.064 4.177,2.367 4.177,2.367"
         style="fill:#608a70;fill-opacity:1;fill-rule:nonzero;stroke:none;stroke-width:0.1"
         id="path575799" />
      <path
         d="m -314.10496,525.04596 c -1.916,1.308 -1.535,4.029 -0.226,5.945 1.308,1.916 4.973,2.009 6.889,0.701 1.916,-1.308 1.318,-3.652 0.01,-5.568 -1.308,-1.916 -4.757,-2.386 -6.673,-1.078"
         style="fill:#f48c6a;fill-opacity:1;fill-rule:nonzero;stroke:none;stroke-width:0.1"
         id="path575801" />
      <path
         d="m -257.67696,580.23996 c -0.768,1.759 -12.445,2.687 -18.946,3.07 -0.003,0.089 -0.001,0.179 -0.006,0.268 5.806,0.865 15.848,2.707 15.823,5.096 -0.036,3.36 -2.927,2.968 -2.927,2.968 0,0 3.381,2.983 1.091,4.354 -1.503,0.902 -10.013,-4.047 -15.678,-7.551 -0.01,0.015 -0.02,0.029 -0.031,0.044 4.417,2.891 11.021,7.509 12.153,9.954 1.722,3.727 -5.177,2.114 -5.177,2.114 0,0 1.367,7.295 -3.924,3.213 -3.49,-2.692 -6.356,-7.725 -7.908,-10.849 1.303,4.978 2.718,11.41 2.034,13.7 -1.175,3.933 -5.28,-1.842 -5.28,-1.842 0,0 -3.803,6.372 -5.067,-0.189 -0.409,-2.12 -0.08,-5.345 0.551,-8.739 -1.587,4.826 -3.613,9.001 -5.76,8.34 -4.813,-1.483 -2.705,-4.696 -2.705,-4.696 0,0 -6.042,2.038 -4.867,-1.895 0.661,-2.211 5.821,-6.593 10.214,-10.007 -0.139,-0.25 -0.268,-0.506 -0.385,-0.77 -6.176,3.389 -13.63,6.919 -14.336,4.656 -1.221,-3.919 -0.393,-3.822 -0.393,-3.822 0,0 -4.043,-1.312 -2.56,-3.236 0.863,-1.121 9.05,-2.591 15.748,-3.626 -6.849,-0.392 -15.364,-1.282 -15.356,-3.291 0.013,-3.361 2.04,-3.893 2.04,-3.893 0,0 -0.423,-3.934 1.857,-5.321 1.218,-0.741 7.208,2.224 12.524,5.147 -2.831,-4.086 -5.982,-9.089 -6.131,-11.325 -0.272,-4.096 5.591,-0.118 5.591,-0.118 0,0 1.338,-7.299 4.814,-1.592 2.353,3.861 3.21,9.795 3.519,13.234 0.001,0 0.003,0 0.004,-10e-4 0.189,-0.024 0.377,-0.03 0.565,-0.043 -0.845,-6.777 -1.634,-17.498 1.801,-17.697 5.028,-0.293 4.174,3.454 4.174,3.454 0,0 4.95,-4.019 5.222,0.076 0.174,2.611 -4.095,9.854 -7.217,14.768 0.211,0.082 0.414,0.179 0.618,0.276 3.447,-5.299 8.788,-12.682 10.666,-10.749 2.861,2.945 2.078,3.233 2.078,3.233 0,0 4.2,-0.658 3.747,1.73 -0.263,1.381 -7.004,5.741 -12.644,9.173 0.218,0.337 0.419,0.686 0.594,1.053 4.824,-2.518 15.625,-7.828 17.112,-5.696 1.922,2.756 -0.66,4.116 -0.66,4.116 0,0 4.485,0.465 3.418,2.911"
         style="fill:#9ec8cd;fill-opacity:1;fill-rule:nonzero;stroke:none;stroke-width:0.1"
         id="path575803" />
      <path
         d="m -293.74696,593.47796 c 3.333,-2.562 6.186,-5.627 8.819,-8.86 2.578,-3.269 4.956,-6.769 6.515,-10.679 -2.682,3.223 -5.217,6.43 -7.81,9.644 -2.562,3.231 -5.147,6.439 -7.524,9.895"
         style="fill:#608a70;fill-opacity:1;fill-rule:nonzero;stroke:none;stroke-width:0.1"
         id="path575805" />
      <path
         d="m -296.82796,576.02796 c 2.855,3.392 6.308,6.223 10.085,8.563 1.897,1.154 3.903,2.173 6.041,2.873 2.111,0.707 4.43,1.146 6.627,0.696 -2.212,-0.205 -4.205,-1.036 -6.153,-1.901 -1.937,-0.904 -3.824,-1.939 -5.653,-3.084 -1.848,-1.112 -3.659,-2.3 -5.47,-3.507 l -5.477,-3.64"
         style="fill:#608a70;fill-opacity:1;fill-rule:nonzero;stroke:none;stroke-width:0.1"
         id="path575807" />
      <path
         d="m -283.96096,595.84496 c 0.827,-4.232 0.542,-8.625 -0.406,-12.839 -0.484,-2.11 -1.216,-4.168 -2.154,-6.121 -0.911,-1.969 -2.198,-3.754 -3.633,-5.34 0.905,1.957 1.758,3.862 2.438,5.84 0.663,1.978 1.297,3.96 1.734,6 0.487,2.026 0.861,4.083 1.194,6.156 0.304,2.079 0.607,4.169 0.827,6.304"
         style="fill:#608a70;fill-opacity:1;fill-rule:nonzero;stroke:none;stroke-width:0.1"
         id="path575809" />
      <path
         d="m -298.20296,584.84896 c 4.308,0.61 8.687,0.268 12.946,-0.564 2.13,-0.431 4.228,-1.043 6.258,-1.829 2.038,-0.762 3.967,-1.823 5.751,-3.047 -2.076,0.648 -4.102,1.276 -6.154,1.817 -2.057,0.516 -4.104,1.042 -6.187,1.434 -4.151,0.863 -8.339,1.493 -12.614,2.189"
         style="fill:#608a70;fill-opacity:1;fill-rule:nonzero;stroke:none;stroke-width:0.1"
         id="path575811" />
      <path
         d="m -293.36696,574.74596 c 1.902,3.367 4.252,6.387 6.761,9.273 1.279,1.422 2.587,2.822 4.02,4.109 1.43,1.26 2.913,2.603 4.75,3.304 -1.439,-1.269 -2.566,-2.782 -3.819,-4.204 l -3.708,-4.308 c -2.532,-2.827 -5.09,-5.637 -8.004,-8.174"
         style="fill:#608a70;fill-opacity:1;fill-rule:nonzero;stroke:none;stroke-width:0.1"
         id="path575813" />
      <path
         d="m -288.66796,593.93996 c 0.967,-1.668 1.724,-3.427 2.394,-5.215 0.675,-1.787 1.231,-3.616 1.695,-5.472 0.432,-1.864 0.819,-3.744 0.985,-5.662 0.178,-1.911 0.221,-3.858 -0.11,-5.76 -0.716,3.767 -1.581,7.369 -2.485,11.027 -0.874,3.657 -1.826,7.295 -2.479,11.082"
         style="fill:#608a70;fill-opacity:1;fill-rule:nonzero;stroke:none;stroke-width:0.1"
         id="path575815" />
      <path
         d="m -297.52896,581.41596 c 3.608,1.616 7.404,2.629 11.262,3.348 1.937,0.318 3.889,0.598 5.876,0.625 0.993,0.017 1.986,0.013 2.986,-0.135 0.978,-0.105 2.019,-0.384 2.837,-0.935 -1.922,0.406 -3.813,0.007 -5.714,-0.22 -1.897,-0.284 -3.797,-0.628 -5.696,-0.968 -3.811,-0.654 -7.619,-1.367 -11.551,-1.715"
         style="fill:#608a70;fill-opacity:1;fill-rule:nonzero;stroke:none;stroke-width:0.1"
         id="path575817" />
      <path
         d="m -295.68296,589.26496 c 3.791,-1.294 7.311,-3.137 10.712,-5.183 1.683,-1.053 3.339,-2.16 4.903,-3.402 1.551,-1.24 3.094,-2.594 4.202,-4.28 -1.599,1.197 -3.271,2.187 -4.943,3.217 l -5.03,3.052 c -3.338,2.073 -6.677,4.152 -9.844,6.596"
         style="fill:#608a70;fill-opacity:1;fill-rule:nonzero;stroke:none;stroke-width:0.1"
         id="path575819" />
      <path
         d="m -285.01996,585.73196 c -0.144,-1.118 -1.166,-1.908 -2.284,-1.764 -1.117,0.144 -1.907,1.167 -1.763,2.284 0.143,1.118 1.166,1.907 2.283,1.764 1.118,-0.144 1.908,-1.167 1.764,-2.284"
         style="fill:#ffffff;fill-opacity:1;fill-rule:nonzero;stroke:none;stroke-width:0.1"
         id="path575821" />
      <path
         d="m -279.10996,585.57696 c -0.144,-1.118 -1.167,-1.907 -2.284,-1.764 -1.118,0.144 -1.908,1.167 -1.764,2.284 0.144,1.118 1.166,1.908 2.284,1.764 1.118,-0.144 1.907,-1.166 1.764,-2.284"
         style="fill:#ffffff;fill-opacity:1;fill-rule:nonzero;stroke:none;stroke-width:0.1"
         id="path575823" />
      <path
         d="m -282.48796,581.89696 c -0.144,-1.118 -1.166,-1.908 -2.284,-1.764 -1.118,0.144 -1.907,1.166 -1.764,2.284 0.144,1.118 1.167,1.907 2.285,1.764 1.117,-0.144 1.907,-1.167 1.763,-2.284"
         style="fill:#ffffff;fill-opacity:1;fill-rule:nonzero;stroke:none;stroke-width:0.1"
         id="path575825" />
      <path
         d="m -282.97796,578.08796 c -0.144,-1.118 -1.166,-1.908 -2.284,-1.764 -1.117,0.144 -1.907,1.166 -1.763,2.284 0.144,1.118 1.166,1.907 2.284,1.763 1.118,-0.143 1.907,-1.166 1.763,-2.283"
         style="fill:#ffffff;fill-opacity:1;fill-rule:nonzero;stroke:none;stroke-width:0.1"
         id="path575827" />
      <path
         d="m -278.59396,580.18596 c -0.143,-1.117 -1.166,-1.907 -2.283,-1.763 -1.118,0.143 -1.908,1.166 -1.764,2.284 0.144,1.117 1.166,1.906 2.284,1.763 1.117,-0.144 1.907,-1.167 1.763,-2.284"
         style="fill:#ffffff;fill-opacity:1;fill-rule:nonzero;stroke:none;stroke-width:0.1"
         id="path575829" />
      <path
         d="m -287.25596,580.57396 c -0.144,-1.118 -1.167,-1.907 -2.284,-1.763 -1.118,0.143 -1.908,1.166 -1.764,2.283 0.144,1.118 1.166,1.908 2.284,1.764 1.118,-0.144 1.907,-1.166 1.764,-2.284"
         style="fill:#ffffff;fill-opacity:1;fill-rule:nonzero;stroke:none;stroke-width:0.1"
         id="path575831" />
    </g>
  </g>
</svg>
