<svg width="187" height="48" viewBox="0 0 187 48" fill="none" xmlns="http://www.w3.org/2000/svg">
<path d="M186.072 43.1904C185.471 42.8242 184.898 42.4055 184.34 41.9515C184.086 41.7437 183.651 41.4516 183.372 41.3002C182.653 40.9202 181.926 40.5611 181.201 40.1987C180.925 40.0613 180.643 39.9417 180.323 39.7939C180.431 39.7023 180.484 39.6284 180.549 39.6073C181.54 39.2342 182.501 38.7485 183.512 38.4528C184.028 38.3015 184.543 38.1325 185.025 37.8511C185.504 37.5729 185.861 37.1471 185.995 36.4994C186.162 35.6899 185.939 35.0282 185.443 34.4968C184.85 33.8597 184.189 33.3458 183.483 32.9164C183.145 32.7088 182.814 32.487 182.497 32.2406C181.084 31.1355 179.673 30.0373 178.201 29.0553C178.076 28.9709 177.906 28.9216 177.885 28.6541C178.709 28.2458 179.559 27.9079 180.433 27.6651C180.825 27.556 181.212 27.4257 181.593 27.2709C182.187 27.028 182.816 26.7992 183.281 26.2396C183.931 25.4618 183.909 24.163 183.282 23.357C182.864 22.8185 182.386 22.368 181.833 22.0371C180.765 21.393 179.694 20.763 178.584 20.235C178.491 20.1928 178.389 20.1506 178.406 19.95C178.97 19.7388 179.544 19.5206 180.121 19.3129C181.139 18.9468 182.147 18.5315 183.204 18.345C183.654 18.2676 184.102 18.1444 184.538 17.986C185.632 17.5953 185.969 16.1804 185.241 15.1034C185.176 15.0083 185.106 14.9168 185.03 14.8359C184.442 14.1918 183.821 13.6145 183.099 13.2063C181.398 12.2384 179.71 11.2353 177.944 10.4433C177.644 10.3061 177.369 10.1054 177.09 9.91538C176.996 9.85202 176.818 9.84498 176.846 9.57044C177.356 9.27479 177.857 8.92283 178.339 8.5251C179.811 7.31434 181.308 6.15988 182.921 5.24476C183.309 5.02654 183.672 4.73089 184.033 4.4458C184.312 4.22758 184.538 3.93193 184.68 3.55181C185.015 2.65781 184.614 1.528 183.861 1.45056C183.382 1.40481 182.919 1.24642 182.44 1.23234C181.758 1.2077 181.076 1.19362 180.393 1.16195C178.372 1.06691 176.351 0.975407 174.331 0.859257C172.437 0.750148 170.545 0.598797 168.651 0.493207C167.085 0.401696 165.518 0.359467 163.952 0.278514C162.537 0.204601 136.246 0.0602867 134.831 0.035649C132.075 -0.0136264 121.325 -0.0277047 118.569 0.0990035C115.562 0.236271 84.6624 0.282034 81.6577 0.517852C80.3707 0.619922 79.0827 0.693832 77.7908 0.672714C76.8052 0.658635 59.489 0.662154 58.5076 0.753665C57.2223 0.876854 55.9411 1.04932 54.6515 1.13027C52.1262 1.29218 28.5362 1.53152 26.0039 1.55615C23.6532 1.57727 21.3007 1.62303 18.9527 1.80253C18.446 1.84125 17.9384 1.85532 17.431 1.84124C16.4193 1.80957 15.4126 1.88348 14.4056 1.98907C13.7504 2.05594 13.0951 2.12634 12.4384 2.1721C10.2629 2.31992 8.1153 2.75988 5.95759 3.09777C5.92695 3.10129 5.89662 3.10832 5.86619 3.11888C4.63827 3.45325 3.42371 3.86154 2.17991 4.11847C1.73318 4.20998 1.28764 4.34725 0.882732 4.62178C0.270049 5.03358 -0.0296578 5.66712 0.00231344 6.52944C0.0362192 7.45512 0.397496 8.11682 1.06657 8.52862C1.61491 8.86299 2.20383 9.03897 2.80098 9.18328C4.066 9.48949 5.33571 9.77106 6.55509 10.3061C6.71388 10.3764 6.90146 10.38 7.00428 10.5806C6.97497 10.8129 6.79251 10.8622 6.6761 10.9783C6.34083 11.3127 5.98886 11.6224 5.59467 11.8406C4.36235 12.5235 3.29881 13.516 2.22538 14.4769C1.36749 15.2477 1.41836 16.7224 2.27439 17.5108C2.43472 17.6586 2.61853 17.7748 2.80254 17.8733C3.17221 18.074 3.54674 18.264 3.92425 18.44C5.17498 19.0313 6.39872 19.693 7.60911 20.3969C7.57573 20.6926 7.37404 20.7982 7.22035 20.939C6.28192 21.7802 5.34063 22.6214 4.39075 23.445C3.72923 24.0187 3.04331 24.5466 2.29673 24.9444C2.17196 25.0112 2.05125 25.0957 1.93759 25.1907C1.44385 25.599 1.18877 26.3135 1.30345 27.0315C1.41507 27.7319 1.75788 28.186 2.28665 28.4148C2.7681 28.6224 3.26644 28.7562 3.77346 28.8371C4.39981 28.9427 5.02589 29.0448 5.64848 29.1785C6.51137 29.3651 7.37732 29.5516 8.20651 29.8895C8.18505 30.15 8.03119 30.2204 7.90782 30.3189C7.20495 30.8961 6.50421 31.4734 5.79522 32.0365C5.10268 32.5891 4.44201 33.191 3.7949 33.8209C3.10275 34.4932 2.48717 35.2887 1.70323 35.8167C1.65913 35.8483 1.62225 35.8905 1.58018 35.9257C0.679838 36.6684 0.836809 38.5056 1.95855 39.002C2.31972 39.1604 2.69325 39.2342 3.0721 39.2624C3.57627 39.2976 4.08305 39.2905 4.58617 39.3398C5.2441 39.4067 5.89888 39.4137 6.5553 39.3257C6.6962 39.3081 6.84427 39.2202 7.05516 39.3997C6.64944 39.8255 6.27445 40.1917 5.9293 40.5963C5.56342 41.0222 5.22524 41.4868 4.87651 41.9373C4.28341 42.701 3.68887 43.4648 3.10202 44.2357C2.98255 44.3941 2.87656 44.5771 2.79536 44.7672C2.58278 45.267 2.54181 45.8195 2.78485 46.2841C3.25898 47.1957 3.82266 47.9595 4.84077 47.8961C5.57517 47.8469 6.30173 47.7412 7.03014 47.6392C8.26235 47.4632 9.49335 47.333 10.7388 47.4316C11.5447 47.4984 12.3536 47.435 13.1625 47.34C14.1689 47.2274 15.1812 47.1992 16.1856 47.0373C16.3581 47.0092 16.5382 47.0514 16.7147 47.062C17.6242 47.1182 18.5354 47.1816 19.4434 47.083C20.1523 47.0056 20.8553 47.0232 21.5634 47.076C22.9011 47.1816 24.2398 47.2662 25.5793 47.0866C25.8284 47.0514 26.0839 47.076 26.3361 47.0866C27.5739 47.157 49.8827 47.245 51.1205 47.1358C51.8541 47.0725 52.5858 47.0725 53.3188 47.0972C54.6076 47.143 55.8958 47.2098 57.1849 47.238C57.7655 47.252 58.3471 47.1816 58.9285 47.1852C60.319 47.1922 78.036 47.2098 79.4262 47.2414C80.9937 47.2732 82.5606 47.3294 84.1278 47.3682C85.6953 47.407 115.152 47.435 116.719 47.4632C118.413 47.495 120.107 47.5336 121.801 47.5548C123.469 47.5794 133.132 47.5794 134.801 47.6004C136.368 47.6216 162.814 47.6146 164.381 47.7236C165.946 47.8328 167.511 47.9629 169.078 47.9876C171.346 48.0263 173.617 47.9629 175.886 47.9524C177.76 47.9453 179.634 47.8715 181.506 47.7448C182.895 47.6532 184.288 47.6216 185.664 47.326C185.75 47.3084 185.835 47.2837 185.918 47.2556C186.604 47.0022 186.883 46.5657 186.956 45.6682C186.966 45.545 186.977 45.4218 186.989 45.2952C187.07 44.4293 186.709 43.581 186.072 43.1904Z" fill="#5E887C"/>
<path d="M57.49 42.28C56.81 42.28 56.23 42.19 55.75 42.01C54.99 41.73 54.44 41.4 54.1 41.02C53.74 40.66 53.56 40.27 53.56 39.85C53.56 39.31 53.83 38.74 54.37 38.14C54.89 37.56 55.62 36.99 56.56 36.43C57.5 35.89 58.58 35.41 59.8 34.99C61.02 34.59 62.32 34.29 63.7 34.09C64.32 33.99 65 33.91 65.74 33.85C66.5 33.79 67.26 33.73 68.02 33.67C68.8 33.63 69.5 33.61 70.12 33.61C70.86 32.35 71.46 31.16 71.92 30.04C72.4 28.92 72.82 27.63 73.18 26.17L73.3 25.69C72.92 26.05 72.38 26.49 71.68 27.01C71 27.51 70.2 28.02 69.28 28.54C68.38 29.04 67.41 29.46 66.37 29.8C65.35 30.14 64.3 30.31 63.22 30.31C62.38 30.31 61.57 30.18 60.79 29.92C59.95 29.62 59.19 29.12 58.51 28.42C57.85 27.7 57.32 26.82 56.92 25.78C56.54 24.72 56.35 23.55 56.35 22.27C56.35 21.33 56.47 20.33 56.71 19.27C56.95 18.19 57.34 17.09 57.88 15.97C57.26 15.33 56.77 14.62 56.41 13.84C56.07 13.06 55.9 12.26 55.9 11.44C55.9 10.72 56.05 10.01 56.35 9.31C56.65 8.59 57.12 7.9 57.76 7.24C57.94 7.04 58.11 6.94 58.27 6.94C58.35 6.94 58.39 6.98 58.39 7.06C58.39 7.18 58.32 7.32 58.18 7.48C57.72 8.04 57.38 8.63 57.16 9.25C56.94 9.87 56.83 10.49 56.83 11.11C56.83 11.81 56.96 12.5 57.22 13.18C57.5 13.86 57.89 14.49 58.39 15.07C58.49 14.87 58.59 14.67 58.69 14.47C58.81 14.27 58.93 14.07 59.05 13.87C60.01 12.31 61.18 10.97 62.56 9.85C63.96 8.73 65.45 7.87 67.03 7.27C68.61 6.65 70.15 6.34 71.65 6.34C71.91 6.34 72.16 6.35 72.4 6.37C72.66 6.39 72.92 6.42 73.18 6.46C75.12 6.76 76.57 7.41 77.53 8.41C78.49 9.41 78.97 10.53 78.97 11.77C78.97 12.63 78.73 13.49 78.25 14.35C77.79 15.21 77.08 16 76.12 16.72C75.18 17.44 74 18.02 72.58 18.46C71.18 18.9 69.55 19.14 67.69 19.18C66.23 19.2 64.79 19.02 63.37 18.64C61.95 18.24 60.75 17.72 59.77 17.08C59.27 18.14 58.9 19.18 58.66 20.2C58.44 21.2 58.33 22.14 58.33 23.02C58.33 24.5 58.64 25.77 59.26 26.83C59.88 27.89 60.74 28.6 61.84 28.96C62.16 29.06 62.48 29.13 62.8 29.17C63.14 29.21 63.47 29.23 63.79 29.23C64.69 29.23 65.59 29.1 66.49 28.84C67.41 28.56 68.26 28.2 69.04 27.76C69.82 27.32 70.48 26.86 71.02 26.38C71.58 25.88 71.95 25.42 72.13 25C72.59 23.96 73.04 23.24 73.48 22.84C73.94 22.42 74.35 22.21 74.71 22.21C75.01 22.21 75.26 22.35 75.46 22.63C75.68 22.89 75.76 23.25 75.7 23.71C75.5 25.37 75.04 26.98 74.32 28.54C73.62 30.1 72.71 31.79 71.59 33.61C72.95 33.63 74.17 33.7 75.25 33.82C76.35 33.96 77.34 34.14 78.22 34.36C78.46 34.42 78.62 34.49 78.7 34.57C78.8 34.67 78.85 34.75 78.85 34.81C78.85 34.95 78.73 35.02 78.49 35.02C78.37 35.02 78.2 34.99 77.98 34.93C77.52 34.81 76.91 34.7 76.15 34.6C75.39 34.52 74.57 34.46 73.69 34.42C72.83 34.38 72 34.36 71.2 34.36C70.36 35.56 69.36 36.64 68.2 37.6C67.06 38.58 65.85 39.42 64.57 40.12C63.29 40.82 62.03 41.35 60.79 41.71C59.57 42.09 58.47 42.28 57.49 42.28ZM66.88 18.28C67.1 18.28 67.32 18.28 67.54 18.28C67.76 18.26 67.98 18.24 68.2 18.22C70.22 18.02 71.93 17.56 73.33 16.84C74.75 16.1 75.82 15.23 76.54 14.23C77.28 13.23 77.65 12.25 77.65 11.29C77.65 10.35 77.29 9.52 76.57 8.8C75.87 8.06 74.79 7.58 73.33 7.36C73.13 7.32 72.96 7.3 72.82 7.3C72.7 7.3 72.53 7.3 72.31 7.3C71.01 7.3 69.66 7.61 68.26 8.23C66.88 8.85 65.56 9.72 64.3 10.84C63.06 11.94 61.99 13.22 61.09 14.68C60.87 15.06 60.7 15.35 60.58 15.55C60.46 15.75 60.32 15.99 60.16 16.27C60.98 16.89 61.97 17.38 63.13 17.74C64.31 18.1 65.56 18.28 66.88 18.28ZM57.46 41.35C58.24 41.35 59.16 41.2 60.22 40.9C61.28 40.62 62.38 40.18 63.52 39.58C64.68 39 65.79 38.28 66.85 37.42C67.91 36.56 68.84 35.56 69.64 34.42C68.68 34.44 67.73 34.48 66.79 34.54C65.87 34.62 64.95 34.74 64.03 34.9C63.05 35.06 62.03 35.33 60.97 35.71C59.93 36.11 58.96 36.57 58.06 37.09C57.18 37.61 56.46 38.13 55.9 38.65C55.36 39.19 55.09 39.68 55.09 40.12C55.09 40.38 55.2 40.61 55.42 40.81C55.66 41.01 56.03 41.16 56.53 41.26C56.81 41.32 57.12 41.35 57.46 41.35ZM84.8245 31.09C84.6045 31.11 84.3545 31.06 84.0745 30.94C83.7945 30.82 83.5445 30.6 83.3245 30.28C83.1245 29.96 83.0245 29.51 83.0245 28.93C83.0245 28.45 83.1145 27.87 83.2945 27.19C83.0545 27.57 82.7445 28.04 82.3645 28.6C81.9845 29.14 81.5745 29.62 81.1345 30.04C80.7545 30.4 80.3945 30.66 80.0545 30.82C79.7145 30.98 79.4045 31.06 79.1245 31.06C78.6045 31.06 78.1845 30.83 77.8645 30.37C77.5445 29.89 77.3845 29.27 77.3845 28.51C77.3845 27.71 77.5845 26.8 77.9845 25.78C78.3845 24.76 79.0345 23.7 79.9345 22.6C80.5145 21.9 81.2145 21.34 82.0345 20.92C82.8745 20.48 83.6945 20.26 84.4945 20.26C84.9545 20.26 85.3945 20.34 85.8145 20.5C86.2345 20.64 86.6045 20.88 86.9245 21.22C87.0645 21.36 87.1345 21.52 87.1345 21.7C87.1345 21.82 87.0845 21.92 86.9845 22C86.8845 22.08 86.7545 22.1 86.5945 22.06C86.3745 21.36 85.9045 21.01 85.1845 21.01C84.8445 21.01 84.4545 21.12 84.0145 21.34C83.3345 21.7 82.6245 22.29 81.8845 23.11C81.1645 23.93 80.5345 24.78 79.9945 25.66C79.9145 25.78 79.7845 26.01 79.6045 26.35C79.4445 26.69 79.2845 27.07 79.1245 27.49C78.9645 27.91 78.8545 28.32 78.7945 28.72C78.7745 28.84 78.7645 28.93 78.7645 28.99C78.7645 29.03 78.7645 29.1 78.7645 29.2C78.7645 29.86 79.0145 30.19 79.5145 30.19C80.1145 30.19 80.7945 29.75 81.5545 28.87C82.0745 28.23 82.5445 27.56 82.9645 26.86C83.3845 26.16 83.8145 25.41 84.2545 24.61C84.5545 24.07 84.8345 23.62 85.0945 23.26C85.3545 22.9 85.7245 22.72 86.2045 22.72C86.4245 22.72 86.6445 22.75 86.8645 22.81C87.0845 22.87 87.3145 22.88 87.5545 22.84C87.3945 23 87.1745 23.3 86.8945 23.74C86.6345 24.18 86.3545 24.68 86.0545 25.24C85.7545 25.8 85.4845 26.37 85.2445 26.95C85.0045 27.53 84.8345 28.03 84.7345 28.45C84.7145 28.57 84.6845 28.74 84.6445 28.96C84.6245 29.18 84.6145 29.34 84.6145 29.44C84.6145 30 84.7745 30.28 85.0945 30.28C85.4145 30.28 85.7545 30.09 86.1145 29.71C86.4945 29.33 86.8645 28.86 87.2245 28.3C87.5845 27.74 87.9145 27.18 88.2145 26.62C88.5145 26.04 88.7545 25.57 88.9345 25.21C89.0145 25.01 89.1345 24.91 89.2945 24.91C89.3945 24.91 89.4445 24.98 89.4445 25.12C89.4445 25.18 89.4145 25.29 89.3545 25.45C89.1145 25.95 88.8245 26.52 88.4845 27.16C88.1445 27.78 87.7745 28.39 87.3745 28.99C86.9745 29.57 86.5545 30.06 86.1145 30.46C85.6945 30.84 85.2645 31.05 84.8245 31.09ZM90.9913 31.09C90.1513 31.09 89.5813 30.87 89.2813 30.43C88.9813 29.97 88.8313 29.43 88.8313 28.81C88.8313 28.17 88.9213 27.51 89.1013 26.83C89.2813 26.15 89.4413 25.58 89.5813 25.12C89.9013 24 90.3013 22.81 90.7813 21.55C91.2813 20.27 91.8213 19.02 92.4013 17.8C93.0013 16.56 93.5913 15.45 94.1713 14.47C94.6313 13.69 95.1213 13.11 95.6413 12.73C96.1813 12.33 96.6513 12.13 97.0513 12.13C97.3713 12.13 97.6213 12.25 97.8013 12.49C98.0013 12.71 98.1013 13.05 98.1013 13.51C98.1013 13.83 98.0413 14.21 97.9213 14.65C97.8213 15.09 97.6413 15.59 97.3813 16.15C96.6813 17.71 95.8413 19.27 94.8613 20.83C93.9013 22.39 92.6813 23.85 91.2013 25.21C91.1213 25.47 91.0113 25.78 90.8713 26.14C90.7513 26.48 90.6413 26.83 90.5413 27.19C90.4213 27.73 90.3613 28.19 90.3613 28.57C90.3613 29.19 90.4813 29.66 90.7213 29.98C90.9813 30.28 91.2913 30.43 91.6513 30.43C91.9713 30.43 92.3113 30.32 92.6713 30.1C93.0313 29.86 93.3713 29.52 93.6913 29.08C94.1713 28.38 94.6013 27.67 94.9813 26.95C95.3813 26.21 95.6813 25.64 95.8813 25.24C96.0013 25.02 96.1313 24.91 96.2713 24.91C96.3713 24.91 96.4213 24.97 96.4213 25.09C96.4213 25.19 96.3913 25.3 96.3313 25.42C96.1513 25.82 95.9113 26.34 95.6113 26.98C95.3313 27.6 94.9713 28.23 94.5313 28.87C94.1113 29.49 93.6013 30.02 93.0013 30.46C92.4213 30.88 91.7513 31.09 90.9913 31.09ZM91.4413 24.25C92.1613 23.51 92.8613 22.66 93.5413 21.7C94.2213 20.72 94.8513 19.71 95.4313 18.67C96.0313 17.61 96.5313 16.61 96.9313 15.67C97.0713 15.37 97.1813 15.04 97.2613 14.68C97.3613 14.32 97.4113 14.02 97.4113 13.78C97.4113 13.5 97.3413 13.36 97.2013 13.36C97.1213 13.36 97.0013 13.44 96.8413 13.6C96.6813 13.74 96.4713 13.99 96.2113 14.35C95.8313 14.85 95.4113 15.53 94.9513 16.39C94.5113 17.25 94.0613 18.17 93.6013 19.15C93.1413 20.13 92.7213 21.08 92.3413 22C91.9613 22.9 91.6613 23.65 91.4413 24.25ZM98.608 31.12C97.868 31.12 97.198 30.88 96.598 30.4C96.018 29.92 95.728 29.19 95.728 28.21C95.728 27.31 95.948 26.35 96.388 25.33C96.828 24.29 97.388 23.38 98.068 22.6C98.648 21.92 99.298 21.36 100.018 20.92C100.738 20.48 101.418 20.26 102.058 20.26C102.498 20.26 102.878 20.38 103.198 20.62C103.538 20.88 103.708 21.25 103.708 21.73C103.708 22.23 103.518 22.78 103.138 23.38C102.758 23.98 102.218 24.54 101.518 25.06C101.218 25.28 100.838 25.49 100.378 25.69C99.918 25.89 99.458 26.06 98.998 26.2C98.538 26.32 98.158 26.38 97.858 26.38C97.758 26.62 97.658 26.94 97.558 27.34C97.478 27.74 97.438 28.15 97.438 28.57C97.438 29.07 97.538 29.52 97.738 29.92C97.938 30.32 98.308 30.52 98.848 30.52C99.508 30.52 100.108 30.33 100.648 29.95C101.188 29.57 101.668 29.1 102.088 28.54C102.508 27.96 102.858 27.38 103.138 26.8C103.438 26.22 103.678 25.73 103.858 25.33C103.978 25.05 104.138 24.91 104.338 24.91C104.438 24.91 104.488 24.96 104.488 25.06C104.488 25.14 104.458 25.24 104.398 25.36C104.118 25.96 103.818 26.6 103.498 27.28C103.178 27.94 102.798 28.57 102.358 29.17C101.918 29.75 101.388 30.22 100.768 30.58C100.168 30.94 99.448 31.12 98.608 31.12ZM98.068 25.84C98.348 25.84 98.818 25.74 99.478 25.54C100.138 25.32 100.738 24.98 101.278 24.52C101.798 24.06 102.198 23.56 102.478 23.02C102.758 22.46 102.898 21.99 102.898 21.61C102.898 21.17 102.738 20.95 102.418 20.95C102.178 20.95 101.848 21.11 101.428 21.43C101.008 21.75 100.488 22.29 99.868 23.05C99.488 23.53 99.128 24.05 98.788 24.61C98.448 25.17 98.208 25.58 98.068 25.84ZM108.089 31.03C107.709 31.03 107.329 30.88 106.949 30.58C106.569 30.26 106.379 29.75 106.379 29.05C106.379 28.51 106.509 27.89 106.769 27.19C107.009 26.51 107.329 25.85 107.729 25.21C108.149 24.57 108.449 24.05 108.629 23.65C108.689 23.49 108.719 23.35 108.719 23.23C108.719 22.87 108.489 22.61 108.029 22.45C107.589 22.29 107.009 22.2 106.289 22.18L105.929 23.17C105.709 23.81 105.399 24.56 104.999 25.42C104.619 26.28 104.189 27.11 103.709 27.91C103.249 28.71 102.769 29.35 102.269 29.83C102.229 29.87 102.179 29.89 102.119 29.89C102.039 29.89 101.989 29.84 101.969 29.74C101.929 29.64 101.969 29.52 102.089 29.38C102.869 28.34 103.569 27.19 104.189 25.93C104.809 24.65 105.329 23.35 105.749 22.03C106.189 20.71 106.509 19.49 106.709 18.37C106.769 18.05 106.879 17.82 107.039 17.68C107.199 17.52 107.369 17.44 107.549 17.44C107.809 17.44 108.049 17.57 108.269 17.83C108.489 18.07 108.599 18.42 108.599 18.88C108.599 18.96 108.589 19.05 108.569 19.15C108.569 19.25 108.559 19.35 108.539 19.45C108.459 19.87 108.219 20.27 107.819 20.65C107.439 21.01 107.129 21.28 106.889 21.46C107.089 21.48 107.299 21.5 107.519 21.52C107.739 21.52 107.979 21.52 108.239 21.52C109.179 21.52 110.109 21.46 111.029 21.34C111.069 21.46 111.089 21.55 111.089 21.61C111.089 21.87 111.009 22.2 110.849 22.6C110.709 23 110.559 23.36 110.399 23.68C110.319 23.86 110.159 24.19 109.919 24.67C109.679 25.13 109.419 25.66 109.139 26.26C108.859 26.84 108.619 27.42 108.419 28C108.239 28.56 108.149 29.04 108.149 29.44C108.149 29.96 108.349 30.22 108.749 30.22C109.049 30.22 109.379 30.03 109.739 29.65C110.099 29.25 110.449 28.77 110.789 28.21C111.149 27.63 111.469 27.07 111.749 26.53C112.049 25.97 112.279 25.53 112.439 25.21C112.519 25.01 112.629 24.91 112.769 24.91C112.849 24.91 112.889 24.98 112.889 25.12C112.889 25.2 112.859 25.32 112.799 25.48C112.579 25.94 112.319 26.46 112.019 27.04C111.719 27.62 111.379 28.19 110.999 28.75C110.639 29.31 110.239 29.8 109.799 30.22C109.379 30.62 108.919 30.88 108.419 31C108.359 31.02 108.249 31.03 108.089 31.03ZM116.512 31.03C116.132 31.03 115.752 30.88 115.372 30.58C114.992 30.26 114.802 29.75 114.802 29.05C114.802 28.51 114.932 27.89 115.192 27.19C115.432 26.51 115.752 25.85 116.152 25.21C116.572 24.57 116.872 24.05 117.052 23.65C117.112 23.49 117.142 23.35 117.142 23.23C117.142 22.87 116.912 22.61 116.452 22.45C116.012 22.29 115.432 22.2 114.712 22.18L114.352 23.17C114.132 23.81 113.822 24.56 113.422 25.42C113.042 26.28 112.612 27.11 112.132 27.91C111.672 28.71 111.192 29.35 110.692 29.83C110.652 29.87 110.602 29.89 110.542 29.89C110.462 29.89 110.412 29.84 110.392 29.74C110.352 29.64 110.392 29.52 110.512 29.38C111.292 28.34 111.992 27.19 112.612 25.93C113.232 24.65 113.752 23.35 114.172 22.03C114.612 20.71 114.932 19.49 115.132 18.37C115.192 18.05 115.302 17.82 115.462 17.68C115.622 17.52 115.792 17.44 115.972 17.44C116.232 17.44 116.472 17.57 116.692 17.83C116.912 18.07 117.022 18.42 117.022 18.88C117.022 18.96 117.012 19.05 116.992 19.15C116.992 19.25 116.982 19.35 116.962 19.45C116.882 19.87 116.642 20.27 116.242 20.65C115.862 21.01 115.552 21.28 115.312 21.46C115.512 21.48 115.722 21.5 115.942 21.52C116.162 21.52 116.402 21.52 116.662 21.52C117.602 21.52 118.532 21.46 119.452 21.34C119.492 21.46 119.512 21.55 119.512 21.61C119.512 21.87 119.432 22.2 119.272 22.6C119.132 23 118.982 23.36 118.822 23.68C118.742 23.86 118.582 24.19 118.342 24.67C118.102 25.13 117.842 25.66 117.562 26.26C117.282 26.84 117.042 27.42 116.842 28C116.662 28.56 116.572 29.04 116.572 29.44C116.572 29.96 116.772 30.22 117.172 30.22C117.472 30.22 117.802 30.03 118.162 29.65C118.522 29.25 118.872 28.77 119.212 28.21C119.572 27.63 119.892 27.07 120.172 26.53C120.472 25.97 120.702 25.53 120.862 25.21C120.942 25.01 121.052 24.91 121.192 24.91C121.272 24.91 121.312 24.98 121.312 25.12C121.312 25.2 121.282 25.32 121.222 25.48C121.002 25.94 120.742 26.46 120.442 27.04C120.142 27.62 119.802 28.19 119.422 28.75C119.062 29.31 118.662 29.8 118.222 30.22C117.802 30.62 117.342 30.88 116.842 31C116.782 31.02 116.672 31.03 116.512 31.03ZM117.314 40.57C116.274 40.57 115.534 40.36 115.094 39.94C114.654 39.54 114.434 39.06 114.434 38.5C114.434 38.2 114.474 37.94 114.554 37.72C114.634 37.5 114.754 37.22 114.914 36.88C115.194 36.3 115.584 35.8 116.084 35.38C116.584 34.96 117.124 34.62 117.704 34.36C118.744 33.88 119.924 33.49 121.244 33.19C122.584 32.89 123.864 32.56 125.084 32.2C125.464 31.54 125.814 30.79 126.134 29.95C126.454 29.09 126.744 28.26 127.004 27.46C127.264 26.64 127.474 25.97 127.634 25.45C127.394 25.89 127.084 26.43 126.704 27.07C126.344 27.69 125.934 28.3 125.474 28.9C125.014 29.5 124.514 30 123.974 30.4C123.454 30.8 122.904 31 122.324 31C122.104 31 121.834 30.95 121.514 30.85C121.214 30.75 120.944 30.57 120.704 30.31C120.484 30.03 120.374 29.62 120.374 29.08C120.374 28.56 120.494 28.06 120.734 27.58C120.994 27.08 121.234 26.6 121.454 26.14C121.394 26.14 121.324 26.12 121.244 26.08C121.184 26.04 121.154 25.98 121.154 25.9C121.154 25.82 121.174 25.74 121.214 25.66C121.294 25.5 121.384 25.33 121.484 25.15C121.584 24.97 121.674 24.78 121.754 24.58C122.054 23.96 122.354 23.37 122.654 22.81C122.954 22.23 123.214 21.72 123.434 21.28C123.654 20.84 124.034 20.62 124.574 20.62H126.434C126.294 20.74 126.114 20.88 125.894 21.04C125.694 21.18 125.504 21.4 125.324 21.7C124.784 22.62 124.314 23.51 123.914 24.37C123.514 25.21 123.084 26.11 122.624 27.07C122.404 27.53 122.244 27.95 122.144 28.33C122.044 28.71 121.994 29.04 121.994 29.32C121.994 29.98 122.214 30.31 122.654 30.31C123.134 30.31 123.714 29.92 124.394 29.14C124.954 28.48 125.514 27.7 126.074 26.8C126.654 25.88 127.204 24.94 127.724 23.98C128.264 23 128.734 22.1 129.134 21.28C129.354 20.84 129.744 20.62 130.304 20.62H131.954C131.374 21.02 130.924 21.54 130.604 22.18C130.304 22.82 129.964 23.64 129.584 24.64C129.164 25.74 128.764 26.88 128.384 28.06C128.024 29.22 127.614 30.39 127.154 31.57C127.814 31.35 128.554 31.01 129.374 30.55C130.214 30.09 130.924 29.43 131.504 28.57C131.964 27.89 132.354 27.24 132.674 26.62C133.014 25.98 133.254 25.52 133.394 25.24C133.474 25.04 133.584 24.94 133.724 24.94C133.864 24.94 133.934 25.03 133.934 25.21C133.934 25.31 133.904 25.42 133.844 25.54C133.324 26.58 132.854 27.46 132.434 28.18C132.034 28.88 131.584 29.49 131.084 30.01C130.604 30.51 130.014 30.95 129.314 31.33C128.614 31.73 127.724 32.13 126.644 32.53C126.164 33.39 125.614 34.28 124.994 35.2C124.394 36.14 123.704 37.01 122.924 37.81C122.164 38.63 121.314 39.29 120.374 39.79C119.454 40.31 118.434 40.57 117.314 40.57ZM116.594 39.97C117.254 39.97 117.934 39.77 118.634 39.37C119.334 38.97 120.014 38.46 120.674 37.84C121.334 37.24 121.934 36.62 122.474 35.98C123.034 35.36 123.484 34.81 123.824 34.33C123.924 34.19 124.034 34.01 124.154 33.79C124.274 33.57 124.394 33.36 124.514 33.16C123.534 33.42 122.454 33.7 121.274 34C120.114 34.32 119.104 34.67 118.244 35.05C117.284 35.45 116.534 36.02 115.994 36.76C115.434 37.5 115.154 38.16 115.154 38.74C115.154 39.1 115.274 39.39 115.514 39.61C115.734 39.85 116.094 39.97 116.594 39.97Z" fill="white"/>
</svg>
