<svg width="20" height="20" viewBox="0 0 20 20" fill="none" xmlns="http://www.w3.org/2000/svg">
<path d="M10 0C4.48241 0 0 4.48241 0 10C0 11.7735 0.486386 13.4286 1.29755 14.8735L0.0161345 19.448C-0.00433736 19.5212 -0.00526235 19.5985 0.0134518 19.6722C0.0321659 19.7459 0.0698654 19.8133 0.122791 19.8679C0.175717 19.9225 0.24202 19.9622 0.315089 19.9831C0.388159 20.0041 0.465442 20.0055 0.539232 19.9873L5.3091 18.8052C6.71071 19.5534 8.30113 20 10 20C15.5176 20 20 15.5176 20 10C20 4.48241 15.5176 0 10 0ZM10 0.869565C15.0476 0.869565 19.1304 4.95238 19.1304 10C19.1304 15.0476 15.0476 19.1304 10 19.1304C8.38175 19.1304 6.86614 18.7085 5.54857 17.9713C5.45221 17.9175 5.33897 17.9023 5.23183 17.9288L1.05469 18.964L2.17476 14.9677C2.19079 14.9113 2.19521 14.8521 2.18777 14.7939C2.18033 14.7357 2.16117 14.6795 2.13145 14.6289C1.33073 13.2711 0.869565 11.6914 0.869565 10C0.869565 4.95238 4.95238 0.869565 10 0.869565ZM6.36634 4.78261C6.08763 4.78261 5.68958 4.8863 5.3626 5.23862C5.1662 5.45024 4.34783 6.24761 4.34783 7.64946C4.34783 9.11099 5.36147 10.3721 5.48404 10.5341H5.48488V10.535C5.47326 10.5197 5.64045 10.7618 5.86362 11.0521C6.08679 11.3425 6.39887 11.7238 6.79093 12.1365C7.57505 12.9621 8.67751 13.9163 10.0459 14.4998C10.676 14.7682 11.1731 14.9302 11.5498 15.0484C12.2478 15.2676 12.8835 15.2343 13.3611 15.1639C13.7185 15.1112 14.1117 14.9396 14.5007 14.6934C14.8897 14.4473 15.2709 14.1412 15.439 13.6761C15.5595 13.3427 15.6207 13.0346 15.6428 12.7811C15.6539 12.6543 15.6553 12.5424 15.6471 12.4389C15.6388 12.3353 15.6476 12.2559 15.5511 12.0975C15.3487 11.7651 15.1195 11.7565 14.8803 11.6381C14.7474 11.5723 14.369 11.3875 13.9895 11.2067C13.6104 11.0261 13.2821 10.8661 13.08 10.794C12.9523 10.748 12.7963 10.6819 12.5713 10.7074C12.3463 10.7328 12.1241 10.8952 11.9947 11.087C11.8721 11.2687 11.3784 11.8515 11.2279 12.0228C11.2259 12.0215 11.239 12.0276 11.1795 11.9981C10.9934 11.906 10.7657 11.8277 10.4288 11.65C10.092 11.4723 9.67055 11.2098 9.20941 10.8033V10.8025C8.52306 10.1982 8.04229 9.43961 7.89062 9.18478C7.90084 9.17263 7.88941 9.18735 7.91101 9.1661L7.91185 9.16525C8.06686 9.01258 8.20423 8.83023 8.32031 8.6965C8.48489 8.5069 8.55753 8.33975 8.63621 8.18359C8.79302 7.87236 8.70571 7.52989 8.61498 7.34969V7.34884C8.62124 7.36131 8.5659 7.2392 8.50628 7.09834C8.4465 6.95707 8.37029 6.77393 8.28889 6.57863C8.1261 6.18804 7.94436 5.74996 7.83628 5.49338V5.49253C7.70895 5.1903 7.53669 4.97257 7.31148 4.86753C7.08627 4.76249 6.88729 4.79235 6.87925 4.79195H6.8784C6.71768 4.78454 6.54132 4.78261 6.36634 4.78261ZM6.36634 5.65217C6.53396 5.65217 6.69922 5.65422 6.83764 5.66067C6.98002 5.66776 6.97117 5.66834 6.94378 5.65557C6.91596 5.6426 6.95371 5.63838 7.03465 5.8305C7.14048 6.08174 7.32312 6.52141 7.48641 6.91321C7.56806 7.10911 7.64447 7.29296 7.7055 7.43716C7.76653 7.58136 7.7996 7.66187 7.83798 7.73862V7.73947L7.83882 7.74032C7.87645 7.81456 7.87312 7.76703 7.86005 7.79297C7.7683 7.97507 7.75585 8.01978 7.66304 8.1267C7.52173 8.28949 7.37759 8.47104 7.30129 8.5462C7.23454 8.61177 7.1141 8.71393 7.03889 8.91389C6.96357 9.11416 6.99873 9.38894 7.11956 9.59409C7.28045 9.86722 7.81061 10.7301 8.63451 11.4555C9.15337 11.9129 9.63677 12.2156 10.0229 12.4193C10.4091 12.623 10.7236 12.742 10.794 12.7768C10.9611 12.8595 11.1438 12.9238 11.3561 12.8983C11.5685 12.8728 11.7516 12.7439 11.8682 12.6121L11.8691 12.6112C12.0242 12.4354 12.4852 11.909 12.7064 11.5846C12.7157 11.5879 12.7127 11.5853 12.7862 11.6118V11.6126H12.787C12.8206 11.6246 13.241 11.8127 13.6158 11.9913C13.9907 12.17 14.3711 12.3556 14.4947 12.4168C14.6731 12.5051 14.7574 12.5626 14.7792 12.5628C14.7807 12.6011 14.7822 12.6425 14.7767 12.7055C14.7614 12.8801 14.7147 13.1218 14.6213 13.3806C14.5755 13.5073 14.337 13.7685 14.0362 13.9589C13.7354 14.1493 13.3693 14.2837 13.2337 14.3037C12.826 14.3637 12.342 14.3857 11.8105 14.2187C11.4419 14.1031 10.9823 13.9533 10.3872 13.6999C9.18035 13.1852 8.1546 12.3094 7.42187 11.5379C7.05551 11.1521 6.76198 10.7931 6.55316 10.5214C6.34472 10.2503 6.25371 10.1092 6.17782 10.0093L6.17697 10.0085C6.04226 9.83035 5.21739 8.68298 5.21739 7.64946C5.21739 6.55565 5.72543 6.12671 6.00034 5.8305C6.14466 5.675 6.30244 5.65217 6.36634 5.65217Z" fill="#CBD5FF"/>
</svg>
