<svg width="20" height="20" viewBox="0 0 20 20" fill="none" xmlns="http://www.w3.org/2000/svg">
<path d="M5.90909 0C2.65113 0 0 2.65113 0 5.90909V14.0909C0 17.3489 2.65113 20 5.90909 20H14.0909C17.3489 20 20 17.3489 20 14.0909V5.90909C20 2.65113 17.3489 0 14.0909 0H5.90909ZM5.90909 0.909091H14.0909C16.8575 0.909091 19.0909 3.14251 19.0909 5.90909V14.0909C19.0909 16.8575 16.8575 19.0909 14.0909 19.0909H5.90909C3.14251 19.0909 0.909091 16.8575 0.909091 14.0909V5.90909C0.909091 3.14251 3.14251 0.909091 5.90909 0.909091ZM15.4545 3.63636C15.2134 3.63636 14.9822 3.73214 14.8117 3.90263C14.6412 4.07312 14.5455 4.30435 14.5455 4.54545C14.5455 4.78656 14.6412 5.01779 14.8117 5.18828C14.9822 5.35877 15.2134 5.45455 15.4545 5.45455C15.6957 5.45455 15.9269 5.35877 16.0974 5.18828C16.2679 5.01779 16.3636 4.78656 16.3636 4.54545C16.3636 4.30435 16.2679 4.07312 16.0974 3.90263C15.9269 3.73214 15.6957 3.63636 15.4545 3.63636ZM10 5C7.24396 5 5 7.24396 5 10C5 12.756 7.24396 15 10 15C12.756 15 15 12.756 15 10C15 7.24396 12.756 5 10 5ZM10 5.90909C12.2647 5.90909 14.0909 7.73527 14.0909 10C14.0909 12.2647 12.2647 14.0909 10 14.0909C7.73527 14.0909 5.90909 12.2647 5.90909 10C5.90909 7.73527 7.73527 5.90909 10 5.90909Z" fill="#CBD5FF"/>
</svg>
