<svg width="20" height="20" viewBox="0 0 20 20" fill="none" xmlns="http://www.w3.org/2000/svg">
<path d="M10 0C4.48253 0 0 4.4897 0 10.016C0 15.0327 3.69433 19.1845 8.50586 19.9084L9.02788 19.9876V12.095H6.66548V10.4926H9.02788V8.36475C9.02788 7.05444 9.34181 6.19145 9.86151 5.65001C10.3812 5.10857 11.1491 4.8355 12.2177 4.8355C13.0721 4.8355 13.4046 4.88735 13.7207 4.9262V6.23777H12.6083C11.9771 6.23777 11.4593 6.59049 11.1905 7.06029C10.9217 7.53009 10.8381 8.09103 10.8381 8.66264V10.4917H13.6213L13.3736 12.0941H10.8381V20L11.3539 19.9298C16.2338 19.2669 20 15.0818 20 10.016C20 4.4897 15.5175 0 10 0ZM10 0.910546C15.0262 0.910546 19.0909 4.9818 19.0909 10.016C19.0909 14.4457 15.9254 18.0888 11.7472 18.9089V13.0046H14.1531L14.6813 9.58118H11.7472V8.66264C11.7472 8.1903 11.8334 7.76709 11.9789 7.51289C12.1243 7.2587 12.2645 7.14832 12.6083 7.14832H14.6298V4.1019L14.2356 4.04855C13.963 4.0116 13.3405 3.92495 12.2177 3.92495C10.989 3.92495 9.93435 4.26019 9.20632 5.01867C8.47829 5.77715 8.11879 6.90655 8.11879 8.36475V9.58207H5.75639V13.0055H8.11879V18.8805C4.00772 18.0082 0.909091 14.3978 0.909091 10.016C0.909091 4.9818 4.97384 0.910546 10 0.910546Z" fill="#CBD5FF"/>
</svg>
