<?xml version="1.0" encoding="UTF-8" standalone="no"?>
<!-- Created with Inkscape (http://www.inkscape.org/) -->

<svg
   xmlns:dc="http://purl.org/dc/elements/1.1/"
   xmlns:cc="http://creativecommons.org/ns#"
   xmlns:rdf="http://www.w3.org/1999/02/22-rdf-syntax-ns#"
   xmlns:svg="http://www.w3.org/2000/svg"
   xmlns="http://www.w3.org/2000/svg"
   xmlns:sodipodi="http://sodipodi.sourceforge.net/DTD/sodipodi-0.dtd"
   xmlns:inkscape="http://www.inkscape.org/namespaces/inkscape"
   width="5.8208337mm"
   height="5.2916665mm"
   viewBox="0 0 5.8208337 5.2916665"
   version="1.1"
   id="svg6854"
   inkscape:version="0.92.5 (2060ec1f9f, 2020-04-08)"
   sodipodi:docname="navbottom_profil_active.svg">
  <defs
     id="defs6848" />
  <sodipodi:namedview
     id="base"
     pagecolor="#ffffff"
     bordercolor="#666666"
     borderopacity="1.0"
     inkscape:pageopacity="0.0"
     inkscape:pageshadow="2"
     inkscape:zoom="7.9195959"
     inkscape:cx="-19.451924"
     inkscape:cy="26.226425"
     inkscape:document-units="mm"
     inkscape:current-layer="layer1"
     showgrid="false"
     inkscape:window-width="1366"
     inkscape:window-height="704"
     inkscape:window-x="0"
     inkscape:window-y="27"
     inkscape:window-maximized="1" />
  <metadata
     id="metadata6851">
    <rdf:RDF>
      <cc:Work
         rdf:about="">
        <dc:format>image/svg+xml</dc:format>
        <dc:type
           rdf:resource="http://purl.org/dc/dcmitype/StillImage" />
        <dc:title></dc:title>
      </cc:Work>
    </rdf:RDF>
  </metadata>
  <g
     inkscape:label="Layer 1"
     inkscape:groupmode="layer"
     id="layer1"
     transform="translate(97.433103,-202.29484)">
    <g
       transform="matrix(0.00593902,0,0,0.00480423,-97.492493,202.79477)"
       style="fill:#2989a8;fill-opacity:1;stroke-width:49.53284454"
       id="g7632">
      <path
         style="fill:#2989a8;fill-opacity:1;stroke:none;stroke-width:59.43940353;stroke-miterlimit:4;stroke-dasharray:none;stroke-opacity:1"
         inkscape:connector-curvature="0"
         d="m 509,-103.9599 c -9.8,0 -17.1,0.6 -20.9,1.1 -4,-0.5 -11.8,-1.2 -22.2,-1.2 -33.2,0 -96.2,7.399995 -145.9,57.199995 -46.2,46.20000015 -69.5,117.4 -69.3,211.500005 0.3,161.5 62.7,256.5 115,307.8 57.2,56.1 114.5,73.4 116.9,74.1 1.8,0.5 3.6,0.8 5.4,0.8 1.6,0 3.3,-0.2 4.9,-0.6 2.6,-0.7 256.6,-71.6 244.8,-382.9 -9.6,-248.500005 -177.5,-267.8 -228.7,-267.8 z"
         id="path7620"
         sodipodi:nodetypes="scsccccsccs" />
      <path
         sodipodi:nodetypes="ccssssssccc"
         style="fill:#2989a8;fill-opacity:1;stroke:none;stroke-width:59.43942261;stroke-miterlimit:4;stroke-dasharray:none;stroke-opacity:1"
         inkscape:connector-curvature="0"
         d="M 280.9,569.3 C 211.9,587.8 85.4,633.7 13.6,732.7 11.3,736 10,739.9 10,744 v 234.2 c 0,10.6 8.6,19.2 19.2,19.2 h 941.7 c 10.6,0 19.2,-8.6 19.2,-19.2 V 744 c 0,-4 -1.3,-8 -3.7,-11.3 C 911,628.7 771.90129,583.19388 715.6,568.4 532.56365,756.1281 479.8837,787.93695 280.9,569.3 Z"
         id="path7622" />
    </g>
  </g>
</svg>
