<?xml version="1.0" encoding="UTF-8" standalone="no"?>
<!-- Created with Inkscape (http://www.inkscape.org/) -->

<svg
   xmlns:dc="http://purl.org/dc/elements/1.1/"
   xmlns:cc="http://creativecommons.org/ns#"
   xmlns:rdf="http://www.w3.org/1999/02/22-rdf-syntax-ns#"
   xmlns:svg="http://www.w3.org/2000/svg"
   xmlns="http://www.w3.org/2000/svg"
   xmlns:sodipodi="http://sodipodi.sourceforge.net/DTD/sodipodi-0.dtd"
   xmlns:inkscape="http://www.inkscape.org/namespaces/inkscape"
   width="5.8204923mm"
   height="5.2903471mm"
   viewBox="0 0 5.8204922 5.2903472"
   version="1.1"
   id="svg3782"
   inkscape:version="0.92.5 (2060ec1f9f, 2020-04-08)"
   sodipodi:docname="navbottom_jenis.svg">
  <defs
     id="defs3776" />
  <sodipodi:namedview
     id="base"
     pagecolor="#ffffff"
     bordercolor="#666666"
     borderopacity="1.0"
     inkscape:pageopacity="0.0"
     inkscape:pageshadow="2"
     inkscape:zoom="11.313708"
     inkscape:cx="6.6714887"
     inkscape:cy="4.3698078"
     inkscape:document-units="mm"
     inkscape:current-layer="g4399"
     showgrid="false"
     inkscape:window-width="1366"
     inkscape:window-height="704"
     inkscape:window-x="0"
     inkscape:window-y="27"
     inkscape:window-maximized="1" />
  <metadata
     id="metadata3779">
    <rdf:RDF>
      <cc:Work
         rdf:about="">
        <dc:format>image/svg+xml</dc:format>
        <dc:type
           rdf:resource="http://purl.org/dc/dcmitype/StillImage" />
        <dc:title></dc:title>
      </cc:Work>
    </rdf:RDF>
  </metadata>
  <g
     inkscape:label="Layer 1"
     inkscape:groupmode="layer"
     id="layer1"
     transform="translate(37.718154,-145.45183)">
    <g
       transform="matrix(0.92853981,0,0,0.9152224,-44.076287,-81.436496)"
       style="stroke:#7a7a7a;stroke-width:0.28701121;stroke-miterlimit:4;stroke-dasharray:none;stroke-opacity:1"
       id="g2259">
      <g
         id="g4393"
         transform="matrix(0.95208281,0,0,0.96871947,0.3364342,7.9300778)"
         style="stroke-width:0.29885635">
        <g
           id="g4399"
           transform="matrix(0.95448182,0,0,0.92003368,0.31959035,20.272645)"
           style="stroke-width:0.31891635">
          <g
             id="g6938"
             transform="matrix(0.98951627,0,0,0.99160899,0.0736079,2.127245)"
             style="stroke-width:0.32195494">
            <path
               style="fill:none;fill-opacity:1;stroke:#666666;stroke-width:0.38634598;stroke-miterlimit:4;stroke-dasharray:none;stroke-opacity:1"
               inkscape:connector-curvature="0"
               d="m 8.4039042,247.36058 c -0.7638364,0 -1.3827458,0.56258 -1.3827458,1.25691 0,0.69432 0.6189094,1.25691 1.3827458,1.25691 h 1.0703214 c 0.1722492,0 0.3118305,-0.12688 0.3118305,-0.28345 v -0.97346 c 0,-0.69433 -0.6189094,-1.25691 -1.3821519,-1.25691 z"
               id="path2145"
               sodipodi:nodetypes="sssssss" />
            <path
               style="fill:none;fill-opacity:1;stroke:#666666;stroke-width:0.38634598;stroke-miterlimit:4;stroke-dasharray:none;stroke-opacity:1"
               inkscape:connector-curvature="0"
               d="m 13.605793,248.61749 c 0,-0.69433 -0.61891,-1.25691 -1.382152,-1.25691 -0.763243,0 -1.382746,0.56258 -1.382746,1.25691 v 0.97292 c 0,0.15657 0.139581,0.28345 0.311831,0.28345 h 1.070915 c 0.763242,0 1.382152,-0.56259 1.382152,-1.25637 z"
               id="path2147"
               sodipodi:nodetypes="sssssss" />
            <path
               style="fill:none;fill-opacity:1;stroke:#666666;stroke-width:0.38634598;stroke-miterlimit:4;stroke-dasharray:none;stroke-opacity:1"
               inkscape:connector-curvature="0"
               d="m 8.4039042,253.51426 v 0 0 c 0.7638365,0 1.3827459,-0.56258 1.3827459,-1.25691 v -0.97292 c 0,-0.15657 -0.1395813,-0.28345 -0.3118306,-0.28345 H 8.4039042 c -0.7638364,0 -1.3827458,0.56259 -1.3827458,1.25691 0,0.69433 0.6189094,1.25637 1.3827458,1.25637 z"
               id="path2149"
               sodipodi:nodetypes="cccsssssc" />
            <path
               style="fill:none;fill-opacity:1;stroke:#666666;stroke-width:0.38634598;stroke-miterlimit:4;stroke-dasharray:none;stroke-opacity:1"
               inkscape:connector-curvature="0"
               d="m 13.605793,252.25789 v 0 0 c 0,-0.69432 -0.61891,-1.25691 -1.382746,-1.25691 h -1.070321 c -0.17225,0 -0.311831,0.12688 -0.311831,0.28345 v 0.97346 c 0,0.69433 0.618909,1.25691 1.382746,1.25691 0.763836,0 1.382152,-0.56312 1.382152,-1.25691 z"
               id="path2151"
               sodipodi:nodetypes="cccsssssc" />
          </g>
        </g>
        <g
           transform="matrix(0.00671054,0,0,0.0060872,-11.68246,246.74562)"
           id="g2203"
           style="fill:#7a7a7a;fill-opacity:1;stroke-width:2184.7265625">
          <g
             style="stroke-width:2184.7265625"
             id="g2231" />
        </g>
      </g>
    </g>
  </g>
</svg>
