<?xml version="1.0" encoding="UTF-8" standalone="no"?>
<!-- Created with Inkscape (http://www.inkscape.org/) -->

<svg
   xmlns:dc="http://purl.org/dc/elements/1.1/"
   xmlns:cc="http://creativecommons.org/ns#"
   xmlns:rdf="http://www.w3.org/1999/02/22-rdf-syntax-ns#"
   xmlns:svg="http://www.w3.org/2000/svg"
   xmlns="http://www.w3.org/2000/svg"
   xmlns:sodipodi="http://sodipodi.sourceforge.net/DTD/sodipodi-0.dtd"
   xmlns:inkscape="http://www.inkscape.org/namespaces/inkscape"
   width="5.8208361mm"
   height="5.2915692mm"
   viewBox="0 0 5.8208361 5.2915692"
   version="1.1"
   id="svg3627"
   inkscape:version="0.92.5 (2060ec1f9f, 2020-04-08)"
   sodipodi:docname="navbottom_home_active.svg">
  <defs
     id="defs3621" />
  <sodipodi:namedview
     id="base"
     pagecolor="#ffffff"
     bordercolor="#666666"
     borderopacity="1.0"
     inkscape:pageopacity="0.0"
     inkscape:pageshadow="2"
     inkscape:zoom="15.839192"
     inkscape:cx="10.175807"
     inkscape:cy="9.8344022"
     inkscape:document-units="mm"
     inkscape:current-layer="layer1"
     showgrid="false"
     inkscape:window-width="1366"
     inkscape:window-height="704"
     inkscape:window-x="0"
     inkscape:window-y="27"
     inkscape:window-maximized="1" />
  <metadata
     id="metadata3624">
    <rdf:RDF>
      <cc:Work
         rdf:about="">
        <dc:format>image/svg+xml</dc:format>
        <dc:type
           rdf:resource="http://purl.org/dc/dcmitype/StillImage" />
        <dc:title></dc:title>
      </cc:Work>
    </rdf:RDF>
  </metadata>
  <g
     inkscape:label="Layer 1"
     inkscape:groupmode="layer"
     id="layer1"
     transform="translate(-37.911015,-146.18755)">
    <g
       id="g3665">
      <g
         id="g2878"
         transform="translate(100.91965,3.3605167e-5)">
        <g
           style="fill:#2989a8;fill-opacity:1;stroke-width:44.35152817"
           transform="matrix(0.00593992,0,0,0.00599139,-63.06818,145.83612)"
           id="g49">
          <path
             style="fill:#2989a8;fill-opacity:1;stroke-width:44.35152817"
             inkscape:connector-curvature="0"
             d="M 977.7,407 563.7,79.8 C 528.1,51.6 472.1,51.6 436.5,79.8 L 22.4,407 C 8.3,418.2 5.9,438.8 17,452.9 c 11.2,14.1 31.3,16.6 45.4,5.4 l 12.9,-10.6 v 395.7 c 0,56.1 59.1,98 111.1,98 h 653.4 c 51.4,0 84.9,-39.4 84.9,-98 V 449.2 l 11.9,9 c 6,4.7 13.4,7 20.5,7 9.6,0 19.3,-4.2 25.7,-12.4 11.3,-14 9,-34.6 -5.1,-45.8 z M 467.4,876.1 V 694.9 c 0,-9 16.3,-13.5 32.7,-13.5 16.4,0 32.7,4.5 32.7,13.5 V 876 h -65.4 z m 392,-32.7 c 0,21.7 -6,32.7 -19.6,32.7 H 598.7 c 0,-0.5 -0.7,-0.9 -0.7,-1.4 V 694.9 c 0,-38 -30.6,-78.9 -98,-78.9 -67.4,0 -98,40.9 -98,78.9 v 179.7 c 0,0.5 0.9,0.9 0.9,1.4 H 186.4 c -20.5,0 -45.7,-17.7 -45.7,-32.7 V 396.1 l 335.8,-265 c 12.1,-9.5 33.8,-9.5 45.9,0 l 337,266.6 z"
             id="path47" />
        </g>
        <path
           style="fill:#2989a8;fill-opacity:1;stroke:#2989a8;stroke-width:0.26458332px;stroke-linecap:butt;stroke-linejoin:miter;stroke-opacity:1"
           d="m -62.23243,148.20931 2.23223,-1.62988 v 0 l 2.03679,1.63947 0.0322,2.69081 -0.20077,0.22985 -3.86352,-0.0555 -0.25975,-0.28441 z"
           id="path51"
           inkscape:connector-curvature="0"
           sodipodi:nodetypes="ccccccccc" />
        <path
           style="fill:#ffffff;fill-opacity:1;stroke:#ffffff;stroke-width:0.10583331;stroke-linecap:butt;stroke-linejoin:miter;stroke-miterlimit:4;stroke-dasharray:none;stroke-opacity:1"
           d="m -60.73274,151.42588 -0.006,-1.67089 c 0.0133,-0.0542 0.30345,-0.17265 0.59072,-0.16857 0.29257,0.004 0.58217,0.13166 0.57332,0.17216 v 1.66468 h -0.27649 l 0.002,-1.22354 c 0.0409,0.0277 0.003,-0.0571 -0.0361,-0.0751 -0.003,-0.001 -0.098,0.0405 -0.0995,0.0375 -0.0356,-0.0732 0.0266,-0.20671 0.0318,-0.19557 0.0224,-0.0352 -0.17387,-0.15186 -0.19454,-0.13017 -0.0227,-0.0196 -0.21557,0.0652 -0.2013,0.14666 0.0526,-0.11826 0.01,0.17192 -0.0818,0.16285 l -0.01,1.2784 z"
           id="path864"
           inkscape:connector-curvature="0"
           sodipodi:nodetypes="ccsccccsscccccc" />
        <path
           style="opacity:1;fill:#ffffff;fill-opacity:1;stroke:#ffff2e;stroke-width:0.07937502;stroke-miterlimit:4;stroke-dasharray:none;stroke-opacity:0.02602234"
           id="path889"
           sodipodi:type="arc"
           sodipodi:cx="-60.174267"
           sodipodi:cy="148.07635"
           sodipodi:rx="0.6181404"
           sodipodi:ry="0.61902285"
           sodipodi:start="0"
           sodipodi:end="4.929899"
           d="m -59.556126,148.07635 a 0.6181404,0.61902285 0 0 1 -0.412977,0.58394 0.6181404,0.61902285 0 0 1 -0.687115,-0.19632 0.6181404,0.61902285 0 0 1 -0.04314,-0.71424 0.6181404,0.61902285 0 0 1 0.658481,-0.27781 l -0.133394,0.60443 z" />
      </g>
    </g>
    <g
       id="g6535"
       transform="matrix(0.26458333,0,0,0.26458333,-86.013437,16.029997)">
      <g
         id="g6533"
         transform="matrix(0.1,0,0,-0.1,0,511)">
        <path
           id="path6523"
           d="m 3398.7,4959.1 c -77,-63.5 -94.4,-136.7 -117.5,-460.3 -32.7,-466.1 -11.6,-416 -225.3,-529.6 -298.5,-159.9 -466.1,-281.2 -679.9,-498.8 -300.5,-304.3 -435.3,-572 -485.3,-972.6 -38.5,-308.2 21.2,-712.6 127.1,-860.9 27,-36.6 71.3,-102.1 100.2,-148.3 l 52,-82.8 -57.8,-71.3 c -146.4,-183 -177.2,-313.9 -142.5,-620.2 46.2,-391 148.3,-662.6 315.9,-834 50.1,-50.1 90.5,-105.9 90.5,-121.4 0,-15.4 13.5,-96.3 30.8,-177.2 63.5,-314 256.2,-832 452.6,-1221.1 94.4,-183 102.1,-209.9 109.8,-364 9.6,-184.9 -23.1,-331.2 -96.3,-441 -40.4,-59.7 -57.8,-67.4 -217.6,-98.2 -527.7,-100.1 -1053.5,-279.2 -1454.1,-491.1 -443,-236.9 -756.9,-496.9 -818.5,-679.9 -84.7,-260 30.8,-550.8 265.8,-664.5 200.3,-96.3 1251.9,-261.9 2141.7,-337 404.5,-34.7 889.8,-57.8 1444.5,-69.3 587.4,-13.5 612.5,-9.6 660.6,92.5 32.7,69.3 13.5,161.8 -40.4,194.5 -32.7,19.3 -227.3,30.8 -783.9,48.1 -1194.1,34.7 -1966.4,109.8 -2927.5,283.1 -327.4,57.8 -391,84.8 -431.4,171.4 -61.6,129 -28.9,209.9 136.7,339 277.3,219.6 718.4,452.6 1103.6,585.5 202.2,69.3 652.9,186.8 799.3,208 75.1,11.6 79,7.7 154.1,-88.6 177.2,-227.3 581.7,-485.4 943.7,-600.9 271.6,-86.7 466.1,-111.7 808.9,-100.2 473.8,15.4 606.7,63.6 606.7,219.6 0,77 -71.3,159.8 -136.7,159.8 -23.1,0 -117.5,-13.5 -208,-30.8 -225.3,-42.4 -624,-28.9 -843.6,28.9 -337,88.6 -649,256.2 -857.1,464.2 l -111.7,113.6 67.4,121.3 c 36.6,67.4 80.9,188.8 100.2,267.7 l 34.7,146.4 211.9,-152.2 c 244.6,-177.2 550.8,-335.1 704.9,-362.1 84.7,-15.4 123.3,-13.5 188.7,9.6 105.9,36.6 244.6,36.6 348.6,0 65.5,-23.1 98.2,-25 159.9,-7.7 131,34.7 404.5,181.1 658.7,354.4 227.3,152.1 240.8,157.9 240.8,113.6 0,-59.7 96.3,-161.8 152.2,-161.8 59.7,0 131,38.5 152.1,84.7 11.6,21.2 25,136.7 28.9,252.3 l 5.8,211.9 107.9,211.9 c 206.1,408.3 383.3,895.6 450.7,1242.3 28.9,146.4 40.5,173.3 117.5,256.2 179.1,192.6 290.8,527.7 308.2,922.5 11.5,254.2 -7.7,358.2 -86.7,444.9 -27,30.8 -23.1,46.2 42.4,206.1 208,510.4 184.9,1099.7 -65.5,1608.2 -163.7,333.2 -404.5,604.8 -726.1,812.8 -231.1,150.2 -454.5,240.7 -847.4,342.8 -1013.1,263.9 -1417.5,419.9 -1743,674.1 -158.5,123.4 -227.8,136.8 -322.2,55.9 z m 529.7,-572 c 308.2,-154.1 668.3,-273.5 1382.9,-458.4 510.4,-131 743.4,-238.8 1009.2,-460.3 288.9,-242.7 477.6,-552.8 554.7,-914.8 27,-125.2 42.4,-500.8 23.1,-521.9 -5.8,-3.8 -48.1,9.6 -98.2,30.8 -146.4,65.5 -233,67.4 -456.5,11.6 -267.7,-65.5 -419.9,-63.6 -841.7,11.6 -290.8,52 -391,61.6 -660.6,61.6 -369.8,1.9 -518.1,-28.9 -803.1,-173.3 -92.4,-46.2 -171.4,-79 -177.2,-73.2 -7.7,5.8 -11.6,77 -9.6,157.9 0,184.9 63.5,337 194.5,469.9 111.7,113.6 123.3,204.1 36.6,277.3 -63.6,55.8 -115.6,57.8 -312,7.7 -204.2,-52 -339,-119.4 -624,-308.2 -132.9,-88.6 -365.9,-221.5 -520,-294.7 -154.1,-73.2 -302.4,-150.2 -331.3,-169.5 -36.6,-27 -55.8,-30.8 -65.5,-15.4 -28.9,50.1 -17.3,485.3 19.3,614.4 119.4,433.3 446.8,778.1 1011.1,1059.3 281.2,140.6 298.5,171.4 333.2,600.9 l 23.1,261.9 69.3,-44.3 c 38.5,-24.9 148.3,-82.7 242.7,-130.9 z M 3529.7,2235.8 c -44.3,-223.4 21.2,-583.6 129,-712.6 71.3,-84.7 152.1,-79 296.6,19.3 157.9,107.9 352.5,202.2 500.8,242.7 211.9,59.7 568.2,50.1 1011.1,-28.9 323.6,-57.8 392.9,-63.6 597,-53.9 154.1,7.7 277.4,25 371.7,52 115.6,34.7 152.2,36.6 204.2,19.3 75.1,-25 119.4,-67.4 136.7,-134.8 9.6,-42.4 1.9,-53.9 -50.1,-77 -82.8,-38.5 -140.6,-119.4 -140.6,-202.2 0,-53.9 19.3,-86.7 107.9,-179.1 61.6,-63.6 115.6,-138.7 123.3,-167.6 23.1,-90.5 -7.7,-398.7 -53.9,-560.5 -57.8,-194.5 -132.9,-323.6 -227.3,-389 -88.6,-61.6 -104,-98.2 -131,-302.4 -38.5,-288.9 -200.3,-751.1 -423.7,-1205.7 -98.2,-202.2 -123.3,-236.9 -244.6,-344.7 -167.6,-146.4 -466.1,-350.5 -687.6,-469.9 l -169.5,-92.5 -102.1,23.1 c -96.3,23.1 -273.5,17.3 -466.1,-11.6 -138.7,-19.3 -452.6,165.6 -886,522 -165.6,136.7 -196.5,171.4 -260,300.4 -252.3,498.8 -419.9,1001.5 -471.9,1406 -9.6,77 -25,100.2 -117.5,179.1 -115.6,100.2 -157.9,169.5 -215.7,360.2 -48.1,154.1 -88.6,477.6 -71.3,560.5 7.7,34.7 63.6,111.7 127.1,181 134.8,146.4 140.6,179.1 52,373.6 l -59.7,136.8 38.5,52 c 25,32.7 129,92.5 300.4,169.5 156,71.3 369.8,190.7 527.7,292.7 146.4,96.3 267.7,171.4 271.6,167.6 4.2,-2.1 -3.5,-59.9 -17,-125.4 z"
           inkscape:connector-curvature="0" />
        <path
           id="path6525"
           d="m 3210,964.7 c -96.3,-38.5 -115.6,-202.2 -32.7,-267.7 42.4,-32.8 79,-40.5 202.2,-40.5 h 152.2 v -55.8 c 0,-30.8 17.3,-75.1 36.6,-100.2 30.8,-38.5 55.9,-46.2 136.7,-46.2 80.8,0 105.9,7.7 136.7,46.2 19.3,25 36.6,69.3 36.6,100.2 v 55.8 h 150.2 c 86.7,1.9 161.8,11.6 179.1,25 88.6,67.4 90.5,194.5 3.8,263.9 -46.2,36.6 -77,38.5 -504.6,36.6 -250.3,0 -473.7,-7.7 -496.8,-17.3 z"
           inkscape:connector-curvature="0" />
        <path
           id="path6527"
           d="m 4897.1,928.1 c -59.7,-59.7 -69.3,-113.6 -32.7,-181 38.5,-73.2 77,-88.6 223.4,-90.5 138.7,0 138.7,0 138.7,-52 3.9,-202.2 319.7,-213.8 358.3,-15.4 l 11.5,67.4 h 154.1 c 134.8,0 157.9,5.8 198.4,48.2 28.9,28.9 48.1,69.3 48.1,104 0,163.7 -36.6,175.3 -587.4,175.3 H 4953 Z"
           inkscape:connector-curvature="0" />
        <path
           id="path6529"
           d="m 4107.5,-1113.5 c -86.7,-88.6 -63.6,-206.1 50.1,-260 209.9,-100.2 731.9,-77 859,38.5 55.8,50.1 50.1,169.5 -13.5,231.1 -38.5,40.5 -61.6,48.1 -109.8,40.5 -362.1,-59.7 -356.3,-59.7 -521.9,-27 -208.1,42.4 -196.5,42.4 -263.9,-23.1 z"
           inkscape:connector-curvature="0" />
        <path
           id="path6531"
           d="m 8481.4,-414.4 c -73.2,-27 -283.1,-227.3 -1409.8,-1352 l -1325.1,-1321.2 -250.4,-753 c -136.7,-412.2 -250.4,-770.4 -250.4,-791.6 0,-57.8 67.4,-134.8 127.1,-150.2 38.5,-9.6 244.6,50.1 805.1,238.8 l 753,254.2 1305.8,1302 c 980.3,978.4 1319.3,1328.9 1355.9,1400.2 57.8,111.7 69.3,279.3 27,404.5 -32.7,94.4 -604.8,685.6 -724.2,745.4 -102,53.8 -298.5,63.4 -414,22.9 z m 525.8,-560.4 c 146.4,-146.4 279.3,-290.8 294.7,-319.7 46.2,-88.6 7.7,-157.9 -200.3,-365.9 l -186.8,-186.8 -365.9,365.9 -365.9,365.9 163.7,165.6 c 313.8,317.8 309.9,319.8 660.5,-25 z m -693.4,-753.1 360.2,-360.1 -876.3,-876.3 c -824.3,-824.3 -876.3,-872.5 -891.7,-826.3 -9.6,25.1 -46.2,134.8 -82.8,244.6 -36.6,109.8 -79,213.8 -98.2,235 -17.3,19.3 -140.6,71.3 -273.5,115.6 -134.8,44.3 -242.7,86.7 -242.7,92.4 0,15.4 1718,1737.2 1733.4,1737.2 5.7,0 173.2,-161.8 371.6,-362.1 z M 6557.3,-3788.7 c 44.3,-131 75.1,-240.8 69.3,-246.5 -9.6,-9.6 -920.6,-315.9 -941.8,-315.9 -9.6,0 233.1,758.8 300.5,937.9 5.8,15.4 82.8,-1.9 250.4,-57.8 l 242.7,-79 z"
           inkscape:connector-curvature="0" />
      </g>
    </g>
  </g>
</svg>
