<?xml version="1.0" encoding="UTF-8" standalone="no"?>
<!-- Created with Inkscape (http://www.inkscape.org/) -->

<svg
   xmlns:dc="http://purl.org/dc/elements/1.1/"
   xmlns:cc="http://creativecommons.org/ns#"
   xmlns:rdf="http://www.w3.org/1999/02/22-rdf-syntax-ns#"
   xmlns:svg="http://www.w3.org/2000/svg"
   xmlns="http://www.w3.org/2000/svg"
   xmlns:sodipodi="http://sodipodi.sourceforge.net/DTD/sodipodi-0.dtd"
   xmlns:inkscape="http://www.inkscape.org/namespaces/inkscape"
   width="5.831759mm"
   height="5.2963238mm"
   viewBox="0 0 5.831759 5.2963238"
   version="1.1"
   id="svg4476"
   inkscape:version="0.92.5 (2060ec1f9f, 2020-04-08)"
   sodipodi:docname="navbottom_jenis_active.svg">
  <defs
     id="defs4470" />
  <sodipodi:namedview
     id="base"
     pagecolor="#ffffff"
     bordercolor="#666666"
     borderopacity="1.0"
     inkscape:pageopacity="0.0"
     inkscape:pageshadow="2"
     inkscape:zoom="7.9195959"
     inkscape:cx="1.4242977"
     inkscape:cy="12.007213"
     inkscape:document-units="mm"
     inkscape:current-layer="layer1"
     showgrid="false"
     inkscape:window-width="1366"
     inkscape:window-height="704"
     inkscape:window-x="0"
     inkscape:window-y="27"
     inkscape:window-maximized="1" />
  <metadata
     id="metadata4473">
    <rdf:RDF>
      <cc:Work
         rdf:about="">
        <dc:format>image/svg+xml</dc:format>
        <dc:type
           rdf:resource="http://purl.org/dc/dcmitype/StillImage" />
        <dc:title></dc:title>
      </cc:Work>
    </rdf:RDF>
  </metadata>
  <g
     inkscape:label="Layer 1"
     inkscape:groupmode="layer"
     id="layer1"
     transform="translate(-12.203168,-223.29232)">
    <g
       id="g4451"
       transform="matrix(0.00543281,0,0,0.00495308,-3.0591712,217.12712)"
       style="fill:#7a7a7a;fill-opacity:1;stroke:#7a7a7a;stroke-width:2383.05786133;stroke-miterlimit:4;stroke-dasharray:none;stroke-opacity:1">
      <path
         style="fill:#2989a8;fill-opacity:1;stroke:none;stroke-width:51.00499344;stroke-miterlimit:4;stroke-dasharray:none"
         inkscape:connector-curvature="0"
         d="m 3042.0901,1247.2535 c -128.6,0 -232.8,104.2 -232.8,232.8 0,128.6 104.2,232.8 232.8,232.8 h 180.2 c 29,0 52.5,-23.5 52.5,-52.5 v -180.3 c 0,-128.6 -104.2,-232.8 -232.7,-232.8 z"
         id="path2153"
         sodipodi:nodetypes="sssssss" />
      <path
         style="fill:#2989a8;fill-opacity:1;stroke:none;stroke-width:51.00499344;stroke-miterlimit:4;stroke-dasharray:none"
         inkscape:connector-curvature="0"
         d="m 3042.0901,2313.9188 v 0 0 c 128.6,0 232.8,-104.2 232.8,-232.8 v -180.2 c 0,-29 -23.5,-52.5 -52.5,-52.5 h -180.3 c -128.6,0 -232.8,104.2 -232.8,232.8 0,128.6 104.2,232.7 232.8,232.7 z"
         id="path2157"
         sodipodi:nodetypes="cccsssssc" />
      <path
         style="fill:#2989a8;fill-opacity:1;stroke:none;stroke-width:51.00499344;stroke-miterlimit:4;stroke-dasharray:none"
         inkscape:connector-curvature="0"
         d="m 3879.3946,2081.2188 v 0 0 c 0,-128.6 -104.2,-232.8 -232.8,-232.8 h -180.2 c -29,0 -52.5,23.5 -52.5,52.5 v 180.3 c 0,128.6 104.2,232.8 232.8,232.8 128.6,0 232.7,-104.3 232.7,-232.8 z"
         id="path2159"
         sodipodi:nodetypes="cccsssssc" />
      <g
         id="g2209"
         transform="translate(-305.13716,-63.277551)"
         style="stroke-width:2383.05786133">
        <g
           id="g2214"
           transform="translate(0,5.3599208)"
           style="stroke-width:2383.05786133">
          <path
             transform="translate(4238.6641,2668.4933)"
             style="fill:#2989a8;fill-opacity:1;stroke:none;stroke-width:51.00499344;stroke-miterlimit:4;stroke-dasharray:none"
             inkscape:connector-curvature="0"
             d="m -123.39675,-1036.7892 c -17.56837,-97.2088 -75.09703,-133.2633 -90.24665,-137.8122 -49.8192,-14.9589 52.02306,102.7367 -83.53556,145.1236 0,0 -22.82615,-74.0081 -47.60046,-80.9263 -68.61328,-19.1602 -132.21814,142.65664 -132.21814,142.65664 v 0 c 0,0 2.20491,24.74818 30.84487,29.75978 l 154.70757,27.07169 c 88.4113,15.47075 183.88465,-38.24837 168.04837,-125.87321 z"
             id="path2155"
             sodipodi:nodetypes="sssscssss" />
          <g
             id="g2193"
             transform="translate(373.06792,-29.096713)"
             style="stroke-width:2383.05786133">
            <path
               sodipodi:nodetypes="ssssscss"
               id="path2188"
               d="m 3789.2901,1566.7188 c 0,-115.7192 -93.7414,-209.4822 -209.3439,-209.4822 -115.6024,0 -209.4337,93.763 -209.4337,209.4822 v 162.1507 c 0,26.0953 21.1413,47.2415 47.2306,47.2415 h 110.8705 51.3326 c 115.6025,0 209.3439,-93.7631 209.3439,-209.3922 z"
               inkscape:connector-curvature="0"
               style="fill:none;stroke:#2989a8;stroke-width:51.00499344;stroke-miterlimit:4;stroke-dasharray:none;stroke-opacity:1" />
          </g>
        </g>
      </g>
    </g>
  </g>
</svg>
