<?xml version="1.0" encoding="UTF-8" standalone="no"?>
<!-- Created with Inkscape (http://www.inkscape.org/) -->

<svg
   xmlns:dc="http://purl.org/dc/elements/1.1/"
   xmlns:cc="http://creativecommons.org/ns#"
   xmlns:rdf="http://www.w3.org/1999/02/22-rdf-syntax-ns#"
   xmlns:svg="http://www.w3.org/2000/svg"
   xmlns="http://www.w3.org/2000/svg"
   xmlns:sodipodi="http://sodipodi.sourceforge.net/DTD/sodipodi-0.dtd"
   xmlns:inkscape="http://www.inkscape.org/namespaces/inkscape"
   width="5.8208885mm"
   height="5.2900476mm"
   viewBox="0 0 5.8208884 5.2900476"
   version="1.1"
   id="svg4585"
   inkscape:version="0.92.5 (2060ec1f9f, 2020-04-08)"
   sodipodi:docname="navbottom_testimoni.svg">
  <defs
     id="defs4579" />
  <sodipodi:namedview
     id="base"
     pagecolor="#ffffff"
     bordercolor="#666666"
     borderopacity="1.0"
     inkscape:pageopacity="0.0"
     inkscape:pageshadow="2"
     inkscape:zoom="5.6"
     inkscape:cx="-10.463905"
     inkscape:cy="40.981356"
     inkscape:document-units="mm"
     inkscape:current-layer="g956"
     showgrid="false"
     inkscape:window-width="1366"
     inkscape:window-height="704"
     inkscape:window-x="0"
     inkscape:window-y="27"
     inkscape:window-maximized="1" />
  <metadata
     id="metadata4582">
    <rdf:RDF>
      <cc:Work
         rdf:about="">
        <dc:format>image/svg+xml</dc:format>
        <dc:type
           rdf:resource="http://purl.org/dc/dcmitype/StillImage" />
        <dc:title />
      </cc:Work>
    </rdf:RDF>
  </metadata>
  <g
     inkscape:label="Layer 1"
     inkscape:groupmode="layer"
     id="layer1"
     transform="translate(35.647172,-154.10619)">
    <g
       id="g2652"
       transform="matrix(0.95559054,0,0,0.94885071,29.193241,30.806696)"
       style="stroke-width:1.05018342">
      <g
         id="g2632"
         style="stroke-width:1.05018342">
        <g
           id="g6957">
          <g
             transform="matrix(1.0464733,0,0,1.0539066,-1.6314761,-14.050359)"
             id="g9079">
            <g
               id="g9327">
              <g
                 id="g9339">
                <g
                   id="g9361"
                   transform="matrix(0.01264712,0,0,0.01330639,-57.513435,125.77072)"
                   style="fill:#7a7a7a;stroke:none;stroke-width:6.08977795;stroke-miterlimit:4;stroke-dasharray:none;stroke-opacity:0.94117647">
                  <g
                     id="g9359"
                     transform="matrix(0.1,0,0,-0.1,0,512)"
                     style="fill:#7a7a7a;stroke:none;stroke-width:60.89778519;stroke-miterlimit:4;stroke-dasharray:none;stroke-opacity:0.94117647">
                    <g
                       id="g9357"
                       style="fill:#7a7a7a;fill-opacity:1;stroke:none;stroke-width:252.45730591;stroke-miterlimit:4;stroke-dasharray:none;stroke-opacity:0.94117647"
                       transform="matrix(0.24122011,0,0,0.24122011,643.24943,-10838.192)">
                      <g
                         transform="matrix(2675.3751,0,0,-2774.3022,77027.546,345322.48)"
                         style="stroke-width:1.1729821"
                         id="g1003">
                        <g
                           id="g956"
                           transform="matrix(0.95636602,0,0,0.94665232,-1.5999593,6.3258564)"
                           style="stroke-width:1.23277569">
                          <g
                             id="g971"
                             transform="matrix(0.99058423,0,0,0.99024417,-0.34525504,1.1568256)"
                             style="stroke-width:1.24470723">
                            <path
                               sodipodi:nodetypes="cccccccsccc"
                               inkscape:connector-curvature="0"
                               id="path977"
                               d="m -35.492411,112.6523 c 0,0 3.839632,-0.0433 5.092732,0.009 1.062918,0.10966 0.758993,-0.34078 0.846916,2.14948 -0.0312,3.19591 0.358015,2.82656 -1.381374,2.69147 -1.019918,-0.0158 -2.287348,0.0284 -2.535302,0.31793 0,0 -0.98617,0.96352 -0.942972,0.71754 -0.09121,-0.15074 0.08296,-0.8319 0.08296,-0.8319 -0.997845,0.0743 -2.263852,0.0837 -2.269684,-0.31159 -0.02177,-1.46623 -0.09664,-2.96725 -0.05742,-4.15529 0.09388,-0.74952 0.239678,-0.5401 1.164147,-0.58566 z"
                               style="fill:none;fill-opacity:1;stroke:#666666;stroke-width:0.39519447;stroke-linecap:butt;stroke-linejoin:miter;stroke-miterlimit:4;stroke-dasharray:none;stroke-opacity:1" />
                            <g
                               style="fill:#666666;fill-opacity:1;stroke-width:0.06164527;stroke-miterlimit:4;stroke-dasharray:none"
                               transform="matrix(1.5651795,0,0,1.6256415,36.767782,-111.88075)"
                               id="g981">
                              <path
                                 style="opacity:0.98000004;fill:#666666;fill-opacity:1;stroke:none;stroke-width:0.06164527;stroke-miterlimit:4;stroke-dasharray:none;stroke-opacity:1"
                                 inkscape:connector-curvature="0"
                                 d="m -43.270535,138.66624 c -0.01191,0.008 -0.0423,0.0336 -0.06615,0.0591 l -0.04446,0.0463 -0.0553,-0.0301 c -0.06725,-0.0359 -0.113847,-0.0382 -0.143098,-0.008 -0.0293,0.0313 -0.0271,0.0798 0.0076,0.15626 l 0.02925,0.0637 -0.05315,0.0578 c -0.06394,0.0694 -0.0705,0.1146 -0.0217,0.1597 0.02711,0.0243 0.03685,0.0266 0.09,0.0197 0.03251,-0.004 0.06614,-0.0109 0.0737,-0.0138 0.0087,-0.003 0.02711,0.0197 0.0477,0.0591 0.0195,0.0359 0.04555,0.0729 0.05746,0.0822 0.05854,0.044 0.120347,-8e-4 0.132297,-0.0937 0.01191,-0.0948 0.01086,-0.0937 0.0824,-0.10179 0.07589,-0.01 0.118196,-0.044 0.118196,-0.0938 0,-0.0498 -0.01845,-0.0729 -0.0878,-0.11112 -0.0564,-0.0301 -0.06505,-0.0393 -0.06075,-0.0602 0.02171,-0.096 0.0206,-0.13193 -0.0054,-0.16203 -0.02925,-0.0358 -0.07045,-0.0475 -0.100794,-0.0302 z"
                                 id="path979" />
                            </g>
                            <g
                               style="fill:#666666;fill-opacity:1;stroke:none;stroke-width:9.73609257;stroke-miterlimit:4;stroke-dasharray:none;stroke-opacity:0.94117647"
                               transform="matrix(0.00991015,0,0,0.01029297,-50.115226,99.815619)"
                               id="g1001">
                              <g
                                 style="fill:#666666;fill-opacity:1;stroke:none;stroke-width:97.36093903;stroke-miterlimit:4;stroke-dasharray:none;stroke-opacity:0.94117647"
                                 transform="matrix(0.1,0,0,-0.1,599.80412,218.27722)"
                                 id="g999">
                                <g
                                   transform="matrix(0.24122011,0,0,0.24122011,643.24943,-10838.192)"
                                   style="fill:#666666;fill-opacity:1;stroke:none;stroke-width:403.61856079;stroke-miterlimit:4;stroke-dasharray:none;stroke-opacity:0.94117647"
                                   id="g997">
                                <g
                                   style="fill:#666666;fill-opacity:1;stroke:none;stroke-width:403.61856079;stroke-miterlimit:4;stroke-dasharray:none;stroke-opacity:0.94117647"
                                   transform="translate(-760.67929,-2.5040936e-5)"
                                   id="g995">
                                <path
                                   style="fill:#666666;fill-opacity:1;stroke:none;stroke-width:403.61856079;stroke-miterlimit:4;stroke-dasharray:none;stroke-opacity:0.94117647"
                                   inkscape:connector-curvature="0"
                                   d="m 38728.657,-1820.73 c -26.004,-4.7054 -106.615,-21.2981 -177.691,-35.5381 -554.495,-111.32 -1054.506,-568.7347 -1251.142,-1146.8803 -64.018,-189.5782 -64.018,-189.5782 -71.077,-1018.9675 -9.534,-947.8912 4.706,-1054.5057 158.746,-1374.3493 232.174,-485.771 620.866,-805.7385 1130.287,-936.0038 222.764,-56.8364 594.739,-61.6656 808.092,-11.8874 485.771,113.7965 917.058,454.9383 1135.116,900.4657 182.397,372.0983 187.226,407.6365 187.226,1350.6985 0,921.7638 -7.058,969.1893 -165.928,1305.6256 -213.229,445.5274 -642.163,800.9092 -1113.694,921.7638 -142.277,38.0147 -552.266,66.4948 -639.935,45.0728 z"
                                   id="path983" />
                                <path
                                   style="fill:#666666;fill-opacity:1;stroke:none;stroke-width:403.61856079;stroke-miterlimit:4;stroke-dasharray:none;stroke-opacity:0.94117647"
                                   inkscape:connector-curvature="0"
                                   d="m 42829.719,-6143.7139 c -618.513,-92.3745 -1120.876,-518.9565 -1322.218,-1123.2293 -64.018,-187.2256 -64.018,-199.1129 -73.429,-940.7093 -9.535,-900.4656 7.058,-1026.0256 175.338,-1369.6439 90.022,-182.5201 146.982,-260.6546 303.375,-417.0474 158.745,-156.3932 234.651,-210.8762 417.047,-300.8982 284.306,-139.8 544.96,-194.284 829.389,-175.338 777.259,52.131 1405.183,632.7528 1516.626,1407.5347 11.888,87.6691 23.651,433.6401 23.651,767.7237 0,753.4837 -26.003,931.2984 -182.396,1253.4948 -90.022,189.5782 -139.8,258.3019 -312.786,428.9347 -163.451,163.4508 -244.062,222.7637 -405.16,300.8981 -324.92,158.7455 -651.946,215.5818 -969.437,168.2801 z"
                                   id="path985" />
                                <path
                                   style="fill:#666666;fill-opacity:1;stroke:none;stroke-width:403.61856079;stroke-miterlimit:4;stroke-dasharray:none;stroke-opacity:0.94117647"
                                   inkscape:connector-curvature="0"
                                   d="m 36607.882,-6948.6293 c -838.924,-78.1344 -1516.626,-528.3672 -1760.688,-1175.3602 -49.778,-135.0947 -52.131,-172.9855 -59.189,-1056.8584 l -7.058,-919.4111 h 3071.019 3068.666 l -132.742,191.9309 c -149.335,210.8764 -286.782,509.4218 -355.506,767.7237 -40.243,149.3347 -45.072,258.3019 -45.072,1054.5057 0,488.1237 9.534,950.2439 21.298,1026.0257 l 18.945,135.0946 -1808.113,-2.3527 c -995.069,-2.3527 -1900.24,-11.7635 -2011.56,-21.2982 z"
                                   id="path987" />
                                <path
                                   style="fill:#666666;fill-opacity:1;stroke:none;stroke-width:403.61856079;stroke-miterlimit:4;stroke-dasharray:none;stroke-opacity:0.94117647"
                                   inkscape:connector-curvature="0"
                                   d="m 40642.45,-11058.384 c -680.055,-108.967 -1265.382,-490.477 -1511.797,-990.487 -127.913,-260.655 -142.153,-388.691 -142.153,-1312.808 v -836.447 h 4146.823 4146.946 v 860.222 c 0,959.655 -9.534,1044.971 -156.392,1322.219 -222.764,421.876 -684.884,753.606 -1277.27,914.705 l -237.004,66.371 -2381.553,4.705 c -1919.309,2.353 -2421.673,-2.477 -2587.6,-28.48 z"
                                   id="path989" />
                                <path
                                   id="path991"
                                   d="m 47331.695,-1903.9849 c 26.003,-4.7054 106.614,-21.2981 177.691,-35.5382 554.494,-111.3199 1054.505,-568.7347 1251.142,-1146.8802 64.018,-189.5782 64.018,-189.5782 71.076,-1018.9675 9.535,-947.8912 -4.705,-1054.5057 -158.745,-1374.3493 -232.175,-485.771 -620.866,-805.7385 -1130.288,-936.0039 -222.764,-56.8363 -594.738,-61.6655 -808.091,-11.8873 -485.771,113.7965 -917.058,454.9382 -1135.117,900.4656 -182.396,372.0984 -187.225,407.6366 -187.225,1350.6985 0,921.7638 7.058,969.1893 165.927,1305.6257 213.229,445.5274 642.164,800.9092 1113.695,921.7638 142.276,38.0147 552.266,66.4948 639.935,45.0728 z"
                                   inkscape:connector-curvature="0"
                                   style="fill:#666666;fill-opacity:1;stroke:none;stroke-width:403.61856079;stroke-miterlimit:4;stroke-dasharray:none;stroke-opacity:0.94117647" />
                                <path
                                   id="path993"
                                   d="m 49452.47,-7031.8842 c 838.924,-78.1345 1516.626,-528.3673 1760.687,-1175.3603 49.779,-135.0946 52.131,-172.9855 59.189,-1056.8584 l 7.059,-919.4111 H 48208.386 45139.72 l 132.742,191.931 c 149.334,210.8763 286.781,509.4218 355.505,767.7237 40.244,149.3347 45.073,258.3019 45.073,1054.5057 0,488.1237 -9.535,950.2439 -21.298,1026.0256 l -18.946,135.0947 1808.114,-2.3527 c 995.069,-2.3527 1900.24,-11.7636 2011.56,-21.2982 z"
                                   inkscape:connector-curvature="0"
                                   style="fill:#666666;fill-opacity:1;stroke:none;stroke-width:403.61856079;stroke-miterlimit:4;stroke-dasharray:none;stroke-opacity:0.94117647" />
                                </g>
                                </g>
                              </g>
                            </g>
                          </g>
                        </g>
                      </g>
                    </g>
                  </g>
                </g>
              </g>
            </g>
          </g>
        </g>
      </g>
    </g>
  </g>
</svg>
