<svg width="346" height="386" viewBox="0 0 346 386" fill="none" xmlns="http://www.w3.org/2000/svg">
<g id="bingkai1">
<g id="Group">
<g id="Group_2">
<g id="Group_3">
<path id="Vector" d="M227.874 95.248C232.342 97.121 237.131 97.931 241.645 99.5941C242.002 99.726 241.956 100.297 241.542 100.277C236.701 100.056 231.995 97.7053 227.679 95.6894C227.431 95.5734 227.622 95.1427 227.874 95.248Z" fill="url(#paint0_linear_328_199)"/>
<path id="Vector_2" d="M205.032 100.85C209.535 111.894 213.725 121.528 222.877 129.552C223.203 129.838 222.76 130.34 222.407 130.128C212.388 124.115 208.185 111.583 204.231 101.28C204.026 100.745 204.809 100.303 205.032 100.85Z" fill="url(#paint1_linear_328_199)"/>
<path id="Vector_3" d="M205.635 100.663C211.543 107.923 214.679 116.507 223.043 121.557C223.633 121.913 223.084 122.803 222.486 122.466C214.098 117.731 210.397 108.619 205.126 101.028C204.921 100.735 205.411 100.387 205.635 100.663Z" fill="url(#paint2_linear_328_199)"/>
<path id="Vector_4" d="M192.943 107.742C189.465 115.047 185.902 122.924 181.005 129.398C180.804 129.664 180.425 129.43 180.567 129.131C184.05 121.749 188.442 114.561 192.504 107.474C192.672 107.182 193.082 107.451 192.943 107.742Z" fill="url(#paint3_linear_328_199)"/>
<path id="Vector_5" d="M170.863 131.905C170.623 132.002 170.328 131.686 170.573 131.502C174.204 128.771 178.027 126.513 179.188 121.778C179.257 121.497 179.682 121.623 179.618 121.903C178.54 126.563 175.292 130.113 170.863 131.905Z" fill="url(#paint4_linear_328_199)"/>
<path id="Vector_6" d="M161.71 134.893C161.447 134.962 161.351 134.558 161.611 134.483C163.802 133.865 165.101 132.082 166.126 130.179C166.259 129.931 166.585 130.125 166.544 130.363C166.111 132.931 164.071 134.282 161.71 134.893Z" fill="url(#paint5_linear_328_199)"/>
<path id="Vector_7" d="M159.014 89.4097C162.199 90.2642 165.14 89.462 168.31 89.1194C168.616 89.0849 168.653 89.5174 168.439 89.651C165.589 91.4145 161.853 91.0631 158.896 89.8142C158.652 89.7116 158.745 89.3375 159.014 89.4097Z" fill="url(#paint6_linear_328_199)"/>
<path id="Vector_8" d="M166.041 106.753C166.394 106.753 166.491 107.235 166.198 107.398C164.723 108.203 163.072 108.641 161.567 109.411C159.849 110.297 158.305 111.456 156.977 112.856C156.663 113.188 156.214 112.683 156.502 112.348C158.778 109.675 162.338 106.776 166.041 106.753Z" fill="url(#paint7_linear_328_199)"/>
<path id="Vector_9" d="M159.629 107.309C158.673 107.815 157.556 108.032 156.509 108.261C155.208 108.546 153.915 108.799 152.597 108.991C152.234 109.044 152.117 108.559 152.464 108.441C153.599 108.054 154.735 107.717 155.894 107.412C157.054 107.106 158.278 106.719 159.49 106.739C159.792 106.744 159.897 107.167 159.629 107.309Z" fill="url(#paint8_linear_328_199)"/>
<path id="Vector_10" d="M233.55 26.284C219.262 23.4697 207.724 27.7635 194.373 32.2063C187.128 34.6191 178.844 35.1016 171.019 34.2067C184.211 42.4353 203.545 36.8587 218.335 38.9021C230.239 40.5461 245.572 42.6015 253.558 52.6375C253.886 53.0509 253.555 53.8708 252.955 53.6232C242.097 49.1516 230.124 52.0906 218.723 50.853C207.288 49.6089 196.142 45.7584 185.047 42.9162C184.577 42.7949 184.654 42.2609 184.986 42.0791C180.625 41.1181 176.381 39.7246 172.331 37.6295C171.955 37.4346 172.3 36.9096 172.667 37.0791C190.977 45.5669 212.354 39.0046 230.362 47.1901C230.837 47.4047 230.463 48.0662 230.015 47.9777C218.965 45.7747 208.227 44.6873 197.008 43.7887C195.445 43.6627 193.893 43.4997 192.347 43.3098C205.809 46.0882 218.713 50.2208 232.804 49.6424C239.034 49.3856 244.947 49.2371 250.893 51.2958C254.008 52.3745 248.343 49.3594 247.469 48.7727C243.965 46.4098 239.723 45.1006 235.715 43.8734C224.309 40.3746 212.033 38.9474 200.145 39.1368C190.043 39.298 178.035 40.7849 169.628 34.0055C167.534 33.72 165.469 33.3624 163.484 32.8915C163.09 32.7972 163.209 32.2307 163.587 32.2198C169.629 32.0516 175.626 33.0646 181.688 32.9077C188.566 32.7299 194.822 30.4256 201.186 28.0933C202.528 27.6014 203.857 27.1443 205.181 26.7275C190.328 26.9179 175.833 31.908 160.992 30.5256C160.742 30.5007 160.743 30.115 161.001 30.1292C176.219 30.9874 191.098 23.8129 206.229 26.0381C206.409 26.0633 206.501 26.1996 206.524 26.3382C213.649 24.2164 220.612 23.2425 227.975 23.8279C214.783 18.8277 201.031 19.4543 187.075 22.6446C176.501 25.0581 166.592 31.2694 155.905 28.9438C155.908 28.947 155.908 28.947 155.91 28.9485C156.096 29.075 155.97 29.4305 155.744 29.3301C154.689 28.8688 153.64 28.4083 152.587 27.9477C152.423 27.8839 152.258 27.8409 152.093 27.7728C152.053 27.7563 152.034 27.723 152.01 27.6946C142.898 23.6996 133.838 19.7189 124.522 16.1306C114.875 12.417 104.81 8.54326 96.4359 2.38295C96.1616 2.18248 96.4053 1.7778 96.711 1.93572C106.894 7.2114 117.049 11.9612 127.771 16.0892C136.642 19.506 146.052 22.7063 154.142 27.8221C162.339 29.5922 168.983 27.2108 176.767 24.0324C183.139 21.4273 189.953 19.9781 196.731 18.8908C209.551 16.8329 222.857 18.2882 234.243 24.7078C235.147 25.2174 234.465 26.4643 233.55 26.284Z" fill="url(#paint9_linear_328_199)"/>
<path id="Vector_11" d="M299.814 33.2264C302.291 40.7556 295.017 48.5701 290.119 53.3654C289.864 53.615 289.492 53.2166 289.74 52.9617C295.344 47.2205 298.662 41.3834 299.061 33.3083C299.084 32.8594 299.681 32.8204 299.814 33.2264Z" fill="url(#paint10_linear_328_199)"/>
<path id="Vector_12" d="M302.862 19.7167C302.491 19.9144 302.294 20.3546 302.395 20.7633C303.332 24.6173 300.953 27.9495 298.523 30.801C294.802 28.8069 290.755 28.8205 288.519 33.5025C286.517 37.6937 285.298 41.1071 280.946 43.3624C278.093 44.8411 276.209 46.5843 274.767 49.477C272.357 54.307 273.648 60.1474 273.034 65.4147C272.687 65.2455 272.278 65.2462 271.99 65.5847C264.211 74.7681 254.48 72.9486 244.38 72.0215C253.577 69.1399 261.298 61.6661 268.378 55.3711C269.015 54.8057 268.376 53.9713 267.668 54.0539C254.789 55.55 244.537 69.2847 230.959 65.3819C230.863 65.3545 230.791 65.3784 230.721 65.405C225.119 57.7004 214.554 53.5097 206.014 50.4982C190.769 45.124 175.613 39.9262 160.508 34.1147C160.359 34.0577 160.238 34.0859 160.142 34.1528C158.683 33.2071 157.218 32.2768 155.743 31.3768C155.465 31.2063 155.107 31.6167 155.373 31.8329C160.697 36.1651 166.511 39.9834 172.057 44.1045C171.867 44.181 171.741 44.4255 171.924 44.59C174.885 47.2385 178.11 49.6845 181.489 51.9323C183.269 53.6417 184.955 55.4498 186.514 57.3977C189.893 61.6222 192.468 66.4785 196.876 69.7844C198.534 71.0283 200.242 72.1996 201.948 73.3722C199.034 72.5569 195.931 72.3202 192.649 72.8011C192.353 72.6657 192.064 72.5155 191.77 72.3964C191.458 72.2693 191.204 72.683 191.369 72.9373C191.167 72.9484 190.987 73.1645 191.107 73.3712C191.184 73.4992 191.253 73.6186 191.326 73.7444C191.337 73.7656 191.352 73.7868 191.365 73.8095C191.403 73.8739 191.439 73.9338 191.477 73.998C191.317 73.9126 191.127 73.9008 190.965 74.0155C188.001 74.0525 185.066 73.6359 182.145 73.4142C184.451 71.0629 187.759 69.0643 187.068 65.3177C186.26 60.9216 183.997 57.8299 180.805 54.7258C171.616 45.7782 161.963 36.2592 150.843 29.6999C150.684 29.6071 150.551 29.6664 150.474 29.7726C130.515 17.8522 107.091 12.7291 87.3262 0.0503723C87.0014 -0.157668 86.5828 0.330087 86.8908 0.585218C105.986 16.4588 132.096 19.5328 153.003 32.3062C153.027 32.3624 153.05 32.4187 153.107 32.4582C157.829 35.7132 161.246 39.7953 160.415 45.9151C160.377 46.2026 160.876 46.2782 160.919 45.9916C161.317 43.3759 161.07 40.7837 160.17 38.5076C163.835 43.6663 165.042 49.0038 166.543 55.5475C167.077 57.8836 167.639 60.3143 168.59 62.5498C167.82 61.9682 167.052 61.3787 166.27 60.8188C158.154 54.8296 159.349 46.0408 154.484 38.3735C151.237 33.2563 146.982 30.3301 141.714 27.3993C141.363 27.2032 141.061 27.7033 141.391 27.9254C145.848 30.9472 150.845 33.9603 153.242 39.0417C155.311 43.4304 156.405 48.0601 157.962 52.6267C160.149 59.0397 165.201 61.5819 170.109 65.6473C170.703 66.1381 171.649 65.591 171.257 64.8254C167.295 57.0861 167.524 47.5572 163.246 40.2804C167.166 43.4509 170.998 46.73 174.593 50.3268C177.632 53.3679 181.488 56.4949 183.613 60.2913C186.634 65.6895 183.342 69.2328 180.907 73.3497C178.1 73.2084 175.311 73.3376 172.536 74.3811C168.782 75.7927 164.985 77.7838 160.9 77.8642C158.083 77.9176 155.384 77.0092 152.607 77.0255C147.547 77.0567 140.574 80.6571 142.157 86.7919C142.831 89.4096 144.218 91.7199 146.048 93.7062C141.272 95.7777 133.218 99.3078 131.923 104.468C130.666 109.498 132.22 112.541 137.326 113.023C144.865 113.738 138.659 116.786 141.078 119.361C142.964 121.37 145.247 119.336 146.813 122.534C148.912 126.822 154.809 128.555 158.827 125.939C159.158 125.726 158.991 125.115 158.568 125.257C153.763 126.867 150.111 124.951 148.062 120.42C151.894 119.883 155.4 118.033 158.65 115.956C162.208 113.687 166.671 111.135 169.249 107.743C169.421 107.519 169.114 107.252 168.891 107.365C165.046 109.322 161.849 112.771 158.177 115.076C154.964 117.094 151.535 119.025 147.798 119.855C147.471 119.078 147.181 118.467 146.239 118.195C143.614 117.44 142.674 118.108 143.292 115.144C143.417 114.542 143.329 113.613 142.878 113.159C141.676 111.948 140.695 111.587 138.936 111.272C137.996 111.104 137.04 111.222 136.101 111.1C132.485 107.235 132.288 104.044 135.502 101.522C138.97 98.6618 143.372 97.2531 146.854 94.534C154.183 101.603 167.595 103.763 175.491 98.1369C175.614 98.0521 175.682 97.941 175.728 97.8248C178.688 98.4886 182.053 98.7691 183.769 100.986C188.032 106.486 191.628 103.811 195.556 101.433C195.412 111.655 190.278 120.068 188.02 129.827C187.949 130.128 188.403 130.369 188.545 130.058C192.44 121.471 197.026 110.708 196.226 101.035C197.344 100.382 198.491 99.7917 199.693 99.4516C202.31 113.678 201.694 128.786 198.209 142.819C197.97 143.787 196.889 151.205 194.905 150.297C192.621 149.252 190.282 148.27 187.926 147.395C184.212 146.017 170.465 144.901 169.445 141.389C169.344 141.041 169.038 140.744 168.655 140.754C157.387 141.042 154.977 131.674 162.117 124.005C164.682 121.248 167.378 118.695 170.299 116.313C175.465 112.1 180.777 108.089 184.985 102.883C185.33 102.457 184.622 101.903 184.247 102.281C176.48 110.119 165.627 116.235 159.366 125.392C156.258 129.939 154.759 134.772 158.448 139.354C160.024 141.312 163.658 142.347 166.08 142.378C167.75 142.401 169.755 145.546 171.228 146.28C173.675 147.499 176.993 146.501 179.571 146.86C185.235 147.648 190.876 150.46 196.02 152.798C196.567 153.047 197.169 152.884 197.374 152.272C199.739 145.168 201.569 137.439 202.493 129.591C203.376 134.509 204.923 139.284 207.349 143.296C209.801 147.352 212.276 152.715 217.78 152.608C219.355 152.578 221.076 150.831 221.653 149.534C222.372 147.918 224.757 149.738 225.969 149.589C231.934 148.849 234.745 142.371 240.436 141.041C241.119 140.882 241.42 140.234 241.325 139.589C240.674 138.447 240.739 137.456 241.516 136.618C242.069 136.697 242.471 136.215 242.659 135.776C244.975 130.397 243.494 125.245 240.084 121.287C243.034 122.285 246.025 122.801 248.98 122.582C249.757 122.524 250.637 122.242 251.496 121.823C251.285 127.086 250.984 132.325 248.95 137.284C247.257 141.411 245.163 145.391 243.654 149.593C241.346 156.017 239.823 162.334 242.522 168.839C242.699 169.269 243.429 169.182 243.517 168.732C245.129 160.554 253.241 155.348 255.896 147.377C256.283 146.212 256.63 145.047 256.95 143.883C256.677 149.135 256.327 154.379 256.656 159.387C257.503 172.212 259.923 184.809 262.176 197.443C262.343 198.376 263.887 198.216 263.832 197.262C262.94 181.951 268.108 166.987 266.844 151.672C265.743 138.34 262.775 124.898 255.229 113.636C254.905 113.153 254.248 113.372 254.178 113.823C253.561 112.956 252.813 112.128 252.135 111.37C253.513 111.366 254.888 111.351 256.279 111.43C256.5 111.44 256.692 111.386 256.858 111.294C261.023 116.378 266.748 119.947 272.305 123.398C272.392 126.539 273.27 129.491 276.066 132.347C278.035 134.358 281.39 139.197 284.47 139.634C287.814 140.11 291.056 142.128 294.319 142.273C296.058 142.351 297.842 141.486 299.614 140.353C311.433 145.626 321.486 152.35 332.16 159.559C332.423 159.738 332.744 159.346 332.514 159.124C323.746 150.733 311.813 143.963 300.346 139.869C303.923 137.452 307.422 134.307 310.374 135.973C311.101 136.385 311.91 135.897 311.982 135.095C311.998 134.908 312.009 134.718 312.026 134.53C317.842 137.405 322.899 143.455 326.907 148.109C329.708 151.362 332.533 154.698 334.878 158.299C335.318 158.975 338.546 163.396 336.997 161.602C336.651 161.204 336.01 161.588 336.121 162.074C336.528 163.843 335.878 162.245 334.607 161.689C332.957 160.917 331.273 160.226 329.554 159.624C326.247 158.526 322.92 157.541 319.5 156.852C312.659 155.467 305.674 154.595 298.914 152.83C289.446 150.357 281.875 146.225 275.657 138.564C271.515 133.464 267.849 127.813 262.789 123.57C262.339 123.19 261.739 123.729 262.116 124.2C264.69 127.422 267.321 131.023 270.13 134.561C271.054 137.577 272.16 140.674 273.456 143.75C270.425 137.58 267.054 131.594 263.246 126.074C263.054 125.797 262.619 126.011 262.775 126.325C269.084 138.833 276.172 150.678 281.401 163.715C281.413 163.893 281.424 164.074 281.436 164.252C281.212 163.864 281.028 163.464 280.779 163.082C280.58 162.776 280.103 163.021 280.274 163.353C280.777 164.327 281.202 165.305 281.573 166.288C281.998 173.346 282.057 180.487 281.132 187.495C280.068 195.555 277.272 203.507 276.893 211.635C276.22 226.036 281.345 239.089 285.095 252.757C285.325 253.595 286.623 253.287 286.408 252.441C282.558 237.228 291.975 220.689 292.273 205.254C292.388 199.294 292.069 193.105 291.171 186.983C298.781 197.349 296.851 211.527 303.952 222.13C310.408 231.769 323.024 237.63 325.875 249.466C326.111 250.453 327.611 250.087 327.4 249.099C324.352 234.801 321.29 220.792 313.004 208.486C307.046 199.637 299.753 193.053 294.258 184.692C293.885 183.734 293.497 182.786 293.14 181.819C293.014 181.475 292.57 181.523 292.486 181.803C290.963 179.144 289.624 176.295 288.581 173.118C288.489 172.834 288.091 172.803 287.961 173.023C286.411 168.263 284.392 163.701 281.813 159.497C281.503 158.99 280.566 159.269 280.789 159.888C281.159 160.917 281.525 161.94 281.885 162.96C281.82 162.947 281.762 162.937 281.694 162.952C280.084 158.691 278.353 154.401 276.459 150.153C279.872 156.681 284.211 162.748 289.573 167.242C301.615 177.336 316.488 183.65 328.131 194.253C332.211 197.967 336.153 201.917 339.155 206.586C340.266 208.217 341.286 209.901 342.217 211.641C341.68 211.195 341.157 210.732 340.624 210.28C326.079 196.665 308.342 186.862 293.208 173.874C292.886 173.598 292.42 174.008 292.718 174.333C303.008 185.605 316.431 193.335 328.902 202.166C327.105 201.349 325.207 200.662 323.124 200.098C306.008 195.454 298.762 184.064 288.414 170.947C288.172 170.64 287.7 171.007 287.873 171.334C293.104 181.206 300.412 191.632 310.476 197.082C315.196 199.639 320.15 200.605 325.182 202.344C332.611 204.911 337.582 210.335 343.859 214.687C344.555 215.17 345.303 214.301 344.985 213.624C337.33 197.361 323.818 187.627 308.914 178.377C300.799 173.34 291.39 168.436 285.27 160.94C279.178 153.477 274.68 144.907 271.231 135.94C276.642 142.597 282.761 148.823 290.461 151.619C305.62 157.122 321.939 157.077 336.716 163.95C337.061 164.11 337.474 163.913 337.502 163.543C337.609 163.663 337.73 163.793 337.888 163.938C338.209 164.234 338.905 163.99 338.72 163.489C336.268 156.852 331.239 150.844 326.557 145.657C322.836 141.535 317.861 135.28 312.116 133.321C312.372 129.205 312.222 124.911 311.19 120.962C313.579 124.311 316.266 127.355 319.693 128.342C322.469 129.143 324.752 128.893 327.309 127.484C330.458 125.748 328.597 122.34 332.995 120.287C333.554 120.027 333.767 119.247 333.466 118.726C331.356 116.197 331.467 113.353 333.801 110.194C334.296 109.966 334.525 109.233 334.231 108.769C332.753 106.436 324.698 98.3377 329.894 95.8666C330.456 95.5985 330.452 94.9068 330.121 94.4751C328.612 92.4964 326.835 90.6999 324.881 89.085C328.434 88.4508 331.587 85.3482 327.128 81.9461C328.053 81.3909 328.942 80.7747 329.843 80.1775C330.307 79.8679 330.657 79.2079 330.297 78.6709C323.887 69.169 336.185 56.1489 330.022 46.3571C328.513 43.9624 322.313 45.2784 320.292 45.9896C319.308 46.3361 318.378 46.7584 317.472 47.2094C321.061 42.9164 321.294 36.5278 319.032 30.7509C316.729 24.8629 310.291 15.7351 302.862 19.7167ZM291.203 185.771C291.129 185.688 291.044 185.66 290.961 185.656C290.779 184.524 290.579 183.395 290.354 182.269C291.515 184.754 293.006 187.079 294.685 189.303C299.249 202.29 306.712 214.151 313.745 225.929C313.948 226.271 314.479 225.989 314.291 225.636C308.504 214.799 302.669 204.181 297.72 193.046C300.75 196.556 304.048 199.898 306.958 203.359C313.275 210.875 317.987 219.04 320.801 228.48C321.825 231.911 322.769 235.358 323.56 238.85C323.813 239.951 324.052 241.054 324.294 242.157C318.707 233.847 308.96 228.879 304.279 219.78C298.725 208.983 299.617 195.07 291.203 185.771ZM284.567 215.32C281.246 199.597 289.464 180.846 282.441 166.065C282.414 165.719 282.374 165.368 282.342 165.02C282.396 164.964 282.433 164.894 282.4 164.807C282.367 164.714 282.329 164.622 282.295 164.531C282.277 164.348 282.262 164.167 282.243 163.984C287.612 179.264 291.745 193.737 290.274 210.46C289.266 221.932 284.527 233.143 284.236 244.684C283.099 240.821 281.884 236.969 280.898 233.065C278.927 225.265 277.5 217.115 278.679 209.062C280.663 195.487 283.151 183.278 282.657 169.874C286.138 184.974 277.286 201.013 283.743 215.634C283.954 216.112 284.668 215.797 284.567 215.32ZM308.3 114.42C307.691 113.519 306.998 112.668 306.209 111.874C307.041 111.629 307.832 111.293 308.537 110.832C308.647 110.995 308.927 110.914 308.956 110.701C308.965 110.638 308.966 110.574 308.975 110.51C309.726 109.927 310.363 109.188 310.805 108.231C312.76 103.999 312.561 99.6132 311.458 95.2967C315.358 99.4506 318.297 104.051 321.525 108.901C321.703 109.173 322.088 108.962 321.964 108.665C319.657 103.042 315.856 97.1678 310.91 93.3735C310.558 92.2509 310.159 91.1345 309.729 90.0292C314.643 95.0383 319.406 99.873 323.575 105.638C323.791 105.938 324.182 105.579 324.063 105.289C321.311 98.6035 314.73 92.5827 308.965 88.2263C307.999 86.0164 306.79 83.9342 305.373 82.0278C309.644 83.2044 315.502 84.9957 320.033 87.2517C319.917 87.3775 319.881 87.5756 320.016 87.7494C320.778 88.7181 322.032 89.1555 323.372 89.1966C326.303 91.2423 327.807 93.5681 326.259 96.0986C325.424 97.4617 325.594 99.2173 326.283 100.605C327.221 102.499 332.214 108.567 330.645 109.173C329.269 109.704 328.406 112.141 328.707 113.436C328.92 114.36 330.88 118.742 329.961 119.178C329.319 119.484 328.656 120.152 328.361 120.792C322.449 133.601 314.106 121.381 308.3 114.42ZM273.963 123.21C273.96 123.192 273.961 123.174 273.959 123.155C273.828 121.407 273.933 119.475 274.214 117.205C274.36 116.02 274.546 114.845 274.714 113.664C274.853 113.469 274.892 113.214 274.806 113.004C275.321 109.464 275.872 105.931 276.322 102.386C277.088 96.388 278.056 87.9677 274.125 82.798C274.129 82.7569 274.095 82.7149 274.081 82.671C274.075 82.6526 274.087 82.637 274.077 82.6165C274.064 82.5923 274.045 82.5682 274.032 82.544C274.031 82.5437 274.031 82.5418 274.031 82.5418C274.031 82.5414 274.03 82.541 274.03 82.541C273.42 81.2937 272.414 80.162 271.211 79.2966C272.775 79.932 274.199 80.7719 275.393 81.9313C275.665 82.1928 275.995 82.1757 276.25 82.0278C281.089 87.1178 281.842 95.0134 283.576 102.042C283.947 109.286 282.528 115.788 280.448 123.106C280.379 123.35 280.75 123.529 280.866 123.29C283.58 117.724 284.744 111.765 284.646 105.742C284.967 106.683 285.325 107.594 285.738 108.461C285.735 108.462 285.733 108.457 285.729 108.458C285.72 108.463 285.71 108.467 285.701 108.471C285.686 108.478 285.697 108.499 285.71 108.495C286.008 108.434 287.54 124.357 287.303 126.015C287.271 126.238 287.592 126.245 287.665 126.069C289.013 122.813 288.22 118.658 287.695 115.302C287.487 113.982 287.356 112.03 286.829 110.427C288.817 113.552 291.795 115.912 296.672 116.849C297.098 116.929 297.603 116.716 297.751 116.297C299.06 118.193 299.429 120.46 299.623 123.037C299.64 123.274 300.004 123.369 300.062 123.103C300.679 120.235 299.696 117.43 297.79 115.386C297.756 114.198 297.897 113.397 298.197 112.896C298.225 113.222 298.251 113.55 298.277 113.877C298.336 114.615 299.48 114.663 299.449 113.899C299.426 113.308 299.396 112.715 299.361 112.118C300.695 111.854 302.729 112.524 304.914 112.172C304.935 112.201 304.944 112.233 304.971 112.262C305.033 112.331 305.094 112.409 305.157 112.48C308.295 116.362 309.933 121.134 310.137 126.222C310.173 127.126 309.734 131.133 310.088 132.845C309.825 132.862 309.674 133.056 309.68 133.27C308.378 132.879 306.785 133.091 305.668 133.744C302.643 135.515 300.032 139.524 296.524 140.205C294.041 140.686 281.875 135.808 280.469 134.543C276.083 130.587 274.294 127.466 273.963 123.21ZM257.361 110.612C257.455 110.318 257.475 109.997 257.334 109.703C256.193 107.337 255.785 104.533 255.603 101.586C259.441 108.498 265.75 112.018 273.25 113.758C272.925 116.648 272.425 119.36 272.321 121.936C266.923 118.646 261.743 115.173 257.361 110.612ZM258.41 136.21C258.632 133.83 258.625 131.422 258.308 128.964C258.282 128.762 258.114 128.69 257.953 128.713C257.665 126.467 257.205 124.269 256.516 122.127C259.156 129.365 261.184 136.482 261.172 144.278C261.162 151.208 260.346 158.148 260.771 165.071C260.785 165.3 261.105 165.308 261.127 165.079C262.511 150.349 263.885 135.054 256.806 121.504C256.691 121.283 256.338 121.398 256.359 121.623C256.002 120.571 255.573 119.54 255.087 118.518C255.182 118.321 255.282 118.128 255.34 117.928C255.461 117.512 255.483 117.096 255.44 116.682C261.814 130.216 266.147 144.563 265.262 159.778C264.834 167.114 263.611 174.323 262.787 181.615C262.554 183.681 262.315 185.763 262.156 187.848C259.479 172.718 257.931 158.017 258.331 142.63C258.387 140.466 258.43 138.325 258.41 136.21ZM252.494 121.259C253.259 120.764 253.953 120.168 254.481 119.5C256.473 124.331 257.115 129.527 257.187 134.857C256.236 143.296 253.844 150.94 248.204 157.93C246.355 160.222 243.341 163.189 242.829 166.293C243.152 164.334 242.257 159.617 243.089 156.546C246.481 144.025 253.16 134.406 252.494 121.259ZM216.628 103.548C217.682 103.893 218.731 104.217 219.789 104.579C223.239 105.758 226.244 106.332 229.851 105.648C230.148 105.592 230.241 105.259 230.135 105.014C227.93 99.919 224.941 94.1145 221.197 88.836C229.123 91.7383 238.262 95.1241 246.692 94.1507C247.033 94.1096 247.044 93.5333 246.706 93.4763C242.205 92.7267 237.653 92.6636 233.183 91.5607C228.892 90.4991 224.703 89.1063 220.47 87.8417C219.495 86.5201 218.471 85.2408 217.4 84.0181C220.357 83.9096 222.092 82.0963 225.205 80.531C230.763 77.7367 241.683 77.6126 246.938 81.0939C256.294 87.2963 251.261 99.7247 254.549 109.083C252.96 109.091 251.376 109.14 249.771 109.07C248.978 109.036 248.271 110.025 248.751 110.739C249.741 112.212 254.836 117.71 252.409 119.938C252.395 119.781 252.396 119.629 252.379 119.471C252.33 118.976 251.612 118.932 251.59 119.456C251.575 119.79 251.564 120.121 251.55 120.456C250.631 120.828 249.242 120.986 247.213 120.822C243.296 120.507 239.738 119.213 236.308 117.32C229.202 113.395 222.813 108.782 216.628 103.548ZM200.549 99.2605C201.125 99.1625 201.713 99.1241 202.318 99.1739C204.813 106.74 205.276 116.077 210.759 122.153C210.92 122.331 211.21 122.118 211.097 121.908C208.886 117.782 207.47 113.61 206.382 109.069C205.576 105.707 204.772 102.352 203.153 99.2997C203.366 99.345 203.58 99.3968 203.796 99.4647C207.715 100.701 211.603 101.916 215.504 103.181C215.461 103.278 215.454 103.389 215.556 103.497C220.675 108.837 227.972 115.628 235.851 119.516C240.237 124.133 246.782 132.995 239.237 134.38C238.555 134.505 238.276 135.199 238.361 135.811C238.952 140.066 237.246 139.029 234.468 141.554C231.252 144.476 227.465 150.189 222.284 146.47C221.842 146.154 221.304 146.483 221.135 146.916C217.262 156.832 211.554 148.226 209.643 145.04C207.416 141.324 205.589 137.427 204.635 133.165C203.851 129.667 203.44 126.144 203.063 122.613C203.417 114.625 202.71 106.668 200.549 99.2605ZM147.756 92.5651C146.708 86.4651 152.697 90.4388 155.672 88.7213C159.826 86.3234 161.648 82.1066 167.251 82.2934C170.506 82.4041 173.663 82.4621 176.667 81.0531C180.983 79.0302 184.304 75.6554 189.12 76.5095C185.612 80.5594 181.076 81.621 176.772 85.1486C175.152 86.4779 169.945 89.8447 170.133 92.6688C170.316 95.4899 171.975 96.687 174.11 97.3836C167.956 101.192 160.642 100.217 154.375 96.9465C152.484 95.9602 149.896 94.4517 147.756 92.5651ZM180.878 75.0217C182.546 75.0724 184.2 75.1566 185.849 75.1857C183.631 75.636 181.621 76.9412 179.025 78.4479C175.331 80.5867 171.496 81.2016 167.279 80.9821C166.157 80.9224 163.115 80.397 162.022 81.1521C159.043 83.2108 156.864 87.7388 152.659 87.6045C151.448 87.5664 149.123 87.0642 147.994 87.7117C146.582 88.5244 146.35 89.9562 146.569 91.4339C144.756 89.522 143.539 87.2941 143.88 84.8568C144.839 78.014 152.592 79.404 157.357 79.8926C160.875 80.2525 163.978 79.7413 167.314 78.6533C171.887 77.1669 175.888 74.8716 180.878 75.0217ZM188.927 75.143C189.374 75.121 189.815 75.0665 190.262 75.0241C190.179 75.1475 190.095 75.2718 190.012 75.3894C189.638 75.2858 189.278 75.2014 188.927 75.143ZM227.562 101.472C230.919 108.528 214.238 100.971 211.848 100.14C208.346 98.9223 204.043 97.3925 200.325 97.2356C197.178 97.1026 195.412 99.5749 193.204 101.222C189.871 103.705 183.204 96.5356 179.138 96.2518C176.288 96.0518 167.624 95.667 174.245 89.5983C176.953 87.114 179.756 85.1515 182.994 83.4508C186.361 81.6795 188.702 79.828 190.556 76.8887C190.761 76.958 190.963 77.0182 191.175 77.101C191.925 77.4017 192.258 76.201 191.519 75.9008C191.412 75.8561 191.308 75.8225 191.202 75.7836C191.382 75.4511 191.562 75.1238 191.734 74.7638C191.769 74.6874 191.787 74.6109 191.794 74.5376C193.572 77.5838 194.91 80.183 194.699 84.0655C194.515 87.4286 193.845 90.744 192.898 93.9724C192.813 94.2659 193.26 94.3935 193.355 94.1034C195.008 89.0252 197.479 80.4661 194.019 75.3709C202.019 82.4772 209.787 88.5398 212.306 100.032C212.372 100.341 212.837 100.226 212.779 99.9183C211.072 90.8298 204.409 80.1837 196.056 74.6914C210.564 77.3896 221.184 88.0731 227.562 101.472ZM185.589 54.5023C188.571 56.281 191.637 57.9236 194.734 59.3881C194.563 59.5788 194.521 59.8868 194.808 60.0888C199.086 63.116 203.625 65.7561 207.777 68.9709C212.524 72.6489 216.382 76.9528 220.726 81.0406C221.017 81.3144 221.518 80.9932 221.311 80.6208C218.759 76.0451 214.921 72.1427 210.583 68.7669C221.746 71.4022 232.622 75.1338 243.937 77.1602C248.819 78.0339 255.302 77.3813 261.397 77.5856C261.169 77.6432 260.939 77.6629 260.714 77.739C260.272 77.8897 260.318 78.5201 260.803 78.5561C261.687 78.6227 262.557 78.6529 263.421 78.7029C263.384 78.7273 263.342 78.7355 263.305 78.7618C262.984 78.9861 263.041 79.532 263.492 79.5413C264.752 79.5674 265.977 79.3292 267.216 79.3472C267.284 79.3721 267.354 79.379 267.423 79.4044C268.748 79.8891 269.962 80.5171 271.116 81.2509C278.515 90.313 274.731 101.737 273.415 112.403C266.193 110.596 260.444 107.598 256.029 101.274C255.904 101.094 255.683 101.136 255.584 101.268C255.116 92.9252 256.321 83.5016 247.939 79.4586C242.602 76.885 236.531 76.9355 230.707 77.3872C225.171 77.8142 221.776 82.6866 216.317 82.819C212.935 79.194 209.106 76.1823 204.834 74.3778C201.796 72.0737 198.664 69.8456 196.074 67.1482C192.273 63.1885 189.285 58.5686 185.589 54.5023ZM230.209 67.9348C221.807 64.2936 212.68 64.2085 203.914 61.5323C194.989 58.8087 187.205 53.6962 179.442 48.6489C176.992 46.4945 174.459 44.4223 171.861 42.4231C184.18 49.3706 197.26 55.0015 210.983 58.5518C211.342 58.6431 211.475 58.1387 211.139 58.0078C196.434 52.2175 181.613 47.6068 167.922 39.4838C166.378 38.3643 164.819 37.2644 163.243 36.1963C175.983 41.3152 188.58 46.3369 201.59 50.8154C211.325 54.1671 224.528 58.4916 230.209 67.9348ZM272.593 67.8216C272.124 69.5782 271.307 71.2299 269.928 72.7202C269.01 72.9738 268.083 73.1718 267.15 73.3134C267.476 73.1882 267.804 73.0629 268.113 72.9301C269.794 72.2081 270.935 71.3192 271.809 69.7274C271.975 69.423 271.752 69.0871 271.476 69.0007C271.86 68.6426 272.224 68.2259 272.593 67.8216ZM297.814 31.6237C297.602 31.8686 297.387 32.1126 297.18 32.3493C296.525 33.0984 297.458 34.1197 298.244 33.4811C298.637 33.1619 299.02 32.8165 299.397 32.4559C299.455 32.4963 299.514 32.5235 299.573 32.5642C299.803 32.7188 302.45 35.7876 303.755 37.9046C303.539 38.6863 303.31 39.4495 303.068 40.1944C303.035 40.2683 303.001 40.3396 302.992 40.4235C301.359 45.3695 299.09 49.551 295.234 53.5928C292.3 56.6691 289.117 59.5048 286.422 62.7956C286.248 63.0077 286.498 63.2983 286.719 63.113C293.149 57.73 300.766 51.0081 303.656 42.7435C306.186 52.7687 301.561 69.6541 290.171 70.7291C289.842 70.7599 289.703 71.223 290.01 71.3608C284.144 69.8782 277.747 70.6262 271.7 74.6518C271.198 74.9873 271.587 75.6756 272.137 75.4632C282.867 71.3244 295.083 71.5027 302.521 79.9004C302.009 79.8496 301.496 79.7984 300.987 79.7681C300.373 79.7303 300.236 80.6714 300.828 80.8248C301.567 81.0216 302.638 81.2925 303.916 81.6341C304.865 82.9602 305.723 84.4352 306.452 86.1032C307.278 87.9956 308.215 90.1401 309.025 92.3626C308.89 92.4911 308.834 92.6951 308.997 92.8464C309.1 92.9401 309.192 93.0385 309.294 93.133C310.336 96.1524 311.089 99.2893 310.908 102.164C310.746 104.736 310.05 106.463 309.014 107.65C307.978 95.4635 292.117 81.3023 281.325 79.8531C280.998 79.8094 280.924 80.3462 281.24 80.4214C294.228 83.5003 304.919 95.8614 308.019 108.563C306.895 109.367 305.521 109.78 304.01 109.989C303.98 109.967 303.956 109.942 303.926 109.921C303.72 109.776 303.501 109.886 303.387 110.063C302.059 110.198 300.651 110.214 299.232 110.229C298.618 102.415 296.851 94.4655 291.331 88.6441C291.137 88.4396 290.835 88.7284 291.015 88.9403C296.106 94.9494 297.3 102.652 297.976 110.246C297.511 110.256 297.048 110.267 296.591 110.29C296.143 110.313 295.655 110.65 295.69 111.154C296.301 119.946 287.153 108.521 286.056 104.977C284.923 101.313 284.264 97.5547 283.329 93.8407C281.951 88.378 280.127 83.323 275.454 80.1008C268.862 74.715 259.689 77.8665 251.803 77.1578C237.064 75.8344 223.312 70.7165 208.969 67.5489C205.779 65.2206 202.383 63.1501 199.055 61.3001C209.655 65.6125 221.59 65.1291 231.788 70.6848C232.615 71.1359 233.409 70.308 233.06 69.4834C232.59 68.3702 232.006 67.332 231.358 66.3362C243.521 70.7572 253.801 59.1076 265.204 56.1215C259.597 61.0672 254.304 65.3062 248.139 68.227C248.212 68.1601 248.29 68.1019 248.361 68.0323C248.637 67.7573 248.395 67.2168 247.986 67.3382C245.788 67.9901 243.81 69.1024 241.507 69.5089C238.899 69.9689 236.241 70.0638 233.62 69.6403C233.129 69.5599 232.897 70.3009 233.403 70.3993C235.539 70.8095 238.177 71.0937 240.747 70.9173C239.636 71.2099 238.497 71.4719 237.313 71.6848C236.75 71.6902 236.185 71.6944 235.62 71.7255C235.463 71.7336 235.388 71.8594 235.392 71.977C235.068 72.0216 234.755 72.0788 234.426 72.1166C233.802 72.1881 233.978 73.1066 234.54 73.1531C236.993 73.3621 239.343 73.1834 241.607 72.7269C248.393 73.5555 255.419 74.8739 261.728 73.7452C261.733 73.8436 261.764 73.9314 261.826 74.0111C261.048 74.1243 260.272 74.2446 259.505 74.4225C259.089 74.5199 259.209 75.0581 259.58 75.1106C263.32 75.6435 267.296 74.5742 270.756 73.2416C271.01 73.144 270.969 72.8384 270.806 72.6776C279.852 66.1763 270.564 50.9395 281.821 44.9886C286.036 42.7599 287.052 40.2526 289.05 35.9386C290.755 32.2576 293.962 30.0785 297.814 31.6237ZM307.454 20.8317C307.267 20.8924 307.127 21.0949 307.224 21.3285C308.02 23.2209 308.978 25.0023 309.392 27.0394C309.807 29.0749 309.927 31.1357 309.755 33.205C309.727 33.5306 310.264 33.6141 310.323 33.2907C311.062 29.234 310.995 24.027 307.819 20.9246C308.456 21.0996 309.018 21.3235 309.314 21.5174C310.886 22.547 312.329 23.8497 313.471 25.346C319.112 32.7539 321.889 45.5744 311.677 50.4742C311.412 50.6028 311.524 50.9896 311.763 51.0384C311.026 51.6684 310.307 52.3257 309.614 53.0199C313.738 47.0058 317.363 40.4731 316.952 33.2719C316.93 32.8976 316.33 32.747 316.254 33.1666C315.258 38.6965 314.012 43.7251 311.041 48.5922C308.547 52.678 305.758 56.5645 303.369 60.7149C303.161 61.077 303.686 61.3911 303.919 61.0507C304.772 59.8126 305.681 58.5514 306.606 57.267C306.748 57.3311 306.912 57.3474 307.082 57.2051C313.035 52.2739 317.767 45.9247 326.538 46.4592C332.791 46.8404 329.323 58.8867 328.512 62.2722C327.47 66.6233 326.281 71.1332 326.691 75.6388C326.999 79.0354 328.459 79.0017 324.551 80.9175C323.855 81.2594 323.787 82.392 324.499 82.7635C328.857 85.0348 326.226 87.5814 323.142 87.7317C317.497 83.6029 310.584 80.9342 303.76 80.0428C301.65 77.6418 299.215 75.5868 296.538 74.0239C302.442 75.8798 307.649 79.3721 313.408 81.6782C313.748 81.8158 313.948 81.2924 313.659 81.1064C307.753 77.2986 300.938 73.8271 293.928 72.6835C292.752 72.1633 291.539 71.7637 290.305 71.4356C290.751 71.519 291.187 71.5838 291.599 71.6088C291.63 71.6919 291.69 71.7595 291.805 71.7864C300.331 73.808 309.435 76.1625 318.256 76.0899C318.646 76.087 318.771 75.4711 318.362 75.3933C310.155 73.8233 301.818 73.1188 293.606 71.478C294.239 71.3609 294.836 71.184 295.384 70.9265C299.44 71.0974 303.537 70.4541 307.51 69.7018C311.765 68.8964 316.201 68.2128 320.246 66.6282C320.57 66.5022 320.433 65.926 320.084 65.961C315.747 66.3925 311.528 67.8046 307.253 68.6386C303.665 69.3369 300.053 69.7741 296.446 70.3093C299.926 67.9053 301.593 62.6619 303.3 58.4448C304.916 54.4488 306.424 50.9594 306.117 46.6001C305.94 44.0951 303.351 41.5236 306.115 41.2679C306.488 41.2331 306.781 40.9467 306.692 40.5501C306.025 37.5839 303.303 34.0114 300.077 31.7553C302.698 28.99 304.67 25.3136 304.475 21.5426C304.42 20.4693 306.033 20.5006 307.454 20.8317Z" fill="url(#paint11_linear_328_199)"/>
<path id="Vector_13" d="M312.164 28.9517C315.321 33.3742 312.883 39.206 311.199 43.6955C311.07 44.0417 310.547 43.9003 310.642 43.5352C311.917 38.6095 312.817 34.1939 311.628 29.1548C311.546 28.8131 311.983 28.6977 312.164 28.9517Z" fill="url(#paint12_linear_328_199)"/>
<path id="Vector_14" d="M211.382 77.9994C206.716 73.4925 203.396 68.5076 197.728 65.0009C197.35 64.7668 197.696 64.2536 198.077 64.4289C203.871 67.0849 208.75 72.1178 212.018 77.5427C212.259 77.9412 211.693 78.3015 211.382 77.9994Z" fill="url(#paint13_linear_328_199)"/>
<path id="Vector_15" d="M248.675 153.629C248.483 154.049 247.778 153.732 247.934 153.305C250.217 147.017 252.882 140.9 254.805 134.484C254.945 134.019 255.746 134.108 255.671 134.613C254.669 141.377 251.496 147.476 248.675 153.629Z" fill="url(#paint14_linear_328_199)"/>
</g>
<g id="Group_4">
<path id="Vector_16" d="M311.897 331.104C311.365 330.568 310.559 330.343 309.925 329.952C309.756 329.848 309.584 329.912 309.482 330.038C309.31 330.058 309.142 330.155 309.03 330.289C308.852 330.507 308.676 330.728 308.502 330.947C308.274 331.233 308.424 331.675 308.7 331.858C309.633 332.478 310.572 333.084 311.509 333.696C311.959 333.988 312.536 333.658 312.572 333.143C312.63 332.359 312.463 331.673 311.897 331.104Z" fill="url(#paint15_linear_328_199)"/>
<path id="Vector_17" d="M307.601 334.048C307.419 334.63 307.229 335.211 307.217 335.826C307.206 336.621 307.504 337.394 307.768 338.129C307.936 338.603 308.68 338.584 308.912 338.186C309.474 337.214 309.042 336.494 308.826 335.542C309.036 335.731 309.25 335.913 309.497 336.054C309.881 336.277 310.349 335.783 310.018 335.442C309.476 334.879 309.125 334.225 308.502 333.72C308.191 333.469 307.706 333.707 307.601 334.048Z" fill="url(#paint16_linear_328_199)"/>
<path id="Vector_18" d="M309.333 326.182C308.709 324.597 307.113 322.793 305.262 323.276C304.478 323.112 303.925 322.728 303.225 323.578C303.069 323.766 303.099 324.059 303.19 324.264C304.273 326.705 306.06 328.132 308.795 327.318C309.317 327.162 309.527 326.68 309.333 326.182ZM304.73 324.177C304.885 324.184 305.042 324.198 305.197 324.217C305.597 324.449 306.021 324.627 306.437 324.861C306.91 325.126 307.222 325.529 307.475 325.975C306.966 326.033 306.471 325.98 305.978 325.67C305.455 325.338 305.061 324.744 304.73 324.177Z" fill="url(#paint17_linear_328_199)"/>
<path id="Vector_19" d="M301.473 330.326C301.684 330.64 301.945 330.916 302.198 331.199C301.896 331.243 301.622 331.334 301.283 331.35C300.815 331.371 300.615 332.088 301.133 332.208C301.488 332.289 301.743 332.498 302.091 332.559C302.582 332.648 302.997 332.829 303.419 333.092C303.975 333.442 304.761 332.944 304.594 332.276C304.241 330.874 303.258 330.007 301.834 329.763C301.562 329.717 301.317 330.097 301.473 330.326Z" fill="url(#paint18_linear_328_199)"/>
<path id="Vector_20" d="M307.799 315.88C308.11 316.531 308.632 317.052 308.932 317.708C309.209 318.317 308.596 318.804 308.038 319.136C307.899 318.922 307.752 318.714 307.628 318.491C307.602 318.447 307.599 318.436 307.583 318.404C307.83 318.356 308.123 318.357 308.345 318.312C308.977 318.183 308.763 317.224 308.132 317.339C307.559 317.443 306.783 317.155 306.385 317.727C305.828 318.53 306.79 319.723 307.198 320.355C307.396 320.662 307.771 320.849 308.124 320.654C309.255 320.037 310.446 319.208 310.316 317.778C310.223 316.729 309.057 315.811 308.181 315.428C307.911 315.309 307.693 315.652 307.799 315.88Z" fill="url(#paint19_linear_328_199)"/>
<path id="Vector_21" d="M265.126 349.771C265.161 349.427 264.672 349.293 264.499 349.571C264.293 349.9 264.107 350.038 263.937 350.032C263.964 349.964 263.981 349.889 263.981 349.811C263.975 349.307 263.971 348.804 263.965 348.301C263.959 347.849 263.562 347.456 263.093 347.568C263.026 347.584 262.984 347.607 262.92 347.625C262.553 345.529 262.436 342.784 262.5 342.471C262.975 340.179 264.236 338.05 265.36 336.036C267.645 331.939 270.586 328.207 273.274 324.376C276.237 320.156 280.056 315.112 281.35 309.764C281.402 312.627 281.435 315.655 281.492 318.792C281.493 318.797 281.491 318.797 281.491 318.8C281.491 318.803 281.491 318.805 281.493 318.809C281.884 340.075 283.453 366.186 300.723 377.661C301.02 377.86 301.395 377.434 301.135 377.178C287.997 364.142 284.915 346.145 283.882 327.691C285.012 330.994 286.416 334.18 288.263 337.388C292.245 344.296 297.88 349.085 299.886 357.089C302.006 365.564 301.596 375.793 307.366 382.477C303.988 381.28 300.405 380.741 296.819 379.814C287.569 377.418 281.807 368.556 278.828 360.167C276.257 352.927 276.345 345.733 278.683 338.474C280.422 333.084 281.953 328.599 281.461 322.851C281.421 322.376 280.74 322.315 280.701 322.82C280.167 329.893 277.916 335.978 276.024 342.721C274.418 348.448 275.904 354.945 277.519 360.452C281.005 372.349 289.878 379.926 301.825 382.342C302.723 382.524 306.503 383.632 308.215 383.418C309.132 384.325 310.177 385.161 311.392 385.897C312.116 386.335 312.803 385.265 312.101 384.793C311.083 384.109 310.027 383.567 308.95 383.099C309.184 382.798 309.052 382.285 308.29 381.434C306.038 378.92 305.08 375.188 304.281 372.025C302.86 366.392 302.453 360.557 300.998 354.921C299.701 349.894 296.831 346.514 293.587 342.593C289.226 337.324 285.949 331.513 283.754 325.182C283.485 319.388 283.375 313.572 283.191 307.868C285.933 316.831 293.595 324.523 301.813 328.605C302.257 328.827 302.599 328.279 302.224 327.965C293.996 321.09 284.889 315.401 283.123 303.877C283.114 303.813 283.068 303.79 283.04 303.746C282.83 298.754 282.513 293.872 281.914 289.206C281.377 285.012 280.548 280.475 279.417 275.813C279.565 276.053 279.707 276.296 279.865 276.529C286.187 290.131 300.206 299.538 315.484 295.25C319.147 294.221 322.841 292.294 325.907 290.072C327.584 288.856 328.521 287.989 328.925 287.33C330.24 287.614 331.63 287.665 333.189 287.405C333.771 287.307 333.647 286.47 333.101 286.418C331.572 286.27 330.354 286.292 329.147 286.662C329.214 285.315 326.248 284.998 323.778 283.302C321.16 281.504 318.627 279.921 315.789 278.46C311.939 276.475 307.582 274.724 303.264 274.21C295.39 273.272 286.386 275.609 280.037 270.274C280.056 270.259 280.077 270.243 280.096 270.228C291.927 275.863 310.287 265.742 316.556 255.892C317.077 255.074 316.05 254.385 315.348 254.865C308.885 259.3 300.628 256.552 293.388 258.177C287.604 259.475 283.094 264.087 278.864 268.282C278.322 267.967 277.797 267.614 277.294 267.217C277.27 267.182 277.243 267.157 277.22 267.121C277.156 267.023 277.065 266.976 276.972 266.952C276.953 266.936 276.935 266.921 276.916 266.905C271.486 249.992 262.021 233.112 247.678 225.769C247.286 225.568 246.911 226.122 247.302 226.353C263.041 235.7 271.821 252.575 276.507 270.568C276.35 270.716 276.193 270.867 276.036 271.011C275.37 271.623 276.132 272.811 276.947 272.34C276.951 272.337 276.954 272.335 276.959 272.333C278.181 277.322 279.092 282.379 279.763 287.371C277.468 291.828 268.424 293.978 264.842 295.263C260.082 296.968 256.057 299.21 252.138 302.418C244.106 308.992 242.125 318.363 246.655 327.518C246.953 328.122 248.04 328.127 248.183 327.389C249.665 319.708 262.558 316.165 267.992 311.195C273.164 306.461 278.566 300.284 279.514 293.159C279.726 292.935 279.955 292.726 280.163 292.499C280.535 292.093 280.052 291.511 279.644 291.748C279.651 291.616 279.642 291.484 279.646 291.352C279.825 291.136 280.006 290.921 280.175 290.703C280.731 295.598 281.066 300.402 281.228 304.978C281.198 305.021 281.165 305.063 281.169 305.135C282.165 319.198 255.201 334.181 261.557 348.159C257.497 350.415 264.568 355.441 265.126 349.771ZM298.843 259.192C302.181 258.922 305.354 259.128 308.426 258.822C300.007 263.41 292.371 268.048 282.456 268.326C287.271 264.217 291.312 259.801 298.843 259.192ZM281.469 269.147C291.72 271.931 301.828 263.941 310.015 258.628C311.047 258.452 312.067 258.153 313.081 257.773C305.987 265.722 291.375 273.005 281.203 269.366C281.292 269.294 281.381 269.219 281.469 269.147ZM328.057 287.105C327.645 287.306 327.227 287.542 326.787 287.844C320.58 292.102 314.097 294.941 306.475 295.078C297.629 295.237 290.651 289.498 285.51 282.407C296.966 291.044 316.555 292.461 328.051 287.102C328.053 287.102 328.054 287.103 328.057 287.105ZM277.611 269.141C277.666 269.213 277.728 269.275 277.784 269.345C277.756 269.374 277.726 269.402 277.697 269.43C277.668 269.334 277.639 269.237 277.611 269.141ZM279.037 270.994C279.096 270.954 279.155 270.914 279.214 270.87C284.712 275.953 292.893 275.243 300.586 275.245C308.498 275.248 316.741 280.112 323.022 284.48C324.449 285.472 325.807 286.263 327.211 286.805C326.93 286.896 326.647 286.975 326.366 287.059C326.445 286.872 326.376 286.615 326.109 286.595C310.759 285.412 293.726 286.67 282.333 274.455C282.053 274.157 281.653 274.551 281.873 274.867C291.265 288.421 311.311 286.43 325.788 287.234C310.957 291.418 292.945 288.123 282.088 277.056C280.934 275.02 279.919 272.976 279.037 270.994ZM256.392 317.172C253.888 318.708 250.856 320.466 248.874 322.741C249.302 317.547 252.524 313.271 256.848 309.419C255.349 310.871 253.977 312.434 252.803 314.171C252.572 314.513 253.045 314.902 253.347 314.634C260.954 307.89 269.939 302.428 277.3 295.403C273.872 305.308 265.371 311.66 256.392 317.172ZM277.9 293.414C276.276 294.932 274.514 296.326 272.685 297.66C274.62 296.2 276.418 294.715 277.966 293.176C277.945 293.256 277.922 293.335 277.9 293.414ZM278.315 291.597C272.302 298.338 263.475 302.998 256.648 308.701C252.741 311.966 246.033 317.85 248.104 323.659C247.6 324.279 247.026 325.005 246.862 325.737C247.79 321.603 245.618 317.59 246.89 313.143C249.716 303.27 260.736 299.019 269.293 295.7C272.049 294.632 275.852 293.242 278.427 291.005C278.391 291.202 278.354 291.4 278.315 291.597ZM279.536 289.894C279.704 289.697 279.863 289.491 280.009 289.281C280.019 289.357 280.028 289.435 280.036 289.513C279.899 289.695 279.753 289.872 279.611 290.053C279.592 289.991 279.568 289.941 279.536 289.894Z" fill="url(#paint20_linear_328_199)"/>
<path id="Vector_22" d="M269.458 357.388C270.38 355.94 269.299 354.066 267.931 353.399C267.702 353.287 267.38 353.481 267.478 353.743C266.197 353.217 264.748 353.114 264.067 354.598C263.682 355.437 264.033 356.69 264.486 357.44C264.856 358.052 265.445 358.488 266.131 358.683C267.371 359.032 268.774 358.462 269.458 357.388ZM265.237 355.739C264.892 353.933 266.981 354.296 268.112 354.803C268.423 355.345 268.643 355.918 268.412 356.529C268.176 357.154 267.429 357.471 266.809 357.467C265.827 357.456 265.399 356.582 265.237 355.739Z" fill="url(#paint21_linear_328_199)"/>
<path id="Vector_23" d="M262.104 353.399C262.411 353.449 262.714 353.06 262.445 352.808C260.8 351.277 258.018 350.838 256.125 352.162C254.162 353.535 255.171 356.79 256.912 357.867C259.814 359.666 263.147 356.046 262.104 353.399ZM257.048 353.19C257.979 352.349 259.531 352.38 260.785 352.803C261.243 353.815 261.432 354.701 260.679 355.755C260.104 356.562 258.928 357.019 257.972 356.748C256.621 356.369 256.023 354.119 257.048 353.19Z" fill="url(#paint22_linear_328_199)"/>
<path id="Vector_24" d="M254.917 348.663C254.435 348.973 254.3 349.612 254.728 350.043C255.944 351.264 257.82 349.31 257.715 348.035C257.699 347.833 257.498 347.636 257.287 347.761C257.022 347.916 256.721 348.263 256.412 348.562C255.908 348.446 255.343 348.388 254.917 348.663Z" fill="url(#paint23_linear_328_199)"/>
<path id="Vector_25" d="M256.674 344.605C256.793 344.125 256.586 343.599 256.85 343.172C256.962 342.991 256.802 342.725 256.58 342.785C256.244 342.875 256.083 343.029 255.892 343.314C255.77 343.496 255.738 343.733 255.65 343.921C255.396 343.513 255.203 343.047 255.582 342.835C256.111 342.537 256.801 342.439 257.382 342.283C257.777 342.179 257.648 341.609 257.248 341.668C256.357 341.802 255.347 341.664 254.595 342.248C253.676 342.963 254.479 344.385 254.943 345.083C255.09 345.306 255.347 345.498 255.635 345.41C256.048 345.286 256.557 345.079 256.674 344.605Z" fill="url(#paint24_linear_328_199)"/>
<path id="Vector_26" d="M252.046 345.783C251.962 345.597 251.767 345.604 251.636 345.703C251.495 345.41 251.286 345.152 250.923 344.939C249.957 344.37 248.786 344.83 247.958 345.424C246.639 346.367 246.153 348 247.196 349.334C248.04 350.412 249.592 350.741 250.839 350.295C252.637 349.652 252.704 347.246 252.046 345.783ZM248.298 346.996C248.71 346.396 249.445 345.898 250.189 345.89C250.676 345.886 251.279 346.428 251.434 346.864C251.36 347.679 251.191 348.536 250.486 348.948C249.866 349.31 249.065 349.065 248.522 348.678C247.912 348.24 247.896 347.576 248.298 346.996Z" fill="url(#paint25_linear_328_199)"/>
</g>
<g id="Group_5">
<path id="Vector_27" d="M27.6307 71.1824C25.0726 76.3768 22.3535 84.3258 30.1027 85.9571C36.7212 87.348 46.7794 79.2624 49.8847 74.1108C50.3447 73.3447 50.7689 72.5615 51.1701 71.7613C51.5176 74.1675 55.2369 76.9019 57.6293 75.8252C61.2185 74.209 62.4262 69.2789 62.6778 65.7231C63.0961 59.7848 61.7392 53.9524 60.7351 48.1295C60.7215 48.057 60.6838 48.0104 60.6425 47.9742C62.3118 45.1305 64.4151 42.5462 67.3048 40.4254C67.5796 40.2236 67.275 39.8445 66.9935 40.0117C52.4199 48.7016 56.2105 70.3614 41.9567 79.7864C40.0577 81.0404 24.0568 90.3008 26.4737 78.8464C27.2835 75.0026 28.9778 70.7828 31.5597 67.7584C38.2279 59.9459 47.2658 57.0395 55.851 52.0718C56.2788 51.8239 55.867 51.2149 55.4468 51.3557C48.341 53.7381 40.4676 57.2045 34.5268 62.4301C34.4605 62.4252 34.3961 62.4366 34.3403 62.4696C32.4206 63.6057 26.984 63.6211 29.835 60.7637C30.8081 59.7454 31.8417 58.7972 32.9383 57.9193C34.9819 56.3663 37.139 54.9305 39.5444 53.9909C44.4273 52.0866 49.4574 51.5533 54.5856 50.7438C55.038 50.6729 54.9453 50.0244 54.499 50.0506C43.289 50.6682 34.0458 53.6983 26.5635 62.3245C26.3659 62.5539 26.3685 62.9498 26.5583 63.1837C27.9682 64.9168 29.8658 65.6945 31.594 65.3532C30.033 67.1227 28.6796 69.0531 27.6307 71.1824ZM52.3141 69.4909C52.2657 69.5205 52.2358 69.5563 52.1893 69.5864C55.1867 62.7279 56.6941 55.1026 60.2318 48.7053C60.5532 56.152 63.5316 64.2676 59.8042 71.345C58.7329 73.38 56.6238 75.5395 54.3991 73.5112C53.7388 72.9088 52.3382 71.1654 52.9552 70.1417C53.2252 69.6928 52.7721 69.2144 52.3141 69.4909Z" fill="url(#paint26_linear_328_199)"/>
<path id="Vector_28" d="M39.9397 72.285C39.6586 72.3652 39.5038 71.9964 39.768 71.8644C48.1299 67.6686 48.9095 58.3695 55.2854 52.4682C55.4732 52.2937 55.7679 52.5965 55.6011 52.7879C50.0555 59.1515 49.0694 69.647 39.9397 72.285Z" fill="url(#paint27_linear_328_199)"/>
<path id="Vector_29" d="M57.5172 57.6222C57.5774 57.2409 58.0815 57.2702 58.1592 57.6214C59.0299 61.5169 57.0988 65.5092 57.8482 69.486C57.9025 69.7871 57.4148 69.9201 57.3242 69.6211C56.1709 65.8133 56.884 61.4771 57.5172 57.6222Z" fill="url(#paint28_linear_328_199)"/>
<path id="Vector_30" d="M76.9128 31.677C77.1947 31.9116 76.8591 32.3504 76.564 32.1279C69.8946 27.0927 62.4783 19.6386 62.412 10.6728C62.4082 10.1928 63.0274 10.1163 63.1448 10.5793C65.3545 19.267 70.0422 25.9373 76.9128 31.677Z" fill="url(#paint29_linear_328_199)"/>
<path id="Vector_31" d="M81.5313 11.1925C81.2151 11.0447 80.761 11.2236 80.6508 11.56C77.6803 20.6233 87.1019 34.6942 96.228 39.1599C85.9753 37.2526 75.3538 36.7768 64.8124 37.3876C60.9815 36.5963 57.1922 35.6264 53.4219 34.5655C53.4118 34.4957 53.3856 34.4239 53.3135 34.366C47.3597 29.5175 48.2645 21.3482 46.1678 14.6564C44.7897 10.2623 42.0611 5.22799 38.4176 2.27019C33.8969 -1.39869 24.1041 -0.1937 26.576 7.41146C26.7659 7.99152 27.6546 7.83782 27.7228 7.26516C32.9508 1.8541 36.9711 1.50461 39.7829 6.21436C40.1413 6.69065 40.4982 7.1676 40.8548 7.64423C42.1366 9.48026 43.5386 11.2882 44.2384 13.4416C45.395 17.0143 46.0317 20.6965 46.8138 24.3616C47.6513 28.2808 49.122 31.6518 52.0973 34.189C48.742 33.2268 45.3985 32.2133 42.051 31.2094C42.1516 31.0586 42.1614 30.8637 41.9577 30.7328C35.105 26.3144 28.6853 21.8688 22.6116 16.4093C22.3454 16.1688 21.9699 16.5669 22.1722 16.8421C26.8306 23.1282 33.8714 26.9617 40.5406 30.8181C40.1501 30.8536 39.9604 31.3772 40.3924 31.581C44.3953 33.4661 36.609 32.2438 36.4938 32.2285C34.0246 31.976 31.6055 31.4626 29.2371 30.6879C25.1034 28.9101 22.4053 26.7397 19.5263 23.3586C15.2041 18.2809 9.42555 11.4142 8.88669 4.45888C8.95582 5.32418 20.7934 6.51891 22.8637 7.60452C33.1648 13.0048 41.0606 21.1635 46.3916 31.4422C46.634 31.9082 47.3794 31.6282 47.1609 31.1318C46.653 29.9693 46.0722 28.8401 45.4488 27.7306C45.5907 27.6001 45.6705 27.3998 45.5865 27.165C43.528 21.461 41.9871 14.729 36.7192 11.0697C36.4462 10.8797 36.0651 11.2156 36.289 11.4926C39.5786 15.562 41.551 19.8069 43.3913 24.4502C39.5505 18.8624 34.4127 14.0303 29.0055 10.1239C25.9571 7.92242 22.7995 5.91836 19.1486 4.84419C16.3264 4.01422 10.3492 3.97906 8.69445 1.49116C8.31487 0.918668 7.51467 1.25706 7.39577 1.83241C5.75196 9.7482 13.0618 19.0763 18.0243 24.4835C25.1989 32.3021 33.4102 33.9413 43.8011 33.4818C44.1035 33.4687 44.1841 33.0512 43.9649 32.8835C40.7047 30.4128 44.033 32.604 45.8134 33.1277C49.4735 34.2021 53.1372 35.2587 56.8199 36.2549C58.642 36.7472 60.4714 37.1671 62.3053 37.5521C55.1736 38.081 48.097 39.098 41.2103 40.4961C32.7989 38.0401 23.7622 36.0094 14.9917 35.9946C9.68876 35.9858 0.85065 38.2717 0.0485938 44.8385C-0.65844 50.6275 6.57436 52.4269 11.0899 52.7239C20.28 53.3285 31.616 51.1203 38.9715 45.2921C39.2861 45.0454 39.0036 44.578 38.6378 44.6991C30.6647 47.3547 23.815 51.1674 15.1151 51.3418C11.7443 51.41 7.93242 51.298 4.82006 49.811C-0.158779 47.4336 1.34309 41.8916 5.64062 39.382C15.913 33.3812 28.57 39.3578 39.4945 40.8499C37.4661 41.2832 35.4582 41.7495 33.4704 42.2445C33.4396 42.2332 33.4159 42.2112 33.3767 42.2112C28.5314 42.3432 23.079 43.0783 18.5719 44.9668C18.2909 45.0864 18.4037 45.5087 18.7053 45.4776C22.8974 45.0432 27.0264 43.8256 31.2062 43.0689C31.244 43.1611 31.3243 43.2395 31.4356 43.2253C45.1398 41.5101 58.5955 39.5497 71.8785 39.0788C72.5119 39.1481 73.1424 39.2349 73.7784 39.2926C73.954 39.3089 74.0316 39.1508 74.0026 39.0181C90.7108 38.6335 107.155 40.7571 123.486 48.8767C123.713 48.9896 123.852 48.6324 123.633 48.5167C115.748 44.3303 107.278 41.4366 98.5127 39.6126C98.4636 39.5921 98.412 39.577 98.3615 39.5571C94.7241 28.6859 92.8983 16.5298 81.5313 11.1925ZM87.8764 17.4662C89.8332 19.9598 91.3071 22.6965 92.3256 25.7044C93.5058 29.1938 94.3648 32.86 95.6761 36.321C92.572 31.9294 90.2826 27.0621 87.1277 22.7123C86.8769 22.3685 86.3641 22.6865 86.4988 23.0658C88.5047 28.717 92.475 33.9863 96.3186 38.5408C89.0755 34.3341 82.2896 24.0418 81.4541 16.7671C81.2576 15.0557 80.4754 11.4361 84.2161 14.2146C85.5821 15.1268 86.8022 16.2119 87.8764 17.4662Z" fill="url(#paint30_linear_328_199)"/>
<path id="Vector_32" d="M83.8845 50.5337C85.6019 47.7415 88.4785 45.34 91.0978 43.4322C92.9844 42.0587 95.4437 40.632 97.5083 42.3543C97.7902 42.5889 97.4557 43.026 97.1593 42.8054C93.7333 40.2374 86.8838 49.4798 84.3993 51.055C84.0345 51.2856 83.6653 50.8882 83.8845 50.5337Z" fill="url(#paint31_linear_328_199)"/>
<path id="Vector_33" d="M89.2886 49.7728C89.4879 49.6869 89.6907 49.8229 89.7438 50.0071C89.9463 49.8357 90.1707 49.6889 90.4381 49.5883C90.7156 49.4859 91.1126 49.7817 90.9364 50.0875C90.5972 50.6729 90.1772 51.1793 89.9243 51.8144C89.6463 52.5066 89.6727 53.3199 89.8832 54.0244C90.0935 54.7215 89.037 55.1568 88.8235 54.4503C88.5931 53.679 88.5398 52.6945 88.7362 51.8006C88.3846 52.2533 88.0173 52.698 87.7123 53.1708C86.8218 54.5616 86.3926 56.2076 86.5246 57.8485C86.5815 58.5549 85.5009 58.6999 85.4323 57.9892C85.1654 55.2443 86.5136 50.9447 89.2886 49.7728Z" fill="url(#paint32_linear_328_199)"/>
</g>
<g id="Group_6">
<path id="Vector_34" d="M218.901 195.515C220.19 194.629 220.944 193.072 221.974 191.927C222.248 191.623 222.18 191.248 221.962 190.995C221.985 190.637 221.849 190.26 221.616 189.984C221.237 189.539 220.852 189.102 220.469 188.667C219.971 188.098 219.013 188.241 218.539 188.734C216.934 190.404 215.353 192.091 213.76 193.772C212.999 194.579 213.461 195.874 214.495 196.137C216.072 196.543 217.533 196.456 218.901 195.515Z" fill="url(#paint33_linear_328_199)"/>
<path id="Vector_35" d="M214.481 185.694C213.363 185.108 212.249 184.508 210.999 184.258C209.384 183.942 207.699 184.264 206.102 184.53C205.074 184.699 204.841 186.218 205.566 186.837C207.339 188.337 208.966 187.724 210.986 187.635C210.524 187.992 210.074 188.361 209.697 188.811C209.1 189.511 209.936 190.644 210.751 190.096C212.099 189.201 213.561 188.727 214.818 187.645C215.444 187.108 215.139 186.032 214.481 185.694Z" fill="url(#paint34_linear_328_199)"/>
<path id="Vector_36" d="M219.6 213.422C219.714 213.31 219.755 213.172 219.757 213.035C220.787 210.974 220.831 208.618 218.966 206.491C216.383 203.543 209.961 201.94 207.235 205.594C205.162 208.367 206.06 212.229 208.383 214.541C209.887 216.031 211.815 216.467 213.737 216.249C213.137 216.849 213.765 218.15 214.644 217.759C216.534 216.914 218.317 215.382 219.404 213.583C219.467 213.525 219.54 213.477 219.6 213.422ZM211.065 212.83C209.571 211.757 208.902 209.774 209.415 208.019C210.129 205.591 214.003 206.845 215.414 207.508C217.109 208.306 218.089 209.846 217.777 211.718C217.698 212.186 217.526 212.61 217.319 213.01C215.233 213.714 212.972 214.2 211.065 212.83Z" fill="url(#paint35_linear_328_199)"/>
<path id="Vector_37" d="M229.875 192.111C233.336 191.424 237.599 188.842 237.296 184.898C237.918 183.365 238.905 182.38 237.431 180.644C237.105 180.258 236.496 180.211 236.046 180.32C230.671 181.624 227.105 184.736 227.759 190.597C227.883 191.717 228.788 192.322 229.875 192.111ZM235.656 183.485C235.584 183.797 235.499 184.112 235.402 184.42C234.783 185.15 234.264 185.945 233.634 186.706C232.918 187.569 231.983 188.056 230.98 188.406C231.05 187.351 231.341 186.362 232.154 185.474C233.022 184.532 234.379 183.951 235.656 183.485Z" fill="url(#paint36_linear_328_199)"/>
<path id="Vector_38" d="M224.323 174.599C223.605 174.912 222.945 175.341 222.276 175.751C222.297 175.122 222.213 174.531 222.306 173.834C222.434 172.875 221.047 172.206 220.612 173.215C220.316 173.906 219.796 174.349 219.543 175.035C219.182 176 218.66 176.778 217.97 177.539C217.051 178.541 217.777 180.323 219.2 180.229C222.186 180.028 224.316 178.347 225.336 175.541C225.531 175.004 224.845 174.366 224.323 174.599Z" fill="url(#paint37_linear_328_199)"/>
<path id="Vector_39" d="M235.693 201.263C236.271 200.379 235.842 199.277 235.456 198.427C235.318 198.118 234.902 197.949 234.588 197.962C232.934 198.027 230.252 198.075 229.587 199.993C229.163 201.225 230.02 202.086 230.623 203.03C230.818 203.338 231.394 203.396 231.541 203C231.766 202.399 231.703 201.79 231.59 201.171C231.402 200.144 232.779 199.989 233.824 199.951C233.857 201.005 232.512 201.847 232.129 202.88C231.731 203.954 233.299 204.819 233.741 203.721C234.147 202.714 235.111 202.161 235.693 201.263Z" fill="url(#paint38_linear_328_199)"/>
<path id="Vector_40" d="M251.436 192.782C249.995 193.175 248.74 194.045 247.294 194.413C245.95 194.752 245.183 193.327 244.713 192.07C245.2 191.865 245.677 191.642 246.177 191.473C246.277 191.436 246.301 191.435 246.372 191.413C246.379 191.933 246.268 192.53 246.278 192.997C246.309 194.332 248.342 194.249 248.34 192.923C248.339 191.719 249.211 190.246 248.192 189.225C246.76 187.798 243.975 189.315 242.538 189.914C241.838 190.203 241.32 190.898 241.586 191.686C242.429 194.215 243.679 196.942 246.641 197.204C248.813 197.4 251.114 195.367 252.217 193.725C252.558 193.219 251.94 192.649 251.436 192.782Z" fill="url(#paint39_linear_328_199)"/>
</g>
<g id="Group_7">
<path id="Vector_41" d="M117.283 78.2714C118.13 77.6891 118.626 76.6659 119.303 75.9133C119.483 75.7132 119.438 75.4673 119.295 75.3006C119.31 75.0651 119.22 74.8179 119.067 74.6358C118.818 74.3438 118.565 74.0564 118.314 73.7708C117.986 73.3966 117.357 73.4903 117.045 73.8149C115.99 74.9119 114.951 76.0209 113.904 77.1257C113.404 77.656 113.708 78.507 114.388 78.6795C115.424 78.9464 116.384 78.8899 117.283 78.2714Z" fill="url(#paint40_linear_328_199)"/>
<path id="Vector_42" d="M114.379 71.8168C113.644 71.432 112.912 71.0376 112.09 70.8733C111.029 70.6656 109.921 70.8771 108.872 71.052C108.196 71.163 108.043 72.1615 108.52 72.5682C109.685 73.5537 110.754 73.1511 112.082 73.0923C111.778 73.3272 111.482 73.5694 111.234 73.8651C110.842 74.3252 111.391 75.0699 111.927 74.7102C112.813 74.122 113.774 73.8101 114.6 73.0995C115.011 72.746 114.811 72.0393 114.379 71.8168Z" fill="url(#paint41_linear_328_199)"/>
<path id="Vector_43" d="M117.743 90.0397C117.817 89.966 117.844 89.8753 117.845 89.7854C118.522 88.431 118.552 86.8822 117.326 85.4843C115.628 83.5474 111.408 82.4937 109.616 84.8953C108.254 86.7172 108.844 89.2553 110.371 90.7746C111.359 91.7539 112.627 92.0409 113.89 91.8976C113.495 92.2916 113.908 93.1466 114.486 92.8893C115.727 92.334 116.9 91.3275 117.614 90.145C117.655 90.1075 117.703 90.0758 117.743 90.0397ZM112.133 89.6506C111.152 88.9453 110.712 87.6423 111.049 86.4889C111.518 84.893 114.064 85.7171 114.991 86.1532C116.105 86.6772 116.749 87.6895 116.544 88.9197C116.492 89.2272 116.379 89.5057 116.243 89.7689C114.872 90.2312 113.387 90.5511 112.133 89.6506Z" fill="url(#paint42_linear_328_199)"/>
<path id="Vector_44" d="M124.495 76.0338C126.769 75.5831 129.571 73.8858 129.372 71.2941C129.781 70.2865 130.429 69.6392 129.461 68.4984C129.246 68.2445 128.846 68.2132 128.551 68.2852C125.018 69.1421 122.675 71.187 123.104 75.0389C123.186 75.775 123.781 76.1729 124.495 76.0338ZM128.294 70.3654C128.247 70.5703 128.191 70.7771 128.127 70.9796C127.72 71.4593 127.379 71.982 126.965 72.4823C126.495 73.0494 125.88 73.3693 125.221 73.5994C125.267 72.906 125.459 72.2563 125.993 71.6727C126.563 71.0534 127.455 70.6713 128.294 70.3654Z" fill="url(#paint43_linear_328_199)"/>
<path id="Vector_45" d="M120.846 64.5252C120.374 64.7312 119.941 65.0133 119.501 65.2827C119.514 64.8693 119.459 64.4805 119.52 64.023C119.604 63.3927 118.693 62.9527 118.407 63.6155C118.212 64.0701 117.871 64.3612 117.704 64.8116C117.467 65.4458 117.124 65.9576 116.671 66.4578C116.067 67.1164 116.544 68.2874 117.479 68.2254C119.441 68.0932 120.842 66.9884 121.512 65.1441C121.64 64.7913 121.189 64.3725 120.846 64.5252Z" fill="url(#paint44_linear_328_199)"/>
<path id="Vector_46" d="M128.319 82.0485C128.698 81.4675 128.417 80.7433 128.163 80.1851C128.072 79.9819 127.798 79.8704 127.592 79.8794C126.505 79.9217 124.743 79.9537 124.305 81.2144C124.027 82.0235 124.59 82.5896 124.986 83.2103C125.115 83.4122 125.493 83.4505 125.59 83.1902C125.738 82.7956 125.696 82.3952 125.622 81.988C125.498 81.3132 126.403 81.2113 127.09 81.1866C127.112 81.8792 126.228 82.4327 125.977 83.1116C125.715 83.8175 126.745 84.3854 127.036 83.6643C127.302 83.0023 127.936 82.6392 128.319 82.0485Z" fill="url(#paint45_linear_328_199)"/>
<path id="Vector_47" d="M138.665 76.4753C137.718 76.7333 136.893 77.3051 135.942 77.5473C135.059 77.7698 134.555 76.8328 134.246 76.0072C134.567 75.8727 134.88 75.726 135.209 75.6149C135.274 75.5905 135.29 75.5899 135.337 75.5755C135.341 75.9172 135.268 76.3092 135.275 76.6163C135.295 77.4934 136.631 77.4391 136.63 76.5678C136.629 75.7766 137.202 74.8089 136.533 74.1379C135.592 73.1994 133.761 74.1967 132.817 74.5901C132.357 74.78 132.016 75.2366 132.191 75.7551C132.745 77.4167 133.567 79.2089 135.513 79.3816C136.941 79.5098 138.453 78.1741 139.178 77.0953C139.402 76.7623 138.996 76.3876 138.665 76.4753Z" fill="url(#paint46_linear_328_199)"/>
</g>
</g>
</g>
</g>
<defs>
<linearGradient id="paint0_linear_328_199" x1="234.724" y1="100.278" x2="234.724" y2="95.2315" gradientUnits="userSpaceOnUse">
<stop stop-color="#EFC207" stop-opacity="0.52"/>
<stop offset="1" stop-color="#536976"/>
</linearGradient>
<linearGradient id="paint1_linear_328_199" x1="213.594" y1="130.178" x2="213.594" y2="100.599" gradientUnits="userSpaceOnUse">
<stop stop-color="#EFC207" stop-opacity="0.52"/>
<stop offset="1" stop-color="#536976"/>
</linearGradient>
<linearGradient id="paint2_linear_328_199" x1="214.187" y1="122.541" x2="214.187" y2="100.562" gradientUnits="userSpaceOnUse">
<stop stop-color="#EFC207" stop-opacity="0.52"/>
<stop offset="1" stop-color="#536976"/>
</linearGradient>
<linearGradient id="paint3_linear_328_199" x1="186.754" y1="129.514" x2="186.754" y2="107.348" gradientUnits="userSpaceOnUse">
<stop stop-color="#EFC207" stop-opacity="0.52"/>
<stop offset="1" stop-color="#536976"/>
</linearGradient>
<linearGradient id="paint4_linear_328_199" x1="175.053" y1="131.923" x2="175.053" y2="121.62" gradientUnits="userSpaceOnUse">
<stop stop-color="#EFC207" stop-opacity="0.52"/>
<stop offset="1" stop-color="#536976"/>
</linearGradient>
<linearGradient id="paint5_linear_328_199" x1="164.003" y1="134.901" x2="164.003" y2="130.064" gradientUnits="userSpaceOnUse">
<stop stop-color="#EFC207" stop-opacity="0.52"/>
<stop offset="1" stop-color="#536976"/>
</linearGradient>
<linearGradient id="paint6_linear_328_199" x1="163.665" y1="90.8633" x2="163.665" y2="89.1174" gradientUnits="userSpaceOnUse">
<stop stop-color="#EFC207" stop-opacity="0.52"/>
<stop offset="1" stop-color="#536976"/>
</linearGradient>
<linearGradient id="paint7_linear_328_199" x1="161.39" y1="112.964" x2="161.39" y2="106.753" gradientUnits="userSpaceOnUse">
<stop stop-color="#EFC207" stop-opacity="0.52"/>
<stop offset="1" stop-color="#536976"/>
</linearGradient>
<linearGradient id="paint8_linear_328_199" x1="156.019" y1="108.995" x2="156.019" y2="106.738" gradientUnits="userSpaceOnUse">
<stop stop-color="#EFC207" stop-opacity="0.52"/>
<stop offset="1" stop-color="#536976"/>
</linearGradient>
<linearGradient id="paint9_linear_328_199" x1="175.002" y1="53.6689" x2="175.002" y2="1.89997" gradientUnits="userSpaceOnUse">
<stop stop-color="#EFC207" stop-opacity="0.52"/>
<stop offset="1" stop-color="#536976"/>
</linearGradient>
<linearGradient id="paint10_linear_328_199" x1="294.986" y1="53.4445" x2="294.986" y2="32.9452" gradientUnits="userSpaceOnUse">
<stop stop-color="#EFC207" stop-opacity="0.52"/>
<stop offset="1" stop-color="#536976"/>
</linearGradient>
<linearGradient id="paint11_linear_328_199" x1="215.922" y1="253.252" x2="215.922" y2="3.05176e-05" gradientUnits="userSpaceOnUse">
<stop stop-color="#EFC207" stop-opacity="0.52"/>
<stop offset="1" stop-color="#536976"/>
</linearGradient>
<linearGradient id="paint12_linear_328_199" x1="312.163" y1="43.8938" x2="312.163" y2="28.8142" gradientUnits="userSpaceOnUse">
<stop stop-color="#EFC207" stop-opacity="0.52"/>
<stop offset="1" stop-color="#536976"/>
</linearGradient>
<linearGradient id="paint13_linear_328_199" x1="204.82" y1="78.1117" x2="204.82" y2="64.3931" gradientUnits="userSpaceOnUse">
<stop stop-color="#EFC207" stop-opacity="0.52"/>
<stop offset="1" stop-color="#536976"/>
</linearGradient>
<linearGradient id="paint14_linear_328_199" x1="251.794" y1="153.827" x2="251.794" y2="134.18" gradientUnits="userSpaceOnUse">
<stop stop-color="#EFC207" stop-opacity="0.52"/>
<stop offset="1" stop-color="#536976"/>
</linearGradient>
<linearGradient id="paint15_linear_328_199" x1="310.487" y1="333.805" x2="310.487" y2="329.9" gradientUnits="userSpaceOnUse">
<stop stop-color="#EFC207" stop-opacity="0.52"/>
<stop offset="1" stop-color="#536976"/>
</linearGradient>
<linearGradient id="paint16_linear_328_199" x1="308.674" y1="338.485" x2="308.674" y2="333.616" gradientUnits="userSpaceOnUse">
<stop stop-color="#EFC207" stop-opacity="0.52"/>
<stop offset="1" stop-color="#536976"/>
</linearGradient>
<linearGradient id="paint17_linear_328_199" x1="306.26" y1="327.548" x2="306.26" y2="323.046" gradientUnits="userSpaceOnUse">
<stop stop-color="#EFC207" stop-opacity="0.52"/>
<stop offset="1" stop-color="#536976"/>
</linearGradient>
<linearGradient id="paint18_linear_328_199" x1="302.722" y1="333.207" x2="302.722" y2="329.759" gradientUnits="userSpaceOnUse">
<stop stop-color="#EFC207" stop-opacity="0.52"/>
<stop offset="1" stop-color="#536976"/>
</linearGradient>
<linearGradient id="paint19_linear_328_199" x1="308.271" y1="320.734" x2="308.271" y2="315.404" gradientUnits="userSpaceOnUse">
<stop stop-color="#EFC207" stop-opacity="0.52"/>
<stop offset="1" stop-color="#536976"/>
</linearGradient>
<linearGradient id="paint20_linear_328_199" x1="288.921" y1="386" x2="288.921" y2="225.726" gradientUnits="userSpaceOnUse">
<stop stop-color="#EFC207" stop-opacity="0.52"/>
<stop offset="1" stop-color="#536976"/>
</linearGradient>
<linearGradient id="paint21_linear_328_199" x1="266.852" y1="358.785" x2="266.852" y2="353.366" gradientUnits="userSpaceOnUse">
<stop stop-color="#EFC207" stop-opacity="0.52"/>
<stop offset="1" stop-color="#536976"/>
</linearGradient>
<linearGradient id="paint22_linear_328_199" x1="258.8" y1="358.35" x2="258.8" y2="351.377" gradientUnits="userSpaceOnUse">
<stop stop-color="#EFC207" stop-opacity="0.52"/>
<stop offset="1" stop-color="#536976"/>
</linearGradient>
<linearGradient id="paint23_linear_328_199" x1="256.095" y1="350.429" x2="256.095" y2="347.722" gradientUnits="userSpaceOnUse">
<stop stop-color="#EFC207" stop-opacity="0.52"/>
<stop offset="1" stop-color="#536976"/>
</linearGradient>
<linearGradient id="paint24_linear_328_199" x1="255.898" y1="345.432" x2="255.898" y2="341.664" gradientUnits="userSpaceOnUse">
<stop stop-color="#EFC207" stop-opacity="0.52"/>
<stop offset="1" stop-color="#536976"/>
</linearGradient>
<linearGradient id="paint25_linear_328_199" x1="249.529" y1="350.488" x2="249.529" y2="344.679" gradientUnits="userSpaceOnUse">
<stop stop-color="#EFC207" stop-opacity="0.52"/>
<stop offset="1" stop-color="#536976"/>
</linearGradient>
<linearGradient id="paint26_linear_328_199" x1="46.2068" y1="86.1155" x2="46.2068" y2="39.9702" gradientUnits="userSpaceOnUse">
<stop stop-color="#EFC207" stop-opacity="0.52"/>
<stop offset="1" stop-color="#536976"/>
</linearGradient>
<linearGradient id="paint27_linear_328_199" x1="47.6411" y1="72.2963" x2="47.6411" y2="52.416" gradientUnits="userSpaceOnUse">
<stop stop-color="#EFC207" stop-opacity="0.52"/>
<stop offset="1" stop-color="#536976"/>
</linearGradient>
<linearGradient id="paint28_linear_328_199" x1="57.5503" y1="69.7895" x2="57.5503" y2="57.347" gradientUnits="userSpaceOnUse">
<stop stop-color="#EFC207" stop-opacity="0.52"/>
<stop offset="1" stop-color="#536976"/>
</linearGradient>
<linearGradient id="paint29_linear_328_199" x1="69.7155" y1="32.189" x2="69.7155" y2="10.2696" gradientUnits="userSpaceOnUse">
<stop stop-color="#EFC207" stop-opacity="0.52"/>
<stop offset="1" stop-color="#536976"/>
</linearGradient>
<linearGradient id="paint30_linear_328_199" x1="61.8715" y1="52.8204" x2="61.8715" y2="0.273773" gradientUnits="userSpaceOnUse">
<stop stop-color="#EFC207" stop-opacity="0.52"/>
<stop offset="1" stop-color="#536976"/>
</linearGradient>
<linearGradient id="paint31_linear_328_199" x1="90.7167" y1="51.1234" x2="90.7167" y2="41.5629" gradientUnits="userSpaceOnUse">
<stop stop-color="#EFC207" stop-opacity="0.52"/>
<stop offset="1" stop-color="#536976"/>
</linearGradient>
<linearGradient id="paint32_linear_328_199" x1="88.1896" y1="58.4556" x2="88.1896" y2="49.5676" gradientUnits="userSpaceOnUse">
<stop stop-color="#EFC207" stop-opacity="0.52"/>
<stop offset="1" stop-color="#536976"/>
</linearGradient>
<linearGradient id="paint33_linear_328_199" x1="217.768" y1="196.367" x2="217.768" y2="188.298" gradientUnits="userSpaceOnUse">
<stop stop-color="#EFC207" stop-opacity="0.52"/>
<stop offset="1" stop-color="#536976"/>
</linearGradient>
<linearGradient id="paint34_linear_328_199" x1="210.153" y1="190.241" x2="210.153" y2="184.127" gradientUnits="userSpaceOnUse">
<stop stop-color="#EFC207" stop-opacity="0.52"/>
<stop offset="1" stop-color="#536976"/>
</linearGradient>
<linearGradient id="paint35_linear_328_199" x1="213.269" y1="217.831" x2="213.269" y2="203.481" gradientUnits="userSpaceOnUse">
<stop stop-color="#EFC207" stop-opacity="0.52"/>
<stop offset="1" stop-color="#536976"/>
</linearGradient>
<linearGradient id="paint36_linear_328_199" x1="232.941" y1="192.152" x2="232.941" y2="180.269" gradientUnits="userSpaceOnUse">
<stop stop-color="#EFC207" stop-opacity="0.52"/>
<stop offset="1" stop-color="#536976"/>
</linearGradient>
<linearGradient id="paint37_linear_328_199" x1="221.466" y1="180.233" x2="221.466" y2="172.713" gradientUnits="userSpaceOnUse">
<stop stop-color="#EFC207" stop-opacity="0.52"/>
<stop offset="1" stop-color="#536976"/>
</linearGradient>
<linearGradient id="paint38_linear_328_199" x1="232.724" y1="204.23" x2="232.724" y2="197.961" gradientUnits="userSpaceOnUse">
<stop stop-color="#EFC207" stop-opacity="0.52"/>
<stop offset="1" stop-color="#536976"/>
</linearGradient>
<linearGradient id="paint39_linear_328_199" x1="246.915" y1="197.217" x2="246.915" y2="188.631" gradientUnits="userSpaceOnUse">
<stop stop-color="#EFC207" stop-opacity="0.52"/>
<stop offset="1" stop-color="#536976"/>
</linearGradient>
<linearGradient id="paint40_linear_328_199" x1="116.538" y1="78.8309" x2="116.538" y2="73.5283" gradientUnits="userSpaceOnUse">
<stop stop-color="#EFC207" stop-opacity="0.52"/>
<stop offset="1" stop-color="#536976"/>
</linearGradient>
<linearGradient id="paint41_linear_328_199" x1="111.534" y1="74.8052" x2="111.534" y2="70.7872" gradientUnits="userSpaceOnUse">
<stop stop-color="#EFC207" stop-opacity="0.52"/>
<stop offset="1" stop-color="#536976"/>
</linearGradient>
<linearGradient id="paint42_linear_328_199" x1="113.582" y1="92.9368" x2="113.582" y2="83.5066" gradientUnits="userSpaceOnUse">
<stop stop-color="#EFC207" stop-opacity="0.52"/>
<stop offset="1" stop-color="#536976"/>
</linearGradient>
<linearGradient id="paint43_linear_328_199" x1="126.51" y1="76.0613" x2="126.51" y2="68.2515" gradientUnits="userSpaceOnUse">
<stop stop-color="#EFC207" stop-opacity="0.52"/>
<stop offset="1" stop-color="#536976"/>
</linearGradient>
<linearGradient id="paint44_linear_328_199" x1="118.968" y1="68.2278" x2="118.968" y2="63.2857" gradientUnits="userSpaceOnUse">
<stop stop-color="#EFC207" stop-opacity="0.52"/>
<stop offset="1" stop-color="#536976"/>
</linearGradient>
<linearGradient id="paint45_linear_328_199" x1="126.367" y1="83.9984" x2="126.367" y2="79.8789" gradientUnits="userSpaceOnUse">
<stop stop-color="#EFC207" stop-opacity="0.52"/>
<stop offset="1" stop-color="#536976"/>
</linearGradient>
<linearGradient id="paint46_linear_328_199" x1="135.693" y1="79.3902" x2="135.693" y2="73.7473" gradientUnits="userSpaceOnUse">
<stop stop-color="#EFC207" stop-opacity="0.52"/>
<stop offset="1" stop-color="#536976"/>
</linearGradient>
</defs>
</svg>
