<svg width="346" height="386" viewBox="0 0 346 386" fill="none" xmlns="http://www.w3.org/2000/svg">
<g id="bingkai2">
<g id="Group">
<g id="Group_2">
<g id="Group_3">
<path id="Vector" d="M117.187 290.752C112.718 288.879 107.93 288.069 103.416 286.406C103.058 286.274 103.105 285.703 103.518 285.723C108.359 285.944 113.066 288.295 117.381 290.311C117.629 290.427 117.439 290.857 117.187 290.752Z" fill="url(#paint0_linear_327_144)"/>
<path id="Vector_2" d="M140.028 285.15C135.526 274.106 131.336 264.472 122.184 256.448C121.857 256.162 122.301 255.66 122.654 255.872C132.672 261.885 136.875 274.417 140.829 284.72C141.034 285.255 140.252 285.697 140.028 285.15Z" fill="url(#paint1_linear_327_144)"/>
<path id="Vector_3" d="M139.425 285.337C133.517 278.077 130.382 269.493 122.018 264.443C121.428 264.087 121.976 263.197 122.574 263.534C130.962 268.269 134.663 277.381 139.935 284.972C140.139 285.265 139.65 285.613 139.425 285.337Z" fill="url(#paint2_linear_327_144)"/>
<path id="Vector_4" d="M152.118 278.258C155.596 270.953 159.159 263.076 164.056 256.602C164.257 256.336 164.635 256.57 164.494 256.869C161.01 264.251 156.619 271.439 152.556 278.526C152.388 278.818 151.979 278.549 152.118 278.258Z" fill="url(#paint3_linear_327_144)"/>
<path id="Vector_5" d="M174.198 254.095C174.438 253.998 174.732 254.314 174.487 254.498C170.857 257.229 167.034 259.487 165.873 264.222C165.804 264.503 165.378 264.377 165.443 264.097C166.521 259.437 169.768 255.887 174.198 254.095Z" fill="url(#paint4_linear_327_144)"/>
<path id="Vector_6" d="M183.35 251.107C183.613 251.038 183.71 251.442 183.449 251.517C181.259 252.135 179.96 253.918 178.934 255.821C178.801 256.069 178.476 255.875 178.517 255.637C178.949 253.069 180.99 251.718 183.35 251.107Z" fill="url(#paint5_linear_327_144)"/>
<path id="Vector_7" d="M186.047 296.59C182.862 295.736 179.921 296.538 176.75 296.881C176.444 296.915 176.407 296.483 176.622 296.349C179.472 294.585 183.208 294.937 186.164 296.186C186.408 296.288 186.316 296.662 186.047 296.59Z" fill="url(#paint6_linear_327_144)"/>
<path id="Vector_8" d="M179.02 279.247C178.667 279.247 178.569 278.765 178.862 278.602C180.338 277.797 181.988 277.359 183.493 276.589C185.212 275.703 186.755 274.544 188.083 273.144C188.398 272.812 188.846 273.317 188.559 273.652C186.282 276.325 182.723 279.224 179.02 279.247Z" fill="url(#paint7_linear_327_144)"/>
<path id="Vector_9" d="M185.432 278.691C186.387 278.185 187.505 277.968 188.552 277.739C189.852 277.454 191.145 277.201 192.463 277.009C192.827 276.956 192.944 277.441 192.597 277.559C191.461 277.946 190.326 278.283 189.166 278.588C188.006 278.894 186.782 279.281 185.571 279.261C185.268 279.256 185.164 278.833 185.432 278.691Z" fill="url(#paint8_linear_327_144)"/>
<path id="Vector_10" d="M111.511 359.716C125.799 362.53 137.337 358.237 150.688 353.794C157.933 351.381 166.217 350.898 174.042 351.793C160.85 343.565 141.516 349.141 126.726 347.098C114.821 345.454 99.4884 343.399 91.5028 333.362C91.175 332.949 91.5051 332.129 92.106 332.377C102.964 336.848 114.937 333.909 126.337 335.147C137.772 336.391 148.918 340.242 160.014 343.084C160.483 343.205 160.407 343.739 160.075 343.921C164.436 344.882 168.68 346.275 172.73 348.37C173.105 348.565 172.76 349.09 172.393 348.921C154.083 340.433 132.707 346.995 114.698 338.81C114.223 338.595 114.598 337.934 115.045 338.022C126.096 340.225 136.834 341.313 148.052 342.211C149.615 342.337 151.167 342.5 152.713 342.69C139.252 339.912 126.348 335.779 112.257 336.358C106.026 336.614 100.114 336.763 94.1679 334.704C91.0524 333.626 96.7172 336.641 97.5911 337.227C101.096 339.59 105.337 340.899 109.345 342.127C120.752 345.625 133.027 347.053 144.916 346.863C155.017 346.702 167.026 345.215 175.432 351.994C177.527 352.28 179.592 352.638 181.576 353.108C181.971 353.203 181.851 353.769 181.474 353.78C175.431 353.948 169.434 352.935 163.372 353.092C156.495 353.27 150.239 355.574 143.874 357.907C142.533 358.399 141.203 358.856 139.88 359.272C154.732 359.082 169.228 354.092 184.069 355.474C184.319 355.499 184.318 355.885 184.06 355.871C168.842 355.013 153.962 362.187 138.831 359.962C138.651 359.937 138.559 359.8 138.537 359.662C131.412 361.784 124.448 362.758 117.086 362.172C130.277 367.172 144.029 366.546 157.986 363.355C168.559 360.942 178.468 354.731 189.155 357.056C189.153 357.053 189.153 357.053 189.15 357.051C188.965 356.925 189.09 356.569 189.317 356.67C190.371 357.131 191.42 357.592 192.473 358.052C192.638 358.116 192.802 358.159 192.968 358.227C193.008 358.244 193.027 358.277 193.05 358.305C202.163 362.3 211.223 366.281 220.538 369.869C230.185 373.583 240.25 377.457 248.625 383.617C248.899 383.818 248.655 384.222 248.35 384.064C238.167 378.789 228.011 374.039 217.289 369.911C208.419 366.494 199.008 363.294 190.919 358.178C182.721 356.408 176.077 358.789 168.294 361.968C161.922 364.573 155.107 366.022 148.33 367.109C135.509 369.167 122.203 367.712 110.817 361.292C109.913 360.783 110.595 359.536 111.511 359.716Z" fill="url(#paint9_linear_327_144)"/>
<path id="Vector_11" d="M45.2465 352.774C42.7691 345.244 50.0431 337.43 54.9417 332.635C55.1967 332.385 55.5685 332.783 55.3201 333.038C49.717 338.78 46.3984 344.617 46 352.692C45.9768 353.141 45.3794 353.18 45.2465 352.774Z" fill="url(#paint10_linear_327_144)"/>
<path id="Vector_12" d="M42.1983 366.283C42.5695 366.086 42.7661 365.645 42.6658 365.237C41.7285 361.383 44.1076 358.051 46.5374 355.199C50.2585 357.193 54.3051 357.18 56.5418 352.498C58.544 348.306 59.763 344.893 64.1147 342.638C66.9673 341.159 68.8513 339.416 70.2938 336.523C72.7038 331.693 71.4129 325.853 72.0266 320.585C72.3732 320.754 72.7829 320.754 73.0706 320.415C80.8494 311.232 90.5805 313.051 100.681 313.978C91.4838 316.86 83.7621 324.334 76.6822 330.629C76.0454 331.194 76.6845 332.029 77.3929 331.946C90.2712 330.45 100.523 316.715 114.101 320.618C114.198 320.646 114.269 320.622 114.34 320.595C119.942 328.3 130.506 332.49 139.046 335.502C154.292 340.876 169.448 346.074 184.552 351.885C184.701 351.942 184.823 351.914 184.919 351.847C186.377 352.793 187.842 353.723 189.317 354.623C189.595 354.794 189.953 354.383 189.688 354.167C184.364 349.835 178.55 346.017 173.004 341.896C173.194 341.819 173.319 341.574 173.136 341.41C170.176 338.761 166.951 336.315 163.572 334.068C161.792 332.358 160.105 330.55 158.547 328.602C155.167 324.378 152.593 319.522 148.184 316.216C146.526 314.972 144.819 313.8 143.113 312.628C146.027 313.443 149.129 313.68 152.412 313.199C152.708 313.334 152.997 313.485 153.29 313.604C153.602 313.731 153.857 313.317 153.691 313.063C153.894 313.052 154.073 312.835 153.953 312.629C153.876 312.501 153.807 312.381 153.734 312.256C153.723 312.234 153.709 312.213 153.695 312.191C153.658 312.126 153.622 312.066 153.584 312.002C153.744 312.087 153.933 312.099 154.095 311.984C157.059 311.947 159.995 312.364 162.915 312.586C160.609 314.937 157.301 316.936 157.992 320.682C158.8 325.078 161.063 328.17 164.255 331.274C173.445 340.222 183.097 349.741 194.217 356.3C194.376 356.393 194.51 356.334 194.586 356.227C214.545 368.148 237.97 373.271 257.734 385.95C258.059 386.158 258.478 385.67 258.17 385.415C239.075 369.541 212.965 366.467 192.057 353.694C192.034 353.638 192.011 353.581 191.954 353.542C187.232 350.287 183.814 346.205 184.645 340.085C184.684 339.797 184.185 339.722 184.141 340.008C183.743 342.624 183.991 345.216 184.89 347.492C181.226 342.334 180.019 336.996 178.518 330.452C177.984 328.116 177.421 325.686 176.471 323.45C177.241 324.032 178.009 324.621 178.791 325.181C186.907 331.17 185.712 339.959 190.576 347.626C193.823 352.744 198.079 355.67 203.347 358.601C203.697 358.797 204 358.297 203.67 358.075C199.213 355.053 194.215 352.04 191.818 346.958C189.75 342.57 188.656 337.94 187.098 333.373C184.911 326.96 179.86 324.418 174.952 320.353C174.357 319.862 173.411 320.409 173.803 321.175C177.765 328.914 177.537 338.443 181.815 345.72C177.894 342.549 174.063 339.27 170.468 335.673C167.429 332.632 163.573 329.505 161.448 325.709C158.427 320.31 161.719 316.767 164.154 312.65C166.961 312.792 169.75 312.662 172.524 311.619C176.279 310.207 180.075 308.216 184.161 308.136C186.977 308.082 189.677 308.991 192.453 308.975C197.514 308.943 204.486 305.343 202.904 299.208C202.229 296.59 200.843 294.28 199.013 292.294C203.788 290.222 211.842 286.692 213.138 281.532C214.394 276.502 212.841 273.459 207.735 272.977C200.195 272.262 206.402 269.214 203.983 266.639C202.096 264.63 199.813 266.664 198.247 263.466C196.149 259.178 190.251 257.445 186.233 260.061C185.903 260.274 186.07 260.885 186.492 260.743C191.297 259.133 194.949 261.049 196.999 265.58C193.167 266.117 189.66 267.967 186.411 270.044C182.853 272.313 178.389 274.865 175.812 278.257C175.639 278.481 175.946 278.748 176.17 278.635C180.015 276.678 183.211 273.229 186.883 270.924C190.097 268.906 193.525 266.975 197.263 266.145C197.59 266.922 197.879 267.533 198.821 267.805C201.447 268.56 202.387 267.892 201.769 270.856C201.643 271.458 201.732 272.387 202.183 272.841C203.385 274.052 204.366 274.413 206.125 274.728C207.064 274.896 208.021 274.778 208.96 274.9C212.576 278.765 212.773 281.956 209.558 284.478C206.09 287.338 201.688 288.747 198.207 291.466C190.878 284.397 177.466 282.237 169.569 287.863C169.446 287.948 169.378 288.059 169.332 288.175C166.373 287.511 163.008 287.231 161.291 285.014C157.029 279.514 153.432 282.189 149.505 284.567C149.649 274.345 154.782 265.932 157.041 256.173C157.112 255.872 156.657 255.631 156.516 255.942C152.621 264.529 148.035 275.292 148.834 284.965C147.717 285.618 146.569 286.208 145.367 286.548C142.751 272.322 143.366 257.214 146.851 243.181C147.09 242.213 148.171 234.795 150.156 235.703C152.44 236.748 154.779 237.73 157.134 238.605C160.849 239.983 174.596 241.099 175.616 244.611C175.716 244.959 176.022 245.256 176.406 245.246C187.673 244.958 190.084 254.326 182.944 261.995C180.379 264.752 177.683 267.305 174.761 269.687C169.596 273.9 164.283 277.911 160.075 283.117C159.73 283.543 160.439 284.097 160.814 283.719C168.581 275.881 179.434 269.765 185.694 260.608C188.802 256.061 190.301 251.228 186.613 246.646C185.037 244.688 181.403 243.653 178.981 243.622C177.311 243.599 175.306 240.454 173.833 239.72C171.385 238.501 168.068 239.499 165.489 239.14C159.825 238.352 154.185 235.54 149.041 233.202C148.493 232.953 147.891 233.116 147.687 233.728C145.321 240.832 143.492 248.561 142.568 256.409C141.684 251.491 140.137 246.716 137.712 242.704C135.26 238.648 132.785 233.285 127.281 233.392C125.705 233.422 123.985 235.169 123.407 236.466C122.689 238.082 120.304 236.262 119.092 236.411C113.127 237.151 110.316 243.629 104.625 244.959C103.941 245.118 103.64 245.766 103.736 246.411C104.387 247.553 104.322 248.544 103.544 249.382C102.991 249.303 102.59 249.785 102.402 250.224C100.086 255.603 101.566 260.755 104.977 264.713C102.027 263.715 99.0357 263.199 96.0805 263.418C95.3034 263.476 94.4234 263.758 93.5645 264.177C93.7758 258.914 94.0768 253.675 96.1105 248.716C97.8037 244.589 99.8974 240.609 101.407 236.407C103.715 229.983 105.238 223.666 102.539 217.161C102.361 216.731 101.632 216.818 101.544 217.268C99.9317 225.446 91.82 230.652 89.1649 238.623C88.7773 239.788 88.4303 240.953 88.1101 242.117C88.3834 236.865 88.7334 231.621 88.4041 226.613C87.5573 213.788 85.1375 201.191 82.8842 188.557C82.7174 187.624 81.1733 187.784 81.2286 188.738C82.1205 204.049 76.9529 219.013 78.2165 234.328C79.3171 247.66 82.2855 261.102 89.8313 272.364C90.1558 272.847 90.8123 272.628 90.8821 272.177C91.4996 273.044 92.248 273.872 92.9255 274.63C91.5477 274.634 90.1727 274.649 88.782 274.57C88.5608 274.56 88.3688 274.614 88.2023 274.706C84.0379 269.622 78.3127 266.053 72.7551 262.602C72.6682 259.461 71.7906 256.509 68.9946 253.653C67.0259 251.642 63.6703 246.803 60.5902 246.366C57.2461 245.89 54.0041 243.872 50.7417 243.727C49.0024 243.649 47.2185 244.514 45.4462 245.647C33.6273 240.374 23.5746 233.65 12.9009 226.441C12.6376 226.262 12.317 226.654 12.5467 226.876C21.3144 235.267 33.2478 242.037 44.7146 246.131C41.1379 248.548 37.6385 251.693 34.6868 250.027C33.9596 249.615 33.1503 250.103 33.079 250.905C33.0623 251.092 33.0511 251.282 33.0349 251.47C27.2189 248.595 22.1617 242.545 18.1534 237.891C15.353 234.638 12.5279 231.302 10.1824 227.701C9.74231 227.025 6.51458 222.604 8.06403 224.398C8.40931 224.796 9.05075 224.412 8.93941 223.926C8.53258 222.157 9.18244 223.755 10.4536 224.311C12.1036 225.083 13.7871 225.774 15.5069 226.376C18.8132 227.474 22.1403 228.459 25.5608 229.148C32.4014 230.533 39.3868 231.405 46.1463 233.17C55.6141 235.643 63.1858 239.775 69.4036 247.436C73.5451 252.536 77.2113 258.187 82.272 262.43C82.7216 262.81 83.3216 262.271 82.9449 261.8C80.37 258.578 77.7394 254.977 74.9309 251.439C74.0062 248.423 72.9003 245.326 71.6048 242.25C74.6351 248.42 78.0064 254.406 81.8142 259.926C82.0068 260.203 82.442 259.989 82.2851 259.675C75.9766 247.167 68.8888 235.322 63.6597 222.285C63.6474 222.107 63.6363 221.926 63.6241 221.748C63.8481 222.136 64.0324 222.536 64.2813 222.918C64.4808 223.224 64.9576 222.979 64.787 222.647C64.2835 221.673 63.8582 220.695 63.4878 219.712C63.0628 212.654 63.0033 205.513 63.9283 198.505C64.9929 190.445 67.7882 182.493 68.1675 174.365C68.8404 159.964 63.7159 146.911 59.9655 133.243C59.7352 132.405 58.4374 132.713 58.6528 133.559C62.503 148.772 53.0858 165.311 52.788 180.746C52.6728 186.706 52.9911 192.895 53.8894 199.017C46.2794 188.651 48.2099 174.473 41.1086 163.87C34.653 154.231 22.0364 148.37 19.186 136.534C18.9491 135.547 17.4492 135.913 17.6608 136.901C20.7089 151.199 23.7708 165.208 32.0564 177.514C38.0141 186.363 45.3071 192.947 50.8026 201.308C51.1753 202.266 51.5636 203.214 51.9203 204.181C52.0465 204.525 52.4903 204.477 52.5749 204.197C54.0978 206.856 55.4367 209.705 56.4796 212.882C56.5717 213.166 56.97 213.197 57.0996 212.977C58.6493 217.737 60.6684 222.299 63.2472 226.503C63.5573 227.01 64.4944 226.731 64.2717 226.112C63.9012 225.083 63.5359 224.06 63.1752 223.04C63.2406 223.053 63.2983 223.063 63.3661 223.048C64.9769 227.309 66.7077 231.599 68.6011 235.847C65.1882 229.319 60.8494 223.252 55.488 218.758C43.446 208.664 28.5721 202.35 16.9294 191.747C12.8493 188.033 8.9078 184.083 5.90509 179.414C4.79492 177.783 3.77406 176.099 2.84352 174.359C3.38102 174.805 3.9039 175.268 4.43703 175.72C18.982 189.335 36.7186 199.138 51.8527 212.126C52.1743 212.402 52.6405 211.992 52.3425 211.667C42.0528 200.395 28.6291 192.665 16.1586 183.834C17.9551 184.651 19.8537 185.338 21.9361 185.902C39.0528 190.546 46.2982 201.936 56.6469 215.053C56.8884 215.36 57.361 214.993 57.1874 214.666C51.9563 204.794 44.6487 194.368 34.585 188.918C29.8642 186.361 24.9102 185.395 19.8781 183.656C12.4494 181.089 7.47893 175.665 1.20106 171.313C0.505796 170.83 -0.242778 171.699 0.0754209 172.376C7.73087 188.639 21.2422 198.373 36.1461 207.623C44.262 212.66 53.6709 217.564 59.7905 225.06C65.8829 232.523 70.3802 241.093 73.8296 250.06C68.4182 243.403 62.2991 237.177 54.5996 234.381C39.4409 228.878 23.1213 228.923 8.34422 222.05C7.99945 221.89 7.5864 222.087 7.55881 222.457C7.45168 222.337 7.33093 222.207 7.17267 222.062C6.85128 221.766 6.15585 222.01 6.34034 222.511C8.79259 229.148 13.8215 235.156 18.5035 240.343C22.2247 244.465 27.1997 250.72 32.9441 252.679C32.6885 256.795 32.8387 261.089 33.8701 265.038C31.4811 261.689 28.7949 258.645 25.3679 257.658C22.5914 256.857 20.3085 257.107 17.7518 258.516C14.6021 260.252 16.4635 263.66 12.0652 265.713C11.507 265.973 11.2936 266.753 11.595 267.274C13.7047 269.803 13.5932 272.647 11.2591 275.806C10.7643 276.034 10.5355 276.767 10.8291 277.231C12.3076 279.564 20.363 287.662 15.167 290.133C14.6048 290.401 14.6085 291.093 14.9393 291.525C16.4489 293.504 18.2259 295.3 20.1798 296.915C16.6261 297.549 13.4731 300.652 17.9326 304.054C17.0074 304.609 16.1181 305.225 15.2175 305.822C14.7534 306.132 14.4036 306.792 14.7639 307.329C21.1738 316.831 8.87517 329.851 15.0385 339.643C16.5473 342.038 22.7474 340.722 24.7683 340.01C25.7528 339.664 26.6827 339.242 27.5882 338.791C23.9992 343.084 23.7661 349.472 26.0285 355.249C28.3312 361.137 34.7695 370.265 42.1983 366.283ZM53.8571 200.229C53.9313 200.312 54.0165 200.34 54.0995 200.344C54.2816 201.476 54.4819 202.605 54.7068 203.731C53.5458 201.246 52.0549 198.921 50.3759 196.697C45.8117 183.71 38.3481 171.849 31.3158 160.071C31.1121 159.729 30.5817 160.011 30.7697 160.364C36.5566 171.201 42.3915 181.819 47.3406 192.954C44.311 189.444 41.0121 186.102 38.1022 182.641C31.7855 175.125 27.0739 166.96 24.2596 157.52C23.2352 154.089 22.2912 150.642 21.501 147.15C21.2474 146.049 21.0088 144.946 20.7663 143.843C26.3531 152.153 36.1009 157.121 40.7817 166.22C46.336 177.017 45.4432 190.93 53.8571 200.229ZM60.4932 170.68C63.8144 186.403 55.5969 205.154 62.6197 219.935C62.6468 220.281 62.6866 220.632 62.7184 220.98C62.6641 221.036 62.6278 221.106 62.6602 221.193C62.6934 221.286 62.7312 221.378 62.7658 221.469C62.7832 221.652 62.7986 221.833 62.8178 222.016C57.4481 206.736 53.3159 192.263 54.787 175.54C55.7949 164.068 60.5334 152.857 60.8242 141.316C61.9611 145.179 63.1765 149.031 64.1622 152.935C66.1333 160.735 67.5602 168.885 66.3814 176.938C64.3972 190.513 61.91 202.722 62.4039 216.126C58.9224 201.026 67.7746 184.987 61.3171 170.366C61.1064 169.888 60.3923 170.203 60.4932 170.68ZM36.7606 271.58C37.3693 272.481 38.0627 273.332 38.8518 274.126C38.0193 274.371 37.2284 274.707 36.5237 275.168C36.4135 275.005 36.134 275.086 36.1042 275.299C36.0953 275.362 36.0945 275.426 36.0857 275.49C35.3341 276.073 34.6974 276.812 34.2556 277.769C32.3001 282.001 32.4991 286.387 33.6025 290.703C29.7029 286.549 26.7636 281.949 23.536 277.099C23.3571 276.827 22.9728 277.038 23.0961 277.335C25.4032 282.958 29.2049 288.832 34.1501 292.626C34.503 293.749 34.9019 294.865 35.3314 295.971C30.4178 290.962 25.6545 286.127 21.4851 280.362C21.2698 280.062 20.8786 280.421 20.9978 280.711C23.7491 287.397 30.3304 293.417 36.0953 297.774C37.0613 299.984 38.2707 302.066 39.688 303.972C35.417 302.796 29.5581 301.004 25.028 298.748C25.1437 298.622 25.18 298.424 25.0445 298.251C24.2828 297.282 23.029 296.844 21.6882 296.803C18.7577 294.758 17.254 292.432 18.8019 289.901C19.6364 288.538 19.4664 286.783 18.778 285.395C17.8399 283.501 12.8461 277.433 14.4152 276.827C15.7916 276.296 16.6541 273.859 16.3535 272.564C16.1403 271.64 14.1804 267.258 15.0992 266.822C15.7413 266.516 16.4041 265.848 16.6993 265.208C22.6117 252.399 30.9545 264.619 36.7606 271.58ZM71.0979 262.79C71.1007 262.808 71.0991 262.826 71.1019 262.845C71.2326 264.593 71.1276 266.525 70.847 268.795C70.7003 269.98 70.5148 271.155 70.347 272.336C70.208 272.531 70.1688 272.786 70.2541 272.996C69.7395 276.536 69.189 280.069 68.7381 283.614C67.9724 289.612 67.0048 298.032 70.9352 303.202C70.9312 303.243 70.9659 303.285 70.98 303.329C70.9857 303.347 70.9734 303.363 70.9833 303.384C70.9963 303.408 71.0158 303.432 71.0288 303.456C71.0293 303.456 71.0293 303.458 71.0293 303.458C71.0299 303.459 71.0308 303.459 71.0308 303.459C71.6403 304.706 72.6465 305.838 73.8498 306.703C72.2856 306.068 70.8611 305.228 69.6677 304.069C69.3954 303.807 69.0652 303.824 68.8106 303.972C63.9715 298.882 63.2181 290.987 61.4845 283.958C61.1131 276.714 62.5326 270.212 64.6123 262.894C64.6813 262.65 64.3108 262.471 64.1942 262.71C61.4801 268.276 60.3168 274.235 60.4147 280.258C60.0931 279.317 59.7354 278.406 59.3228 277.539C59.3259 277.538 59.3277 277.543 59.3316 277.542C59.3407 277.537 59.3504 277.533 59.3595 277.529C59.3746 277.522 59.3639 277.501 59.3504 277.505C59.0527 277.566 57.5209 261.643 57.7576 259.985C57.79 259.762 57.469 259.755 57.396 259.931C56.0472 263.187 56.8405 267.342 57.366 270.698C57.5734 272.018 57.7041 273.97 58.2313 275.573C56.2431 272.448 53.2654 270.088 48.3885 269.151C47.9627 269.071 47.4575 269.284 47.3096 269.703C46.001 267.807 45.6315 265.54 45.438 262.963C45.421 262.726 45.0562 262.631 44.9988 262.897C44.3813 265.765 45.3646 268.57 47.2706 270.614C47.3044 271.802 47.1637 272.603 46.8633 273.104C46.8357 272.778 46.8098 272.45 46.7837 272.123C46.7247 271.385 45.5801 271.337 45.6115 272.101C45.6347 272.692 45.6645 273.285 45.6993 273.882C44.3658 274.146 42.332 273.476 40.1468 273.828C40.1259 273.799 40.1164 273.767 40.0898 273.738C40.0276 273.669 39.9663 273.591 39.9033 273.52C36.7653 269.638 35.1274 264.866 34.9231 259.778C34.8871 258.874 35.3266 254.867 34.9724 253.155C35.2354 253.138 35.3868 252.944 35.3805 252.73C36.6829 253.121 38.2758 252.909 39.3925 252.256C42.4172 250.485 45.0283 246.476 48.5364 245.795C51.0196 245.314 63.1858 250.192 64.5918 251.457C68.9775 255.413 70.7661 258.534 71.0979 262.79ZM87.6996 275.388C87.6054 275.682 87.5854 276.003 87.7265 276.297C88.8679 278.663 89.2756 281.467 89.4571 284.414C85.6192 277.502 79.3108 273.982 71.8103 272.242C72.1356 269.352 72.6351 266.64 72.74 264.064C78.1373 267.354 83.3178 270.827 87.6996 275.388ZM86.6506 249.79C86.4289 252.17 86.4352 254.578 86.7527 257.036C86.7788 257.238 86.9463 257.31 87.1074 257.287C87.396 259.533 87.8555 261.731 88.5442 263.873C85.9042 256.635 83.877 249.518 83.8886 241.722C83.899 234.792 84.7145 227.852 84.2895 220.929C84.275 220.7 83.9553 220.692 83.9336 220.921C82.5493 235.651 81.1756 250.946 88.2541 264.496C88.3698 264.717 88.7223 264.602 88.7011 264.377C89.0588 265.429 89.488 266.46 89.9732 267.482C89.8785 267.679 89.7781 267.872 89.7208 268.072C89.5997 268.488 89.578 268.904 89.6205 269.318C83.2465 255.784 78.9133 241.437 79.7987 226.222C80.2266 218.886 81.4499 211.677 82.2734 204.385C82.5066 202.319 82.7456 200.237 82.9045 198.152C85.5818 213.282 87.1291 227.983 86.7295 243.37C86.6735 245.534 86.6309 247.675 86.6506 249.79ZM92.5666 264.741C91.8012 265.236 91.1079 265.832 90.58 266.5C88.5874 261.669 87.9458 256.473 87.8735 251.143C88.8242 242.704 91.2162 235.06 96.857 228.07C98.706 225.778 101.719 222.811 102.231 219.707C101.908 221.666 102.803 226.383 101.972 229.454C98.5794 241.975 91.9006 251.594 92.5666 264.741ZM128.433 282.452C127.378 282.107 126.33 281.783 125.271 281.421C121.822 280.242 118.816 279.668 115.21 280.352C114.913 280.408 114.819 280.741 114.926 280.986C117.131 286.081 120.12 291.885 123.864 297.164C115.937 294.262 106.799 290.876 98.3681 291.849C98.0272 291.89 98.0163 292.467 98.3544 292.524C102.856 293.273 107.407 293.336 111.877 294.439C116.168 295.501 120.358 296.894 124.591 298.158C125.566 299.48 126.589 300.759 127.66 301.982C124.703 302.09 122.968 303.904 119.856 305.469C114.298 308.263 103.378 308.387 98.1229 304.906C88.7667 298.704 93.7993 286.275 90.5111 276.917C92.101 276.909 93.685 276.86 95.2891 276.93C96.0826 276.964 96.7899 275.975 96.3094 275.261C95.32 273.788 90.225 268.29 92.6513 266.062C92.6653 266.219 92.6649 266.371 92.6811 266.529C92.7302 267.024 93.4488 267.068 93.4704 266.544C93.4852 266.21 93.4963 265.879 93.5104 265.544C94.4292 265.172 95.8183 265.014 97.8476 265.178C101.765 265.493 105.323 266.787 108.752 268.68C115.858 272.605 122.247 277.218 128.433 282.452ZM144.512 286.739C143.935 286.838 143.347 286.876 142.742 286.826C140.248 279.26 139.785 269.923 134.302 263.847C134.141 263.669 133.851 263.882 133.963 264.092C136.175 268.218 137.591 272.39 138.679 276.931C139.485 280.293 140.288 283.648 141.907 286.7C141.695 286.655 141.481 286.603 141.265 286.535C137.346 285.299 133.458 284.084 129.556 282.819C129.599 282.722 129.607 282.611 129.504 282.503C124.386 277.163 117.089 270.372 109.209 266.484C104.823 261.867 98.2788 253.005 105.824 251.62C106.505 251.495 106.784 250.801 106.699 250.189C106.108 245.934 107.814 246.971 110.592 244.446C113.809 241.524 117.596 235.811 122.777 239.53C123.218 239.846 123.757 239.517 123.926 239.084C127.799 229.168 133.507 237.774 135.417 240.96C137.645 244.676 139.472 248.573 140.426 252.835C141.209 256.333 141.62 259.856 141.998 263.387C141.643 271.375 142.351 279.332 144.512 286.739ZM197.305 293.435C198.352 299.535 192.363 295.561 189.388 297.279C185.234 299.677 183.413 303.893 177.809 303.707C174.555 303.596 171.398 303.538 168.393 304.947C164.078 306.97 160.757 310.345 155.94 309.491C159.449 305.441 163.984 304.379 168.289 300.851C169.908 299.522 175.115 296.155 174.928 293.331C174.745 290.51 173.086 289.313 170.95 288.616C177.104 284.808 184.418 285.783 190.686 289.053C192.576 290.04 195.165 291.548 197.305 293.435ZM164.182 310.978C162.515 310.928 160.861 310.843 159.211 310.814C161.429 310.364 163.439 309.059 166.036 307.552C169.73 305.413 173.564 304.798 177.782 305.018C178.903 305.078 181.946 305.603 183.039 304.848C186.018 302.789 188.196 298.261 192.402 298.395C193.612 298.434 195.938 298.936 197.067 298.288C198.478 297.476 198.711 296.044 198.492 294.566C200.305 296.478 201.522 298.706 201.181 301.143C200.222 307.986 192.468 306.596 187.704 306.107C184.185 305.747 181.082 306.259 177.747 307.347C173.173 308.833 169.173 311.128 164.182 310.978ZM156.133 310.857C155.687 310.879 155.245 310.934 154.799 310.976C154.881 310.852 154.966 310.728 155.049 310.611C155.423 310.714 155.783 310.799 156.133 310.857ZM117.498 284.528C114.142 277.472 130.823 285.029 133.213 285.86C136.715 287.078 141.018 288.607 144.736 288.764C147.882 288.897 149.649 286.425 151.857 284.778C155.189 282.295 161.856 289.464 165.923 289.748C168.772 289.948 177.436 290.333 170.816 296.402C168.107 298.886 165.304 300.849 162.067 302.549C158.699 304.32 156.359 306.172 154.504 309.111C154.3 309.042 154.098 308.982 153.886 308.899C153.135 308.598 152.802 309.799 153.541 310.099C153.648 310.144 153.752 310.178 153.859 310.216C153.678 310.549 153.498 310.876 153.327 311.236C153.292 311.313 153.273 311.389 153.266 311.462C151.489 308.416 150.15 305.817 150.362 301.934C150.546 298.571 151.216 295.256 152.162 292.028C152.248 291.734 151.8 291.606 151.706 291.897C150.053 296.975 147.581 305.534 151.041 310.629C143.041 303.523 135.273 297.46 132.755 285.968C132.688 285.659 132.223 285.774 132.281 286.082C133.989 295.17 140.652 305.816 149.004 311.309C134.496 308.61 123.877 297.927 117.498 284.528ZM159.471 331.498C156.489 329.719 153.424 328.076 150.326 326.612C150.497 326.421 150.54 326.113 150.253 325.911C145.975 322.884 141.435 320.244 137.284 317.029C132.537 313.351 128.678 309.047 124.334 304.959C124.043 304.686 123.543 305.007 123.75 305.379C126.301 309.955 130.139 313.857 134.478 317.233C123.314 314.598 112.439 310.866 101.124 308.84C96.2415 307.966 89.7583 308.619 83.6637 308.414C83.8911 308.357 84.1218 308.337 84.3465 308.261C84.7885 308.11 84.7428 307.48 84.2572 307.444C83.3731 307.377 82.5034 307.347 81.6391 307.297C81.6763 307.273 81.7187 307.264 81.756 307.238C82.0761 307.014 82.0197 306.468 81.5685 306.459C80.3088 306.433 79.0831 306.671 77.8445 306.653C77.7764 306.628 77.7067 306.621 77.6379 306.596C76.3125 306.111 75.0987 305.483 73.945 304.749C66.5455 295.687 70.33 284.263 71.6455 273.597C78.868 275.404 84.617 278.402 89.0316 284.726C89.1565 284.906 89.378 284.864 89.4762 284.732C89.9443 293.075 88.7391 302.498 97.1217 306.541C102.459 309.115 108.529 309.065 114.354 308.613C119.889 308.186 123.285 303.313 128.744 303.181C132.126 306.806 135.954 309.818 140.226 311.622C143.265 313.926 146.397 316.154 148.986 318.852C152.787 322.811 155.775 327.431 159.471 331.498ZM114.851 318.065C123.253 321.706 132.38 321.791 141.147 324.468C150.071 327.191 157.856 332.304 165.618 337.351C168.069 339.506 170.601 341.578 173.2 343.577C160.88 336.629 147.8 330.999 134.078 327.448C133.719 327.357 133.586 327.861 133.921 327.992C148.627 333.782 163.448 338.393 177.138 346.516C178.682 347.636 180.241 348.736 181.818 349.804C169.078 344.685 156.481 339.663 143.471 335.185C133.736 331.833 120.533 327.508 114.851 318.065ZM72.4679 318.178C72.9361 316.422 73.7531 314.77 75.1324 313.28C76.0506 313.026 76.9775 312.828 77.9104 312.687C77.5848 312.812 77.2562 312.937 76.9477 313.07C75.2661 313.792 74.1256 314.681 73.2518 316.273C73.0851 316.577 73.3081 316.913 73.5841 316.999C73.2003 317.357 72.8367 317.774 72.4679 318.178ZM47.2464 354.376C47.459 354.131 47.6731 353.887 47.8803 353.651C48.5357 352.902 47.6024 351.88 46.8165 352.519C46.4237 352.838 46.0405 353.184 45.664 353.544C45.6055 353.504 45.5464 353.476 45.4871 353.436C45.2577 353.281 42.611 350.212 41.3051 348.095C41.5215 347.314 41.7509 346.55 41.9928 345.806C42.0257 345.732 42.06 345.66 42.0684 345.577C43.7011 340.63 45.9702 336.449 49.827 332.407C52.7609 329.331 55.9436 326.495 58.639 323.204C58.8126 322.992 58.5623 322.702 58.3413 322.887C51.9119 328.27 44.2947 334.992 41.4045 343.256C38.875 333.231 43.4997 316.346 54.8892 315.271C55.2187 315.24 55.3576 314.777 55.0507 314.639C60.9169 316.122 67.314 315.374 73.3601 311.348C73.8621 311.013 73.4736 310.324 72.9235 310.537C62.1932 314.676 49.9775 314.497 42.5397 306.1C43.0516 306.15 43.5644 306.202 44.0737 306.232C44.6872 306.27 44.8241 305.329 44.2328 305.175C43.4933 304.978 42.4226 304.707 41.1445 304.366C40.1952 303.04 39.3372 301.565 38.6088 299.897C37.7827 298.004 36.8459 295.86 36.0359 293.637C36.1702 293.509 36.2268 293.305 36.0637 293.154C35.9604 293.06 35.8686 292.962 35.7669 292.867C34.725 289.848 33.9717 286.711 34.1525 283.836C34.3146 281.264 35.0107 279.537 36.0469 278.35C37.0827 290.537 52.9437 304.698 63.7351 306.147C64.0625 306.191 64.1369 305.654 63.8205 305.579C50.8325 302.5 40.1419 290.139 37.0417 277.437C38.1656 276.633 39.5395 276.22 41.0504 276.011C41.0802 276.033 41.1049 276.058 41.1349 276.079C41.3404 276.224 41.5592 276.114 41.6736 275.937C43.002 275.802 44.4097 275.786 45.8283 275.771C46.4425 283.585 48.2092 291.534 53.7296 297.356C53.9235 297.56 54.2259 297.272 54.0456 297.06C48.9548 291.051 47.761 283.348 47.085 275.754C47.5496 275.744 48.0123 275.733 48.4694 275.71C48.9171 275.687 49.4054 275.35 49.3705 274.846C48.7599 266.054 57.9076 277.479 59.0043 281.023C60.1375 284.687 60.7963 288.445 61.7319 292.159C63.1091 297.622 64.9334 302.677 69.6069 305.899C76.1988 311.285 85.3716 308.133 93.2578 308.842C107.996 310.166 121.749 315.284 136.092 318.451C139.282 320.779 142.678 322.85 146.006 324.7C135.406 320.388 123.471 320.871 113.273 315.315C112.445 314.864 111.651 315.692 112.001 316.517C112.471 317.63 113.054 318.668 113.703 319.664C101.54 315.243 91.2591 326.892 79.8561 329.878C85.4631 324.933 90.7566 320.694 96.9213 317.773C96.8488 317.84 96.7709 317.898 96.6999 317.968C96.4233 318.243 96.6655 318.783 97.075 318.662C99.2728 318.01 101.251 316.898 103.553 316.491C106.161 316.031 108.82 315.936 111.44 316.36C111.931 316.44 112.163 315.699 111.657 315.601C109.521 315.191 106.883 314.906 104.314 315.083C105.425 314.79 106.564 314.528 107.747 314.315C108.311 314.31 108.876 314.306 109.44 314.274C109.598 314.266 109.673 314.141 109.668 314.023C109.993 313.978 110.305 313.921 110.635 313.883C111.259 313.812 111.082 312.893 110.52 312.847C108.067 312.638 105.718 312.817 103.454 313.273C96.6675 312.444 89.6419 311.126 83.3322 312.255C83.328 312.156 83.2961 312.069 83.2342 311.989C84.0125 311.876 84.7882 311.755 85.5556 311.577C85.9713 311.48 85.8514 310.942 85.4809 310.889C81.7406 310.356 77.7649 311.426 74.3046 312.758C74.051 312.856 74.0918 313.162 74.2546 313.322C65.2083 319.824 74.4965 335.06 63.2391 341.011C59.025 343.24 58.0087 345.747 56.0105 350.061C54.306 353.742 51.0986 355.922 47.2464 354.376ZM37.6061 365.168C37.7939 365.108 37.9339 364.905 37.8363 364.671C37.0405 362.779 36.0824 360.998 35.6683 358.961C35.2534 356.925 35.1338 354.864 35.3055 352.795C35.3335 352.469 34.7963 352.386 34.7378 352.709C33.9984 356.766 34.0655 361.973 37.2413 365.075C36.6046 364.9 36.0425 364.677 35.7465 364.483C34.1747 363.453 32.7315 362.15 31.5891 360.654C25.9481 353.246 23.1718 340.426 33.3834 335.526C33.6488 335.397 33.5364 335.01 33.2978 334.962C34.0348 334.332 34.7537 333.674 35.4465 332.98C31.3223 338.994 27.6972 345.527 28.1087 352.728C28.1309 353.102 28.7305 353.253 28.8062 352.833C29.803 347.304 31.049 342.275 34.0193 337.408C36.5132 333.322 39.3029 329.435 41.6914 325.285C41.8998 324.923 41.375 324.609 41.1411 324.949C40.2887 326.187 39.3796 327.449 38.4542 328.733C38.3128 328.669 38.1485 328.653 37.9781 328.795C32.0253 333.726 27.2935 340.075 18.5222 339.541C12.2692 339.16 15.7371 327.113 16.5483 323.728C17.5903 319.377 18.7795 314.867 18.3695 310.361C18.0617 306.965 16.6016 306.998 20.5093 305.083C21.2054 304.741 21.2732 303.608 20.5616 303.237C16.2033 300.965 18.8345 298.419 21.919 298.268C27.5636 302.397 34.4761 305.066 41.3007 305.957C43.4105 308.358 45.8451 310.413 48.5226 311.976C42.6184 310.12 37.4113 306.628 31.653 304.322C31.3122 304.184 31.1124 304.708 31.4015 304.894C37.3079 308.701 44.1226 312.173 51.1321 313.316C52.3083 313.837 53.5218 314.236 54.7555 314.564C54.3099 314.481 53.8738 314.416 53.4614 314.391C53.4308 314.308 53.3704 314.24 53.2554 314.214C44.7296 312.192 35.6254 309.837 26.8043 309.91C26.415 309.913 26.2898 310.529 26.6987 310.607C34.9051 312.177 43.2425 312.881 51.4545 314.522C50.8213 314.639 50.2241 314.816 49.677 315.073C45.6204 314.903 41.5234 315.546 37.5506 316.298C33.2954 317.104 28.8593 317.787 24.8146 319.372C24.4903 319.498 24.6279 320.074 24.9765 320.039C29.3137 319.607 33.5324 318.195 37.8074 317.361C41.3952 316.663 45.0076 316.226 48.6142 315.691C45.1347 318.095 43.4675 323.338 41.761 327.555C40.1448 331.551 38.6367 335.041 38.9438 339.4C39.1201 341.905 41.7097 344.476 38.9451 344.732C38.573 344.767 38.2795 345.053 38.3686 345.45C39.0356 348.416 41.7575 351.989 44.9832 354.245C42.3624 357.01 40.3902 360.686 40.5854 364.457C40.6402 365.531 39.0271 365.499 37.6061 365.168Z" fill="url(#paint11_linear_327_144)"/>
<path id="Vector_13" d="M32.8961 357.048C29.7391 352.626 32.1774 346.794 33.8619 342.305C33.9909 341.958 34.5133 342.1 34.4183 342.465C33.1431 347.391 32.2433 351.806 33.4324 356.845C33.5145 357.187 33.0772 357.302 32.8961 357.048Z" fill="url(#paint12_linear_327_144)"/>
<path id="Vector_14" d="M133.679 308.001C138.345 312.507 141.665 317.492 147.332 320.999C147.711 321.233 147.365 321.746 146.984 321.571C141.189 318.915 136.311 313.882 133.043 308.457C132.802 308.059 133.368 307.699 133.679 308.001Z" fill="url(#paint13_linear_327_144)"/>
<path id="Vector_15" d="M96.3858 232.371C96.5776 231.951 97.2821 232.268 97.1265 232.695C94.8436 238.983 92.1786 245.1 90.2553 251.516C90.1154 251.981 89.3147 251.892 89.3892 251.387C90.3917 244.623 93.5649 238.524 96.3858 232.371Z" fill="url(#paint14_linear_327_144)"/>
</g>
<g id="Group_4">
<path id="Vector_16" d="M33.1633 54.8965C33.6957 55.4325 34.502 55.6573 35.1355 56.048C35.304 56.1523 35.4764 56.0875 35.5784 55.9622C35.7509 55.9424 35.9184 55.8454 36.0301 55.7108C36.209 55.4927 36.3841 55.272 36.5582 55.0529C36.7864 54.7672 36.6362 54.3245 36.3604 54.1417C35.4277 53.5223 34.4884 52.9162 33.5511 52.3038C33.1015 52.0117 32.5247 52.3425 32.4889 52.8566C32.431 53.6405 32.5977 54.3274 33.1633 54.8965Z" fill="url(#paint15_linear_327_144)"/>
<path id="Vector_17" d="M37.4593 51.9517C37.6419 51.3702 37.832 50.7894 37.8434 50.1739C37.855 49.3794 37.5568 48.6063 37.2929 47.8706C37.1241 47.3965 36.3807 47.4164 36.1485 47.8143C35.5869 48.7856 36.0185 49.5059 36.2347 50.4581C36.0248 50.2691 35.8106 50.0869 35.564 49.9463C35.1794 49.723 34.7119 50.2174 35.0425 50.5578C35.5844 51.1213 35.936 51.7751 36.559 52.2795C36.8691 52.5309 37.3548 52.2935 37.4593 51.9517Z" fill="url(#paint16_linear_327_144)"/>
<path id="Vector_18" d="M35.7275 59.818C36.3516 61.4033 37.9475 63.207 39.7989 62.724C40.5821 62.8877 41.1359 63.272 41.8355 62.4223C41.9914 62.2343 41.9617 61.9408 41.8709 61.7365C40.7879 59.2946 39.0003 57.868 36.266 58.6821C35.7437 58.8377 35.5333 59.3197 35.7275 59.818ZM40.3306 61.8232C40.1759 61.8155 40.0188 61.8024 39.8638 61.7829C39.4632 61.5513 39.0397 61.3732 38.6233 61.1393C38.151 60.8735 37.8389 60.4709 37.5859 60.0245C38.0942 59.9672 38.59 60.0203 39.0826 60.3301C39.6058 60.662 39.9993 61.2565 40.3306 61.8232Z" fill="url(#paint17_linear_327_144)"/>
<path id="Vector_19" d="M43.5877 55.6744C43.3768 55.3599 43.1157 55.0836 42.863 54.801C43.1642 54.7566 43.4386 54.666 43.778 54.6502C44.2457 54.6286 44.4452 53.912 43.9277 53.7924C43.573 53.7109 43.3174 53.5022 42.9692 53.4406C42.4788 53.352 42.0633 53.171 41.6415 52.9085C41.0854 52.558 40.2995 53.0565 40.4667 53.7242C40.8191 55.1256 41.8026 55.9934 43.2264 56.2368C43.4987 56.283 43.7431 55.9026 43.5877 55.6744Z" fill="url(#paint18_linear_327_144)"/>
<path id="Vector_20" d="M37.2611 70.1199C36.9505 69.4691 36.4283 68.9476 36.1286 68.2922C35.8517 67.6827 36.4646 67.1958 37.0224 66.8645C37.1617 67.0784 37.309 67.2857 37.4326 67.5089C37.4587 67.553 37.4612 67.5644 37.4779 67.5964C37.2308 67.6443 36.9373 67.6431 36.7159 67.6877C36.0832 67.8174 36.2972 68.776 36.9283 68.661C37.5014 68.5572 38.2772 68.8446 38.6758 68.2728C39.2325 67.4697 38.2709 66.277 37.8622 65.6453C37.6644 65.3375 37.2892 65.1514 36.9365 65.3458C35.8053 65.9633 34.6144 66.792 34.7441 68.2218C34.8379 69.2708 36.0034 70.1891 36.8797 70.572C37.1498 70.6907 37.3679 70.3478 37.2611 70.1199Z" fill="url(#paint19_linear_327_144)"/>
<path id="Vector_21" d="M79.9342 36.2291C79.9 36.5732 80.3886 36.7074 80.5617 36.429C80.7675 36.0996 80.9534 35.9618 81.1231 35.9675C81.0966 36.036 81.0797 36.1108 81.08 36.189C81.0857 36.6929 81.0899 37.1956 81.0956 37.6995C81.1017 38.151 81.4983 38.5436 81.9675 38.4317C82.0341 38.4159 82.0765 38.3925 82.1404 38.375C82.508 40.4714 82.6246 43.2165 82.5602 43.5293C82.0854 45.8211 80.8249 47.9501 79.7009 49.9639C77.4155 54.0613 74.4748 57.7929 71.7861 61.6238C68.824 65.8438 65.0047 70.8884 63.7106 76.2362C63.6583 73.3729 63.6258 70.345 63.5685 67.2077C63.5673 67.2032 63.5696 67.2027 63.5691 67.2005C63.5695 67.1969 63.5691 67.1946 63.5671 67.1914C63.1763 45.9249 61.6071 19.8137 44.3378 8.33886C44.0404 8.14041 43.6659 8.56591 43.9259 8.82222C57.0639 21.858 60.1451 39.8554 61.1783 58.3089C60.0486 55.0056 58.6444 51.8205 56.7973 48.6122C52.8153 41.7035 47.1807 36.9154 45.1748 28.9108C43.0542 20.4356 43.4649 10.2067 37.6941 3.52299C41.0729 4.71993 44.6558 5.25947 48.2412 6.18615C57.4912 8.58206 63.2538 17.4442 66.2324 25.8331C68.8036 33.0731 68.716 40.2667 66.3771 47.5256C64.6386 52.9157 63.1075 57.4011 63.5999 63.149C63.6394 63.6239 64.3209 63.6852 64.3591 63.1803C64.8932 56.1072 67.1443 50.0223 69.0367 43.2792C70.643 37.5516 69.1566 31.0554 67.5417 25.5477C64.0558 13.6512 55.1824 6.07448 43.2357 3.65822C42.3377 3.47574 38.5572 2.36775 36.8455 2.58202C35.9282 1.67468 34.8831 0.839169 33.6685 0.103375C32.945 -0.335241 32.2578 0.73455 32.9593 1.20748C33.9771 1.89113 35.034 2.43267 36.1107 2.90089C35.8762 3.20227 36.0082 3.71522 36.7709 4.56605C39.0229 7.08019 39.9804 10.8123 40.7792 13.9751C42.2007 19.6082 42.6077 25.4434 44.0628 31.0785C45.3591 36.1058 48.2296 39.4859 51.4737 43.4069C55.8346 48.6765 59.1116 54.487 61.3061 60.8182C61.5758 66.612 61.6857 72.4281 61.8695 78.1316C59.1275 69.1685 51.4655 61.4768 43.2476 57.3953C42.8038 57.1732 42.4619 57.7206 42.8367 58.0349C51.0642 64.9099 60.1719 70.5991 61.9376 82.1225C61.9469 82.187 61.9924 82.2101 62.0208 82.2537C62.2309 87.2463 62.5471 92.128 63.1462 96.7938C63.6837 100.988 64.5121 105.525 65.6433 110.187C65.4958 109.947 65.3537 109.704 65.1959 109.471C58.874 95.8688 44.8542 86.4619 29.5767 90.7502C25.9138 91.7787 22.2194 93.7055 19.1533 95.9282C17.4762 97.1437 16.5394 98.0106 16.1353 98.6702C14.8201 98.3855 13.4301 98.3352 11.8719 98.5954C11.2891 98.6929 11.4137 99.53 11.9593 99.5818C13.4889 99.7296 14.7067 99.7083 15.9133 99.3376C15.8467 100.685 18.8125 101.002 21.2823 102.698C23.901 104.496 26.4339 106.079 29.2711 107.54C33.1211 109.525 37.4788 111.276 41.7967 111.79C49.6708 112.728 58.6747 110.391 65.0234 115.726C65.004 115.741 64.984 115.757 64.9647 115.772C53.1336 110.137 34.7735 120.258 28.5045 130.108C27.9831 130.926 29.0107 131.615 29.7127 131.135C36.1759 126.7 44.4323 129.448 51.673 127.823C57.4569 126.525 61.9664 121.913 66.1965 117.718C66.7387 118.033 67.2632 118.386 67.7664 118.783C67.7906 118.818 67.8174 118.843 67.8409 118.879C67.9048 118.977 67.9957 119.024 68.089 119.048C68.1078 119.064 68.1255 119.079 68.1443 119.095C73.5746 136.008 83.0391 152.888 97.383 160.231C97.7743 160.432 98.1496 159.878 97.7584 159.647C82.0193 150.3 73.2392 133.425 68.5532 115.432C68.7108 115.284 68.8677 115.133 69.0249 114.989C69.6909 114.377 68.9284 113.189 68.1139 113.66C68.1099 113.663 68.1068 113.665 68.1013 113.667C66.8798 108.678 65.9687 103.621 65.2972 98.6285C67.593 94.172 76.6366 92.0215 80.2184 90.737C84.9783 89.0318 89.0037 86.7897 92.9228 83.5823C100.955 77.0076 102.936 67.6371 98.406 58.4816C98.108 57.878 97.0201 57.8733 96.8774 58.6109C95.3953 66.2925 82.5021 69.8345 77.0684 74.8055C71.8963 79.5394 66.4945 85.7161 65.5469 92.8412C65.3349 93.0652 65.1051 93.2741 64.8973 93.5008C64.5254 93.9067 65.0086 94.4891 65.4161 94.2519C65.4094 94.3838 65.4181 94.516 65.4149 94.6482C65.2355 94.8639 65.0545 95.0787 64.8851 95.2972C64.3298 90.4024 63.9948 85.5982 63.833 81.0218C63.8628 80.9787 63.8952 80.9372 63.8912 80.8645C62.8952 66.8024 89.8594 51.8186 83.504 37.8412C87.5637 35.5854 80.4922 30.5593 79.9342 36.2291ZM46.2172 126.808C42.88 127.078 39.706 126.872 36.634 127.178C45.0539 122.59 52.6891 117.952 62.6048 117.674C57.7894 121.783 53.7487 126.199 46.2172 126.808ZM63.5917 116.853C53.3408 114.069 43.2325 122.059 35.0459 127.372C34.014 127.548 32.9934 127.847 31.98 128.227C39.0735 120.278 53.6854 112.995 63.8571 116.634C63.7684 116.706 63.6791 116.781 63.5917 116.853ZM17.0036 98.8954C17.4153 98.6945 17.8337 98.4585 18.2732 98.1564C24.4808 93.8976 30.964 91.0594 38.5856 90.9225C47.4316 90.7629 54.4095 96.5015 59.5503 103.593C48.0948 94.9558 28.5058 93.5394 17.01 98.8978C17.0076 98.8981 17.0063 98.8973 17.0036 98.8954ZM67.4496 116.859C67.3946 116.787 67.3325 116.725 67.2767 116.655C67.3048 116.626 67.3344 116.598 67.364 116.57C67.3921 116.666 67.4215 116.763 67.4496 116.859ZM66.0232 115.006C65.9644 115.046 65.9055 115.086 65.8463 115.13C60.3488 110.047 52.1679 110.757 44.4743 110.755C36.5626 110.752 28.3195 105.888 22.0388 101.52C20.6116 100.528 19.2534 99.7365 17.8499 99.195C18.1302 99.1041 18.4131 99.0248 18.695 98.9408C18.6159 99.1275 18.6842 99.3853 18.9518 99.4052C34.3019 100.588 51.3343 99.3297 62.7279 111.545C63.0079 111.843 63.4072 111.449 63.1874 111.133C53.7953 97.5792 33.7497 99.5698 19.2729 98.7663C34.1034 94.5824 52.116 97.8766 62.9726 108.944C64.127 110.98 65.1418 113.024 66.0232 115.006ZM88.6682 68.8276C91.1722 67.292 94.2047 65.5341 96.1867 63.2586C95.7584 68.4533 92.5367 72.7286 88.2127 76.5815C89.7111 75.1287 91.0831 73.5658 92.2572 71.8293C92.4886 71.4873 92.0156 71.0984 91.7133 71.3658C84.1061 78.1099 75.1212 83.5718 67.7605 90.5965C71.1887 80.6923 79.6896 74.3403 88.6682 68.8276ZM67.1601 92.5861C68.7841 91.0679 70.5468 89.6737 72.3759 88.3395C70.4403 89.7998 68.643 91.2849 67.0949 92.8244C67.1154 92.7442 67.1386 92.6655 67.1601 92.5861ZM66.7454 94.4026C72.7584 87.6623 81.5852 83.002 88.4122 77.2991C92.3197 74.0335 99.0276 68.1495 96.957 62.3414C97.4609 61.7206 98.0344 60.9946 98.1987 60.2628C97.2706 64.3974 99.443 68.4097 98.1702 72.8566C95.3441 82.73 84.3242 86.9808 75.7672 90.2995C73.0113 91.3683 69.2081 92.7583 66.6339 94.9946C66.6692 94.7975 66.7066 94.5996 66.7454 94.4026ZM65.5247 96.1056C65.3567 96.3034 65.1975 96.5089 65.0511 96.7187C65.0416 96.6426 65.033 96.5649 65.0244 96.4874C65.1611 96.3046 65.3078 96.128 65.4497 95.9465C65.4681 96.0088 65.4923 96.0594 65.5247 96.1056Z" fill="url(#paint20_linear_327_144)"/>
<path id="Vector_22" d="M75.6027 28.6117C74.6801 30.06 75.7613 31.9344 77.1292 32.6013C77.3589 32.7134 77.6808 32.5189 77.5821 32.257C78.8633 32.7826 80.3123 32.8865 80.9931 31.4021C81.3783 30.5629 81.0276 29.3105 80.5743 28.5604C80.2042 27.9475 79.6154 27.5116 78.9297 27.3172C77.6894 26.9679 76.2867 27.5378 75.6027 28.6117ZM79.8231 30.2609C80.1689 32.0668 78.0795 31.7042 76.9482 31.197C76.6376 30.6552 76.4176 30.0821 76.6483 29.4711C76.8843 28.8456 77.6315 28.5288 78.2519 28.5333C79.2331 28.5436 79.6615 29.4176 79.8231 30.2609Z" fill="url(#paint21_linear_327_144)"/>
<path id="Vector_23" d="M82.9564 32.6006C82.6491 32.5514 82.3469 32.9396 82.6157 33.1916C84.2602 34.7228 87.0425 35.1618 88.9356 33.8375C90.8986 32.4648 89.8899 29.21 88.1485 28.1326C85.2462 26.3339 81.9134 29.9544 82.9564 32.6006ZM88.0121 32.8096C87.0817 33.6514 85.5298 33.6199 84.2758 33.1974C83.8173 32.1853 83.6286 31.2993 84.3819 30.2448C84.9568 29.4377 86.1327 28.9811 87.089 29.2516C88.4391 29.6308 89.0373 31.8807 88.0121 32.8096Z" fill="url(#paint22_linear_327_144)"/>
<path id="Vector_24" d="M90.1436 37.3369C90.6252 37.0268 90.761 36.3879 90.3323 35.9573C89.1161 34.7358 87.2409 36.6905 87.346 37.9646C87.3618 38.1674 87.5626 38.3642 87.7737 38.2387C88.0389 38.0837 88.3395 37.7372 88.6489 37.4375C89.1525 37.5541 89.7172 37.6124 90.1436 37.3369Z" fill="url(#paint23_linear_327_144)"/>
<path id="Vector_25" d="M88.3865 41.3951C88.2671 41.8751 88.4744 42.4014 88.2104 42.8275C88.0982 43.0085 88.2583 43.2747 88.4802 43.2145C88.8164 43.1245 88.9775 42.971 89.1682 42.6864C89.291 42.5043 89.3224 42.2675 89.4105 42.0788C89.6647 42.487 89.8579 42.9533 89.4781 43.1654C88.9499 43.4631 88.2593 43.5615 87.6784 43.7165C87.2835 43.8215 87.4127 44.3908 87.8128 44.3321C88.7032 44.1984 89.7136 44.3361 90.4652 43.7515C91.3841 43.0366 90.5811 41.6148 90.1179 40.9168C89.9706 40.694 89.7139 40.5022 89.4258 40.5899C89.0126 40.7143 88.5037 40.9213 88.3865 41.3951Z" fill="url(#paint24_linear_327_144)"/>
<path id="Vector_26" d="M93.0146 40.2167C93.0981 40.4026 93.2935 40.3955 93.425 40.2968C93.5659 40.5898 93.7743 40.8477 94.1378 41.0613C95.1033 41.6298 96.2748 41.1703 97.1028 40.5763C98.4217 39.6331 98.9074 38.0003 97.865 36.6663C97.0207 35.5879 95.4689 35.2586 94.222 35.7048C92.4235 36.3481 92.3567 38.7539 93.0146 40.2167ZM96.7629 39.0038C96.3504 39.6035 95.6154 40.1015 94.872 40.1096C94.3841 40.1138 93.7817 39.5719 93.627 39.1362C93.7007 38.321 93.8693 37.4639 94.5744 37.0517C95.1943 36.69 95.9955 36.935 96.538 37.322C97.1487 37.7603 97.1644 38.4241 96.7629 39.0038Z" fill="url(#paint25_linear_327_144)"/>
</g>
<g id="Group_5">
<path id="Vector_27" d="M317.43 314.818C319.988 309.623 322.707 301.674 314.958 300.043C308.339 298.652 298.281 306.738 295.176 311.889C294.716 312.655 294.292 313.438 293.89 314.239C293.543 311.833 289.824 309.098 287.431 310.175C283.842 311.791 282.634 316.721 282.383 320.277C281.964 326.215 283.321 332.048 284.325 337.871C284.339 337.943 284.377 337.99 284.418 338.026C282.749 340.87 280.645 343.454 277.756 345.575C277.481 345.776 277.786 346.155 278.067 345.988C292.641 337.298 288.85 315.639 303.104 306.214C305.003 304.96 321.004 295.699 318.587 307.154C317.777 310.997 316.083 315.217 313.501 318.242C306.833 326.054 297.795 328.96 289.21 333.928C288.782 334.176 289.194 334.785 289.614 334.644C296.72 332.262 304.593 328.795 310.534 323.57C310.6 323.575 310.664 323.563 310.72 323.53C312.64 322.394 318.077 322.379 315.226 325.236C314.252 326.255 313.219 327.203 312.122 328.081C310.079 329.634 307.922 331.069 305.516 332.009C300.633 333.913 295.603 334.447 290.475 335.256C290.023 335.327 290.115 335.976 290.562 335.949C301.772 335.332 311.015 332.302 318.497 323.676C318.695 323.446 318.692 323.05 318.502 322.816C317.092 321.083 315.195 320.306 313.467 320.647C315.028 318.877 316.381 316.947 317.43 314.818ZM292.746 316.509C292.795 316.48 292.825 316.444 292.871 316.414C289.874 323.272 288.366 330.897 284.829 337.295C284.507 329.848 281.529 321.732 285.256 314.655C286.328 312.62 288.437 310.461 290.661 312.489C291.322 313.091 292.722 314.835 292.105 315.858C291.835 316.307 292.288 316.786 292.746 316.509Z" fill="url(#paint26_linear_327_144)"/>
<path id="Vector_28" d="M305.121 313.715C305.402 313.635 305.557 314.004 305.293 314.136C296.931 318.331 296.151 327.631 289.775 333.532C289.587 333.706 289.293 333.404 289.459 333.212C295.005 326.848 295.991 316.353 305.121 313.715Z" fill="url(#paint27_linear_327_144)"/>
<path id="Vector_29" d="M287.543 328.378C287.483 328.759 286.979 328.73 286.901 328.379C286.031 324.483 287.962 320.491 287.212 316.514C287.158 316.213 287.646 316.08 287.736 316.379C288.89 320.187 288.177 324.523 287.543 328.378Z" fill="url(#paint28_linear_327_144)"/>
<path id="Vector_30" d="M268.148 354.323C267.866 354.088 268.201 353.65 268.497 353.872C275.166 358.907 282.582 366.361 282.649 375.327C282.652 375.807 282.033 375.884 281.916 375.421C279.706 366.733 275.018 360.063 268.148 354.323Z" fill="url(#paint29_linear_327_144)"/>
<path id="Vector_31" d="M263.529 374.807C263.845 374.955 264.3 374.776 264.41 374.44C267.38 365.377 257.959 351.306 248.833 346.84C259.085 348.747 269.707 349.223 280.248 348.612C284.079 349.404 287.868 350.374 291.639 351.434C291.649 351.504 291.675 351.576 291.747 351.634C297.701 356.482 296.796 364.652 298.893 371.344C300.271 375.738 302.999 380.772 306.643 383.73C311.164 387.399 320.956 386.194 318.485 378.589C318.295 378.008 317.406 378.162 317.338 378.735C312.11 384.146 308.089 384.495 305.278 379.786C304.919 379.309 304.562 378.832 304.206 378.356C302.924 376.52 301.522 374.712 300.822 372.558C299.666 368.986 299.029 365.304 298.247 361.638C297.409 357.719 295.939 354.348 292.963 351.811C296.319 352.773 299.662 353.787 303.01 354.791C302.909 354.941 302.899 355.136 303.103 355.267C309.956 359.686 316.375 364.131 322.449 369.591C322.715 369.831 323.091 369.433 322.888 369.158C318.23 362.872 311.189 359.038 304.52 355.182C304.91 355.146 305.1 354.623 304.668 354.419C300.665 352.534 308.452 353.756 308.567 353.772C311.036 354.024 313.455 354.537 315.823 355.312C319.957 357.09 322.655 359.26 325.534 362.641C329.856 367.719 335.635 374.586 336.174 381.541C336.105 380.676 324.267 379.481 322.197 378.395C311.896 372.995 304 364.837 298.669 354.558C298.427 354.092 297.681 354.372 297.9 354.868C298.408 356.031 298.988 357.16 299.612 358.269C299.47 358.4 299.39 358.6 299.474 358.835C301.533 364.539 303.073 371.271 308.341 374.93C308.614 375.12 308.995 374.784 308.772 374.507C305.482 370.438 303.51 366.193 301.669 361.55C305.51 367.138 310.648 371.97 316.055 375.876C319.103 378.078 322.261 380.082 325.912 381.156C328.734 381.986 334.711 382.021 336.366 384.509C336.746 385.081 337.546 384.743 337.665 384.168C339.309 376.252 331.999 366.924 327.036 361.516C319.862 353.698 311.65 352.059 301.259 352.518C300.957 352.531 300.876 352.949 301.096 353.116C304.356 355.587 301.028 353.396 299.247 352.872C295.587 351.798 291.923 350.741 288.241 349.745C286.419 349.253 284.589 348.833 282.755 348.448C289.887 347.919 296.964 346.902 303.85 345.504C312.262 347.96 321.298 349.991 330.069 350.005C335.372 350.014 344.21 347.728 345.012 341.161C345.719 335.373 338.486 333.573 333.971 333.276C324.781 332.672 313.444 334.88 306.089 340.708C305.774 340.955 306.057 341.422 306.423 341.301C314.396 338.645 321.246 334.833 329.945 334.658C333.316 334.59 337.128 334.702 340.24 336.189C345.219 338.566 343.717 344.108 339.42 346.618C329.148 352.619 316.491 346.642 305.566 345.15C307.594 344.717 309.602 344.25 311.59 343.756C311.621 343.767 311.645 343.789 311.684 343.789C316.529 343.657 321.982 342.922 326.489 341.033C326.77 340.914 326.657 340.491 326.355 340.522C322.163 340.957 318.034 342.174 313.854 342.931C313.817 342.839 313.736 342.761 313.625 342.775C299.921 344.49 286.465 346.45 273.182 346.921C272.549 346.852 271.918 346.765 271.282 346.707C271.107 346.691 271.029 346.849 271.058 346.982C254.35 347.367 237.906 345.243 221.575 337.123C221.348 337.01 221.209 337.368 221.428 337.483C229.313 341.67 237.783 344.563 246.548 346.387C246.597 346.408 246.649 346.423 246.699 346.443C250.336 357.314 252.162 369.47 263.529 374.807ZM257.184 368.534C255.227 366.04 253.753 363.304 252.735 360.296C251.555 356.806 250.696 353.14 249.384 349.679C252.489 354.071 254.778 358.938 257.933 363.288C258.184 363.632 258.696 363.313 258.562 362.934C256.556 357.283 252.586 352.014 248.742 347.459C255.985 351.666 262.771 361.958 263.606 369.233C263.803 370.944 264.585 374.564 260.844 371.785C259.478 370.873 258.258 369.788 257.184 368.534Z" fill="url(#paint30_linear_327_144)"/>
<path id="Vector_32" d="M261.176 335.466C259.459 338.258 256.582 340.66 253.963 342.568C252.076 343.941 249.617 345.368 247.552 343.646C247.27 343.411 247.605 342.974 247.901 343.195C251.327 345.763 258.177 336.52 260.661 334.945C261.026 334.714 261.395 335.112 261.176 335.466Z" fill="url(#paint31_linear_327_144)"/>
<path id="Vector_33" d="M255.772 336.227C255.573 336.313 255.37 336.177 255.317 335.993C255.114 336.164 254.89 336.311 254.622 336.412C254.345 336.514 253.948 336.218 254.124 335.913C254.463 335.327 254.883 334.821 255.136 334.186C255.414 333.493 255.388 332.68 255.177 331.976C254.967 331.278 256.024 330.843 256.237 331.55C256.467 332.321 256.521 333.306 256.324 334.199C256.676 333.747 257.043 333.302 257.348 332.829C258.239 331.438 258.668 329.792 258.536 328.151C258.479 327.445 259.56 327.3 259.628 328.011C259.895 330.756 258.547 335.055 255.772 336.227Z" fill="url(#paint32_linear_327_144)"/>
</g>
<g id="Group_6">
<path id="Vector_34" d="M126.159 190.485C124.871 191.371 124.116 192.928 123.087 194.073C122.812 194.377 122.881 194.752 123.099 195.005C123.076 195.363 123.212 195.74 123.445 196.016C123.823 196.461 124.208 196.898 124.591 197.333C125.09 197.902 126.047 197.76 126.521 197.266C128.127 195.596 129.708 193.909 131.301 192.228C132.062 191.421 131.6 190.126 130.565 189.863C128.988 189.457 127.527 189.544 126.159 190.485Z" fill="url(#paint33_linear_327_144)"/>
<path id="Vector_35" d="M130.579 200.306C131.698 200.892 132.811 201.492 134.061 201.742C135.676 202.058 137.362 201.736 138.958 201.47C139.987 201.301 140.22 199.782 139.494 199.163C137.721 197.663 136.094 198.276 134.074 198.365C134.537 198.008 134.987 197.639 135.364 197.19C135.96 196.489 135.125 195.356 134.309 195.904C132.962 196.799 131.5 197.273 130.243 198.355C129.616 198.893 129.922 199.968 130.579 200.306Z" fill="url(#paint34_linear_327_144)"/>
<path id="Vector_36" d="M125.46 172.578C125.347 172.69 125.306 172.828 125.304 172.965C124.274 175.026 124.229 177.382 126.094 179.509C128.678 182.457 135.099 184.06 137.826 180.406C139.898 177.633 139 173.771 136.678 171.459C135.174 169.969 133.245 169.533 131.323 169.751C131.923 169.151 131.295 167.85 130.416 168.241C128.527 169.086 126.744 170.618 125.656 172.417C125.593 172.475 125.521 172.523 125.46 172.578ZM133.996 173.17C135.489 174.243 136.158 176.226 135.645 177.981C134.931 180.409 131.057 179.155 129.646 178.492C127.951 177.694 126.972 176.154 127.284 174.282C127.363 173.814 127.535 173.39 127.741 172.99C129.828 172.286 132.089 171.8 133.996 173.17Z" fill="url(#paint35_linear_327_144)"/>
<path id="Vector_37" d="M115.185 193.89C111.725 194.576 107.461 197.158 107.764 201.102C107.143 202.635 106.156 203.62 107.63 205.356C107.956 205.742 108.565 205.79 109.015 205.68C114.39 204.376 117.955 201.264 117.302 195.403C117.177 194.283 116.272 193.678 115.185 193.89ZM109.404 202.515C109.477 202.203 109.562 201.888 109.659 201.58C110.278 200.85 110.797 200.055 111.427 199.294C112.142 198.431 113.078 197.944 114.081 197.594C114.01 198.649 113.72 199.638 112.907 200.526C112.038 201.468 110.682 202.049 109.404 202.515Z" fill="url(#paint36_linear_327_144)"/>
<path id="Vector_38" d="M120.738 211.401C121.456 211.088 122.115 210.659 122.784 210.249C122.764 210.878 122.847 211.469 122.755 212.166C122.627 213.125 124.014 213.794 124.448 212.785C124.745 212.094 125.264 211.651 125.518 210.965C125.879 210 126.401 209.222 127.091 208.461C128.01 207.459 127.283 205.677 125.861 205.771C122.875 205.972 120.744 207.653 119.724 210.459C119.53 210.996 120.215 211.634 120.738 211.401Z" fill="url(#paint37_linear_327_144)"/>
<path id="Vector_39" d="M109.367 184.737C108.789 185.621 109.218 186.723 109.604 187.573C109.742 187.882 110.159 188.051 110.473 188.038C112.127 187.973 114.809 187.925 115.474 186.007C115.898 184.775 115.041 183.914 114.438 182.97C114.242 182.662 113.666 182.604 113.52 183C113.294 183.601 113.357 184.21 113.471 184.829C113.659 185.856 112.282 186.011 111.237 186.049C111.203 184.995 112.548 184.153 112.931 183.12C113.329 182.046 111.762 181.181 111.319 182.279C110.914 183.286 109.949 183.839 109.367 184.737Z" fill="url(#paint38_linear_327_144)"/>
<path id="Vector_40" d="M93.6247 193.218C95.0653 192.825 96.3204 191.955 97.7666 191.587C99.1107 191.248 99.8775 192.674 100.348 193.93C99.8605 194.135 99.3835 194.358 98.8832 194.527C98.7838 194.564 98.7597 194.565 98.6884 194.587C98.6817 194.067 98.7922 193.47 98.7826 193.003C98.7512 191.668 96.7187 191.751 96.7209 193.077C96.7214 194.281 95.85 195.754 96.8687 196.775C98.3004 198.202 101.085 196.685 102.523 196.086C103.223 195.797 103.741 195.103 103.474 194.314C102.632 191.785 101.381 189.058 98.4193 188.796C96.2471 188.6 93.9466 190.633 92.8438 192.275C92.5026 192.781 93.1208 193.351 93.6247 193.218Z" fill="url(#paint39_linear_327_144)"/>
</g>
<g id="Group_7">
<path id="Vector_41" d="M227.777 307.729C226.93 308.311 226.434 309.334 225.758 310.087C225.577 310.287 225.623 310.533 225.766 310.699C225.751 310.935 225.84 311.182 225.993 311.364C226.242 311.656 226.495 311.944 226.747 312.229C227.075 312.603 227.704 312.51 228.015 312.185C229.071 311.088 230.11 309.979 231.157 308.874C231.657 308.344 231.353 307.493 230.673 307.32C229.636 307.054 228.676 307.11 227.777 307.729Z" fill="url(#paint40_linear_327_144)"/>
<path id="Vector_42" d="M230.682 314.183C231.417 314.568 232.149 314.962 232.97 315.127C234.032 315.334 235.139 315.123 236.188 314.948C236.864 314.837 237.017 313.838 236.541 313.432C235.375 312.446 234.306 312.849 232.979 312.908C233.283 312.673 233.578 312.431 233.826 312.135C234.218 311.675 233.669 310.93 233.133 311.29C232.248 311.878 231.287 312.19 230.461 312.901C230.049 313.254 230.25 313.961 230.682 314.183Z" fill="url(#paint41_linear_327_144)"/>
<path id="Vector_43" d="M227.318 295.96C227.243 296.034 227.217 296.125 227.215 296.215C226.538 297.569 226.509 299.118 227.735 300.516C229.432 302.453 233.652 303.506 235.445 301.105C236.807 299.283 236.216 296.745 234.69 295.225C233.702 294.246 232.434 293.959 231.171 294.102C231.565 293.708 231.152 292.853 230.575 293.111C229.333 293.666 228.161 294.673 227.446 295.855C227.405 295.893 227.358 295.924 227.318 295.96ZM232.927 296.349C233.909 297.055 234.349 298.358 234.012 299.511C233.542 301.107 230.996 300.283 230.069 299.847C228.955 299.323 228.311 298.31 228.516 297.08C228.568 296.773 228.681 296.494 228.817 296.231C230.188 295.769 231.674 295.449 232.927 296.349Z" fill="url(#paint42_linear_327_144)"/>
<path id="Vector_44" d="M220.565 309.966C218.291 310.417 215.489 312.114 215.688 314.706C215.28 315.713 214.631 316.361 215.6 317.502C215.814 317.756 216.214 317.787 216.51 317.715C220.042 316.858 222.386 314.813 221.956 310.961C221.874 310.225 221.28 309.827 220.565 309.966ZM216.766 315.635C216.814 315.43 216.87 315.223 216.933 315.02C217.34 314.541 217.681 314.018 218.095 313.518C218.565 312.951 219.18 312.631 219.839 312.401C219.793 313.094 219.602 313.744 219.068 314.327C218.497 314.947 217.606 315.329 216.766 315.635Z" fill="url(#paint43_linear_327_144)"/>
<path id="Vector_45" d="M224.214 321.475C224.687 321.269 225.12 320.987 225.56 320.717C225.546 321.131 225.601 321.52 225.54 321.977C225.456 322.607 226.368 323.047 226.653 322.384C226.848 321.93 227.189 321.639 227.356 321.188C227.593 320.554 227.936 320.042 228.39 319.542C228.994 318.884 228.516 317.713 227.581 317.775C225.619 317.907 224.219 319.012 223.549 320.856C223.421 321.209 223.871 321.628 224.214 321.475Z" fill="url(#paint44_linear_327_144)"/>
<path id="Vector_46" d="M216.742 303.951C216.362 304.533 216.644 305.257 216.898 305.815C216.988 306.018 217.262 306.13 217.468 306.121C218.555 306.078 220.318 306.046 220.755 304.786C221.034 303.976 220.471 303.41 220.074 302.79C219.946 302.588 219.567 302.549 219.471 302.81C219.323 303.204 219.364 303.605 219.439 304.012C219.562 304.687 218.657 304.789 217.97 304.813C217.948 304.121 218.832 303.567 219.084 302.888C219.346 302.183 218.315 301.615 218.025 302.336C217.758 302.998 217.124 303.361 216.742 303.951Z" fill="url(#paint45_linear_327_144)"/>
<path id="Vector_47" d="M206.396 309.525C207.343 309.267 208.168 308.695 209.118 308.453C210.001 308.23 210.505 309.167 210.814 309.993C210.494 310.127 210.181 310.274 209.852 310.385C209.786 310.41 209.771 310.41 209.724 310.425C209.72 310.083 209.792 309.691 209.786 309.384C209.765 308.507 208.429 308.561 208.431 309.432C208.431 310.223 207.858 311.191 208.528 311.862C209.469 312.801 211.299 311.803 212.244 311.41C212.704 311.22 213.044 310.763 212.869 310.245C212.315 308.583 211.494 306.791 209.547 306.618C208.12 306.49 206.608 307.826 205.883 308.905C205.658 309.238 206.065 309.612 206.396 309.525Z" fill="url(#paint46_linear_327_144)"/>
</g>
</g>
</g>
</g>
<defs>
<linearGradient id="paint0_linear_327_144" x1="110.336" y1="285.722" x2="110.336" y2="290.768" gradientUnits="userSpaceOnUse">
<stop stop-color="#EFC207" stop-opacity="0.52"/>
<stop offset="1" stop-color="#536976"/>
</linearGradient>
<linearGradient id="paint1_linear_327_144" x1="131.467" y1="255.822" x2="131.467" y2="285.401" gradientUnits="userSpaceOnUse">
<stop stop-color="#EFC207" stop-opacity="0.52"/>
<stop offset="1" stop-color="#536976"/>
</linearGradient>
<linearGradient id="paint2_linear_327_144" x1="130.874" y1="263.459" x2="130.874" y2="285.438" gradientUnits="userSpaceOnUse">
<stop stop-color="#EFC207" stop-opacity="0.52"/>
<stop offset="1" stop-color="#536976"/>
</linearGradient>
<linearGradient id="paint3_linear_327_144" x1="158.307" y1="256.486" x2="158.307" y2="278.652" gradientUnits="userSpaceOnUse">
<stop stop-color="#EFC207" stop-opacity="0.52"/>
<stop offset="1" stop-color="#536976"/>
</linearGradient>
<linearGradient id="paint4_linear_327_144" x1="170.008" y1="254.077" x2="170.008" y2="264.38" gradientUnits="userSpaceOnUse">
<stop stop-color="#EFC207" stop-opacity="0.52"/>
<stop offset="1" stop-color="#536976"/>
</linearGradient>
<linearGradient id="paint5_linear_327_144" x1="181.058" y1="251.099" x2="181.058" y2="255.936" gradientUnits="userSpaceOnUse">
<stop stop-color="#EFC207" stop-opacity="0.52"/>
<stop offset="1" stop-color="#536976"/>
</linearGradient>
<linearGradient id="paint6_linear_327_144" x1="181.396" y1="295.137" x2="181.396" y2="296.883" gradientUnits="userSpaceOnUse">
<stop stop-color="#EFC207" stop-opacity="0.52"/>
<stop offset="1" stop-color="#536976"/>
</linearGradient>
<linearGradient id="paint7_linear_327_144" x1="183.67" y1="273.036" x2="183.67" y2="279.247" gradientUnits="userSpaceOnUse">
<stop stop-color="#EFC207" stop-opacity="0.52"/>
<stop offset="1" stop-color="#536976"/>
</linearGradient>
<linearGradient id="paint8_linear_327_144" x1="189.041" y1="277.005" x2="189.041" y2="279.262" gradientUnits="userSpaceOnUse">
<stop stop-color="#EFC207" stop-opacity="0.52"/>
<stop offset="1" stop-color="#536976"/>
</linearGradient>
<linearGradient id="paint9_linear_327_144" x1="170.059" y1="332.331" x2="170.059" y2="384.1" gradientUnits="userSpaceOnUse">
<stop stop-color="#EFC207" stop-opacity="0.52"/>
<stop offset="1" stop-color="#536976"/>
</linearGradient>
<linearGradient id="paint10_linear_327_144" x1="50.0741" y1="332.555" x2="50.0741" y2="353.055" gradientUnits="userSpaceOnUse">
<stop stop-color="#EFC207" stop-opacity="0.52"/>
<stop offset="1" stop-color="#536976"/>
</linearGradient>
<linearGradient id="paint11_linear_327_144" x1="129.139" y1="132.748" x2="129.139" y2="386" gradientUnits="userSpaceOnUse">
<stop stop-color="#EFC207" stop-opacity="0.52"/>
<stop offset="1" stop-color="#536976"/>
</linearGradient>
<linearGradient id="paint12_linear_327_144" x1="32.8975" y1="342.106" x2="32.8975" y2="357.186" gradientUnits="userSpaceOnUse">
<stop stop-color="#EFC207" stop-opacity="0.52"/>
<stop offset="1" stop-color="#536976"/>
</linearGradient>
<linearGradient id="paint13_linear_327_144" x1="140.24" y1="307.888" x2="140.24" y2="321.607" gradientUnits="userSpaceOnUse">
<stop stop-color="#EFC207" stop-opacity="0.52"/>
<stop offset="1" stop-color="#536976"/>
</linearGradient>
<linearGradient id="paint14_linear_327_144" x1="93.2665" y1="232.173" x2="93.2665" y2="251.82" gradientUnits="userSpaceOnUse">
<stop stop-color="#EFC207" stop-opacity="0.52"/>
<stop offset="1" stop-color="#536976"/>
</linearGradient>
<linearGradient id="paint15_linear_327_144" x1="34.5738" y1="52.1945" x2="34.5738" y2="56.1" gradientUnits="userSpaceOnUse">
<stop stop-color="#EFC207" stop-opacity="0.52"/>
<stop offset="1" stop-color="#536976"/>
</linearGradient>
<linearGradient id="paint16_linear_327_144" x1="36.3869" y1="47.5153" x2="36.3869" y2="52.3843" gradientUnits="userSpaceOnUse">
<stop stop-color="#EFC207" stop-opacity="0.52"/>
<stop offset="1" stop-color="#536976"/>
</linearGradient>
<linearGradient id="paint17_linear_327_144" x1="38.801" y1="58.4523" x2="38.801" y2="62.9538" gradientUnits="userSpaceOnUse">
<stop stop-color="#EFC207" stop-opacity="0.52"/>
<stop offset="1" stop-color="#536976"/>
</linearGradient>
<linearGradient id="paint18_linear_327_144" x1="42.3387" y1="52.7931" x2="42.3387" y2="56.2407" gradientUnits="userSpaceOnUse">
<stop stop-color="#EFC207" stop-opacity="0.52"/>
<stop offset="1" stop-color="#536976"/>
</linearGradient>
<linearGradient id="paint19_linear_327_144" x1="36.7897" y1="65.2663" x2="36.7897" y2="70.5963" gradientUnits="userSpaceOnUse">
<stop stop-color="#EFC207" stop-opacity="0.52"/>
<stop offset="1" stop-color="#536976"/>
</linearGradient>
<linearGradient id="paint20_linear_327_144" x1="56.1391" y1="0" x2="56.1391" y2="160.274" gradientUnits="userSpaceOnUse">
<stop stop-color="#EFC207" stop-opacity="0.52"/>
<stop offset="1" stop-color="#536976"/>
</linearGradient>
<linearGradient id="paint21_linear_327_144" x1="78.2087" y1="27.2146" x2="78.2087" y2="32.6337" gradientUnits="userSpaceOnUse">
<stop stop-color="#EFC207" stop-opacity="0.52"/>
<stop offset="1" stop-color="#536976"/>
</linearGradient>
<linearGradient id="paint22_linear_327_144" x1="86.2605" y1="27.6503" x2="86.2605" y2="34.6235" gradientUnits="userSpaceOnUse">
<stop stop-color="#EFC207" stop-opacity="0.52"/>
<stop offset="1" stop-color="#536976"/>
</linearGradient>
<linearGradient id="paint23_linear_327_144" x1="88.9659" y1="35.5712" x2="88.9659" y2="38.2781" gradientUnits="userSpaceOnUse">
<stop stop-color="#EFC207" stop-opacity="0.52"/>
<stop offset="1" stop-color="#536976"/>
</linearGradient>
<linearGradient id="paint24_linear_327_144" x1="89.163" y1="40.5682" x2="89.163" y2="44.3363" gradientUnits="userSpaceOnUse">
<stop stop-color="#EFC207" stop-opacity="0.52"/>
<stop offset="1" stop-color="#536976"/>
</linearGradient>
<linearGradient id="paint25_linear_327_144" x1="95.5312" y1="35.5116" x2="95.5312" y2="41.3206" gradientUnits="userSpaceOnUse">
<stop stop-color="#EFC207" stop-opacity="0.52"/>
<stop offset="1" stop-color="#536976"/>
</linearGradient>
<linearGradient id="paint26_linear_327_144" x1="298.854" y1="299.884" x2="298.854" y2="346.03" gradientUnits="userSpaceOnUse">
<stop stop-color="#EFC207" stop-opacity="0.52"/>
<stop offset="1" stop-color="#536976"/>
</linearGradient>
<linearGradient id="paint27_linear_327_144" x1="297.419" y1="313.704" x2="297.419" y2="333.584" gradientUnits="userSpaceOnUse">
<stop stop-color="#EFC207" stop-opacity="0.52"/>
<stop offset="1" stop-color="#536976"/>
</linearGradient>
<linearGradient id="paint28_linear_327_144" x1="287.51" y1="316.211" x2="287.51" y2="328.653" gradientUnits="userSpaceOnUse">
<stop stop-color="#EFC207" stop-opacity="0.52"/>
<stop offset="1" stop-color="#536976"/>
</linearGradient>
<linearGradient id="paint29_linear_327_144" x1="275.345" y1="353.811" x2="275.345" y2="375.73" gradientUnits="userSpaceOnUse">
<stop stop-color="#EFC207" stop-opacity="0.52"/>
<stop offset="1" stop-color="#536976"/>
</linearGradient>
<linearGradient id="paint30_linear_327_144" x1="283.189" y1="333.18" x2="283.189" y2="385.726" gradientUnits="userSpaceOnUse">
<stop stop-color="#EFC207" stop-opacity="0.52"/>
<stop offset="1" stop-color="#536976"/>
</linearGradient>
<linearGradient id="paint31_linear_327_144" x1="254.344" y1="334.877" x2="254.344" y2="344.437" gradientUnits="userSpaceOnUse">
<stop stop-color="#EFC207" stop-opacity="0.52"/>
<stop offset="1" stop-color="#536976"/>
</linearGradient>
<linearGradient id="paint32_linear_327_144" x1="256.871" y1="327.544" x2="256.871" y2="336.432" gradientUnits="userSpaceOnUse">
<stop stop-color="#EFC207" stop-opacity="0.52"/>
<stop offset="1" stop-color="#536976"/>
</linearGradient>
<linearGradient id="paint33_linear_327_144" x1="127.293" y1="189.633" x2="127.293" y2="197.702" gradientUnits="userSpaceOnUse">
<stop stop-color="#EFC207" stop-opacity="0.52"/>
<stop offset="1" stop-color="#536976"/>
</linearGradient>
<linearGradient id="paint34_linear_327_144" x1="134.908" y1="195.759" x2="134.908" y2="201.873" gradientUnits="userSpaceOnUse">
<stop stop-color="#EFC207" stop-opacity="0.52"/>
<stop offset="1" stop-color="#536976"/>
</linearGradient>
<linearGradient id="paint35_linear_327_144" x1="131.791" y1="168.169" x2="131.791" y2="182.519" gradientUnits="userSpaceOnUse">
<stop stop-color="#EFC207" stop-opacity="0.52"/>
<stop offset="1" stop-color="#536976"/>
</linearGradient>
<linearGradient id="paint36_linear_327_144" x1="112.12" y1="193.848" x2="112.12" y2="205.731" gradientUnits="userSpaceOnUse">
<stop stop-color="#EFC207" stop-opacity="0.52"/>
<stop offset="1" stop-color="#536976"/>
</linearGradient>
<linearGradient id="paint37_linear_327_144" x1="123.595" y1="205.767" x2="123.595" y2="213.287" gradientUnits="userSpaceOnUse">
<stop stop-color="#EFC207" stop-opacity="0.52"/>
<stop offset="1" stop-color="#536976"/>
</linearGradient>
<linearGradient id="paint38_linear_327_144" x1="112.336" y1="181.77" x2="112.336" y2="188.039" gradientUnits="userSpaceOnUse">
<stop stop-color="#EFC207" stop-opacity="0.52"/>
<stop offset="1" stop-color="#536976"/>
</linearGradient>
<linearGradient id="paint39_linear_327_144" x1="98.1455" y1="188.783" x2="98.1455" y2="197.369" gradientUnits="userSpaceOnUse">
<stop stop-color="#EFC207" stop-opacity="0.52"/>
<stop offset="1" stop-color="#536976"/>
</linearGradient>
<linearGradient id="paint40_linear_327_144" x1="228.522" y1="307.169" x2="228.522" y2="312.472" gradientUnits="userSpaceOnUse">
<stop stop-color="#EFC207" stop-opacity="0.52"/>
<stop offset="1" stop-color="#536976"/>
</linearGradient>
<linearGradient id="paint41_linear_327_144" x1="233.527" y1="311.195" x2="233.527" y2="315.213" gradientUnits="userSpaceOnUse">
<stop stop-color="#EFC207" stop-opacity="0.52"/>
<stop offset="1" stop-color="#536976"/>
</linearGradient>
<linearGradient id="paint42_linear_327_144" x1="231.479" y1="293.063" x2="231.479" y2="302.493" gradientUnits="userSpaceOnUse">
<stop stop-color="#EFC207" stop-opacity="0.52"/>
<stop offset="1" stop-color="#536976"/>
</linearGradient>
<linearGradient id="paint43_linear_327_144" x1="218.551" y1="309.939" x2="218.551" y2="317.748" gradientUnits="userSpaceOnUse">
<stop stop-color="#EFC207" stop-opacity="0.52"/>
<stop offset="1" stop-color="#536976"/>
</linearGradient>
<linearGradient id="paint44_linear_327_144" x1="226.092" y1="317.772" x2="226.092" y2="322.714" gradientUnits="userSpaceOnUse">
<stop stop-color="#EFC207" stop-opacity="0.52"/>
<stop offset="1" stop-color="#536976"/>
</linearGradient>
<linearGradient id="paint45_linear_327_144" x1="218.693" y1="302.002" x2="218.693" y2="306.121" gradientUnits="userSpaceOnUse">
<stop stop-color="#EFC207" stop-opacity="0.52"/>
<stop offset="1" stop-color="#536976"/>
</linearGradient>
<linearGradient id="paint46_linear_327_144" x1="209.367" y1="306.61" x2="209.367" y2="312.253" gradientUnits="userSpaceOnUse">
<stop stop-color="#EFC207" stop-opacity="0.52"/>
<stop offset="1" stop-color="#536976"/>
</linearGradient>
</defs>
</svg>
