<svg width="386" height="421" viewBox="0 0 386 421" fill="none" xmlns="http://www.w3.org/2000/svg">
<g id="Group">
<g id="Group_2">
<g id="Group_3">
<g id="Group_4">
<path id="Vector" d="M120.524 338.73C115.319 336.548 109.74 335.605 104.481 333.667C104.064 333.513 104.119 332.848 104.6 332.871C110.24 333.129 115.723 335.868 120.751 338.216C121.04 338.351 120.818 338.853 120.524 338.73Z" fill="url(#paint0_linear_22_308)"/>
<path id="Vector_2" d="M147.135 332.204C141.89 319.337 137.008 308.114 126.346 298.766C125.966 298.433 126.482 297.848 126.893 298.095C138.565 305.099 143.462 319.7 148.069 331.703C148.307 332.326 147.395 332.841 147.135 332.204Z" fill="url(#paint1_linear_22_308)"/>
<path id="Vector_3" d="M146.432 332.422C139.549 323.964 135.896 313.963 126.152 308.08C125.465 307.665 126.104 306.629 126.8 307.021C136.573 312.538 140.885 323.153 147.026 331.996C147.264 332.338 146.694 332.744 146.432 332.422Z" fill="url(#paint2_linear_22_308)"/>
<path id="Vector_4" d="M161.219 324.174C165.271 315.665 169.422 306.487 175.127 298.945C175.361 298.635 175.802 298.908 175.637 299.256C171.579 307.856 166.463 316.231 161.73 324.486C161.534 324.827 161.057 324.514 161.219 324.174Z" fill="url(#paint3_linear_22_308)"/>
<path id="Vector_5" d="M186.943 296.025C187.223 295.911 187.566 296.28 187.28 296.493C183.051 299.675 178.597 302.306 177.244 307.822C177.164 308.149 176.668 308.003 176.743 307.677C177.999 302.248 181.782 298.112 186.943 296.025Z" fill="url(#paint4_linear_22_308)"/>
<path id="Vector_6" d="M197.606 292.544C197.913 292.463 198.025 292.933 197.721 293.021C195.169 293.741 193.656 295.818 192.461 298.035C192.306 298.324 191.927 298.098 191.975 297.821C192.479 294.829 194.856 293.255 197.606 292.544Z" fill="url(#paint5_linear_22_308)"/>
<path id="Vector_7" d="M200.746 345.532C197.036 344.536 193.61 345.471 189.916 345.87C189.559 345.91 189.516 345.406 189.766 345.251C193.086 343.196 197.439 343.606 200.883 345.061C201.168 345.18 201.06 345.616 200.746 345.532Z" fill="url(#paint6_linear_22_308)"/>
<path id="Vector_8" d="M192.56 325.326C192.149 325.327 192.035 324.765 192.377 324.575C194.096 323.637 196.019 323.127 197.772 322.23C199.774 321.198 201.572 319.848 203.119 318.217C203.485 317.83 204.008 318.419 203.673 318.809C201.021 321.923 196.874 325.299 192.56 325.326Z" fill="url(#paint7_linear_22_308)"/>
<path id="Vector_9" d="M200.031 324.679C201.144 324.089 202.446 323.837 203.666 323.57C205.181 323.238 206.687 322.943 208.223 322.72C208.646 322.658 208.783 323.223 208.378 323.36C207.055 323.812 205.732 324.204 204.382 324.559C203.03 324.916 201.604 325.366 200.193 325.343C199.84 325.338 199.719 324.845 200.031 324.679Z" fill="url(#paint8_linear_22_308)"/>
<path id="Vector_10" d="M113.912 419.074C130.557 422.353 143.999 417.351 159.554 412.175C167.994 409.364 177.645 408.802 186.761 409.844C171.393 400.258 148.868 406.754 131.638 404.374C117.769 402.459 99.9055 400.064 90.6022 388.372C90.2204 387.89 90.605 386.935 91.305 387.224C103.955 392.433 117.903 389.009 131.185 390.451C144.507 391.9 157.492 396.386 170.418 399.698C170.966 399.839 170.877 400.461 170.49 400.673C175.57 401.792 180.515 403.416 185.233 405.857C185.67 406.084 185.268 406.695 184.841 406.498C163.509 396.609 138.605 404.255 117.625 394.718C117.072 394.468 117.508 393.698 118.029 393.801C130.904 396.367 143.413 397.634 156.483 398.681C158.304 398.828 160.112 399.018 161.913 399.239C146.231 396.002 131.197 391.188 114.781 391.861C107.522 392.161 100.634 392.334 93.7072 389.935C90.0775 388.678 96.6771 392.191 97.6952 392.875C101.778 395.627 106.72 397.153 111.389 398.582C124.678 402.658 138.979 404.321 152.829 404.101C164.598 403.913 178.587 402.18 188.381 410.078C190.821 410.411 193.227 410.828 195.539 411.376C195.999 411.486 195.86 412.146 195.419 412.159C188.38 412.355 181.393 411.175 174.331 411.358C166.319 411.565 159.03 414.249 151.616 416.966C150.053 417.539 148.504 418.072 146.962 418.557C164.266 418.336 181.153 412.522 198.443 414.133C198.734 414.162 198.733 414.611 198.432 414.595C180.703 413.595 163.368 421.953 145.74 419.361C145.531 419.331 145.424 419.173 145.398 419.011C137.097 421.483 128.984 422.618 120.407 421.936C135.775 427.761 151.796 427.031 168.056 423.314C180.374 420.502 191.918 413.266 204.368 415.975C204.366 415.972 204.366 415.972 204.363 415.97C204.146 415.823 204.293 415.408 204.557 415.525C205.785 416.063 207.008 416.599 208.234 417.136C208.426 417.21 208.617 417.26 208.81 417.34C208.857 417.359 208.879 417.398 208.907 417.431C219.523 422.085 230.077 426.723 240.93 430.903C252.169 435.229 263.895 439.742 273.651 446.919C273.971 447.153 273.687 447.624 273.331 447.44C261.468 441.294 249.637 435.76 237.145 430.951C226.811 426.971 215.848 423.242 206.423 417.282C196.873 415.22 189.132 417.994 180.065 421.697C172.642 424.732 164.702 426.421 156.806 427.687C141.871 430.085 126.369 428.389 113.104 420.91C112.051 420.317 112.845 418.864 113.912 419.074Z" fill="url(#paint9_linear_22_308)"/>
<path id="Vector_11" d="M36.7129 410.986C33.8266 402.215 42.3009 393.111 48.0079 387.524C48.3049 387.233 48.7381 387.697 48.4487 387.994C41.921 394.683 38.0549 401.483 37.5907 410.891C37.5637 411.414 36.8677 411.459 36.7129 410.986Z" fill="url(#paint10_linear_22_308)"/>
<path id="Vector_12" d="M33.1616 426.725C33.594 426.495 33.823 425.982 33.7062 425.506C32.6143 421.016 35.386 417.134 38.2166 413.812C42.5519 416.135 47.2662 416.119 49.8719 410.664C52.2045 405.782 53.6246 401.805 58.6944 399.177C62.0179 397.455 64.2127 395.424 65.8932 392.054C68.701 386.427 67.197 379.623 67.9119 373.486C68.3157 373.683 68.793 373.683 69.1283 373.288C78.1906 362.589 89.5275 364.709 101.294 365.789C90.5799 369.146 81.584 377.853 73.3357 385.187C72.5939 385.846 73.3385 386.818 74.1638 386.722C89.1672 384.979 101.111 368.978 116.93 373.525C117.042 373.556 117.125 373.529 117.207 373.498C123.734 382.474 136.042 387.356 145.991 390.864C163.752 397.125 181.409 403.181 199.006 409.951C199.18 410.018 199.321 409.985 199.433 409.907C201.132 411.009 202.839 412.092 204.557 413.141C204.881 413.34 205.298 412.861 204.989 412.609C198.786 407.562 192.013 403.114 185.552 398.313C185.773 398.224 185.92 397.939 185.706 397.747C182.257 394.662 178.5 391.812 174.563 389.193C172.49 387.202 170.525 385.096 168.709 382.826C164.772 377.905 161.773 372.247 156.637 368.396C154.705 366.946 152.716 365.582 150.728 364.216C154.123 365.166 157.738 365.441 161.562 364.881C161.906 365.039 162.243 365.214 162.585 365.353C162.948 365.501 163.245 365.019 163.053 364.722C163.288 364.709 163.498 364.458 163.358 364.217C163.268 364.068 163.188 363.929 163.102 363.782C163.09 363.757 163.073 363.733 163.057 363.706C163.013 363.631 162.971 363.561 162.927 363.487C163.113 363.586 163.334 363.6 163.523 363.466C166.976 363.423 170.396 363.908 173.798 364.167C171.112 366.906 167.258 369.234 168.063 373.599C169.004 378.721 171.641 382.323 175.359 385.939C186.066 396.363 197.311 407.453 210.266 415.094C210.451 415.203 210.607 415.134 210.695 415.01C233.948 428.897 261.238 434.866 284.264 449.637C284.642 449.879 285.13 449.311 284.771 449.013C262.525 430.521 232.107 426.939 207.749 412.058C207.722 411.993 207.695 411.927 207.629 411.881C202.127 408.089 198.146 403.333 199.114 396.204C199.159 395.869 198.578 395.781 198.527 396.114C198.063 399.162 198.352 402.182 199.4 404.833C195.13 398.823 193.724 392.605 191.976 384.982C191.354 382.26 190.698 379.428 189.591 376.824C190.488 377.502 191.382 378.188 192.294 378.841C201.749 385.818 200.357 396.057 206.024 404.99C209.807 410.951 214.764 414.36 220.901 417.775C221.31 418.003 221.662 417.421 221.278 417.162C216.086 413.641 210.264 410.131 207.471 404.211C205.061 399.098 203.787 393.705 201.972 388.384C199.424 380.913 193.539 377.952 187.821 373.215C187.129 372.644 186.027 373.281 186.483 374.173C191.099 383.189 190.833 394.29 195.817 402.768C191.249 399.074 186.785 395.254 182.597 391.064C179.057 387.521 174.564 383.878 172.089 379.455C168.569 373.166 172.405 369.038 175.241 364.242C178.512 364.406 181.761 364.256 184.993 363.04C189.367 361.396 193.79 359.076 198.55 358.983C201.831 358.92 204.976 359.979 208.211 359.96C214.106 359.923 222.229 355.729 220.386 348.582C219.6 345.532 217.985 342.84 215.853 340.526C221.416 338.113 230.799 334 232.308 327.989C233.772 322.128 231.962 318.584 226.014 318.022C217.23 317.189 224.461 313.638 221.643 310.639C219.445 308.297 216.785 310.668 214.961 306.942C212.516 301.946 205.646 299.927 200.964 302.975C200.579 303.223 200.774 303.934 201.266 303.769C206.864 301.894 211.119 304.126 213.506 309.404C209.042 310.03 204.957 312.186 201.171 314.605C197.026 317.248 191.826 320.222 188.823 324.173C188.622 324.434 188.98 324.745 189.24 324.614C193.72 322.334 197.443 318.316 201.722 315.63C205.465 313.279 209.46 311.029 213.814 310.063C214.194 310.968 214.532 311.68 215.629 311.996C218.688 312.876 219.783 312.098 219.063 315.551C218.917 316.252 219.02 317.334 219.546 317.864C220.946 319.275 222.089 319.695 224.138 320.062C225.233 320.258 226.347 320.12 227.441 320.262C231.654 324.765 231.883 328.482 228.138 331.42C224.098 334.753 218.97 336.394 214.914 339.562C206.375 331.326 190.75 328.81 181.551 335.365C181.407 335.463 181.328 335.593 181.274 335.728C177.826 334.955 173.906 334.628 171.906 332.045C166.941 325.637 162.751 328.754 158.175 331.524C158.343 319.616 164.323 309.814 166.955 298.445C167.037 298.095 166.508 297.813 166.343 298.177C161.805 308.18 156.462 320.718 157.394 331.988C156.092 332.749 154.755 333.437 153.355 333.833C150.307 317.259 151.024 299.657 155.084 283.309C155.362 282.182 156.621 273.539 158.934 274.597C161.595 275.814 164.319 276.958 167.064 277.978C171.391 279.583 187.407 280.884 188.594 284.975C188.712 285.38 189.068 285.727 189.515 285.715C202.642 285.38 205.45 296.294 197.132 305.228C194.144 308.44 191.003 311.414 187.599 314.19C181.582 319.097 175.392 323.771 170.49 329.836C170.088 330.331 170.914 330.977 171.35 330.536C180.399 321.405 193.043 314.28 200.336 303.612C203.957 298.315 205.704 292.684 201.407 287.345C199.57 285.065 195.336 283.859 192.515 283.823C190.57 283.796 188.234 280.132 186.517 279.277C183.666 277.856 179.801 279.02 176.797 278.601C170.199 277.683 163.627 274.407 157.635 271.683C156.996 271.393 156.296 271.583 156.057 272.296C153.301 280.573 151.17 289.577 150.093 298.72C149.064 292.99 147.262 287.428 144.436 282.753C141.579 278.028 138.696 271.78 132.284 271.905C130.448 271.94 128.444 273.975 127.771 275.486C126.934 277.369 124.155 275.248 122.744 275.423C115.794 276.284 112.519 283.831 105.889 285.38C105.093 285.566 104.742 286.321 104.853 287.072C105.612 288.403 105.536 289.558 104.63 290.534C103.986 290.442 103.519 291.003 103.299 291.514C100.601 297.781 102.326 303.783 106.3 308.394C102.862 307.231 99.3779 306.631 95.9351 306.886C95.0297 306.953 94.0046 307.282 93.0039 307.77C93.25 301.639 93.6008 295.535 95.97 289.757C97.9426 284.95 100.382 280.313 102.14 275.418C104.829 267.934 106.603 260.574 103.459 252.996C103.252 252.495 102.402 252.596 102.3 253.12C100.422 262.648 90.9715 268.713 87.8783 277.999C87.4267 279.356 87.0225 280.713 86.6494 282.07C86.9678 275.951 87.3756 269.841 86.9919 264.007C86.0054 249.066 83.1863 234.391 80.5612 219.672C80.3668 218.585 78.568 218.771 78.6324 219.882C79.6715 237.72 73.6512 255.153 75.1233 272.995C76.4054 288.527 79.8637 304.187 88.6546 317.308C89.0328 317.871 89.7975 317.615 89.8788 317.09C90.5983 318.101 91.4702 319.065 92.2594 319.947C90.6543 319.952 89.0524 319.97 87.4322 319.878C87.1745 319.866 86.9508 319.929 86.7568 320.036C81.9053 314.113 75.2353 309.955 68.7607 305.935C68.6594 302.276 67.637 298.837 64.3796 295.509C62.086 293.166 58.1768 287.528 54.5884 287.019C50.6925 286.465 46.9155 284.114 43.1148 283.945C41.0884 283.855 39.0102 284.862 36.9454 286.182C23.1762 280.039 11.4647 272.205 -0.970249 263.807C-1.27708 263.598 -1.65053 264.055 -1.38289 264.314C8.83152 274.09 22.7342 281.976 36.0931 286.746C31.9262 289.562 27.8494 293.226 24.4106 291.285C23.5634 290.805 22.6205 291.373 22.5375 292.308C22.5181 292.525 22.5049 292.747 22.4861 292.967C15.7103 289.617 9.81863 282.568 5.14895 277.146C1.88646 273.357 -1.40483 269.47 -4.13732 265.275C-4.65008 264.487 -8.41043 259.337 -6.60529 261.427C-6.20304 261.891 -5.45576 261.444 -5.58546 260.877C-6.05943 258.816 -5.30234 260.678 -3.82147 261.326C-1.89917 262.225 0.0621223 263.03 2.06574 263.731C5.91759 265.011 9.79375 266.157 13.7786 266.961C21.748 268.574 29.8861 269.59 37.7611 271.647C48.7912 274.528 57.6123 279.342 64.8561 288.267C69.681 294.207 73.9522 300.791 79.848 305.735C80.3717 306.177 81.0708 305.549 80.6319 305.001C77.6322 301.247 74.5674 297.052 71.2955 292.93C70.2183 289.416 68.9298 285.809 67.4205 282.225C70.9509 289.413 74.8785 296.387 79.3147 302.818C79.539 303.141 80.0461 302.891 79.8633 302.525C72.5138 287.954 64.2564 274.153 58.1644 258.965C58.1501 258.757 58.1372 258.547 58.1229 258.339C58.3839 258.791 58.5986 259.257 58.8886 259.703C59.121 260.059 59.6764 259.773 59.4778 259.387C58.8911 258.253 58.3956 257.113 57.9642 255.967C57.4691 247.745 57.3997 239.425 58.4773 231.261C59.7176 221.871 62.9742 212.607 63.416 203.138C64.2 186.361 58.2299 171.153 53.8605 155.23C53.5923 154.254 52.0803 154.612 52.3313 155.598C56.8168 173.322 45.8457 192.589 45.4987 210.572C45.3645 217.515 45.7354 224.726 46.7819 231.858C37.9161 219.781 40.1652 203.263 31.8921 190.911C24.3712 179.682 9.67266 172.853 6.35198 159.064C6.07591 157.915 4.32858 158.341 4.57506 159.491C8.12616 176.149 11.6933 192.47 21.3462 206.806C28.2869 217.116 36.7834 224.786 43.1857 234.527C43.6199 235.642 44.0723 236.747 44.4879 237.874C44.6348 238.275 45.1519 238.219 45.2505 237.892C47.0246 240.99 48.5845 244.309 49.7994 248.011C49.9068 248.341 50.3708 248.377 50.5219 248.122C52.3272 253.666 54.6796 258.982 57.6838 263.879C58.0451 264.47 59.1368 264.145 58.8774 263.424C58.4458 262.225 58.0202 261.033 57.5999 259.845C57.6762 259.86 57.7434 259.872 57.8223 259.854C59.699 264.818 61.7153 269.816 63.9212 274.765C59.9451 267.16 54.8904 260.092 48.6442 254.856C34.6152 243.097 17.2868 235.741 3.72294 223.388C-1.0304 219.062 -5.6223 214.46 -9.12049 209.02C-10.4139 207.12 -11.6032 205.157 -12.6873 203.131C-12.0611 203.651 -11.4519 204.189 -10.8308 204.716C6.11431 220.578 26.7777 231.999 44.4091 247.129C44.7837 247.451 45.3269 246.974 44.9797 246.595C32.9921 233.463 17.3533 224.457 2.82498 214.169C4.91794 215.121 7.12984 215.921 9.55588 216.579C29.497 221.989 37.938 235.258 49.9944 250.54C50.2758 250.897 50.8263 250.47 50.6241 250.089C44.5298 238.588 36.0163 226.442 24.292 220.092C18.7922 217.113 13.0208 215.988 7.15825 213.962C-1.49633 210.972 -7.28695 204.652 -14.6008 199.582C-15.4107 199.019 -16.2828 200.032 -15.9121 200.82C-6.99344 219.767 8.74746 231.107 26.1107 241.883C35.5659 247.752 46.5274 253.465 53.6568 262.198C60.7545 270.892 65.9939 280.876 70.0125 291.324C63.7082 283.568 56.5793 276.314 47.6093 273.057C29.9492 266.646 10.9366 266.698 -6.27887 258.692C-6.68053 258.504 -7.16175 258.734 -7.19388 259.166C-7.31869 259.026 -7.45937 258.875 -7.64374 258.706C-8.01817 258.36 -8.82836 258.645 -8.61342 259.228C-5.75651 266.96 0.102289 273.96 5.55688 280.003C9.89211 284.805 15.688 292.092 22.3803 294.375C22.0825 299.17 22.2575 304.173 23.4591 308.772C20.6759 304.871 17.5464 301.325 13.5539 300.175C10.3192 299.242 7.65964 299.534 4.68106 301.174C1.01162 303.198 3.18021 307.168 -1.94384 309.559C-2.59414 309.863 -2.84278 310.771 -2.49167 311.378C-0.0338831 314.324 -0.163789 317.637 -2.88295 321.318C-3.45939 321.584 -3.72605 322.438 -3.38395 322.978C-1.6615 325.696 7.72312 335.131 1.66976 338.009C1.01475 338.322 1.01906 339.128 1.40446 339.631C3.16316 341.936 5.2334 344.029 7.50975 345.91C3.36968 346.649 -0.303684 350.263 4.89169 354.227C3.81386 354.874 2.77776 355.592 1.72854 356.287C1.18796 356.648 0.780415 357.417 1.20011 358.043C8.66772 369.112 -5.66031 384.281 1.52007 395.689C3.27778 398.479 10.5011 396.945 12.8554 396.117C14.0024 395.713 15.0857 395.221 16.1406 394.696C11.9594 399.697 11.6878 407.14 14.3235 413.87C17.0063 420.73 24.507 431.364 33.1616 426.725ZM46.7443 233.27C46.8307 233.366 46.93 233.399 47.0266 233.403C47.2388 234.723 47.4721 236.038 47.7341 237.349C46.3816 234.454 44.6446 231.745 42.6886 229.154C37.3712 214.025 28.676 200.206 20.4833 186.485C20.246 186.087 19.628 186.415 19.8471 186.826C26.589 199.452 33.3867 211.821 39.1524 224.795C35.6229 220.705 31.7796 216.811 28.3896 212.779C21.0305 204.024 15.5415 194.51 12.2627 183.514C11.0693 179.516 9.9695 175.5 9.049 171.431C8.75354 170.149 8.47551 168.864 8.19297 167.579C14.7017 177.26 26.058 183.048 31.5112 193.649C37.9821 206.228 36.9419 222.437 46.7443 233.27ZM54.4754 198.845C58.3447 217.162 48.7712 239.007 56.9528 256.228C56.9843 256.631 57.0308 257.04 57.0678 257.445C57.0045 257.51 56.9622 257.592 57 257.693C57.0386 257.801 57.0827 257.909 57.123 258.015C57.1432 258.228 57.1612 258.439 57.1836 258.652C50.9278 240.85 46.1137 223.989 47.8276 204.507C49.0018 191.142 54.5222 178.08 54.861 164.635C56.1855 169.136 57.6015 173.624 58.7499 178.172C61.0462 187.259 62.7085 196.753 61.3352 206.135C59.0236 221.951 56.1259 236.174 56.7014 251.789C52.6454 234.198 62.9583 215.512 55.4353 198.479C55.1898 197.922 54.3578 198.289 54.4754 198.845ZM26.8266 316.395C27.5357 317.444 28.3436 318.436 29.2629 319.36C28.293 319.646 27.3715 320.037 26.5506 320.575C26.4222 320.385 26.0966 320.479 26.0619 320.727C26.0515 320.801 26.0505 320.875 26.0404 320.95C25.1647 321.629 24.4229 322.49 23.9082 323.605C21.6301 328.535 21.8619 333.645 23.1474 338.673C18.6043 333.834 15.18 328.474 11.4198 322.824C11.2113 322.508 10.7636 322.753 10.9072 323.099C13.5951 329.65 18.0241 336.493 23.7854 340.914C24.1964 342.222 24.6612 343.522 25.1616 344.81C19.4372 338.974 13.8878 333.342 9.03039 326.625C8.7796 326.277 8.32385 326.694 8.46277 327.033C11.668 334.821 19.3353 341.835 26.0515 346.91C27.177 349.485 28.5859 351.911 30.2371 354.132C25.2613 352.761 18.4356 350.674 13.1579 348.046C13.2927 347.899 13.335 347.669 13.1771 347.466C12.2897 346.338 10.8291 345.828 9.26708 345.78C5.85294 343.397 4.1011 340.687 5.90447 337.739C6.87669 336.151 6.6786 334.106 5.87665 332.49C4.78373 330.282 -1.03412 323.213 0.793936 322.507C2.39746 321.889 3.4022 319.05 3.05207 317.541C2.80363 316.465 0.520412 311.359 1.5908 310.851C2.33887 310.495 3.11104 309.717 3.45491 308.971C10.3429 294.048 20.0624 308.285 26.8266 316.395ZM66.83 306.154C66.8333 306.175 66.8314 306.196 66.8347 306.218C66.9869 308.255 66.8647 310.505 66.5376 313.15C66.3668 314.53 66.1507 315.9 65.9551 317.275C65.7933 317.503 65.7476 317.8 65.847 318.044C65.2474 322.168 64.6061 326.284 64.0808 330.414C63.1888 337.402 62.0615 347.212 66.6405 353.235C66.6358 353.282 66.6762 353.331 66.6926 353.383C66.6993 353.404 66.685 353.422 66.6965 353.446C66.7116 353.474 66.7344 353.502 66.7495 353.53C66.75 353.531 66.75 353.533 66.75 353.533C66.7508 353.533 66.7518 353.534 66.7518 353.534C67.4619 354.987 68.6341 356.305 70.036 357.314C68.2137 356.574 66.5541 355.595 65.1638 354.244C64.8465 353.94 64.4619 353.96 64.1653 354.132C58.5277 348.202 57.6499 339.003 55.6302 330.815C55.1976 322.375 56.8513 314.801 59.2742 306.276C59.3545 305.991 58.9229 305.783 58.7871 306.06C55.6251 312.546 54.2699 319.487 54.3839 326.505C54.0093 325.408 53.5925 324.347 53.1119 323.336C53.1154 323.336 53.1176 323.342 53.1221 323.34C53.1327 323.335 53.144 323.33 53.1546 323.325C53.1722 323.317 53.1597 323.293 53.144 323.297C52.7972 323.369 51.0127 304.817 51.2883 302.886C51.3262 302.626 50.9521 302.619 50.8671 302.823C49.2957 306.617 50.2199 311.457 50.8322 315.367C51.0738 316.905 51.226 319.179 51.8403 321.046C49.524 317.406 46.055 314.656 40.3733 313.565C39.8772 313.472 39.2886 313.72 39.1164 314.208C37.5918 311.998 37.1613 309.358 36.9358 306.356C36.916 306.079 36.4911 305.969 36.4242 306.278C35.7048 309.62 36.8504 312.888 39.0709 315.269C39.1103 316.653 38.9463 317.586 38.5964 318.17C38.5642 317.79 38.534 317.409 38.5037 317.027C38.4349 316.168 37.1014 316.111 37.138 317.001C37.1651 317.69 37.1997 318.381 37.2403 319.076C35.6867 319.384 33.3173 318.604 30.7716 319.013C30.7473 318.98 30.7361 318.943 30.7051 318.908C30.6326 318.828 30.5613 318.737 30.4878 318.655C26.8321 314.132 24.9239 308.573 24.6859 302.645C24.6439 301.592 25.1559 296.923 24.7433 294.929C25.0497 294.91 25.2261 294.683 25.2188 294.434C26.7361 294.889 28.5918 294.642 29.8928 293.881C33.4167 291.818 36.4585 287.148 40.5455 286.355C43.4385 285.795 57.6123 291.477 59.2503 292.95C64.3596 297.56 66.4434 301.195 66.83 306.154ZM86.1712 320.831C86.0614 321.174 86.0381 321.547 86.2025 321.889C87.5323 324.646 88.0072 327.913 88.2187 331.347C83.7475 323.294 76.3982 319.193 67.66 317.165C68.0389 313.798 68.6208 310.64 68.7431 307.638C75.031 311.471 81.0663 315.518 86.1712 320.831ZM84.9491 291.008C84.6909 293.782 84.6981 296.587 85.068 299.451C85.0984 299.685 85.2936 299.77 85.4813 299.743C85.8175 302.36 86.3528 304.921 87.1551 307.415C84.0796 298.984 81.7178 290.692 81.7313 281.609C81.7435 273.536 82.6935 265.451 82.1984 257.385C82.1816 257.119 81.8091 257.109 81.7838 257.376C80.1711 274.536 78.5707 292.355 86.8171 308.142C86.952 308.4 87.3626 308.265 87.3379 308.003C87.7547 309.228 88.2547 310.43 88.82 311.62C88.7097 311.85 88.5927 312.075 88.5259 312.307C88.3848 312.793 88.3595 313.277 88.4091 313.759C80.9832 297.992 75.935 281.277 76.9666 263.552C77.465 255.005 78.8903 246.607 79.8496 238.111C80.1213 235.704 80.3997 233.279 80.5849 230.85C83.704 248.477 85.5065 265.604 85.041 283.529C84.9758 286.05 84.9262 288.545 84.9491 291.008ZM91.8413 308.427C90.9496 309.004 90.1419 309.698 89.5269 310.476C87.2055 304.848 86.458 298.794 86.3737 292.585C87.4814 282.753 90.2681 273.848 96.8397 265.705C98.9938 263.035 102.505 259.577 103.101 255.961C102.724 258.244 103.767 263.739 102.798 267.317C98.8463 281.904 91.0654 293.111 91.8413 308.427ZM133.626 329.061C132.397 328.659 131.176 328.281 129.943 327.86C125.924 326.486 122.423 325.817 118.221 326.614C117.875 326.68 117.766 327.067 117.89 327.353C120.459 333.288 123.941 340.051 128.303 346.2C119.068 342.819 108.422 338.874 98.6002 340.008C98.203 340.056 98.1903 340.728 98.5841 340.794C103.828 341.667 109.131 341.741 114.338 343.026C119.337 344.263 124.218 345.885 129.15 347.359C130.286 348.898 131.478 350.389 132.726 351.813C129.281 351.939 127.26 354.052 123.634 355.876C117.158 359.131 104.436 359.276 98.3145 355.22C87.4144 347.994 93.2775 333.515 89.4466 322.612C91.2989 322.603 93.1442 322.546 95.013 322.627C95.9375 322.667 96.7616 321.514 96.2018 320.683C95.0491 318.967 89.1133 312.561 91.94 309.966C91.9563 310.148 91.9559 310.326 91.9747 310.51C92.0319 311.086 92.8691 311.138 92.8942 310.528C92.9115 310.138 92.9244 309.752 92.9409 309.362C94.0112 308.929 95.6297 308.745 97.9938 308.936C102.557 309.303 106.702 310.811 110.698 313.017C118.977 317.589 126.42 322.963 133.626 329.061ZM152.358 334.055C151.687 334.17 151.001 334.214 150.296 334.156C147.39 325.342 146.851 314.464 140.464 307.386C140.276 307.178 139.938 307.426 140.069 307.67C142.646 312.478 144.295 317.338 145.563 322.628C146.502 326.546 147.438 330.454 149.324 334.01C149.076 333.957 148.827 333.897 148.575 333.818C144.01 332.378 139.48 330.962 134.935 329.488C134.985 329.375 134.993 329.246 134.874 329.12C128.911 322.898 120.41 314.987 111.23 310.458C106.121 305.078 98.4962 294.754 107.286 293.141C108.08 292.995 108.405 292.186 108.306 291.473C107.618 286.516 109.605 287.725 112.842 284.783C116.589 281.378 121 274.724 127.037 279.055C127.551 279.424 128.178 279.04 128.375 278.536C132.887 266.984 139.537 277.01 141.763 280.722C144.358 285.051 146.486 289.591 147.598 294.556C148.511 298.631 148.989 302.736 149.429 306.849C149.016 316.156 149.84 325.425 152.358 334.055ZM213.863 341.856C215.083 348.962 208.106 344.333 204.64 346.334C199.8 349.127 197.678 354.04 191.15 353.822C187.359 353.693 183.681 353.626 180.181 355.267C175.153 357.624 171.284 361.556 165.673 360.561C169.76 355.842 175.044 354.606 180.058 350.496C181.946 348.947 188.012 345.025 187.793 341.735C187.58 338.448 185.647 337.054 183.159 336.242C190.329 331.805 198.85 332.942 206.152 336.751C208.354 337.9 211.369 339.658 213.863 341.856ZM175.275 362.294C173.332 362.235 171.405 362.137 169.483 362.103C172.067 361.578 174.409 360.058 177.434 358.302C181.738 355.811 186.205 355.094 191.118 355.35C192.424 355.42 195.969 356.032 197.242 355.152C200.713 352.754 203.251 347.478 208.151 347.635C209.561 347.679 212.27 348.264 213.585 347.51C215.23 346.563 215.501 344.895 215.245 343.174C217.358 345.401 218.776 347.997 218.378 350.836C217.261 358.808 208.228 357.189 202.677 356.619C198.578 356.2 194.963 356.796 191.078 358.063C185.749 359.795 181.089 362.469 175.275 362.294ZM165.897 362.153C165.377 362.178 164.863 362.242 164.343 362.291C164.439 362.147 164.537 362.003 164.634 361.866C165.07 361.986 165.489 362.085 165.897 362.153ZM120.887 331.479C116.976 323.259 136.41 332.062 139.195 333.031C143.275 334.449 148.288 336.232 152.619 336.414C156.285 336.569 158.343 333.689 160.915 331.771C164.798 328.878 172.564 337.23 177.302 337.561C180.622 337.794 190.716 338.242 183.003 345.312C179.847 348.206 176.582 350.493 172.81 352.474C168.887 354.538 166.16 356.695 164 360.119C163.761 360.038 163.526 359.968 163.279 359.872C162.405 359.521 162.017 360.92 162.878 361.27C163.002 361.322 163.123 361.361 163.247 361.406C163.037 361.794 162.828 362.175 162.628 362.595C162.587 362.683 162.566 362.773 162.557 362.858C160.487 359.309 158.927 356.281 159.174 351.758C159.388 347.84 160.168 343.977 161.271 340.216C161.37 339.874 160.849 339.726 160.739 340.064C158.813 345.98 155.934 355.951 159.965 361.887C150.645 353.608 141.595 346.545 138.661 333.156C138.583 332.797 138.042 332.931 138.11 333.289C140.099 343.877 147.861 356.28 157.592 362.679C140.69 359.535 128.318 347.089 120.887 331.479ZM169.786 386.199C166.312 384.127 162.741 382.214 159.132 380.507C159.331 380.285 159.381 379.926 159.046 379.691C154.062 376.164 148.774 373.089 143.937 369.343C138.407 365.058 133.912 360.044 128.851 355.282C128.512 354.963 127.929 355.337 128.17 355.771C131.143 361.102 135.614 365.648 140.668 369.581C127.663 366.511 114.993 362.163 101.81 359.803C96.1226 358.785 88.5696 359.545 81.4693 359.307C81.7342 359.24 82.0031 359.217 82.2648 359.128C82.7797 358.953 82.7265 358.218 82.1608 358.176C81.1308 358.099 80.1176 358.064 79.1107 358.005C79.154 357.977 79.2034 357.967 79.2469 357.937C79.6197 357.675 79.5541 357.039 79.0284 357.029C77.5609 356.998 76.1329 357.276 74.6898 357.255C74.6105 357.226 74.5294 357.218 74.4492 357.188C72.9051 356.623 71.491 355.892 70.1469 355.037C61.5265 344.479 65.9353 331.17 67.4679 318.744C75.8823 320.849 82.5799 324.342 87.723 331.71C87.8685 331.919 88.1266 331.87 88.241 331.717C88.7863 341.436 87.3822 352.415 97.1481 357.125C103.366 360.123 110.438 360.064 117.224 359.538C123.672 359.041 127.629 353.364 133.988 353.21C137.928 357.433 142.389 360.942 147.365 363.044C150.905 365.729 154.554 368.324 157.571 371.467C161.999 376.08 165.48 381.462 169.786 386.199ZM117.803 370.55C127.592 374.792 138.225 374.892 148.438 378.009C158.835 381.182 167.904 387.139 176.947 393.019C179.802 395.529 182.753 397.943 185.78 400.272C171.427 392.178 156.19 385.618 140.202 381.482C139.784 381.375 139.629 381.963 140.02 382.115C157.152 388.861 174.419 394.233 190.369 403.696C192.167 405 193.983 406.282 195.82 407.526C180.978 401.563 166.302 395.712 151.145 390.495C139.804 386.59 124.422 381.552 117.803 370.55ZM68.4261 370.682C68.9715 368.636 69.9234 366.711 71.5302 364.975C72.6 364.68 73.6798 364.449 74.7667 364.284C74.3873 364.43 74.0045 364.576 73.6451 364.731C71.686 365.572 70.3574 366.607 69.3393 368.462C69.1451 368.817 69.4049 369.208 69.7265 369.309C69.2793 369.726 68.8557 370.211 68.4261 370.682ZM39.0427 412.853C39.2904 412.568 39.5398 412.284 39.7812 412.008C40.5447 411.135 39.4575 409.945 38.5419 410.689C38.0842 411.061 37.6379 411.464 37.1992 411.884C37.131 411.837 37.0622 411.805 36.993 411.758C36.7258 411.577 33.6424 408.002 32.121 405.536C32.3731 404.625 32.6404 403.736 32.9221 402.868C32.9605 402.782 33.0005 402.699 33.0103 402.601C34.9124 396.839 37.556 391.968 42.0491 387.259C45.4672 383.675 49.175 380.371 52.3152 376.538C52.5174 376.29 52.2259 375.952 51.9684 376.168C44.4781 382.439 35.6039 390.27 32.2367 399.898C29.2899 388.219 34.6777 368.547 47.9467 367.295C48.3305 367.259 48.4924 366.72 48.1348 366.559C54.9689 368.286 62.4217 367.415 69.4655 362.725C70.0503 362.334 69.5977 361.532 68.9568 361.78C56.4559 366.601 42.2245 366.394 33.5593 356.61C34.1557 356.669 34.7531 356.729 35.3464 356.764C36.0612 356.808 36.2207 355.712 35.5318 355.533C34.6702 355.304 33.4229 354.988 31.9338 354.59C30.828 353.046 29.8283 351.327 28.9797 349.384C28.0173 347.179 26.926 344.681 25.9824 342.092C26.1387 341.942 26.2047 341.704 26.0147 341.528C25.8944 341.419 25.7874 341.304 25.6689 341.194C24.4551 337.676 23.5775 334.022 23.7881 330.673C23.977 327.676 24.7879 325.664 25.9951 324.282C27.2018 338.479 45.6801 354.977 58.2522 356.665C58.6337 356.716 58.7203 356.091 58.3517 356.003C43.2206 352.416 30.7659 338.015 27.154 323.218C28.4635 322.281 30.064 321.8 31.8243 321.556C31.859 321.582 31.8878 321.612 31.9227 321.636C32.1621 321.805 32.417 321.677 32.5502 321.471C34.0979 321.313 35.7379 321.295 37.3906 321.277C38.1061 330.381 40.1644 339.642 46.5957 346.424C46.8216 346.662 47.1739 346.326 46.9639 346.079C41.033 339.078 39.6423 330.104 38.8546 321.257C39.396 321.246 39.935 321.233 40.4675 321.206C40.9891 321.18 41.5579 320.786 41.5173 320.199C40.8059 309.957 51.4631 323.267 52.7408 327.395C54.061 331.664 54.8285 336.043 55.9184 340.37C57.5229 346.734 59.6482 352.623 65.093 356.377C72.7726 362.651 83.459 358.98 92.6466 359.805C109.817 361.347 125.839 367.31 142.549 371C146.265 373.712 150.221 376.125 154.099 378.28C141.75 373.256 127.845 373.819 115.964 367.347C115 366.821 114.075 367.786 114.482 368.746C115.03 370.043 115.71 371.253 116.465 372.413C102.296 367.262 90.3181 380.834 77.0334 384.313C83.5656 378.551 89.7326 373.613 96.9146 370.21C96.8301 370.288 96.7394 370.356 96.6567 370.437C96.3344 370.757 96.6166 371.387 97.0937 371.245C99.6541 370.486 101.958 369.19 104.641 368.716C107.68 368.181 110.776 368.07 113.83 368.563C114.401 368.657 114.672 367.794 114.082 367.679C111.594 367.201 108.52 366.87 105.527 367.076C106.822 366.735 108.148 366.43 109.527 366.181C110.183 366.175 110.842 366.17 111.499 366.134C111.683 366.125 111.77 365.978 111.765 365.841C112.143 365.789 112.507 365.723 112.891 365.678C113.618 365.595 113.412 364.525 112.758 364.471C109.9 364.227 107.162 364.436 104.525 364.967C96.6189 364.002 88.434 362.466 81.0832 363.781C81.0783 363.666 81.041 363.564 80.9689 363.471C81.8757 363.339 82.7794 363.199 83.6734 362.992C84.1577 362.879 84.018 362.252 83.5864 362.19C79.2288 361.57 74.5972 362.815 70.5658 364.368C70.2704 364.482 70.318 364.838 70.5077 365.025C59.9686 372.599 70.7894 390.35 57.6744 397.283C52.7649 399.879 51.5809 402.8 49.253 407.826C47.2672 412.115 43.5306 414.653 39.0427 412.853ZM27.8116 425.426C28.0304 425.355 28.1935 425.119 28.0798 424.847C27.1527 422.643 26.0364 420.567 25.554 418.194C25.0707 415.823 24.9314 413.422 25.1314 411.011C25.1639 410.632 24.5381 410.534 24.4699 410.911C23.6086 415.637 23.6868 421.704 27.3866 425.318C26.6448 425.114 25.99 424.853 25.6452 424.627C23.814 423.428 22.1327 421.91 20.8017 420.167C14.2299 411.537 10.9954 396.601 22.8921 390.892C23.2013 390.742 23.0704 390.292 22.7924 390.235C23.6509 389.501 24.4886 388.735 25.2956 387.926C20.4909 394.933 16.2676 402.544 16.747 410.933C16.7729 411.369 17.4714 411.545 17.5596 411.056C18.7209 404.613 20.1725 398.755 23.6329 393.085C26.5384 388.325 29.7884 383.797 32.571 378.962C32.8138 378.54 32.2025 378.174 31.9299 378.57C30.9369 380.013 29.8777 381.482 28.7997 382.978C28.6349 382.904 28.4435 382.885 28.245 383.051C21.3099 388.796 15.7973 396.192 5.57863 395.57C-1.70618 395.126 2.33397 381.091 3.27896 377.147C4.49296 372.078 5.87841 366.824 5.40072 361.575C5.04216 357.618 3.34107 357.657 7.89358 355.425C8.70455 355.027 8.78351 353.708 7.95452 353.275C2.8771 350.629 5.94248 347.662 9.5359 347.487C16.112 352.297 24.1651 355.406 32.1159 356.444C34.5738 359.242 37.4102 361.636 40.5294 363.456C33.651 361.294 27.5847 357.226 20.8761 354.539C20.4792 354.379 20.2464 354.989 20.5832 355.205C27.4642 359.641 35.4034 363.686 43.5695 365.018C44.9399 365.624 46.3536 366.09 47.7909 366.472C47.2717 366.375 46.7636 366.299 46.2832 366.27C46.2476 366.173 46.1772 366.094 46.0432 366.063C36.1105 363.708 25.5041 360.965 15.2274 361.05C14.7738 361.053 14.628 361.77 15.1043 361.861C24.6649 363.69 34.3781 364.511 43.9451 366.422C43.2075 366.559 42.5117 366.765 41.8743 367.065C37.1484 366.866 32.3753 367.615 27.7469 368.492C22.7896 369.43 17.6215 370.227 12.9093 372.073C12.5315 372.219 12.6918 372.891 13.098 372.85C18.1509 372.347 23.0657 370.702 28.0461 369.73C32.226 368.917 36.4344 368.407 40.6362 367.784C36.5826 370.585 34.6403 376.693 32.6521 381.606C30.7692 386.262 29.0123 390.327 29.37 395.406C29.5754 398.324 32.5924 401.32 29.3716 401.618C28.938 401.658 28.5961 401.992 28.7 402.454C29.477 405.91 32.648 410.072 36.406 412.7C33.3528 415.922 31.0551 420.205 31.2826 424.598C31.3464 425.848 29.467 425.812 27.8116 425.426Z" fill="url(#paint11_linear_22_308)"/>
<path id="Vector_13" d="M22.3244 415.966C18.6466 410.814 21.4872 404.02 23.4497 398.79C23.6 398.386 24.2085 398.551 24.0978 398.976C22.6123 404.715 21.564 409.859 22.9493 415.73C23.0449 416.128 22.5355 416.262 22.3244 415.966Z" fill="url(#paint12_linear_22_308)"/>
<path id="Vector_14" d="M139.738 358.825C145.174 364.076 149.041 369.883 155.644 373.969C156.085 374.241 155.682 374.839 155.238 374.635C148.487 371.541 142.804 365.677 138.997 359.357C138.716 358.893 139.376 358.473 139.738 358.825Z" fill="url(#paint13_linear_22_308)"/>
<path id="Vector_15" d="M96.2902 270.715C96.5136 270.227 97.3343 270.595 97.1531 271.093C94.4935 278.419 91.3887 285.545 89.148 293.02C88.985 293.562 88.0522 293.458 88.139 292.869C89.3069 284.99 93.0038 277.884 96.2902 270.715Z" fill="url(#paint14_linear_22_308)"/>
</g>
<g id="Group_5">
<path id="Vector_16" d="M22.6362 63.9552C23.2565 64.5796 24.1958 64.8416 24.9339 65.2967C25.1302 65.4182 25.3311 65.3428 25.4498 65.1968C25.6508 65.1737 25.846 65.0606 25.9761 64.9039C26.1846 64.6497 26.3885 64.3927 26.5913 64.1374C26.8572 63.8045 26.6822 63.2888 26.3609 63.0758C25.2743 62.3542 24.18 61.6481 23.088 60.9347C22.5643 60.5943 21.8922 60.9797 21.8505 61.5787C21.7831 62.4919 21.9773 63.2921 22.6362 63.9552Z" fill="url(#paint15_linear_22_308)"/>
<path id="Vector_17" d="M27.6403 60.5244C27.8531 59.8469 28.0745 59.1703 28.0878 58.4532C28.1013 57.5276 27.7539 56.6269 27.4465 55.7699C27.2498 55.2176 26.3837 55.2407 26.1132 55.7043C25.4589 56.8358 25.9617 57.675 26.2137 58.7843C25.9692 58.5641 25.7195 58.3519 25.4323 58.1881C24.9842 57.9279 24.4395 58.504 24.8247 58.9005C25.456 59.5569 25.8657 60.3187 26.5914 60.9063C26.9527 61.1992 27.5186 60.9226 27.6403 60.5244Z" fill="url(#paint16_linear_22_308)"/>
<path id="Vector_18" d="M25.6236 69.689C26.3507 71.5358 28.2099 73.6372 30.3667 73.0745C31.2792 73.2652 31.9244 73.7129 32.7395 72.723C32.9211 72.504 32.8864 72.162 32.7806 71.924C31.519 69.0792 29.4364 67.4171 26.2509 68.3656C25.6424 68.5469 25.3973 69.1084 25.6236 69.689ZM30.9863 72.0251C30.806 72.0161 30.623 72.0008 30.4424 71.9781C29.9756 71.7083 29.4823 71.5008 28.9971 71.2282C28.447 70.9187 28.0833 70.4496 27.7886 69.9296C28.3807 69.8628 28.9584 69.9247 29.5322 70.2856C30.1418 70.6722 30.6003 71.3648 30.9863 72.0251Z" fill="url(#paint17_linear_22_308)"/>
<path id="Vector_19" d="M34.7802 64.8614C34.5345 64.495 34.2305 64.1731 33.936 63.8439C34.2869 63.7922 34.6067 63.6866 35.002 63.6682C35.5469 63.6431 35.7793 62.8082 35.1764 62.6689C34.7632 62.5739 34.4654 62.3307 34.0598 62.259C33.4885 62.1558 33.0043 61.9449 32.5129 61.6391C31.8652 61.2307 30.9496 61.8115 31.1443 62.5893C31.5548 64.2221 32.7006 65.2331 34.3594 65.5166C34.6766 65.5705 34.9613 65.1273 34.7802 64.8614Z" fill="url(#paint18_linear_22_308)"/>
<path id="Vector_20" d="M27.4105 81.6907C27.0486 80.9324 26.4402 80.3249 26.091 79.5613C25.7685 78.8512 26.4825 78.284 27.1324 77.898C27.2947 78.1472 27.4663 78.3888 27.6103 78.6488C27.6407 78.7002 27.6436 78.7135 27.663 78.7507C27.3752 78.8066 27.0333 78.8052 26.7752 78.8571C26.0381 79.0082 26.2876 80.125 27.0227 79.991C27.6904 79.8701 28.5943 80.2049 29.0587 79.5387C29.7072 78.6032 28.5868 77.2136 28.1107 76.4777C27.8803 76.1191 27.4432 75.9022 27.0323 76.1287C25.7145 76.8482 24.3271 77.8136 24.4781 79.4794C24.5875 80.7014 25.9453 81.7712 26.9661 82.2174C27.2808 82.3557 27.5349 81.9562 27.4105 81.6907Z" fill="url(#paint19_linear_22_308)"/>
<path id="Vector_21" d="M77.1246 42.2073C77.0848 42.6082 77.654 42.7646 77.8556 42.4403C78.0954 42.0565 78.3119 41.896 78.5096 41.9026C78.4789 41.9824 78.4591 42.0696 78.4595 42.1607C78.4661 42.7477 78.471 43.3333 78.4777 43.9204C78.4847 44.4464 78.9468 44.9038 79.4934 44.7735C79.571 44.755 79.6204 44.7278 79.6948 44.7074C80.1231 47.1497 80.2589 50.3478 80.1839 50.7122C79.6308 53.3822 78.1622 55.8625 76.8528 58.2086C74.1903 62.9822 70.7644 67.3295 67.632 71.7925C64.181 76.7089 59.7316 82.5859 58.2239 88.8162C58.1629 85.4804 58.1251 81.9528 58.0583 78.2979C58.0569 78.2926 58.0597 78.292 58.0591 78.2894C58.0595 78.2853 58.0591 78.2826 58.0567 78.2789C57.6014 53.5031 55.7733 23.0832 35.6543 9.71488C35.3079 9.48368 34.8715 9.9794 35.1744 10.278C50.4804 25.4648 54.0701 46.432 55.2737 67.9306C53.9576 64.0823 52.3218 60.3715 50.1698 56.6339C45.5307 48.5851 38.9663 43.0069 36.6294 33.6815C34.1589 23.8078 34.6374 11.8909 27.9143 4.10433C31.8506 5.49878 36.0248 6.12736 40.2019 7.20695C50.9782 9.99822 57.6917 20.3227 61.1619 30.0959C64.1573 38.5306 64.0552 46.9113 61.3304 55.368C59.305 61.6474 57.5212 66.873 58.0949 73.5694C58.141 74.1227 58.9349 74.1941 58.9794 73.6059C59.6017 65.3657 62.2242 58.2766 64.4289 50.4208C66.3002 43.7481 64.5686 36.18 62.6872 29.7634C58.6261 15.9038 48.2885 7.07685 34.3703 4.26187C33.3242 4.04928 28.9199 2.75847 26.9256 3.00808C25.857 1.95102 24.6395 0.977643 23.2245 0.120434C22.3816 -0.390561 21.581 0.855761 22.3982 1.40673C23.584 2.20319 24.8152 2.83409 26.0696 3.37957C25.7965 3.73069 25.9503 4.32828 26.8388 5.31951C29.4624 8.24852 30.5778 12.5965 31.5085 16.2812C33.1646 22.8438 33.6387 29.6419 35.3339 36.2069C36.8442 42.0637 40.1884 46.0016 43.9677 50.5696C49.0483 56.7087 52.8661 63.4781 55.4226 70.854C55.7369 77.6039 55.8648 84.3797 56.079 91.0243C52.8845 80.5823 43.9581 71.6212 34.3842 66.8663C33.8672 66.6075 33.4688 67.2453 33.9056 67.6115C43.4906 75.6208 54.1012 82.2489 56.1583 95.6738C56.1691 95.7489 56.2222 95.7759 56.2553 95.8267C56.5 101.643 56.8684 107.33 57.5663 112.766C58.1925 117.653 59.1577 122.938 60.4755 128.37C60.3037 128.09 60.1381 127.807 59.9543 127.535C52.5892 111.688 36.256 100.729 18.4574 105.725C14.1902 106.923 9.88609 109.168 6.31403 111.758C4.36018 113.174 3.26883 114.184 2.798 114.952C1.2658 114.62 -0.35359 114.562 -2.16891 114.865C-2.84782 114.979 -2.70264 115.954 -2.06703 116.014C-0.285012 116.186 1.13374 116.161 2.53937 115.73C2.46178 117.299 5.91707 117.669 8.79435 119.645C11.8452 121.739 14.796 123.583 18.1014 125.285C22.5867 127.598 27.6635 129.638 32.6939 130.237C41.8673 131.33 52.357 128.607 59.7533 134.822C59.7308 134.84 59.7075 134.859 59.6849 134.876C45.9016 128.311 24.5117 140.102 17.2083 151.577C16.6009 152.53 17.7981 153.334 18.6159 152.774C26.1456 147.607 35.7644 150.808 44.1999 148.915C50.9383 147.404 56.1918 142.031 61.1199 137.143C61.7516 137.51 62.3628 137.922 62.949 138.384C62.9772 138.425 63.0084 138.454 63.0358 138.496C63.1102 138.61 63.216 138.664 63.3248 138.693C63.3467 138.711 63.3673 138.729 63.3893 138.748C69.7156 158.451 80.7419 178.116 97.4527 186.672C97.9086 186.905 98.3457 186.26 97.89 185.991C79.5538 175.101 69.3249 155.441 63.8656 134.48C64.0492 134.307 64.232 134.132 64.4152 133.964C65.1911 133.25 64.3027 131.867 63.3538 132.415C63.3491 132.419 63.3456 132.421 63.3391 132.424C61.916 126.611 60.8547 120.72 60.0723 114.904C62.747 109.712 73.2829 107.206 77.4557 105.71C83.001 103.723 87.6907 101.111 92.2565 97.3745C101.614 89.7149 103.922 78.7981 98.6445 68.1319C98.2974 67.4287 97.0298 67.4232 96.8637 68.2825C95.1369 77.2316 80.1163 81.3581 73.7859 87.1494C67.7603 92.6645 61.4671 99.8603 60.3633 108.161C60.1162 108.422 59.8485 108.666 59.6064 108.93C59.1732 109.402 59.7361 110.081 60.2108 109.805C60.203 109.958 60.2132 110.112 60.2094 110.266C60.0004 110.518 59.7896 110.768 59.5923 111.022C58.9453 105.32 58.555 99.723 58.3665 94.3915C58.4012 94.3413 58.439 94.2929 58.4343 94.2083C57.274 77.8257 88.6876 60.3694 81.2835 44.0855C86.0131 41.4575 77.7747 35.602 77.1246 42.2073ZM37.8438 147.733C33.9559 148.047 30.2583 147.808 26.6794 148.164C36.4886 142.819 45.3838 137.416 56.9356 137.092C51.3256 141.878 46.6181 147.023 37.8438 147.733ZM58.0853 136.136C46.143 132.892 34.3666 142.2 24.8292 148.391C23.6269 148.595 22.438 148.944 21.2573 149.386C29.5214 140.125 46.5445 131.641 58.3945 135.88C58.2913 135.964 58.1872 136.051 58.0853 136.136ZM3.8096 115.214C4.28925 114.98 4.77673 114.705 5.28871 114.354C12.5206 109.392 20.0737 106.085 28.953 105.926C39.2587 105.74 47.388 112.426 53.377 120.687C40.0312 110.625 17.2099 108.975 3.81705 115.217C3.81431 115.218 3.81274 115.217 3.8096 115.214ZM62.5798 136.142C62.5158 136.058 62.4435 135.987 62.3784 135.904C62.4112 135.871 62.4456 135.839 62.4801 135.806C62.5128 135.918 62.5471 136.03 62.5798 136.142ZM60.9181 133.984C60.8496 134.031 60.781 134.077 60.712 134.128C54.3073 128.206 44.7766 129.034 35.8134 129.031C26.5961 129.028 16.9928 123.361 9.67566 118.273C8.01297 117.116 6.43061 116.194 4.79554 115.563C5.12216 115.458 5.45172 115.365 5.78011 115.267C5.68802 115.485 5.76757 115.785 6.0793 115.808C23.9623 117.186 43.8053 115.72 57.079 129.951C57.4052 130.299 57.8704 129.839 57.6143 129.471C46.6724 113.681 23.3191 116 6.45334 115.064C23.7311 110.19 44.716 114.028 57.3641 126.921C58.709 129.293 59.8913 131.675 60.9181 133.984ZM87.2998 80.1851C90.217 78.396 93.7499 76.3481 96.059 73.6972C95.56 79.7489 91.8067 84.7298 86.7692 89.2184C88.5148 87.5259 90.1132 85.7051 91.481 83.6821C91.7506 83.2836 91.1997 82.8306 90.8474 83.1421C81.9849 90.9991 71.5173 97.3622 62.9421 105.546C66.936 94.0076 76.8397 86.6074 87.2998 80.1851ZM62.2427 107.864C64.1346 106.095 66.1882 104.471 68.3191 102.917C66.0641 104.618 63.9702 106.348 62.1666 108.142C62.1905 108.048 62.2176 107.957 62.2427 107.864ZM61.7595 109.98C68.7647 102.128 79.0481 96.6984 87.0016 90.0545C91.5539 86.25 99.3687 79.3951 96.9564 72.6285C97.5434 71.9053 98.2115 71.0595 98.403 70.207C97.3218 75.0238 99.8527 79.6982 98.3698 84.8789C95.0774 96.3815 82.239 101.334 72.2699 105.2C69.0594 106.445 64.6285 108.065 61.6296 110.67C61.6707 110.44 61.7142 110.21 61.7595 109.98ZM60.3374 111.964C60.1417 112.195 59.9561 112.434 59.7856 112.679C59.7745 112.59 59.7645 112.499 59.7545 112.409C59.9138 112.196 60.0846 111.99 60.25 111.779C60.2714 111.851 60.2996 111.91 60.3374 111.964Z" fill="url(#paint20_linear_22_308)"/>
<path id="Vector_22" d="M72.0784 33.333C71.0035 35.0203 72.2631 37.204 73.8567 37.9809C74.1243 38.1116 74.4993 37.8849 74.3843 37.5798C75.8769 38.1921 77.5651 38.3132 78.3582 36.5839C78.8069 35.6062 78.3984 34.1471 77.8703 33.2732C77.4391 32.5592 76.7531 32.0514 75.9543 31.8249C74.5093 31.4179 72.8752 32.0819 72.0784 33.333ZM76.9951 35.2543C77.398 37.3582 74.9639 36.9358 73.6458 36.3449C73.2839 35.7138 73.0277 35.046 73.2965 34.3342C73.5714 33.6055 74.4419 33.2364 75.1647 33.2417C76.3078 33.2536 76.8068 34.2719 76.9951 35.2543Z" fill="url(#paint21_linear_22_308)"/>
<path id="Vector_23" d="M80.6455 37.98C80.2875 37.9228 79.9355 38.375 80.2486 38.6686C82.1644 40.4525 85.4059 40.9639 87.6113 39.4211C89.8983 37.8219 88.7231 34.03 86.6944 32.7749C83.3132 30.6794 79.4303 34.8972 80.6455 37.98ZM86.5355 38.2236C85.4516 39.2042 83.6435 39.1676 82.1826 38.6754C81.6485 37.4963 81.4287 36.4641 82.3062 35.2356C82.9759 34.2953 84.3459 33.7634 85.46 34.0784C87.0329 34.5203 87.7299 37.1415 86.5355 38.2236Z" fill="url(#paint22_linear_22_308)"/>
<path id="Vector_24" d="M89.0195 43.498C89.5806 43.1367 89.7387 42.3923 89.2393 41.8908C87.8225 40.4677 85.6378 42.7448 85.7603 44.2292C85.7787 44.4655 86.0127 44.6948 86.2586 44.5486C86.5676 44.368 86.9177 43.9643 87.2782 43.6152C87.8648 43.751 88.5228 43.8189 89.0195 43.498Z" fill="url(#paint23_linear_22_308)"/>
<path id="Vector_25" d="M86.9715 48.2258C86.8324 48.785 87.0739 49.3981 86.7663 49.8946C86.6356 50.1054 86.8222 50.4156 87.0806 50.3454C87.4723 50.2406 87.66 50.0618 87.8822 49.7302C88.0252 49.518 88.0618 49.2422 88.1645 49.0223C88.4606 49.4979 88.6857 50.0412 88.2433 50.2882C87.6278 50.635 86.8233 50.7497 86.1466 50.9303C85.6865 51.0526 85.837 51.7158 86.3031 51.6474C87.3404 51.4917 88.5176 51.6521 89.3932 50.9711C90.4638 50.1381 89.5282 48.4817 88.9886 47.6686C88.817 47.409 88.518 47.1856 88.1823 47.2877C87.7009 47.4327 87.108 47.6739 86.9715 48.2258Z" fill="url(#paint24_linear_22_308)"/>
<path id="Vector_26" d="M92.3628 46.8531C92.46 47.0696 92.6877 47.0614 92.8409 46.9464C93.0051 47.2877 93.2478 47.5883 93.6713 47.8371C94.7961 48.4994 96.161 47.9641 97.1256 47.272C98.6621 46.1732 99.2279 44.2709 98.0135 42.7168C97.0299 41.4605 95.2221 41.0768 93.7694 41.5966C91.6741 42.3461 91.5963 45.1489 92.3628 46.8531ZM96.7296 45.4401C96.249 46.1388 95.3927 46.7189 94.5267 46.7283C93.9583 46.7332 93.2565 46.1019 93.0762 45.5943C93.162 44.6446 93.3585 43.6461 94.1799 43.1659C94.9021 42.7444 95.8355 43.0299 96.4676 43.4807C97.1791 43.9913 97.1973 44.7647 96.7296 45.4401Z" fill="url(#paint25_linear_22_308)"/>
</g>
<g id="Group_6">
<path id="Vector_27" d="M353.811 366.766C356.791 360.715 359.959 351.454 350.931 349.554C343.22 347.933 331.502 357.353 327.885 363.355C327.349 364.247 326.855 365.16 326.387 366.092C325.982 363.289 321.649 360.103 318.862 361.357C314.681 363.24 313.274 368.984 312.98 373.127C312.493 380.045 314.074 386.84 315.244 393.623C315.26 393.708 315.303 393.762 315.352 393.804C313.407 397.117 310.956 400.128 307.59 402.599C307.27 402.834 307.625 403.275 307.953 403.081C324.931 392.957 320.515 367.723 337.121 356.743C339.333 355.282 357.974 344.493 355.159 357.838C354.215 362.316 352.241 367.232 349.233 370.755C341.465 379.857 330.936 383.243 320.934 389.031C320.435 389.319 320.915 390.029 321.405 389.865C329.683 387.089 338.856 383.051 345.777 376.963C345.854 376.969 345.929 376.955 345.994 376.917C348.23 375.593 354.564 375.575 351.243 378.904C350.109 380.091 348.905 381.195 347.627 382.218C345.247 384.027 342.734 385.7 339.931 386.795C334.243 389.013 328.382 389.635 322.408 390.578C321.881 390.66 321.989 391.416 322.509 391.385C335.569 390.666 346.337 387.136 355.054 377.086C355.284 376.819 355.281 376.358 355.06 376.085C353.418 374.066 351.207 373.16 349.193 373.557C351.012 371.496 352.589 369.247 353.811 366.766ZM325.054 368.737C325.111 368.703 325.146 368.661 325.2 368.626C321.708 376.616 319.952 385.5 315.83 392.953C315.456 384.277 311.986 374.822 316.328 366.577C317.576 364.206 320.033 361.69 322.625 364.053C323.395 364.755 325.026 366.786 324.307 367.979C323.993 368.502 324.521 369.059 325.054 368.737Z" fill="url(#paint26_linear_22_308)"/>
<path id="Vector_28" d="M339.47 365.482C339.798 365.388 339.978 365.818 339.67 365.972C329.928 370.86 329.02 381.694 321.592 388.569C321.373 388.772 321.03 388.419 321.224 388.196C327.685 380.783 328.834 368.555 339.47 365.482Z" fill="url(#paint27_linear_22_308)"/>
<path id="Vector_29" d="M318.992 382.564C318.922 383.009 318.335 382.975 318.245 382.565C317.23 378.027 319.48 373.376 318.607 368.743C318.544 368.392 319.112 368.237 319.217 368.586C320.561 373.022 319.73 378.073 318.992 382.564Z" fill="url(#paint28_linear_22_308)"/>
<path id="Vector_30" d="M296.396 412.791C296.068 412.518 296.459 412.006 296.803 412.266C304.573 418.132 313.213 426.816 313.29 437.261C313.294 437.82 312.573 437.909 312.436 437.37C309.862 427.249 304.401 419.478 296.396 412.791Z" fill="url(#paint29_linear_22_308)"/>
<path id="Vector_31" d="M291.015 436.655C291.384 436.828 291.913 436.619 292.041 436.227C295.502 425.668 284.525 409.276 273.893 404.073C285.838 406.295 298.212 406.849 310.493 406.138C314.956 407.06 319.371 408.19 323.763 409.426C323.775 409.507 323.805 409.591 323.889 409.658C330.826 415.307 329.771 424.824 332.214 432.62C333.82 437.739 336.998 443.604 341.243 447.05C346.51 451.324 357.919 449.921 355.039 441.06C354.818 440.385 353.782 440.564 353.703 441.231C347.612 447.535 342.928 447.942 339.653 442.455C339.235 441.9 338.819 441.345 338.404 440.789C336.911 438.65 335.277 436.544 334.462 434.035C333.114 429.873 332.373 425.583 331.462 421.313C330.486 416.747 328.772 412.82 325.306 409.864C329.215 410.985 333.11 412.166 337.01 413.335C336.893 413.511 336.882 413.738 337.119 413.891C345.102 419.038 352.581 424.217 359.657 430.578C359.968 430.858 360.405 430.394 360.169 430.074C354.742 422.75 346.54 418.284 338.77 413.791C339.225 413.75 339.446 413.14 338.943 412.903C334.279 410.706 343.35 412.13 343.484 412.148C346.361 412.442 349.179 413.041 351.939 413.943C356.754 416.014 359.898 418.543 363.252 422.482C368.287 428.397 375.019 436.397 375.647 444.5C375.567 443.492 361.776 442.1 359.364 440.836C347.363 434.544 338.164 425.039 331.953 413.064C331.671 412.521 330.803 412.848 331.057 413.426C331.649 414.78 332.325 416.096 333.052 417.388C332.886 417.54 332.794 417.774 332.891 418.047C335.29 424.693 337.085 432.535 343.222 436.799C343.54 437.02 343.984 436.629 343.723 436.306C339.891 431.565 337.593 426.62 335.449 421.21C339.923 427.72 345.909 433.349 352.208 437.9C355.76 440.465 359.439 442.8 363.692 444.051C366.98 445.018 373.943 445.059 375.871 447.958C376.313 448.625 377.246 448.23 377.384 447.56C379.299 438.338 370.783 427.471 365.002 421.171C356.643 412.062 347.077 410.153 334.971 410.688C334.619 410.703 334.525 411.19 334.781 411.385C338.579 414.264 334.701 411.711 332.627 411.101C328.363 409.849 324.095 408.618 319.804 407.457C317.682 406.884 315.55 406.395 313.414 405.946C321.722 405.33 329.967 404.145 337.99 402.516C347.789 405.378 358.317 407.743 368.535 407.761C374.713 407.771 385.009 405.108 385.944 397.457C386.767 390.713 378.341 388.617 373.08 388.271C362.374 387.566 349.167 390.139 340.598 396.929C340.231 397.216 340.561 397.761 340.987 397.62C350.275 394.526 358.255 390.084 368.391 389.881C372.318 389.801 376.759 389.932 380.385 391.664C386.185 394.434 384.436 400.891 379.429 403.814C367.461 410.805 352.716 403.842 339.989 402.104C342.352 401.599 344.691 401.056 347.007 400.479C347.043 400.493 347.07 400.518 347.116 400.518C352.761 400.364 359.113 399.508 364.364 397.308C364.691 397.169 364.56 396.677 364.208 396.713C359.325 397.219 354.514 398.637 349.645 399.519C349.601 399.412 349.507 399.32 349.377 399.337C333.412 401.335 317.736 403.619 302.261 404.168C301.523 404.087 300.788 403.986 300.047 403.919C299.843 403.9 299.752 404.084 299.786 404.238C280.321 404.686 261.164 402.212 242.138 392.753C241.873 392.621 241.711 393.038 241.967 393.172C251.153 398.049 261.02 401.421 271.232 403.546C271.289 403.57 271.349 403.587 271.408 403.61C275.645 416.275 277.772 430.437 291.015 436.655ZM283.623 429.347C281.343 426.441 279.626 423.253 278.44 419.749C277.065 415.684 276.064 411.413 274.536 407.38C278.153 412.497 280.82 418.167 284.495 423.235C284.787 423.635 285.385 423.265 285.228 422.823C282.891 416.239 278.266 410.1 273.788 404.794C282.226 409.695 290.132 421.686 291.105 430.161C291.334 432.155 292.245 436.372 287.887 433.135C286.296 432.072 284.874 430.808 283.623 429.347Z" fill="url(#paint30_linear_22_308)"/>
<path id="Vector_32" d="M288.274 390.823C286.273 394.075 282.922 396.873 279.871 399.096C277.673 400.696 274.808 402.358 272.402 400.352C272.074 400.078 272.464 399.569 272.809 399.826C276.8 402.818 284.78 392.05 287.675 390.215C288.1 389.947 288.53 390.41 288.274 390.823Z" fill="url(#paint31_linear_22_308)"/>
<path id="Vector_33" d="M281.978 391.709C281.746 391.809 281.509 391.65 281.447 391.436C281.212 391.636 280.95 391.807 280.639 391.924C280.315 392.043 279.853 391.698 280.058 391.342C280.453 390.66 280.943 390.07 281.237 389.33C281.561 388.524 281.53 387.576 281.285 386.756C281.04 385.944 282.271 385.436 282.52 386.26C282.788 387.158 282.85 388.305 282.621 389.346C283.031 388.819 283.459 388.301 283.814 387.75C284.852 386.13 285.352 384.212 285.198 382.301C285.132 381.478 286.39 381.309 286.47 382.137C286.781 385.335 285.211 390.344 281.978 391.709Z" fill="url(#paint32_linear_22_308)"/>
</g>
<g id="Group_7">
<path id="Vector_34" d="M130.977 221.917C129.476 222.95 128.597 224.764 127.398 226.097C127.078 226.452 127.158 226.888 127.412 227.184C127.385 227.601 127.543 228.039 127.815 228.362C128.256 228.88 128.705 229.389 129.151 229.895C129.731 230.559 130.847 230.393 131.399 229.817C133.27 227.872 135.112 225.906 136.967 223.948C137.854 223.008 137.315 221.499 136.11 221.193C134.273 220.72 132.571 220.821 130.977 221.917Z" fill="url(#paint33_linear_22_308)"/>
<path id="Vector_35" d="M136.128 233.36C137.43 234.042 138.728 234.741 140.184 235.032C142.066 235.4 144.029 235.025 145.889 234.715C147.087 234.518 147.358 232.748 146.513 232.027C144.448 230.28 142.553 230.994 140.199 231.098C140.738 230.682 141.262 230.253 141.701 229.728C142.396 228.913 141.423 227.593 140.473 228.23C138.903 229.273 137.2 229.826 135.735 231.086C135.005 231.712 135.361 232.965 136.128 233.36Z" fill="url(#paint34_linear_22_308)"/>
<path id="Vector_36" d="M130.163 201.056C130.031 201.186 129.983 201.347 129.981 201.506C128.781 203.907 128.729 206.653 130.902 209.131C133.912 212.565 141.392 214.433 144.569 210.175C146.984 206.945 145.937 202.446 143.232 199.753C141.48 198.017 139.233 197.508 136.993 197.762C137.693 197.064 136.961 195.548 135.937 196.004C133.736 196.988 131.658 198.772 130.391 200.869C130.318 200.935 130.234 200.992 130.163 201.056ZM140.107 201.745C141.847 202.996 142.626 205.306 142.029 207.35C141.197 210.179 136.684 208.718 135.04 207.945C133.065 207.016 131.924 205.222 132.287 203.041C132.379 202.496 132.58 202.002 132.82 201.535C135.252 200.716 137.885 200.149 140.107 201.745Z" fill="url(#paint35_linear_22_308)"/>
<path id="Vector_37" d="M118.192 225.884C114.161 226.683 109.194 229.692 109.547 234.286C108.823 236.072 107.673 237.22 109.39 239.242C109.77 239.692 110.479 239.748 111.004 239.62C117.266 238.101 121.419 234.476 120.658 227.648C120.513 226.342 119.458 225.637 118.192 225.884ZM111.457 235.932C111.542 235.569 111.641 235.203 111.754 234.844C112.475 233.993 113.08 233.066 113.814 232.18C114.647 231.175 115.737 230.608 116.905 230.2C116.824 231.429 116.485 232.581 115.538 233.615C114.526 234.713 112.945 235.39 111.457 235.932Z" fill="url(#paint36_linear_22_308)"/>
<path id="Vector_38" d="M124.661 246.286C125.498 245.92 126.266 245.42 127.045 244.943C127.021 245.675 127.119 246.365 127.011 247.176C126.862 248.293 128.478 249.073 128.984 247.898C129.329 247.092 129.935 246.576 130.23 245.778C130.65 244.653 131.258 243.746 132.063 242.859C133.133 241.692 132.287 239.616 130.629 239.726C127.151 239.96 124.668 241.919 123.48 245.188C123.254 245.814 124.052 246.556 124.661 246.286Z" fill="url(#paint37_linear_22_308)"/>
<path id="Vector_39" d="M111.415 215.221C110.742 216.251 111.242 217.535 111.691 218.525C111.852 218.885 112.338 219.083 112.703 219.067C114.63 218.992 117.755 218.935 118.53 216.7C119.023 215.266 118.025 214.263 117.323 213.162C117.095 212.804 116.424 212.737 116.253 213.198C115.99 213.897 116.063 214.607 116.196 215.329C116.415 216.525 114.811 216.705 113.593 216.749C113.554 215.521 115.121 214.54 115.567 213.337C116.031 212.086 114.205 211.079 113.689 212.357C113.217 213.531 112.093 214.175 111.415 215.221Z" fill="url(#paint38_linear_22_308)"/>
<path id="Vector_40" d="M93.0744 225.101C94.7528 224.644 96.215 223.63 97.8999 223.201C99.4658 222.806 100.359 224.467 100.907 225.931C100.339 226.17 99.7836 226.43 99.2007 226.627C99.0849 226.67 99.0568 226.671 98.9738 226.696C98.9659 226.09 99.0947 225.396 99.0835 224.851C99.0469 223.296 96.679 223.393 96.6815 224.938C96.6821 226.34 95.667 228.056 96.8538 229.245C98.5218 230.909 101.766 229.141 103.441 228.443C104.257 228.107 104.86 227.297 104.549 226.378C103.568 223.433 102.111 220.255 98.6603 219.95C96.1296 219.722 93.4494 222.09 92.1647 224.003C91.7671 224.593 92.4874 225.257 93.0744 225.101Z" fill="url(#paint39_linear_22_308)"/>
</g>
<g id="Group_8">
<path id="Vector_41" d="M249.363 358.508C248.376 359.186 247.798 360.378 247.01 361.255C246.8 361.488 246.853 361.775 247.02 361.969C247.002 362.243 247.106 362.531 247.285 362.743C247.574 363.083 247.869 363.418 248.163 363.751C248.544 364.187 249.277 364.078 249.64 363.7C250.87 362.422 252.08 361.13 253.3 359.843C253.882 359.225 253.528 358.233 252.736 358.032C251.529 357.721 250.41 357.787 249.363 358.508Z" fill="url(#paint40_linear_22_308)"/>
<path id="Vector_42" d="M252.748 366.028C253.604 366.476 254.457 366.935 255.414 367.127C256.65 367.369 257.94 367.122 259.163 366.919C259.95 366.789 260.129 365.626 259.573 365.152C258.216 364.004 256.97 364.473 255.423 364.542C255.778 364.268 256.122 363.986 256.411 363.641C256.868 363.105 256.228 362.238 255.604 362.657C254.572 363.342 253.453 363.705 252.49 364.533C252.011 364.945 252.244 365.768 252.748 366.028Z" fill="url(#paint41_linear_22_308)"/>
<path id="Vector_43" d="M248.828 344.798C248.741 344.884 248.71 344.989 248.709 345.094C247.92 346.672 247.886 348.476 249.314 350.105C251.292 352.361 256.208 353.589 258.296 350.791C259.883 348.668 259.195 345.712 257.417 343.942C256.265 342.801 254.789 342.466 253.317 342.633C253.776 342.174 253.296 341.178 252.623 341.478C251.176 342.125 249.81 343.297 248.978 344.675C248.93 344.719 248.875 344.756 248.828 344.798ZM255.363 345.251C256.507 346.073 257.019 347.591 256.626 348.934C256.08 350.794 253.114 349.834 252.033 349.326C250.736 348.715 249.986 347.536 250.224 346.102C250.285 345.744 250.417 345.42 250.575 345.113C252.172 344.575 253.903 344.202 255.363 345.251Z" fill="url(#paint42_linear_22_308)"/>
<path id="Vector_44" d="M240.961 361.115C238.312 361.64 235.048 363.617 235.28 366.636C234.804 367.81 234.048 368.564 235.177 369.893C235.426 370.189 235.892 370.226 236.237 370.142C240.352 369.143 243.082 366.761 242.582 362.274C242.486 361.416 241.793 360.952 240.961 361.115ZM236.535 367.718C236.591 367.48 236.656 367.239 236.73 367.003C237.204 366.444 237.601 365.835 238.084 365.252C238.631 364.591 239.347 364.219 240.115 363.951C240.062 364.759 239.839 365.515 239.217 366.195C238.552 366.917 237.513 367.362 236.535 367.718Z" fill="url(#paint43_linear_22_308)"/>
<path id="Vector_45" d="M245.213 374.522C245.763 374.282 246.267 373.954 246.78 373.64C246.764 374.121 246.828 374.574 246.758 375.107C246.659 375.842 247.722 376.354 248.054 375.582C248.281 375.052 248.679 374.713 248.873 374.189C249.149 373.45 249.549 372.853 250.077 372.271C250.781 371.503 250.224 370.139 249.135 370.212C246.849 370.366 245.218 371.653 244.437 373.801C244.288 374.212 244.813 374.7 245.213 374.522Z" fill="url(#paint44_linear_22_308)"/>
<path id="Vector_46" d="M236.507 354.107C236.065 354.784 236.393 355.628 236.689 356.278C236.794 356.515 237.113 356.645 237.354 356.634C238.62 356.585 240.674 356.548 241.183 355.079C241.507 354.137 240.851 353.477 240.39 352.754C240.24 352.519 239.799 352.474 239.687 352.777C239.514 353.237 239.562 353.704 239.649 354.178C239.793 354.964 238.739 355.083 237.938 355.112C237.913 354.305 238.943 353.66 239.236 352.869C239.541 352.047 238.341 351.385 238.002 352.225C237.691 352.996 236.953 353.419 236.507 354.107Z" fill="url(#paint45_linear_22_308)"/>
<path id="Vector_47" d="M224.454 360.6C225.557 360.3 226.518 359.634 227.626 359.351C228.655 359.092 229.242 360.184 229.602 361.146C229.228 361.302 228.863 361.473 228.48 361.603C228.404 361.631 228.386 361.632 228.331 361.649C228.326 361.25 228.411 360.794 228.403 360.436C228.379 359.414 226.823 359.477 226.825 360.492C226.825 361.414 226.158 362.542 226.938 363.323C228.034 364.417 230.166 363.255 231.267 362.796C231.803 362.575 232.199 362.043 231.995 361.439C231.35 359.503 230.393 357.416 228.125 357.214C226.462 357.065 224.701 358.621 223.857 359.878C223.595 360.266 224.069 360.702 224.454 360.6Z" fill="url(#paint46_linear_22_308)"/>
</g>
</g>
</g>
</g>
<defs>
<linearGradient id="paint0_linear_22_308" x1="112.543" y1="332.87" x2="112.543" y2="338.749" gradientUnits="userSpaceOnUse">
<stop offset="0.136342" stop-color="#BBD2C5"/>
<stop offset="0.860343" stop-color="#536976"/>
</linearGradient>
<linearGradient id="paint1_linear_22_308" x1="137.161" y1="298.036" x2="137.161" y2="332.496" gradientUnits="userSpaceOnUse">
<stop offset="0.136342" stop-color="#BBD2C5"/>
<stop offset="0.860343" stop-color="#536976"/>
</linearGradient>
<linearGradient id="paint2_linear_22_308" x1="136.47" y1="306.934" x2="136.47" y2="332.539" gradientUnits="userSpaceOnUse">
<stop offset="0.136342" stop-color="#BBD2C5"/>
<stop offset="0.860343" stop-color="#536976"/>
</linearGradient>
<linearGradient id="paint3_linear_22_308" x1="168.43" y1="298.81" x2="168.43" y2="324.633" gradientUnits="userSpaceOnUse">
<stop offset="0.136342" stop-color="#BBD2C5"/>
<stop offset="0.860343" stop-color="#536976"/>
</linearGradient>
<linearGradient id="paint4_linear_22_308" x1="182.062" y1="296.004" x2="182.062" y2="308.006" gradientUnits="userSpaceOnUse">
<stop offset="0.136342" stop-color="#BBD2C5"/>
<stop offset="0.860343" stop-color="#536976"/>
</linearGradient>
<linearGradient id="paint5_linear_22_308" x1="194.935" y1="292.534" x2="194.935" y2="298.169" gradientUnits="userSpaceOnUse">
<stop offset="0.136342" stop-color="#BBD2C5"/>
<stop offset="0.860343" stop-color="#536976"/>
</linearGradient>
<linearGradient id="paint6_linear_22_308" x1="195.328" y1="343.838" x2="195.328" y2="345.872" gradientUnits="userSpaceOnUse">
<stop offset="0.136342" stop-color="#BBD2C5"/>
<stop offset="0.860343" stop-color="#536976"/>
</linearGradient>
<linearGradient id="paint7_linear_22_308" x1="197.978" y1="318.09" x2="197.978" y2="325.326" gradientUnits="userSpaceOnUse">
<stop offset="0.136342" stop-color="#BBD2C5"/>
<stop offset="0.860343" stop-color="#536976"/>
</linearGradient>
<linearGradient id="paint8_linear_22_308" x1="204.236" y1="322.715" x2="204.236" y2="325.344" gradientUnits="userSpaceOnUse">
<stop offset="0.136342" stop-color="#BBD2C5"/>
<stop offset="0.860343" stop-color="#536976"/>
</linearGradient>
<linearGradient id="paint9_linear_22_308" x1="182.121" y1="387.17" x2="182.121" y2="447.482" gradientUnits="userSpaceOnUse">
<stop offset="0.136342" stop-color="#BBD2C5"/>
<stop offset="0.860343" stop-color="#536976"/>
</linearGradient>
<linearGradient id="paint10_linear_22_308" x1="42.337" y1="387.432" x2="42.337" y2="411.314" gradientUnits="userSpaceOnUse">
<stop offset="0.136342" stop-color="#BBD2C5"/>
<stop offset="0.860343" stop-color="#536976"/>
</linearGradient>
<linearGradient id="paint11_linear_22_308" x1="134.448" y1="154.654" x2="134.448" y2="449.695" gradientUnits="userSpaceOnUse">
<stop offset="0.136342" stop-color="#BBD2C5"/>
<stop offset="0.860343" stop-color="#536976"/>
</linearGradient>
<linearGradient id="paint12_linear_22_308" x1="22.3261" y1="398.559" x2="22.3261" y2="416.127" gradientUnits="userSpaceOnUse">
<stop offset="0.136342" stop-color="#BBD2C5"/>
<stop offset="0.860343" stop-color="#536976"/>
</linearGradient>
<linearGradient id="paint13_linear_22_308" x1="147.382" y1="358.694" x2="147.382" y2="374.677" gradientUnits="userSpaceOnUse">
<stop offset="0.136342" stop-color="#BBD2C5"/>
<stop offset="0.860343" stop-color="#536976"/>
</linearGradient>
<linearGradient id="paint14_linear_22_308" x1="92.6562" y1="270.485" x2="92.6562" y2="293.374" gradientUnits="userSpaceOnUse">
<stop offset="0.136342" stop-color="#BBD2C5"/>
<stop offset="0.860343" stop-color="#536976"/>
</linearGradient>
<linearGradient id="paint15_linear_22_308" x1="24.2795" y1="60.8074" x2="24.2795" y2="65.3573" gradientUnits="userSpaceOnUse">
<stop offset="0.136342" stop-color="#BBD2C5"/>
<stop offset="0.860343" stop-color="#536976"/>
</linearGradient>
<linearGradient id="paint16_linear_22_308" x1="26.391" y1="55.356" x2="26.391" y2="61.0284" gradientUnits="userSpaceOnUse">
<stop offset="0.136342" stop-color="#BBD2C5"/>
<stop offset="0.860343" stop-color="#536976"/>
</linearGradient>
<linearGradient id="paint17_linear_22_308" x1="29.2042" y1="68.0979" x2="29.2042" y2="73.3422" gradientUnits="userSpaceOnUse">
<stop offset="0.136342" stop-color="#BBD2C5"/>
<stop offset="0.860343" stop-color="#536976"/>
</linearGradient>
<linearGradient id="paint18_linear_22_308" x1="33.3252" y1="61.5046" x2="33.3252" y2="65.5211" gradientUnits="userSpaceOnUse">
<stop offset="0.136342" stop-color="#BBD2C5"/>
<stop offset="0.860343" stop-color="#536976"/>
</linearGradient>
<linearGradient id="paint19_linear_22_308" x1="26.8612" y1="76.0361" x2="26.8612" y2="82.2457" gradientUnits="userSpaceOnUse">
<stop offset="0.136342" stop-color="#BBD2C5"/>
<stop offset="0.860343" stop-color="#536976"/>
</linearGradient>
<linearGradient id="paint20_linear_22_308" x1="49.403" y1="0" x2="49.403" y2="186.722" gradientUnits="userSpaceOnUse">
<stop offset="0.136342" stop-color="#BBD2C5"/>
<stop offset="0.860343" stop-color="#536976"/>
</linearGradient>
<linearGradient id="paint21_linear_22_308" x1="75.1144" y1="31.7053" x2="75.1144" y2="38.0187" gradientUnits="userSpaceOnUse">
<stop offset="0.136342" stop-color="#BBD2C5"/>
<stop offset="0.860343" stop-color="#536976"/>
</linearGradient>
<linearGradient id="paint22_linear_22_308" x1="84.4948" y1="32.2129" x2="84.4948" y2="40.3367" gradientUnits="userSpaceOnUse">
<stop offset="0.136342" stop-color="#BBD2C5"/>
<stop offset="0.860343" stop-color="#536976"/>
</linearGradient>
<linearGradient id="paint23_linear_22_308" x1="87.6475" y1="41.4409" x2="87.6475" y2="44.5945" gradientUnits="userSpaceOnUse">
<stop offset="0.136342" stop-color="#BBD2C5"/>
<stop offset="0.860343" stop-color="#536976"/>
</linearGradient>
<linearGradient id="paint24_linear_22_308" x1="87.8761" y1="47.2625" x2="87.8761" y2="51.6524" gradientUnits="userSpaceOnUse">
<stop offset="0.136342" stop-color="#BBD2C5"/>
<stop offset="0.860343" stop-color="#536976"/>
</linearGradient>
<linearGradient id="paint25_linear_22_308" x1="95.2947" y1="41.3716" x2="95.2947" y2="48.1391" gradientUnits="userSpaceOnUse">
<stop offset="0.136342" stop-color="#BBD2C5"/>
<stop offset="0.860343" stop-color="#536976"/>
</linearGradient>
<linearGradient id="paint26_linear_22_308" x1="332.169" y1="349.369" x2="332.169" y2="403.129" gradientUnits="userSpaceOnUse">
<stop offset="0.136342" stop-color="#BBD2C5"/>
<stop offset="0.860343" stop-color="#536976"/>
</linearGradient>
<linearGradient id="paint27_linear_22_308" x1="330.498" y1="365.469" x2="330.498" y2="388.63" gradientUnits="userSpaceOnUse">
<stop offset="0.136342" stop-color="#BBD2C5"/>
<stop offset="0.860343" stop-color="#536976"/>
</linearGradient>
<linearGradient id="paint28_linear_22_308" x1="318.954" y1="368.389" x2="318.954" y2="382.885" gradientUnits="userSpaceOnUse">
<stop offset="0.136342" stop-color="#BBD2C5"/>
<stop offset="0.860343" stop-color="#536976"/>
</linearGradient>
<linearGradient id="paint29_linear_22_308" x1="304.781" y1="412.194" x2="304.781" y2="437.731" gradientUnits="userSpaceOnUse">
<stop offset="0.136342" stop-color="#BBD2C5"/>
<stop offset="0.860343" stop-color="#536976"/>
</linearGradient>
<linearGradient id="paint30_linear_22_308" x1="313.919" y1="388.158" x2="313.919" y2="449.376" gradientUnits="userSpaceOnUse">
<stop offset="0.136342" stop-color="#BBD2C5"/>
<stop offset="0.860343" stop-color="#536976"/>
</linearGradient>
<linearGradient id="paint31_linear_22_308" x1="280.315" y1="390.135" x2="280.315" y2="401.274" gradientUnits="userSpaceOnUse">
<stop offset="0.136342" stop-color="#BBD2C5"/>
<stop offset="0.860343" stop-color="#536976"/>
</linearGradient>
<linearGradient id="paint32_linear_22_308" x1="283.258" y1="381.593" x2="283.258" y2="391.948" gradientUnits="userSpaceOnUse">
<stop offset="0.136342" stop-color="#BBD2C5"/>
<stop offset="0.860343" stop-color="#536976"/>
</linearGradient>
<linearGradient id="paint33_linear_22_308" x1="132.298" y1="220.925" x2="132.298" y2="230.325" gradientUnits="userSpaceOnUse">
<stop offset="0.136342" stop-color="#BBD2C5"/>
<stop offset="0.860343" stop-color="#536976"/>
</linearGradient>
<linearGradient id="paint34_linear_22_308" x1="141.17" y1="228.062" x2="141.17" y2="235.185" gradientUnits="userSpaceOnUse">
<stop offset="0.136342" stop-color="#BBD2C5"/>
<stop offset="0.860343" stop-color="#536976"/>
</linearGradient>
<linearGradient id="paint35_linear_22_308" x1="137.539" y1="195.92" x2="137.539" y2="212.637" gradientUnits="userSpaceOnUse">
<stop offset="0.136342" stop-color="#BBD2C5"/>
<stop offset="0.860343" stop-color="#536976"/>
</linearGradient>
<linearGradient id="paint36_linear_22_308" x1="114.621" y1="225.835" x2="114.621" y2="239.68" gradientUnits="userSpaceOnUse">
<stop offset="0.136342" stop-color="#BBD2C5"/>
<stop offset="0.860343" stop-color="#536976"/>
</linearGradient>
<linearGradient id="paint37_linear_22_308" x1="127.99" y1="239.722" x2="127.99" y2="248.483" gradientUnits="userSpaceOnUse">
<stop offset="0.136342" stop-color="#BBD2C5"/>
<stop offset="0.860343" stop-color="#536976"/>
</linearGradient>
<linearGradient id="paint38_linear_22_308" x1="114.874" y1="211.765" x2="114.874" y2="219.068" gradientUnits="userSpaceOnUse">
<stop offset="0.136342" stop-color="#BBD2C5"/>
<stop offset="0.860343" stop-color="#536976"/>
</linearGradient>
<linearGradient id="paint39_linear_22_308" x1="98.3412" y1="219.934" x2="98.3412" y2="229.937" gradientUnits="userSpaceOnUse">
<stop offset="0.136342" stop-color="#BBD2C5"/>
<stop offset="0.860343" stop-color="#536976"/>
</linearGradient>
<linearGradient id="paint40_linear_22_308" x1="250.231" y1="357.856" x2="250.231" y2="364.034" gradientUnits="userSpaceOnUse">
<stop offset="0.136342" stop-color="#BBD2C5"/>
<stop offset="0.860343" stop-color="#536976"/>
</linearGradient>
<linearGradient id="paint41_linear_22_308" x1="256.062" y1="362.546" x2="256.062" y2="367.227" gradientUnits="userSpaceOnUse">
<stop offset="0.136342" stop-color="#BBD2C5"/>
<stop offset="0.860343" stop-color="#536976"/>
</linearGradient>
<linearGradient id="paint42_linear_22_308" x1="253.675" y1="341.423" x2="253.675" y2="352.409" gradientUnits="userSpaceOnUse">
<stop offset="0.136342" stop-color="#BBD2C5"/>
<stop offset="0.860343" stop-color="#536976"/>
</linearGradient>
<linearGradient id="paint43_linear_22_308" x1="238.614" y1="361.083" x2="238.614" y2="370.181" gradientUnits="userSpaceOnUse">
<stop offset="0.136342" stop-color="#BBD2C5"/>
<stop offset="0.860343" stop-color="#536976"/>
</linearGradient>
<linearGradient id="paint44_linear_22_308" x1="247.401" y1="370.209" x2="247.401" y2="375.966" gradientUnits="userSpaceOnUse">
<stop offset="0.136342" stop-color="#BBD2C5"/>
<stop offset="0.860343" stop-color="#536976"/>
</linearGradient>
<linearGradient id="paint45_linear_22_308" x1="238.781" y1="351.836" x2="238.781" y2="356.635" gradientUnits="userSpaceOnUse">
<stop offset="0.136342" stop-color="#BBD2C5"/>
<stop offset="0.860343" stop-color="#536976"/>
</linearGradient>
<linearGradient id="paint46_linear_22_308" x1="227.916" y1="357.204" x2="227.916" y2="363.778" gradientUnits="userSpaceOnUse">
<stop offset="0.136342" stop-color="#BBD2C5"/>
<stop offset="0.860343" stop-color="#536976"/>
</linearGradient>
</defs>
</svg>
