<svg width="184" height="15" viewBox="0 0 184 15" fill="none" xmlns="http://www.w3.org/2000/svg">
<path d="M93.1274 14.4343C92.8921 14.728 92.4477 14.7351 92.2031 14.4491L87.2883 8.70034C85.8136 6.41438 85.5898 4.23743 86.6952 2.15472C86.716 2.11558 86.7424 2.07767 86.7721 2.04476C88.6293 -0.014218 90.9306 1.25997 92.4392 3.36239C92.7095 3.73905 93.3 3.74402 93.5737 3.3699C95.2184 1.12238 97.3766 0.26907 99.2409 2.00201C99.265 2.02447 99.2883 2.05055 99.3079 2.0771C101.023 4.40322 99.1615 6.44608 97.9115 8.46375L93.1274 14.4343Z" fill="#ABC1B9" stroke="white" stroke-width="0.6" stroke-miterlimit="8.7" stroke-linecap="round" stroke-linejoin="bevel"/>
<line x1="1" y1="7.56465" x2="85.8212" y2="7.56466" stroke="#1A1C1F" stroke-opacity="0.75" stroke-width="0.9"/>
<line x1="0.55" y1="10.686" x2="0.55" y2="4.67509" stroke="#1A1C1F" stroke-opacity="0.75" stroke-width="0.9"/>
<line x1="183.55" y1="10.686" x2="183.55" y2="4.67509" stroke="#1A1C1F" stroke-opacity="0.75" stroke-width="0.9"/>
<line x1="99.179" y1="7.56465" x2="184" y2="7.56464" stroke="#1A1C1F" stroke-opacity="0.75" stroke-width="0.9"/>
</svg>
