<svg width="350" height="345" viewBox="0 0 350 345" fill="none" xmlns="http://www.w3.org/2000/svg">
<g id="Group">
<g id="Group_2">
<path id="Vector" d="M244.8 44.5165C244.552 44.3367 244.104 44.4158 244.017 44.7422C243.664 46.0609 244.343 47.5322 244.478 48.8644C244.599 50.0444 244.489 51.446 243.58 52.3101C242.976 52.8788 243.705 53.848 244.388 53.3336C245.581 52.4281 246.123 51.2112 246.299 49.7451C246.485 48.1834 246.156 45.5062 244.8 44.5165Z" fill="url(#paint0_linear_22_363)"/>
<path id="Vector_2" d="M238.557 72.1006C237.61 73.9962 236.509 75.7422 235.206 77.4139C234.033 78.9244 232.364 80.0292 231.335 81.6243C231.061 82.0451 231.46 82.5953 231.95 82.4033C235.597 80.9678 238.184 75.9298 239.77 72.5777C240.134 71.814 238.931 71.3567 238.557 72.1006Z" fill="url(#paint1_linear_22_363)"/>
<path id="Vector_3" d="M244.026 69.743C244.183 69.6742 243.979 69.7222 244.026 69.743V69.743Z" fill="url(#paint2_linear_22_363)"/>
<path id="Vector_4" d="M244.006 69.7535C244.019 69.749 244.021 69.7476 244.031 69.7455L244.027 69.7434C244.016 69.7485 244.021 69.7476 244.006 69.7535Z" fill="url(#paint3_linear_22_363)"/>
<path id="Vector_5" d="M296.193 94.9539C299.02 94.8831 301.782 92.5949 300.94 89.5624C300.264 87.1272 296.289 85.0968 294.355 87.3927C294.158 87.6263 294.286 88.0228 294.563 88.1207C296.199 88.6975 298.231 87.9086 299.044 89.964C299.717 91.6823 298.146 92.6543 296.709 93.0821C296.602 92.145 296.905 91.2345 296.699 90.2625C296.538 89.4997 295.43 89.6476 295.498 90.4305C295.553 91.0659 295.303 91.6081 295.181 92.2164C295.042 92.9019 295.072 93.5485 295.228 94.2285C295.342 94.7243 295.693 94.9681 296.193 94.9539Z" fill="url(#paint4_linear_22_363)"/>
<path id="Vector_6" d="M285.103 90.1647C284.154 93.181 282.881 95.919 281.109 98.5505C279.353 101.163 276.862 103.105 274.975 105.584C274.659 106 275.136 106.638 275.623 106.404C281.171 103.736 285.457 96.3677 286.182 90.4339C286.258 89.8122 285.298 89.5463 285.103 90.1647Z" fill="url(#paint5_linear_22_363)"/>
<path id="Vector_7" d="M281.647 109.051C285.694 105.323 287.269 99.2449 288.262 94.0268C288.396 93.3212 287.319 93.2161 287.166 93.8985C285.949 99.3608 283.615 103.689 280.946 108.533C280.731 108.925 281.33 109.342 281.647 109.051Z" fill="url(#paint6_linear_22_363)"/>
<path id="Vector_8" d="M308.957 88.0247C311.518 89.182 315.202 90.4628 318.038 90.041C318.448 89.98 318.575 89.4474 318.251 89.1999C316.321 87.7198 313.584 87.4927 311.296 86.8191C308.348 85.9521 305.711 84.4741 303.783 82.0464C303.297 81.4347 302.475 82.1452 302.858 82.775C304.355 85.2332 306.341 86.8439 308.957 88.0247Z" fill="url(#paint7_linear_22_363)"/>
<path id="Vector_9" d="M314.084 91.7308C314.557 91.609 314.761 90.896 314.203 90.707C312.574 90.149 310.814 90.1262 309.152 89.6224C306.85 88.9201 304.916 87.2865 303.79 85.1824C303.529 84.6973 302.763 85.0003 302.996 85.5162C304.816 89.5938 309.377 92.9171 314.084 91.7308Z" fill="url(#paint8_linear_22_363)"/>
<path id="Vector_10" d="M319.472 60.9368C313.277 62.9942 308.336 68.0093 305.146 73.5691C304.805 74.158 305.631 74.8057 306.019 74.2101C309.589 68.7447 314.819 65.5019 319.89 61.6423C320.278 61.3459 319.898 60.7939 319.472 60.9368Z" fill="url(#paint9_linear_22_363)"/>
<path id="Vector_11" d="M309.072 72.6137C310.791 71.2766 312.644 70.1906 314.396 68.9203C314.708 68.6917 314.47 68.2078 314.111 68.2502C311.928 68.5032 310.007 70.4082 308.366 71.72C307.792 72.1783 308.492 73.065 309.072 72.6137Z" fill="url(#paint10_linear_22_363)"/>
<path id="Vector_12" d="M288.656 27.7878C287.837 28.3444 288.654 29.4738 289.488 29.1966C291.525 28.5261 300.799 25.5325 298.77 32.1643C298.407 33.354 299.716 34.5048 300.788 33.66C302.462 34.553 304.139 35.4447 305.813 36.3416C305.376 37.5706 306.785 38.612 307.834 37.8377C316.641 31.3507 310.583 46.8234 308.844 49.633C304.829 56.1169 300.906 62.7497 298.387 69.9705C298.314 70.1806 298.402 70.3621 298.536 70.5077C298.08 70.5105 297.626 70.5938 297.177 70.7135C298.368 69.5813 299.048 67.8705 298.689 66.2412C298.361 64.75 297.173 63.5932 295.636 63.5184C295.639 63.4628 295.678 63.4272 295.659 63.3652C295.195 61.4685 294.955 59.5331 294.87 57.5825C294.795 55.817 295.02 53.8821 294.39 52.2055C294.216 51.7382 293.528 51.7752 293.354 52.2191C292.053 55.5458 293.15 60.435 294.526 63.6087C294.148 63.72 293.791 63.9083 293.459 64.1282C293.253 63.7999 292.785 63.6128 292.449 63.9013C290.348 65.6975 288.762 68.2396 288.716 71.066C288.705 71.7588 289.092 72.3893 289.832 72.4786C291.319 72.6525 292.898 72.6538 294.352 72.2683C293.565 73.0628 293.001 74.0256 292.693 75.0255C292.024 73.9911 290.542 73.3316 289.404 73.4884C289.307 73.1404 288.853 72.8703 288.515 73.1542C287.196 74.2552 284.981 75.9347 285.7 77.9467C285.925 78.5758 286.432 78.9257 287.029 79.1124C285.051 79.5727 283.325 81.2871 283.268 83.3963C283.261 83.6584 283.38 83.8289 283.534 83.9504C283.516 85.8655 284.158 87.8119 285.512 89.0999C288.051 91.5163 291.658 88.3189 292.621 85.8967C293.652 83.2882 292.142 80.4339 289.705 79.3216C289.57 79.259 289.427 79.2428 289.29 79.1996C289.369 79.184 289.457 79.1729 289.533 79.156C290.611 78.9238 291.849 78.4209 292.54 77.5147C292.783 78.6501 293.516 79.6408 294.845 80.2829C293.867 81.0067 293.063 82.074 293.078 83.3423C293.087 84.3096 293.656 85.2415 294.628 85.505C297.412 86.2549 299.025 82.9131 299.064 80.6544C300.212 80.3043 301.23 79.5781 301.896 78.4651C303.047 76.5403 303.117 73.9619 301.794 72.1037C301.483 71.6644 301.094 71.351 300.683 71.0985C302.945 62.3002 308.375 54.4766 314.86 48.2249C317.206 45.9592 321.125 47.9765 324.349 45.7043C340.291 34.4847 342.424 60.449 337.161 69.4051C331.284 79.4185 317.172 76.99 307.731 76.9627C307.353 76.9624 307.115 77.3321 307.18 77.634C307.061 77.6168 306.927 77.6009 306.82 77.5821C306.115 77.4595 305.822 78.5906 306.516 78.8011C312.082 80.4993 345.515 81.7756 340.746 91.0729C340.249 92.0445 341.28 93.0331 342.221 92.9406C355.423 91.6065 341.693 112.324 337.687 115.484C334.201 118.235 329.842 114.495 326.394 114.013C321.216 113.284 317.412 113.758 312.958 109.197C309.833 106 308.226 101.598 305.997 97.7975C305.568 97.0675 304.175 97.2353 304.414 98.2344C306.698 107.816 313.105 115.341 323.1 116.042C331.287 116.613 334.754 121.931 341.636 115.609C347.383 110.33 356.885 90.5843 344.026 90.1324C345.809 82.8838 334.875 80.1915 324.239 78.9917C332.917 77.202 340.47 71.727 342.166 62.3313C343.176 56.7412 342.178 45.1155 336.719 41.5692C334.112 39.8785 331.872 39.347 328.796 40.0058C325.332 40.7478 322.083 47.2739 317.878 44.4361C317.55 44.2143 317.122 44.2035 316.805 44.4531C315.006 45.8713 313.193 47.4934 311.446 49.2632C311.631 48.9622 311.806 48.6604 311.993 48.362C313.78 45.5115 314.684 42.2279 315.07 38.9112C315.705 33.4745 312.421 32.9147 308.975 34.3056C309.458 29.6137 305.793 27.9348 301.469 30.1236C300.854 24.681 293.13 24.7233 288.656 27.7878ZM291.362 69.9711C291.456 69.3267 291.61 68.712 291.841 68.1329C291.848 68.1305 291.855 68.1331 291.863 68.1291C292.96 67.5022 294.157 66.2813 295.38 66.1524C295.658 66.1255 295.669 66.1642 295.893 66.3517C295.763 66.2403 295.944 66.4624 295.947 66.4659C296.092 66.7552 296.019 66.5464 296.078 66.8746C296.479 69.1377 293.596 69.8978 291.362 69.9711ZM290.292 76.5887C290.414 76.5085 289.956 76.7476 289.852 76.7922C289.62 76.8927 289.357 76.9742 289.231 77.0051C288.744 77.1269 288.326 77.1669 287.967 77.1376C287.73 77.1189 287.603 77.0847 287.589 77.0815C287.518 77.0584 287.52 77.057 287.504 77.0513C287.492 77.0318 287.481 77.0113 287.48 76.9997C287.491 76.7395 287.601 76.5019 287.705 76.2676C287.989 75.6216 288.423 75.0312 288.878 74.4714C289.314 75.014 290.059 75.4468 290.596 75.884C290.684 75.9601 290.795 76.1184 290.792 76.1149C290.808 76.1455 290.814 76.1561 290.822 76.1735C290.809 76.1781 290.785 76.197 290.692 76.3048C290.837 76.1326 290.404 76.5134 290.292 76.5887ZM288.659 81.3522C290.1 81.8479 290.824 83.3974 290.58 84.8261C290.331 86.2974 288.066 88.6448 286.62 87.2289C285.646 86.2736 285.047 84.7309 284.98 83.2704C285.956 82.087 286.88 80.7426 288.659 81.3522ZM295.556 80.8876C295.816 81.5016 296.37 81.5381 296.95 81.5134C296.734 82.5552 296.288 83.749 295.228 83.6839C294.07 83.6141 295.305 81.3336 295.549 80.8256C295.556 80.8456 295.548 80.8673 295.556 80.8876ZM299.57 73.386C300.347 74.2154 300.378 75.5134 300.04 76.5376C299.653 77.7072 298.696 78.4874 297.438 78.4174C296.244 78.3503 294.868 78.051 294.522 76.7577C294.184 75.4933 294.679 74.0656 295.337 72.9889C295.373 72.9248 295.359 72.8542 295.373 72.7874L295.377 72.7866C296.665 72.6791 298.547 72.2974 299.57 73.386ZM299.625 70.6495C299.501 70.6185 299.379 70.5901 299.251 70.5696C299.281 70.5408 299.321 70.5414 299.345 70.4986C299.484 70.2521 299.62 70.002 299.757 69.7538C299.709 70.051 299.664 70.3499 299.625 70.6495Z" fill="url(#paint11_linear_22_363)"/>
<path id="Vector_13" d="M245.581 98.7474C245.219 99.326 244.65 99.6754 244.224 100.202C243.717 100.826 243.709 101.695 243.87 102.437C243.991 102.984 244.416 103.311 244.977 103.269C247.094 103.115 249.509 102.114 250.052 99.8644C250.622 97.5118 247.183 96.5094 245.551 97.2422C245.155 97.4199 245.007 98.0514 245.426 98.3039C245.526 98.3647 245.729 98.4383 245.969 98.5178C245.822 98.5322 245.68 98.5947 245.581 98.7474ZM247.918 99.7194C247.636 100.509 246.586 100.927 245.665 101.15C245.775 100.508 246.304 99.9797 246.604 99.3108C246.724 99.0472 246.593 98.8153 246.403 98.6666C247.179 98.934 248.075 99.2817 247.918 99.7194Z" fill="url(#paint12_linear_22_363)"/>
<path id="Vector_14" d="M239.231 110.154C240.029 111.383 241.5 111.863 242.905 111.571C244.333 111.273 245.579 110.209 245.953 108.779C246.383 107.133 245.672 104.474 243.799 104.05C243.478 103.978 243.108 104.287 243.095 104.605C243.037 105.837 244.034 106.824 243.871 108.102C243.772 108.864 243.135 109.287 242.475 109.5C239.938 110.322 240.019 106.204 240.42 104.837C240.494 104.585 240.368 104.395 240.199 104.279C241.14 104.008 241.982 103.4 242.411 102.504C243.034 101.197 241.781 98.3469 240.103 98.7053C239.852 98.7572 239.684 98.9244 239.639 99.1766C239.537 99.7648 239.987 100.247 240.228 100.75C240.364 101.031 240.496 101.571 240.479 101.63C240.361 102.058 239.795 102.293 239.138 102.391C238.484 102.484 237.922 102.307 237.69 101.996C237.666 101.965 237.74 101.489 237.849 101.213C238.16 100.435 238.76 99.7168 239.347 99.1376C239.864 98.6246 239.216 97.7408 238.629 98.2294C237.405 99.243 235.484 100.691 235.892 102.547C236.223 104.056 237.82 104.471 239.167 104.443C239.306 104.439 239.441 104.399 239.58 104.382C239.554 104.419 239.513 104.424 239.495 104.475C238.817 106.309 238.05 108.333 239.231 110.154Z" fill="url(#paint13_linear_22_363)"/>
<path id="Vector_15" d="M233.146 108.931C232 109.525 231.021 110.571 230.18 111.539C229.752 112.031 230.402 112.855 230.981 112.554C232.12 111.963 233.365 111.253 234.21 110.28C234.779 109.621 233.917 108.529 233.146 108.931Z" fill="url(#paint14_linear_22_363)"/>
<path id="Vector_16" d="M236.237 115.934C235.834 118.333 234.878 120.479 233.822 122.651C232.923 124.5 231.553 126.264 231.191 128.31C231.113 128.746 231.704 129.089 232.036 128.785C233.597 127.343 234.472 125.145 235.403 123.271C236.523 121.013 237.335 118.601 237.645 116.099C237.755 115.187 236.387 115.038 236.237 115.934Z" fill="url(#paint15_linear_22_363)"/>
<path id="Vector_17" d="M231.222 135.345C236.198 131.207 238.069 124.158 239.917 118.232C240.199 117.326 238.842 116.772 238.53 117.688C236.439 123.807 233.79 129.121 230.553 134.698C230.301 135.129 230.787 135.705 231.222 135.345Z" fill="url(#paint16_linear_22_363)"/>
<path id="Vector_18" d="M230.904 104.32C226.873 105.439 222.054 106.512 218.591 108.911C218.19 109.185 218.496 109.828 218.951 109.758C223.091 109.113 227.684 107.387 231.367 105.42C232.058 105.051 231.637 104.117 230.904 104.32Z" fill="url(#paint17_linear_22_363)"/>
<path id="Vector_19" d="M247.021 111.622C248.58 114.639 249.829 117.749 250.957 120.947C252.283 124.701 252.546 128.737 253.932 132.438C254.071 132.808 254.624 132.705 254.671 132.332C255.565 125.217 251.392 117.196 248.053 111.189C247.709 110.567 246.685 110.976 247.021 111.622Z" fill="url(#paint18_linear_22_363)"/>
<path id="Vector_20" d="M255.7 131.705C255.749 132.038 256.231 132.103 256.355 131.782C257.281 129.356 256.764 126.149 255.667 123.862C255.421 123.348 254.661 123.672 254.854 124.204C255.756 126.687 255.32 129.17 255.7 131.705Z" fill="url(#paint19_linear_22_363)"/>
<path id="Vector_21" d="M333.175 147.064C315.29 150.885 295.646 139.778 281.094 130.482C280.647 130.198 280.164 130.835 280.604 131.15C295.016 141.453 315.021 152.553 333.401 148.684C333.888 148.582 334.086 148.165 334.058 147.778C334.076 147.914 334.104 148.051 334.138 148.182C334.273 148.715 334.722 148.992 335.256 148.817C336.7 148.341 338.169 148.292 339.598 147.692C340.108 147.477 340.289 146.808 339.938 146.378C339.285 145.565 338.597 144.832 337.532 144.647C336.735 144.506 335.93 144.964 335.17 145.138C334.782 145.227 334.673 145.69 334.956 145.929C334.763 146.058 334.564 146.186 334.39 146.37C334.055 146.733 333.994 147.197 334.043 147.661C333.967 147.276 333.666 146.958 333.175 147.064ZM336.683 146.276C337.079 146.286 337.38 146.393 337.65 146.552C337.006 146.724 336.36 146.852 335.708 147.008C335.758 146.966 335.802 146.929 335.873 146.873C336.097 146.702 336.258 146.488 336.4 146.259C336.494 146.262 336.583 146.273 336.683 146.276Z" fill="url(#paint20_linear_22_363)"/>
<path id="Vector_22" d="M317.446 169.154C317.52 168.885 317.376 168.682 317.189 168.568C317.192 159.927 310.824 151.944 304.762 146.277C304.44 145.974 304.001 146.484 304.244 146.814C308.806 152.98 314.788 159.731 315.145 167.57C315.14 167.574 315.133 167.572 315.128 167.576C309.002 172.482 309.304 180.267 313.054 186.648C313.093 186.718 313.149 186.754 313.198 186.812C313.143 186.986 313.062 187.15 313.032 187.334C312.982 187.651 313.295 187.965 313.616 187.904C319.605 186.726 316.381 173.046 317.446 169.154ZM314.734 170.952C314.735 171.32 314.738 171.686 314.735 172.052C314.681 172.746 315.153 173.119 315.658 173.154C315.502 174.739 315.456 176.338 315.423 177.963C315.387 179.567 315.301 181.156 314.995 182.735C314.887 183.302 314.653 183.808 314.395 184.298C312.256 179.834 311.596 174.865 314.734 170.952Z" fill="url(#paint21_linear_22_363)"/>
<path id="Vector_23" d="M302.041 137.206C301.739 136.997 301.341 137.387 301.586 137.678C304.236 140.862 308.533 140.637 312.29 139.992C316.112 139.337 321.883 137.571 324.052 134.066C324.298 133.668 323.934 133.074 323.448 133.302C317.285 136.166 308.884 142.027 302.041 137.206Z" fill="url(#paint22_linear_22_363)"/>
<path id="Vector_24" d="M298.79 193.765C277.413 194.577 272.158 170.971 275.244 154.022C276.008 149.84 277.051 144.836 276.979 140.162C282.391 152.846 285.243 165.37 280.172 178.737C279.98 179.242 280.677 179.633 281.002 179.194C285.38 173.281 286.057 165.209 284.659 157.379C286.84 162.437 288.5 167.521 287.434 173.856C287.343 174.402 288.154 174.581 288.354 174.086C292.005 165.07 286.875 158.101 282.928 150.547C281.472 146.188 279.463 142.151 277.218 138.92C277.142 138.81 277.034 138.79 276.927 138.798C276.748 136.141 276.125 133.64 274.821 131.499C290.25 148.293 295.005 165.414 291.571 188.988C291.434 189.923 292.871 190.297 293.179 189.393C300.987 166.464 290.953 141.283 271.803 127.344C271.571 127.176 271.262 127.373 271.226 127.606C270.696 126.667 270.085 125.809 269.378 125.044C275.395 127.654 282.379 129.65 288.739 128.476C302.872 125.87 297.251 104.473 294.452 95.6425C294.183 94.7958 292.97 95.24 293.028 96.0339C293.51 102.627 295.787 108.813 295.701 115.517C295.547 127.477 284.845 127.384 276.152 124.982C272.765 124.045 269.431 122.728 266.358 121.014C262.35 118.779 262.573 114.126 261.624 110.258C260.689 106.457 257.491 105.862 254.24 106.093C258.509 94.4325 273.189 92.9664 282.449 86.346C283.131 85.8555 282.433 84.634 281.689 85.0597C277.289 87.5884 271.991 89.4545 267.028 91.7315C270.543 87.1224 268.26 79.9295 263.906 74.6312C268.408 77.912 274.596 78.611 277.805 73.3071C277.819 73.2832 277.814 73.2585 277.824 73.2364C278.525 73.4205 279.251 73.545 279.915 73.676C281.464 73.9873 283.007 74.3204 284.549 74.6611C285.287 74.8256 285.64 73.7426 285.071 73.3381C283.81 72.4417 282.436 72.0139 280.949 71.6262C279.41 71.2253 277.602 70.6625 276.008 70.9796C275.859 71.0094 275.739 71.0782 275.643 71.1646C274.238 70.0039 276.403 65.0333 276.809 64.0807C276.987 63.6687 276.848 63.039 276.439 62.8032C273.353 61.0093 269.95 60.2384 266.455 60.0018C275.276 58.8968 284.216 56.8401 289.383 50.5916C296.433 42.0757 289.964 33.9654 283.871 27.0211C282.549 25.5128 281.121 20.3838 278.575 20.0016C273.373 19.2187 270.339 20.5853 266.4 23.8841C254.958 33.4647 254.405 45.7598 250.155 58.5319C249.911 58.6479 249.762 58.9477 249.881 59.2224C249.889 59.2396 249.902 59.2547 249.908 59.2705C249.639 60.0554 249.358 60.845 249.055 61.633C248.77 62.3665 249.86 62.7827 250.183 62.0769C250.263 61.9001 250.321 61.717 250.4 61.5386C250.581 61.6941 250.831 61.7748 251.14 61.7266C251.187 61.7189 251.235 61.7139 251.282 61.7061C251.277 61.8584 251.353 61.9829 251.478 62.0635C251.683 62.7268 251.583 63.3363 250.714 63.7829C248.994 64.6643 247.961 63.2761 247.572 61.7608C247.639 61.4973 247.647 61.219 247.529 60.9529C247.493 60.8759 247.452 60.7886 247.413 60.7081C247.406 60.5823 247.392 60.4528 247.391 60.3355C247.398 60.0387 247.192 59.8645 246.969 59.8042C246.345 58.6279 245.482 57.4364 244.233 57.1767C240.559 52.855 238.058 46.4603 241.086 41.1921C241.527 40.4242 240.599 39.2563 239.856 40.0038C239.797 40.0627 239.759 40.1205 239.707 40.177C239.702 40.1742 239.699 40.1707 239.693 40.17C239.685 40.1847 239.683 40.1992 239.676 40.2122C238.804 41.1542 238.447 42.0219 238.307 43.3643C238.292 43.5168 238.34 43.6312 238.416 43.724C237.445 48.3993 239.43 52.9495 242.61 56.712C242.595 56.718 242.58 56.7131 242.568 56.7225C236.417 60.8458 224.764 46.4879 221.245 42.3778C219.829 40.7217 218.529 38.9522 217.437 37.0659C216.873 36.0961 222.201 32.9133 222.795 32.5079C228.691 28.4894 234.14 28.4149 240.944 28.238C242.034 28.2106 242.331 26.8278 241.809 26.0869C237.447 19.8739 247.893 25.5986 248.766 26.2296C253.407 29.5941 253.281 35.3583 252.382 40.4068C251.196 47.0612 247.768 53.0859 247.559 59.9394C247.535 60.7213 248.608 60.8495 248.764 60.0796C250.925 49.4266 260.676 33.2942 250.326 24.1109C245.504 19.8339 234.75 18.4036 238.422 25.6382C234.91 25.6726 231.58 25.5851 228.202 26.9639C223.602 28.8417 219.063 32.4005 215.585 35.8405C215.299 36.1254 215.112 36.5316 215.306 36.9322C218.814 44.2543 227.436 54.25 236.044 58.4607C223.053 57.9962 206.81 45.6133 199.382 61.8909C199.03 62.6622 199.648 63.4656 200.405 63.5984C202.67 63.9893 204.804 64.4937 207.036 64.59C206.602 66.0319 206.291 67.4983 205.684 68.9133C205.379 69.6251 205.907 70.5569 206.698 70.6058C212.631 70.9645 211.319 78.7952 217.198 78.4107C219.956 78.2308 222.262 77.5393 224.494 76.3877C220.333 79.4192 216.473 82.8002 213.578 87.53C210.155 93.121 213.37 95.3001 218.224 94.4224C218.092 95.4965 218.191 96.2909 218.432 96.9255C210.459 96.9214 199.185 93.4151 193.168 99.4855C192.036 100.623 192.339 102.182 192.927 103.5C194.395 106.811 197.036 108.85 196.05 112.87C195.937 113.339 196.318 113.783 196.705 113.963C202.082 116.456 200.106 125.973 206.786 126.493C216.079 127.216 223.57 119.621 230.008 113.88C230.428 113.502 230.04 112.842 229.505 113.033C223.794 115.069 208.371 132.566 203.706 121.271C202.886 119.296 202.781 117.005 201.499 115.22C200.426 113.727 198.301 112.988 198.443 111.096C198.636 108.492 193.314 102.165 194.903 100.551C200.001 95.3534 211.869 98.7878 219.253 98.1138C221.325 99.8827 225.852 99.1296 228.273 102.637C228.579 103.081 229.355 103.072 229.645 102.614C233.079 97.2085 238.399 93.5329 241.724 87.8884C244.558 83.0841 245.138 77.5063 245.067 72.0524C245.125 72.0276 245.188 72.0155 245.246 71.9876C245.183 72.1013 245.147 72.2351 245.183 72.3889C246.201 77.0895 244.122 81.6152 243.107 86.1435C242.486 88.8988 242.705 93.6364 244.531 95.9487C245.773 97.5204 249.095 95.8815 250.615 95.9815C254.079 96.2097 256.706 96.427 259.77 95.7519C255.934 98.4456 252.895 101.928 251.564 106.989C251.354 107.785 251.86 108.651 252.777 108.525C260.899 107.398 259.634 115.209 261.621 119.547C257.302 117.1 252.934 114.653 250.855 109.776C250.553 109.067 249.329 109.36 249.52 110.144C250.828 115.503 254.356 118.366 259.13 120.902C263.188 123.058 267.423 125.001 269.567 129.312C271.998 134.21 271.041 140.292 267.309 144.058C265.87 141.356 263.955 139.35 260.524 140.721C257.223 142.042 255.032 146.459 250.916 141.796C248.73 139.321 248.094 135.821 245.718 133.547C245.62 133.455 245.514 133.433 245.408 133.412C246.985 126.595 246.413 118.758 244.408 113.297C244.232 112.821 243.483 112.938 243.439 113.435C242.858 120.209 244.115 126.851 242.871 133.653C241.715 139.977 237.61 144.617 230.951 142.505C226.968 141.243 222.188 139.049 219.499 135.756C219.109 135.284 218.398 135.178 217.911 135.568C214.685 138.169 219.022 128.864 219.565 128.095C221.337 125.566 223.729 123.485 226.036 121.461C230.058 117.94 234.525 114.933 238.723 111.632C239.329 111.154 238.598 110.231 237.983 110.694C228.588 117.736 213.783 125.104 214.008 138.68C214.02 139.343 214.862 139.715 215.411 139.475C217.583 138.518 217.7 137.668 219.315 139.044C221.558 140.963 224.022 142.43 226.634 143.788C230.37 145.73 235.656 147.678 239.349 144.532C241.863 142.394 243.616 139.324 244.741 135.852C245.625 139.934 249.112 145.032 252.705 146.366C258.066 148.361 262.177 138.779 265.588 146.865C265.625 146.954 265.697 147.006 265.745 147.081C265.57 146.955 265.311 146.944 265.131 147.156C256.807 157.004 247.431 166.095 248.997 180.026C249.07 180.674 249.993 181.14 250.502 180.63C257.812 173.324 269.432 163.277 267.053 151.682C266.964 151.249 266.289 151.214 266.252 151.691C265.312 162.821 258.241 170.332 250.72 177.8C250.285 165.548 258.937 157.092 265.84 147.678C265.988 147.481 265.927 147.291 265.803 147.158C266.265 147.747 267.104 147.864 267.736 147.418C273.62 143.248 274.414 136.745 272.36 130.24C278.2 137.679 273.743 150.597 272.241 158.957C271.085 165.386 272.292 171.684 274.245 177.836C277.6 188.39 287.193 199.366 299.161 195.098C299.957 194.813 299.53 193.734 298.79 193.765ZM224.127 67.0668C223.969 67.388 224.242 67.8807 224.613 67.8796C227.039 67.8661 229.172 66.2344 231.362 65.3321C233.163 64.5911 236.113 63.6234 238.462 63.9538C231.815 66.707 227.348 74.4732 220.096 76.3767C214.328 77.8872 215.224 73.4084 212.947 70.6828C211.691 69.1809 210.284 68.5775 208.56 68.3046C209.031 66.8012 209.346 65.2616 209.986 63.7826C210.381 62.8692 209.539 62.0067 208.64 62.0783C206.489 62.2491 204.472 61.8271 202.419 61.422C209.952 47.8809 227.239 62.6405 239.037 59.6806C239.511 59.8303 239.979 59.9523 240.449 60.0618C240.43 60.1565 240.369 60.2516 240.362 60.3447C240.352 60.4454 240.375 60.5511 240.415 60.648C240.209 61.2598 240.146 61.9435 240.216 62.6824C238.027 61.2779 235.605 61.4332 232.886 62.1264C229.974 62.8642 225.552 64.172 224.127 67.0668ZM242.778 60.5976C242.878 60.3501 243.042 60.1231 243.224 59.9024C243.339 59.8408 243.449 59.773 243.571 59.7271C243.545 59.7365 243.585 59.748 243.617 59.7563C243.668 59.7905 243.808 59.886 243.864 59.947C244.114 60.2175 244.316 60.5229 244.504 60.8374C243.885 61.1058 243.268 61.341 242.611 61.5078C242.613 61.208 242.65 60.9096 242.778 60.5976ZM229.698 72.774C232.733 70.089 235.726 66.7879 239.416 65.4358C236.363 68.2202 233.025 70.5192 229.698 72.774ZM270.177 62.6333C273.384 63.219 275.353 63.9576 272.734 66.9436C272.473 67.2424 272.47 67.7067 272.605 68.0568C273.213 69.682 273.267 71.2371 273.531 72.9296C273.586 73.2873 273.844 73.6676 274.197 73.8195C270.972 76.3269 267.032 73.0223 263.03 72.4218C262.632 72.3612 262.422 72.6266 262.383 72.9352C260.108 70.6389 257.458 68.9012 254.831 68.1812C254.393 67.0563 253.562 66.0532 252.582 65.4391C252.465 65.3678 252.321 65.305 252.181 65.2406C253.202 64.476 253.659 63.3027 253.605 62.1121C256.963 62.0555 260.329 61.9356 263.687 61.9847C265.876 62.0165 268.024 62.2393 270.177 62.6333ZM251.838 71.011C251.081 71.3071 250.082 71.6819 249.261 71.4719C248.481 71.2753 248.537 69.8479 248.536 69.2599C248.536 68.8091 248.195 68.5931 247.867 68.6127C248.01 68.1858 248.114 67.7444 248.179 67.2951C249.052 67.2158 249.906 66.8869 250.834 67.2171C251.769 67.5539 252.465 68.3181 252.807 69.2333C253.135 70.1098 252.618 70.7072 251.838 71.011ZM252.555 59.5418C252.48 59.4638 252.376 59.4135 252.293 59.3393C252.516 59.4176 252.773 59.423 252.975 59.2049C253.857 58.264 254.764 57.3441 255.664 56.4184C255.288 56.9024 255.894 57.6355 256.444 57.213C260.141 54.3781 264.377 51.744 267.489 48.2562C267.744 47.9675 267.355 47.4747 267.016 47.6575C262.994 49.8135 259.515 53.1953 255.986 56.085C258.054 53.9616 260.146 51.8628 262.272 49.7996C263.796 48.3241 266.88 46.4926 267.562 44.4023C267.655 44.1185 267.446 43.8334 267.139 43.867C264.733 44.1403 262.151 47.8279 260.549 49.4043C257.581 52.322 254.696 55.3163 251.999 58.4855C251.811 58.7078 251.857 58.9172 251.97 59.0923C251.818 58.9906 251.67 58.888 251.498 58.8103C254.57 50.3176 255.321 41.1984 260.547 33.5148C262.972 29.9542 266.184 26.7412 269.469 24.0142C276.999 17.7671 277.535 23.1313 280.439 27.0824C286.632 35.5073 295.68 43.0368 283.868 52.0879C275.873 58.2106 262.553 58.1324 252.555 59.5418ZM245.105 65.4611C245.182 65.4702 245.24 65.4948 245.268 65.508C245.453 65.7076 245.556 66.0005 245.56 66.3739C245.565 67.0487 245.421 67.6303 245.184 68.2438C245.012 68.6803 244.626 69.2895 244.446 69.4631C244.178 69.7247 244.255 69.657 244.031 69.7462C244.042 69.7497 244.046 69.7579 244.094 69.7549C243.938 69.7583 244.088 69.8009 243.823 69.6826C243.328 69.4639 242.366 68.257 242.204 67.5555C242.098 67.0947 242.182 66.5957 242.351 66.1171C242.97 65.9649 243.562 65.6881 244.216 65.534C244.529 65.4589 244.847 65.4359 245.105 65.4611ZM246.393 62.8671C246.404 62.9405 246.427 63.0093 246.44 63.0814C246.35 63.0381 246.258 63.0024 246.161 62.9679C246.237 62.9343 246.313 62.8994 246.393 62.8671ZM232.263 97.5264C229.349 101.561 230.05 99.9437 227.081 98.6749C223.873 97.3035 219.336 98.3114 220.587 93.167C220.742 92.536 220.012 91.8692 219.402 92.0074C209.912 94.162 219.284 83.3397 221.921 80.717C227.526 75.1411 234.881 71.7824 240.51 66.1109C240.288 66.5498 240.124 67.0178 240.127 67.5771C240.131 69.1125 241.135 70.8448 242.382 71.7272C242.711 71.9614 243.04 72.0892 243.365 72.1773C243.297 82.5899 238.1 89.4409 232.263 97.5264ZM255.204 93.6884C252.592 93.5289 250.001 92.9209 247.404 93.4835C246.745 93.6249 246.466 93.6687 246.379 93.7343C245.831 92.4179 245.512 90.6026 245.33 89.2682C244.523 83.343 248.413 78.1467 246.515 72.0225C246.415 71.698 246.126 71.5864 245.843 71.6173C246.362 71.2272 246.81 70.6968 247.166 70.1175C247.051 72.1204 247.959 73.6747 250.28 73.5612C252.924 77.6476 252.664 81.8795 252.974 86.6299C253.005 87.0944 253.637 87.0896 253.805 86.7294C254.421 85.402 254.709 83.6489 254.672 81.8198C255.176 84.0864 255.641 86.3632 256.138 88.6625C256.228 89.0654 256.847 89.1036 256.888 88.6562C257.319 83.6231 255.277 78.4808 253.703 73.787C253.481 73.1294 252.524 73.5564 252.72 74.2024C252.864 74.6692 252.978 75.134 253.109 75.5986C252.636 74.7539 252.053 74.0151 251.36 73.4364C253.007 73.0992 254.571 72.2233 255.023 70.5835C259.365 73.6725 263.335 76.3249 265.699 81.6644C269.127 89.4061 262.486 94.1341 255.204 93.6884Z" fill="url(#paint23_linear_22_363)"/>
<path id="Vector_25" d="M264.159 150.734C261.93 154.046 259.898 157.86 258.304 161.508C258.109 161.947 258.72 162.442 259.088 162.089C262.008 159.255 263.072 154.872 265.107 151.431C265.488 150.792 264.59 150.095 264.159 150.734Z" fill="url(#paint24_linear_22_363)"/>
<path id="Vector_26" d="M140.237 79.1954C139.415 78.2453 138.329 78.0979 137.516 78.7298C137.7 78.456 137.897 78.1783 138.108 77.899C138.592 77.2526 137.597 76.5272 137.101 77.1583C135.565 79.111 134.379 81.0489 135.26 83.5609C135.422 84.0229 136.015 84.2315 136.447 84.0436C137.209 83.7117 138.099 83.4171 138.734 82.8605C139.431 82.2508 139.799 81.2223 140.259 80.4475C140.488 80.0619 140.558 79.5669 140.237 79.1954ZM136.631 81.9518C136.498 81.3195 136.557 80.7323 136.755 80.1679C136.816 80.4319 137.004 80.6558 137.309 80.7745C137.462 80.8346 137.615 80.8347 137.765 80.8096C137.654 81.0137 137.552 81.2258 137.416 81.41C137.265 81.6155 136.956 81.794 136.631 81.9518Z" fill="url(#paint25_linear_22_363)"/>
<path id="Vector_27" d="M141.04 67.9219C140.34 68.1009 139.618 68.4673 138.993 68.9279C138.822 68.7145 138.517 68.6134 138.231 68.8349C137.307 69.5476 136.697 70.5761 136.748 71.7518C136.768 72.2312 137.34 72.4739 137.74 72.3154C139.485 71.62 140.744 70.7763 141.823 69.2304C142.194 68.698 141.776 67.7326 141.04 67.9219Z" fill="url(#paint26_linear_22_363)"/>
<path id="Vector_28" d="M139.786 65.3913C141.716 64.5918 143.267 64.0616 144.621 62.3893C144.822 62.144 144.796 61.767 144.608 61.5285C144.187 60.9925 143.657 59.832 142.856 59.8772C142.032 59.9195 141.319 60.0652 140.627 60.5287C140.083 60.892 139.798 61.5052 139.607 62.1607C139.722 61.2681 140.052 60.3611 140.297 59.5831C140.521 58.8692 139.444 58.4302 139.202 59.154C138.541 61.1199 137.756 63.3061 139.01 65.1927C139.171 65.4351 139.532 65.4978 139.786 65.3913ZM140.42 63.665C140.619 63.3853 140.791 63.0789 140.918 62.7441C141.278 61.7939 141.757 61.4679 142.648 61.3471C142.799 61.5386 142.952 61.7287 143.104 61.9212C142.312 62.7403 141.417 63.2248 140.42 63.665Z" fill="url(#paint27_linear_22_363)"/>
<path id="Vector_29" d="M145.563 67.2029C144.925 66.712 144.027 66.1828 143.274 66.7765C142.691 67.2352 142.774 68.0461 142.377 68.6206C142.186 68.8959 142.279 69.3126 142.612 69.4315C142.866 69.5213 143.096 69.5414 143.314 69.4963C143.469 69.721 143.67 69.902 143.986 69.9252C145.297 70.024 145.727 69.1339 145.928 68.0484C145.989 67.7277 145.81 67.3927 145.563 67.2029Z" fill="url(#paint28_linear_22_363)"/>
<path id="Vector_30" d="M147.423 82.822C147.358 82.7072 147.262 82.6045 147.128 82.5219C146.269 81.9794 145.572 82.8798 145.743 83.6026C145.755 83.6539 145.798 83.6759 145.822 83.7166C145.429 84.0746 145.184 84.5234 145.219 85.2999C145.248 85.9408 146.134 86.0747 146.477 85.6188C146.731 85.2797 147.235 84.5564 147.445 83.8652C147.536 83.8084 147.628 83.7557 147.714 83.6899C148.142 83.3635 147.839 82.8672 147.423 82.822Z" fill="url(#paint29_linear_22_363)"/>
<path id="Vector_31" d="M131.236 72.8167C130.796 72.2521 130.18 71.4582 129.434 71.2385C129.503 71.1597 129.589 71.1007 129.65 71.0117C130.06 70.4194 129.181 69.7706 128.745 70.3483C128.173 71.1076 127.207 71.3444 126.611 72.0698C125.815 73.0364 126.69 74.3934 127.24 75.2169C127.512 75.6235 128.034 75.568 128.393 75.3535C129.253 74.8359 130.251 74.5905 131.093 74.0274C131.487 73.7637 131.506 73.1655 131.236 72.8167ZM128.067 73.6428C127.791 73.28 127.677 72.9176 128.018 72.5476C128.041 72.6605 128.035 72.7759 128.092 72.8834C128.235 73.1485 128.584 73.2991 128.842 73.0773C128.905 73.0235 128.936 73.0023 128.971 72.9762C129.044 73.0236 129.122 73.0591 129.197 73.1224C129.198 73.1233 129.199 73.124 129.199 73.124C128.823 73.2962 128.436 73.4561 128.067 73.6428Z" fill="url(#paint30_linear_22_363)"/>
<path id="Vector_32" d="M167.967 112.833C172.311 108.309 174.639 101.796 176.072 95.1578C176.329 95.4868 176.764 95.4535 177.085 95.2594C178.06 94.6716 180.55 93.3819 179.849 91.8188C179.408 90.8393 178.151 90.2747 177.167 90.1153C177.113 90.1066 177.06 90.1446 177.002 90.1625C177.337 88.0654 177.61 86.0089 177.855 84.0429C177.965 84.0768 178.09 83.9852 178.003 83.8658C177.967 83.8158 177.932 83.7641 177.895 83.7142C177.912 83.5845 177.928 83.4536 177.944 83.3261C185.856 83.0043 193.836 83.1789 201.926 82.3865C204.744 84.2838 208.002 84.8003 211.907 82.4217C212.341 82.1558 211.902 81.4248 211.451 81.6514C208.957 82.9041 206.734 82.8717 204.728 82.0794C205.988 81.917 207.249 81.7297 208.512 81.5068C208.727 81.4694 208.872 81.3576 208.96 81.2121C209.211 81.1403 209.463 81.09 209.714 81.0034C210.894 80.6088 210.131 78.8854 208.973 79.2424C206.596 79.9813 204.025 80.1515 201.36 79.9151C197.52 76.4873 194.633 70.6614 192.286 67.3774C188.324 61.8287 182.303 57.0326 177.011 52.8429C167.35 45.1865 155.304 39.9366 143.166 44.3261C142.272 44.6504 142.55 45.948 143.412 46.073C151.642 47.2677 157.758 55.4907 163.361 60.8936C168.259 65.6186 173.316 68.8322 179.133 72.2756C184.393 75.3866 190.281 79.0687 196.418 80.8779C189.421 80.8032 182.148 80.2183 175.097 80.4076C171.374 77.0511 167.258 74.2447 162.74 72.0029C159.415 70.3562 153.401 67.9545 149.93 70.3647C149.674 70.543 149.817 70.9501 150.104 70.9862C151.86 71.1908 153.59 70.8913 155.366 71.103C156.321 71.2155 157.258 71.4634 158.184 71.7561C157.843 71.9183 157.533 72.1377 157.354 72.4355C157.265 72.5834 157.232 72.7525 157.256 72.9126C154.387 74.0807 151.429 75.0056 148.522 76.077C146.596 76.7861 142.924 77.5841 141.93 79.5938C141.769 79.9177 142.107 80.2708 142.431 80.2285C144.573 79.9471 147.019 78.19 149.08 77.4023C152.229 76.1991 155.406 75.033 158.447 73.5804C158.751 73.585 159.059 73.5422 159.361 73.4887C159.68 73.4315 159.987 73.3003 160.282 73.1668C160.602 73.02 160.807 72.8192 160.856 72.8001C160.851 72.7982 160.847 72.7959 160.844 72.7918C160.854 72.7876 160.865 72.7873 160.875 72.7822C161.732 73.1601 162.574 73.5578 163.389 73.9603C166.979 75.7383 170.292 78.1048 173.553 80.4714C165.099 80.8496 157.022 82.5101 150.219 87.8106C149.707 88.2103 150.204 89.0677 150.804 88.797C158.603 85.2899 166.421 84.0387 174.294 83.5238C174.142 83.7005 173.988 83.8787 173.836 84.0585C165.309 88.4278 157.518 94.1609 152.206 102.27C146.334 111.229 147.91 123.537 144.536 133.397C144.231 134.284 145.552 134.817 145.902 133.934C149.77 124.172 161.029 120.058 167.967 112.833ZM172.062 59.5794C177.907 62.992 182.431 66.7259 187.106 71.6324C189.693 74.3455 192.322 76.8517 195.407 78.7811C184.576 75.6923 173.177 67.4595 166.484 61.3689C160.936 56.3207 156.124 50.7023 149.858 46.493C148.738 45.7399 146.875 44.7556 145.501 44.5456C151.112 45.4008 155.628 44.3344 161.246 46.1017C174.625 50.3067 186.888 62.4858 194.509 73.8767C195.565 75.4578 196.685 77.0757 197.891 78.5425C188.713 72.9434 183.744 60.0988 172.537 58.3734C171.904 58.275 171.472 59.233 172.062 59.5794ZM177.949 92.3364C178.034 92.3946 178.088 92.445 178.146 92.4977C177.947 92.963 177.354 93.3661 176.819 93.6978C176.676 93.4605 176.632 93.2321 176.83 92.8816C177.049 92.4979 177.093 92.1137 177.013 91.6784C176.983 91.5284 176.904 91.4284 176.804 91.3684C176.815 91.3085 176.823 91.2512 176.834 91.1912C177.049 91.6682 177.469 92.0069 177.949 92.3364ZM147.923 127.514C148.432 124.897 148.827 122.292 149.161 119.637C151.177 103.58 159.553 95.151 171.357 87.1839C164.373 96.6327 159.908 107.782 153.26 117.554C152.788 118.24 153.762 118.946 154.295 118.316C157.538 114.47 160.146 110.376 162.511 105.939C164.854 101.543 167.133 97.1239 169.589 92.7886C170.289 91.5531 176.017 85.494 176.097 84.8673C174.837 94.7588 172.459 103.675 166.857 112.017C163.38 117.197 155.903 120.746 151.091 124.596C150.094 125.394 148.949 126.407 147.923 127.514Z" fill="url(#paint31_linear_22_363)"/>
<path id="Vector_33" d="M186.925 92.6058C185.284 92.5217 185.01 93.4691 183.89 94.3873C183.691 94.55 183.695 94.8326 183.839 95.0118C183.583 95.9295 183.504 96.8944 183.103 97.7731C182.792 98.4544 183.67 98.994 184.218 98.5969C185.012 98.0205 185.981 97.4002 186.498 96.536C187.009 95.674 187.204 94.5878 187.556 93.6551C187.724 93.2134 187.434 92.6316 186.925 92.6058ZM184.799 96.2905C184.842 95.8418 184.909 95.3991 185.014 94.9624C185.235 94.8411 185.438 94.6936 185.641 94.5499C185.52 94.9382 185.398 95.3248 185.24 95.6916C185.149 95.9067 184.987 96.1024 184.799 96.2905Z" fill="url(#paint32_linear_22_363)"/>
<path id="Vector_34" d="M185.712 104.999C185.257 104.141 184.584 103.005 183.437 103.152C182.484 103.274 181.538 103.951 180.706 104.4C180.414 104.561 180.297 105.109 180.715 105.217C181.388 105.39 181.969 105.338 182.616 105.077C183.394 104.761 183.657 104.654 184.034 105.17C183.598 105.586 183.183 106.021 182.8 106.492C182.598 106.743 182.395 106.996 182.188 107.244C181.813 107.476 181.805 107.593 182.163 107.588C182.043 107.581 181.926 107.574 181.809 107.566C181.248 107.53 181.654 107.419 181.981 107.182C182.304 106.948 182.461 106.637 182.547 106.26C182.693 105.618 181.624 105.355 181.432 105.98C181.291 106.442 180.563 106.589 180.355 107.115C180.124 107.698 180.604 108.767 181.237 108.874C181.886 108.986 182.261 109.113 182.817 108.688C183.83 107.909 184.483 106.71 185.482 105.893C185.727 105.692 185.874 105.299 185.712 104.999Z" fill="url(#paint33_linear_22_363)"/>
<path id="Vector_35" d="M204.602 129.129C204.259 128.162 203.4 127.415 202.985 126.451C202.87 126.175 202.429 126.084 202.256 126.366C201.724 127.242 201.982 128.121 202.567 128.904C202.649 129.016 202.777 129.142 202.893 129.275C202.566 129.391 202.202 129.434 201.923 129.696C201.385 130.2 201.259 130.755 201.253 131.479C201.25 131.978 201.757 132.591 202.31 132.272C203.359 131.67 205.13 130.616 204.602 129.129Z" fill="url(#paint34_linear_22_363)"/>
<path id="Vector_36" d="M185.708 52.911C186.078 53.63 185.768 54.8057 185.627 55.5694C185.561 55.9293 185.863 56.2199 186.189 56.2808C186.573 56.3523 187.173 56.5845 187.518 56.2831C188.156 55.7252 188.388 54.9221 189.011 54.378C189.271 54.1511 189.317 53.8688 189.226 53.5494C188.941 52.5876 187.535 50.8102 186.601 52.2203C186.575 52.2575 186.569 52.3056 186.551 52.347C186.214 51.9451 185.453 52.4091 185.708 52.911ZM187.189 53.2103C187.514 53.0313 187.663 53.298 187.784 53.6542C187.53 53.9445 187.31 54.2506 187.135 54.6272C187.005 54.9049 187.142 55.0536 186.955 55.0394C186.953 55.0399 186.949 55.0384 186.949 55.0377C186.996 54.4291 187.031 53.798 186.912 53.2116C187.002 53.241 187.098 53.2608 187.189 53.2103Z" fill="url(#paint35_linear_22_363)"/>
<path id="Vector_37" d="M217.389 49.7427C218.053 49.5046 217.622 48.5332 216.967 48.7445C216.903 48.7647 216.833 48.7751 216.767 48.7939C216.82 48.755 216.881 48.7415 216.924 48.6687C223.916 36.8863 194.186 35.0225 188.807 34.1065C188.118 33.9905 187.613 34.7545 187.864 35.3602C192.146 45.7103 206.507 53.663 217.389 49.7427ZM190.26 36.1539C198.951 37.254 214.453 37.2923 215.731 46.9866C211.596 43.2659 204.094 42.2758 198.962 42.8746C198.497 42.9298 198.414 43.6157 198.856 43.7742C201.62 44.7701 204.62 44.9 207.493 45.4434C210.572 46.0249 213.205 47.1813 215.964 48.5542C216.064 48.7296 216.22 48.8436 216.402 48.8843C207.062 51.4777 194.776 44.5978 190.26 36.1539Z" fill="url(#paint36_linear_22_363)"/>
<path id="Vector_38" d="M210.594 35.8587C210.968 36.1423 211.457 35.6323 211.164 35.269C211.107 35.1972 211.046 35.1263 210.988 35.0527C215.296 26.977 207.014 17.5041 203.896 10.5269C203.684 10.0545 203.077 10.0069 202.76 10.3936C195.367 19.4029 202.812 29.9308 210.594 35.8587ZM207.786 21.0454C210.096 25.4856 210.269 29.2396 210.059 33.9266C209.752 33.5585 209.439 33.1873 209.122 32.8171C209.32 32.8001 209.513 32.6678 209.555 32.4439C210.306 28.4736 207.705 24.087 205.729 20.8387C205.501 20.4668 204.867 20.8451 205.069 21.2279C206.002 22.9928 206.735 24.846 207.313 26.756C207.851 28.5351 207.985 30.4379 208.591 32.1828C203.54 26.2239 198.292 19.6976 203.185 12.1336C204.571 15.181 206.239 18.0733 207.786 21.0454Z" fill="url(#paint37_linear_22_363)"/>
<path id="Vector_39" d="M141.088 87.4821C140.607 87.4286 139.833 87.5708 139.685 88.122C139.629 88.3255 139.665 88.5111 139.837 88.6487C140.361 89.0625 140.825 88.8759 141.092 89.2943C140.37 89.5305 139.659 89.794 138.957 90.0845C138.837 89.5623 138.878 89.0972 139.116 88.5024C139.341 87.9427 139.473 87.4425 139.458 86.8387C139.445 86.3757 138.74 86.3346 138.592 86.7374C138.324 87.4676 137.875 88.091 137.587 88.8062C137.263 89.6066 137.573 90.5542 137.87 91.3037C138.018 91.6801 138.444 91.8086 138.8 91.6823C139.906 91.2921 140.98 90.7633 142.128 90.5117C142.531 90.4235 142.825 90.0919 142.769 89.6626C142.647 88.7207 142.185 87.6004 141.088 87.4821Z" fill="url(#paint38_linear_22_363)"/>
<path id="Vector_40" d="M320.424 128.685C320.139 129.412 320.534 130.066 320.945 130.654C321.186 130.997 321.722 131.036 322.038 130.782C323.322 129.746 324.131 128.477 324.853 127.013C325.087 126.533 324.678 125.887 324.16 125.857C323.04 125.786 322.383 126.196 321.94 126.899C321.833 126.984 321.746 127.099 321.707 127.261C321.537 127.995 320.684 128.023 320.424 128.685Z" fill="url(#paint39_linear_22_363)"/>
<path id="Vector_41" d="M244.712 153.72C244.466 153.669 244.173 153.783 244.101 154.103C243.926 154.873 243.013 155.11 242.675 155.801C242.254 156.653 243.251 157.533 243.785 158.016C244.011 158.221 244.397 158.175 244.621 158.001C245.219 157.538 245.97 156.794 246.784 156.811C247.145 156.819 247.564 156.603 247.576 156.186C247.623 154.631 246.221 153.458 244.712 153.72ZM244.226 156.566C244.035 156.383 243.843 156.19 243.856 156.164C243.978 155.946 244.209 155.784 244.375 155.607C244.61 155.354 244.768 155.081 244.888 154.791C245.302 154.991 245.744 155.23 245.979 155.553C245.34 155.758 244.775 156.139 244.226 156.566Z" fill="url(#paint40_linear_22_363)"/>
</g>
<g id="Group_3">
<path id="Vector_42" d="M304.675 226.671C304.487 227.099 304.958 227.65 305.411 227.522C305.467 227.504 305.525 227.494 305.58 227.476C305.65 227.809 306.021 228.065 306.372 227.788C306.748 227.49 307.151 227.24 307.542 226.962C317.672 224.488 326.401 224.983 334.12 216.548C338.315 211.966 341.149 204.255 341.592 197.218C341.546 218.809 333.807 243.057 315.304 254.186C306.291 259.606 299.464 261.999 288.984 263.096C286.596 263.347 285.24 263.82 284.169 264.613C285.817 264.359 288.334 264.268 292.037 264.44C302.284 264.916 311.427 258.277 319.502 252.894C323.436 250.273 326.831 246.825 329.765 242.863C329.183 244.386 328.51 245.876 327.783 247.339C327.619 247.156 327.32 247.092 327.098 247.349C320.47 255.041 314.658 261.998 305.448 266.77C300.368 269.403 294.322 269.172 288.809 269.096C286.553 269.064 283.335 267.956 282.095 266.818C281.577 267.514 281.013 268.311 280.286 269.257C280.03 269.595 280.193 269.994 280.468 270.239C283.917 273.341 297.894 270.737 302.462 269.728C310.44 267.961 317.503 261.875 322.811 255.171C314.006 272.889 304.538 284.425 283.601 288.312C271.888 290.486 262.825 297.785 254.572 305.969C254.077 306.46 254.445 307.223 255.134 307.158C269.594 305.733 283.193 304.279 295.832 296.63C296.942 295.959 298.004 295.223 299.04 294.458C286.33 307.521 264.334 315.207 262.24 334.683C262.977 331.853 266.377 325.05 266.71 324.437C269.254 319.726 273.699 316.106 277.738 312.712C285.233 306.41 293.616 301.357 300.321 294.135C300.504 293.937 300.404 293.679 300.235 293.564C301.51 292.555 302.722 291.472 303.889 290.338C303.416 291.143 302.943 291.953 302.522 292.77C302.521 292.772 302.521 292.772 302.521 292.772C302.335 293.111 302.15 293.456 301.967 293.794C301.889 293.626 301.646 293.534 301.515 293.735C294.216 304.958 280.614 310.68 274.101 322.336C273.914 322.673 274.345 322.97 274.592 322.673C282.949 312.75 294.23 305.564 301.455 294.738C296.287 304.258 291.103 313.996 282.179 320.559C276.025 325.082 269.428 328.128 264.406 334.044C262.965 335.739 262.308 336.145 262.143 335.78C262.065 336.972 262.04 338.203 262.113 339.484C262.152 340.165 263.198 340.17 263.389 339.579C266.859 328.816 279.69 325.036 287.631 318.074C291.943 314.294 295.599 309.098 298.542 303.648C297.75 306.996 297.27 310.457 297.12 314.056C296.65 325.046 303.143 331.948 306.333 341.756C306.407 342.699 306.522 343.645 306.727 344.596C306.865 345.246 307.802 345.06 307.733 344.409C307.601 343.201 307.33 342.047 307.002 340.915C307.239 341.012 307.565 340.861 307.524 340.526C307.254 338.321 307.076 336.123 306.861 333.919C307.384 331.133 308.162 328.364 308.939 325.606C308.12 328.16 307.336 330.715 306.781 333.133C306.228 327.353 305.773 321.571 305.428 315.752C304.891 306.653 302.946 297.52 306.521 288.974C306.1 294.613 308.978 300.089 310.725 306.6C312.448 313.02 310.727 319.293 308.939 325.606C310.491 320.775 312.129 315.961 312.403 312.133C313.098 302.451 305.375 294.819 307.996 285.907C312.796 280.134 316.624 273.44 320.005 266.783C319.904 267.943 319.876 269.125 319.975 270.354C320.428 275.895 320.602 283.02 322.872 288.184C325.513 294.193 330.005 298.982 332.977 304.715C332.833 305.249 332.743 305.779 332.57 306.313C332.468 306.625 332.916 306.87 333.099 306.579C333.256 306.325 333.389 306.059 333.527 305.802C333.897 306.587 334.248 307.385 334.549 308.215C334.772 308.834 335.643 308.555 335.713 307.997C337.344 295.139 348.443 275.485 343.687 262.379C342.327 258.621 340.464 255.578 338.423 252.156C334.312 245.272 337.461 237.973 339.752 231.597C342.464 224.045 343.5 216.056 344.247 208.109C344.332 210.553 344.667 213.015 345.432 215.505C349.113 227.515 364.061 231.803 373.457 237.678C373.997 238.016 374.914 237.589 374.705 236.867C371.173 224.795 372.304 211.379 364.059 201.237C357.248 192.867 350.319 188.725 349.908 176.627C349.692 170.233 351.291 163.567 351.923 157.209C351.975 156.697 351.213 156.656 351.135 157.153C349.822 165.684 347.75 173.877 349.038 182.346C348.878 181.948 348.738 181.543 348.57 181.149C348.484 180.934 348.292 180.887 348.114 180.924C348.021 180.211 347.919 179.5 347.755 178.799C347.547 177.928 346.278 178.165 346.391 179.053C347.611 188.442 344.343 197.305 344.217 206.345C344.025 206.243 343.735 206.299 343.706 206.588C342.392 219.863 336.213 232.142 335.351 245.174C335.094 249.053 337.318 252.916 339.164 256.063C344.982 266.01 341.903 276.565 339.221 286.899C337.868 292.11 336.302 297.194 335.168 302.453C335.16 302.06 335.113 301.667 335.09 301.28C336.145 295.602 334.621 289.156 333.673 283.762C331.217 269.695 328.363 254.589 334.094 241.005C334.285 240.552 333.594 240.34 333.39 240.758C331.993 243.598 331.093 246.455 330.527 249.324C330.399 249.285 330.263 249.294 330.168 249.455C325.755 257.178 326.335 265.648 327.765 274.147C329.307 283.35 331.592 292.506 333.519 301.666C330.941 298.021 325.577 290.985 325.716 291.211C319.645 281.691 320.681 264.394 325.425 255.231C328.061 250.135 330.628 246.224 332.008 240.571C332.072 240.299 331.964 240.089 331.807 239.928C341.216 225.233 344.615 204.67 342.268 188.967C342.167 188.306 341.202 188.511 341.258 189.156C341.35 190.148 341.398 191.161 341.453 192.177C341.335 191.267 341.203 190.365 340.974 189.535C340.849 189.081 340.43 188.913 340.066 188.975C340.141 188.85 340.211 188.724 340.286 188.599C340.512 188.226 339.982 187.858 339.722 188.216C333.191 197.233 328.933 207.376 321.246 215.605C320.789 216.097 321.438 216.913 321.935 216.421C329.538 208.899 334.125 199.018 339.527 189.894C343.199 203.544 333.723 220.164 320.239 223.482C317.119 224.249 313.845 224.526 310.637 224.993C316.387 221.757 322.803 219.876 328.052 215.68C334.622 210.426 337.876 200.953 339.847 193.162C339.938 192.798 339.404 192.597 339.282 192.968C336.08 202.655 331.996 212.321 322.852 217.806C318.006 220.717 312.699 221.868 308.177 225.017C308.265 223.044 313.861 212.415 314.257 211.601C318.663 202.491 322.9 196.292 331.861 191.015C334.399 189.52 337.434 187.836 339.429 185.579C346.646 177.415 349.089 168.027 349.694 157.307C349.725 156.738 348.906 156.694 348.821 157.248C347.423 166.251 346.012 173.906 340.938 181.617C337.027 187.56 326.932 191.616 321.442 196.779C313.661 204.101 308.951 217.059 304.675 226.671ZM355.237 194.783C362.032 202.99 367.427 207.012 369.447 218.495C369.712 220.017 370.928 229.647 371.002 233.005C365.636 224.741 360.736 216.714 357.088 207.498C354.828 201.799 353.38 195.817 351.627 189.953C352.683 191.656 353.955 193.236 355.237 194.783ZM370.932 234.081C370.906 234.137 370.883 234.174 370.844 234.152C364.208 230.004 357.352 227.651 351.574 222.059C340.86 211.698 348.192 197.638 348.343 184.905C351.597 202.135 359.518 221.105 370.932 234.081ZM330.272 250.984C328.086 265.48 334.319 280.266 334.27 294.703C331.458 280.073 323.427 265.546 330.272 250.984ZM288.472 299.038C281.832 302.361 274.274 303.536 267.007 304.567C264.38 304.941 262.496 305.104 261.262 305.045C270.363 299.83 280.292 298.039 290.24 294.617C299.139 291.555 306.255 284.762 312.013 277.49C305.956 286.24 298.875 293.835 288.472 299.038ZM306.113 337.062C306.075 337.439 306.062 337.801 306.048 338.164C306.13 338.371 306.21 338.575 306.289 338.781C306.297 338.576 306.307 338.37 306.319 338.162C306.4 338.609 306.482 339.053 306.569 339.498C306.484 339.256 306.381 339.02 306.289 338.781C306.253 339.688 306.258 340.598 306.322 341.51C306.08 340.487 305.997 339.368 306.048 338.164C304.437 334.247 302.067 330.629 300.245 326.712C294.678 314.736 299.007 301.552 304.867 290.678C303.035 295.497 302.999 300.818 303.395 306.117C304.16 316.352 304.365 326.906 306.113 337.062ZM320.403 264.022C318.311 267.604 316.226 271.101 314.042 274.465C313.929 274.36 313.745 274.326 313.625 274.485C304.918 286.126 293.942 292.794 279.975 296.467C272.845 298.338 265.567 300.066 259.873 304.774C258.424 304.057 260.659 301.949 265.271 298.242C276.855 288.934 292.212 291.549 303.724 283.129C314.137 275.514 319.012 265.013 324.265 253.576C324.317 253.457 324.278 253.371 324.21 253.303C324.854 252.427 325.479 251.553 326.055 250.679C323.752 255.013 321.399 259.296 320.403 264.022Z" fill="url(#paint41_linear_22_363)"/>
<path id="Vector_43" d="M282.095 266.818C282.794 265.884 283.423 265.166 284.169 264.613C281.37 265.043 281.132 265.938 282.095 266.818Z" fill="url(#paint42_linear_22_363)"/>
<path id="Vector_44" d="M262.143 335.78C262.169 335.41 262.199 335.046 262.24 334.683C262.103 335.208 262.06 335.592 262.143 335.78Z" fill="url(#paint43_linear_22_363)"/>
</g>
<g id="Group_4">
<path id="Vector_45" d="M76.2833 75.185C75.2418 82.4291 75.085 93.0476 85.0397 91.9809C93.5408 91.0668 102.467 77.4161 104.183 70.0095C104.436 68.9089 104.639 67.8015 104.809 66.6828C106.168 69.4395 111.71 71.2737 114.165 69.0444C117.847 65.6988 117.368 59.3001 116.279 54.927C114.456 47.6247 110.542 41.1434 107.055 34.5356C107.01 34.4538 106.947 34.4125 106.883 34.3853C107.776 30.3142 109.293 26.3855 111.937 22.7071C112.188 22.3571 111.673 22.0203 111.4 22.3313C97.2826 38.4728 110.32 63.0303 96.8742 79.9307C95.0822 82.1803 79.472 99.5651 77.893 84.8505C77.3617 79.9133 77.7464 74.1781 79.6661 69.5335C84.6237 57.5358 94.351 50.5103 102.727 41.1835C103.144 40.7183 102.41 40.1471 101.961 40.4806C94.3509 46.1214 86.2428 53.3652 81.1468 61.9685C81.0651 61.9884 80.9924 62.0274 80.9379 62.0889C79.075 64.2047 72.5452 66.3477 74.854 61.7986C75.6253 60.1941 76.4965 58.6504 77.4709 57.1666C79.3196 54.5011 81.3508 51.9321 83.8747 49.8627C88.999 45.6654 94.8375 43.0588 100.686 40.0819C101.202 39.8198 100.836 39.0764 100.31 39.2824C87.0755 44.4052 77.1499 51.6598 71.5323 64.9535C71.3846 65.3064 71.5425 65.7815 71.8624 65.9886C74.2359 67.5213 76.8215 67.7146 78.7657 66.629C77.5816 69.3657 76.7105 72.215 76.2833 75.185ZM105.295 63.5061C105.248 63.5605 105.226 63.6155 105.182 63.6696C106.1 54.2533 104.927 44.4973 106.675 35.4242C109.977 44.251 116.735 52.8433 115.025 62.8082C114.534 65.6734 112.844 69.0936 109.375 67.5244C108.346 67.0583 105.979 65.5097 106.32 64.0379C106.469 63.3929 105.737 62.9948 105.295 63.5061Z" fill="url(#paint44_linear_22_363)"/>
<path id="Vector_46" d="M91.5138 71.7007C91.2074 71.9069 90.8769 71.5241 91.1428 71.262C99.5526 62.9505 96.849 51.4668 102.203 41.881C102.361 41.5979 102.834 41.8467 102.708 42.1421C98.5329 51.9592 101.457 64.9619 91.5138 71.7007Z" fill="url(#paint45_linear_22_363)"/>
<path id="Vector_47" d="M106.903 47.205C106.826 46.7232 107.444 46.5612 107.675 46.9531C110.247 51.2961 109.488 56.85 111.946 61.3381C112.129 61.6786 111.595 62.0292 111.369 61.7054C108.492 57.5781 107.651 52.0866 106.903 47.205Z" fill="url(#paint46_linear_22_363)"/>
<path id="Vector_48" d="M117.595 -17.995C117.157 -18.0493 116.681 -17.6566 116.68 -17.2092C116.657 -5.1528 133.493 8.08135 146.213 9.88387C133.14 11.5971 120.185 15.1755 107.751 20.0289C102.836 20.5745 97.9014 20.8891 92.9533 21.087C92.9138 21.0069 92.8543 20.9308 92.7447 20.8898C83.689 17.3874 81.5782 7.21281 76.4376 -0.0124035C73.0606 -4.75634 67.8094 -9.7423 62.2713 -11.8746C55.4001 -14.5186 44.0992 -9.24363 50.0485 -1.06676C50.5038 -0.443571 51.512 -0.975679 51.37 -1.69073C55.5363 -10.2387 60.2328 -12.2298 65.4571 -7.6664C66.0744 -7.23396 66.6902 -6.79993 67.3055 -6.36637C69.5654 -4.66002 71.9586 -3.03455 73.643 -0.719019C76.4322 3.12406 78.6393 7.30182 81.0144 11.4025C83.5557 15.7868 86.6436 19.2646 91.2137 21.1521C86.8033 21.3066 82.387 21.3946 77.9698 21.4957C78.0316 21.2751 77.9671 21.037 77.6709 20.9592C67.703 18.3251 58.2448 15.4894 48.8057 11.2993C48.3915 11.1142 48.096 11.7396 48.4469 11.9913C56.5082 17.7281 66.4734 19.5854 76.0006 21.6153C75.5449 21.8107 75.5218 22.5141 76.1211 22.5902C81.6714 23.2925 71.8324 24.8655 71.6878 24.8919C68.6204 25.5533 65.5114 25.8813 62.3609 25.8754C56.6954 25.3535 52.602 23.7985 47.8172 20.8587C40.633 16.4432 30.9979 10.4462 27.6269 2.29548C28.0488 3.30875 42.7475 0.119431 45.6613 0.615559C60.1592 3.0825 72.8458 9.80522 83.2787 20.0792C83.7525 20.5447 84.539 19.9169 84.0819 19.4055C83.0161 18.2066 81.8759 17.076 80.6922 15.9858C80.8117 15.7734 80.8291 15.5016 80.6363 15.2521C75.9285 9.19907 71.4402 1.70828 63.6746 -0.632404C63.272 -0.754208 62.9454 -0.201397 63.3231 0.0441189C68.8711 3.65092 72.9042 7.98327 76.9344 12.8463C70.1294 7.62949 62.0609 3.82797 54.0312 1.24479C49.5046 -0.210632 44.924 -1.38599 40.1145 -1.25065C36.3967 -1.14557 29.1973 1.14767 26.234 -1.19652C25.5535 -1.73627 24.7241 -1.01692 24.8065 -0.278938C25.9294 9.87958 38.3692 18.2373 46.4522 22.7985C58.1384 29.3941 68.6517 28.1562 80.9633 23.5435C81.3217 23.4094 81.2551 22.8762 80.926 22.7603C76.0394 21.0639 80.8983 22.3976 83.2438 22.3315C88.0646 22.1928 92.8825 22.0315 97.7 21.7901C100.083 21.6699 102.447 21.4599 104.802 21.2061C96.4356 24.6287 88.3264 28.6165 80.5949 32.9884C69.5215 33.3227 57.8626 34.4124 47.3131 37.8216C40.9347 39.8834 31.2045 46.085 32.8114 54.2927C34.2278 61.5283 43.6275 60.8653 49.1721 59.4578C60.4569 56.5938 73.2205 49.5093 79.7811 39.6286C80.0627 39.2092 79.54 38.7577 79.1479 39.0462C70.6026 45.3541 63.8606 52.6144 53.4702 56.2232C49.4445 57.6225 44.8181 58.9773 40.4945 58.4058C33.5782 57.4933 33.214 50.2439 37.398 45.5477C47.3976 34.3196 64.9536 36.5589 78.671 34.0838C76.4021 35.3974 74.1708 36.7424 71.975 38.1143C71.9336 38.1127 71.8965 38.0955 71.8494 38.1108C66.0763 40.1628 59.8091 43.1771 55.1304 47.2086C54.8394 47.462 55.1405 47.9257 55.4907 47.7704C60.3603 45.61 64.8474 42.5328 69.5759 39.99C69.6574 40.086 69.7845 40.1489 69.913 40.0884C85.7163 32.6714 101.125 25.0568 116.909 19.3006C117.698 19.1364 118.489 18.9944 119.277 18.8151C119.494 18.7661 119.525 18.5457 119.439 18.3977C139.374 11.4065 159.974 7.53412 182.786 10.9139C183.103 10.9608 183.13 10.477 182.822 10.4236C171.703 8.47208 160.388 8.30283 149.137 9.53503C149.07 9.52945 149.002 9.53152 148.933 9.52754C140.304 -2.12015 133.35 -16.0203 117.595 -17.995ZM127.679 -12.9324C131.008 -10.6994 133.851 -7.98531 136.253 -4.76717C139.038 -1.03348 141.506 3.03824 144.438 6.68659C138.986 2.62013 134.329 -2.33669 128.833 -6.3331C128.397 -6.64835 127.905 -6.06577 128.215 -5.66246C132.839 0.347591 139.675 5.1307 146.079 9.10418C135.725 6.87718 123.537 -2.84428 119.685 -11.2633C118.778 -13.244 116.421 -17.2898 122.006 -15.4113C124.005 -14.8481 125.897 -14.0205 127.679 -12.9324Z" fill="url(#paint47_linear_22_363)"/>
<path id="Vector_49" d="M135.826 28.38C136.797 24.3522 139.315 20.3412 141.717 17.0241C143.447 14.6357 145.845 11.9595 149.002 13.2234C149.432 13.3952 149.201 14.0515 148.759 13.902C143.635 12.1535 139.019 25.9411 136.649 28.8054C136.301 29.2253 135.701 28.8919 135.826 28.38Z" fill="url(#paint48_linear_22_363)"/>
<path id="Vector_50" d="M142.025 25.3538C142.231 25.1727 142.528 25.2568 142.664 25.4576C142.84 25.1724 143.052 24.9083 143.335 24.683C143.628 24.4513 144.221 24.6519 144.129 25.0884C143.951 25.9247 143.644 26.6976 143.588 27.5599C143.525 28.5009 143.875 29.4683 144.404 30.2329C144.93 30.9887 143.83 31.9249 143.297 31.1589C142.718 30.3216 142.268 29.159 142.155 28.0076C141.909 28.6893 141.642 29.3675 141.46 30.0549C140.934 32.0749 141.063 34.2215 141.864 36.1426C142.209 36.9696 140.966 37.5661 140.606 36.7384C139.21 33.5424 139.148 27.8468 142.025 25.3538Z" fill="url(#paint49_linear_22_363)"/>
</g>
<g id="Group_5">
<path id="Vector_51" d="M286.177 227.455C285.263 228.083 284.728 229.187 283.998 229.999C283.803 230.215 283.852 230.48 284.007 230.66C283.99 230.914 284.087 231.181 284.252 231.377C284.521 231.692 284.794 232.002 285.065 232.31C285.418 232.714 286.097 232.613 286.433 232.263C287.572 231.079 288.693 229.883 289.822 228.691C290.362 228.119 290.034 227.2 289.301 227.014C288.183 226.727 287.147 226.788 286.177 227.455Z" fill="url(#paint50_linear_22_363)"/>
<path id="Vector_52" d="M289.311 234.419C290.103 234.834 290.893 235.259 291.779 235.437C292.924 235.661 294.119 235.432 295.251 235.244C295.98 235.124 296.146 234.047 295.631 233.608C294.374 232.545 293.221 232.979 291.788 233.042C292.116 232.789 292.435 232.528 292.703 232.209C293.125 231.712 292.533 230.909 291.955 231.297C290.999 231.931 289.963 232.268 289.072 233.035C288.628 233.416 288.844 234.179 289.311 234.419Z" fill="url(#paint51_linear_22_363)"/>
<path id="Vector_53" d="M285.681 214.759C285.6 214.838 285.571 214.936 285.57 215.033C284.84 216.494 284.808 218.165 286.13 219.673C287.962 221.763 292.515 222.9 294.448 220.309C295.918 218.343 295.281 215.605 293.634 213.966C292.568 212.909 291.2 212.6 289.838 212.754C290.263 212.329 289.818 211.407 289.195 211.684C287.855 212.283 286.591 213.369 285.82 214.645C285.775 214.686 285.724 214.72 285.681 214.759ZM291.733 215.179C292.791 215.94 293.266 217.345 292.902 218.59C292.396 220.311 289.649 219.423 288.649 218.952C287.447 218.387 286.752 217.294 286.974 215.967C287.03 215.635 287.152 215.335 287.298 215.051C288.777 214.552 290.38 214.207 291.733 215.179Z" fill="url(#paint52_linear_22_363)"/>
<path id="Vector_54" d="M278.396 229.869C275.942 230.356 272.919 232.187 273.134 234.983C272.693 236.07 271.994 236.768 273.039 237.999C273.27 238.273 273.702 238.306 274.021 238.229C277.832 237.304 280.36 235.098 279.896 230.943C279.808 230.148 279.166 229.719 278.396 229.869ZM274.297 235.985C274.348 235.764 274.409 235.54 274.477 235.322C274.916 234.804 275.284 234.24 275.731 233.701C276.238 233.089 276.901 232.744 277.612 232.496C277.563 233.244 277.357 233.945 276.78 234.574C276.164 235.242 275.202 235.655 274.297 235.985Z" fill="url(#paint53_linear_22_363)"/>
<path id="Vector_55" d="M282.332 242.285C282.842 242.063 283.309 241.759 283.783 241.468C283.769 241.914 283.828 242.333 283.763 242.827C283.672 243.507 284.655 243.982 284.963 243.267C285.174 242.776 285.542 242.462 285.721 241.976C285.977 241.292 286.347 240.74 286.837 240.2C287.488 239.49 286.973 238.226 285.965 238.293C283.848 238.436 282.337 239.628 281.614 241.617C281.476 241.998 281.962 242.45 282.332 242.285Z" fill="url(#paint54_linear_22_363)"/>
<path id="Vector_56" d="M274.271 223.38C273.861 224.007 274.165 224.788 274.439 225.391C274.537 225.61 274.832 225.73 275.055 225.721C276.227 225.675 278.129 225.64 278.6 224.28C278.901 223.407 278.293 222.797 277.866 222.127C277.727 221.909 277.319 221.868 277.215 222.149C277.055 222.574 277.099 223.006 277.18 223.446C277.313 224.174 276.337 224.283 275.596 224.31C275.573 223.563 276.526 222.966 276.798 222.233C277.08 221.472 275.968 220.859 275.655 221.637C275.367 222.351 274.683 222.743 274.271 223.38Z" fill="url(#paint55_linear_22_363)"/>
<path id="Vector_57" d="M263.109 229.393C264.131 229.114 265.021 228.498 266.046 228.236C266.999 227.996 267.543 229.007 267.876 229.898C267.531 230.043 267.193 230.201 266.838 230.321C266.767 230.348 266.75 230.348 266.7 230.364C266.695 229.995 266.773 229.572 266.767 229.241C266.744 228.295 265.303 228.353 265.305 229.293C265.305 230.147 264.687 231.191 265.41 231.915C266.425 232.927 268.399 231.851 269.419 231.427C269.915 231.222 270.282 230.729 270.093 230.17C269.496 228.377 268.609 226.444 266.509 226.258C264.969 226.119 263.338 227.561 262.556 228.724C262.314 229.083 262.752 229.487 263.109 229.393Z" fill="url(#paint56_linear_22_363)"/>
</g>
<g id="Group_6">
<path id="Vector_58" d="M24.3228 24.2575C23.8003 25.8682 24.388 27.222 25.6842 27.7167C25.2399 27.6962 24.7816 27.6628 24.3127 27.6156C23.2287 27.5094 23.0859 29.1618 24.1606 29.2927C27.4864 29.699 30.551 29.7129 32.8357 26.9445C33.2558 26.4352 33.0831 25.6072 32.5647 25.2402C31.6492 24.5933 30.6884 23.7742 29.6022 23.4306C28.4127 23.0542 26.9684 23.3474 25.7529 23.3581C25.1481 23.3638 24.5276 23.6288 24.3228 24.2575ZM30.0216 26.4884C29.3844 27.0824 28.6659 27.4249 27.8758 27.5902C28.1376 27.3353 28.2649 26.9625 28.1893 26.5283C28.1519 26.3104 28.0454 26.1341 27.912 25.979C28.225 25.9645 28.5409 25.9338 28.848 25.9612C29.1907 25.9924 29.6123 26.2237 30.0216 26.4884Z" fill="url(#paint57_linear_22_363)"/>
<path id="Vector_59" d="M10.7506 31.2014C11.4459 31.8833 12.3725 32.4592 13.3404 32.8576C13.2137 33.2039 13.3099 33.6255 13.7651 33.8008C15.2321 34.3671 16.845 34.3519 18.1667 33.4728C18.706 33.115 18.5867 32.2865 18.1246 31.9362C16.104 30.4112 14.2515 29.5501 11.7142 29.3855C10.8407 29.3299 10.0182 30.4849 10.7506 31.2014Z" fill="url(#paint58_linear_22_363)"/>
<path id="Vector_60" d="M8.70508 34.4129C6.4354 32.7478 4.74114 31.3313 1.86579 30.9385C1.44243 30.8786 1.02512 31.1709 0.881343 31.5545C0.556217 32.4128 -0.413105 33.834 0.19782 34.7247C0.822278 35.6453 1.48783 36.3647 2.50603 36.8387C3.30484 37.2112 4.21158 37.1117 5.1013 36.8738C3.99106 37.3647 2.71333 37.6169 1.64496 37.8788C0.663853 38.1181 0.908897 39.6653 1.91341 39.4392C4.64418 38.8294 7.71536 38.2071 9.01794 35.446C9.18512 35.0914 9.00568 34.6322 8.70508 34.4129ZM6.27029 34.8877C5.80872 34.8543 5.33519 34.8701 4.85992 34.957C3.51149 35.2049 2.80107 34.8807 2.04 33.9388C2.15559 33.6307 2.26816 33.322 2.38423 33.0125C3.88232 33.3537 5.06628 34.0464 6.27029 34.8877Z" fill="url(#paint59_linear_22_363)"/>
<path id="Vector_61" d="M6.76349 26.4926C6.64201 27.5697 6.65809 28.9742 7.86911 29.4276C8.80484 29.7779 9.68356 29.1176 10.6234 29.1734C11.0743 29.2009 11.4904 28.803 11.3953 28.3365C11.3216 27.9811 11.1845 27.7023 10.9809 27.4836C11.1318 27.1479 11.2005 26.7895 11.007 26.4098C10.2058 24.8302 8.87809 24.9558 7.48476 25.4815C7.07222 25.6361 6.80999 26.0756 6.76349 26.4926Z" fill="url(#paint60_linear_22_363)"/>
<path id="Vector_62" d="M23.2434 39.0796C22.8989 39.9808 22.4125 41.2443 22.6793 42.257C22.5406 42.2332 22.412 42.1742 22.2672 42.1669C21.2974 42.1079 21.1619 43.5736 22.1327 43.672C23.4087 43.8016 24.356 44.7491 25.6097 44.9298C27.2804 45.1712 28.2364 43.2164 28.8029 42.0078C29.0831 41.4117 28.6538 40.848 28.1563 40.585C26.9582 39.9547 25.9786 38.9766 24.7412 38.4002C24.1616 38.1298 23.4576 38.5249 23.2434 39.0796ZM26.4092 42.1543C26.1826 42.7249 25.844 43.1093 25.1786 42.9746C25.2932 42.8701 25.4306 42.7962 25.515 42.6555C25.7213 42.306 25.6513 41.7984 25.215 41.6556C25.1088 41.6207 25.0631 41.6003 25.0087 41.5784C25.012 41.4606 24.9986 41.3456 25.0192 41.2152C25.0197 41.2138 25.0202 41.2126 25.0202 41.2126C25.4809 41.5244 25.9361 41.8596 26.4092 42.1543Z" fill="url(#paint61_linear_22_363)"/>
</g>
</g>
<defs>
<linearGradient id="paint0_linear_22_363" x1="244.851" y1="44.4224" x2="244.851" y2="53.4793" gradientUnits="userSpaceOnUse">
<stop offset="0.18322" stop-color="#BBD2C5"/>
<stop offset="0.813466" stop-color="#536976"/>
</linearGradient>
<linearGradient id="paint1_linear_22_363" x1="235.542" y1="71.7224" x2="235.542" y2="82.4427" gradientUnits="userSpaceOnUse">
<stop offset="0.18322" stop-color="#BBD2C5"/>
<stop offset="0.813466" stop-color="#536976"/>
</linearGradient>
<linearGradient id="paint2_linear_22_363" x1="244.053" y1="69.7073" x2="244.053" y2="69.743" gradientUnits="userSpaceOnUse">
<stop offset="0.18322" stop-color="#BBD2C5"/>
<stop offset="0.813466" stop-color="#536976"/>
</linearGradient>
<linearGradient id="paint3_linear_22_363" x1="244.019" y1="69.7434" x2="244.019" y2="69.7535" gradientUnits="userSpaceOnUse">
<stop offset="0.18322" stop-color="#BBD2C5"/>
<stop offset="0.813466" stop-color="#536976"/>
</linearGradient>
<linearGradient id="paint4_linear_22_363" x1="297.677" y1="86.3879" x2="297.677" y2="94.9545" gradientUnits="userSpaceOnUse">
<stop offset="0.18322" stop-color="#BBD2C5"/>
<stop offset="0.813466" stop-color="#536976"/>
</linearGradient>
<linearGradient id="paint5_linear_22_363" x1="280.53" y1="89.8132" x2="280.53" y2="106.455" gradientUnits="userSpaceOnUse">
<stop offset="0.18322" stop-color="#BBD2C5"/>
<stop offset="0.813466" stop-color="#536976"/>
</linearGradient>
<linearGradient id="paint6_linear_22_363" x1="284.587" y1="93.4385" x2="284.587" y2="109.148" gradientUnits="userSpaceOnUse">
<stop offset="0.18322" stop-color="#BBD2C5"/>
<stop offset="0.813466" stop-color="#536976"/>
</linearGradient>
<linearGradient id="paint7_linear_22_363" x1="310.597" y1="81.8125" x2="310.597" y2="90.1232" gradientUnits="userSpaceOnUse">
<stop offset="0.18322" stop-color="#BBD2C5"/>
<stop offset="0.813466" stop-color="#536976"/>
</linearGradient>
<linearGradient id="paint8_linear_22_363" x1="308.746" y1="84.938" x2="308.746" y2="91.9742" gradientUnits="userSpaceOnUse">
<stop offset="0.18322" stop-color="#BBD2C5"/>
<stop offset="0.813466" stop-color="#536976"/>
</linearGradient>
<linearGradient id="paint9_linear_22_363" x1="312.558" y1="60.9136" x2="312.558" y2="74.4466" gradientUnits="userSpaceOnUse">
<stop offset="0.18322" stop-color="#BBD2C5"/>
<stop offset="0.813466" stop-color="#536976"/>
</linearGradient>
<linearGradient id="paint10_linear_22_363" x1="311.346" y1="68.2476" x2="311.346" y2="72.7382" gradientUnits="userSpaceOnUse">
<stop offset="0.18322" stop-color="#BBD2C5"/>
<stop offset="0.813466" stop-color="#536976"/>
</linearGradient>
<linearGradient id="paint11_linear_22_363" x1="316.854" y1="25.7068" x2="316.854" y2="118.677" gradientUnits="userSpaceOnUse">
<stop offset="0.18322" stop-color="#BBD2C5"/>
<stop offset="0.813466" stop-color="#536976"/>
</linearGradient>
<linearGradient id="paint12_linear_22_363" x1="246.946" y1="97.0063" x2="246.946" y2="103.272" gradientUnits="userSpaceOnUse">
<stop offset="0.18322" stop-color="#BBD2C5"/>
<stop offset="0.813466" stop-color="#536976"/>
</linearGradient>
<linearGradient id="paint13_linear_22_363" x1="240.955" y1="98.0869" x2="240.955" y2="111.654" gradientUnits="userSpaceOnUse">
<stop offset="0.18322" stop-color="#BBD2C5"/>
<stop offset="0.813466" stop-color="#536976"/>
</linearGradient>
<linearGradient id="paint14_linear_22_363" x1="232.218" y1="108.845" x2="232.218" y2="112.618" gradientUnits="userSpaceOnUse">
<stop offset="0.18322" stop-color="#BBD2C5"/>
<stop offset="0.813466" stop-color="#536976"/>
</linearGradient>
<linearGradient id="paint15_linear_22_363" x1="234.418" y1="115.333" x2="234.418" y2="128.901" gradientUnits="userSpaceOnUse">
<stop offset="0.18322" stop-color="#BBD2C5"/>
<stop offset="0.813466" stop-color="#536976"/>
</linearGradient>
<linearGradient id="paint16_linear_22_363" x1="235.22" y1="117.218" x2="235.22" y2="135.458" gradientUnits="userSpaceOnUse">
<stop offset="0.18322" stop-color="#BBD2C5"/>
<stop offset="0.813466" stop-color="#536976"/>
</linearGradient>
<linearGradient id="paint17_linear_22_363" x1="225.061" y1="104.292" x2="225.061" y2="109.763" gradientUnits="userSpaceOnUse">
<stop offset="0.18322" stop-color="#BBD2C5"/>
<stop offset="0.813466" stop-color="#536976"/>
</linearGradient>
<linearGradient id="paint18_linear_22_363" x1="250.874" y1="110.881" x2="250.874" y2="132.669" gradientUnits="userSpaceOnUse">
<stop offset="0.18322" stop-color="#BBD2C5"/>
<stop offset="0.813466" stop-color="#536976"/>
</linearGradient>
<linearGradient id="paint19_linear_22_363" x1="255.829" y1="123.603" x2="255.829" y2="131.991" gradientUnits="userSpaceOnUse">
<stop offset="0.18322" stop-color="#BBD2C5"/>
<stop offset="0.813466" stop-color="#536976"/>
</linearGradient>
<linearGradient id="paint20_linear_22_363" x1="310.275" y1="130.411" x2="310.275" y2="149.472" gradientUnits="userSpaceOnUse">
<stop offset="0.18322" stop-color="#BBD2C5"/>
<stop offset="0.813466" stop-color="#536976"/>
</linearGradient>
<linearGradient id="paint21_linear_22_363" x1="310.82" y1="146.184" x2="310.82" y2="187.911" gradientUnits="userSpaceOnUse">
<stop offset="0.18322" stop-color="#BBD2C5"/>
<stop offset="0.813466" stop-color="#536976"/>
</linearGradient>
<linearGradient id="paint22_linear_22_363" x1="312.82" y1="133.251" x2="312.82" y2="140.387" gradientUnits="userSpaceOnUse">
<stop offset="0.18322" stop-color="#BBD2C5"/>
<stop offset="0.813466" stop-color="#536976"/>
</linearGradient>
<linearGradient id="paint23_linear_22_363" x1="245.995" y1="19.7864" x2="245.995" y2="196.043" gradientUnits="userSpaceOnUse">
<stop offset="0.18322" stop-color="#BBD2C5"/>
<stop offset="0.813466" stop-color="#536976"/>
</linearGradient>
<linearGradient id="paint24_linear_22_363" x1="261.733" y1="150.481" x2="261.733" y2="162.209" gradientUnits="userSpaceOnUse">
<stop offset="0.18322" stop-color="#BBD2C5"/>
<stop offset="0.813466" stop-color="#536976"/>
</linearGradient>
<linearGradient id="paint25_linear_22_363" x1="137.707" y1="76.9155" x2="137.707" y2="84.1124" gradientUnits="userSpaceOnUse">
<stop offset="0.18322" stop-color="#BBD2C5"/>
<stop offset="0.813466" stop-color="#536976"/>
</linearGradient>
<linearGradient id="paint26_linear_22_363" x1="139.353" y1="67.8977" x2="139.353" y2="72.3637" gradientUnits="userSpaceOnUse">
<stop offset="0.18322" stop-color="#BBD2C5"/>
<stop offset="0.813466" stop-color="#536976"/>
</linearGradient>
<linearGradient id="paint27_linear_22_363" x1="141.553" y1="58.783" x2="141.553" y2="65.4412" gradientUnits="userSpaceOnUse">
<stop offset="0.18322" stop-color="#BBD2C5"/>
<stop offset="0.813466" stop-color="#536976"/>
</linearGradient>
<linearGradient id="paint28_linear_22_363" x1="144.11" y1="66.5134" x2="144.11" y2="69.9327" gradientUnits="userSpaceOnUse">
<stop offset="0.18322" stop-color="#BBD2C5"/>
<stop offset="0.813466" stop-color="#536976"/>
</linearGradient>
<linearGradient id="paint29_linear_22_363" x1="146.569" y1="82.356" x2="146.569" y2="85.8881" gradientUnits="userSpaceOnUse">
<stop offset="0.18322" stop-color="#BBD2C5"/>
<stop offset="0.813466" stop-color="#536976"/>
</linearGradient>
<linearGradient id="paint30_linear_22_363" x1="128.854" y1="70.1233" x2="128.854" y2="75.5191" gradientUnits="userSpaceOnUse">
<stop offset="0.18322" stop-color="#BBD2C5"/>
<stop offset="0.813466" stop-color="#536976"/>
</linearGradient>
<linearGradient id="paint31_linear_22_363" x1="176.987" y1="42.7283" x2="176.987" y2="134.387" gradientUnits="userSpaceOnUse">
<stop offset="0.18322" stop-color="#BBD2C5"/>
<stop offset="0.813466" stop-color="#536976"/>
</linearGradient>
<linearGradient id="paint32_linear_22_363" x1="185.321" y1="92.6006" x2="185.321" y2="98.732" gradientUnits="userSpaceOnUse">
<stop offset="0.18322" stop-color="#BBD2C5"/>
<stop offset="0.813466" stop-color="#536976"/>
</linearGradient>
<linearGradient id="paint33_linear_22_363" x1="183.038" y1="103.139" x2="183.038" y2="108.983" gradientUnits="userSpaceOnUse">
<stop offset="0.18322" stop-color="#BBD2C5"/>
<stop offset="0.813466" stop-color="#536976"/>
</linearGradient>
<linearGradient id="paint34_linear_22_363" x1="202.976" y1="126.194" x2="202.976" y2="132.36" gradientUnits="userSpaceOnUse">
<stop offset="0.18322" stop-color="#BBD2C5"/>
<stop offset="0.813466" stop-color="#536976"/>
</linearGradient>
<linearGradient id="paint35_linear_22_363" x1="187.443" y1="51.6963" x2="187.443" y2="56.4337" gradientUnits="userSpaceOnUse">
<stop offset="0.18322" stop-color="#BBD2C5"/>
<stop offset="0.813466" stop-color="#536976"/>
</linearGradient>
<linearGradient id="paint36_linear_22_363" x1="202.891" y1="34.0947" x2="202.891" y2="50.761" gradientUnits="userSpaceOnUse">
<stop offset="0.18322" stop-color="#BBD2C5"/>
<stop offset="0.813466" stop-color="#536976"/>
</linearGradient>
<linearGradient id="paint37_linear_22_363" x1="205.961" y1="10.1345" x2="205.961" y2="35.9412" gradientUnits="userSpaceOnUse">
<stop offset="0.18322" stop-color="#BBD2C5"/>
<stop offset="0.813466" stop-color="#536976"/>
</linearGradient>
<linearGradient id="paint38_linear_22_363" x1="140.112" y1="86.4612" x2="140.112" y2="91.7293" gradientUnits="userSpaceOnUse">
<stop offset="0.18322" stop-color="#BBD2C5"/>
<stop offset="0.813466" stop-color="#536976"/>
</linearGradient>
<linearGradient id="paint39_linear_22_363" x1="322.624" y1="125.849" x2="322.624" y2="130.946" gradientUnits="userSpaceOnUse">
<stop offset="0.18322" stop-color="#BBD2C5"/>
<stop offset="0.813466" stop-color="#536976"/>
</linearGradient>
<linearGradient id="paint40_linear_22_363" x1="245.076" y1="153.684" x2="245.076" y2="158.151" gradientUnits="userSpaceOnUse">
<stop offset="0.18322" stop-color="#BBD2C5"/>
<stop offset="0.813466" stop-color="#536976"/>
</linearGradient>
<linearGradient id="paint41_linear_22_363" x1="314.54" y1="156.802" x2="314.54" y2="345" gradientUnits="userSpaceOnUse">
<stop offset="0.18322" stop-color="#BBD2C5"/>
<stop offset="0.813466" stop-color="#536976"/>
</linearGradient>
<linearGradient id="paint42_linear_22_363" x1="282.876" y1="264.613" x2="282.876" y2="266.818" gradientUnits="userSpaceOnUse">
<stop offset="0.18322" stop-color="#BBD2C5"/>
<stop offset="0.813466" stop-color="#536976"/>
</linearGradient>
<linearGradient id="paint43_linear_22_363" x1="262.17" y1="334.683" x2="262.17" y2="335.78" gradientUnits="userSpaceOnUse">
<stop offset="0.18322" stop-color="#BBD2C5"/>
<stop offset="0.813466" stop-color="#536976"/>
</linearGradient>
<linearGradient id="paint44_linear_22_363" x1="94.2713" y1="22.2085" x2="94.2713" y2="92.0554" gradientUnits="userSpaceOnUse">
<stop offset="0.18322" stop-color="#BBD2C5"/>
<stop offset="0.813466" stop-color="#536976"/>
</linearGradient>
<linearGradient id="paint45_linear_22_363" x1="96.8872" y1="41.7566" x2="96.8872" y2="71.7594" gradientUnits="userSpaceOnUse">
<stop offset="0.18322" stop-color="#BBD2C5"/>
<stop offset="0.813466" stop-color="#536976"/>
</linearGradient>
<linearGradient id="paint46_linear_22_363" x1="109.44" y1="46.7334" x2="109.44" y2="61.8338" gradientUnits="userSpaceOnUse">
<stop offset="0.18322" stop-color="#BBD2C5"/>
<stop offset="0.813466" stop-color="#536976"/>
</linearGradient>
<linearGradient id="paint47_linear_22_363" x1="103.92" y1="-18" x2="103.92" y2="60.3553" gradientUnits="userSpaceOnUse">
<stop offset="0.18322" stop-color="#BBD2C5"/>
<stop offset="0.813466" stop-color="#536976"/>
</linearGradient>
<linearGradient id="paint48_linear_22_363" x1="142.52" y1="12.8992" x2="142.52" y2="28.9959" gradientUnits="userSpaceOnUse">
<stop offset="0.18322" stop-color="#BBD2C5"/>
<stop offset="0.813466" stop-color="#536976"/>
</linearGradient>
<linearGradient id="paint49_linear_22_363" x1="142.108" y1="24.5857" x2="142.108" y2="37.1357" gradientUnits="userSpaceOnUse">
<stop offset="0.18322" stop-color="#BBD2C5"/>
<stop offset="0.813466" stop-color="#536976"/>
</linearGradient>
<linearGradient id="paint50_linear_22_363" x1="286.98" y1="226.851" x2="286.98" y2="232.572" gradientUnits="userSpaceOnUse">
<stop offset="0.18322" stop-color="#BBD2C5"/>
<stop offset="0.813466" stop-color="#536976"/>
</linearGradient>
<linearGradient id="paint51_linear_22_363" x1="292.379" y1="231.194" x2="292.379" y2="235.529" gradientUnits="userSpaceOnUse">
<stop offset="0.18322" stop-color="#BBD2C5"/>
<stop offset="0.813466" stop-color="#536976"/>
</linearGradient>
<linearGradient id="paint52_linear_22_363" x1="290.169" y1="211.633" x2="290.169" y2="221.807" gradientUnits="userSpaceOnUse">
<stop offset="0.18322" stop-color="#BBD2C5"/>
<stop offset="0.813466" stop-color="#536976"/>
</linearGradient>
<linearGradient id="paint53_linear_22_363" x1="276.222" y1="229.84" x2="276.222" y2="238.265" gradientUnits="userSpaceOnUse">
<stop offset="0.18322" stop-color="#BBD2C5"/>
<stop offset="0.813466" stop-color="#536976"/>
</linearGradient>
<linearGradient id="paint54_linear_22_363" x1="284.358" y1="238.291" x2="284.358" y2="243.622" gradientUnits="userSpaceOnUse">
<stop offset="0.18322" stop-color="#BBD2C5"/>
<stop offset="0.813466" stop-color="#536976"/>
</linearGradient>
<linearGradient id="paint55_linear_22_363" x1="276.376" y1="221.277" x2="276.376" y2="225.721" gradientUnits="userSpaceOnUse">
<stop offset="0.18322" stop-color="#BBD2C5"/>
<stop offset="0.813466" stop-color="#536976"/>
</linearGradient>
<linearGradient id="paint56_linear_22_363" x1="266.315" y1="226.249" x2="266.315" y2="232.336" gradientUnits="userSpaceOnUse">
<stop offset="0.18322" stop-color="#BBD2C5"/>
<stop offset="0.813466" stop-color="#536976"/>
</linearGradient>
<linearGradient id="paint57_linear_22_363" x1="28.2474" y1="23.2393" x2="28.2474" y2="29.4892" gradientUnits="userSpaceOnUse">
<stop offset="0.18322" stop-color="#BBD2C5"/>
<stop offset="0.813466" stop-color="#536976"/>
</linearGradient>
<linearGradient id="paint58_linear_22_363" x1="14.4957" y1="29.3835" x2="14.4957" y2="34.1865" gradientUnits="userSpaceOnUse">
<stop offset="0.18322" stop-color="#BBD2C5"/>
<stop offset="0.813466" stop-color="#536976"/>
</linearGradient>
<linearGradient id="paint59_linear_22_363" x1="4.54101" y1="30.9307" x2="4.54101" y2="39.4617" gradientUnits="userSpaceOnUse">
<stop offset="0.18322" stop-color="#BBD2C5"/>
<stop offset="0.813466" stop-color="#536976"/>
</linearGradient>
<linearGradient id="paint60_linear_22_363" x1="9.06168" y1="25.1262" x2="9.06168" y2="29.5306" gradientUnits="userSpaceOnUse">
<stop offset="0.18322" stop-color="#BBD2C5"/>
<stop offset="0.813466" stop-color="#536976"/>
</linearGradient>
<linearGradient id="paint61_linear_22_363" x1="25.1802" y1="38.313" x2="25.1802" y2="44.9502" gradientUnits="userSpaceOnUse">
<stop offset="0.18322" stop-color="#BBD2C5"/>
<stop offset="0.813466" stop-color="#536976"/>
</linearGradient>
</defs>
</svg>
