<?xml version="1.0" encoding="UTF-8" standalone="no"?>
<!-- Created with Inkscape (http://www.inkscape.org/) -->

<svg
   width="16.602123mm"
   height="17.574245mm"
   viewBox="0 0 16.602123 17.574245"
   version="1.1"
   id="svg5"
   sodipodi:docname="sampul.svg"
   xml:space="preserve"
   inkscape:version="1.2.2 (1:1.2.2+202212051552+b0a8486541)"
   xmlns:inkscape="http://www.inkscape.org/namespaces/inkscape"
   xmlns:sodipodi="http://sodipodi.sourceforge.net/DTD/sodipodi-0.dtd"
   xmlns="http://www.w3.org/2000/svg"
   xmlns:svg="http://www.w3.org/2000/svg"><sodipodi:namedview
     id="namedview7"
     pagecolor="#ffffff"
     bordercolor="#000000"
     borderopacity="0.25"
     inkscape:showpageshadow="2"
     inkscape:pageopacity="0.0"
     inkscape:pagecheckerboard="0"
     inkscape:deskcolor="#d1d1d1"
     inkscape:document-units="mm"
     showgrid="false"
     inkscape:zoom="0.70710678"
     inkscape:cx="72.124891"
     inkscape:cy="499.92449"
     inkscape:window-width="1366"
     inkscape:window-height="699"
     inkscape:window-x="0"
     inkscape:window-y="800"
     inkscape:window-maximized="1"
     inkscape:current-layer="layer1" /><defs
     id="defs2" /><g
     inkscape:label="Layer 1"
     inkscape:groupmode="layer"
     id="layer1"
     transform="translate(-36.809458,-84.773365)"><g
       id="g13662"
       transform="matrix(-0.93586723,0.18522537,-0.24243207,-1.1122932,153.43738,145.07193)"><g
         id="g13660"
         transform="translate(1.9229478,0.29583897)"><g
           id="g13658"
           transform="matrix(0.0064127,0,0,-0.0064127,-19.32534,207.02979)"><g
             id="g13656"
             transform="matrix(0.75259817,0,0,0.6557107,15990.874,11071.824)"><path
               d="m 982.62482,16297.576 c -22.52,-149.9 -183.7,-293.81 -183.7,-293.81 0,0 193.26,96.65 340.87998,62.24 147.62,-34.42 405.7,-115.24 453.24,79.81 47.83,196.3 -166.48,228.91 -239.56,234.35 21.92,69.92 70.75,281.13 -129.35,309.16 -198.82,27.83 -218.99,-241.85 -241.50998,-391.75"
               style="fill:#d5cfa3;fill-opacity:0.992157;fill-rule:nonzero;stroke:none"
               id="path13630" /><path
               d="m 982.62482,16297.576 c -22.52,-149.9 -183.7,-293.81 -183.7,-293.81 l 554.55998,376.4 c 21.92,69.92 70.75,281.13 -129.35,309.16 -198.82,27.83 -218.99,-241.85 -241.50998,-391.75"
               style="fill:#d5cfa3;fill-opacity:0.992157;fill-rule:nonzero;stroke:none"
               id="path13632" /><path
               d="m 3629.2348,17924.826 c 0,0 329.64,44.01 483.52,-118.48 0,0 390.22,428.29 905.5197,605.99 0,0 -326.1997,233.89 -549.9497,82.02 -160.37,-108.86 -839.09,-569.53 -839.09,-569.53"
               style="fill:#d4bca2;fill-opacity:1;fill-rule:nonzero;stroke:none"
               id="path13634" /><path
               d="m 3629.2248,17924.836 c 0,0 162.61,290.1 68.41,493.09 0,0 542.11,204.53 897.5,617.81 0,0 96.93,-389.51 -126.83,-541.38 -160.36,-108.85 -839.08,-569.52 -839.08,-569.52"
               style="fill:#d4bca2;fill-opacity:1;fill-rule:nonzero;stroke:none"
               id="path13636" /><path
               d="m 3697.6348,18417.926 c 94.2,-202.99 -68.41,-493.09 -68.41,-493.09 0,0 678.72,460.67 839.08,569.52 223.76,151.87 126.83,541.38 126.83,541.38 -355.39,-413.28 -897.5,-617.81 -897.5,-617.81"
               style="fill:#eccfb2;fill-opacity:1;fill-rule:nonzero;stroke:none"
               id="path13638" /><path
               d="m 3867.7948,18044.526 -0.35,1.95 0.34,-1.95 h 0.01 l -0.35,1.95 0.34,-1.95 c 0.97,0.17 17.88,3.03 45.46,3.03 54.79,-0.01 150.95,-11.22 250.19,-75.89 11.9,-7.75 27.82,-4.39 35.57,7.5 7.75,11.9 4.39,27.82 -7.51,35.57 -109.93,71.6 -216.66,84.24 -278.25,84.23 -33.2,-0.01 -53.49,-3.65 -54.74,-3.88 -13.96,-2.57 -23.2,-15.97 -20.63,-29.93 2.56,-13.96 15.96,-23.2 29.92,-20.63"
               style="fill:#b19f8e;fill-opacity:1;fill-rule:nonzero;stroke:none"
               id="path13640" /><path
               d="m 4413.7948,18162.146 c -0.92,0.75 -30.54,25.47 -77,50.46 -46.48,24.88 -109.93,50.48 -179.62,50.6 -20.87,0 -42.26,-2.35 -63.69,-7.85 -13.76,-3.52 -22.05,-17.52 -18.52,-31.28 3.52,-13.75 17.52,-22.04 31.28,-18.52 16.88,4.33 33.92,6.24 50.93,6.24 56.67,0.13 113.29,-21.81 155.29,-44.48 21,-11.28 38.33,-22.61 50.28,-31.04 5.98,-4.22 10.61,-7.7 13.69,-10.09 1.55,-1.19 2.7,-2.11 3.44,-2.71 l 0.8,-0.65 0.16,-0.13 0.42,0.51 -0.43,-0.51 h 0.01 l 0.42,0.51 -0.43,-0.51 c 10.9,-9.1 27.11,-7.65 36.21,3.24 9.1,10.9 7.65,27.11 -3.24,36.21"
               style="fill:#b19f8e;fill-opacity:1;fill-rule:nonzero;stroke:none"
               id="path13642" /><path
               d="m 4634.2348,18311.646 c -0.94,0.78 -30.36,25.54 -77.04,50.53 -46.68,24.9 -110.78,50.46 -181.94,50.57 -19.13,0 -38.74,-1.89 -58.51,-6.22 -13.86,-3.04 -22.64,-16.75 -19.6,-30.61 3.04,-13.87 16.74,-22.65 30.61,-19.61 15.87,3.48 31.74,5.03 47.5,5.03 58.45,0.11 115.56,-21.86 157.69,-44.48 21.05,-11.27 38.34,-22.59 50.24,-31 5.94,-4.2 10.54,-7.68 13.6,-10.06 1.52,-1.19 2.66,-2.1 3.39,-2.69 l 0.79,-0.65 0.15,-0.12 1.15,1.38 -1.15,-1.38 v 0 l 1.15,1.38 -1.15,-1.38 c 10.85,-9.15 27.07,-7.76 36.21,3.09 9.15,10.86 7.77,27.08 -3.09,36.22"
               style="fill:#b19f8e;fill-opacity:1;fill-rule:nonzero;stroke:none"
               id="path13644" /><path
               d="m 929.18482,16092.156 c 7.61,-11.21 269.70998,148.56 282.76998,157.43 l 3294.11,2235.87 -0.28,0.42 c 9.74,9.49 11.62,24.8 3.73,36.44 -7.9,11.62 -22.83,15.53 -35.25,9.99 l -0.28,0.41 -3294.11,-2235.86 c -13.06,-8.87 -258.29998,-193.48 -250.68998,-204.7"
               style="fill:#d4bca2;fill-opacity:1;fill-rule:nonzero;stroke:none"
               id="path13646" /><path
               d="m 3884.9248,18056.156 c 0.78,1.25 15.37,24.71 29.86,65.52 14.49,40.8 28.89,99.03 28.9,169.52 0,32.32 -3.04,67.21 -10.48,104.08 -2.81,13.91 -16.37,22.92 -30.29,20.11 -13.91,-2.81 -22.91,-16.37 -20.1,-30.29 6.73,-33.36 9.46,-64.79 9.46,-93.9 0.01,-63.44 -13,-115.91 -25.93,-152.32 -6.46,-18.2 -12.9,-32.37 -17.62,-41.83 -2.36,-4.73 -4.3,-8.28 -5.6,-10.57 -0.64,-1.15 -1.13,-1.98 -1.43,-2.49 l -0.31,-0.51 -0.01,-0.02 c -7.54,-12.02 -3.9,-27.89 8.12,-35.43 12.03,-7.54 27.89,-3.9 35.44,8.13"
               style="fill:#c5af9a;fill-opacity:1;fill-rule:nonzero;stroke:none"
               id="path13648" /><path
               d="m 4103.4448,18531.376 8.58,2.82 -8.59,-2.8 0.01,-0.02 8.58,2.82 -8.59,-2.8 c 0.19,-0.37 19.31,-59.99 19.23,-130.63 0.01,-26.11 -2.57,-53.68 -9.35,-80.26 -6.77,-26.6 -17.67,-52.14 -34.24,-74.93 -8.35,-11.48 -5.82,-27.55 5.67,-35.9 11.48,-8.35 27.55,-5.82 35.9,5.66 21.06,28.95 34.42,60.77 42.49,92.49 8.08,31.75 10.94,63.48 10.94,92.94 -0.08,80.86 -21.36,145.15 -21.8,146.68 -4.44,13.48 -18.97,20.82 -32.45,16.38 -13.49,-4.44 -20.82,-18.97 -16.38,-32.45"
               style="fill:#c5af9a;fill-opacity:1;fill-rule:nonzero;stroke:none"
               id="path13650" /><path
               d="m 4323.8348,18680.846 9.25,3.09 -9.26,-3.06 0.01,-0.03 9.25,3.09 -9.26,-3.06 c 0.17,-0.31 19.17,-58.72 19.1,-129.32 0,-25.67 -2.48,-52.89 -8.99,-79.5 -6.51,-26.63 -17,-52.58 -32.98,-76.25 -7.95,-11.77 -4.85,-27.75 6.91,-35.69 11.77,-7.95 27.75,-4.85 35.69,6.92 19.93,29.5 32.62,61.31 40.32,92.81 7.7,31.52 10.45,62.77 10.46,91.71 -0.08,80.8 -21.27,143.99 -21.73,145.56 -4.5,13.47 -19.05,20.74 -32.52,16.25 -13.47,-4.5 -20.74,-19.06 -16.25,-32.52"
               style="fill:#c5af9a;fill-opacity:1;fill-rule:nonzero;stroke:none"
               id="path13652" /><path
               d="m 929.18482,16092.156 3580.32998,2430.16 c -7.9,11.62 -22.83,15.53 -35.25,9.99 l -0.28,0.41 -3294.11,-2235.86 c -13.06,-8.87 -258.29998,-193.48 -250.68998,-204.7"
               style="fill:#d4bca2;fill-opacity:1;fill-rule:nonzero;stroke:none"
               id="path13654" /></g></g></g></g></g></svg>
