<?xml version="1.0" encoding="UTF-8" standalone="no"?>
<!-- Created with Inkscape (http://www.inkscape.org/) -->

<svg
   width="30.472584mm"
   height="13.195442mm"
   viewBox="0 0 30.472584 13.195442"
   version="1.1"
   id="svg5"
   sodipodi:docname="sampul.svg"
   xml:space="preserve"
   inkscape:version="1.2.2 (1:1.2.2+202212051552+b0a8486541)"
   xmlns:inkscape="http://www.inkscape.org/namespaces/inkscape"
   xmlns:sodipodi="http://sodipodi.sourceforge.net/DTD/sodipodi-0.dtd"
   xmlns="http://www.w3.org/2000/svg"
   xmlns:svg="http://www.w3.org/2000/svg"><sodipodi:namedview
     id="namedview7"
     pagecolor="#ffffff"
     bordercolor="#000000"
     borderopacity="0.25"
     inkscape:showpageshadow="2"
     inkscape:pageopacity="0.0"
     inkscape:pagecheckerboard="0"
     inkscape:deskcolor="#d1d1d1"
     inkscape:document-units="mm"
     showgrid="false"
     inkscape:zoom="0.70710678"
     inkscape:cx="72.124891"
     inkscape:cy="499.92449"
     inkscape:window-width="1366"
     inkscape:window-height="699"
     inkscape:window-x="0"
     inkscape:window-y="800"
     inkscape:window-maximized="1"
     inkscape:current-layer="layer1" /><defs
     id="defs2" /><g
     inkscape:label="Layer 1"
     inkscape:groupmode="layer"
     id="layer1"
     transform="translate(-67.424113,-124.62767)"><g
       id="g16694"><g
         id="g16004"
         transform="translate(88.802239,27.114955)"><g
           id="g6313"
           transform="matrix(0.00394812,-0.00683832,-0.00683832,-0.00394812,-24.673788,136.39146)"><path
             d="m 3732.52,750.199 c 7.2,-21.679 14.29,-43.379 21.89,-64.89 3.94,-11.149 7.99,-22.258 12.06,-33.36 3.94,-10.789 8.31,-21.469 12.55,-32.168 4.05,-10.269 8.35,-20.472 12.72,-30.613 4.91,-11.457 9.73,-22.938 14.45,-34.477 8.22,-20.023 16.06,-40.16 24.51,-60.082 8.87,-20.968 17.76,-41.968 26.78,-62.879 9.16,-21.14 19.76,-41.66 30.56,-61.992 10.4,-19.566 20.76,-39.16 31.51,-58.519 2.37,-4.25 4.67,-8.66 7.29,-12.77 3.02,-4.769 6.08,-9.5 9.17,-14.25 2.74,-4.211 5.51,-8.418 8.27,-12.629 5.46,4.141 10.9,8.309 16.26,12.602 -4.01,6.078 -8.02,12.156 -11.9,18.316 -11.91,18.864 -22.1,38.813 -32.66,58.453 -10.96,20.379 -21.62,40.879 -31.67,61.731 -9.48,19.59 -17.86,39.769 -26.27,59.84 -8.76,20.879 -17.5,41.75 -26.07,62.726 -4.4,10.703 -8.61,21.512 -13.01,32.223 -3.89,9.488 -8.05,18.879 -12.04,28.34 -2.17,5.129 -4.32,10.269 -6.49,15.398 -7.77,19.66 -15.5,39.313 -22.56,59.25 -7.6,21.602 -14.9,43.281 -22.11,64.992 -7.29,21.887 -13.92,43.969 -20.55,66.071 -3.35,11.136 -6.37,22.398 -9.45,33.629 -2.91,10.66 -5.18,21.527 -7.58,32.308 -5.76,25.801 -10.23,51.903 -15.02,77.879 -1.02,5.531 -7.3,8.801 -12.49,7.5 -5.72,-1.43 -8.53,-6.969 -7.51,-12.488 4.52,-24.41 9.01,-48.82 13.96,-73.149 4.49,-21.972 10.34,-43.589 16.5,-65.132 5.91,-20.719 12.1,-41.411 18.9,-61.86"
             style="fill:#d5cfa3;fill-opacity:0.992157;fill-rule:nonzero;stroke:none"
             id="path5556" /><path
             d="m 3704.03,938.84 c -4.99,21.039 -9.72,42.109 -14.36,63.23 -4.96,22.53 -9.26,45.18 -13.54,67.85 -2.17,11.43 -4,22.95 -5.89,34.44 -1.8,10.9 -2.91,21.93 -4.17,32.91 -3.04,26.26 -4.77,52.69 -6.82,79.02 -0.44,5.61 -6.34,9.52 -11.64,8.77 -5.84,-0.82 -9.21,-6.03 -8.77,-11.64 1.94,-24.74 3.87,-49.49 6.26,-74.2 2.16,-22.32 5.74,-44.44 9.61,-66.5 3.73,-21.22 7.72,-42.45 12.34,-63.5 4.92,-22.302 9.7,-44.618 15,-66.81 0.6,-2.48 1.23,-4.949 1.84,-7.43 6.72,1.25 13.43,2.551 20.14,3.86"
             style="fill:#d5cfa3;fill-opacity:0.992157;fill-rule:nonzero;stroke:none"
             id="path5558" /><path
             d="m 3783.53,870.691 c -2.75,-0.703 -5.77,-1.39 -9.24,-2.089 -3.76,-0.743 -7.62,-1.153 -11.35,-1.551 l -0.74,-0.082 -2.14,-0.25 -2.28,-0.258 0.8,0.168 c -3,-0.41 -6,-0.731 -8.99,-1.027 l -4,-0.411 h -0.01 l -0.37,-0.043 c -1.03,-0.117 -1.8,-0.218 -2.56,-0.289 -3.14,-0.379 -6.27,-0.839 -9.38,-1.308 -3.37,-0.5 -6.75,-1 -10.13,-1.391 l -0.58,-0.051 -0.58,-0.07 c -0.44,-0.16 -0.91,-0.301 -1.37,-0.41 -2.93,-0.758 -6.11,-0.809 -9.19,-0.867 -1.09,-0.032 -2.18,-0.051 -3.22,-0.114 -0.62,-0.019 -1.22,-0.058 -1.84,-0.109 -1.29,-0.09 -2.58,-0.16 -3.87,-0.121 -0.77,0.023 -1.52,0.102 -2.28,0.203 l -0.02,-0.012 c -0.94,-0.23 -1.74,-0.3 -2.47,-0.211 l -3.24,0.34 c -0.69,0.032 -1.34,0.121 -1.98,0.25 -1.75,0.293 -3.18,0.621 -4.47,1.063 -2.81,0.937 -5.18,2.418 -7.47,4.64 -0.93,0.879 -1.69,1.957 -2.42,3 -1.61,2.309 -1.97,5.059 -2.18,7.457 -0.21,2.602 0.27,5.481 0.7,8.032 0.32,1.66 0.87,2.961 1.73,4.082 0.1,4.047 0.19,8.109 0.28,12.168 l 0.2,9.332 c 0.11,4.867 0.24,9.718 0.48,14.59 0.26,5.41 0.79,10.367 1.62,15.16 1.5,8.668 3.28,17.468 4.85,25.238 0.59,2.871 1.14,5.762 1.68,8.641 1.2,6.347 2.45,12.91 4.11,19.25 2.17,8.309 4.55,15.639 7.26,22.429 l 2.51,6.38 c 2.02,5.13 4.11,10.44 6.31,15.59 l 1.5,3.52 -0.05,-0.13 0.23,0.56 c 1.75,4.11 3.55,8.36 5.7,12.33 2.65,4.88 4.88,8.94 7.37,13.06 5.06,8.4 10.64,16.39 15.91,23.75 l 0.75,1.04 c 2.8,3.93 5.7,7.99 8.78,11.8 l 1.95,2.42 c 2.34,2.93 4.76,5.97 7.47,8.58 6.08,5.86 13.31,12.75 20.76,19.52 5.91,5.36 12.59,10.02 19.03,14.53 2.03,1.42 4.07,2.83 6.06,4.27 3.95,2.84 7.98,5.42 11.94,7.63 4.3,2.42 8.77,4.59 13.66,6.66 9.38,3.93 19.08,7.34 28.81,10.12 3.17,0.91 6.34,1.79 9.53,2.61 6.91,1.77 12.73,2.94 18.32,3.66 7.59,1 15.33,1.75 22.81,2.48 l 1.28,0.13 0.85,0.08 c 6.76,0.66 13.76,1.34 20.64,1.11 3.38,-0.12 6.75,-0.38 10.13,-0.64 2.69,-0.21 5.39,-0.43 8.08,-0.56 3.1,-0.15 6.19,-0.27 9.3,-0.34 2.54,-0.05 5.06,-0.24 7.59,-0.41 l 2.71,-0.19 c 2.55,-0.17 4.91,-1.31 6.52,-3.12 2.97,-1.39 5.06,-3.92 5.73,-6.94 l 0.19,-0.89 c 0.99,-4.52 2.02,-9.2 2.83,-13.83 0.75,-4.41 0.95,-8.93 1.15,-13.31 l 0.07,-1.61 c 0.39,-8.27 0.46,-17.07 0.23,-28.54 -0.22,-11.55 -1.72,-23.01 -3.14,-32.7 -1.46,-9.83 -3.78,-19.87 -6.9,-29.83 -1.43,-4.52 -3.03,-8.97 -4.77,-13.2 -1.62,-3.96 -3.47,-7.89 -5.27,-11.69 l -1.69,-3.64 c -0.77,-1.66 -1.52,-3.33 -2.28,-5 -1.31,-2.9 -2.63,-5.8 -4.01,-8.68 -1.93,-4 -4.14,-7.95 -6.26,-11.78 l -0.62,-1.089 c -3.43,-6.121 -7.63,-11.851 -11.69,-17.402 -1.45,-1.969 -2.9,-3.949 -4.32,-5.938 -3.62,-5.14 -7.02,-9.66 -10.38,-13.839 -2.23,-2.762 -4.58,-5.422 -6.93,-8.063 -1.06,-1.211 -2.12,-2.418 -3.17,-3.629 -6.69,-7.711 -13.76,-15.039 -21.02,-21.781 -3.96,-3.688 -7.54,-6.981 -11.38,-10.051 -4.05,-3.219 -8.64,-6.5 -14.04,-10 -8.49,-5.508 -17.18,-10.719 -25.84,-15.469 -4.54,-2.5 -8.83,-4.578 -13.11,-6.39 -1.54,-0.66 -3.07,-1.328 -4.61,-1.989 -3.52,-1.539 -7.16,-3.128 -10.81,-4.531 l -2.55,-0.949 c -1.29,-0.48 -2.59,-0.961 -3.88,-1.449 l 0.59,0.301 c -8.17,-3.223 -15.11,-5.551 -21.77,-7.352 -0.72,-0.199 -1.43,-0.391 -2.14,-0.559"
             style="fill:#e8e8cf;fill-opacity:1;fill-rule:nonzero;stroke:none"
             id="path5560" /><path
             d="m 3620.93,846.66 c 2.84,0.11 5.93,0.34 9.45,0.68 3.82,0.371 7.63,1.09 11.31,1.789 l 0.74,0.133 2.12,0.386 2.26,0.403 L 3646,850 c 2.99,0.449 5.95,1.031 8.9,1.609 l 3.94,0.762 h 0.01 l 0.37,0.078 c 1.02,0.172 1.79,0.301 2.54,0.449 3.12,0.551 6.24,1.012 9.36,1.473 3.37,0.5 6.74,1 10.09,1.59 l 0.57,0.109 0.58,0.11 c 0.47,-0.02 0.95,-0.008 1.42,0.011 3.03,0.118 6.1,0.977 9.06,1.809 1.05,0.301 2.1,0.602 3.12,0.84 0.59,0.16 1.18,0.301 1.78,0.43 1.26,0.3 2.52,0.589 3.75,1 0.72,0.23 1.42,0.55 2.12,0.851 h 0.03 c 0.95,0.051 1.73,0.207 2.42,0.508 l 3,1.269 c 0.64,0.223 1.25,0.493 1.82,0.821 1.6,0.769 2.86,1.492 3.98,2.293 2.41,1.718 4.25,3.816 5.8,6.597 0.63,1.129 1.05,2.379 1.45,3.59 0.88,2.66 0.43,5.41 -0.07,7.762 -0.55,2.551 -1.85,5.168 -3,7.488 -0.78,1.492 -1.68,2.582 -2.84,3.403 -1.25,3.847 -2.51,7.707 -3.77,11.57 l -2.9,8.879 c -1.52,4.629 -3.04,9.23 -4.67,13.82 -1.82,5.098 -3.76,9.688 -5.94,14.039 -3.95,7.86 -8.2,15.781 -11.95,22.758 -1.39,2.582 -2.75,5.184 -4.11,7.793 -2.98,5.719 -6.07,11.648 -9.5,17.23 -4.49,7.329 -8.87,13.669 -13.43,19.379 l -4.26,5.37 c -3.42,4.34 -6.96,8.81 -10.54,13.1 l -2.46,2.94 0.08,-0.11 -0.37,0.47 c -2.86,3.42 -5.82,6.98 -9.03,10.15 -3.94,3.91 -7.25,7.15 -10.83,10.37 -7.28,6.58 -14.93,12.6 -22.11,18.14 l -1.01,0.77 c -3.82,2.96 -7.77,6.01 -11.83,8.76 l -2.56,1.75 c -3.08,2.14 -6.28,4.34 -9.63,6.05 -7.52,3.85 -16.43,8.36 -25.52,12.68 -7.2,3.43 -14.94,5.95 -22.42,8.41 -2.36,0.77 -4.7,1.54 -7.04,2.33 -4.61,1.58 -9.19,2.88 -13.63,3.85 -4.81,1.07 -9.73,1.86 -15.01,2.42 -10.11,1.05 -20.37,1.51 -30.51,1.36 -3.29,-0.05 -6.58,-0.12 -9.87,-0.26 -7.12,-0.3 -13.03,-0.88 -18.59,-1.79 -7.55,-1.24 -15.18,-2.76 -22.55,-4.22 l -1.26,-0.26 -0.84,-0.16 c -6.66,-1.33 -13.56,-2.7 -20.08,-4.91 -3.2,-1.09 -6.36,-2.32 -9.51,-3.54 -2.51,-0.99 -5.03,-1.97 -7.58,-2.88 -2.92,-1.04 -5.85,-2.04 -8.8,-3.02 -2.42,-0.78 -4.77,-1.68 -7.14,-2.59 l -2.55,-0.96 c -2.39,-0.9 -4.32,-2.67 -5.33,-4.88 -2.45,-2.18 -3.72,-5.21 -3.48,-8.29 l 0.07,-0.91 c 0.36,-4.6 0.74,-9.38 1.3,-14.06 0.55,-4.43 1.67,-8.83 2.75,-13.07 l 0.4,-1.57 c 2.02,-8.01 4.49,-16.46 8.02,-27.38 3.57,-10.99 8.31,-21.52 12.48,-30.392 4.23,-8.988 9.36,-17.929 15.23,-26.547 2.68,-3.921 5.5,-7.722 8.39,-11.269 2.69,-3.313 5.6,-6.551 8.42,-9.66 l 2.67,-2.992 c 1.21,-1.372 2.41,-2.739 3.63,-4.129 2.09,-2.391 4.19,-4.789 6.34,-7.153 3.01,-3.277 6.26,-6.41 9.42,-9.457 l 0.9,-0.871 c 5.04,-4.871 10.73,-9.148 16.23,-13.269 1.96,-1.481 3.91,-2.95 5.85,-4.45 4.95,-3.863 9.51,-7.211 13.93,-10.23 2.94,-2 5.95,-3.871 8.97,-5.723 1.36,-0.847 2.73,-1.699 4.09,-2.547 8.63,-5.453 17.52,-10.421 26.41,-14.781 4.86,-2.371 9.24,-4.488 13.8,-6.32 4.81,-1.918 10.16,-3.731 16.34,-5.52 9.71,-2.808 19.54,-5.289 29.21,-7.332 5.07,-1.078 9.77,-1.828 14.39,-2.32 1.67,-0.188 3.33,-0.379 4.99,-0.578 3.82,-0.461 7.77,-0.922 11.67,-1.199 l 2.71,-0.172 c 1.38,-0.09 2.75,-0.18 4.14,-0.278 l -0.65,0.129 c 8.75,-0.718 16.06,-0.949 22.95,-0.742 0.75,0.012 1.48,0.051 2.21,0.082"
             style="fill:#e8e8cf;fill-opacity:1;fill-rule:nonzero;stroke:none"
             id="path5562" /><path
             d="m 3884.22,579.512 c -2.61,-1.121 -5.5,-2.242 -8.83,-3.453 -3.6,-1.309 -7.35,-2.278 -10.97,-3.239 l -0.72,-0.199 -2.09,-0.562 -2.21,-0.61 0.76,0.289 c -2.9,-0.859 -5.82,-1.609 -8.73,-2.359 l -3.9,-1.008 v 0 l -0.37,-0.09 c -0.99,-0.281 -1.75,-0.492 -2.49,-0.691 -3.05,-0.84 -6.06,-1.762 -9.07,-2.692 -3.26,-1 -6.52,-2 -9.81,-2.886 l -0.55,-0.153 -0.57,-0.16 c -0.42,-0.211 -0.86,-0.418 -1.3,-0.597 -2.78,-1.18 -5.92,-1.723 -8.95,-2.25 -1.08,-0.18 -2.14,-0.372 -3.18,-0.582 -0.59,-0.122 -1.19,-0.25 -1.79,-0.379 -1.26,-0.289 -2.52,-0.563 -3.81,-0.723 -0.75,-0.09 -1.53,-0.109 -2.28,-0.129 l -0.03,-0.008 c -0.88,-0.383 -1.67,-0.57 -2.41,-0.59 l -3.25,-0.152 c -0.67,-0.07 -1.34,-0.078 -1.99,-0.039 -1.78,0.012 -3.23,0.121 -4.58,0.371 -2.92,0.508 -5.48,1.617 -8.08,3.449 -1.05,0.758 -1.96,1.7 -2.85,2.621 -1.93,2.028 -2.71,4.7 -3.27,7.039 -0.6,2.54 -0.55,5.469 -0.51,8.059 0.06,1.68 0.41,3.051 1.09,4.289 -0.5,4.012 -1.03,8.043 -1.56,12.07 l -1.2,9.25 c -0.61,4.84 -1.21,9.653 -1.72,14.5 -0.55,5.391 -0.76,10.372 -0.67,15.231 0.18,8.789 0.62,17.762 1.01,25.68 0.15,2.921 0.26,5.859 0.36,8.793 0.24,6.457 0.47,13.136 1.17,19.648 0.91,8.551 2.15,16.148 3.81,23.27 l 1.53,6.679 c 1.22,5.379 2.49,10.942 3.89,16.36 l 0.95,3.711 -0.03,-0.141 0.15,0.59 c 1.1,4.332 2.26,8.812 3.78,13.051 1.88,5.218 3.48,9.57 5.32,14.019 3.75,9.063 8.06,17.789 12.17,25.871 l 0.58,1.141 c 2.17,4.308 4.43,8.758 6.91,12.988 l 1.56,2.68 c 1.88,3.261 3.81,6.621 6.1,9.609 5.13,6.703 11.25,14.613 17.59,22.41 5.03,6.203 10.93,11.801 16.63,17.231 1.8,1.699 3.59,3.41 5.36,5.133 3.47,3.398 7.06,6.546 10.65,9.339 3.89,3.028 7.98,5.86 12.51,8.629 8.67,5.301 17.74,10.121 26.96,14.34 2.99,1.371 6,2.719 9.03,4.008 6.56,2.781 12.13,4.812 17.55,6.383 7.36,2.117 14.9,4.027 22.18,5.879 l 1.25,0.308 0.83,0.203 c 6.58,1.668 13.39,3.399 20.24,4.2 3.36,0.39 6.74,0.648 10.1,0.89 2.7,0.199 5.39,0.391 8.08,0.66 3.09,0.321 6.16,0.68 9.24,1.059 2.53,0.328 5.05,0.539 7.57,0.738 l 2.71,0.223 c 2.54,0.211 5.06,-0.551 6.91,-2.109 3.15,-0.922 5.6,-3.114 6.72,-6 l 0.32,-0.852 c 1.66,-4.309 3.37,-8.789 4.86,-13.25 1.42,-4.238 2.3,-8.68 3.15,-12.98 l 0.31,-1.579 c 1.62,-8.121 3.02,-16.812 4.52,-28.179 1.5,-11.461 1.75,-23.012 1.8,-32.813 0.04,-9.937 -0.76,-20.211 -2.34,-30.508 -0.73,-4.691 -1.65,-9.332 -2.73,-13.781 -1.02,-4.148 -2.25,-8.32 -3.45,-12.351 l -1.13,-3.848 c -0.51,-1.75 -1.01,-3.512 -1.51,-5.281 -0.86,-3.071 -1.72,-6.129 -2.65,-9.192 -1.31,-4.25 -2.89,-8.476 -4.43,-12.578 l -0.44,-1.18 c -2.47,-6.57 -5.76,-12.871 -8.95,-18.949 -1.13,-2.179 -2.28,-4.351 -3.37,-6.543 -2.81,-5.609 -5.49,-10.59 -8.18,-15.218 -1.8,-3.079 -3.71,-6.059 -5.64,-9.02 -0.88,-1.359 -1.75,-2.711 -2.61,-4.07 -5.45,-8.621 -11.33,-16.93 -17.5,-24.692 -3.36,-4.226 -6.4,-8.027 -9.73,-11.636 -3.52,-3.801 -7.57,-7.731 -12.39,-12.012 -7.55,-6.711 -15.37,-13.16 -23.22,-19.172 -4.11,-3.148 -8.03,-5.859 -12,-8.277 -1.42,-0.891 -2.84,-1.782 -4.26,-2.661 -3.25,-2.05 -6.61,-4.171 -10.01,-6.109 l -2.37,-1.32 c -1.21,-0.66 -2.41,-1.332 -3.62,-2.02 l 0.53,0.387 c -7.58,-4.406 -14.1,-7.75 -20.41,-10.527 -0.67,-0.313 -1.35,-0.602 -2.03,-0.879"
             style="fill:#e8e8cf;fill-opacity:1;fill-rule:nonzero;stroke:none"
             id="path5564" /><path
             d="m 3727.08,531.309 c 2.79,0.55 5.81,1.23 9.24,2.101 3.71,0.942 7.38,2.231 10.91,3.469 l 0.71,0.25 2.04,0.699 2.17,0.742 -0.79,-0.191 c 2.88,0.91 5.72,1.93 8.56,2.93 l 3.78,1.351 v 0 l 0.37,0.141 c 0.97,0.32 1.71,0.558 2.44,0.828 3,1 6.01,1.93 9.02,2.851 3.26,1.008 6.52,2 9.75,3.11 l 0.54,0.18 0.56,0.199 c 0.46,0.051 0.95,0.121 1.41,0.211 2.97,0.59 5.87,1.902 8.67,3.172 1,0.437 1.98,0.886 2.96,1.289 0.56,0.238 1.13,0.468 1.7,0.699 1.2,0.469 2.4,0.941 3.55,1.539 0.69,0.34 1.33,0.75 1.97,1.16 h 0.02 c 0.95,0.191 1.7,0.481 2.33,0.871 l 2.77,1.711 c 0.61,0.309 1.16,0.668 1.68,1.07 1.47,1.008 2.61,1.918 3.59,2.879 2.12,2.071 3.63,4.41 4.75,7.391 0.46,1.207 0.67,2.508 0.89,3.758 0.47,2.769 -0.39,5.422 -1.23,7.672 -0.94,2.437 -2.62,4.839 -4.09,6.961 -1.01,1.347 -2.05,2.289 -3.32,2.937 -1.83,3.602 -3.66,7.231 -5.47,10.871 l -4.2,8.328 c -2.2,4.352 -4.4,8.684 -6.7,12.961 -2.57,4.781 -5.18,9.02 -7.98,12.992 -5.09,7.188 -10.48,14.379 -15.23,20.719 -1.77,2.328 -3.5,4.699 -5.23,7.078 -3.82,5.203 -7.76,10.602 -11.99,15.614 -5.53,6.558 -10.83,12.168 -16.19,17.128 l -5.01,4.68 c -4.03,3.77 -8.2,7.649 -12.39,11.371 l -2.87,2.528 0.09,-0.098 -0.44,0.41 c -3.35,2.957 -6.8,6.02 -10.46,8.68 -4.48,3.269 -8.23,5.98 -12.25,8.629 -8.19,5.398 -16.65,10.218 -24.59,14.601 l -1.11,0.617 c -4.22,2.352 -8.58,4.774 -13.01,6.883 l -2.8,1.348 c -3.36,1.641 -6.86,3.34 -10.42,4.539 -8.02,2.672 -17.5,5.793 -27.14,8.691 -7.64,2.309 -15.67,3.641 -23.43,4.95 -2.44,0.402 -4.88,0.812 -7.31,1.242 -4.79,0.871 -9.52,1.469 -14.06,1.758 -4.92,0.339 -9.89,0.39 -15.2,0.152 -10.15,-0.481 -20.36,-1.582 -30.36,-3.262 -3.25,-0.527 -6.49,-1.097 -9.72,-1.73 -6.99,-1.367 -12.76,-2.821 -18.12,-4.559 -7.27,-2.371 -14.59,-5.012 -21.66,-7.558 l -1.21,-0.442 -0.8,-0.301 c -6.39,-2.308 -13,-4.699 -19.12,-7.871 -3,-1.547 -5.93,-3.238 -8.86,-4.929 -2.34,-1.348 -4.68,-2.688 -7.07,-3.969 -2.72,-1.481 -5.47,-2.899 -8.24,-4.309 -2.28,-1.14 -4.47,-2.383 -6.67,-3.633 l -2.37,-1.339 c -2.23,-1.25 -3.89,-3.289 -4.54,-5.618 -2.09,-2.523 -2.9,-5.722 -2.2,-8.73 l 0.2,-0.883 c 1.06,-4.508 2.14,-9.168 3.4,-13.707 1.21,-4.301 2.98,-8.473 4.68,-12.512 l 0.63,-1.48 c 3.2,-7.641 6.92,-15.598 12.06,-25.879 5.17,-10.32 11.44,-20.031 16.89,-28.16 5.55,-8.25 11.95,-16.32 19.04,-23.969 3.25,-3.473 6.6,-6.793 9.99,-9.883 3.17,-2.867 6.53,-5.629 9.78,-8.289 l 3.09,-2.551 c 1.41,-1.16 2.81,-2.347 4.2,-3.539 2.44,-2.05 4.88,-4.109 7.36,-6.109 3.46,-2.789 7.16,-5.41 10.72,-7.941 l 1.03,-0.731 c 5.72,-4.047 11.98,-7.418 18.03,-10.68 2.16,-1.16 4.32,-2.32 6.46,-3.507 5.47,-3.082 10.48,-5.7 15.31,-8.032 3.2,-1.527 6.46,-2.929 9.73,-4.308 1.47,-0.629 2.96,-1.262 4.42,-1.91 9.36,-4.082 18.89,-7.661 28.34,-10.629 5.16,-1.621 9.8,-3.063 14.59,-4.184 5.04,-1.168 10.6,-2.156 16.97,-2.996 10.03,-1.332 20.12,-2.293 29.99,-2.863 5.18,-0.297 9.94,-0.34 14.58,-0.129 1.67,0.058 3.35,0.121 5.02,0.18 3.84,0.121 7.82,0.25 11.71,0.558 l 2.71,0.242 c 1.37,0.121 2.75,0.239 4.13,0.352 l -0.67,0.019 c 8.76,0.598 16.03,1.477 22.83,2.707 0.72,0.141 1.44,0.282 2.16,0.411"
             style="fill:#e8e8cf;fill-opacity:1;fill-rule:nonzero;stroke:none"
             id="path5566" /><path
             d="m 4033.38,279.148 c -2.44,-1.449 -5.15,-2.949 -8.29,-4.589 -3.4,-1.77 -6.99,-3.25 -10.46,-4.668 l -0.69,-0.282 -1.98,-0.839 -2.12,-0.899 0.72,0.391 c -2.75,-1.242 -5.56,-2.383 -8.34,-3.512 l -3.72,-1.512 h -0.01 l -0.35,-0.148 c -0.95,-0.399 -1.66,-0.711 -2.37,-0.988 -2.91,-1.243 -5.79,-2.563 -8.65,-3.891 -3.09,-1.422 -6.19,-2.84 -9.33,-4.172 l -0.53,-0.219 -0.55,-0.218 c -0.38,-0.27 -0.79,-0.543 -1.2,-0.774 -2.6,-1.547 -5.63,-2.5 -8.57,-3.418 -1.05,-0.332 -2.07,-0.648 -3.07,-1.012 -0.59,-0.187 -1.15,-0.398 -1.73,-0.609 -1.22,-0.437 -2.43,-0.879 -3.68,-1.211 -0.74,-0.199 -1.49,-0.316 -2.25,-0.437 l -0.01,-0.02 c -0.84,-0.492 -1.59,-0.769 -2.32,-0.902 l -3.2,-0.571 c -0.67,-0.168 -1.32,-0.257 -1.98,-0.308 -1.76,-0.231 -3.22,-0.309 -4.58,-0.238 -2.96,0.117 -5.65,0.867 -8.46,2.347 -1.15,0.602 -2.18,1.422 -3.18,2.223 -2.19,1.758 -3.31,4.289 -4.18,6.539 -0.92,2.43 -1.27,5.34 -1.57,7.91 -0.16,1.68 0,3.078 0.52,4.41 -1.05,3.899 -2.1,7.828 -3.15,11.739 l -2.43,9.019 c -1.25,4.711 -2.48,9.402 -3.62,14.141 -1.26,5.269 -2.14,10.172 -2.69,15.011 -0.99,8.739 -1.74,17.688 -2.42,25.59 -0.23,2.91 -0.51,5.84 -0.81,8.758 -0.61,6.43 -1.27,13.082 -1.44,19.633 -0.24,8.59 -0.01,16.289 0.68,23.566 l 0.64,6.821 c 0.49,5.5 1.01,11.171 1.68,16.742 l 0.45,3.801 -0.01,-0.141 0.06,0.598 c 0.53,4.429 1.07,9.019 2.02,13.441 1.18,5.43 2.17,9.941 3.41,14.602 2.51,9.476 5.63,18.707 8.63,27.25 l 0.42,1.207 c 1.59,4.562 3.23,9.273 5.13,13.793 l 1.18,2.859 c 1.43,3.48 2.9,7.07 4.77,10.328 4.21,7.332 9.21,15.981 14.46,24.563 4.17,6.796 9.28,13.148 14.2,19.277 1.55,1.941 3.11,3.859 4.62,5.789 3,3.844 6.13,7.441 9.33,10.684 3.44,3.519 7.13,6.859 11.25,10.218 7.9,6.399 16.25,12.379 24.82,17.789 2.78,1.75 5.58,3.493 8.41,5.172 6.13,3.629 11.4,6.379 16.56,8.649 7,3.082 14.22,5.968 21.2,8.769 l 1.19,0.481 0.8,0.308 c 6.3,2.532 12.83,5.141 19.51,6.852 3.27,0.84 6.58,1.531 9.89,2.23 2.65,0.539 5.29,1.098 7.92,1.719 3.02,0.731 6.02,1.492 9.01,2.281 2.46,0.66 4.94,1.192 7.41,1.731 l 2.66,0.578 c 2.49,0.551 5.08,0.133 7.12,-1.18 3.25,-0.488 5.97,-2.328 7.45,-5.051 l 0.44,-0.789 c 2.22,-4.058 4.5,-8.269 6.58,-12.488 1.97,-4.019 3.42,-8.312 4.84,-12.449 l 0.53,-1.531 c 2.68,-7.821 5.21,-16.25 8.21,-27.34 3.02,-11.153 4.79,-22.563 6.14,-32.262 1.36,-9.848 1.94,-20.141 1.74,-30.57 -0.11,-4.731 -0.4,-9.449 -0.89,-14.008 -0.45,-4.25 -1.11,-8.551 -1.77,-12.699 l -0.61,-3.953 c -0.28,-1.821 -0.53,-3.618 -0.79,-5.438 -0.44,-3.16 -0.89,-6.312 -1.42,-9.461 -0.72,-4.39 -1.74,-8.789 -2.71,-13.058 l -0.28,-1.231 c -1.57,-6.84 -4,-13.519 -6.36,-19.98 -0.84,-2.301 -1.68,-4.602 -2.48,-6.922 -2.03,-5.93 -4.02,-11.231 -6.08,-16.18 -1.37,-3.277 -2.88,-6.48 -4.38,-9.68 -0.69,-1.461 -1.37,-2.918 -2.05,-4.379 -4.25,-9.269 -8.99,-18.281 -14.07,-26.8 -2.76,-4.641 -5.28,-8.809 -8.1,-12.828 -2.98,-4.231 -6.48,-8.661 -10.68,-13.532 -6.6,-7.672 -13.48,-15.101 -20.48,-22.09 -3.66,-3.679 -7.18,-6.878 -10.79,-9.808 -1.29,-1.063 -2.57,-2.133 -3.86,-3.203 -2.95,-2.457 -6,-5.008 -9.12,-7.379 l -2.17,-1.629 c -1.12,-0.82 -2.22,-1.641 -3.32,-2.481 l 0.48,0.461 c -6.94,-5.382 -12.95,-9.562 -18.84,-13.16 -0.63,-0.383 -1.25,-0.761 -1.89,-1.133"
             style="fill:#e8e8cf;fill-opacity:1;fill-rule:nonzero;stroke:none"
             id="path5568" /><path
             d="m 3884.03,210.52 c 2.68,0.91 5.59,1.992 8.88,3.3 3.55,1.43 7.01,3.192 10.36,4.891 l 0.66,0.34 1.93,0.969 2.05,1.019 -0.76,-0.289 c 2.74,1.281 5.42,2.66 8.09,4.039 l 3.57,1.84 h 0.01 l 0.34,0.172 c 0.93,0.461 1.62,0.801 2.31,1.148 2.83,1.403 5.7,2.723 8.57,4.039 3.1,1.41 6.19,2.844 9.24,4.364 l 0.52,0.257 0.53,0.262 c 0.45,0.117 0.91,0.258 1.36,0.41 2.86,0.981 5.57,2.66 8.18,4.289 0.93,0.571 1.84,1.141 2.76,1.668 0.52,0.313 1.06,0.614 1.59,0.922 1.13,0.621 2.25,1.262 3.31,2 0.64,0.43 1.22,0.922 1.8,1.41 l 0.03,0.008 c 0.91,0.313 1.62,0.692 2.19,1.172 l 2.52,2.059 c 0.56,0.39 1.06,0.82 1.52,1.293 1.32,1.187 2.33,2.238 3.17,3.32 1.84,2.328 3.02,4.859 3.72,7.949 0.3,1.258 0.35,2.578 0.39,3.848 0.1,2.812 -1.1,5.312 -2.24,7.441 -1.24,2.289 -3.22,4.449 -4.98,6.352 -1.16,1.207 -2.34,2 -3.67,2.468 -2.29,3.329 -4.58,6.692 -6.87,10.051 l -5.26,7.707 c -2.76,4.024 -5.52,8 -8.37,11.961 -3.18,4.379 -6.32,8.242 -9.63,11.821 -6,6.429 -12.3,12.839 -17.85,18.492 -2.06,2.078 -4.09,4.207 -6.13,6.328 -4.47,4.66 -9.09,9.469 -13.94,13.879 -6.36,5.769 -12.35,10.621 -18.33,14.832 l -5.59,3.98 c -4.5,3.188 -9.15,6.5 -13.79,9.61 l -3.19,2.129 0.12,-0.079 -0.49,0.34 c -3.71,2.5 -7.55,5.071 -11.51,7.219 -4.89,2.648 -8.97,4.84 -13.3,6.93 -8.83,4.261 -17.87,7.91 -26.31,11.211 l -1.18,0.461 c -4.5,1.757 -9.15,3.589 -13.81,5.089 l -2.95,0.957 c -3.57,1.192 -7.25,2.411 -10.94,3.122 -8.3,1.582 -18.13,3.421 -28.06,5.019 -7.87,1.27 -16,1.531 -23.87,1.781 -2.48,0.078 -4.95,0.16 -7.41,0.282 -4.86,0.218 -9.63,0.179 -14.18,-0.133 -4.91,-0.321 -9.84,-0.938 -15.07,-1.879 -10,-1.82 -19.98,-4.262 -29.66,-7.25 -3.16,-0.961 -6.29,-1.949 -9.42,-3.012 -6.74,-2.277 -12.25,-4.488 -17.34,-6.93 -6.9,-3.296 -13.8,-6.898 -20.47,-10.367 l -1.13,-0.601 -0.76,-0.391 c -6.03,-3.141 -12.26,-6.391 -17.9,-10.34 -2.77,-1.937 -5.45,-4.008 -8.14,-6.07 -2.14,-1.649 -4.29,-3.289 -6.47,-4.879 -2.5,-1.809 -5.04,-3.59 -7.6,-5.359 -2.1,-1.442 -4.11,-2.961 -6.13,-4.481 l -2.17,-1.64 c -2.04,-1.54 -3.41,-3.782 -3.75,-6.168 -1.75,-2.793 -2.12,-6.063 -1.03,-8.954 l 0.33,-0.847 c 1.64,-4.332 3.34,-8.801 5.19,-13.121 1.77,-4.121 4.06,-8.008 6.29,-11.789 l 0.82,-1.391 c 4.19,-7.141 8.94,-14.551 15.39,-24.039 6.49,-9.551 13.99,-18.34 20.48,-25.68 6.59,-7.441 14.01,-14.59 22.06,-21.23 3.67,-3 7.44,-5.86 11.21,-8.449 3.52,-2.43 7.22,-4.723 10.79,-6.934 l 3.4,-2.117 c 1.55,-0.961 3.1,-1.949 4.64,-2.942 2.68,-1.711 5.37,-3.418 8.1,-5.078 3.8,-2.312 7.81,-4.41 11.68,-6.453 l 1.11,-0.578 c 6.22,-3.27 12.87,-5.781 19.3,-8.199 2.29,-0.871 4.58,-1.731 6.86,-2.621 5.84,-2.321 11.15,-4.258 16.25,-5.918 3.38,-1.114 6.8,-2.043 10.2,-2.992 1.56,-0.43 3.11,-0.848 4.65,-1.301 9.81,-2.809 19.73,-5.09 29.5,-6.778 5.32,-0.91 10.12,-1.73 15.01,-2.203 5.16,-0.5 10.8,-0.738 17.23,-0.726 10.11,0.019 20.25,0.406 30.1,1.16 5.17,0.387 9.9,0.969 14.46,1.797 1.65,0.293 3.3,0.57 4.96,0.84 3.79,0.64 7.71,1.293 11.54,2.121 l 2.64,0.59 c 1.35,0.312 2.7,0.609 4.05,0.902 l -0.66,-0.063 c 8.6,1.75 15.68,3.59 22.25,5.723 0.7,0.207 1.4,0.457 2.1,0.688"
             style="fill:#e8e8cf;fill-opacity:1;fill-rule:nonzero;stroke:none"
             id="path5570" /><path
             d="m 3865.61,1486.59 c -2.33,2.95 -5.05,6.35 -7.91,9.39 -2.11,2.21 -4.43,4.23 -7.05,6.52 l -1.03,0.87 c -4.05,3.48 -7.89,6.76 -12.18,9.58 -4.05,2.71 -8.22,5.16 -12.12,7.41 -4.84,2.79 -10.1,4.08 -15.05,5.07 -5.08,0.97 -10.07,1.88 -15.32,2.22 l -5.54,0.36 c -2.47,0.15 -4.94,0.29 -7.41,0.47 -2.56,0.2 -5.15,0.33 -7.72,0.31 -2.32,-0.02 -4.43,-0.19 -6.46,-0.49 -7.57,-1.2 -14,-3.01 -19.59,-5.56 l -1.15,2.44 c -1.47,3.23 -3.15,6.9 -5.05,10.26 -1.73,3.18 -3.85,6.65 -6.85,11.23 -5.01,7.7 -10.79,14.74 -17.18,20.91 -5.6,5.42 -12.38,9.4 -18.94,13.25 l -3.89,2.3 c -4.26,2.59 -8.01,4.55 -11.79,6.16 -3.69,1.59 -7.93,3.08 -12.93,4.53 -2.52,0.74 -5.08,1.37 -7.76,1.92 -2.39,1.04 -4.49,1.83 -6.43,2.4 -3.08,0.92 -6.2,1.07 -8.87,1.14 l -0.76,0.15 c -0.44,0.1 -0.89,0.2 -1.33,0.28 -1.6,0.31 -3.17,0.39 -4.78,0.48 -0.76,0.03 -1.53,0.05 -2.32,0.04 -0.65,-0.01 -1.26,-0.04 -1.97,-0.07 l -0.97,-0.03 -1.63,-0.08 c -0.07,0 -0.13,0.01 -0.2,0 l -3.01,-0.14 -0.26,-0.01 -0.26,-0.01 -3.01,-0.17 c -0.07,0 -0.13,-0.01 -0.2,-0.02 l -1.63,-0.09 -0.97,-0.06 c -0.71,-0.04 -1.32,-0.07 -1.97,-0.13 -0.78,-0.08 -1.54,-0.17 -2.3,-0.27 -1.59,-0.26 -3.15,-0.51 -4.7,-0.96 -0.44,-0.13 -0.87,-0.28 -1.31,-0.42 l -0.73,-0.22 c -2.65,-0.35 -5.73,-0.81 -8.72,-2.04 -1.86,-0.76 -3.87,-1.75 -6.14,-3.03 -2.62,-0.82 -5.1,-1.71 -7.54,-2.7 -4.83,-1.94 -8.89,-3.85 -12.4,-5.81 -3.6,-1.98 -7.12,-4.32 -11.11,-7.31 l -3.63,-2.69 c -6.13,-4.49 -12.48,-9.13 -17.51,-15.1 -5.73,-6.77 -10.77,-14.36 -14.97,-22.54 -2.53,-4.86 -4.29,-8.51 -5.7,-11.86 -1.54,-3.54 -2.84,-7.35 -3.99,-10.7 l -0.89,-2.55 c -5.82,1.96 -12.4,3.11 -20.04,3.54 -2.06,0.1 -4.18,0.05 -6.48,-0.15 -2.57,-0.24 -5.12,-0.64 -7.66,-1.09 -2.43,-0.44 -4.88,-0.83 -7.32,-1.22 l -5.48,-0.92 c -5.19,-0.87 -10.06,-2.27 -15.01,-3.76 -4.83,-1.48 -9.93,-3.3 -14.46,-6.56 -3.66,-2.63 -7.56,-5.5 -11.31,-8.59 -3.99,-3.25 -7.47,-6.89 -11.16,-10.76 l -0.92,-0.98 c -2.38,-2.54 -4.49,-4.78 -6.37,-7.19 -2.54,-3.31 -4.9,-6.98 -6.91,-10.15 -5.31,-7.34 -8.64,-15.42 -11.86,-23.22 0,0 -9.14,-42 -8.42,-50.76 0.35,-3.7 0.69,-7.53 2.8,-10.66 0.85,-1.3 1.58,-2.37 2.51,-3.23 2.46,-2.29 4.54,-3.27 7.7,-3.6 0.51,-0.05 1.03,-0.06 1.52,-0.02 3.26,0.29 6,2.67 8.44,4.77 l 1.26,1.09 c 1.28,1.05 2.6,2.07 3.94,3.08 4.37,2.95 8.08,5.1 11.68,6.75 l 1.68,0.49 c 1.47,0.46 3,0.79 4.56,1.12 1.78,0.41 4.22,0.96 6.41,1.76 0.34,0.12 0.67,0.28 0.99,0.44 1.49,0 3.08,-0.01 4.7,-0.1 4.68,-0.55 9.02,-1.48 13.22,-2.82 2.95,-1.19 5.9,-2.78 9.28,-4.99 7.01,-5.05 12.01,-9.32 16.2,-13.88 4.49,-5.49 8.49,-11.32 11.89,-16.35 3.79,-5.63 67.94,-176.25 68.55,-177.46 l 0.3,-0.6 -0.15,0.68 c 34.48,-76.25 153.02,-63.13 173.13,7.02 l 0.47,1.08 c 0,0 35.55,138.36 36.81,145.56 1.05,6.22 2.77,12.85 5.09,19.67 2.51,6.55 5.41,12.89 8.62,18.87 2.87,5.34 6.26,11.54 10.18,17.46 3.7,4.95 8.24,9.72 14.72,15.46 3.12,2.53 5.91,4.41 8.72,5.9 4.04,1.75 8.26,3.11 12.87,4.14 1.59,0.25 3.17,0.41 4.66,0.57 0.34,-0.13 0.69,-0.25 1.02,-0.33 2.27,-0.59 4.75,-0.89 6.57,-1.11 1.58,-0.17 3.13,-0.35 4.65,-0.65 l 1.72,-0.32 c 3.74,-1.28 7.65,-3.04 12.3,-5.55 1.43,-0.86 2.85,-1.74 4.23,-2.66 l 1.36,-0.96 c 2.64,-1.84 5.62,-3.92 8.88,-3.89 0.49,0.01 1.01,0.08 1.5,0.17 3.12,0.66 5.1,1.84 7.31,4.36 0.84,0.96 1.45,2.09 2.18,3.47 1.77,3.33 1.73,7.16 1.7,10.89 -0.17,8.78 -21.63,64.78 -27.64,71.56"
             style="fill:#d5cfa3;fill-opacity:0.992157;fill-rule:nonzero;stroke:none"
             id="path5572" /></g></g><g
         id="g5786"
         transform="matrix(0.00903569,0,0,-0.00903569,62.985765,148.11418)"><g
           id="g15992"><path
             d="m 2182.7342,2415.1558 c -0.063,-0.29 -0.125,-0.57 -0.188,-0.85 0.027,0.13 0.063,0.27 0.094,0.41 0.031,0.14 0.062,0.29 0.094,0.44 m 25.664,1.15 c -0.125,-0.64 -0.258,-1.29 -0.399,-1.93 z m -13.969,-61.41 c 0.074,0.34 0.141,0.68 0.211,1.03 -0.07,-0.35 -0.137,-0.69 -0.211,-1.03 m -0.496,-2.28 c 0.144,0.65 0.277,1.29 0.422,1.94 -0.133,-0.65 -0.274,-1.29 -0.422,-1.94 m 30.144,-967.43 c -0.203,0.62 -0.41,1.25 -0.625,1.88 0.215,-0.63 0.43,-1.26 0.625,-1.88 m 22.844,-119.77 c 1.856,-3.97 5.711,-6.46 9.852,-6.96 2.316,-0.29 4.722,0.07 6.925,1.12 6.2,3.02 8.754,10.59 5.829,16.78 -8.813,18.74 -17.27,37.69 -25.157,56.84 -3.812,9.34 -7.664,18.67 -11.394,28.04 -3.438,8.73 -6.574,17.51 -9.703,26.37 -5.426,16.31 -10.95,32.6 -14.996,49.31 -4.247,17.69 -8.129,35.4 -11.836,53.19 -11.153,53.33 -20.297,107.09 -25.86,161.3 -2.953,28.7 -6.226,57.37 -8.726,86.1 -2.262,25.58 -3.739,51.18 -5.297,76.81 -0.809,17.87 -1.942,35.78 -2.328,53.69 -0.543,26.67 -1.172,53.4 -0.332,80.07 0.882,28.01 1.129,56.06 2.773,84.03 1.637,28.19 3.531,56.37 5.59,84.53 1.008,13.52 2.07,27.03 3.133,40.53 1.043,13.21 2.937,26.37 4.492,39.51 1.527,12.7 3.051,25.36 4.832,38.02 1.84,13.19 4.234,26.28 6.27,39.48 4.156,26.88 7.949,53.92 13.406,80.56 4.344,19.72 9.328,39.3 13.488,59.06 1.199,5.26 2.465,10.46 3.688,15.71 0.808,3.43 1.082,6.42 -0.489,9.75 -1.437,2.91 -3.976,5.22 -7.043,6.32 -3.164,1.14 -6.738,0.98 -9.734,-0.5 -2.672,-1.29 -5.656,-4.03 -6.359,-7.02 -1.801,-7.62 -3.602,-15.24 -5.211,-22.9 0.097,0.47 0.211,0.96 0.32,1.43 -0.137,-0.63 -0.274,-1.25 -0.414,-1.87 l -0.293,-1.43 c 0.055,0.33 0.129,0.67 0.199,1.02 -0.793,-3.62 -1.609,-7.22 -2.484,-10.83 -3.024,-12.43 -5.992,-24.92 -8.688,-37.44 -3.054,-14.15 -5.636,-28.35 -8.008,-42.64 -2.191,-13.32 -4.23,-26.68 -6.285,-40.04 -2.027,-13.06 -4.519,-26.03 -6.343,-39.09 -3.829,-27.35 -7.305,-54.8 -10.125,-82.28 -1.325,-13.11 -2.125,-26.31 -3.083,-39.44 -1.019,-13.66 -2.105,-27.34 -2.984,-41.01 -1.726,-27.3 -3.574,-54.6 -4.375,-81.93 -0.418,-13.98 -0.641,-27.99 -1.078,-41.97 -0.453,-14.12 -0.656,-28.22 -0.629,-42.34 0.047,-27.5 1.063,-55 2.34,-82.45 1.199,-26.6 2.687,-53.21 4.746,-79.75 2.195,-28.47 5.016,-56.85 8.156,-85.21 1.516,-13.49 2.797,-26.97 4.371,-40.4 1.45,-12.38 3.153,-24.73 4.918,-37.05 4.141,-28.48 9.125,-56.76 14.621,-85.01 2.614,-13.5 5.598,-26.92 8.473,-40.38 1.402,-6.63 2.941,-13.28 4.406,-19.93 1.375,-6.18 2.743,-12.41 4.465,-18.5 3.668,-13.14 7.785,-26.11 12.098,-39.12 2.519,-7.64 5.164,-15.27 7.836,-22.88 2.308,-6.57 4.957,-13 7.535,-19.48 10.629,-26.93 22.168,-53.53 34.492,-79.72"
             style="fill:#e8e8cf;fill-opacity:1;fill-rule:nonzero;stroke:none"
             id="path5512" /><path
             d="m 1808.3432,2535.1958 c -0.875,-2.81 -0.387,-5.29 0.695,-7.91 9.356,-22.17 18.887,-44.3 28.871,-66.2 4.621,-10.09 9.621,-19.99 14.258,-30.08 4.621,-10.02 9.117,-20.09 13.922,-30.01 2.219,-4.57 4.574,-9.08 6.711,-13.7 2.215,-4.83 4.355,-9.71 6.555,-14.55 4.617,-10.16 9.656,-20.12 14.152,-30.34 4.449,-10.13 9.094,-20.14 13.93,-30.07 4.64,-9.49 8.734,-19.21 13.136,-28.8 8.829,-19.29 16.02,-39.28 25.219,-58.38 4.723,-9.76 9.719,-19.34 14.379,-29.13 2.207,-4.66 4.18,-9.47 6.297,-14.21 2.098,-4.74 4.375,-9.45 6.668,-14.11 2.449,-5.03 4.887,-10.03 7.074,-15.21 2.125,-4.99 4.215,-9.97 6.465,-14.92 2.266,-4.97 4.621,-9.86 6.652,-14.93 2.207,-5.55 4.532,-11.03 7.004,-16.45 2.356,-5.15 9.188,-6.88 13.977,-4.37 5.215,2.74 6.703,8.85 4.359,13.97 -2.359,5.2 -4.594,10.42 -6.722,15.72 -1.907,4.72 -3.997,9.31 -6.129,13.93 -4.375,9.39 -8.121,19.04 -12.641,28.35 -4.59,9.46 -8.887,19 -13.199,28.58 -4.297,9.54 -9.285,18.77 -13.824,28.18 -4.75,9.85 -9.192,19.78 -13.293,29.89 -3.993,9.86 -8,19.76 -12.457,29.39 -4.504,9.79 -8.629,19.76 -13.34,29.45 -4.805,9.87 -9.496,19.77 -13.946,29.8 -4.289,9.67 -8.972,19.12 -13.363,28.74 -4.598,10.16 -9.199,20.3 -14.117,30.31 -4.707,9.54 -9.191,19.18 -13.516,28.89 -4.605,10.28 -9.605,20.37 -14.449,30.56 -4.848,10.24 -9.219,20.73 -13.789,31.09 -5.613,12.71 -11.109,25.43 -16.508,38.22 -2.179,5.2 -9.281,6.82 -13.969,4.36 -2.417,-1.26 -4.253,-3.48 -5.062,-6.06"
             style="fill:#e8e8cf;fill-opacity:1;fill-rule:nonzero;stroke:none"
             id="path5514" /><path
             d="m 1783.3552,2528.5658 c 8.597,-16.41 29.492,-22.93 45.91,-14.33 16.41,8.6 22.933,29.49 14.336,45.91 -8.602,16.41 -29.492,22.94 -45.91,14.33 -16.411,-8.6 -22.938,-29.49 -14.336,-45.91"
             style="fill:#d6d0a3;fill-opacity:0.992157;fill-rule:nonzero;stroke:none"
             id="path5516" /><path
             d="m 2491.2382,2529.2758 c 0.878,-2.81 0.382,-5.29 -0.696,-7.9 -9.355,-22.18 -18.887,-44.3 -28.871,-66.2 -4.617,-10.1 -9.617,-20 -14.258,-30.09 -4.625,-10.02 -9.117,-20.08 -13.922,-30 -2.214,-4.58 -4.578,-9.08 -6.707,-13.7 -2.222,-4.83 -4.359,-9.72 -6.562,-14.56 -4.617,-10.15 -9.656,-20.11 -14.149,-30.33 -4.445,-10.13 -9.089,-20.14 -13.933,-30.07 -4.633,-9.5 -8.731,-19.21 -13.137,-28.8 -8.824,-19.29 -16.019,-39.29 -25.219,-58.39 -4.714,-9.75 -9.714,-19.34 -14.375,-29.13 -2.211,-4.66 -4.183,-9.47 -6.293,-14.2 -2.097,-4.75 -4.378,-9.45 -6.671,-14.12 -2.45,-5.02 -4.887,-10.03 -7.079,-15.2 -2.121,-4.99 -4.211,-9.97 -6.461,-14.92 -2.265,-4.97 -4.625,-9.86 -6.648,-14.93 -2.207,-5.55 -4.531,-11.03 -7.008,-16.46 -2.355,-5.14 -9.183,-6.87 -13.976,-4.36 -5.211,2.73 -6.703,8.85 -4.364,13.97 2.36,5.2 4.602,10.41 6.723,15.72 1.906,4.72 3.996,9.3 6.133,13.93 4.371,9.39 8.117,19.03 12.637,28.35 4.589,9.46 8.886,19 13.203,28.58 4.297,9.54 9.289,18.77 13.824,28.17 4.746,9.86 9.195,19.78 13.293,29.9 3.988,9.85 8,19.75 12.453,29.39 4.508,9.79 8.633,19.75 13.34,29.44 4.805,9.87 9.504,19.78 13.953,29.81 4.285,9.67 8.973,19.11 13.355,28.73 4.602,10.17 9.207,20.3 14.118,30.32 4.707,9.53 9.191,19.18 13.515,28.88 4.61,10.29 9.61,20.38 14.453,30.56 4.844,10.25 9.219,20.73 13.786,31.09 5.621,12.71 11.109,25.43 16.511,38.23 2.176,5.19 9.285,6.82 13.973,4.36 2.418,-1.26 4.254,-3.48 5.059,-6.07"
             style="fill:#e8e8cf;fill-opacity:1;fill-rule:nonzero;stroke:none"
             id="path5518" /><path
             d="m 2516.2252,2522.6558 c -8.6,-16.41 -29.495,-22.94 -45.905,-14.33 -16.415,8.59 -22.942,29.49 -14.336,45.9 8.597,16.41 29.492,22.94 45.901,14.34 16.42,-8.6 22.94,-29.5 14.34,-45.91"
             style="fill:#d6d0a3;fill-opacity:0.992157;fill-rule:nonzero;stroke:none"
             id="path5520" /><path
             d="m 1910.3592,1662.7058 c -2.293,-0.55 -4.778,-1.23 -7.598,-2.08 -3.047,-0.91 -6.039,-2.12 -8.934,-3.29 l -0.574,-0.23 -1.672,-0.65 -1.773,-0.7 0.648,0.19 c -2.355,-0.86 -4.679,-1.81 -6.992,-2.76 l -3.098,-1.26 v 0 l -0.293,-0.12 c -0.801,-0.31 -1.407,-0.54 -1.997,-0.78 -2.453,-0.95 -4.921,-1.83 -7.394,-2.71 -2.668,-0.96 -5.34,-1.9 -7.973,-2.94 l -0.445,-0.17 -0.457,-0.19 c -0.383,-0.06 -0.781,-0.14 -1.164,-0.23 -2.445,-0.6 -4.805,-1.79 -7.082,-2.95 -0.817,-0.41 -1.613,-0.81 -2.41,-1.19 -0.457,-0.22 -0.922,-0.43 -1.387,-0.63 -0.981,-0.44 -1.957,-0.89 -2.895,-1.42 -0.55,-0.31 -1.074,-0.68 -1.593,-1.04 h -0.02 c -0.773,-0.2 -1.39,-0.46 -1.898,-0.81 l -2.242,-1.52 c -0.489,-0.28 -0.93,-0.61 -1.352,-0.95 -1.18,-0.89 -2.094,-1.69 -2.871,-2.52 -1.688,-1.8 -2.852,-3.81 -3.664,-6.32 -0.34,-1.03 -0.477,-2.11 -0.602,-3.16 -0.289,-2.32 0.52,-4.48 1.309,-6.32 0.863,-2 2.347,-3.92 3.656,-5.63 0.879,-1.09 1.785,-1.82 2.867,-2.31 1.649,-2.93 3.293,-5.88 4.946,-8.83 l 3.793,-6.77 c 1.988,-3.52 3.98,-7.04 6.05,-10.52 2.305,-3.86 4.633,-7.29 7.11,-10.48 4.492,-5.79 9.238,-11.55 13.422,-16.63 1.554,-1.88 3.082,-3.78 4.605,-5.69 3.363,-4.19 6.84,-8.52 10.535,-12.53 4.84,-5.24 9.449,-9.69 14.09,-13.62 l 4.34,-3.7 c 3.484,-2.98 7.094,-6.06 10.711,-8.98 l 2.48,-2 -0.086,0.08 0.387,-0.32 c 2.887,-2.34 5.871,-4.75 8.996,-6.83 3.856,-2.55 7.067,-4.66 10.512,-6.71 7,-4.18 14.207,-7.86 20.961,-11.21 l 0.945,-0.47 c 3.594,-1.79 7.305,-3.64 11.059,-5.23 l 2.375,-1.02 c 2.859,-1.24 5.824,-2.52 8.832,-3.38 6.754,-1.91 14.75,-4.16 22.863,-6.21 6.43,-1.63 13.148,-2.44 19.641,-3.23 2.047,-0.24 4.09,-0.5 6.117,-0.77 4.012,-0.54 7.961,-0.86 11.742,-0.94 4.094,-0.09 8.227,0.06 12.633,0.46 8.41,0.77 16.851,2.06 25.09,3.82 2.679,0.57 5.351,1.16 8.011,1.81 5.758,1.39 10.485,2.82 14.875,4.46 5.957,2.23 11.934,4.71 17.711,7.09 l 0.989,0.41 0.656,0.27 c 5.215,2.16 10.613,4.39 15.582,7.25 2.43,1.4 4.805,2.92 7.18,4.42 1.894,1.21 3.789,2.42 5.718,3.58 2.207,1.31 4.442,2.6 6.688,3.87 1.844,1.04 3.621,2.15 5.41,3.26 l 1.918,1.21 c 1.801,1.12 3.098,2.88 3.559,4.83 1.644,2.19 2.191,4.86 1.5,7.33 l -0.204,0.74 c -1.039,3.7 -2.117,7.53 -3.332,11.25 -1.168,3.52 -2.789,6.93 -4.351,10.21 l -0.578,1.21 c -2.942,6.22 -6.332,12.71 -10.981,21.05 -4.676,8.38 -10.242,16.21 -15.078,22.76 -4.91,6.65 -10.531,13.11 -16.707,19.2 -2.82,2.76 -5.734,5.39 -8.664,7.83 -2.734,2.27 -5.629,4.44 -8.426,6.52 l -2.664,2.01 c -1.215,0.91 -2.414,1.84 -3.625,2.77 -2.097,1.62 -4.195,3.23 -6.336,4.81 -2.98,2.18 -6.14,4.22 -9.195,6.2 l -0.883,0.56 c -4.902,3.16 -10.226,5.73 -15.379,8.21 -1.836,0.87 -3.672,1.75 -5.488,2.67 -4.66,2.35 -8.922,4.35 -13.02,6.1 -2.718,1.15 -5.476,2.18 -8.234,3.22 -1.25,0.47 -2.508,0.94 -3.75,1.41 -7.914,3.05 -15.969,5.67 -23.934,7.78 -4.339,1.15 -8.253,2.18 -12.273,2.93 -4.23,0.79 -8.879,1.39 -14.207,1.86 -8.383,0.73 -16.793,1.14 -25.012,1.25 -4.308,0.06 -8.273,-0.08 -12.113,-0.43 -1.387,-0.11 -2.773,-0.22 -4.164,-0.33 -3.188,-0.25 -6.477,-0.51 -9.707,-0.91 l -2.238,-0.29 c -1.137,-0.16 -2.278,-0.31 -3.418,-0.45 h 0.55 c -7.25,-0.82 -13.25,-1.83 -18.847,-3.11 -0.594,-0.12 -1.192,-0.27 -1.785,-0.42"
             style="fill:#e8e8cf;fill-opacity:1;fill-rule:nonzero;stroke:none"
             id="path5522" /><path
             d="m 2419.5972,1645.6358 c 2.355,-0.02 4.93,-0.13 7.871,-0.33 3.172,-0.21 6.359,-0.72 9.441,-1.2 l 0.61,-0.1 1.773,-0.26 1.891,-0.28 -0.672,0.03 c 2.488,-0.32 4.965,-0.72 7.43,-1.12 l 3.3,-0.53 v 0 l 0.313,-0.05 c 0.851,-0.13 1.492,-0.22 2.121,-0.33 2.601,-0.37 5.211,-0.68 7.812,-0.97 2.813,-0.33 5.629,-0.67 8.426,-1.09 l 0.477,-0.06 0.48,-0.08 c 0.391,0.03 0.797,0.04 1.188,0.03 2.519,-0.03 5.082,-0.67 7.566,-1.28 0.887,-0.23 1.754,-0.44 2.613,-0.63 0.493,-0.1 0.993,-0.2 1.497,-0.3 1.054,-0.21 2.105,-0.43 3.132,-0.73 0.61,-0.19 1.203,-0.42 1.789,-0.67 h 0.02 c 0.801,-0.01 1.461,-0.12 2.031,-0.35 l 2.524,-0.98 c 0.543,-0.17 1.043,-0.39 1.531,-0.63 1.35,-0.6 2.42,-1.18 3.36,-1.82 2.05,-1.36 3.63,-3.06 5,-5.33 0.55,-0.92 0.92,-1.95 1.29,-2.95 0.8,-2.19 0.49,-4.48 0.14,-6.45 -0.4,-2.13 -1.41,-4.34 -2.31,-6.3 -0.61,-1.26 -1.34,-2.18 -2.27,-2.9 -0.96,-3.22 -1.9,-6.47 -2.85,-9.71 l -2.18,-7.44 c -1.145,-3.89 -2.301,-7.75 -3.543,-11.61 -1.383,-4.29 -2.879,-8.15 -4.579,-11.82 -3.082,-6.63 -6.418,-13.32 -9.363,-19.21 -1.086,-2.17 -2.152,-4.37 -3.211,-6.57 -2.34,-4.83 -4.758,-9.83 -7.461,-14.57 -3.547,-6.19 -7.043,-11.57 -10.683,-16.43 l -3.399,-4.58 c -2.73,-3.68 -5.558,-7.49 -8.433,-11.15 l -1.965,-2.5 0.062,0.1 -0.3,-0.4 c -2.293,-2.93 -4.661,-5.95 -7.247,-8.67 -3.179,-3.34 -5.843,-6.13 -8.734,-8.89 -5.887,-5.64 -12.09,-10.85 -17.918,-15.62 l -0.82,-0.68 c -3.102,-2.55 -6.305,-5.18 -9.61,-7.57 l -2.082,-1.52 c -2.515,-1.85 -5.109,-3.76 -7.855,-5.27 -6.149,-3.38 -13.441,-7.36 -20.891,-11.17 -5.894,-3.03 -12.265,-5.33 -18.422,-7.55 -1.933,-0.71 -3.867,-1.4 -5.781,-2.12 -3.789,-1.43 -7.57,-2.62 -11.238,-3.55 -3.973,-1 -8.027,-1.78 -12.41,-2.38 -8.371,-1.13 -16.887,-1.77 -25.313,-1.89 -2.738,-0.05 -5.476,-0.07 -8.211,-0.04 -5.929,0.07 -10.851,0.4 -15.5,1.02 -6.308,0.84 -12.679,1.92 -18.847,2.94 l -1.051,0.19 -0.699,0.11 c -5.575,0.93 -11.336,1.9 -16.813,3.58 -2.687,0.82 -5.336,1.77 -7.988,2.7 -2.113,0.75 -4.235,1.51 -6.371,2.2 -2.453,0.79 -4.914,1.54 -7.383,2.29 -2.035,0.59 -4.016,1.27 -6.008,1.97 l -2.137,0.73 c -2.007,0.69 -3.668,2.11 -4.55,3.92 -2.09,1.75 -3.231,4.23 -3.106,6.8 l 0.031,0.76 c 0.188,3.84 0.383,7.82 0.735,11.71 0.34,3.7 1.164,7.39 1.949,10.94 l 0.293,1.31 c 1.477,6.72 3.324,13.8 5.984,22.96 2.688,9.22 6.36,18.09 9.602,25.57 3.301,7.57 7.332,15.13 11.992,22.45 2.121,3.32 4.375,6.54 6.688,9.57 2.156,2.82 4.488,5.58 6.75,8.24 l 2.148,2.55 c 0.977,1.17 1.938,2.34 2.91,3.52 1.68,2.04 3.363,4.09 5.098,6.11 2.418,2.79 5.039,5.48 7.578,8.09 l 0.727,0.75 c 4.078,4.17 8.691,7.87 13.156,11.44 1.59,1.27 3.179,2.54 4.75,3.84 4.012,3.33 7.719,6.23 11.324,8.86 2.387,1.72 4.848,3.35 7.301,4.98 1.121,0.73 2.234,1.47 3.34,2.21 7.035,4.75 14.293,9.1 21.578,12.94 3.976,2.1 7.562,3.97 11.308,5.61 3.946,1.72 8.34,3.35 13.434,4.99 8.004,2.59 16.109,4.88 24.098,6.82 4.183,1.03 8.074,1.77 11.898,2.3 1.383,0.19 2.758,0.4 4.137,0.6 3.16,0.47 6.426,0.96 9.664,1.29 l 2.246,0.22 c 1.141,0.11 2.281,0.21 3.426,0.33 l -0.532,-0.13 c 7.25,0.82 13.325,1.19 19.063,1.2 0.609,0 1.219,-0.01 1.836,-0.01"
             style="fill:#e8e8cf;fill-opacity:1;fill-rule:nonzero;stroke:none"
             id="path5524" /><path
             d="m 1721.5812,2291.6658 c -4.715,0 -9.875,-0.14 -15.761,-0.45 -6.356,-0.36 -12.743,-1.29 -18.918,-2.18 l -1.227,-0.19 -3.555,-0.48 -3.789,-0.51 1.356,0.04 c -4.992,-0.56 -9.953,-1.3 -14.907,-2.05 l -6.609,-0.99 h -0.012 l -0.629,-0.09 c -1.699,-0.23 -2.984,-0.39 -4.242,-0.58 -5.222,-0.69 -10.441,-1.24 -15.66,-1.78 -5.64,-0.59 -11.285,-1.17 -16.894,-1.94 l -0.95,-0.14 -0.968,-0.13 c -0.774,0.06 -1.59,0.08 -2.371,0.08 -5.04,0 -10.188,-1.21 -15.176,-2.38 -1.778,-0.41 -3.52,-0.82 -5.242,-1.17 -0.993,-0.21 -1.9926,-0.4 -3.0004,-0.59 -2.1094,-0.39 -4.2227,-0.79 -6.2891,-1.38 -1.2227,-0.35 -2.4062,-0.81 -3.582,-1.27 h -0.051 c -1.5938,0 -2.9141,-0.23 -4.0703,-0.67 l -5.0742,-1.9 c -1.0899,-0.32 -2.1055,-0.74 -3.0821,-1.22 -2.7187,-1.17 -4.8711,-2.3 -6.7695,-3.54 -4.1328,-2.7 -7.3438,-6.05 -10.1172,-10.55 -1.1406,-1.84 -1.9101,-3.88 -2.6641,-5.86 -1.6484,-4.38 -1.0937,-8.96 -0.4375,-12.92 0.7422,-4.27 2.7149,-8.72 4.4571,-12.66 1.1953,-2.54 2.6172,-4.39 4.4765,-5.85 1.8243,-6.48 3.6407,-12.99 5.4571,-19.5 l 4.1797,-14.95 c 2.1953,-7.81 4.414,-15.57 6.7968,-23.32 2.6602,-8.6 5.5664,-16.37 8.8711,-23.75 6.0039,-13.35 12.5119,-26.81 18.2499,-38.68 2.133,-4.38 4.199,-8.8 6.27,-13.23 4.562,-9.73 9.273,-19.79 14.578,-29.32 6.933,-12.49 13.789,-23.33 20.957,-33.16 l 6.687,-9.23 c 5.375,-7.44 10.938,-15.13 16.598,-22.52 l 3.883,-5.06 -0.133,0.2 0.59,-0.81 c 4.512,-5.91 9.183,-12.01 14.281,-17.52 6.285,-6.77 11.539,-12.39 17.262,-18.01 11.637,-11.44 23.922,-22 35.469,-31.7 l 1.621,-1.36 c 6.136,-5.18 12.48,-10.54 19.039,-15.39 l 4.125,-3.09 c 4.988,-3.77 10.136,-7.67 15.586,-10.75 12.222,-6.93 26.718,-15.05 41.519,-22.87 11.735,-6.21 24.414,-10.97 36.676,-15.58 3.855,-1.43 7.703,-2.88 11.516,-4.36 7.55,-2.95 15.086,-5.44 22.398,-7.38 7.922,-2.12 16.027,-3.78 24.77,-5.09 16.73,-2.46 33.757,-3.94 50.609,-4.4 5.473,-0.17 10.949,-0.27 16.43,-0.27 11.855,0 21.711,0.52 31.031,1.65 12.633,1.53 25.418,3.51 37.781,5.43 l 2.113,0.33 1.403,0.21 c 11.168,1.74 22.718,3.52 33.726,6.74 5.395,1.58 10.723,3.4 16.047,5.21 4.254,1.45 8.512,2.91 12.809,4.25 4.918,1.52 9.863,2.97 14.832,4.38 4.082,1.14 8.058,2.47 12.058,3.8 l 4.301,1.42 c 4.035,1.32 7.391,4.14 9.203,7.73 4.231,3.46 6.559,8.4 6.379,13.54 l -0.051,1.51 c -0.269,7.69 -0.558,15.65 -1.171,23.46 -0.598,7.41 -2.141,14.79 -3.633,21.92 l -0.551,2.63 c -2.785,13.48 -6.309,27.69 -11.41,46.09 -5.141,18.52 -12.278,36.37 -18.574,51.39 -6.411,15.25 -14.293,30.47 -23.434,45.23 -4.168,6.7 -8.594,13.19 -13.145,19.31 -4.246,5.7 -8.847,11.28 -13.3,16.66 l -4.239,5.15 c -1.929,2.36 -3.824,4.74 -5.738,7.12 -3.308,4.13 -6.629,8.26 -10.047,12.33 -4.765,5.67 -9.945,11.12 -14.961,16.39 l -1.437,1.52 c -8.051,8.45 -17.196,15.96 -26.035,23.21 -3.153,2.59 -6.305,5.17 -9.414,7.8 -7.954,6.77 -15.293,12.66 -22.434,18 -4.738,3.53 -9.621,6.84 -14.496,10.15 -2.215,1.5 -4.426,3.01 -6.621,4.52 -13.957,9.67 -28.375,18.56 -42.86,26.43 -7.894,4.29 -15.035,8.12 -22.484,11.49 -7.855,3.53 -16.613,6.91 -26.758,10.33 -15.945,5.37 -32.109,10.16 -48.039,14.25 -8.347,2.15 -16.121,3.74 -23.758,4.88 -2.754,0.43 -5.504,0.87 -8.257,1.31 -6.309,1.03 -12.832,2.09 -19.301,2.83 l -4.492,0.48 c -2.282,0.24 -4.567,0.48 -6.852,0.74 l 1.07,-0.25 c -14.492,1.82 -26.632,2.7 -38.117,2.86 -1.219,0.02 -2.445,0.02 -3.672,0.02"
             style="fill:#d6d0a3;fill-opacity:0.992157;fill-rule:nonzero;stroke:none"
             id="path5526" /><path
             d="m 2586.2352,2291.6658 c 4.72,0 9.88,-0.14 15.77,-0.45 6.36,-0.36 12.74,-1.29 18.91,-2.18 l 1.23,-0.19 3.56,-0.48 3.78,-0.51 -1.35,0.04 c 4.99,-0.56 9.96,-1.3 14.9,-2.05 l 6.62,-0.99 h 0.01 l 0.62,-0.09 c 1.71,-0.23 2.99,-0.39 4.25,-0.58 5.22,-0.69 10.44,-1.24 15.66,-1.78 5.64,-0.59 11.28,-1.17 16.9,-1.94 l 0.94,-0.14 0.97,-0.13 c 0.78,0.06 1.59,0.08 2.37,0.08 5.04,0 10.19,-1.21 15.18,-2.38 1.78,-0.41 3.52,-0.82 5.24,-1.17 0.99,-0.21 1.99,-0.4 3,-0.59 2.11,-0.39 4.22,-0.79 6.29,-1.38 1.23,-0.35 2.41,-0.81 3.58,-1.27 h 0.05 c 1.6,0 2.92,-0.23 4.07,-0.67 l 5.08,-1.9 c 1.08,-0.32 2.1,-0.74 3.08,-1.22 2.72,-1.17 4.87,-2.3 6.77,-3.54 4.13,-2.7 7.35,-6.05 10.12,-10.55 1.14,-1.84 1.91,-3.88 2.66,-5.86 1.65,-4.38 1.09,-8.96 0.44,-12.92 -0.74,-4.27 -2.72,-8.72 -4.46,-12.66 -1.19,-2.54 -2.62,-4.39 -4.48,-5.85 -1.82,-6.48 -3.63,-12.99 -5.45,-19.5 l -4.18,-14.95 c -2.2,-7.81 -4.41,-15.57 -6.8,-23.32 -2.66,-8.6 -5.56,-16.37 -8.87,-23.75 -6,-13.35 -12.51,-26.81 -18.25,-38.68 -2.13,-4.38 -4.2,-8.8 -6.27,-13.23 -4.56,-9.73 -9.27,-19.79 -14.58,-29.32 -6.93,-12.49 -13.78,-23.33 -20.95,-33.16 l -6.69,-9.23 c -5.38,-7.44 -10.94,-15.13 -16.6,-22.52 l -3.88,-5.06 0.13,0.2 -0.59,-0.81 c -4.51,-5.91 -9.18,-12.01 -14.28,-17.52 -6.29,-6.77 -11.54,-12.39 -17.26,-18.01 -11.64,-11.44 -23.92,-22 -35.47,-31.7 l -1.62,-1.36 c -6.14,-5.18 -12.49,-10.54 -19.04,-15.39 l -4.13,-3.09 c -4.98,-3.77 -10.13,-7.67 -15.58,-10.75 -12.23,-6.93 -26.72,-15.05 -41.522,-22.87 -11.731,-6.21 -24.415,-10.97 -36.672,-15.58 -3.86,-1.43 -7.707,-2.88 -11.524,-4.36 -7.547,-2.95 -15.078,-5.44 -22.398,-7.38 -7.914,-2.12 -16.02,-3.78 -24.766,-5.09 -16.73,-2.46 -33.754,-3.94 -50.605,-4.4 -5.473,-0.17 -10.953,-0.27 -16.43,-0.27 -11.855,0 -21.715,0.52 -31.031,1.65 -12.641,1.53 -25.418,3.51 -37.785,5.43 l -2.114,0.33 -1.398,0.21 c -11.168,1.74 -22.723,3.52 -33.727,6.74 -5.394,1.58 -10.722,3.4 -16.05,5.21 -4.254,1.45 -8.512,2.91 -12.809,4.25 -4.922,1.52 -9.863,2.97 -14.832,4.38 -4.078,1.14 -8.063,2.47 -12.059,3.8 l -4.3,1.42 c -4.032,1.32 -7.387,4.14 -9.204,7.73 -4.226,3.46 -6.558,8.4 -6.382,13.54 l 0.054,1.51 c 0.274,7.69 0.563,15.65 1.172,23.46 0.598,7.41 2.145,14.79 3.633,21.92 l 0.547,2.63 c 2.793,13.48 6.312,27.69 11.418,46.09 5.14,18.52 12.269,36.37 18.566,51.39 6.418,15.25 14.297,30.47 23.438,45.23 4.164,6.7 8.59,13.19 13.144,19.31 4.25,5.7 8.848,11.28 13.301,16.66 l 4.238,5.15 c 1.926,2.36 3.825,4.74 5.735,7.12 3.312,4.13 6.629,8.26 10.047,12.33 4.773,5.67 9.953,11.12 14.964,16.39 l 1.438,1.52 c 8.051,8.45 17.191,15.96 26.035,23.21 3.152,2.59 6.305,5.17 9.41,7.8 7.953,6.77 15.297,12.66 22.442,18 4.734,3.53 9.613,6.84 14.496,10.15 2.211,1.5 4.422,3.01 6.621,4.52 13.957,9.67 28.375,18.56 42.855,26.43 7.895,4.29 15.035,8.12 22.485,11.49 7.859,3.53 16.609,6.91 26.757,10.33 15.95,5.37 32.114,10.16 48.04,14.25 8.347,2.15 16.122,3.74 23.752,4.88 2.76,0.43 5.51,0.87 8.26,1.31 6.31,1.03 12.84,2.09 19.31,2.83 l 4.48,0.48 c 2.29,0.24 4.57,0.48 6.86,0.74 l -1.07,-0.25 c 14.49,1.82 26.63,2.7 38.11,2.86 1.22,0.02 2.45,0.02 3.67,0.02"
             style="fill:#d6d0a3;fill-opacity:0.992157;fill-rule:nonzero;stroke:none"
             id="path5528" /><path
             d="m 2285.5932,2472.1458 c -2.359,4.1 -5.066,8.48 -8.277,13.43 -3.477,5.33 -7.481,10.4 -11.34,15.3 l -0.77,0.97 -2.195,2.84 -2.34,3.02 0.719,-1.15 c -2.981,4.05 -6.106,7.97 -9.227,11.89 l -4.16,5.23 v 0.01 l -0.394,0.49 c -1.047,1.37 -1.832,2.4 -2.629,3.39 -3.203,4.18 -6.285,8.43 -9.36,12.68 -3.332,4.59 -6.656,9.18 -10.128,13.66 l -0.59,0.75 -0.598,0.77 c -0.332,0.71 -0.719,1.43 -1.109,2.1 -2.52,4.37 -6.145,8.23 -9.649,11.96 -1.246,1.33 -2.476,2.63 -3.633,3.95 -0.683,0.76 -1.347,1.53 -2.007,2.31 -1.391,1.63 -2.797,3.26 -4.34,4.76 -0.918,0.88 -1.91,1.68 -2.899,2.47 l -0.023,0.04 c -0.793,1.38 -1.649,2.41 -2.613,3.19 l -4.176,3.44 c -0.824,0.79 -1.692,1.46 -2.602,2.06 -2.371,1.78 -4.422,3.08 -6.449,4.1 -4.398,2.24 -8.91,3.34 -14.199,3.49 -2.153,0.07 -4.313,-0.28 -6.403,-0.62 -4.617,-0.76 -8.308,-3.53 -11.406,-6.07 -3.328,-2.78 -6.199,-6.72 -8.734,-10.19 -1.606,-2.31 -2.504,-4.47 -2.84,-6.81 -4.699,-4.81 -9.434,-9.64 -14.16,-14.46 l -10.86,-11.1 c -5.671,-5.8 -11.281,-11.6 -16.804,-17.54 -6.121,-6.6 -11.399,-12.99 -16.145,-19.55 -8.562,-11.87 -16.965,-24.23 -24.375,-35.13 -2.734,-4.04 -5.531,-8.04 -8.332,-12.04 -6.148,-8.82 -12.515,-17.93 -18.113,-27.28 -7.352,-12.25 -13.32,-23.61 -18.246,-34.73 l -4.656,-10.41 c -3.758,-8.37 -7.641,-17.03 -11.215,-25.62 l -2.442,-5.89 0.102,0.21 -0.399,-0.91 c -2.867,-6.87 -5.816,-13.96 -8.043,-21.14 -2.73,-8.82 -4.964,-16.18 -6.972,-23.94 -4.098,-15.8 -7.106,-31.71 -9.738,-46.56 l -0.372,-2.09 c -1.418,-7.9 -2.882,-16.08 -3.816,-24.18 l -0.613,-5.12 c -0.774,-6.2 -1.571,-12.61 -1.528,-18.87 0.118,-14.05 0.321,-30.67 0.934,-47.39 0.484,-13.27 2.707,-26.63 4.844,-39.55 0.676,-4.06 1.347,-8.12 1.972,-12.16 1.211,-8.02 2.829,-15.78 4.805,-23.09 2.125,-7.91 4.731,-15.77 7.973,-23.99 6.222,-15.73 13.445,-31.21 21.465,-46.04 2.597,-4.83 5.242,-9.63 7.976,-14.37 5.926,-10.27 11.309,-18.55 16.942,-26.05 7.64,-10.18 15.742,-20.27 23.574,-30.02 l 1.347,-1.67 0.891,-1.1 c 7.078,-8.81 14.399,-17.92 22.684,-25.85 4.062,-3.88 8.304,-7.58 12.535,-11.3 3.383,-2.95 6.773,-5.91 10.074,-8.97 3.777,-3.5 7.508,-7.06 11.211,-10.65 3.031,-2.97 6.168,-5.76 9.316,-8.55 l 3.383,-3.02 c 3.164,-2.83 7.27,-4.33 11.289,-4.1 5.114,-1.95 10.559,-1.49 14.922,1.23 l 1.285,0.8 c 6.524,4.08 13.274,8.31 19.731,12.74 6.125,4.22 11.742,9.25 17.176,14.1 l 2,1.79 c 10.281,9.16 20.832,19.3 34.222,32.92 13.473,13.7 25.367,28.8 35.235,41.76 10,13.18 19.242,27.61 27.461,42.9 3.718,6.96 7.136,14.04 10.16,21.04 2.82,6.53 5.347,13.3 7.785,19.85 l 2.347,6.24 c 1.079,2.85 2.188,5.68 3.297,8.52 1.922,4.94 3.848,9.88 5.664,14.87 2.52,6.96 4.653,14.17 6.719,21.15 l 0.594,2.01 c 3.301,11.19 5.234,22.86 7.094,34.15 0.664,4.02 1.328,8.04 2.05,12.04 1.891,10.28 3.329,19.58 4.383,28.43 0.692,5.87 1.121,11.75 1.547,17.63 0.195,2.67 0.395,5.34 0.61,8 1.402,16.92 1.894,33.85 1.48,50.33 -0.23,8.98 -0.48,17.08 -1.289,25.22 -0.863,8.57 -2.316,17.83 -4.426,28.34 -3.312,16.49 -7.234,32.89 -11.652,48.73 -2.317,8.3 -4.821,15.83 -7.649,23.01 -1.011,2.6 -1.996,5.21 -2.988,7.81 -2.266,5.98 -4.609,12.16 -7.195,18.14 l -1.832,4.12 c -0.934,2.1 -1.867,4.2 -2.778,6.31 l 0.313,-1.05 c -5.66,13.46 -10.969,24.42 -16.563,34.44 -0.593,1.07 -1.203,2.13 -1.816,3.19"
             style="fill:#d6d0a3;fill-opacity:0.992157;fill-rule:nonzero;stroke:none"
             id="path5530" /><path
             d="m 1887.9252,2153.9258 c -2.836,0 -5.941,-0.09 -9.48,-0.27 -3.825,-0.21 -7.668,-0.77 -11.383,-1.31 l -0.739,-0.11 -2.136,-0.3 -2.278,-0.3 0.813,0.03 c -3,-0.35 -5.988,-0.79 -8.965,-1.24 l -3.977,-0.6 h -0.01 l -0.379,-0.05 c -1.024,-0.14 -1.793,-0.24 -2.551,-0.35 -3.141,-0.42 -6.281,-0.74 -9.422,-1.07 -3.391,-0.35 -6.785,-0.71 -10.164,-1.17 l -0.566,-0.08 -0.586,-0.08 c -0.465,0.04 -0.957,0.05 -1.426,0.05 -3.031,0 -6.129,-0.73 -9.133,-1.44 -1.062,-0.24 -2.113,-0.49 -3.148,-0.7 -0.602,-0.13 -1.2,-0.24 -1.805,-0.35 -1.27,-0.23 -2.539,-0.48 -3.785,-0.83 -0.738,-0.21 -1.445,-0.49 -2.153,-0.77 h -0.031 c -0.961,0 -1.758,-0.13 -2.449,-0.4 l -3.055,-1.14 c -0.652,-0.2 -1.261,-0.44 -1.847,-0.74 -1.641,-0.7 -2.938,-1.38 -4.078,-2.13 -2.485,-1.62 -4.418,-3.63 -6.086,-6.35 -0.68,-1.1 -1.153,-2.33 -1.598,-3.52 -0.996,-2.63 -0.66,-5.39 -0.266,-7.77 0.446,-2.57 1.629,-5.25 2.68,-7.61 0.719,-1.53 1.574,-2.65 2.695,-3.53 1.094,-3.89 2.188,-7.81 3.282,-11.72 l 2.515,-9 c 1.317,-4.7 2.653,-9.36 4.086,-14.03 1.602,-5.17 3.352,-9.84 5.34,-14.29 3.605,-8.03 7.523,-16.12 10.98,-23.26 1.278,-2.64 2.524,-5.3 3.77,-7.96 2.742,-5.85 5.574,-11.91 8.762,-17.64 4.175,-7.51 8.297,-14.03 12.613,-19.95 l 4.023,-5.55 c 3.235,-4.48 6.579,-9.1 9.981,-13.55 l 2.336,-3.04 -0.078,0.12 0.355,-0.49 c 2.715,-3.55 5.528,-7.22 8.594,-10.54 3.777,-4.07 6.937,-7.45 10.379,-10.83 7.004,-6.88 14.39,-13.23 21.34,-19.07 l 0.972,-0.82 c 3.696,-3.12 7.508,-6.33 11.453,-9.25 l 2.481,-1.86 c 3.004,-2.28 6.098,-4.61 9.375,-6.47 7.355,-4.16 16.074,-9.06 24.976,-13.76 7.063,-3.74 14.688,-6.6 22.067,-9.37 2.316,-0.86 4.633,-1.73 6.926,-2.63 4.543,-1.77 9.074,-3.27 13.476,-4.43 4.762,-1.27 9.637,-2.28 14.899,-3.06 10.062,-1.48 20.304,-2.38 30.441,-2.65 3.297,-0.1 6.59,-0.17 9.887,-0.17 7.129,0 13.062,0.32 18.668,1 7.601,0.93 15.289,2.12 22.722,3.26 l 1.278,0.2 0.844,0.13 c 6.718,1.05 13.664,2.12 20.285,4.05 3.246,0.96 6.453,2.05 9.656,3.14 2.559,0.87 5.121,1.75 7.703,2.55 2.961,0.92 5.934,1.79 8.922,2.64 2.457,0.69 4.848,1.48 7.258,2.28 l 2.586,0.86 c 2.422,0.8 4.445,2.49 5.531,4.65 2.547,2.08 3.945,5.06 3.844,8.15 l -0.035,0.9 c -0.165,4.63 -0.336,9.42 -0.704,14.12 -0.359,4.45 -1.289,8.89 -2.187,13.18 l -0.328,1.59 c -1.676,8.1 -3.797,16.65 -6.867,27.72 -3.09,11.14 -7.383,21.88 -11.172,30.91 -3.86,9.18 -8.602,18.33 -14.098,27.21 -2.504,4.03 -5.164,7.94 -7.906,11.62 -2.559,3.43 -5.321,6.78 -8,10.02 l -2.551,3.1 c -1.156,1.42 -2.301,2.85 -3.453,4.28 -1.992,2.49 -3.984,4.98 -6.043,7.42 -2.867,3.41 -5.984,6.69 -9,9.86 l -0.863,0.91 c -4.844,5.09 -10.344,9.6 -15.664,13.97 -1.895,1.55 -3.789,3.1 -5.661,4.69 -4.785,4.07 -9.199,7.61 -13.496,10.83 -2.851,2.12 -5.785,4.11 -8.722,6.1 -1.332,0.9 -2.66,1.81 -3.985,2.72 -8.39,5.81 -17.066,11.16 -25.777,15.9 -4.754,2.58 -9.043,4.89 -13.527,6.91 -4.727,2.13 -9.993,4.16 -16.098,6.21 -9.59,3.23 -19.316,6.12 -28.898,8.58 -5.024,1.29 -9.696,2.25 -14.293,2.93 -1.653,0.26 -3.309,0.52 -4.965,0.79 -3.793,0.62 -7.719,1.26 -11.61,1.7 l -2.703,0.29 c -1.375,0.15 -2.746,0.29 -4.125,0.45 l 0.645,-0.15 c -8.715,1.09 -16.02,1.62 -22.922,1.72 -0.738,0.01 -1.477,0.01 -2.215,0.01"
             style="fill:#e8e8cf;fill-opacity:1;fill-rule:nonzero;stroke:none"
             id="path5532" /><path
             d="m 2408.0662,2153.9258 c 2.839,0 5.945,-0.09 9.484,-0.27 3.824,-0.21 7.668,-0.77 11.383,-1.31 l 0.734,-0.11 2.141,-0.3 2.273,-0.3 -0.808,0.03 c 3.004,-0.35 5.988,-0.79 8.965,-1.24 l 3.972,-0.6 h 0.012 l 0.375,-0.05 c 1.027,-0.14 1.797,-0.24 2.555,-0.35 3.14,-0.42 6.281,-0.74 9.418,-1.07 3.394,-0.35 6.789,-0.71 10.168,-1.17 l 0.566,-0.08 0.586,-0.08 c 0.461,0.04 0.957,0.05 1.426,0.05 3.031,0 6.125,-0.73 9.129,-1.44 1.066,-0.24 2.117,-0.49 3.152,-0.7 0.598,-0.13 1.199,-0.24 1.805,-0.35 1.269,-0.23 2.539,-0.48 3.785,-0.83 0.738,-0.21 1.449,-0.49 2.156,-0.77 h 0.023 c 0.965,0 1.758,-0.13 2.454,-0.4 l 3.055,-1.14 c 0.65,-0.2 1.26,-0.44 1.85,-0.74 1.64,-0.7 2.93,-1.38 4.07,-2.13 2.49,-1.62 4.42,-3.63 6.09,-6.35 0.68,-1.1 1.15,-2.33 1.6,-3.52 1,-2.63 0.66,-5.39 0.26,-7.77 -0.44,-2.57 -1.63,-5.25 -2.68,-7.61 -0.72,-1.53 -1.57,-2.65 -2.69,-3.53 -1.1,-3.89 -2.19,-7.81 -3.28,-11.72 l -2.52,-9 c -1.32,-4.7 -2.65,-9.36 -4.09,-14.03 -1.595,-5.17 -3.341,-9.84 -5.333,-14.29 -3.61,-8.03 -7.524,-16.12 -10.977,-23.26 -1.281,-2.64 -2.527,-5.3 -3.773,-7.96 -2.747,-5.85 -5.579,-11.91 -8.766,-17.64 -4.176,-7.51 -8.293,-14.03 -12.606,-19.95 l -4.031,-5.55 c -3.23,-4.48 -6.574,-9.1 -9.98,-13.55 l -2.332,-3.04 0.078,0.12 -0.356,-0.49 c -2.714,-3.55 -5.527,-7.22 -8.593,-10.54 -3.778,-4.07 -6.942,-7.45 -10.383,-10.83 -7,-6.88 -14.391,-13.23 -21.332,-19.07 l -0.977,-0.82 c -3.691,-3.12 -7.511,-6.33 -11.457,-9.25 l -2.48,-1.86 c -2.996,-2.28 -6.098,-4.61 -9.375,-6.47 -7.352,-4.16 -16.074,-9.06 -24.973,-13.76 -7.062,-3.74 -14.687,-6.6 -22.066,-9.37 -2.321,-0.86 -4.633,-1.73 -6.93,-2.63 -4.539,-1.77 -9.07,-3.27 -13.473,-4.43 -4.765,-1.27 -9.636,-2.28 -14.898,-3.06 -10.067,-1.48 -20.305,-2.38 -30.442,-2.65 -3.296,-0.1 -6.593,-0.17 -9.882,-0.17 -7.133,0 -13.067,0.32 -18.672,1 -7.602,0.93 -15.289,2.12 -22.727,3.26 l -1.273,0.2 -0.844,0.13 c -6.715,1.05 -13.66,2.12 -20.281,4.05 -3.25,0.96 -6.457,2.05 -9.66,3.14 -2.559,0.87 -5.121,1.75 -7.707,2.55 -2.957,0.92 -5.93,1.79 -8.918,2.64 -2.457,0.69 -4.848,1.48 -7.258,2.28 l -2.582,0.86 c -2.426,0.8 -4.446,2.49 -5.539,4.65 -2.543,2.08 -3.946,5.06 -3.836,8.15 l 0.027,0.9 c 0.168,4.63 0.34,9.42 0.703,14.12 0.364,4.45 1.289,8.89 2.188,13.18 l 0.332,1.59 c 1.679,8.1 3.797,16.65 6.867,27.72 3.09,11.14 7.383,21.88 11.172,30.91 3.855,9.18 8.598,18.33 14.098,27.21 2.503,4.03 5.164,7.94 7.91,11.62 2.55,3.43 5.32,6.78 7.996,10.02 l 2.551,3.1 c 1.156,1.42 2.296,2.85 3.449,4.28 1.996,2.49 3.992,4.98 6.047,7.42 2.867,3.41 5.98,6.69 9,9.86 l 0.863,0.91 c 4.844,5.09 10.34,9.6 15.664,13.97 1.895,1.55 3.789,3.1 5.66,4.69 4.785,4.07 9.199,7.61 13.496,10.83 2.852,2.12 5.785,4.11 8.719,6.1 1.336,0.9 2.66,1.81 3.984,2.72 8.395,5.81 17.071,11.16 25.782,15.9 4.75,2.58 9.043,4.89 13.527,6.91 4.727,2.13 9.992,4.16 16.098,6.21 9.589,3.23 19.316,6.12 28.894,8.58 5.027,1.29 9.699,2.25 14.293,2.93 1.656,0.26 3.313,0.52 4.969,0.79 3.797,0.62 7.719,1.26 11.609,1.7 l 2.699,0.29 c 1.379,0.15 2.75,0.29 4.125,0.45 l -0.64,-0.15 c 8.715,1.09 16.019,1.62 22.922,1.72 0.738,0.01 1.476,0.01 2.211,0.01"
             style="fill:#e8e8cf;fill-opacity:1;fill-rule:nonzero;stroke:none"
             id="path5534" /><path
             d="m 2227.2142,2262.4958 c -1.422,2.46 -3.047,5.1 -4.98,8.08 -2.094,3.2 -4.504,6.25 -6.825,9.2 l -0.461,0.59 -1.324,1.71 -1.406,1.81 0.434,-0.69 c -1.797,2.43 -3.676,4.79 -5.551,7.15 l -2.5,3.15 v 0 l -0.242,0.3 c -0.629,0.82 -1.098,1.44 -1.575,2.04 -1.929,2.51 -3.785,5.07 -5.632,7.62 -2.004,2.77 -4.008,5.53 -6.09,8.22 l -0.36,0.45 -0.359,0.47 c -0.199,0.42 -0.437,0.86 -0.672,1.26 -1.512,2.63 -3.691,4.95 -5.801,7.19 -0.75,0.81 -1.488,1.59 -2.183,2.38 -0.414,0.46 -0.809,0.92 -1.207,1.39 -0.84,0.98 -1.68,1.96 -2.613,2.86 -0.551,0.54 -1.149,1.01 -1.739,1.49 l -0.015,0.02 c -0.485,0.83 -0.996,1.45 -1.571,1.92 l -2.515,2.07 c -0.493,0.48 -1.02,0.88 -1.563,1.24 -1.43,1.07 -2.66,1.85 -3.883,2.47 -2.644,1.34 -5.359,2.01 -8.539,2.1 -1.293,0.04 -2.593,-0.17 -3.851,-0.38 -2.782,-0.45 -5,-2.12 -6.864,-3.65 -2.003,-1.67 -3.726,-4.04 -5.257,-6.13 -0.961,-1.38 -1.504,-2.68 -1.703,-4.09 -2.829,-2.9 -5.676,-5.8 -8.52,-8.7 l -6.535,-6.68 c -3.406,-3.49 -6.785,-6.98 -10.106,-10.55 -3.683,-3.97 -6.855,-7.82 -9.714,-11.76 -5.149,-7.14 -10.204,-14.57 -14.661,-21.14 -1.644,-2.42 -3.332,-4.83 -5.011,-7.24 -3.7,-5.3 -7.528,-10.78 -10.899,-16.41 -4.422,-7.37 -8.012,-14.2 -10.976,-20.89 l -2.801,-6.26 c -2.262,-5.04 -4.598,-10.24 -6.746,-15.42 l -1.469,-3.54 0.063,0.13 -0.243,-0.55 c -1.722,-4.13 -3.496,-8.4 -4.84,-12.71 -1.64,-5.31 -2.988,-9.74 -4.187,-14.41 -2.469,-9.5 -4.273,-19.07 -5.859,-28 l -0.227,-1.26 c -0.855,-4.76 -1.734,-9.67 -2.293,-14.55 l -0.371,-3.08 c -0.465,-3.73 -0.945,-7.58 -0.914,-11.35 0.066,-8.45 0.184,-18.45 0.555,-28.51 0.293,-7.98 1.632,-16.02 2.918,-23.79 0.406,-2.44 0.808,-4.88 1.183,-7.32 0.731,-4.82 1.699,-9.49 2.891,-13.88 1.281,-4.77 2.847,-9.49 4.797,-14.44 3.746,-9.46 8.09,-18.77 12.914,-27.69 1.562,-2.9 3.148,-5.79 4.797,-8.65 3.562,-6.17 6.8,-11.15 10.187,-15.67 4.602,-6.12 9.473,-12.19 14.188,-18.05 l 0.808,-1.01 0.531,-0.66 c 4.266,-5.3 8.665,-10.78 13.649,-15.55 2.445,-2.34 4.996,-4.56 7.547,-6.8 2.035,-1.78 4.07,-3.56 6.051,-5.4 2.277,-2.1 4.523,-4.24 6.75,-6.41 1.82,-1.78 3.707,-3.45 5.601,-5.14 l 2.035,-1.81 c 1.903,-1.7 4.375,-2.61 6.793,-2.47 3.074,-1.17 6.352,-0.89 8.973,0.74 l 0.777,0.48 c 3.922,2.46 7.985,5 11.871,7.67 3.68,2.53 7.059,5.56 10.332,8.48 l 1.2,1.08 c 6.187,5.5 12.535,11.61 20.586,19.8 8.105,8.24 15.257,17.33 21.199,25.12 6.011,7.93 11.574,16.61 16.515,25.81 2.239,4.18 4.297,8.44 6.114,12.66 1.695,3.92 3.218,7.99 4.683,11.93 l 1.41,3.76 c 0.653,1.71 1.321,3.42 1.985,5.13 1.156,2.96 2.312,5.94 3.406,8.94 1.52,4.19 2.805,8.53 4.043,12.73 l 0.363,1.2 c 1.981,6.73 3.145,13.76 4.262,20.54 0.398,2.42 0.801,4.84 1.234,7.25 1.141,6.18 2.004,11.78 2.637,17.1 0.414,3.53 0.676,7.07 0.93,10.61 0.121,1.6 0.238,3.21 0.367,4.81 0.844,10.17 1.141,20.36 0.891,30.27 -0.141,5.41 -0.289,10.28 -0.778,15.17 -0.519,5.16 -1.39,10.74 -2.66,17.05 -1.996,9.92 -4.355,19.79 -7.012,29.32 -1.39,4.99 -2.898,9.52 -4.597,13.84 -0.606,1.57 -1.203,3.13 -1.797,4.7 -1.367,3.59 -2.774,7.31 -4.332,10.91 l -1.098,2.48 c -0.566,1.26 -1.125,2.52 -1.676,3.8 l 0.192,-0.64 c -3.41,8.1 -6.598,14.69 -9.965,20.72 -0.359,0.65 -0.727,1.29 -1.09,1.92"
             style="fill:#e8e8cf;fill-opacity:1;fill-rule:nonzero;stroke:none"
             id="path5536" /></g></g><g
         id="g16026"
         transform="matrix(-1,0,0,1,76.518568,27.114955)"><g
           id="g16024"
           transform="matrix(0.00394812,-0.00683832,-0.00683832,-0.00394812,-24.673788,136.39146)"><path
             d="m 3732.52,750.199 c 7.2,-21.679 14.29,-43.379 21.89,-64.89 3.94,-11.149 7.99,-22.258 12.06,-33.36 3.94,-10.789 8.31,-21.469 12.55,-32.168 4.05,-10.269 8.35,-20.472 12.72,-30.613 4.91,-11.457 9.73,-22.938 14.45,-34.477 8.22,-20.023 16.06,-40.16 24.51,-60.082 8.87,-20.968 17.76,-41.968 26.78,-62.879 9.16,-21.14 19.76,-41.66 30.56,-61.992 10.4,-19.566 20.76,-39.16 31.51,-58.519 2.37,-4.25 4.67,-8.66 7.29,-12.77 3.02,-4.769 6.08,-9.5 9.17,-14.25 2.74,-4.211 5.51,-8.418 8.27,-12.629 5.46,4.141 10.9,8.309 16.26,12.602 -4.01,6.078 -8.02,12.156 -11.9,18.316 -11.91,18.864 -22.1,38.813 -32.66,58.453 -10.96,20.379 -21.62,40.879 -31.67,61.731 -9.48,19.59 -17.86,39.769 -26.27,59.84 -8.76,20.879 -17.5,41.75 -26.07,62.726 -4.4,10.703 -8.61,21.512 -13.01,32.223 -3.89,9.488 -8.05,18.879 -12.04,28.34 -2.17,5.129 -4.32,10.269 -6.49,15.398 -7.77,19.66 -15.5,39.313 -22.56,59.25 -7.6,21.602 -14.9,43.281 -22.11,64.992 -7.29,21.887 -13.92,43.969 -20.55,66.071 -3.35,11.136 -6.37,22.398 -9.45,33.629 -2.91,10.66 -5.18,21.527 -7.58,32.308 -5.76,25.801 -10.23,51.903 -15.02,77.879 -1.02,5.531 -7.3,8.801 -12.49,7.5 -5.72,-1.43 -8.53,-6.969 -7.51,-12.488 4.52,-24.41 9.01,-48.82 13.96,-73.149 4.49,-21.972 10.34,-43.589 16.5,-65.132 5.91,-20.719 12.1,-41.411 18.9,-61.86"
             style="fill:#d5cfa3;fill-opacity:0.992157;fill-rule:nonzero;stroke:none"
             id="path16006" /><path
             d="m 3704.03,938.84 c -4.99,21.039 -9.72,42.109 -14.36,63.23 -4.96,22.53 -9.26,45.18 -13.54,67.85 -2.17,11.43 -4,22.95 -5.89,34.44 -1.8,10.9 -2.91,21.93 -4.17,32.91 -3.04,26.26 -4.77,52.69 -6.82,79.02 -0.44,5.61 -6.34,9.52 -11.64,8.77 -5.84,-0.82 -9.21,-6.03 -8.77,-11.64 1.94,-24.74 3.87,-49.49 6.26,-74.2 2.16,-22.32 5.74,-44.44 9.61,-66.5 3.73,-21.22 7.72,-42.45 12.34,-63.5 4.92,-22.302 9.7,-44.618 15,-66.81 0.6,-2.48 1.23,-4.949 1.84,-7.43 6.72,1.25 13.43,2.551 20.14,3.86"
             style="fill:#d5cfa3;fill-opacity:0.992157;fill-rule:nonzero;stroke:none"
             id="path16008" /><path
             d="m 3783.53,870.691 c -2.75,-0.703 -5.77,-1.39 -9.24,-2.089 -3.76,-0.743 -7.62,-1.153 -11.35,-1.551 l -0.74,-0.082 -2.14,-0.25 -2.28,-0.258 0.8,0.168 c -3,-0.41 -6,-0.731 -8.99,-1.027 l -4,-0.411 h -0.01 l -0.37,-0.043 c -1.03,-0.117 -1.8,-0.218 -2.56,-0.289 -3.14,-0.379 -6.27,-0.839 -9.38,-1.308 -3.37,-0.5 -6.75,-1 -10.13,-1.391 l -0.58,-0.051 -0.58,-0.07 c -0.44,-0.16 -0.91,-0.301 -1.37,-0.41 -2.93,-0.758 -6.11,-0.809 -9.19,-0.867 -1.09,-0.032 -2.18,-0.051 -3.22,-0.114 -0.62,-0.019 -1.22,-0.058 -1.84,-0.109 -1.29,-0.09 -2.58,-0.16 -3.87,-0.121 -0.77,0.023 -1.52,0.102 -2.28,0.203 l -0.02,-0.012 c -0.94,-0.23 -1.74,-0.3 -2.47,-0.211 l -3.24,0.34 c -0.69,0.032 -1.34,0.121 -1.98,0.25 -1.75,0.293 -3.18,0.621 -4.47,1.063 -2.81,0.937 -5.18,2.418 -7.47,4.64 -0.93,0.879 -1.69,1.957 -2.42,3 -1.61,2.309 -1.97,5.059 -2.18,7.457 -0.21,2.602 0.27,5.481 0.7,8.032 0.32,1.66 0.87,2.961 1.73,4.082 0.1,4.047 0.19,8.109 0.28,12.168 l 0.2,9.332 c 0.11,4.867 0.24,9.718 0.48,14.59 0.26,5.41 0.79,10.367 1.62,15.16 1.5,8.668 3.28,17.468 4.85,25.238 0.59,2.871 1.14,5.762 1.68,8.641 1.2,6.347 2.45,12.91 4.11,19.25 2.17,8.309 4.55,15.639 7.26,22.429 l 2.51,6.38 c 2.02,5.13 4.11,10.44 6.31,15.59 l 1.5,3.52 -0.05,-0.13 0.23,0.56 c 1.75,4.11 3.55,8.36 5.7,12.33 2.65,4.88 4.88,8.94 7.37,13.06 5.06,8.4 10.64,16.39 15.91,23.75 l 0.75,1.04 c 2.8,3.93 5.7,7.99 8.78,11.8 l 1.95,2.42 c 2.34,2.93 4.76,5.97 7.47,8.58 6.08,5.86 13.31,12.75 20.76,19.52 5.91,5.36 12.59,10.02 19.03,14.53 2.03,1.42 4.07,2.83 6.06,4.27 3.95,2.84 7.98,5.42 11.94,7.63 4.3,2.42 8.77,4.59 13.66,6.66 9.38,3.93 19.08,7.34 28.81,10.12 3.17,0.91 6.34,1.79 9.53,2.61 6.91,1.77 12.73,2.94 18.32,3.66 7.59,1 15.33,1.75 22.81,2.48 l 1.28,0.13 0.85,0.08 c 6.76,0.66 13.76,1.34 20.64,1.11 3.38,-0.12 6.75,-0.38 10.13,-0.64 2.69,-0.21 5.39,-0.43 8.08,-0.56 3.1,-0.15 6.19,-0.27 9.3,-0.34 2.54,-0.05 5.06,-0.24 7.59,-0.41 l 2.71,-0.19 c 2.55,-0.17 4.91,-1.31 6.52,-3.12 2.97,-1.39 5.06,-3.92 5.73,-6.94 l 0.19,-0.89 c 0.99,-4.52 2.02,-9.2 2.83,-13.83 0.75,-4.41 0.95,-8.93 1.15,-13.31 l 0.07,-1.61 c 0.39,-8.27 0.46,-17.07 0.23,-28.54 -0.22,-11.55 -1.72,-23.01 -3.14,-32.7 -1.46,-9.83 -3.78,-19.87 -6.9,-29.83 -1.43,-4.52 -3.03,-8.97 -4.77,-13.2 -1.62,-3.96 -3.47,-7.89 -5.27,-11.69 l -1.69,-3.64 c -0.77,-1.66 -1.52,-3.33 -2.28,-5 -1.31,-2.9 -2.63,-5.8 -4.01,-8.68 -1.93,-4 -4.14,-7.95 -6.26,-11.78 l -0.62,-1.089 c -3.43,-6.121 -7.63,-11.851 -11.69,-17.402 -1.45,-1.969 -2.9,-3.949 -4.32,-5.938 -3.62,-5.14 -7.02,-9.66 -10.38,-13.839 -2.23,-2.762 -4.58,-5.422 -6.93,-8.063 -1.06,-1.211 -2.12,-2.418 -3.17,-3.629 -6.69,-7.711 -13.76,-15.039 -21.02,-21.781 -3.96,-3.688 -7.54,-6.981 -11.38,-10.051 -4.05,-3.219 -8.64,-6.5 -14.04,-10 -8.49,-5.508 -17.18,-10.719 -25.84,-15.469 -4.54,-2.5 -8.83,-4.578 -13.11,-6.39 -1.54,-0.66 -3.07,-1.328 -4.61,-1.989 -3.52,-1.539 -7.16,-3.128 -10.81,-4.531 l -2.55,-0.949 c -1.29,-0.48 -2.59,-0.961 -3.88,-1.449 l 0.59,0.301 c -8.17,-3.223 -15.11,-5.551 -21.77,-7.352 -0.72,-0.199 -1.43,-0.391 -2.14,-0.559"
             style="fill:#e8e8cf;fill-opacity:1;fill-rule:nonzero;stroke:none"
             id="path16010" /><path
             d="m 3620.93,846.66 c 2.84,0.11 5.93,0.34 9.45,0.68 3.82,0.371 7.63,1.09 11.31,1.789 l 0.74,0.133 2.12,0.386 2.26,0.403 L 3646,850 c 2.99,0.449 5.95,1.031 8.9,1.609 l 3.94,0.762 h 0.01 l 0.37,0.078 c 1.02,0.172 1.79,0.301 2.54,0.449 3.12,0.551 6.24,1.012 9.36,1.473 3.37,0.5 6.74,1 10.09,1.59 l 0.57,0.109 0.58,0.11 c 0.47,-0.02 0.95,-0.008 1.42,0.011 3.03,0.118 6.1,0.977 9.06,1.809 1.05,0.301 2.1,0.602 3.12,0.84 0.59,0.16 1.18,0.301 1.78,0.43 1.26,0.3 2.52,0.589 3.75,1 0.72,0.23 1.42,0.55 2.12,0.851 h 0.03 c 0.95,0.051 1.73,0.207 2.42,0.508 l 3,1.269 c 0.64,0.223 1.25,0.493 1.82,0.821 1.6,0.769 2.86,1.492 3.98,2.293 2.41,1.718 4.25,3.816 5.8,6.597 0.63,1.129 1.05,2.379 1.45,3.59 0.88,2.66 0.43,5.41 -0.07,7.762 -0.55,2.551 -1.85,5.168 -3,7.488 -0.78,1.492 -1.68,2.582 -2.84,3.403 -1.25,3.847 -2.51,7.707 -3.77,11.57 l -2.9,8.879 c -1.52,4.629 -3.04,9.23 -4.67,13.82 -1.82,5.098 -3.76,9.688 -5.94,14.039 -3.95,7.86 -8.2,15.781 -11.95,22.758 -1.39,2.582 -2.75,5.184 -4.11,7.793 -2.98,5.719 -6.07,11.648 -9.5,17.23 -4.49,7.329 -8.87,13.669 -13.43,19.379 l -4.26,5.37 c -3.42,4.34 -6.96,8.81 -10.54,13.1 l -2.46,2.94 0.08,-0.11 -0.37,0.47 c -2.86,3.42 -5.82,6.98 -9.03,10.15 -3.94,3.91 -7.25,7.15 -10.83,10.37 -7.28,6.58 -14.93,12.6 -22.11,18.14 l -1.01,0.77 c -3.82,2.96 -7.77,6.01 -11.83,8.76 l -2.56,1.75 c -3.08,2.14 -6.28,4.34 -9.63,6.05 -7.52,3.85 -16.43,8.36 -25.52,12.68 -7.2,3.43 -14.94,5.95 -22.42,8.41 -2.36,0.77 -4.7,1.54 -7.04,2.33 -4.61,1.58 -9.19,2.88 -13.63,3.85 -4.81,1.07 -9.73,1.86 -15.01,2.42 -10.11,1.05 -20.37,1.51 -30.51,1.36 -3.29,-0.05 -6.58,-0.12 -9.87,-0.26 -7.12,-0.3 -13.03,-0.88 -18.59,-1.79 -7.55,-1.24 -15.18,-2.76 -22.55,-4.22 l -1.26,-0.26 -0.84,-0.16 c -6.66,-1.33 -13.56,-2.7 -20.08,-4.91 -3.2,-1.09 -6.36,-2.32 -9.51,-3.54 -2.51,-0.99 -5.03,-1.97 -7.58,-2.88 -2.92,-1.04 -5.85,-2.04 -8.8,-3.02 -2.42,-0.78 -4.77,-1.68 -7.14,-2.59 l -2.55,-0.96 c -2.39,-0.9 -4.32,-2.67 -5.33,-4.88 -2.45,-2.18 -3.72,-5.21 -3.48,-8.29 l 0.07,-0.91 c 0.36,-4.6 0.74,-9.38 1.3,-14.06 0.55,-4.43 1.67,-8.83 2.75,-13.07 l 0.4,-1.57 c 2.02,-8.01 4.49,-16.46 8.02,-27.38 3.57,-10.99 8.31,-21.52 12.48,-30.392 4.23,-8.988 9.36,-17.929 15.23,-26.547 2.68,-3.921 5.5,-7.722 8.39,-11.269 2.69,-3.313 5.6,-6.551 8.42,-9.66 l 2.67,-2.992 c 1.21,-1.372 2.41,-2.739 3.63,-4.129 2.09,-2.391 4.19,-4.789 6.34,-7.153 3.01,-3.277 6.26,-6.41 9.42,-9.457 l 0.9,-0.871 c 5.04,-4.871 10.73,-9.148 16.23,-13.269 1.96,-1.481 3.91,-2.95 5.85,-4.45 4.95,-3.863 9.51,-7.211 13.93,-10.23 2.94,-2 5.95,-3.871 8.97,-5.723 1.36,-0.847 2.73,-1.699 4.09,-2.547 8.63,-5.453 17.52,-10.421 26.41,-14.781 4.86,-2.371 9.24,-4.488 13.8,-6.32 4.81,-1.918 10.16,-3.731 16.34,-5.52 9.71,-2.808 19.54,-5.289 29.21,-7.332 5.07,-1.078 9.77,-1.828 14.39,-2.32 1.67,-0.188 3.33,-0.379 4.99,-0.578 3.82,-0.461 7.77,-0.922 11.67,-1.199 l 2.71,-0.172 c 1.38,-0.09 2.75,-0.18 4.14,-0.278 l -0.65,0.129 c 8.75,-0.718 16.06,-0.949 22.95,-0.742 0.75,0.012 1.48,0.051 2.21,0.082"
             style="fill:#e8e8cf;fill-opacity:1;fill-rule:nonzero;stroke:none"
             id="path16012" /><path
             d="m 3884.22,579.512 c -2.61,-1.121 -5.5,-2.242 -8.83,-3.453 -3.6,-1.309 -7.35,-2.278 -10.97,-3.239 l -0.72,-0.199 -2.09,-0.562 -2.21,-0.61 0.76,0.289 c -2.9,-0.859 -5.82,-1.609 -8.73,-2.359 l -3.9,-1.008 v 0 l -0.37,-0.09 c -0.99,-0.281 -1.75,-0.492 -2.49,-0.691 -3.05,-0.84 -6.06,-1.762 -9.07,-2.692 -3.26,-1 -6.52,-2 -9.81,-2.886 l -0.55,-0.153 -0.57,-0.16 c -0.42,-0.211 -0.86,-0.418 -1.3,-0.597 -2.78,-1.18 -5.92,-1.723 -8.95,-2.25 -1.08,-0.18 -2.14,-0.372 -3.18,-0.582 -0.59,-0.122 -1.19,-0.25 -1.79,-0.379 -1.26,-0.289 -2.52,-0.563 -3.81,-0.723 -0.75,-0.09 -1.53,-0.109 -2.28,-0.129 l -0.03,-0.008 c -0.88,-0.383 -1.67,-0.57 -2.41,-0.59 l -3.25,-0.152 c -0.67,-0.07 -1.34,-0.078 -1.99,-0.039 -1.78,0.012 -3.23,0.121 -4.58,0.371 -2.92,0.508 -5.48,1.617 -8.08,3.449 -1.05,0.758 -1.96,1.7 -2.85,2.621 -1.93,2.028 -2.71,4.7 -3.27,7.039 -0.6,2.54 -0.55,5.469 -0.51,8.059 0.06,1.68 0.41,3.051 1.09,4.289 -0.5,4.012 -1.03,8.043 -1.56,12.07 l -1.2,9.25 c -0.61,4.84 -1.21,9.653 -1.72,14.5 -0.55,5.391 -0.76,10.372 -0.67,15.231 0.18,8.789 0.62,17.762 1.01,25.68 0.15,2.921 0.26,5.859 0.36,8.793 0.24,6.457 0.47,13.136 1.17,19.648 0.91,8.551 2.15,16.148 3.81,23.27 l 1.53,6.679 c 1.22,5.379 2.49,10.942 3.89,16.36 l 0.95,3.711 -0.03,-0.141 0.15,0.59 c 1.1,4.332 2.26,8.812 3.78,13.051 1.88,5.218 3.48,9.57 5.32,14.019 3.75,9.063 8.06,17.789 12.17,25.871 l 0.58,1.141 c 2.17,4.308 4.43,8.758 6.91,12.988 l 1.56,2.68 c 1.88,3.261 3.81,6.621 6.1,9.609 5.13,6.703 11.25,14.613 17.59,22.41 5.03,6.203 10.93,11.801 16.63,17.231 1.8,1.699 3.59,3.41 5.36,5.133 3.47,3.398 7.06,6.546 10.65,9.339 3.89,3.028 7.98,5.86 12.51,8.629 8.67,5.301 17.74,10.121 26.96,14.34 2.99,1.371 6,2.719 9.03,4.008 6.56,2.781 12.13,4.812 17.55,6.383 7.36,2.117 14.9,4.027 22.18,5.879 l 1.25,0.308 0.83,0.203 c 6.58,1.668 13.39,3.399 20.24,4.2 3.36,0.39 6.74,0.648 10.1,0.89 2.7,0.199 5.39,0.391 8.08,0.66 3.09,0.321 6.16,0.68 9.24,1.059 2.53,0.328 5.05,0.539 7.57,0.738 l 2.71,0.223 c 2.54,0.211 5.06,-0.551 6.91,-2.109 3.15,-0.922 5.6,-3.114 6.72,-6 l 0.32,-0.852 c 1.66,-4.309 3.37,-8.789 4.86,-13.25 1.42,-4.238 2.3,-8.68 3.15,-12.98 l 0.31,-1.579 c 1.62,-8.121 3.02,-16.812 4.52,-28.179 1.5,-11.461 1.75,-23.012 1.8,-32.813 0.04,-9.937 -0.76,-20.211 -2.34,-30.508 -0.73,-4.691 -1.65,-9.332 -2.73,-13.781 -1.02,-4.148 -2.25,-8.32 -3.45,-12.351 l -1.13,-3.848 c -0.51,-1.75 -1.01,-3.512 -1.51,-5.281 -0.86,-3.071 -1.72,-6.129 -2.65,-9.192 -1.31,-4.25 -2.89,-8.476 -4.43,-12.578 l -0.44,-1.18 c -2.47,-6.57 -5.76,-12.871 -8.95,-18.949 -1.13,-2.179 -2.28,-4.351 -3.37,-6.543 -2.81,-5.609 -5.49,-10.59 -8.18,-15.218 -1.8,-3.079 -3.71,-6.059 -5.64,-9.02 -0.88,-1.359 -1.75,-2.711 -2.61,-4.07 -5.45,-8.621 -11.33,-16.93 -17.5,-24.692 -3.36,-4.226 -6.4,-8.027 -9.73,-11.636 -3.52,-3.801 -7.57,-7.731 -12.39,-12.012 -7.55,-6.711 -15.37,-13.16 -23.22,-19.172 -4.11,-3.148 -8.03,-5.859 -12,-8.277 -1.42,-0.891 -2.84,-1.782 -4.26,-2.661 -3.25,-2.05 -6.61,-4.171 -10.01,-6.109 l -2.37,-1.32 c -1.21,-0.66 -2.41,-1.332 -3.62,-2.02 l 0.53,0.387 c -7.58,-4.406 -14.1,-7.75 -20.41,-10.527 -0.67,-0.313 -1.35,-0.602 -2.03,-0.879"
             style="fill:#e8e8cf;fill-opacity:1;fill-rule:nonzero;stroke:none"
             id="path16014" /><path
             d="m 3727.08,531.309 c 2.79,0.55 5.81,1.23 9.24,2.101 3.71,0.942 7.38,2.231 10.91,3.469 l 0.71,0.25 2.04,0.699 2.17,0.742 -0.79,-0.191 c 2.88,0.91 5.72,1.93 8.56,2.93 l 3.78,1.351 v 0 l 0.37,0.141 c 0.97,0.32 1.71,0.558 2.44,0.828 3,1 6.01,1.93 9.02,2.851 3.26,1.008 6.52,2 9.75,3.11 l 0.54,0.18 0.56,0.199 c 0.46,0.051 0.95,0.121 1.41,0.211 2.97,0.59 5.87,1.902 8.67,3.172 1,0.437 1.98,0.886 2.96,1.289 0.56,0.238 1.13,0.468 1.7,0.699 1.2,0.469 2.4,0.941 3.55,1.539 0.69,0.34 1.33,0.75 1.97,1.16 h 0.02 c 0.95,0.191 1.7,0.481 2.33,0.871 l 2.77,1.711 c 0.61,0.309 1.16,0.668 1.68,1.07 1.47,1.008 2.61,1.918 3.59,2.879 2.12,2.071 3.63,4.41 4.75,7.391 0.46,1.207 0.67,2.508 0.89,3.758 0.47,2.769 -0.39,5.422 -1.23,7.672 -0.94,2.437 -2.62,4.839 -4.09,6.961 -1.01,1.347 -2.05,2.289 -3.32,2.937 -1.83,3.602 -3.66,7.231 -5.47,10.871 l -4.2,8.328 c -2.2,4.352 -4.4,8.684 -6.7,12.961 -2.57,4.781 -5.18,9.02 -7.98,12.992 -5.09,7.188 -10.48,14.379 -15.23,20.719 -1.77,2.328 -3.5,4.699 -5.23,7.078 -3.82,5.203 -7.76,10.602 -11.99,15.614 -5.53,6.558 -10.83,12.168 -16.19,17.128 l -5.01,4.68 c -4.03,3.77 -8.2,7.649 -12.39,11.371 l -2.87,2.528 0.09,-0.098 -0.44,0.41 c -3.35,2.957 -6.8,6.02 -10.46,8.68 -4.48,3.269 -8.23,5.98 -12.25,8.629 -8.19,5.398 -16.65,10.218 -24.59,14.601 l -1.11,0.617 c -4.22,2.352 -8.58,4.774 -13.01,6.883 l -2.8,1.348 c -3.36,1.641 -6.86,3.34 -10.42,4.539 -8.02,2.672 -17.5,5.793 -27.14,8.691 -7.64,2.309 -15.67,3.641 -23.43,4.95 -2.44,0.402 -4.88,0.812 -7.31,1.242 -4.79,0.871 -9.52,1.469 -14.06,1.758 -4.92,0.339 -9.89,0.39 -15.2,0.152 -10.15,-0.481 -20.36,-1.582 -30.36,-3.262 -3.25,-0.527 -6.49,-1.097 -9.72,-1.73 -6.99,-1.367 -12.76,-2.821 -18.12,-4.559 -7.27,-2.371 -14.59,-5.012 -21.66,-7.558 l -1.21,-0.442 -0.8,-0.301 c -6.39,-2.308 -13,-4.699 -19.12,-7.871 -3,-1.547 -5.93,-3.238 -8.86,-4.929 -2.34,-1.348 -4.68,-2.688 -7.07,-3.969 -2.72,-1.481 -5.47,-2.899 -8.24,-4.309 -2.28,-1.14 -4.47,-2.383 -6.67,-3.633 l -2.37,-1.339 c -2.23,-1.25 -3.89,-3.289 -4.54,-5.618 -2.09,-2.523 -2.9,-5.722 -2.2,-8.73 l 0.2,-0.883 c 1.06,-4.508 2.14,-9.168 3.4,-13.707 1.21,-4.301 2.98,-8.473 4.68,-12.512 l 0.63,-1.48 c 3.2,-7.641 6.92,-15.598 12.06,-25.879 5.17,-10.32 11.44,-20.031 16.89,-28.16 5.55,-8.25 11.95,-16.32 19.04,-23.969 3.25,-3.473 6.6,-6.793 9.99,-9.883 3.17,-2.867 6.53,-5.629 9.78,-8.289 l 3.09,-2.551 c 1.41,-1.16 2.81,-2.347 4.2,-3.539 2.44,-2.05 4.88,-4.109 7.36,-6.109 3.46,-2.789 7.16,-5.41 10.72,-7.941 l 1.03,-0.731 c 5.72,-4.047 11.98,-7.418 18.03,-10.68 2.16,-1.16 4.32,-2.32 6.46,-3.507 5.47,-3.082 10.48,-5.7 15.31,-8.032 3.2,-1.527 6.46,-2.929 9.73,-4.308 1.47,-0.629 2.96,-1.262 4.42,-1.91 9.36,-4.082 18.89,-7.661 28.34,-10.629 5.16,-1.621 9.8,-3.063 14.59,-4.184 5.04,-1.168 10.6,-2.156 16.97,-2.996 10.03,-1.332 20.12,-2.293 29.99,-2.863 5.18,-0.297 9.94,-0.34 14.58,-0.129 1.67,0.058 3.35,0.121 5.02,0.18 3.84,0.121 7.82,0.25 11.71,0.558 l 2.71,0.242 c 1.37,0.121 2.75,0.239 4.13,0.352 l -0.67,0.019 c 8.76,0.598 16.03,1.477 22.83,2.707 0.72,0.141 1.44,0.282 2.16,0.411"
             style="fill:#e8e8cf;fill-opacity:1;fill-rule:nonzero;stroke:none"
             id="path16016" /><path
             d="m 4033.38,279.148 c -2.44,-1.449 -5.15,-2.949 -8.29,-4.589 -3.4,-1.77 -6.99,-3.25 -10.46,-4.668 l -0.69,-0.282 -1.98,-0.839 -2.12,-0.899 0.72,0.391 c -2.75,-1.242 -5.56,-2.383 -8.34,-3.512 l -3.72,-1.512 h -0.01 l -0.35,-0.148 c -0.95,-0.399 -1.66,-0.711 -2.37,-0.988 -2.91,-1.243 -5.79,-2.563 -8.65,-3.891 -3.09,-1.422 -6.19,-2.84 -9.33,-4.172 l -0.53,-0.219 -0.55,-0.218 c -0.38,-0.27 -0.79,-0.543 -1.2,-0.774 -2.6,-1.547 -5.63,-2.5 -8.57,-3.418 -1.05,-0.332 -2.07,-0.648 -3.07,-1.012 -0.59,-0.187 -1.15,-0.398 -1.73,-0.609 -1.22,-0.437 -2.43,-0.879 -3.68,-1.211 -0.74,-0.199 -1.49,-0.316 -2.25,-0.437 l -0.01,-0.02 c -0.84,-0.492 -1.59,-0.769 -2.32,-0.902 l -3.2,-0.571 c -0.67,-0.168 -1.32,-0.257 -1.98,-0.308 -1.76,-0.231 -3.22,-0.309 -4.58,-0.238 -2.96,0.117 -5.65,0.867 -8.46,2.347 -1.15,0.602 -2.18,1.422 -3.18,2.223 -2.19,1.758 -3.31,4.289 -4.18,6.539 -0.92,2.43 -1.27,5.34 -1.57,7.91 -0.16,1.68 0,3.078 0.52,4.41 -1.05,3.899 -2.1,7.828 -3.15,11.739 l -2.43,9.019 c -1.25,4.711 -2.48,9.402 -3.62,14.141 -1.26,5.269 -2.14,10.172 -2.69,15.011 -0.99,8.739 -1.74,17.688 -2.42,25.59 -0.23,2.91 -0.51,5.84 -0.81,8.758 -0.61,6.43 -1.27,13.082 -1.44,19.633 -0.24,8.59 -0.01,16.289 0.68,23.566 l 0.64,6.821 c 0.49,5.5 1.01,11.171 1.68,16.742 l 0.45,3.801 -0.01,-0.141 0.06,0.598 c 0.53,4.429 1.07,9.019 2.02,13.441 1.18,5.43 2.17,9.941 3.41,14.602 2.51,9.476 5.63,18.707 8.63,27.25 l 0.42,1.207 c 1.59,4.562 3.23,9.273 5.13,13.793 l 1.18,2.859 c 1.43,3.48 2.9,7.07 4.77,10.328 4.21,7.332 9.21,15.981 14.46,24.563 4.17,6.796 9.28,13.148 14.2,19.277 1.55,1.941 3.11,3.859 4.62,5.789 3,3.844 6.13,7.441 9.33,10.684 3.44,3.519 7.13,6.859 11.25,10.218 7.9,6.399 16.25,12.379 24.82,17.789 2.78,1.75 5.58,3.493 8.41,5.172 6.13,3.629 11.4,6.379 16.56,8.649 7,3.082 14.22,5.968 21.2,8.769 l 1.19,0.481 0.8,0.308 c 6.3,2.532 12.83,5.141 19.51,6.852 3.27,0.84 6.58,1.531 9.89,2.23 2.65,0.539 5.29,1.098 7.92,1.719 3.02,0.731 6.02,1.492 9.01,2.281 2.46,0.66 4.94,1.192 7.41,1.731 l 2.66,0.578 c 2.49,0.551 5.08,0.133 7.12,-1.18 3.25,-0.488 5.97,-2.328 7.45,-5.051 l 0.44,-0.789 c 2.22,-4.058 4.5,-8.269 6.58,-12.488 1.97,-4.019 3.42,-8.312 4.84,-12.449 l 0.53,-1.531 c 2.68,-7.821 5.21,-16.25 8.21,-27.34 3.02,-11.153 4.79,-22.563 6.14,-32.262 1.36,-9.848 1.94,-20.141 1.74,-30.57 -0.11,-4.731 -0.4,-9.449 -0.89,-14.008 -0.45,-4.25 -1.11,-8.551 -1.77,-12.699 l -0.61,-3.953 c -0.28,-1.821 -0.53,-3.618 -0.79,-5.438 -0.44,-3.16 -0.89,-6.312 -1.42,-9.461 -0.72,-4.39 -1.74,-8.789 -2.71,-13.058 l -0.28,-1.231 c -1.57,-6.84 -4,-13.519 -6.36,-19.98 -0.84,-2.301 -1.68,-4.602 -2.48,-6.922 -2.03,-5.93 -4.02,-11.231 -6.08,-16.18 -1.37,-3.277 -2.88,-6.48 -4.38,-9.68 -0.69,-1.461 -1.37,-2.918 -2.05,-4.379 -4.25,-9.269 -8.99,-18.281 -14.07,-26.8 -2.76,-4.641 -5.28,-8.809 -8.1,-12.828 -2.98,-4.231 -6.48,-8.661 -10.68,-13.532 -6.6,-7.672 -13.48,-15.101 -20.48,-22.09 -3.66,-3.679 -7.18,-6.878 -10.79,-9.808 -1.29,-1.063 -2.57,-2.133 -3.86,-3.203 -2.95,-2.457 -6,-5.008 -9.12,-7.379 l -2.17,-1.629 c -1.12,-0.82 -2.22,-1.641 -3.32,-2.481 l 0.48,0.461 c -6.94,-5.382 -12.95,-9.562 -18.84,-13.16 -0.63,-0.383 -1.25,-0.761 -1.89,-1.133"
             style="fill:#e8e8cf;fill-opacity:1;fill-rule:nonzero;stroke:none"
             id="path16018" /><path
             d="m 3884.03,210.52 c 2.68,0.91 5.59,1.992 8.88,3.3 3.55,1.43 7.01,3.192 10.36,4.891 l 0.66,0.34 1.93,0.969 2.05,1.019 -0.76,-0.289 c 2.74,1.281 5.42,2.66 8.09,4.039 l 3.57,1.84 h 0.01 l 0.34,0.172 c 0.93,0.461 1.62,0.801 2.31,1.148 2.83,1.403 5.7,2.723 8.57,4.039 3.1,1.41 6.19,2.844 9.24,4.364 l 0.52,0.257 0.53,0.262 c 0.45,0.117 0.91,0.258 1.36,0.41 2.86,0.981 5.57,2.66 8.18,4.289 0.93,0.571 1.84,1.141 2.76,1.668 0.52,0.313 1.06,0.614 1.59,0.922 1.13,0.621 2.25,1.262 3.31,2 0.64,0.43 1.22,0.922 1.8,1.41 l 0.03,0.008 c 0.91,0.313 1.62,0.692 2.19,1.172 l 2.52,2.059 c 0.56,0.39 1.06,0.82 1.52,1.293 1.32,1.187 2.33,2.238 3.17,3.32 1.84,2.328 3.02,4.859 3.72,7.949 0.3,1.258 0.35,2.578 0.39,3.848 0.1,2.812 -1.1,5.312 -2.24,7.441 -1.24,2.289 -3.22,4.449 -4.98,6.352 -1.16,1.207 -2.34,2 -3.67,2.468 -2.29,3.329 -4.58,6.692 -6.87,10.051 l -5.26,7.707 c -2.76,4.024 -5.52,8 -8.37,11.961 -3.18,4.379 -6.32,8.242 -9.63,11.821 -6,6.429 -12.3,12.839 -17.85,18.492 -2.06,2.078 -4.09,4.207 -6.13,6.328 -4.47,4.66 -9.09,9.469 -13.94,13.879 -6.36,5.769 -12.35,10.621 -18.33,14.832 l -5.59,3.98 c -4.5,3.188 -9.15,6.5 -13.79,9.61 l -3.19,2.129 0.12,-0.079 -0.49,0.34 c -3.71,2.5 -7.55,5.071 -11.51,7.219 -4.89,2.648 -8.97,4.84 -13.3,6.93 -8.83,4.261 -17.87,7.91 -26.31,11.211 l -1.18,0.461 c -4.5,1.757 -9.15,3.589 -13.81,5.089 l -2.95,0.957 c -3.57,1.192 -7.25,2.411 -10.94,3.122 -8.3,1.582 -18.13,3.421 -28.06,5.019 -7.87,1.27 -16,1.531 -23.87,1.781 -2.48,0.078 -4.95,0.16 -7.41,0.282 -4.86,0.218 -9.63,0.179 -14.18,-0.133 -4.91,-0.321 -9.84,-0.938 -15.07,-1.879 -10,-1.82 -19.98,-4.262 -29.66,-7.25 -3.16,-0.961 -6.29,-1.949 -9.42,-3.012 -6.74,-2.277 -12.25,-4.488 -17.34,-6.93 -6.9,-3.296 -13.8,-6.898 -20.47,-10.367 l -1.13,-0.601 -0.76,-0.391 c -6.03,-3.141 -12.26,-6.391 -17.9,-10.34 -2.77,-1.937 -5.45,-4.008 -8.14,-6.07 -2.14,-1.649 -4.29,-3.289 -6.47,-4.879 -2.5,-1.809 -5.04,-3.59 -7.6,-5.359 -2.1,-1.442 -4.11,-2.961 -6.13,-4.481 l -2.17,-1.64 c -2.04,-1.54 -3.41,-3.782 -3.75,-6.168 -1.75,-2.793 -2.12,-6.063 -1.03,-8.954 l 0.33,-0.847 c 1.64,-4.332 3.34,-8.801 5.19,-13.121 1.77,-4.121 4.06,-8.008 6.29,-11.789 l 0.82,-1.391 c 4.19,-7.141 8.94,-14.551 15.39,-24.039 6.49,-9.551 13.99,-18.34 20.48,-25.68 6.59,-7.441 14.01,-14.59 22.06,-21.23 3.67,-3 7.44,-5.86 11.21,-8.449 3.52,-2.43 7.22,-4.723 10.79,-6.934 l 3.4,-2.117 c 1.55,-0.961 3.1,-1.949 4.64,-2.942 2.68,-1.711 5.37,-3.418 8.1,-5.078 3.8,-2.312 7.81,-4.41 11.68,-6.453 l 1.11,-0.578 c 6.22,-3.27 12.87,-5.781 19.3,-8.199 2.29,-0.871 4.58,-1.731 6.86,-2.621 5.84,-2.321 11.15,-4.258 16.25,-5.918 3.38,-1.114 6.8,-2.043 10.2,-2.992 1.56,-0.43 3.11,-0.848 4.65,-1.301 9.81,-2.809 19.73,-5.09 29.5,-6.778 5.32,-0.91 10.12,-1.73 15.01,-2.203 5.16,-0.5 10.8,-0.738 17.23,-0.726 10.11,0.019 20.25,0.406 30.1,1.16 5.17,0.387 9.9,0.969 14.46,1.797 1.65,0.293 3.3,0.57 4.96,0.84 3.79,0.64 7.71,1.293 11.54,2.121 l 2.64,0.59 c 1.35,0.312 2.7,0.609 4.05,0.902 l -0.66,-0.063 c 8.6,1.75 15.68,3.59 22.25,5.723 0.7,0.207 1.4,0.457 2.1,0.688"
             style="fill:#e8e8cf;fill-opacity:1;fill-rule:nonzero;stroke:none"
             id="path16020" /><path
             d="m 3865.61,1486.59 c -2.33,2.95 -5.05,6.35 -7.91,9.39 -2.11,2.21 -4.43,4.23 -7.05,6.52 l -1.03,0.87 c -4.05,3.48 -7.89,6.76 -12.18,9.58 -4.05,2.71 -8.22,5.16 -12.12,7.41 -4.84,2.79 -10.1,4.08 -15.05,5.07 -5.08,0.97 -10.07,1.88 -15.32,2.22 l -5.54,0.36 c -2.47,0.15 -4.94,0.29 -7.41,0.47 -2.56,0.2 -5.15,0.33 -7.72,0.31 -2.32,-0.02 -4.43,-0.19 -6.46,-0.49 -7.57,-1.2 -14,-3.01 -19.59,-5.56 l -1.15,2.44 c -1.47,3.23 -3.15,6.9 -5.05,10.26 -1.73,3.18 -3.85,6.65 -6.85,11.23 -5.01,7.7 -10.79,14.74 -17.18,20.91 -5.6,5.42 -12.38,9.4 -18.94,13.25 l -3.89,2.3 c -4.26,2.59 -8.01,4.55 -11.79,6.16 -3.69,1.59 -7.93,3.08 -12.93,4.53 -2.52,0.74 -5.08,1.37 -7.76,1.92 -2.39,1.04 -4.49,1.83 -6.43,2.4 -3.08,0.92 -6.2,1.07 -8.87,1.14 l -0.76,0.15 c -0.44,0.1 -0.89,0.2 -1.33,0.28 -1.6,0.31 -3.17,0.39 -4.78,0.48 -0.76,0.03 -1.53,0.05 -2.32,0.04 -0.65,-0.01 -1.26,-0.04 -1.97,-0.07 l -0.97,-0.03 -1.63,-0.08 c -0.07,0 -0.13,0.01 -0.2,0 l -3.01,-0.14 -0.26,-0.01 -0.26,-0.01 -3.01,-0.17 c -0.07,0 -0.13,-0.01 -0.2,-0.02 l -1.63,-0.09 -0.97,-0.06 c -0.71,-0.04 -1.32,-0.07 -1.97,-0.13 -0.78,-0.08 -1.54,-0.17 -2.3,-0.27 -1.59,-0.26 -3.15,-0.51 -4.7,-0.96 -0.44,-0.13 -0.87,-0.28 -1.31,-0.42 l -0.73,-0.22 c -2.65,-0.35 -5.73,-0.81 -8.72,-2.04 -1.86,-0.76 -3.87,-1.75 -6.14,-3.03 -2.62,-0.82 -5.1,-1.71 -7.54,-2.7 -4.83,-1.94 -8.89,-3.85 -12.4,-5.81 -3.6,-1.98 -7.12,-4.32 -11.11,-7.31 l -3.63,-2.69 c -6.13,-4.49 -12.48,-9.13 -17.51,-15.1 -5.73,-6.77 -10.77,-14.36 -14.97,-22.54 -2.53,-4.86 -4.29,-8.51 -5.7,-11.86 -1.54,-3.54 -2.84,-7.35 -3.99,-10.7 l -0.89,-2.55 c -5.82,1.96 -12.4,3.11 -20.04,3.54 -2.06,0.1 -4.18,0.05 -6.48,-0.15 -2.57,-0.24 -5.12,-0.64 -7.66,-1.09 -2.43,-0.44 -4.88,-0.83 -7.32,-1.22 l -5.48,-0.92 c -5.19,-0.87 -10.06,-2.27 -15.01,-3.76 -4.83,-1.48 -9.93,-3.3 -14.46,-6.56 -3.66,-2.63 -7.56,-5.5 -11.31,-8.59 -3.99,-3.25 -7.47,-6.89 -11.16,-10.76 l -0.92,-0.98 c -2.38,-2.54 -4.49,-4.78 -6.37,-7.19 -2.54,-3.31 -4.9,-6.98 -6.91,-10.15 -5.31,-7.34 -8.64,-15.42 -11.86,-23.22 0,0 -9.14,-42 -8.42,-50.76 0.35,-3.7 0.69,-7.53 2.8,-10.66 0.85,-1.3 1.58,-2.37 2.51,-3.23 2.46,-2.29 4.54,-3.27 7.7,-3.6 0.51,-0.05 1.03,-0.06 1.52,-0.02 3.26,0.29 6,2.67 8.44,4.77 l 1.26,1.09 c 1.28,1.05 2.6,2.07 3.94,3.08 4.37,2.95 8.08,5.1 11.68,6.75 l 1.68,0.49 c 1.47,0.46 3,0.79 4.56,1.12 1.78,0.41 4.22,0.96 6.41,1.76 0.34,0.12 0.67,0.28 0.99,0.44 1.49,0 3.08,-0.01 4.7,-0.1 4.68,-0.55 9.02,-1.48 13.22,-2.82 2.95,-1.19 5.9,-2.78 9.28,-4.99 7.01,-5.05 12.01,-9.32 16.2,-13.88 4.49,-5.49 8.49,-11.32 11.89,-16.35 3.79,-5.63 67.94,-176.25 68.55,-177.46 l 0.3,-0.6 -0.15,0.68 c 34.48,-76.25 153.02,-63.13 173.13,7.02 l 0.47,1.08 c 0,0 35.55,138.36 36.81,145.56 1.05,6.22 2.77,12.85 5.09,19.67 2.51,6.55 5.41,12.89 8.62,18.87 2.87,5.34 6.26,11.54 10.18,17.46 3.7,4.95 8.24,9.72 14.72,15.46 3.12,2.53 5.91,4.41 8.72,5.9 4.04,1.75 8.26,3.11 12.87,4.14 1.59,0.25 3.17,0.41 4.66,0.57 0.34,-0.13 0.69,-0.25 1.02,-0.33 2.27,-0.59 4.75,-0.89 6.57,-1.11 1.58,-0.17 3.13,-0.35 4.65,-0.65 l 1.72,-0.32 c 3.74,-1.28 7.65,-3.04 12.3,-5.55 1.43,-0.86 2.85,-1.74 4.23,-2.66 l 1.36,-0.96 c 2.64,-1.84 5.62,-3.92 8.88,-3.89 0.49,0.01 1.01,0.08 1.5,0.17 3.12,0.66 5.1,1.84 7.31,4.36 0.84,0.96 1.45,2.09 2.18,3.47 1.77,3.33 1.73,7.16 1.7,10.89 -0.17,8.78 -21.63,64.78 -27.64,71.56"
             style="fill:#d5cfa3;fill-opacity:0.992157;fill-rule:nonzero;stroke:none"
             id="path16022" /></g></g></g></g></svg>
