<?xml version="1.0" encoding="UTF-8" standalone="no"?>
<!-- Created with Inkscape (http://www.inkscape.org/) -->

<svg
   width="36.975342mm"
   height="34.042099mm"
   viewBox="0 0 36.975342 34.042099"
   version="1.1"
   id="svg5"
   sodipodi:docname="sampul.svg"
   xml:space="preserve"
   inkscape:version="1.2.2 (1:1.2.2+202212051552+b0a8486541)"
   xmlns:inkscape="http://www.inkscape.org/namespaces/inkscape"
   xmlns:sodipodi="http://sodipodi.sourceforge.net/DTD/sodipodi-0.dtd"
   xmlns="http://www.w3.org/2000/svg"
   xmlns:svg="http://www.w3.org/2000/svg"><sodipodi:namedview
     id="namedview7"
     pagecolor="#ffffff"
     bordercolor="#000000"
     borderopacity="0.25"
     inkscape:showpageshadow="2"
     inkscape:pageopacity="0.0"
     inkscape:pagecheckerboard="0"
     inkscape:deskcolor="#d1d1d1"
     inkscape:document-units="mm"
     showgrid="false"
     inkscape:zoom="0.70710678"
     inkscape:cx="72.124891"
     inkscape:cy="499.92449"
     inkscape:window-width="1366"
     inkscape:window-height="699"
     inkscape:window-x="0"
     inkscape:window-y="800"
     inkscape:window-maximized="1"
     inkscape:current-layer="layer1" /><defs
     id="defs2" /><g
     inkscape:label="Layer 1"
     inkscape:groupmode="layer"
     id="layer1"
     transform="translate(-20.647474,-211.52891)"><g
       id="g3230"
       transform="matrix(0.35277777,0,0,-0.35277777,51.580626,223.28417)"><g
         id="g3189"><g
           id="g3150" /><g
           id="g9106"
           style="fill:#d5cfa3;fill-opacity:0.992157"><path
             d="m -84.376717,-44.353392 c -0.03554,2.9492 -1.28945,5.1289 -2.68906,7.6406 0.02891,-0.2246 0.07852,-0.4687 0.140625,-0.7305 0.406645,-1.9257 1.189455,-4.8047 0.354295,-6.2851 -0.03515,1.6367 -0.456248,3.0488 -1.11367,4.3281 v -6.5863 c 1.07617,-1.9449 1.97656,-4.584 1.15742,-6.5778 -0.07929,-0.1722 -0.166014,-0.3453 -0.261717,-0.5211 0.259377,0.1071 0.583207,0.1891 0.820707,0.3399 0.67031,2.6953 1.62422,5.5891 1.5914,8.3922"
             style="fill:#d5cfa3;fill-opacity:0.992157;fill-rule:nonzero;stroke:none;stroke-width:0.1"
             id="path1806"
             transform="translate(1.2992126e-6)" /><path
             d="m -79.641947,-21.855392 -0.18672,0.0313 c -0.19844,0.041 -0.38672,0.0976 -0.61875,0.0918 1.38516,0.7285 0.55391,2.7812 0.12383,4.0957 -0.05,0.166 -0.09727,0.3203 -0.13828,0.457 -0.7043,-3.6133 -3.42539,-6.7656 -7.22266,-6.2949 v -0.3985 c 0.880859,-0.5937 1.80273,-1.1152 2.88477,-1.2187 -0.11094,0.0918 -0.19493,0.2148 -0.30039,0.3125 l -0.03321,0.0371 c 1.00313,0.043 1.93594,-0.2168 2.93164,0.2617 -0.38906,0.1856 -0.77383,0.4219 -1.11797,0.6817 l 0.18789,-0.0137 c 0.47266,-0.0664 0.94493,-0.0547 1.37657,0.084 0.27773,0.0664 0.52773,0.1836 0.71679,0.3887 -0.17734,0.0703 -0.44843,0.3183 -0.68671,0.4667 0.56953,-0.0097 1.07187,0.2754 1.53281,0.6055 0.19961,0.1309 0.38515,0.2735 0.55039,0.4121"
             style="fill:#d5cfa3;fill-opacity:0.992157;fill-rule:nonzero;stroke:none;stroke-width:0.1"
             id="path1816" /><path
             d="m -73.225527,-13.706892 c -1.9652,2.9941 -5.15666,5.3944996 -8.82189,5.6835996 -1.68047,0.1914 -3.73125,-0.1075 -5.63711,-1.0098 v -0.4414 c 1.89609,0.9043 3.93789,1.1777 5.58828,0.9629 3.48789,-0.3321 6.47072,-2.6386996 8.35552,-5.5390996 1.9289,-2.8887 2.7757,-6.4609 2.4007,-9.9082 -0.2289,-2.1367 -0.9351,-4.2617 -1.9929,-6.1016 -0.2719,-0.5488 -1.2153,-1.8359 -1.1508,-1.8945 0.0797,-0.0703 1.1289,1.1699 1.4476,1.711 1.2145,1.8066 1.9996,4.0039 2.2715,6.2187 0.4512,3.5742 -0.4293,7.3203 -2.4609,10.3184"
             style="fill:#d5cfa3;fill-opacity:0.992157;fill-rule:nonzero;stroke:none;stroke-width:0.1"
             id="path1838" /><path
             d="m -77.745077,9.2255076 c 0.82425,0.7105 2.06325,1.9375004 3.01175,1.1515004 -0.0739,0.1672 -0.0899,0.32 -0.1207,0.4774 l -0.034,0.1449 c 0.1515,-0.0777 0.3105,-0.1695 0.4668,-0.275 0.3789,-0.2348 0.739,-0.5129 0.9043,-0.9301004 0.0351,0.2176004 0.1332,0.4903004 0.1312,0.6407004 0.2055,-0.0758 0.3676,-0.2211 0.5,-0.4032 0.2317,-0.2714004 0.3828,-0.6105004 0.4785,-0.9746004 l 0.0465,-0.141 c 0.0844,0.3293 0.1387,0.6805 0.1567,1.0195 0.6484,-0.5785 0.7425,-1.3343 1.0781,-2.0507 l 0.0168,0.0359 c 0.0391,0.1055 0.1031,0.2043 0.1359,0.3125 0.3297,-1.0633 0.0621,-2.1441 -0.1679,-3.2016 -0.5176,3.3719 -3.8637,4.5778 -6.89457,3.9547 0.08633,0.0715 0.18437,0.1524 0.29062,0.2391"
             style="fill:#d5cfa3;fill-opacity:0.992157;fill-rule:nonzero;stroke:none;stroke-width:0.1"
             id="path1840" /><path
             d="m -71.866527,7.0040076 c -0.0192,0.0051 0.525,-0.3793 0.784,-1.452 0.1011,-0.5265 0.1105,-1.2304 -0.2227,-1.9488 -0.3203,-0.7289 -1.0281,-1.3535 -1.9113,-1.7621 -1.7473,-0.89839999 -4.66878,-0.275 -5.92191,2.1098 -1.38359,2.182 -1.22187,5.6324 0.96172,7.7695004 2.12619,2.1191 5.15309,2.8535 7.66839,2.4547 2.5586,-0.3766 4.5566,-1.8418 5.7179,-3.3527 2.3997,-3.0610004 2.4981,-5.6254004 2.5051,-5.5743004 -0.1211,-0.0683 -0.3363,2.4465 -2.741,5.3809004 -1.1598,1.4449 -3.0894,2.8133 -5.5406,3.1535 -2.4074,0.361 -5.2899,-0.3582 -7.30354,-2.3656 -2.03515,-1.9914004 -2.20312,-5.2066004 -0.92617,-7.2645004 1.15901,-2.2351 3.80191,-2.8207 5.45821,-2.032 1.7961,0.6899 2.3187,2.4152 2.0902,3.402 -0.1925,1.0234 -0.6785,1.448 -0.6183,1.4816"
             style="fill:#d5cfa3;fill-opacity:0.992157;fill-rule:evenodd;stroke:none;stroke-width:0.1"
             id="path1842" /><path
             d="m 14.078469,-50.320592 c 0.517,-0.9328 1.531,-1.1188 2.499,-1.0617 -0.166,0.8136 -0.461,1.4316 -1.146,1.9199 0.782,0.041 1.274,0.5758 1.696,1.1641 -0.915,0.5097 -1.657,0.6617 -2.619,0.2027 0.259,0.9633 -0.042,1.7641 -0.66,2.516 -0.566,-0.5258 -0.889,-1.1309 -0.882,-1.916 -0.615,0.6109 -1.183,0.7691 -2.0338,0.8062 0.0312,-0.3179 0.0769,-0.6171 0.1406,-0.9293 0.302,-0.5238 0.6027,-0.9199 1.0969,-1.2738 -0.957,-0.0922 -1.4797,-0.4199 -2.0402,-1.2031 0.864,-0.4801 1.6679,-0.7047 2.5665,-0.1879 -0.267,-0.9941 -0.114,-1.7418 0.542,-2.541 0.831,0.682 1.047,1.4808 0.84,2.5039"
             style="fill:#d5cfa3;fill-opacity:0.992157;fill-rule:nonzero;stroke:none;stroke-width:0.1"
             id="path1868" /><path
             d="m -64.220027,-15.974492 c -0.036,1.9551 0.0914,4.1269 -0.4606,5.9316 -0.5805,1.9003996 -1.8754,2.9198996 -3.3355,4.1093996 0.0625,-0.1367 0.1437,-0.2793 0.2371,-0.4297 0.6492,-1.1191 1.7437,-2.7402 1.4347,-3.9589996 -1.2812,4.0312996 -5.9464,4.1269996 -9.0195,6.3956996 1.1063,-1.6281 2.1367,-3.0636 3.7074,-4.2843 -0.3918,0.0937 -0.7726,0.1875 -1.1668,0.2421 -0.4492,0.1016 -0.905,0.1836 -1.3613,0.1875 0.7109,-0.7207 1.891,-0.9472 2.9371,-1.3085 0.4106,-0.1875 0.8281,-0.3555 1.1598,-0.5411 -0.9067,-0.2187 -1.7903,0.1328 -2.7125,-0.0351 1.7332,-0.7734996 3.7715,-0.8964996 5.3801,-1.9413996 1.289,-0.836 3.0168,-2.541 2.7714,-4.4239 -0.0222,-0.1367 -0.0511,-0.2753 -0.0863,-0.4199 0.1633,0.1504 0.3762,0.3047 0.5149,0.4766"
             style="fill:#d5cfa3;fill-opacity:0.992157;fill-rule:nonzero;stroke:none;stroke-width:0.1"
             id="path1808"
             transform="translate(1.2992126e-6)" /><path
             d="m -66.354427,-37.837792 c 1.9984,1.3906 4.3332,2.7637 5.8179,4.584 1.5625,1.9141 1.7211,3.9609 1.9399,6.2949 -0.0973,-0.1601 -0.1891,-0.3418 -0.2789,-0.541 -0.709,-1.4492 -1.6277,-3.7031 -3.1027,-4.2285 3.2832,4.1172 0.1511,9.0097 0.3707,13.7597 -0.9184,-2.2714 -1.6903,-4.332 -1.8637,-6.8007 -0.1758,0.4687 -0.3426,0.9277 -0.5574,1.373 -0.2071,0.5352 -0.4391,1.0645 -0.7504,1.5391 -0.2524,-1.2344 0.3308,-2.6114 0.682,-3.9434 0.0898,-0.5547 0.2039,-1.1035 0.2426,-1.5762 -0.8543,0.7872 -1.102,1.9454 -1.9156,2.7813 0.4015,-2.3281 1.6839,-4.5215 1.7183,-6.9082 0.0274,-1.9121 -0.5414,-4.8809 -2.6578,-5.9317 -0.157,-0.0703 -0.3207,-0.1367 -0.493,-0.1992 0.2684,-0.0644 0.575,-0.1777 0.8481,-0.2031"
             style="fill:#d5cfa3;fill-opacity:0.992157;fill-rule:nonzero;stroke:none;stroke-width:0.1"
             id="path1810"
             transform="translate(1.2992126e-6)" /><path
             d="m -44.568927,-60.376462 c 1.1625,0.31016 3.0543,0.68086 2.927,2.03516 0.1066,-0.17227 0.2367,-0.28125 0.3605,-0.40625 l 0.111,-0.1211 c 0.0234,0.18516 0.0382,0.38829 0.0394,0.59532 0.0219,0.49375 -0.0086,0.9957 -0.2863,1.40703 0.2211,-0.1043 0.5308,-0.18399 0.6664,-0.28008 0.0598,0.23477 0.0269,0.475 -0.0563,0.70703 -0.1043,0.38086 -0.3199,0.73086 -0.5925,1.04492 l -0.0996,0.13086 c 0.3531,-0.1289 0.7074,-0.29687 1.0289,-0.49179 -0.1258,0.95273 -0.7578,1.50976 -1.2036,2.26167 l 0.0438,-0.0078 c 0.1211,-0.03 0.2508,-0.0332 0.3695,-0.0711 -0.7652,0.9629 -1.9195,1.3911 -3.0285,1.8403 2.7578,-2.57034 1.777,-6.37932 -0.6785,-8.75901 0.1184,0.03476 0.2535,0.07187 0.3988,0.11484"
             style="fill:#d5cfa3;fill-opacity:0.992157;fill-rule:nonzero;stroke:none;stroke-width:0.1"
             id="path1814"
             transform="translate(1.2992126e-6)" /><path
             d="m -19.286127,-21.001892 c -2.4699,-1.916 -6.2461,-4.0976 -10.7375,-5.8066 -8.9796,-3.4707 -20.4199,-5.4297 -27.8488,-7.5742 -5.2508,-1.4551 -10.5062,-3.2246 -15.3492,-5.9453 -4.83477,-2.6914 -9.17462,-6.4844 -12.1547,-11.1914 -0.87656,-1.3532 -1.648044,-2.78715 -2.3082,-4.26215 v -2.80195 c 0.954688,2.19883 2.07891,4.35508 3.42461,6.3281 2.97031,4.4391 7.08869,8.027 11.74689,10.6832 4.659,2.6817 9.7801,4.5371 14.9539,6.1016 7.3086,2.2988 18.7379,4.543 27.6969,8.2598 4.4797,1.832 8.2265,4.123 10.6562,6.1093 2.4492,1.9688 3.6633,3.4922 3.6809,3.4707 -0.0176,0.0215 -1.2715,-1.4687 -3.761,-3.3711"
             style="fill:#d5cfa3;fill-opacity:0.992157;fill-rule:nonzero;stroke:none;stroke-width:0.1"
             id="path1820"
             transform="translate(1.2992126e-6)" /><path
             d="m -45.886127,-8.0369924 c 1.1368,-1.4199 3.1075,-3.5624996 1.7387,-5.0976996 0.2832,0.1133 0.5395,0.1309 0.8035,0.1719 l 0.2449,0.0488 c -0.1398,-0.248 -0.3039,-0.5097 -0.4878,-0.7617 -0.4157,-0.6191 -0.902,-1.2031 -1.6079,-1.4531 0.3618,-0.0723 0.8098,-0.2539 1.0614,-0.2598 -0.1387,-0.3379 -0.3918,-0.5996 -0.7032,-0.8105 -0.4671,-0.3692 -1.0433,-0.6016 -1.6554,-0.7383 l -0.2383,-0.0703 c 0.5441,-0.1602 1.1262,-0.2715 1.6918,-0.3223 -1.0059,-1.0469 -2.2734,-1.1582 -3.4895,-1.6738 l 0.0586,-0.0313 c 0.175,-0.0703 0.3352,-0.1836 0.5133,-0.2461 -1.7945,-0.4843 -3.582,0.0293 -5.3324,0.4766 5.659,0.6582 7.8766,6.1699 7.0215,11.2655996 0.1129,-0.1484 0.2422,-0.3144 0.3808,-0.498"
             style="fill:#d5cfa3;fill-opacity:0.992157;fill-rule:nonzero;stroke:none;stroke-width:0.1"
             id="path1824"
             transform="translate(1.2992126e-6)" /><path
             d="m -49.953227,-17.714692 c 0.0171,0.0292 -0.6473,-0.8848 -2.4653,-1.2325 -0.8887,-0.1601 -2.0656,-0.0918 -3.2406,0.4981 -1.1957,0.5801 -2.1965,1.7969 -2.8274,3.2969 -0.6175,1.5117 -0.7644,3.4199 -0.1312,5.2577996 0.5914,1.8672 2.1203,3.4824 4.0074,4.5019 3.727,2.1793 9.4781,1.6996 12.9137,-2.0762 3.4062,-3.6717996 4.4773,-8.7733996 3.6351,-12.9491996 -0.7925,-4.2441 -3.3453,-7.5 -5.9468,-9.3398 -5.2574,-3.8203 -9.5446,-3.8281 -9.4594,-3.8438 -0.107,0.2071 4.1055,0.4121 9.1508,4.2481 2.491,1.8418 4.8781,4.9902 5.6027,9.0586 0.7731,3.998 -0.2808,8.8554 -3.5078,12.3339996 -3.2004,3.5187 -8.5602,3.9949 -12.0719,1.9863 -1.7953,-0.959 -3.1855,-2.4043 -3.7601,-4.1171996 -0.6071,-1.6855 -0.5051,-3.4531 0.0414,-4.875 0.5664,-1.418 1.4636,-2.5684 2.5426,-3.127 1.0668,-0.5761 2.164,-0.6875 3.0113,-0.5761 1.732,0.2402 2.4601,1.0547 2.5055,0.9551"
             style="fill:#d5cfa3;fill-opacity:0.992157;fill-rule:evenodd;stroke:none;stroke-width:0.1"
             id="path1826"
             transform="translate(1.2992126e-6)" /><path
             d="m -62.512227,7.1485076 c -2.2094,9.7606004 -5.4141,17.1223004 -5.2953,17.1543004 -0.1211,-0.0265 2.9621,-7.4574 5.0019,-17.2140004 0.959,-4.87 1.4199,-10.4028 0.5332,-15.536 -0.7949,-5.1600996 -3.1543,-9.6112996 -5.1191,-13.0350996 -5.559,-9.6836 -13.86956,-17.8965 -18.12894,-28.5742 -0.79062,-1.8891 -1.505466,-3.8282 -2.16406,-5.76606 v -2.19492 c 0.958203,2.53281 1.92617,5.11718 3.01328,7.59808 4.31992,10.3843 12.45862,18.6441 17.95742,28.5484 1.9281,3.4785 4.2641,8.0645 4.9898,13.3378996 0.8168,5.2355 0.2547,10.807 -0.7882,15.6816"
             style="fill:#d5cfa3;fill-opacity:0.992157;fill-rule:nonzero;stroke:none;stroke-width:0.1"
             id="path1834"
             transform="translate(1.2992126e-6)" /><path
             d="m -65.402927,24.760308 c 2.4872,-0.2102 4.1715,1.517099 5.3204,3.472999 -1.7946,0.7371 -3.3786,0.9687 -5.2227,0.277 0.9398,1.5722 0.5441,3.223 -0.0523,4.8117 -2.1801,-1.1137 -3.4469,-2.3567 -3.8067,-4.8246 -1.5332,1.7578 -3.4812,2.2195 -5.7515,1.9988 0.2871,-1.7871 1.0386,-3.2027 2.5757,-4.2129 -1.9906,-0.3992 -3.0371,-1.2965 -4.2183,-2.900799 0.6566,-0.3539 1.2976,-0.6555 1.9883,-0.939 1.4109,-0.0961 2.5714,-0.0278 3.9027,0.4707 -1.068,-1.9809 -1.1133,-3.4211 -0.3207,-5.5332 2.0617,1.0539 3.5473,2.321 3.7113,4.7418 1.5809,-1.8122 3.2367,-2.493 5.6449,-2.2586 -0.2441,2.5039 -1.5113,3.964 -3.7711,4.8961"
             style="fill:#d5cfa3;fill-opacity:0.992157;fill-rule:nonzero;stroke:none;stroke-width:0.1"
             id="path1844"
             transform="translate(1.2992126e-6)" /><path
             d="m -74.241127,18.754808 c 1.0199,0.3125 1.4129,1.2652 1.5578,2.2234 -0.8293,0.0074 -1.4938,-0.1531 -2.1157,-0.7207 0.1227,0.7735 -0.2972,1.3649 -0.7863,1.9 -0.6871,-0.7887 -0.9918,-1.4832 -0.7418,-2.5191 -0.8879,0.4531 -1.73435,0.3261 -2.59959,-0.1227 0.39844,-0.6629 0.92188,-1.1043 1.69259,-1.2605 -0.72618,-0.4758 -0.99884,-0.9977 -1.21212,-1.8219 0.3168,-0.0355 0.61953,-0.0531 0.93872,-0.0563 0.5746,0.1868 1.0238,0.3981 1.4718,0.8079 -0.1078,-0.9555 0.1035,-1.5344 0.7532,-2.2457 0.6507,0.7461 1.0382,1.4847 0.7175,2.4711 0.916,-0.4668 1.6813,-0.4735 2.5993,0.0027 -0.4958,0.9539 -1.2305,1.3312 -2.2754,1.3418"
             style="fill:#d5cfa3;fill-opacity:0.992157;fill-rule:nonzero;stroke:none;stroke-width:0.1"
             id="path1848"
             transform="translate(1.2992126e-6)" /><path
             d="m -74.817727,18.807908 c -0.5,0.6691 -1.5168,-0.0898 -0.9684,-0.7137 0.5504,-0.6418 1.47,0.0411 0.9684,0.7137"
             style="fill:#d5cfa3;fill-opacity:0.992157;fill-rule:nonzero;stroke:none;stroke-width:0.1"
             id="path1850"
             transform="translate(1.2992126e-6)" /><path
             d="m -56.649027,23.825108 c 1.143,0.4406 1.5157,1.564799 1.6036,2.674599 -0.9504,-0.0602 -1.6993,-0.2977 -2.3649,-0.9984 0.0774,0.8953 -0.4519,1.539 -1.0554,2.1121 -0.7231,-0.9594 -1.0161,-1.7801 -0.645,-2.946099 -1.0543,0.446899 -2.0133,0.2324 -2.9679,-0.3528 0.5101,-0.7269 1.1461,-1.1902 2.0418,-1.3066 -0.793,-0.6035 -1.0625,-1.2234 -1.2395,-2.1855 0.3652,-0.0157 0.7129,-0.0106 1.0785,0.0125 0.6438,0.2601 1.141,0.5398 1.6223,1.0457 -0.0465,-1.1036 0.2426,-1.7496 1.0457,-2.5118 0.6836,0.9075 1.0676,1.7856 0.6203,2.8903 1.0867,-0.461 1.9637,-0.4071 2.9766,0.2137 -0.6453,1.0527 -1.5176,1.4257 -2.7161,1.3523"
             style="fill:#d5cfa3;fill-opacity:0.992157;fill-rule:nonzero;stroke:none;stroke-width:0.1"
             id="path1852"
             transform="translate(1.2992126e-6)" /><path
             d="m -57.313827,23.839208 c -0.6269,0.7253 -1.7297,-0.2274 -1.0508,-0.8969 0.6824,-0.6903 1.6801,0.1672 1.0508,0.8969"
             style="fill:#d5cfa3;fill-opacity:0.992157;fill-rule:nonzero;stroke:none;stroke-width:0.1"
             id="path1854"
             transform="translate(1.2992126e-6)" /><path
             d="m -13.764627,-19.433492 c 1.5899,-2.459 4.4015995,-2.7812 7.0402995,-2.4453 -0.6047,2.1953 -1.5266,3.8301 -3.4906995,5.0449 2.1327995,0.2559 3.3788995,1.8086 4.4257995,3.502 -2.5973,1.2226 -4.6608995,1.5058 -7.2077995,0.0683 0.5305,2.6836 -0.4395,4.8222996 -2.2734,6.7714996 -1.4524,-1.5488 -2.2246,-3.2637 -2.0594,-5.4140996 -1.7988,1.5606 -3.382,1.8868 -5.718,1.8321 0.1426,-0.8633 0.3235,-1.6739 0.5559,-2.5176 0.9226,-1.3789 1.8191,-2.4063 3.2371,-3.2852 -2.6035,-0.4296 -3.9727,-1.4199 -5.3633,-3.6718 2.457,-1.1563 4.6981,-1.625 7.0625,-0.0391 -0.5469,-2.7695 0.0098,-4.793 1.9551,-6.8594 2.1473,2.0235 2.593,4.2481 1.8359,7.0137"
             style="fill:#d5cfa3;fill-opacity:0.992157;fill-rule:nonzero;stroke:none;stroke-width:0.1"
             id="path1856"
             transform="translate(1.2992126e-6)" /><path
             d="m -14.057527,-17.870992 c 1.3918,1.8203 -1.3743,3.9355 -2.6094,2.0195 -1.2813,-1.9336 1.2109,-3.8476 2.6094,-2.0195"
             style="fill:#d5cfa3;fill-opacity:0.992157;fill-rule:nonzero;stroke:none;stroke-width:0.1"
             id="path1858"
             transform="translate(1.2992126e-6)" /><path
             d="m -19.075127,-6.8299924 c 0.8703,-0.6152 1.8652,-0.3437 2.7121,0.1289 -0.5024,0.6602 -1.0356,1.0879 -1.8652,1.2324 0.6863,0.375 0.8984,1.0696 1.0222,1.7844 -1.0449,0.061 -1.7805,-0.123 -2.4465,-0.9547 -0.1851,0.9793 -0.8035,1.5711 -1.6882,1.9809 -0.2801,-0.7199 -0.3094,-1.4047 0.039,-2.1094 -0.8203,0.2832 -1.4004,0.1793 -2.1824,-0.1562 0.1648,-0.2735 0.3367,-0.5235 0.5293,-0.7774 0.5,-0.3398 0.9414,-0.5664 1.5398,-0.6699 -0.8222,-0.5 -1.1504,-1.0195 -1.3152,-1.9687 0.9883,-0.0586 1.8094,0.0859 2.3941,0.9433 0.1899,-1.0098 0.6528,-1.6191 1.5911,-2.0547 0.4511,0.9766 0.3,1.7891 -0.3301,2.6211"
             style="fill:#d5cfa3;fill-opacity:0.992157;fill-rule:nonzero;stroke:none;stroke-width:0.1"
             id="path1864"
             transform="translate(1.2992126e-6)" /><path
             d="m -8.8923275,-27.595592 c 1.0476,-0.6348 2.1648,-0.2422 3.0965,0.3672 -0.6289,0.7148 -1.2754,1.1621 -2.2371,1.2597 0.7554,0.4864 0.9414,1.2989 1.0254,2.127 -1.2012,-0.0137 -2.0293,-0.2852 -2.7258,-1.293 -0.2909995,1.1075 -1.0480995,1.7344 -2.0948995,2.1328 -0.2625,-0.8496 -0.2403,-1.6347 0.216,-2.414 -0.9629,0.2578 -1.618,0.0918 -2.4871,-0.3574 0.2117,-0.2989 0.4285,-0.5704 0.6699,-0.8457 0.5996,-0.3497 1.125,-0.5723 1.8191,-0.6426 -0.9004,-0.6387 -1.2344,-1.2637 -1.3469,-2.3653 1.1372,0.0157 2.0665,0.25 2.6665,1.2774 0.3002995,-1.1406 0.8795995,-1.8008 1.9909995,-2.2227 0.4375,1.1543 0.198,2.0723 -0.5926,2.9766"
             style="fill:#d5cfa3;fill-opacity:0.992157;fill-rule:nonzero;stroke:none;stroke-width:0.1"
             id="path1876"
             transform="translate(1.2992126e-6)" /><path
             d="m -9.2892275,-27.062392 c 0.1914,0.9414 -1.2382995,1.2305 -1.3522995,0.2832 -0.1282,-0.9629 1.1612995,-1.2266 1.3522995,-0.2832"
             style="fill:#d5cfa3;fill-opacity:0.992157;fill-rule:nonzero;stroke:none;stroke-width:0.1"
             id="path1878"
             transform="translate(1.2992126e-6)" /><g
             id="g3118"
             transform="translate(1.2992126e-6)"
             style="fill:#d5cfa3;fill-opacity:0.992157"><path
               d="m -64.370027,-62.577632 c -0.611,0.62305 -1.329,1.14414 -2.0657,1.62695 -0.6,0.46836 -1.2347,0.86914 -1.8828,1.28516 3.7649,-0.54297 7.111,-0.05313 10.8215,0.58789 -7.2062,1.21406 -13.5352,7.50894 -20.78672,3.91602 1.26802,2.04532 4.95152,2.69102 7.35742,3.28512 0.3285,0.0719 0.6332,0.15 0.9039,0.2442 -3.5762,0.4297 -6.7008,0.857 -10.08554,-0.8672 -2.74922,-1.4008 -5.20937,-3.83986 -7.57656,-6.11017 v -1.06992 c 2.42422,2.07812 6.47188,1.93007 9.06211,1.33007 3.57459,-0.82578 6.45309,-3.46679 9.81919,-4.825777 -0.9926,1.493747 -2.6512,2.241797 -3.5547,3.780857 0.6961,-0.21093 1.4836,-0.56015 2.2867,-0.87695 1.8863,-0.96094 3.766,-2.2832 5.7012,-2.30625"
               style="fill:#d5cfa3;fill-opacity:0.992157;fill-rule:nonzero;stroke:none;stroke-width:0.1"
               id="path1812" /><path
               d="m 2.7092725,-50.325692 c -3.70239996,0.3613 -8.7817,1.2551 -14.3144995,2.7031 -5.5402,1.418 -11.5488,3.2981 -17.3664,4.8414 -5.8086,1.5704 -11.4668,2.6758 -16.057,3.0918 -6.4645,0.6622 -13.1246,0.1485 -19.4125,-1.6777 -6.2805,-1.7695 -12.395,-4.5394 -17.4266,-8.7945 -2.27188,-1.918 -4.31992,-4.23479 -5.8168,-6.80471 v -1.58203 c 1.63516,2.875 3.91406,5.45894 6.49766,7.57384 4.93554,4.039 10.90274,6.7422 17.05314,8.5176 6.1699,1.832 12.6277,2.4257 19.0277,1.875 4.5336,-0.3418 10.1602,-1.3457 15.9762,-2.8164 5.8223,-1.4454 11.8672,-3.2282 17.4426,-4.5563 5.5671995,-1.3598 10.6745995,-2.1738 14.3874995,-2.4707 3.7129,-0.2992 6.008996,-0.1934 6.006996,-0.2152 0.002,0.0242 -2.294896,-0.043 -5.997996,0.3148"
               style="fill:#d5cfa3;fill-opacity:0.992157;fill-rule:nonzero;stroke:none;stroke-width:0.1"
               id="path1818" /><path
               d="m -42.220027,-54.597552 c -0.0852,-0.03906 0.0355,0.89496 -0.9372,1.92816 -0.4753,0.4918 -1.2793,0.9281 -2.2554,0.8898 -0.9727,-0.041 -2.0946,-0.4488 -2.9383,-1.3469 -1.8492,-1.74216 -1.4418,-5.57302 1.1414,-7.61012 2.5395,-2.188677 6.9742,-1.55782 9.716,1.01796 1.382,1.29532 2.3207,2.99414 2.6508,4.75 0.3594,1.74996 0.1211,3.53716 -0.3199,5.12736 -0.9219,3.2148 -3.0024,5.6187 -5.0739,7.0328 -4.307,2.8379 -7.8332,2.1875 -7.7425,2.3789 -0.0039,0.0215 0.7941,0.1621 2.2375,0.0215 1.4261,-0.1445 3.5488,-0.6172 5.7363,-2.0586 2.1664,-1.4141 4.3676,-3.8789 5.3582,-7.2227 0.473,-1.6519 0.7391,-3.5082 0.3648,-5.39019 -0.3441,-1.8711 -1.3402,-3.68594 -2.8144,-5.0668 -2.9027,-2.74219 -7.668,-3.417969 -10.4512,-1.00625 -2.7867,2.22109 -3.1765,6.40898 -1.1008,8.31134 1.943,1.9898 4.7704,1.566 5.6571,0.3277 0.9855,-1.1679 0.7601,-2.12498 0.7715,-2.08396"
               style="fill:#d5cfa3;fill-opacity:0.992157;fill-rule:evenodd;stroke:none;stroke-width:0.1"
               id="path1822" /><path
               d="m -24.063427,-34.816292 c -0.5203,-0.9902 -1.2449,-2.627 -2.4473,-2.2344 0.1336,-0.1308 0.2063,-0.2715 0.295,-0.4082 l 0.0878,-0.1269 c -0.175,0.0175 -0.3613,0.0449 -0.55,0.0878 -0.4503,0.0821 -0.8996,0.211 -1.2144,0.5489 0.0476,-0.2227 0.057,-0.5196 0.1156,-0.6621 -0.2254,-0.0059 -0.4348,0.0742 -0.6301,0.1972 -0.323,0.1719 -0.5953,0.4395 -0.8226,0.752 l -0.0988,0.1172 c 0.0429,-0.3457 0.1234,-0.7012 0.2335,-1.0332 -0.8375,0.3086 -1.2113,0.9961 -1.8011,1.5547 l -0.0032,-0.0411 c 0.0028,-0.1152 -0.0214,-0.2324 -0.0121,-0.3496 -0.7152,0.8926 -0.8648,2.0274 -1.0429,3.125 1.7629,-3.0293 5.4148,-2.9257 8.0781,-1.1894 -0.0559,-0.0996 -0.1184,-0.2149 -0.1875,-0.3379"
               style="fill:#d5cfa3;fill-opacity:0.992157;fill-rule:nonzero;stroke:none;stroke-width:0.1"
               id="path1828" /><path
               d="m -30.519727,-34.902192 c 0.0098,-0.0059 -0.5343,0.1328 -1.1351,0.8691 -0.5918,0.6777 -1.0934,2.2715 -0.1348,3.7559 0.8258,1.4531 2.9531,2.6464 5.1813,2.0019 2.1445,-0.6582 4.0449,-2.7461 4.3515,-5.3398 0.3684,-2.6309 -1.0839,-4.9649 -2.6797,-6.4141 -1.6386,-1.5059 -3.6136,-2.1855 -5.2601,-2.3496 -3.3848,-0.2656 -5.2008,1.1367 -5.1656,1.0742 0.0152,0.1465 1.8593,-1.1406 5.1363,-0.8125 1.5965,0.1934 3.4926,0.877 5.057,2.3418 1.5324,1.4199 2.8938,3.6465 2.5418,6.1133 -0.2832,2.4433 -2.0855,4.4277 -4.0777,5.0566 -2.0543,0.6153 -4.0539,-0.459 -4.8613,-1.8125 -0.9204,-1.3593 -0.5032,-2.8476 0.0277,-3.5273 0.5371,-0.7305 1.0496,-0.918 1.0187,-0.957"
               style="fill:#d5cfa3;fill-opacity:0.992157;fill-rule:evenodd;stroke:none;stroke-width:0.1"
               id="path1830" /><path
               d="m -19.161127,-45.947592 c 1.8184,-0.1359 3.795,-0.4347 5.6036,-0.105 1.9043,0.348 3.1765,1.398 4.6463995,2.58 -0.1418,-0.0429 -0.2949,-0.1015 -0.4558,-0.1699 -1.2015995,-0.4762 -2.9777995,-1.2988 -4.0277995,-0.9219 4.0546995,0.7793 5.3253995,4.875 8.2042995,7.3829 -1.7871,-0.8321 -3.3757,-1.6153 -4.9022995,-2.8926 0.1847995,0.3379 0.3683995,0.664 0.5194995,1.0058 0.2078,0.3868 0.3985,0.7813 0.5176,1.1817 -0.8457,-0.5645 -1.3554995,-1.5821 -1.9542995,-2.4727 -0.2769,-0.3437 -0.5398,-0.6953 -0.7957,-0.9726 0.0281,0.8164 0.5781,1.5644 0.6555,2.3886 -1.1543,-1.457 -1.7856,-3.2402 -3.1594,-4.5644 -1.1008,-1.0629 -3.1172,-2.436 -4.7949,-2.0586 -0.1211,0.0328 -0.2434,0.0707 -0.366,0.1137 0.0972,-0.1571 0.1851,-0.3579 0.3093,-0.495"
               style="fill:#d5cfa3;fill-opacity:0.992157;fill-rule:nonzero;stroke:none;stroke-width:0.1"
               id="path1832" /><path
               d="m 2.8994725,-52.566292 c -0.7266,-2.25236 0.509,-4.17501 2.0683,-5.65626 1.0645,1.5 1.6172,2.91406 1.3731,4.76406 1.251196,-1.20312 2.858596,-1.1918 4.4530965,-0.98086 -0.5613,2.25196 -1.4387005,3.68786 -3.6405965,4.54686 1.951196,1.041 2.793696,2.7422 3.0753965,4.8828 -1.7113005,0.1192 -3.1788965,-0.2738 -4.4405965,-1.4769 0.0566,1.9242 -0.5469,3.0824 -1.7762,4.516 -0.468,-0.5313 -0.8828,-1.0586 -1.2934,-1.6348 -0.3902,-1.2832 -0.575,-2.3691 -0.3992,-3.7051 -1.60079996,1.4098 -2.92109996,1.7598 -5.0398,1.479 0.5308,-2.129 1.3836,-3.7719 3.58470004,-4.4399 -2.01170004,-1.0742 -2.99410004,-2.457 -3.29290004,-4.73007 2.36400004,-0.30898 3.9836,0.54883 5.3281,2.43517"
               style="fill:#d5cfa3;fill-opacity:0.992157;fill-rule:nonzero;stroke:none;stroke-width:0.1"
               id="path1860" /><path
               d="m 14.009469,-49.745592 c 0.551,0.6293 -0.403,1.4641 -0.898,0.798 -0.514,-0.6711 0.346,-1.4269 0.898,-0.798"
               style="fill:#d5cfa3;fill-opacity:0.992157;fill-rule:nonzero;stroke:none;stroke-width:0.1"
               id="path1870" /><path
               d="m 9.5349685,-59.574512 c 0.8176005,-0.58398 1.7934005,-0.26484 2.6340005,0.24688 -0.4582,0.64219 -0.957,1.04805 -1.7539,1.1582 0.6817,0.40782 0.916,1.11485 1.0664,1.83985 -1.0097,0.01718 -1.7305005,-0.2 -2.4121005,-1.0668 -0.1367,0.97891 -0.7109,1.54687 -1.5496,1.92187 -0.303896,-0.73789 -0.361296,-1.42812 -0.0551,-2.12109 -0.783196,0.24805 -1.349596,0.11914 -2.121896,-0.25195 0.1485,-0.26797 0.304,-0.51211 0.4793,-0.75781 0.47,-0.32227 0.8887,-0.5293 1.464096,-0.60899 -0.818396,-0.53711 -1.159396,-1.07617 -1.359396,-2.03906 0.9551,-0.01602 1.757096,0.16601 2.361396,1.0539 0.1406,-1.00703 0.5632,-1.60078 1.4543,-1.99804 0.4793005,1 0.3679005,1.81094 -0.2075,2.62304"
               style="fill:#d5cfa3;fill-opacity:0.992157;fill-rule:nonzero;stroke:none;stroke-width:0.1"
               id="path1872" /><path
               d="m 1.0681725,-43.208892 c 0.9004,-0.4648 1.8059,-0.0664 2.5461,0.502 -0.5578,0.5586 -1.1164,0.8925 -1.9179,0.914 0.6015,0.4532 0.7129,1.1446 0.739,1.8438 -0.9937,-0.0899 -1.66559996,-0.3672 -2.19019996,-1.252 -0.2988,0.9063 -0.957,1.3828 -1.84450004,1.6504 -0.1743,-0.7265 -0.1157,-1.3828 0.3027,-2.0058 -0.8109,0.1562 -1.3449,-0.0235 -2.0422,-0.4532 0.1914,-0.2363 0.384,-0.4511 0.5984,-0.666 0.5137,-0.2558 0.9622,-0.4082 1.5403,-0.4238 -0.7141,-0.5918 -0.959,-1.1328 -0.9942,-2.0602 0.9407,0.0821 1.69850004,0.3352 2.14260004,1.234 0.3074,-0.9359 0.8223,-1.4508 1.76369996,-1.734 0.3027,0.9922 0.0578,1.7461 -0.6438,2.4508"
               style="fill:#d5cfa3;fill-opacity:0.992157;fill-rule:nonzero;stroke:none;stroke-width:0.1"
               id="path1880" /><path
               d="m 0.71197254,-42.786992 c 0.1094,0.7988 -1.0879,0.9512 -1.1336,0.1523 -0.0566,-0.8125 1.023,-0.9531 1.1336,-0.1523"
               style="fill:#d5cfa3;fill-opacity:0.992157;fill-rule:nonzero;stroke:none;stroke-width:0.1"
               id="path1882" /></g><path
             d="m -6.8400275,-8.6385924 c 1.2168,-0.7363 2.5149,-0.2793 3.5969,0.4278 -0.7312,0.832 -1.4824,1.3496 -2.5976,1.4628 0.8769,0.5665 1.0917,1.5098 1.1894,2.4719 -1.3953,-0.0172 -2.3574,-0.3316 -3.1648,-1.5011 -0.3391,1.2859 -1.218,2.014 -2.4328995,2.4761 -0.3066,-0.9859 -0.28,-1.898 0.2492995,-2.8043 -1.1183995,0.2989 -1.8788995,0.1055 -2.8886995,-0.416 0.2461,-0.3457 0.4977,-0.6621 0.7781,-0.9824 0.6961,-0.4063 1.3067,-0.6641 2.1132995,-0.7461 -1.0468995,-0.7422 -1.4335995,-1.4668 -1.5636995,-2.7460996 1.3196,0.0176 2.3995995,0.2891 3.0956995,1.4843996 0.3496,-1.3261996 1.0227,-2.0937996 2.3125,-2.5820996 0.509,1.3399 0.2309,2.4062996 -0.6875,3.4550996"
             style="fill:#d5cfa3;fill-opacity:0.992157;fill-rule:nonzero;stroke:none;stroke-width:0.1"
             id="path1884"
             transform="translate(1.2992126e-6)" /><path
             d="m -62.214227,3.4606076 c 0.0645,1.7563 -0.0133,3.7086 0.5125,5.3204 0.5531,1.6953004 1.7336,2.5902004 3.0645,3.6332004 -0.0586,-0.1211 -0.1336,-0.2485 -0.2196,-0.3809 -0.6027,-0.9949 -1.6121,-2.4320004 -1.3554,-3.5324004 1.2187,3.5996004 5.4093,3.6066004 8.2074,5.5929004 -1.0211,-1.4433 -1.9703,-2.7164 -3.4016,-3.7843 0.3532,0.0765 0.6977,0.1543 1.052,0.1976 0.4054,0.084 0.8164,0.1485 1.2262,0.1446 -0.6504,-0.6344 -1.7149,-0.8180004 -2.6598,-1.1247004 -0.3723,-0.1617 -0.7488,-0.3062 -1.0508,-0.4671 0.8106,-0.2121 1.6106,0.089 2.4356,-0.0778 -1.5704,-0.6644 -3.402,-0.7418 -4.8641,-1.6523 -1.1723,-0.7301 -2.7516,-2.2328 -2.5637,-3.927 0.0188,-0.1226 0.0418,-0.2488 0.0707,-0.3781 -0.1437,0.1383 -0.3328,0.2801 -0.4539,0.4359"
             style="fill:#d5cfa3;fill-opacity:0.992157;fill-rule:nonzero;stroke:none;stroke-width:0.1"
             id="path1888" /></g></g></g></g></svg>
