<?xml version="1.0" encoding="UTF-8" standalone="no"?>
<!-- Created with Inkscape (http://www.inkscape.org/) -->

<svg
   width="5.9620113mm"
   height="36.878056mm"
   viewBox="0 0 5.9620114 36.878055"
   version="1.1"
   id="svg5"
   sodipodi:docname="ils_cover2.svg"
   xml:space="preserve"
   inkscape:version="1.2.2 (1:1.2.2+202212051552+b0a8486541)"
   xmlns:inkscape="http://www.inkscape.org/namespaces/inkscape"
   xmlns:sodipodi="http://sodipodi.sourceforge.net/DTD/sodipodi-0.dtd"
   xmlns="http://www.w3.org/2000/svg"
   xmlns:svg="http://www.w3.org/2000/svg"><sodipodi:namedview
     id="namedview7"
     pagecolor="#ffffff"
     bordercolor="#000000"
     borderopacity="0.25"
     inkscape:showpageshadow="2"
     inkscape:pageopacity="0.0"
     inkscape:pagecheckerboard="0"
     inkscape:deskcolor="#d1d1d1"
     inkscape:document-units="mm"
     showgrid="false"
     inkscape:zoom="8"
     inkscape:cx="218.9375"
     inkscape:cy="376.1875"
     inkscape:window-width="1366"
     inkscape:window-height="699"
     inkscape:window-x="0"
     inkscape:window-y="800"
     inkscape:window-maximized="1"
     inkscape:current-layer="g15992" /><defs
     id="defs2" /><g
     inkscape:label="Layer 1"
     inkscape:groupmode="layer"
     id="layer1"
     transform="translate(-40.382035,-35.685417)"><g
       id="g16694"
       inkscape:export-filename="ils_cover1.svg"
       inkscape:export-xdpi="96"
       inkscape:export-ydpi="96"><g
         id="g5786"
         transform="matrix(0.00903569,0,0,-0.00903569,62.985765,148.11418)"><g
           id="g15992"><g
             id="g2213"
             transform="matrix(-1.0104995,3.7712356,-3.7712356,-1.0104995,26966.326,-33839.092)"
             inkscape:export-filename="ils_cover2.svg"
             inkscape:export-xdpi="96"
             inkscape:export-ydpi="96"><g
               id="g1571"
               transform="translate(1276.2263,650.62553)"><g
                 id="g6798"
                 transform="rotate(165,10164.251,4428.0118)"><g
                   id="g7149"
                   transform="translate(-1241.7584,692.11175)"><path
                     d="m 10282.183,4054.8849 c -207.394,8.5324 -497.4028,13.8869 -901.7334,15.4058 -7.6364,5.8446 -74.8872,57.4236 -91.8329,75.5872 0,0 71.4435,4.0666 86.8143,12.9629 15.3638,8.8824 -87.3742,65.046 -87.3742,65.046 0,0 258.1329,-34.3743 579.9259,-34.3673 139.9613,0.01 292.0593,6.5095 440.0273,25.17 0,0 -47.596,-64.059 -64.814,-71.3385 -17.149,-7.2724 90.223,-41.7377 90.223,-41.7377 l -56.206,-43.5296 c 0,0 1.82,-1.2179 4.97,-3.1988"
                     style="fill:#e8e8cf;fill-opacity:1;fill-rule:nonzero;stroke:none;stroke-width:0.699946"
                     id="path1092" /></g></g></g></g></g></g></g></g></svg>
