<?xml version="1.0" encoding="UTF-8" standalone="no"?>
<!-- Created with Inkscape (http://www.inkscape.org/) -->

<svg
   version="1.1"
   id="svg51028"
   width="190.3071"
   height="171.34454"
   viewBox="0 0 190.3071 171.34454"
   sodipodi:docname="4664656_2479124.eps"
   xmlns:inkscape="http://www.inkscape.org/namespaces/inkscape"
   xmlns:sodipodi="http://sodipodi.sourceforge.net/DTD/sodipodi-0.dtd"
   xmlns="http://www.w3.org/2000/svg"
   xmlns:svg="http://www.w3.org/2000/svg">
  <defs
     id="defs51032" />
  <sodipodi:namedview
     id="namedview51030"
     pagecolor="#ffffff"
     bordercolor="#000000"
     borderopacity="0.25"
     inkscape:showpageshadow="2"
     inkscape:pageopacity="0.0"
     inkscape:pagecheckerboard="0"
     inkscape:deskcolor="#d1d1d1"
     showgrid="false" />
  <g
     id="g51036"
     inkscape:groupmode="layer"
     inkscape:label="Page 1"
     transform="matrix(1.3333333,0,0,-1.3333333,672.58893,69.443308)">
    <g
       id="g53193"
       transform="matrix(0.90065661,0,0,0.90065661,-6.8676296,-257.07959)">
      <g
         id="g53691"
         transform="matrix(0,1.1818049,-1.1818049,0,-98.545881,855.49467)">
        <path
           d="m -490.91608,365.66807 c -0.006,-0.029 -0.0125,-0.057 -0.0188,-0.085 0.003,0.013 0.006,0.027 0.009,0.041 0.003,0.014 0.006,0.029 0.009,0.044 m 2.5664,0.115 c -0.0125,-0.064 -0.0258,-0.129 -0.0399,-0.193 z m -1.3969,-6.141 c 0.007,0.034 0.0141,0.068 0.0211,0.103 -0.007,-0.035 -0.0137,-0.069 -0.0211,-0.103 m -0.0496,-0.228 c 0.0144,0.065 0.0277,0.129 0.0422,0.194 -0.0133,-0.065 -0.0274,-0.129 -0.0422,-0.194 m 3.0144,-96.743 c -0.0203,0.062 -0.041,0.125 -0.0625,0.188 0.0215,-0.063 0.043,-0.126 0.0625,-0.188 m 2.2844,-11.977 c 0.1856,-0.397 0.5711,-0.646 0.9852,-0.696 0.2316,-0.029 0.4722,0.007 0.6925,0.112 0.62,0.302 0.8754,1.059 0.5829,1.678 -0.8813,1.874 -1.727,3.769 -2.5157,5.684 -0.3812,0.934 -0.7664,1.867 -1.1394,2.804 -0.3438,0.873 -0.6574,1.751 -0.9703,2.637 -0.5426,1.631 -1.095,3.26 -1.4996,4.931 -0.4247,1.769 -0.8129,3.54 -1.1836,5.319 -1.1153,5.333 -2.0297,10.709 -2.586,16.13 -0.2953,2.87 -0.6226,5.737 -0.8726,8.61 -0.2262,2.558 -0.3739,5.118 -0.5297,7.681 -0.0809,1.787 -0.1942,3.578 -0.2328,5.369 -0.0543,2.667 -0.1172,5.34 -0.0332,8.007 0.0882,2.801 0.1129,5.606 0.2773,8.403 0.1637,2.819 0.3531,5.637 0.559,8.453 0.1008,1.352 0.207,2.703 0.3133,4.053 0.1043,1.321 0.2937,2.637 0.4492,3.951 0.1527,1.27 0.3051,2.536 0.4832,3.802 0.184,1.319 0.4234,2.628 0.627,3.948 0.4156,2.688 0.7949,5.392 1.3406,8.056 0.4344,1.972 0.9328,3.93 1.3488,5.906 0.1199,0.526 0.2465,1.046 0.3688,1.571 0.0808,0.343 0.1082,0.642 -0.0489,0.975 -0.1437,0.291 -0.3976,0.522 -0.7043,0.632 -0.3164,0.114 -0.6738,0.098 -0.9734,-0.05 -0.2672,-0.129 -0.5656,-0.403 -0.6359,-0.702 -0.1801,-0.762 -0.3602,-1.524 -0.5211,-2.29 0.01,0.047 0.0211,0.096 0.032,0.143 -0.0137,-0.063 -0.0274,-0.125 -0.0414,-0.187 l -0.0293,-0.143 c 0.006,0.033 0.0129,0.067 0.0199,0.102 -0.0793,-0.362 -0.1609,-0.722 -0.2484,-1.083 -0.3024,-1.243 -0.5992,-2.492 -0.8688,-3.744 -0.3054,-1.415 -0.5636,-2.835 -0.8008,-4.264 -0.2191,-1.332 -0.423,-2.668 -0.6285,-4.004 -0.2027,-1.306 -0.4519,-2.603 -0.6343,-3.909 -0.3829,-2.735 -0.7305,-5.48 -1.0125,-8.228 -0.1325,-1.311 -0.2125,-2.631 -0.3083,-3.944 -0.1019,-1.366 -0.2105,-2.734 -0.2984,-4.101 -0.1726,-2.73 -0.3574,-5.46 -0.4375,-8.193 -0.0418,-1.398 -0.0641,-2.799 -0.1078,-4.197 -0.0453,-1.412 -0.0656,-2.822 -0.0629,-4.234 0.005,-2.75 0.1063,-5.5 0.234,-8.245 0.1199,-2.66 0.2687,-5.321 0.4746,-7.975 0.2195,-2.847 0.5016,-5.685 0.8156,-8.521 0.1516,-1.349 0.2797,-2.697 0.4371,-4.04 0.145,-1.238 0.3153,-2.473 0.4918,-3.705 0.4141,-2.848 0.9125,-5.676 1.4621,-8.501 0.2614,-1.35 0.5598,-2.692 0.8473,-4.038 0.1402,-0.663 0.2941,-1.328 0.4406,-1.993 0.1375,-0.618 0.2743,-1.241 0.4465,-1.85 0.3668,-1.314 0.7785,-2.611 1.2098,-3.912 0.2519,-0.764 0.5164,-1.527 0.7836,-2.288 0.2308,-0.657 0.4957,-1.3 0.7535,-1.948 1.0629,-2.693 2.2168,-5.353 3.4492,-7.972"
           style="fill:#d5cfa3;fill-opacity:0.992157;fill-rule:nonzero;stroke:none;stroke-width:0.1"
           id="path51210" />
        <path
           d="m -528.35518,377.67207 c -0.0875,-0.281 -0.0387,-0.529 0.0695,-0.791 0.9356,-2.217 1.8887,-4.43 2.8871,-6.62 0.4621,-1.009 0.9621,-1.999 1.4258,-3.008 0.4621,-1.002 0.9117,-2.009 1.3922,-3.001 0.2219,-0.457 0.4574,-0.908 0.6711,-1.37 0.2215,-0.483 0.4355,-0.971 0.6555,-1.455 0.4617,-1.016 0.9656,-2.012 1.4152,-3.034 0.4449,-1.013 0.9094,-2.014 1.393,-3.007 0.464,-0.949 0.8734,-1.921 1.3136,-2.88 0.8829,-1.929 1.602,-3.928 2.5219,-5.838 0.4723,-0.976 0.9719,-1.934 1.4379,-2.913 0.2207,-0.466 0.418,-0.947 0.6297,-1.421 0.2098,-0.474 0.4375,-0.945 0.6668,-1.411 0.2449,-0.503 0.4887,-1.003 0.7074,-1.521 0.2125,-0.499 0.4215,-0.997 0.6465,-1.492 0.2266,-0.497 0.4621,-0.986 0.6652,-1.493 0.2207,-0.555 0.4532,-1.103 0.7004,-1.645 0.2356,-0.515 0.9188,-0.688 1.3977,-0.437 0.5215,0.274 0.6703,0.885 0.4359,1.397 -0.2359,0.52 -0.4594,1.042 -0.6722,1.572 -0.1907,0.472 -0.3997,0.931 -0.6129,1.393 -0.4375,0.939 -0.8121,1.904 -1.2641,2.835 -0.459,0.946 -0.8887,1.9 -1.3199,2.858 -0.4297,0.954 -0.9285,1.877 -1.3824,2.818 -0.475,0.985 -0.9192,1.978 -1.3293,2.989 -0.3993,0.986 -0.8,1.976 -1.2457,2.939 -0.4504,0.979 -0.8629,1.976 -1.334,2.945 -0.4805,0.987 -0.9496,1.977 -1.3946,2.98 -0.4289,0.967 -0.8972,1.912 -1.3363,2.874 -0.4598,1.016 -0.9199,2.03 -1.4117,3.031 -0.4707,0.954 -0.9191,1.918 -1.3516,2.889 -0.4605,1.028 -0.9605,2.037 -1.4449,3.056 -0.4848,1.024 -0.9219,2.073 -1.3789,3.109 -0.5613,1.271 -1.1109,2.543 -1.6508,3.822 -0.2179,0.52 -0.9281,0.682 -1.3969,0.436 -0.2417,-0.126 -0.4253,-0.348 -0.5062,-0.606"
           style="fill:#ddab62;fill-opacity:1;fill-rule:nonzero;stroke:none;stroke-width:0.1"
           id="path51212" />
        <path
           d="m -530.85398,377.00907 c 0.8597,-1.641 2.9492,-2.293 4.591,-1.433 1.641,0.86 2.2933,2.949 1.4336,4.591 -0.8602,1.641 -2.9492,2.294 -4.591,1.433 -1.6411,-0.86 -2.2938,-2.949 -1.4336,-4.591"
           style="fill:#e8e8cf;fill-opacity:1;fill-rule:nonzero;stroke:none;stroke-width:0.1"
           id="path51214" />
        <path
           d="m -460.06568,377.08007 c 0.0878,-0.281 0.0382,-0.529 -0.0696,-0.79 -0.9355,-2.218 -1.8887,-4.43 -2.8871,-6.62 -0.4617,-1.01 -0.9617,-2 -1.4258,-3.009 -0.4625,-1.002 -0.9117,-2.008 -1.3922,-3 -0.2214,-0.458 -0.4578,-0.908 -0.6707,-1.37 -0.2222,-0.483 -0.4359,-0.972 -0.6562,-1.456 -0.4617,-1.015 -0.9656,-2.011 -1.4149,-3.033 -0.4445,-1.013 -0.9089,-2.014 -1.3933,-3.007 -0.4633,-0.95 -0.8731,-1.921 -1.3137,-2.88 -0.8824,-1.929 -1.6019,-3.929 -2.5219,-5.839 -0.4714,-0.975 -0.9714,-1.934 -1.4375,-2.913 -0.2211,-0.466 -0.4183,-0.947 -0.6293,-1.42 -0.2097,-0.475 -0.4378,-0.945 -0.6671,-1.412 -0.245,-0.502 -0.4887,-1.003 -0.7079,-1.52 -0.2121,-0.499 -0.4211,-0.997 -0.6461,-1.492 -0.2265,-0.497 -0.4625,-0.986 -0.6648,-1.493 -0.2207,-0.555 -0.4531,-1.103 -0.7008,-1.646 -0.2355,-0.514 -0.9183,-0.687 -1.3976,-0.436 -0.5211,0.273 -0.6703,0.885 -0.4364,1.397 0.236,0.52 0.4602,1.041 0.6723,1.572 0.1906,0.472 0.3996,0.93 0.6133,1.393 0.4371,0.939 0.8117,1.903 1.2637,2.835 0.4589,0.946 0.8886,1.9 1.3203,2.858 0.4297,0.954 0.9289,1.877 1.3824,2.817 0.4746,0.986 0.9195,1.978 1.3293,2.99 0.3988,0.985 0.8,1.975 1.2453,2.939 0.4508,0.979 0.8633,1.975 1.334,2.944 0.4805,0.987 0.9504,1.978 1.3953,2.981 0.4285,0.967 0.8973,1.911 1.3355,2.873 0.4602,1.017 0.9207,2.03 1.4118,3.032 0.4707,0.953 0.9191,1.918 1.3515,2.888 0.461,1.029 0.961,2.038 1.4453,3.056 0.4844,1.025 0.9219,2.073 1.3786,3.109 0.5621,1.271 1.1109,2.543 1.6511,3.823 0.2176,0.519 0.9285,0.682 1.3973,0.436 0.2418,-0.126 0.4254,-0.348 0.5059,-0.607"
           style="fill:#ddab62;fill-opacity:1;fill-rule:nonzero;stroke:none;stroke-width:0.1"
           id="path51216" />
        <path
           d="m -457.56698,376.41807 c -0.86,-1.641 -2.9495,-2.294 -4.5905,-1.433 -1.6415,0.859 -2.2942,2.949 -1.4336,4.59 0.8597,1.641 2.9492,2.294 4.5901,1.434 1.642,-0.86 2.294,-2.95 1.434,-4.591"
           style="fill:#e8e8cf;fill-opacity:1;fill-rule:nonzero;stroke:none;stroke-width:0.1"
           id="path51218" />
        <path
           d="m -518.15358,290.42307 c -0.2293,-0.055 -0.4778,-0.123 -0.7598,-0.208 -0.3047,-0.091 -0.6039,-0.212 -0.8934,-0.329 l -0.0574,-0.023 -0.1672,-0.065 -0.1773,-0.07 0.0648,0.019 c -0.2355,-0.086 -0.4679,-0.181 -0.6992,-0.276 l -0.3098,-0.126 h -3e-4 l -0.0293,-0.012 c -0.0801,-0.031 -0.1407,-0.054 -0.1997,-0.078 -0.2453,-0.095 -0.4921,-0.183 -0.7394,-0.271 -0.2668,-0.096 -0.534,-0.19 -0.7973,-0.294 l -0.0445,-0.017 -0.0457,-0.019 c -0.0383,-0.006 -0.0781,-0.014 -0.1164,-0.023 -0.2445,-0.06 -0.4805,-0.179 -0.7082,-0.295 -0.0817,-0.041 -0.1613,-0.081 -0.241,-0.119 -0.0457,-0.022 -0.0922,-0.043 -0.1387,-0.063 -0.0981,-0.044 -0.1957,-0.089 -0.2895,-0.142 -0.055,-0.031 -0.1074,-0.068 -0.1593,-0.104 h -0.002 c -0.0773,-0.02 -0.139,-0.046 -0.1898,-0.081 l -0.2242,-0.152 c -0.0489,-0.028 -0.093,-0.061 -0.1352,-0.095 -0.118,-0.089 -0.2094,-0.169 -0.2871,-0.252 -0.1688,-0.18 -0.2852,-0.381 -0.3664,-0.632 -0.034,-0.103 -0.0477,-0.211 -0.0602,-0.316 -0.0289,-0.232 0.052,-0.448 0.1309,-0.632 0.0863,-0.2 0.2347,-0.392 0.3656,-0.563 0.0879,-0.109 0.1785,-0.182 0.2867,-0.231 0.1649,-0.293 0.3293,-0.588 0.4946,-0.883 l 0.3793,-0.677 c 0.1988,-0.352 0.398,-0.704 0.605,-1.052 0.2305,-0.386 0.4633,-0.729 0.711,-1.048 0.4492,-0.579 0.9238,-1.155 1.3422,-1.663 0.1554,-0.188 0.3082,-0.378 0.4605,-0.569 0.3363,-0.419 0.684,-0.852 1.0535,-1.253 0.484,-0.524 0.9449,-0.969 1.409,-1.362 l 0.434,-0.37 c 0.3484,-0.298 0.7094,-0.606 1.0711,-0.898 l 0.248,-0.2 -0.009,0.008 0.0387,-0.032 c 0.2887,-0.234 0.5871,-0.475 0.8996,-0.683 0.3856,-0.255 0.7067,-0.466 1.0512,-0.671 0.7,-0.418 1.4207,-0.786 2.0961,-1.121 l 0.0945,-0.047 c 0.3594,-0.179 0.7305,-0.364 1.1059,-0.523 l 0.2375,-0.102 c 0.2859,-0.124 0.5824,-0.252 0.8832,-0.338 0.6754,-0.191 1.475,-0.416 2.2863,-0.621 0.643,-0.163 1.3148,-0.244 1.9641,-0.323 0.2047,-0.024 0.409,-0.05 0.6117,-0.077 0.4012,-0.054 0.7961,-0.086 1.1742,-0.094 0.4094,-0.009 0.8227,0.006 1.2633,0.046 0.841,0.077 1.6851,0.206 2.509,0.382 0.2679,0.057 0.5351,0.116 0.8011,0.181 0.5758,0.139 1.0485,0.282 1.4875,0.446 0.5957,0.223 1.1934,0.471 1.7711,0.709 l 0.0989,0.041 0.0656,0.027 c 0.5215,0.216 1.0613,0.439 1.5582,0.725 0.243,0.14 0.4805,0.292 0.718,0.442 0.1894,0.121 0.3789,0.242 0.5718,0.358 0.2207,0.131 0.4442,0.26 0.6688,0.387 0.1844,0.104 0.3621,0.215 0.541,0.326 l 0.1918,0.121 c 0.1801,0.112 0.3098,0.288 0.3559,0.483 0.1644,0.219 0.2191,0.486 0.15,0.733 l -0.0204,0.074 c -0.1039,0.37 -0.2117,0.753 -0.3332,1.125 -0.1168,0.352 -0.2789,0.693 -0.4351,1.021 l -0.0578,0.121 c -0.2942,0.622 -0.6332,1.271 -1.0981,2.105 -0.4676,0.838 -1.0242,1.621 -1.5078,2.276 -0.491,0.665 -1.0531,1.311 -1.6707,1.92 -0.282,0.276 -0.5734,0.539 -0.8664,0.783 -0.2734,0.227 -0.5629,0.444 -0.8426,0.652 l -0.2664,0.201 c -0.1215,0.091 -0.2414,0.184 -0.3625,0.277 -0.2097,0.162 -0.4195,0.323 -0.6336,0.481 -0.298,0.218 -0.614,0.422 -0.9195,0.62 l -0.0883,0.056 c -0.4902,0.316 -1.0226,0.573 -1.5379,0.821 -0.1836,0.087 -0.3672,0.175 -0.5488,0.267 -0.466,0.235 -0.8922,0.435 -1.302,0.61 -0.2718,0.115 -0.5476,0.218 -0.8234,0.322 -0.125,0.047 -0.2508,0.094 -0.375,0.141 -0.7914,0.305 -1.5969,0.567 -2.3934,0.778 -0.4339,0.115 -0.8253,0.218 -1.2273,0.293 -0.423,0.079 -0.8879,0.139 -1.4207,0.186 -0.8383,0.073 -1.6793,0.114 -2.5012,0.125 -0.4308,0.006 -0.8273,-0.008 -1.2113,-0.043 -0.1387,-0.011 -0.2773,-0.022 -0.4164,-0.033 -0.3188,-0.025 -0.6477,-0.051 -0.9707,-0.091 l -0.2238,-0.029 c -0.1137,-0.016 -0.2278,-0.031 -0.3418,-0.045 h 0.055 c -0.725,-0.082 -1.325,-0.183 -1.8847,-0.311 -0.0594,-0.012 -0.1192,-0.027 -0.1785,-0.042"
           style="fill:#d5cfa3;fill-opacity:0.992157;fill-rule:nonzero;stroke:none;stroke-width:0.1"
           id="path51220" />
        <path
           d="m -467.22978,288.71607 c 0.2355,-0.002 0.493,-0.013 0.7871,-0.033 0.3172,-0.021 0.6359,-0.072 0.9441,-0.12 l 0.061,-0.01 0.1773,-0.026 0.1891,-0.028 -0.0672,0.003 c 0.2488,-0.032 0.4965,-0.072 0.743,-0.112 l 0.33,-0.053 h 4e-4 l 0.0313,-0.005 c 0.0851,-0.013 0.1492,-0.022 0.2121,-0.033 0.2601,-0.037 0.5211,-0.068 0.7812,-0.097 0.2813,-0.033 0.5629,-0.067 0.8426,-0.109 l 0.0477,-0.006 0.048,-0.008 c 0.0391,0.003 0.0797,0.004 0.1188,0.003 0.2519,-0.003 0.5082,-0.067 0.7566,-0.128 0.0887,-0.023 0.1754,-0.044 0.2613,-0.063 0.0493,-0.01 0.0993,-0.02 0.1497,-0.03 0.1054,-0.021 0.2105,-0.043 0.3132,-0.073 0.061,-0.019 0.1203,-0.042 0.1789,-0.067 h 0.002 c 0.0801,-10e-4 0.1461,-0.012 0.2031,-0.035 l 0.2524,-0.098 c 0.0543,-0.017 0.1043,-0.039 0.1531,-0.063 0.135,-0.06 0.242,-0.118 0.336,-0.182 0.205,-0.136 0.363,-0.306 0.5,-0.533 0.055,-0.092 0.092,-0.195 0.129,-0.295 0.08,-0.219 0.049,-0.448 0.014,-0.645 -0.04,-0.213 -0.141,-0.434 -0.231,-0.63 -0.061,-0.126 -0.134,-0.218 -0.227,-0.29 -0.096,-0.322 -0.19,-0.647 -0.285,-0.971 l -0.218,-0.744 c -0.1145,-0.389 -0.2301,-0.775 -0.3543,-1.161 -0.1383,-0.429 -0.2879,-0.815 -0.4579,-1.182 -0.3082,-0.663 -0.6418,-1.332 -0.9363,-1.921 -0.1086,-0.217 -0.2152,-0.437 -0.3211,-0.657 -0.234,-0.483 -0.4758,-0.983 -0.7461,-1.457 -0.3547,-0.619 -0.7043,-1.157 -1.0683,-1.643 l -0.3399,-0.458 c -0.273,-0.368 -0.5558,-0.749 -0.8433,-1.115 l -0.1965,-0.25 0.006,0.01 -0.03,-0.04 c -0.2293,-0.293 -0.4661,-0.595 -0.7247,-0.867 -0.3179,-0.334 -0.5843,-0.613 -0.8734,-0.889 -0.5887,-0.564 -1.209,-1.085 -1.7918,-1.562 l -0.082,-0.068 c -0.3102,-0.255 -0.6305,-0.518 -0.961,-0.757 l -0.2082,-0.152 c -0.2515,-0.185 -0.5109,-0.376 -0.7855,-0.527 -0.6149,-0.338 -1.3441,-0.736 -2.0891,-1.117 -0.5894,-0.303 -1.2265,-0.533 -1.8422,-0.755 -0.1933,-0.071 -0.3867,-0.14 -0.5781,-0.212 -0.3789,-0.143 -0.757,-0.262 -1.1238,-0.355 -0.3973,-0.1 -0.8027,-0.178 -1.241,-0.238 -0.8371,-0.113 -1.6887,-0.177 -2.5313,-0.189 -0.2738,-0.005 -0.5476,-0.007 -0.8211,-0.004 -0.5929,0.007 -1.0851,0.04 -1.55,0.102 -0.6308,0.084 -1.2679,0.192 -1.8847,0.294 l -0.1051,0.019 -0.0699,0.011 c -0.5575,0.093 -1.1336,0.19 -1.6813,0.358 -0.2687,0.082 -0.5336,0.177 -0.7988,0.27 -0.2113,0.075 -0.4235,0.151 -0.6371,0.22 -0.2453,0.079 -0.4914,0.154 -0.7383,0.229 -0.2035,0.059 -0.4016,0.127 -0.6008,0.197 l -0.2137,0.073 c -0.2007,0.069 -0.3668,0.211 -0.455,0.392 -0.209,0.175 -0.3231,0.423 -0.3106,0.68 l 0.003,0.076 c 0.0188,0.384 0.0383,0.782 0.0735,1.171 0.034,0.37 0.1164,0.739 0.1949,1.094 l 0.0293,0.131 c 0.1477,0.672 0.3324,1.38 0.5984,2.296 0.2688,0.922 0.636,1.809 0.9602,2.557 0.3301,0.757 0.7332,1.513 1.1992,2.245 0.2121,0.332 0.4375,0.654 0.6688,0.957 0.2156,0.282 0.4488,0.558 0.675,0.824 l 0.2148,0.255 c 0.0977,0.117 0.1938,0.234 0.291,0.352 0.168,0.204 0.3363,0.409 0.5098,0.611 0.2418,0.279 0.5039,0.548 0.7578,0.809 l 0.0727,0.075 c 0.4078,0.417 0.8691,0.787 1.3156,1.144 0.159,0.127 0.3179,0.254 0.475,0.384 0.4012,0.333 0.7719,0.623 1.1324,0.886 0.2387,0.172 0.4848,0.335 0.7301,0.498 0.1121,0.073 0.2234,0.147 0.334,0.221 0.7035,0.475 1.4293,0.91 2.1578,1.294 0.3976,0.21 0.7562,0.397 1.1308,0.561 0.3946,0.172 0.834,0.335 1.3434,0.499 0.8004,0.259 1.6109,0.488 2.4098,0.682 0.4183,0.103 0.8074,0.177 1.1898,0.23 0.1383,0.019 0.2758,0.04 0.4137,0.06 0.316,0.047 0.6426,0.096 0.9664,0.129 l 0.2246,0.022 c 0.1141,0.011 0.2281,0.021 0.3426,0.033 l -0.0532,-0.013 c 0.725,0.082 1.3325,0.119 1.9063,0.12 0.0609,0 0.1219,-10e-4 0.1836,-10e-4"
           style="fill:#d5cfa3;fill-opacity:0.992157;fill-rule:nonzero;stroke:none;stroke-width:0.1"
           id="path51222" />
        <path
           d="m -537.03138,353.31907 c -0.4715,0 -0.9875,-0.014 -1.5761,-0.045 -0.6356,-0.036 -1.2743,-0.129 -1.8918,-0.218 l -0.1227,-0.019 -0.3555,-0.048 -0.3789,-0.051 0.1356,0.004 c -0.4992,-0.056 -0.9953,-0.13 -1.4907,-0.205 l -0.6609,-0.099 h -10e-4 l -0.0629,-0.009 c -0.1699,-0.023 -0.2984,-0.039 -0.4242,-0.058 -0.5222,-0.069 -1.0441,-0.124 -1.566,-0.178 -0.564,-0.059 -1.1285,-0.117 -1.6894,-0.194 l -0.095,-0.014 -0.0968,-0.013 c -0.0774,0.006 -0.159,0.008 -0.2371,0.008 -0.504,0 -1.0188,-0.121 -1.5176,-0.238 -0.1778,-0.041 -0.352,-0.082 -0.5242,-0.117 -0.0993,-0.021 -0.19926,-0.04 -0.30004,-0.059 -0.21094,-0.039 -0.42227,-0.079 -0.62891,-0.138 -0.12227,-0.035 -0.24062,-0.081 -0.3582,-0.127 h -0.005 c -0.15938,0 -0.29141,-0.023 -0.40703,-0.067 l -0.50742,-0.19 c -0.10899,-0.032 -0.21055,-0.074 -0.30821,-0.122 -0.27187,-0.117 -0.48711,-0.23 -0.67695,-0.354 -0.41328,-0.27 -0.73438,-0.605 -1.01172,-1.055 -0.11406,-0.184 -0.19101,-0.388 -0.26641,-0.586 -0.16484,-0.438 -0.10937,-0.896 -0.0438,-1.292 0.0742,-0.427 0.27149,-0.872 0.44571,-1.266 0.11953,-0.254 0.26172,-0.439 0.44765,-0.585 0.18243,-0.648 0.36407,-1.299 0.54571,-1.95 l 0.41797,-1.495 c 0.21953,-0.781 0.4414,-1.557 0.67968,-2.332 0.26602,-0.86 0.55664,-1.637 0.88711,-2.375 0.60039,-1.335 1.25119,-2.681 1.82499,-3.868 0.2133,-0.438 0.4199,-0.88 0.627,-1.323 0.4562,-0.973 0.9273,-1.979 1.4578,-2.932 0.6933,-1.249 1.3789,-2.333 2.0957,-3.316 l 0.6687,-0.923 c 0.5375,-0.744 1.0938,-1.513 1.6598,-2.252 l 0.3883,-0.506 -0.0133,0.02 0.059,-0.081 c 0.4512,-0.591 0.9183,-1.201 1.4281,-1.752 0.6285,-0.677 1.1539,-1.239 1.7262,-1.801 1.1637,-1.144 2.3922,-2.2 3.5469,-3.17 l 0.1621,-0.136 c 0.6136,-0.518 1.248,-1.054 1.9039,-1.539 l 0.4125,-0.309 c 0.4988,-0.377 1.0136,-0.767 1.5586,-1.075 1.2222,-0.693 2.6718,-1.505 4.1519,-2.287 1.1735,-0.621 2.4414,-1.097 3.6676,-1.558 0.3855,-0.143 0.7703,-0.288 1.1516,-0.436 0.755,-0.295 1.5086,-0.544 2.2398,-0.738 0.7922,-0.212 1.6027,-0.378 2.477,-0.509 1.673,-0.246 3.3757,-0.394 5.0609,-0.44 0.5473,-0.017 1.0949,-0.027 1.643,-0.027 1.1855,0 2.1711,0.052 3.1031,0.165 1.2633,0.153 2.5418,0.351 3.7781,0.543 l 0.2113,0.033 0.1403,0.021 c 1.1168,0.174 2.2718,0.352 3.3726,0.674 0.5395,0.158 1.0723,0.34 1.6047,0.521 0.4254,0.145 0.8512,0.291 1.2809,0.425 0.4918,0.152 0.9863,0.297 1.4832,0.438 0.4082,0.114 0.8058,0.247 1.2058,0.38 l 0.4301,0.142 c 0.4035,0.132 0.7391,0.414 0.9203,0.773 0.4231,0.346 0.6559,0.84 0.6379,1.354 l -0.005,0.151 c -0.0269,0.769 -0.0558,1.565 -0.1171,2.346 -0.0598,0.741 -0.2141,1.479 -0.3633,2.192 l -0.0551,0.263 c -0.2785,1.348 -0.6309,2.769 -1.141,4.609 -0.5141,1.852 -1.2278,3.637 -1.8574,5.139 -0.6411,1.525 -1.4293,3.047 -2.3434,4.523 -0.4168,0.67 -0.8594,1.319 -1.3145,1.931 -0.4246,0.57 -0.8847,1.128 -1.33,1.666 l -0.4239,0.515 c -0.1929,0.236 -0.3824,0.474 -0.5738,0.712 -0.3308,0.413 -0.6629,0.826 -1.0047,1.233 -0.4765,0.567 -0.9945,1.112 -1.4961,1.639 l -0.1437,0.152 c -0.8051,0.845 -1.7196,1.596 -2.6035,2.321 -0.3153,0.259 -0.6305,0.517 -0.9414,0.78 -0.7954,0.677 -1.5293,1.266 -2.2434,1.8 -0.4738,0.353 -0.9621,0.684 -1.4496,1.015 -0.2215,0.15 -0.4426,0.301 -0.6621,0.452 -1.3957,0.967 -2.8375,1.856 -4.286,2.643 -0.7894,0.429 -1.5035,0.812 -2.2484,1.149 -0.7855,0.353 -1.6613,0.691 -2.6758,1.033 -1.5945,0.537 -3.2109,1.016 -4.8039,1.425 -0.8347,0.215 -1.6121,0.374 -2.3758,0.488 -0.2754,0.043 -0.5504,0.087 -0.8257,0.131 -0.6309,0.103 -1.2832,0.209 -1.9301,0.283 l -0.4492,0.048 c -0.2282,0.024 -0.4567,0.048 -0.6852,0.074 l 0.107,-0.025 c -1.4492,0.182 -2.6632,0.27 -3.8117,0.286 -0.1219,0.002 -0.2445,0.002 -0.3672,0.002"
           style="fill:#e8e8cf;fill-opacity:1;fill-rule:nonzero;stroke:none;stroke-width:0.1"
           id="path51224" />
        <path
           d="m -450.56598,353.31907 c 0.472,0 0.988,-0.014 1.577,-0.045 0.636,-0.036 1.274,-0.129 1.891,-0.218 l 0.123,-0.019 0.356,-0.048 0.378,-0.051 -0.135,0.004 c 0.499,-0.056 0.996,-0.13 1.49,-0.205 l 0.662,-0.099 h 10e-4 l 0.062,-0.009 c 0.171,-0.023 0.299,-0.039 0.425,-0.058 0.522,-0.069 1.044,-0.124 1.566,-0.178 0.564,-0.059 1.128,-0.117 1.69,-0.194 l 0.094,-0.014 0.097,-0.013 c 0.078,0.006 0.159,0.008 0.237,0.008 0.504,0 1.019,-0.121 1.518,-0.238 0.178,-0.041 0.352,-0.082 0.524,-0.117 0.099,-0.021 0.199,-0.04 0.3,-0.059 0.211,-0.039 0.422,-0.079 0.629,-0.138 0.123,-0.035 0.241,-0.081 0.358,-0.127 h 0.005 c 0.16,0 0.292,-0.023 0.407,-0.067 l 0.508,-0.19 c 0.108,-0.032 0.21,-0.074 0.308,-0.122 0.272,-0.117 0.487,-0.23 0.677,-0.354 0.413,-0.27 0.735,-0.605 1.012,-1.055 0.114,-0.184 0.191,-0.388 0.266,-0.586 0.165,-0.438 0.109,-0.896 0.044,-1.292 -0.074,-0.427 -0.272,-0.872 -0.446,-1.266 -0.119,-0.254 -0.262,-0.439 -0.448,-0.585 -0.182,-0.648 -0.363,-1.299 -0.545,-1.95 l -0.418,-1.495 c -0.22,-0.781 -0.441,-1.557 -0.68,-2.332 -0.266,-0.86 -0.556,-1.637 -0.887,-2.375 -0.6,-1.335 -1.251,-2.681 -1.825,-3.868 -0.213,-0.438 -0.42,-0.88 -0.627,-1.323 -0.456,-0.973 -0.927,-1.979 -1.458,-2.932 -0.693,-1.249 -1.378,-2.333 -2.095,-3.316 l -0.669,-0.923 c -0.538,-0.744 -1.094,-1.513 -1.66,-2.252 l -0.388,-0.506 0.013,0.02 -0.059,-0.081 c -0.451,-0.591 -0.918,-1.201 -1.428,-1.752 -0.629,-0.677 -1.154,-1.239 -1.726,-1.801 -1.164,-1.144 -2.392,-2.2 -3.547,-3.17 l -0.162,-0.136 c -0.614,-0.518 -1.249,-1.054 -1.904,-1.539 l -0.413,-0.309 c -0.498,-0.377 -1.013,-0.767 -1.558,-1.075 -1.223,-0.693 -2.672,-1.505 -4.1522,-2.287 -1.1731,-0.621 -2.4415,-1.097 -3.6672,-1.558 -0.386,-0.143 -0.7707,-0.288 -1.1524,-0.436 -0.7547,-0.295 -1.5078,-0.544 -2.2398,-0.738 -0.7914,-0.212 -1.602,-0.378 -2.4766,-0.509 -1.673,-0.246 -3.3754,-0.394 -5.0605,-0.44 -0.5473,-0.017 -1.0953,-0.027 -1.643,-0.027 -1.1855,0 -2.1715,0.052 -3.1031,0.165 -1.2641,0.153 -2.5418,0.351 -3.7785,0.543 l -0.2114,0.033 -0.1398,0.021 c -1.1168,0.174 -2.2723,0.352 -3.3727,0.674 -0.5394,0.158 -1.0722,0.34 -1.605,0.521 -0.4254,0.145 -0.8512,0.291 -1.2809,0.425 -0.4922,0.152 -0.9863,0.297 -1.4832,0.438 -0.4078,0.114 -0.8063,0.247 -1.2059,0.38 l -0.43,0.142 c -0.4032,0.132 -0.7387,0.414 -0.9204,0.773 -0.4226,0.346 -0.6558,0.84 -0.6382,1.354 l 0.005,0.151 c 0.0274,0.769 0.0563,1.565 0.1172,2.346 0.0598,0.741 0.2145,1.479 0.3633,2.192 l 0.0547,0.263 c 0.2793,1.348 0.6312,2.769 1.1418,4.609 0.514,1.852 1.2269,3.637 1.8566,5.139 0.6418,1.525 1.4297,3.047 2.3438,4.523 0.4164,0.67 0.859,1.319 1.3144,1.931 0.425,0.57 0.8848,1.128 1.3301,1.666 l 0.4238,0.515 c 0.1926,0.236 0.3825,0.474 0.5735,0.712 0.3312,0.413 0.6629,0.826 1.0047,1.233 0.4773,0.567 0.9953,1.112 1.4964,1.639 l 0.1438,0.152 c 0.8051,0.845 1.7191,1.596 2.6035,2.321 0.3152,0.259 0.6305,0.517 0.941,0.78 0.7953,0.677 1.5297,1.266 2.2442,1.8 0.4734,0.353 0.9613,0.684 1.4496,1.015 0.2211,0.15 0.4422,0.301 0.6621,0.452 1.3957,0.967 2.8375,1.856 4.2855,2.643 0.7895,0.429 1.5035,0.812 2.2485,1.149 0.7859,0.353 1.6609,0.691 2.6757,1.033 1.595,0.537 3.2114,1.016 4.804,1.425 0.8347,0.215 1.6122,0.374 2.3752,0.488 0.276,0.043 0.551,0.087 0.826,0.131 0.631,0.103 1.284,0.209 1.931,0.283 l 0.448,0.048 c 0.229,0.024 0.457,0.048 0.686,0.074 l -0.107,-0.025 c 1.449,0.182 2.663,0.27 3.811,0.286 0.122,0.002 0.245,0.002 0.367,0.002"
           style="fill:#e8e8cf;fill-opacity:1;fill-rule:nonzero;stroke:none;stroke-width:0.1"
           id="path51226" />
        <path
           d="m -480.63018,371.36707 c -0.2359,0.41 -0.5066,0.848 -0.8277,1.343 -0.3477,0.533 -0.7481,1.04 -1.134,1.53 l -0.077,0.097 -0.2195,0.284 -0.234,0.302 0.0719,-0.115 c -0.2981,0.405 -0.6106,0.797 -0.9227,1.189 l -0.416,0.523 -4e-4,0.001 -0.0394,0.049 c -0.1047,0.137 -0.1832,0.24 -0.2629,0.339 -0.3203,0.418 -0.6285,0.843 -0.936,1.268 -0.3332,0.459 -0.6656,0.918 -1.0128,1.366 l -0.059,0.075 -0.0598,0.077 c -0.0332,0.071 -0.0719,0.143 -0.1109,0.21 -0.252,0.437 -0.6145,0.823 -0.9649,1.196 -0.1246,0.133 -0.2476,0.263 -0.3633,0.395 -0.0683,0.076 -0.1347,0.153 -0.2007,0.231 -0.1391,0.163 -0.2797,0.326 -0.434,0.476 -0.0918,0.088 -0.191,0.168 -0.2899,0.247 l -0.002,0.004 c -0.0793,0.138 -0.1649,0.241 -0.2613,0.319 l -0.4176,0.344 c -0.0824,0.079 -0.1692,0.146 -0.2602,0.206 -0.2371,0.178 -0.4422,0.308 -0.6449,0.41 -0.4398,0.224 -0.891,0.334 -1.4199,0.349 -0.2153,0.007 -0.4313,-0.028 -0.6403,-0.062 -0.4617,-0.076 -0.8308,-0.353 -1.1406,-0.607 -0.3328,-0.278 -0.6199,-0.672 -0.8734,-1.019 -0.1606,-0.231 -0.2504,-0.447 -0.284,-0.681 -0.4699,-0.481 -0.9434,-0.964 -1.416,-1.446 l -1.086,-1.11 c -0.5671,-0.58 -1.1281,-1.16 -1.6804,-1.754 -0.6121,-0.66 -1.1399,-1.299 -1.6145,-1.955 -0.8562,-1.187 -1.6965,-2.423 -2.4375,-3.513 -0.2734,-0.404 -0.5531,-0.804 -0.8332,-1.204 -0.6148,-0.882 -1.2515,-1.793 -1.8113,-2.728 -0.7352,-1.225 -1.332,-2.361 -1.8246,-3.473 l -0.4656,-1.041 c -0.3758,-0.837 -0.7641,-1.703 -1.1215,-2.562 l -0.2442,-0.589 0.0102,0.021 -0.0399,-0.091 c -0.2867,-0.687 -0.5816,-1.396 -0.8043,-2.114 -0.273,-0.882 -0.4964,-1.618 -0.6972,-2.394 -0.4098,-1.58 -0.7106,-3.171 -0.9738,-4.656 l -0.0372,-0.209 c -0.1418,-0.79 -0.2882,-1.608 -0.3816,-2.418 l -0.0613,-0.512 c -0.0774,-0.62 -0.1571,-1.261 -0.1528,-1.887 0.0118,-1.405 0.0321,-3.067 0.0934,-4.739 0.0484,-1.327 0.2707,-2.663 0.4844,-3.955 0.0676,-0.406 0.1347,-0.812 0.1972,-1.216 0.1211,-0.802 0.2829,-1.578 0.4805,-2.309 0.2125,-0.791 0.4731,-1.577 0.7973,-2.399 0.6222,-1.573 1.3445,-3.121 2.1465,-4.604 0.2597,-0.483 0.5242,-0.963 0.7976,-1.437 0.5926,-1.027 1.1309,-1.855 1.6942,-2.605 0.764,-1.018 1.5742,-2.027 2.3574,-3.002 l 0.1347,-0.167 0.0891,-0.11 c 0.7078,-0.881 1.4399,-1.792 2.2684,-2.585 0.4062,-0.388 0.8304,-0.758 1.2535,-1.13 0.3383,-0.295 0.6773,-0.591 1.0074,-0.897 0.3777,-0.35 0.7508,-0.706 1.1211,-1.065 0.3031,-0.297 0.6168,-0.576 0.9316,-0.855 l 0.3383,-0.302 c 0.3164,-0.283 0.727,-0.433 1.1289,-0.41 0.5114,-0.195 1.0559,-0.149 1.4922,0.123 l 0.1285,0.08 c 0.6524,0.408 1.3274,0.831 1.9731,1.274 0.6125,0.422 1.1742,0.925 1.7176,1.41 l 0.2,0.179 c 1.0281,0.916 2.0832,1.93 3.4222,3.292 1.3473,1.37 2.5367,2.88 3.5235,4.176 1,1.318 1.9242,2.761 2.7461,4.29 0.3718,0.696 0.7136,1.404 1.016,2.104 0.282,0.653 0.5347,1.33 0.7785,1.985 l 0.2347,0.624 c 0.1079,0.285 0.2188,0.568 0.3297,0.852 0.1922,0.494 0.3848,0.988 0.5664,1.487 0.252,0.696 0.4653,1.417 0.6719,2.115 l 0.0594,0.201 c 0.3301,1.119 0.5234,2.286 0.7094,3.415 0.0664,0.402 0.1328,0.804 0.205,1.204 0.1891,1.028 0.3329,1.958 0.4383,2.843 0.0692,0.587 0.1121,1.175 0.1547,1.763 0.0195,0.267 0.0395,0.534 0.061,0.8 0.1402,1.692 0.1894,3.385 0.148,5.033 -0.023,0.898 -0.048,1.708 -0.1289,2.522 -0.0863,0.857 -0.2316,1.783 -0.4426,2.834 -0.3312,1.649 -0.7234,3.289 -1.1652,4.873 -0.2317,0.83 -0.4821,1.583 -0.7649,2.301 -0.1011,0.26 -0.1996,0.521 -0.2988,0.781 -0.2266,0.598 -0.4609,1.216 -0.7195,1.814 l -0.1832,0.412 c -0.0934,0.21 -0.1867,0.42 -0.2778,0.631 l 0.0313,-0.105 c -0.566,1.346 -1.0969,2.442 -1.6563,3.444 -0.0593,0.107 -0.1203,0.213 -0.1816,0.319"
           style="fill:#e8e8cf;fill-opacity:1;fill-rule:nonzero;stroke:none;stroke-width:0.1"
           id="path51228" />
        <path
           d="m -520.39698,339.54507 c -0.2836,0 -0.5941,-0.009 -0.948,-0.027 -0.3825,-0.021 -0.7668,-0.077 -1.1383,-0.131 l -0.0739,-0.011 -0.2136,-0.03 -0.2278,-0.03 0.0813,0.003 c -0.3,-0.035 -0.5988,-0.079 -0.8965,-0.124 l -0.3977,-0.06 h -7e-4 l -0.0379,-0.005 c -0.1024,-0.014 -0.1793,-0.024 -0.2551,-0.035 -0.3141,-0.042 -0.6281,-0.074 -0.9422,-0.107 -0.3391,-0.035 -0.6785,-0.071 -1.0164,-0.117 l -0.0566,-0.008 -0.0586,-0.008 c -0.0465,0.004 -0.0957,0.005 -0.1426,0.005 -0.3031,0 -0.6129,-0.073 -0.9133,-0.144 -0.1062,-0.024 -0.2113,-0.049 -0.3148,-0.07 -0.0602,-0.013 -0.12,-0.024 -0.1805,-0.035 -0.127,-0.023 -0.2539,-0.048 -0.3785,-0.083 -0.0738,-0.021 -0.1445,-0.049 -0.2153,-0.077 h -0.003 c -0.0961,0 -0.1758,-0.013 -0.2449,-0.04 l -0.3055,-0.114 c -0.0652,-0.02 -0.1261,-0.044 -0.1847,-0.074 -0.1641,-0.07 -0.2938,-0.138 -0.4078,-0.213 -0.2485,-0.162 -0.4418,-0.363 -0.6086,-0.635 -0.068,-0.11 -0.1153,-0.233 -0.1598,-0.352 -0.0996,-0.263 -0.066,-0.539 -0.0266,-0.777 0.0446,-0.257 0.1629,-0.525 0.268,-0.761 0.0719,-0.153 0.1574,-0.265 0.2695,-0.353 0.1094,-0.389 0.2188,-0.781 0.3282,-1.172 l 0.2515,-0.9 c 0.1317,-0.47 0.2653,-0.936 0.4086,-1.403 0.1602,-0.517 0.3352,-0.984 0.534,-1.429 0.3605,-0.803 0.7523,-1.612 1.098,-2.326 0.1278,-0.264 0.2524,-0.53 0.377,-0.796 0.2742,-0.585 0.5574,-1.191 0.8762,-1.764 0.4175,-0.751 0.8297,-1.403 1.2613,-1.995 l 0.4023,-0.555 c 0.3235,-0.448 0.6579,-0.91 0.9981,-1.355 l 0.2336,-0.304 -0.008,0.012 0.0355,-0.049 c 0.2715,-0.355 0.5528,-0.722 0.8594,-1.054 0.3777,-0.407 0.6937,-0.745 1.0379,-1.083 0.7004,-0.688 1.439,-1.323 2.134,-1.907 l 0.0972,-0.082 c 0.3696,-0.312 0.7508,-0.633 1.1453,-0.925 l 0.2481,-0.186 c 0.3004,-0.228 0.6098,-0.461 0.9375,-0.647 0.7355,-0.416 1.6074,-0.906 2.4976,-1.376 0.7063,-0.374 1.4688,-0.66 2.2067,-0.937 0.2316,-0.086 0.4633,-0.173 0.6926,-0.263 0.4543,-0.177 0.9074,-0.327 1.3476,-0.443 0.4762,-0.127 0.9637,-0.228 1.4899,-0.306 1.0062,-0.148 2.0304,-0.238 3.0441,-0.265 0.3297,-0.01 0.659,-0.017 0.9887,-0.017 0.7129,0 1.3062,0.032 1.8668,0.1 0.7601,0.093 1.5289,0.212 2.2722,0.326 l 0.1278,0.02 0.0844,0.013 c 0.6718,0.105 1.3664,0.212 2.0285,0.405 0.3246,0.096 0.6453,0.205 0.9656,0.314 0.2559,0.087 0.5121,0.175 0.7703,0.255 0.2961,0.092 0.5934,0.179 0.8922,0.264 0.2457,0.069 0.4848,0.148 0.7258,0.228 l 0.2586,0.086 c 0.2422,0.08 0.4445,0.249 0.5531,0.465 0.2547,0.208 0.3945,0.506 0.3844,0.815 l -0.003,0.09 c -0.0165,0.463 -0.0336,0.942 -0.0704,1.412 -0.0359,0.445 -0.1289,0.889 -0.2187,1.318 l -0.0328,0.159 c -0.1676,0.81 -0.3797,1.665 -0.6867,2.772 -0.309,1.114 -0.7383,2.188 -1.1172,3.091 -0.386,0.918 -0.8602,1.833 -1.4098,2.721 -0.2504,0.403 -0.5164,0.794 -0.7906,1.162 -0.2559,0.343 -0.5321,0.678 -0.8,1.002 l -0.2551,0.31 c -0.1156,0.142 -0.2301,0.285 -0.3453,0.428 -0.1992,0.249 -0.3984,0.498 -0.6043,0.742 -0.2867,0.341 -0.5984,0.669 -0.9,0.986 l -0.0863,0.091 c -0.4844,0.509 -1.0344,0.96 -1.5664,1.397 -0.1895,0.155 -0.3789,0.31 -0.5661,0.469 -0.4785,0.407 -0.9199,0.761 -1.3496,1.083 -0.2851,0.212 -0.5785,0.411 -0.8722,0.61 -0.1332,0.09 -0.266,0.181 -0.3985,0.272 -0.839,0.581 -1.7066,1.116 -2.5777,1.59 -0.4754,0.258 -0.9043,0.489 -1.3527,0.691 -0.4727,0.213 -0.9993,0.416 -1.6098,0.621 -0.959,0.323 -1.9316,0.612 -2.8898,0.858 -0.5024,0.129 -0.9696,0.225 -1.4293,0.293 -0.1653,0.026 -0.3309,0.052 -0.4965,0.079 -0.3793,0.062 -0.7719,0.126 -1.161,0.17 l -0.2703,0.029 c -0.1375,0.015 -0.2746,0.029 -0.4125,0.045 l 0.0645,-0.015 c -0.8715,0.109 -1.602,0.162 -2.2922,0.172 -0.0738,0.001 -0.1477,0.001 -0.2215,0.001"
           style="fill:#ddab62;fill-opacity:1;fill-rule:nonzero;stroke:none;stroke-width:0.1"
           id="path51230" />
        <path
           d="m -468.38288,339.54507 c 0.2839,0 0.5945,-0.009 0.9484,-0.027 0.3824,-0.021 0.7668,-0.077 1.1383,-0.131 l 0.0734,-0.011 0.2141,-0.03 0.2273,-0.03 -0.0808,0.003 c 0.3004,-0.035 0.5988,-0.079 0.8965,-0.124 l 0.3972,-0.06 h 0.001 l 0.0375,-0.005 c 0.1027,-0.014 0.1797,-0.024 0.2555,-0.035 0.314,-0.042 0.6281,-0.074 0.9418,-0.107 0.3394,-0.035 0.6789,-0.071 1.0168,-0.117 l 0.0566,-0.008 0.0586,-0.008 c 0.0461,0.004 0.0957,0.005 0.1426,0.005 0.3031,0 0.6125,-0.073 0.9129,-0.144 0.1066,-0.024 0.2117,-0.049 0.3152,-0.07 0.0598,-0.013 0.1199,-0.024 0.1805,-0.035 0.1269,-0.023 0.2539,-0.048 0.3785,-0.083 0.0738,-0.021 0.1449,-0.049 0.2156,-0.077 h 0.002 c 0.0965,0 0.1758,-0.013 0.2454,-0.04 l 0.3055,-0.114 c 0.065,-0.02 0.126,-0.044 0.185,-0.074 0.164,-0.07 0.293,-0.138 0.407,-0.213 0.249,-0.162 0.442,-0.363 0.609,-0.635 0.068,-0.11 0.115,-0.233 0.16,-0.352 0.1,-0.263 0.066,-0.539 0.026,-0.777 -0.044,-0.257 -0.163,-0.525 -0.268,-0.761 -0.072,-0.153 -0.157,-0.265 -0.269,-0.353 -0.11,-0.389 -0.219,-0.781 -0.328,-1.172 l -0.252,-0.9 c -0.132,-0.47 -0.265,-0.936 -0.409,-1.403 -0.1595,-0.517 -0.3341,-0.984 -0.5333,-1.429 -0.361,-0.803 -0.7524,-1.612 -1.0977,-2.326 -0.1281,-0.264 -0.2527,-0.53 -0.3773,-0.796 -0.2747,-0.585 -0.5579,-1.191 -0.8766,-1.764 -0.4176,-0.751 -0.8293,-1.403 -1.2606,-1.995 l -0.4031,-0.555 c -0.323,-0.448 -0.6574,-0.91 -0.998,-1.355 l -0.2332,-0.304 0.008,0.012 -0.0356,-0.049 c -0.2714,-0.355 -0.5527,-0.722 -0.8593,-1.054 -0.3778,-0.407 -0.6942,-0.745 -1.0383,-1.083 -0.7,-0.688 -1.4391,-1.323 -2.1332,-1.907 l -0.0977,-0.082 c -0.3691,-0.312 -0.7511,-0.633 -1.1457,-0.925 l -0.248,-0.186 c -0.2996,-0.228 -0.6098,-0.461 -0.9375,-0.647 -0.7352,-0.416 -1.6074,-0.906 -2.4973,-1.376 -0.7062,-0.374 -1.4687,-0.66 -2.2066,-0.937 -0.2321,-0.086 -0.4633,-0.173 -0.693,-0.263 -0.4539,-0.177 -0.907,-0.327 -1.3473,-0.443 -0.4765,-0.127 -0.9636,-0.228 -1.4898,-0.306 -1.0067,-0.148 -2.0305,-0.238 -3.0442,-0.265 -0.3296,-0.01 -0.6593,-0.017 -0.9882,-0.017 -0.7133,0 -1.3067,0.032 -1.8672,0.1 -0.7602,0.093 -1.5289,0.212 -2.2727,0.326 l -0.1273,0.02 -0.0844,0.013 c -0.6715,0.105 -1.366,0.212 -2.0281,0.405 -0.325,0.096 -0.6457,0.205 -0.966,0.314 -0.2559,0.087 -0.5121,0.175 -0.7707,0.255 -0.2957,0.092 -0.593,0.179 -0.8918,0.264 -0.2457,0.069 -0.4848,0.148 -0.7258,0.228 l -0.2582,0.086 c -0.2426,0.08 -0.4446,0.249 -0.5539,0.465 -0.2543,0.208 -0.3946,0.506 -0.3836,0.815 l 0.003,0.09 c 0.0168,0.463 0.034,0.942 0.0703,1.412 0.0364,0.445 0.1289,0.889 0.2188,1.318 l 0.0332,0.159 c 0.1679,0.81 0.3797,1.665 0.6867,2.772 0.309,1.114 0.7383,2.188 1.1172,3.091 0.3855,0.918 0.8598,1.833 1.4098,2.721 0.2503,0.403 0.5164,0.794 0.791,1.162 0.255,0.343 0.532,0.678 0.7996,1.002 l 0.2551,0.31 c 0.1156,0.142 0.2296,0.285 0.3449,0.428 0.1996,0.249 0.3992,0.498 0.6047,0.742 0.2867,0.341 0.598,0.669 0.9,0.986 l 0.0863,0.091 c 0.4844,0.509 1.034,0.96 1.5664,1.397 0.1895,0.155 0.3789,0.31 0.566,0.469 0.4785,0.407 0.9199,0.761 1.3496,1.083 0.2852,0.212 0.5785,0.411 0.8719,0.61 0.1336,0.09 0.266,0.181 0.3984,0.272 0.8395,0.581 1.7071,1.116 2.5782,1.59 0.475,0.258 0.9043,0.489 1.3527,0.691 0.4727,0.213 0.9992,0.416 1.6098,0.621 0.9589,0.323 1.9316,0.612 2.8894,0.858 0.5027,0.129 0.9699,0.225 1.4293,0.293 0.1656,0.026 0.3313,0.052 0.4969,0.079 0.3797,0.062 0.7719,0.126 1.1609,0.17 l 0.2699,0.029 c 0.1379,0.015 0.275,0.029 0.4125,0.045 l -0.064,-0.015 c 0.8715,0.109 1.6019,0.162 2.2922,0.172 0.0738,0.001 0.1476,0.001 0.2211,0.001"
           style="fill:#ddab62;fill-opacity:1;fill-rule:nonzero;stroke:none;stroke-width:0.1"
           id="path51232" />
        <path
           d="m -486.46808,350.40207 c -0.1422,0.246 -0.3047,0.51 -0.498,0.808 -0.2094,0.32 -0.4504,0.625 -0.6825,0.92 l -0.0461,0.059 -0.1324,0.171 -0.1406,0.181 0.0434,-0.069 c -0.1797,0.243 -0.3676,0.479 -0.5551,0.715 l -0.25,0.315 h -4e-4 l -0.0242,0.03 c -0.0629,0.082 -0.1098,0.144 -0.1575,0.204 -0.1929,0.251 -0.3785,0.507 -0.5632,0.762 -0.2004,0.277 -0.4008,0.553 -0.609,0.822 l -0.036,0.045 -0.0359,0.047 c -0.0199,0.042 -0.0437,0.086 -0.0672,0.126 -0.1512,0.263 -0.3691,0.495 -0.5801,0.719 -0.075,0.081 -0.1488,0.159 -0.2183,0.238 -0.0414,0.046 -0.0809,0.092 -0.1207,0.139 -0.084,0.098 -0.168,0.196 -0.2613,0.286 -0.0551,0.054 -0.1149,0.101 -0.1739,0.149 l -10e-4,0.002 c -0.0485,0.083 -0.0996,0.145 -0.1571,0.192 l -0.2515,0.207 c -0.0493,0.048 -0.102,0.088 -0.1563,0.124 -0.143,0.107 -0.266,0.185 -0.3883,0.247 -0.2644,0.134 -0.5359,0.201 -0.8539,0.21 -0.1293,0.004 -0.2593,-0.017 -0.3851,-0.038 -0.2782,-0.045 -0.5,-0.212 -0.6864,-0.365 -0.2003,-0.167 -0.3726,-0.404 -0.5257,-0.613 -0.0961,-0.138 -0.1504,-0.268 -0.1703,-0.409 -0.2829,-0.29 -0.5676,-0.58 -0.852,-0.87 l -0.6535,-0.668 c -0.3406,-0.349 -0.6785,-0.698 -1.0106,-1.055 -0.3683,-0.397 -0.6855,-0.782 -0.9714,-1.176 -0.5149,-0.714 -1.0204,-1.457 -1.4661,-2.114 -0.1644,-0.242 -0.3332,-0.483 -0.5011,-0.724 -0.37,-0.53 -0.7528,-1.078 -1.0899,-1.641 -0.4422,-0.737 -0.8012,-1.42 -1.0976,-2.089 l -0.2801,-0.626 c -0.2262,-0.504 -0.4598,-1.024 -0.6746,-1.542 l -0.1469,-0.354 0.006,0.013 -0.0243,-0.055 c -0.1722,-0.413 -0.3496,-0.84 -0.484,-1.271 -0.164,-0.531 -0.2988,-0.974 -0.4187,-1.441 -0.2469,-0.95 -0.4273,-1.907 -0.5859,-2.8 l -0.0227,-0.126 c -0.0855,-0.476 -0.1734,-0.967 -0.2293,-1.455 l -0.0371,-0.308 c -0.0465,-0.373 -0.0945,-0.758 -0.0914,-1.135 0.007,-0.845 0.0184,-1.845 0.0555,-2.851 0.0293,-0.798 0.1632,-1.602 0.2918,-2.379 0.0406,-0.244 0.0808,-0.488 0.1183,-0.732 0.0731,-0.482 0.1699,-0.949 0.2891,-1.388 0.1281,-0.477 0.2847,-0.949 0.4797,-1.444 0.3746,-0.946 0.809,-1.877 1.2914,-2.769 0.1562,-0.29 0.3148,-0.579 0.4797,-0.865 0.3562,-0.617 0.68,-1.115 1.0187,-1.567 0.4602,-0.612 0.9473,-1.219 1.4188,-1.805 l 0.0808,-0.101 0.0531,-0.066 c 0.4266,-0.53 0.8665,-1.078 1.3649,-1.555 0.2445,-0.234 0.4996,-0.456 0.7547,-0.68 0.2035,-0.178 0.407,-0.356 0.6051,-0.54 0.2277,-0.21 0.4523,-0.424 0.675,-0.641 0.182,-0.178 0.3707,-0.345 0.5601,-0.514 l 0.2035,-0.181 c 0.1903,-0.17 0.4375,-0.261 0.6793,-0.247 0.3074,-0.117 0.6352,-0.089 0.8973,0.074 l 0.0777,0.048 c 0.3922,0.246 0.7985,0.5 1.1871,0.767 0.368,0.253 0.7059,0.556 1.0332,0.848 l 0.12,0.108 c 0.6187,0.55 1.2535,1.161 2.0586,1.98 0.8105,0.824 1.5257,1.733 2.1199,2.512 0.6011,0.793 1.1574,1.661 1.6515,2.581 0.2239,0.418 0.4297,0.844 0.6114,1.266 0.1695,0.392 0.3218,0.799 0.4683,1.193 l 0.141,0.376 c 0.0653,0.171 0.1321,0.342 0.1985,0.513 0.1156,0.296 0.2312,0.594 0.3406,0.894 0.152,0.419 0.2805,0.853 0.4043,1.273 l 0.0363,0.12 c 0.1981,0.673 0.3145,1.376 0.4262,2.054 0.0398,0.242 0.0801,0.484 0.1234,0.725 0.1141,0.618 0.2004,1.178 0.2637,1.71 0.0414,0.353 0.0676,0.707 0.093,1.061 0.0121,0.16 0.0238,0.321 0.0367,0.481 0.0844,1.017 0.1141,2.036 0.0891,3.027 -0.0141,0.541 -0.0289,1.028 -0.0778,1.517 -0.0519,0.516 -0.139,1.074 -0.266,1.705 -0.1996,0.992 -0.4355,1.979 -0.7012,2.932 -0.139,0.499 -0.2898,0.952 -0.4597,1.384 -0.0606,0.157 -0.1203,0.313 -0.1797,0.47 -0.1367,0.359 -0.2774,0.731 -0.4332,1.091 l -0.1098,0.248 c -0.0566,0.126 -0.1125,0.252 -0.1676,0.38 l 0.0192,-0.064 c -0.341,0.81 -0.6598,1.469 -0.9965,2.072 -0.0359,0.065 -0.0727,0.129 -0.109,0.192"
           style="fill:#ddab62;fill-opacity:1;fill-rule:nonzero;stroke:none;stroke-width:0.1"
           id="path51234" />
      </g>
    </g>
  </g>
</svg>
