<?xml version="1.0" encoding="UTF-8" standalone="no"?>
<!-- Created with Inkscape (http://www.inkscape.org/) -->

<svg
   version="1.1"
   id="svg51028"
   width="141.44104"
   height="150.96179"
   viewBox="0 0 141.44104 150.96179"
   sodipodi:docname="4664656_2479124.eps"
   xmlns:inkscape="http://www.inkscape.org/namespaces/inkscape"
   xmlns:sodipodi="http://sodipodi.sourceforge.net/DTD/sodipodi-0.dtd"
   xmlns="http://www.w3.org/2000/svg"
   xmlns:svg="http://www.w3.org/2000/svg">
  <defs
     id="defs51032" />
  <sodipodi:namedview
     id="namedview51030"
     pagecolor="#ffffff"
     bordercolor="#000000"
     borderopacity="0.25"
     inkscape:showpageshadow="2"
     inkscape:pageopacity="0.0"
     inkscape:pagecheckerboard="0"
     inkscape:deskcolor="#d1d1d1"
     showgrid="false" />
  <g
     id="g51036"
     inkscape:groupmode="layer"
     inkscape:label="Page 1"
     transform="matrix(1.3333333,0,0,-1.3333333,433.4343,142.44807)">
    <g
       id="g52756"
       transform="translate(-117.98062,-238.59432)">
      <path
         d="m -150.15593,232.57107 c 0.265,0.045 0.529,0.095 0.792,0.149 1.646,0.336 2.966,0.701 4.155,1.15 0.595,0.224 1.174,0.499 1.671,0.738 0.784,0.376 1.416,0.739 1.99,1.14 0.421,0.297 0.8,0.674 1.167,1.039 l 0.217,0.217 c 0.532,0.527 1.046,1.086 1.526,1.613 l 0.155,0.17 c 0.765,0.841 1.557,1.711 2.258,2.623 1.114,1.449 2.063,2.919 2.822,4.369 0.374,0.713 0.69,1.529 0.963,2.493 0.168,0.588 0.297,1.197 0.423,1.785 l 0.127,0.587 0.257,0.955 0.255,0.957 c 0.106,0.397 0.213,0.819 0.28,1.239 0.051,0.324 0.085,0.65 0.118,0.974 0.059,0.594 0.092,1.208 0.107,1.974 0.017,0.727 0.03,1.503 -0.007,2.278 -0.028,0.533 -0.074,1.238 -0.187,1.949 -0.102,0.641 -0.224,1.275 -0.356,1.907 -0.29,1.353 -0.659,2.706 -1.015,4.015 -0.618,2.277 -1.22,4.079 -1.9,5.701 -0.401,0.963 -0.808,1.785 -1.244,2.514 -0.449,0.751 -0.939,1.491 -1.414,2.206 -1.619,2.549 -3.222,4.593 -4.941,6.305 -0.56,0.56 -1.1,1.06 -1.65,1.529 -0.334,0.286 -0.674,0.564 -1.014,0.844 l -0.444,0.363 c -0.861,0.706 -1.885,1.531 -2.948,2.301 -0.443,0.321 -0.943,0.607 -1.485,0.851 -0.534,0.243 -1.096,0.383 -1.672,0.519 -0.54,0.125 -1.08,0.235 -1.623,0.333 -0.026,0.039 -0.056,0.078 -0.09,0.12 -0.191,0.231 -0.547,0.476 -0.875,0.467 -0.265,-0.007 -0.538,-0.014 -0.814,-0.06 l -0.233,-0.044 -0.2,-0.039 c -0.344,-0.069 -0.689,-0.142 -1.029,-0.232 -0.707,-0.185 -1.273,-0.382 -1.78,-0.62 -1.173,-0.559 -2.317,-1.18 -3.181,-1.659 -0.624,-0.344 -1.27,-0.702 -1.857,-1.145 -0.537,-0.401 -1.064,-0.836 -1.553,-1.248 -0.333,-0.281 -0.646,-0.594 -0.95,-0.895 l -0.367,-0.362 c -0.465,-0.453 -0.927,-0.974 -1.37,-1.549 -0.205,-0.268 -0.403,-0.542 -0.601,-0.818 -0.141,-0.195 -0.283,-0.391 -0.426,-0.584 -0.363,-0.492 -0.746,-1.025 -1.096,-1.585 -0.291,-0.467 -0.559,-0.952 -0.826,-1.435 l -0.084,-0.152 -0.211,-0.38 c -0.273,-0.492 -0.548,-0.983 -0.795,-1.489 -1.173,-2.422 -2.046,-4.597 -2.674,-6.647 l -0.187,-0.593 c -0.139,-0.43 -0.277,-0.861 -0.392,-1.298 -0.16,-0.605 -0.313,-1.266 -0.47,-2.021 -0.162,-0.775 -0.303,-1.551 -0.446,-2.327 -0.095,-0.512 -0.188,-1.026 -0.287,-1.539 -0.233,-1.194 -0.363,-2.4 -0.397,-3.684 -0.034,-1.262 0.001,-2.603 0.11,-4.222 0.099,-1.453 0.271,-2.773 0.526,-4.034 0.273,-1.356 0.59,-2.81 1.055,-4.258 0.167,-0.517 0.382,-1.077 0.674,-1.763 0.293,-0.684 0.55,-1.24 0.806,-1.751 0.294,-0.572 0.646,-1.165 1.11,-1.871 0.371,-0.568 0.723,-1.045 1.078,-1.458 0.419,-0.485 0.898,-0.925 1.361,-1.35 l 0.064,-0.056 c 0.475,-0.44 0.926,-0.827 1.377,-1.184 0.976,-0.779 2.081,-1.392 3.039,-1.907 l -0.071,0.054 c 0.634,-0.354 1.213,-0.659 1.814,-0.92 0.624,-0.271 1.234,-0.516 1.815,-0.725 1.098,-0.391 2.347,-0.636 3.93,-0.771 2.485,-0.213 4.881,-0.13 7.12,0.247"
         style="fill:#e8e8cf;fill-opacity:1;fill-rule:nonzero;stroke:none;stroke-width:0.1"
         id="path51040" />
      <path
         d="m -108.31793,326.06407 c -0.193,0.185 -0.392,0.367 -0.591,0.547 -1.251,1.12 -2.332,1.962 -3.401,2.65 -0.535,0.343 -1.101,0.645 -1.59,0.9 -0.769,0.406 -1.437,0.697 -2.102,0.918 -0.489,0.162 -1.018,0.24 -1.529,0.316 l -0.304,0.046 c -0.74,0.112 -1.495,0.192 -2.205,0.263 l -0.228,0.022 c -1.131,0.113 -2.302,0.23 -3.452,0.25 -1.827,0.029 -3.575,-0.086 -5.19,-0.341 -0.796,-0.125 -1.638,-0.358 -2.576,-0.714 -0.572,-0.215 -1.138,-0.475 -1.685,-0.725 l -0.547,-0.248 -0.919,-0.364 -0.922,-0.365 c -0.381,-0.152 -0.783,-0.317 -1.16,-0.514 -0.291,-0.153 -0.573,-0.32 -0.853,-0.487 -0.512,-0.307 -1.025,-0.646 -1.649,-1.09 -0.593,-0.421 -1.223,-0.874 -1.824,-1.365 -0.412,-0.34 -0.95,-0.797 -1.454,-1.312 -0.453,-0.464 -0.889,-0.94 -1.316,-1.424 -0.914,-1.039 -1.78,-2.142 -2.619,-3.208 -1.458,-1.855 -2.546,-3.412 -3.444,-4.925 -0.533,-0.896 -0.95,-1.714 -1.275,-2.499 -0.336,-0.808 -0.637,-1.642 -0.928,-2.449 -1.081,-2.821 -1.764,-5.326 -2.115,-7.728 -0.114,-0.783 -0.194,-1.514 -0.243,-2.235 -0.029,-0.44 -0.05,-0.878 -0.072,-1.318 l -0.028,-0.573 c -0.052,-1.112 -0.103,-2.427 -0.088,-3.738 0.007,-0.548 0.076,-1.12 0.203,-1.7 0.123,-0.573 0.345,-1.108 0.581,-1.652 0.221,-0.507 0.454,-1.007 0.7,-1.501 -0.016,-0.044 -0.029,-0.092 -0.043,-0.143 -0.071,-0.293 -0.056,-0.723 0.147,-0.981 0.163,-0.209 0.331,-0.424 0.534,-0.619 l 0.174,-0.16 0.15,-0.138 c 0.261,-0.234 0.525,-0.468 0.801,-0.688 0.57,-0.457 1.065,-0.793 1.559,-1.058 1.148,-0.608 2.328,-1.156 3.229,-1.565 0.648,-0.295 1.32,-0.6 2.025,-0.807 0.643,-0.191 1.307,-0.355 1.929,-0.503 0.424,-0.099 0.862,-0.164 1.285,-0.227 l 0.509,-0.079 c 0.641,-0.104 1.335,-0.163 2.06,-0.177 0.338,-0.005 0.676,0 1.016,0.005 0.24,0.003 0.482,0.007 0.722,0.007 0.612,0.002 1.269,0.012 1.926,0.066 0.549,0.045 1.098,0.118 1.645,0.192 l 0.172,0.023 0.431,0.057 c 0.558,0.074 1.116,0.147 1.669,0.25 2.644,0.504 4.91,1.099 6.93,1.818 l 0.588,0.203 c 0.428,0.145 0.856,0.291 1.275,0.46 0.581,0.232 1.204,0.503 1.904,0.828 0.717,0.332 1.425,0.681 2.133,1.029 0.468,0.23 0.936,0.462 1.407,0.687 1.098,0.526 2.143,1.141 3.195,1.879 1.032,0.725 2.088,1.553 3.322,2.606 1.108,0.947 2.065,1.872 2.925,2.828 0.926,1.028 1.903,2.15 2.789,3.386 0.314,0.443 0.637,0.949 1.013,1.593 0.375,0.643 0.668,1.181 0.925,1.692 0.283,0.577 0.55,1.212 0.839,2.005 0.235,0.637 0.409,1.206 0.529,1.736 0.138,0.626 0.206,1.273 0.27,1.897 l 0.008,0.085 c 0.069,0.644 0.111,1.237 0.13,1.811 0.042,1.25 -0.124,2.502 -0.282,3.577 l -0.002,-0.088 c -0.093,0.72 -0.194,1.366 -0.342,2.004 -0.154,0.662 -0.322,1.298 -0.501,1.89 -0.342,1.113 -0.889,2.262 -1.725,3.613 -1.311,2.123 -2.806,3.997 -4.445,5.569"
         style="fill:#e8e8cf;fill-opacity:1;fill-rule:nonzero;stroke:none;stroke-width:0.1"
         id="path51042" />
      <path
         d="m -205.93493,313.14607 c -0.079,-0.256 -0.153,-0.515 -0.224,-0.774 -0.44,-1.621 -0.707,-2.965 -0.842,-4.229 -0.066,-0.632 -0.082,-1.273 -0.09,-1.824 -0.018,-0.869 0.022,-1.597 0.123,-2.29 0.075,-0.51 0.242,-1.018 0.404,-1.51 l 0.095,-0.292 c 0.231,-0.711 0.5,-1.421 0.755,-2.087 l 0.082,-0.215 c 0.408,-1.061 0.829,-2.16 1.327,-3.197 0.794,-1.646 1.68,-3.155 2.634,-4.485 0.468,-0.654 1.055,-1.303 1.793,-1.98 0.451,-0.416 0.936,-0.804 1.405,-1.182 l 0.468,-0.377 0.737,-0.658 0.74,-0.66 c 0.307,-0.272 0.636,-0.557 0.981,-0.805 0.266,-0.192 0.542,-0.368 0.817,-0.545 0.504,-0.318 1.038,-0.625 1.715,-0.984 0.641,-0.341 1.329,-0.7 2.038,-1.016 0.488,-0.216 1.139,-0.492 1.825,-0.71 0.617,-0.197 1.239,-0.374 1.862,-0.538 1.339,-0.351 2.714,-0.629 4.043,-0.9 2.312,-0.471 4.192,-0.744 5.947,-0.867 1.04,-0.074 1.958,-0.08 2.805,-0.019 0.872,0.063 1.754,0.169 2.606,0.271 3.005,0.301 5.551,0.814 7.853,1.579 0.752,0.249 1.442,0.506 2.108,0.786 0.407,0.17 0.807,0.349 1.211,0.527 l 0.523,0.232 c 1.018,0.452 2.215,0.996 3.381,1.6 0.485,0.252 0.966,0.569 1.428,0.943 0.457,0.368 0.835,0.807 1.214,1.261 0.355,0.426 0.696,0.858 1.028,1.3 0.047,0.005 0.096,0.014 0.147,0.025 0.293,0.068 0.671,0.275 0.811,0.572 0.113,0.24 0.229,0.487 0.312,0.755 l 0.066,0.227 0.055,0.196 c 0.093,0.339 0.183,0.68 0.256,1.024 0.153,0.715 0.231,1.308 0.245,1.868 0.03,1.3 -0.011,2.6 -0.05,3.588 -0.028,0.712 -0.056,1.45 -0.188,2.173 -0.117,0.66 -0.268,1.327 -0.416,1.949 -0.101,0.423 -0.24,0.844 -0.374,1.25 l -0.158,0.49 c -0.194,0.62 -0.452,1.267 -0.767,1.921 -0.147,0.304 -0.302,0.604 -0.46,0.905 -0.11,0.214 -0.222,0.428 -0.331,0.643 -0.276,0.546 -0.58,1.128 -0.923,1.691 -0.286,0.471 -0.598,0.928 -0.909,1.383 l -0.098,0.144 -0.245,0.36 c -0.316,0.465 -0.632,0.93 -0.972,1.379 -1.637,2.136 -3.186,3.894 -4.736,5.377 l -0.445,0.435 c -0.321,0.316 -0.644,0.633 -0.983,0.932 -0.469,0.416 -0.99,0.85 -1.594,1.329 -0.619,0.493 -1.249,0.969 -1.878,1.445 -0.415,0.314 -0.832,0.629 -1.245,0.948 -0.962,0.746 -1.981,1.404 -3.113,2.012 -1.112,0.597 -2.326,1.169 -3.82,1.8 -1.342,0.564 -2.599,1.004 -3.84,1.344 -1.334,0.366 -2.775,0.736 -4.277,0.972 -0.538,0.083 -1.135,0.144 -1.878,0.191 -0.743,0.045 -1.355,0.066 -1.927,0.066 -0.643,-0.005 -1.332,-0.052 -2.169,-0.149 -0.675,-0.077 -1.26,-0.177 -1.789,-0.307 -0.622,-0.157 -1.23,-0.387 -1.817,-0.61 l -0.079,-0.031 c -0.606,-0.227 -1.154,-0.456 -1.677,-0.697 -1.135,-0.523 -2.179,-1.233 -3.069,-1.858 l 0.08,0.039 c -0.602,-0.406 -1.134,-0.787 -1.638,-1.206 -0.522,-0.436 -1.015,-0.87 -1.464,-1.296 -0.841,-0.805 -1.623,-1.81 -2.455,-3.163 -1.307,-2.124 -2.311,-4.302 -2.98,-6.471"
         style="fill:#e8e8cf;fill-opacity:1;fill-rule:nonzero;stroke:none;stroke-width:0.1"
         id="path51044" />
      <path
         d="m -157.95493,345.06807 c -0.264,-0.044 -0.528,-0.095 -0.792,-0.149 -1.645,-0.335 -2.966,-0.701 -4.155,-1.149 -0.595,-0.225 -1.174,-0.499 -1.671,-0.739 -0.784,-0.375 -1.416,-0.738 -1.989,-1.14 -0.422,-0.296 -0.801,-0.674 -1.167,-1.039 l -0.218,-0.216 c -0.531,-0.527 -1.045,-1.086 -1.525,-1.613 l -0.156,-0.171 c -0.763,-0.841 -1.556,-1.71 -2.257,-2.622 -1.114,-1.45 -2.064,-2.92 -2.823,-4.369 -0.374,-0.714 -0.689,-1.529 -0.963,-2.493 -0.167,-0.589 -0.296,-1.197 -0.422,-1.785 l -0.127,-0.588 -0.257,-0.955 -0.256,-0.957 c -0.105,-0.397 -0.213,-0.818 -0.279,-1.238 -0.051,-0.325 -0.084,-0.65 -0.118,-0.975 -0.059,-0.593 -0.092,-1.208 -0.108,-1.973 -0.017,-0.728 -0.028,-1.504 0.008,-2.279 0.027,-0.533 0.073,-1.238 0.186,-1.949 0.102,-0.641 0.224,-1.275 0.357,-1.906 0.29,-1.354 0.659,-2.707 1.015,-4.016 0.618,-2.277 1.219,-4.078 1.899,-5.701 0.401,-0.963 0.809,-1.785 1.245,-2.514 0.448,-0.751 0.939,-1.49 1.413,-2.205 1.619,-2.55 3.223,-4.593 4.942,-6.306 0.56,-0.56 1.099,-1.06 1.649,-1.528 0.336,-0.287 0.675,-0.565 1.016,-0.845 l 0.442,-0.363 c 0.862,-0.706 1.886,-1.531 2.948,-2.3 0.445,-0.321 0.945,-0.608 1.487,-0.852 0.533,-0.243 1.094,-0.382 1.67,-0.518 0.541,-0.125 1.081,-0.236 1.624,-0.333 0.026,-0.039 0.056,-0.079 0.089,-0.121 0.193,-0.23 0.547,-0.476 0.875,-0.466 0.265,0.007 0.538,0.013 0.816,0.06 l 0.231,0.043 0.201,0.039 c 0.343,0.07 0.689,0.142 1.029,0.232 0.707,0.185 1.272,0.382 1.779,0.621 1.174,0.559 2.317,1.179 3.182,1.659 0.624,0.344 1.269,0.701 1.856,1.144 0.537,0.401 1.065,0.836 1.555,1.248 0.332,0.281 0.645,0.594 0.948,0.895 l 0.367,0.363 c 0.465,0.453 0.927,0.973 1.37,1.548 0.206,0.268 0.404,0.543 0.602,0.818 0.141,0.195 0.283,0.392 0.426,0.585 0.363,0.492 0.746,1.025 1.095,1.584 0.291,0.468 0.56,0.953 0.827,1.435 l 0.084,0.152 0.211,0.38 c 0.273,0.492 0.547,0.984 0.794,1.489 1.173,2.423 2.047,4.597 2.674,6.647 l 0.188,0.594 c 0.138,0.43 0.276,0.86 0.391,1.297 0.16,0.605 0.315,1.266 0.47,2.022 0.162,0.774 0.305,1.551 0.447,2.327 0.094,0.512 0.188,1.026 0.286,1.538 0.235,1.195 0.364,2.4 0.398,3.685 0.034,1.261 -0.001,2.602 -0.109,4.221 -0.1,1.453 -0.273,2.774 -0.527,4.035 -0.273,1.356 -0.591,2.809 -1.056,4.257 -0.167,0.518 -0.38,1.078 -0.673,1.764 -0.293,0.683 -0.55,1.24 -0.807,1.75 -0.294,0.572 -0.645,1.166 -1.109,1.872 -0.371,0.567 -0.724,1.045 -1.078,1.459 -0.419,0.484 -0.899,0.924 -1.362,1.348 l -0.063,0.057 c -0.476,0.439 -0.927,0.826 -1.377,1.184 -0.977,0.779 -2.081,1.392 -3.039,1.906 l 0.07,-0.054 c -0.634,0.355 -1.212,0.659 -1.813,0.921 -0.624,0.271 -1.234,0.515 -1.816,0.725 -1.098,0.39 -2.347,0.636 -3.93,0.77 -2.485,0.213 -4.88,0.131 -7.12,-0.247"
         style="fill:#d5cfa3;fill-opacity:0.992157;fill-rule:nonzero;stroke:none;stroke-width:0.1"
         id="path51046" />
      <path
         d="m -199.79293,251.57607 c 0.194,-0.186 0.392,-0.368 0.592,-0.547 1.25,-1.121 2.331,-1.963 3.402,-2.65 0.534,-0.343 1.099,-0.645 1.588,-0.901 0.769,-0.405 1.437,-0.696 2.102,-0.917 0.489,-0.162 1.019,-0.241 1.53,-0.316 l 0.304,-0.047 c 0.739,-0.112 1.494,-0.191 2.204,-0.263 l 0.229,-0.022 c 1.13,-0.112 2.301,-0.229 3.452,-0.249 1.828,-0.029 3.574,0.085 5.19,0.34 0.795,0.126 1.638,0.359 2.575,0.715 0.573,0.215 1.138,0.474 1.686,0.724 l 0.547,0.249 0.92,0.364 0.921,0.364 c 0.38,0.153 0.784,0.318 1.16,0.515 0.291,0.153 0.572,0.32 0.853,0.486 0.511,0.307 1.025,0.647 1.649,1.09 0.593,0.422 1.222,0.874 1.823,1.366 0.412,0.34 0.95,0.797 1.454,1.312 0.453,0.464 0.89,0.94 1.317,1.423 0.914,1.039 1.78,2.143 2.619,3.209 1.459,1.854 2.546,3.412 3.443,4.924 0.533,0.897 0.951,1.714 1.276,2.499 0.335,0.808 0.636,1.642 0.927,2.45 1.081,2.821 1.765,5.326 2.115,7.727 0.116,0.783 0.195,1.515 0.244,2.236 0.03,0.44 0.05,0.877 0.072,1.318 l 0.027,0.572 c 0.053,1.112 0.105,2.427 0.088,3.739 -0.007,0.547 -0.075,1.119 -0.202,1.7 -0.123,0.573 -0.346,1.107 -0.581,1.651 -0.222,0.508 -0.454,1.007 -0.7,1.502 0.015,0.044 0.029,0.092 0.043,0.143 0.071,0.292 0.055,0.723 -0.148,0.981 -0.163,0.209 -0.331,0.424 -0.534,0.618 l -0.173,0.161 -0.15,0.137 c -0.262,0.234 -0.526,0.468 -0.801,0.688 -0.57,0.457 -1.066,0.794 -1.559,1.058 -1.148,0.609 -2.329,1.156 -3.229,1.565 -0.649,0.296 -1.32,0.6 -2.026,0.807 -0.642,0.192 -1.306,0.356 -1.928,0.504 -0.424,0.099 -0.862,0.164 -1.285,0.227 l -0.509,0.079 c -0.642,0.103 -1.335,0.163 -2.061,0.176 -0.338,0.005 -0.676,10e-4 -1.015,-0.004 -0.241,-0.004 -0.483,-0.007 -0.723,-0.007 -0.611,-0.003 -1.269,-0.013 -1.926,-0.066 -0.549,-0.045 -1.097,-0.119 -1.644,-0.192 l -0.172,-0.024 -0.432,-0.057 c -0.557,-0.074 -1.115,-0.147 -1.669,-0.25 -2.643,-0.504 -4.91,-1.099 -6.93,-1.817 l -0.587,-0.203 c -0.428,-0.146 -0.857,-0.292 -1.276,-0.461 -0.581,-0.232 -1.203,-0.502 -1.903,-0.828 -0.718,-0.332 -1.426,-0.68 -2.134,-1.029 -0.468,-0.23 -0.935,-0.461 -1.406,-0.687 -1.099,-0.525 -2.143,-1.14 -3.194,-1.879 -1.034,-0.725 -2.089,-1.553 -3.324,-2.605 -1.107,-0.947 -2.064,-1.873 -2.925,-2.829 -0.925,-1.028 -1.903,-2.149 -2.788,-3.386 -0.315,-0.442 -0.637,-0.949 -1.013,-1.592 -0.374,-0.643 -0.668,-1.181 -0.924,-1.692 -0.284,-0.577 -0.552,-1.213 -0.841,-2.006 -0.234,-0.637 -0.407,-1.205 -0.528,-1.736 -0.139,-0.625 -0.206,-1.272 -0.271,-1.897 l -0.008,-0.084 c -0.069,-0.644 -0.111,-1.237 -0.128,-1.812 -0.043,-1.248 0.123,-2.501 0.282,-3.577 l 10e-4,0.089 c 0.092,-0.72 0.193,-1.366 0.342,-2.004 0.155,-0.663 0.323,-1.299 0.5,-1.89 0.342,-1.114 0.89,-2.263 1.726,-3.614 1.311,-2.122 2.806,-3.996 4.444,-5.568"
         style="fill:#d5cfa3;fill-opacity:0.992157;fill-rule:nonzero;stroke:none;stroke-width:0.1"
         id="path51048" />
      <path
         d="m -102.17393,264.49307 c 0.079,0.257 0.152,0.516 0.222,0.775 0.441,1.621 0.707,2.964 0.842,4.229 0.066,0.631 0.082,1.272 0.092,1.824 0.016,0.869 -0.023,1.597 -0.124,2.29 -0.075,0.51 -0.242,1.018 -0.404,1.509 l -0.095,0.292 c -0.232,0.712 -0.5,1.422 -0.755,2.088 l -0.082,0.215 c -0.407,1.061 -0.828,2.159 -1.327,3.196 -0.794,1.647 -1.681,3.155 -2.634,4.485 -0.469,0.655 -1.056,1.303 -1.794,1.981 -0.45,0.415 -0.936,0.804 -1.404,1.181 l -0.468,0.377 -0.737,0.658 -0.741,0.66 c -0.306,0.272 -0.634,0.558 -0.98,0.806 -0.267,0.192 -0.542,0.368 -0.817,0.544 -0.503,0.319 -1.038,0.625 -1.714,0.984 -0.643,0.341 -1.33,0.701 -2.039,1.016 -0.489,0.216 -1.139,0.492 -1.825,0.711 -0.618,0.197 -1.239,0.373 -1.863,0.538 -1.339,0.35 -2.714,0.629 -4.043,0.9 -2.311,0.471 -4.191,0.744 -5.946,0.866 -1.04,0.075 -1.958,0.081 -2.806,0.019 -0.872,-0.063 -1.753,-0.169 -2.605,-0.271 -3.005,-0.3 -5.551,-0.814 -7.854,-1.578 -0.752,-0.249 -1.441,-0.506 -2.107,-0.786 -0.406,-0.171 -0.808,-0.349 -1.21,-0.528 l -0.525,-0.232 c -1.017,-0.452 -2.214,-0.996 -3.379,-1.599 -0.487,-0.252 -0.967,-0.57 -1.429,-0.944 -0.457,-0.367 -0.834,-0.806 -1.215,-1.26 -0.355,-0.426 -0.695,-0.858 -1.027,-1.3 -0.046,-0.005 -0.096,-0.015 -0.148,-0.026 -0.293,-0.068 -0.671,-0.274 -0.81,-0.571 -0.114,-0.24 -0.23,-0.488 -0.313,-0.756 l -0.065,-0.227 -0.056,-0.196 c -0.092,-0.338 -0.183,-0.68 -0.255,-1.024 -0.153,-0.714 -0.231,-1.308 -0.246,-1.868 -0.029,-1.299 0.012,-2.599 0.051,-3.588 0.027,-0.712 0.056,-1.449 0.188,-2.172 0.116,-0.66 0.268,-1.327 0.415,-1.95 0.102,-0.423 0.241,-0.843 0.374,-1.25 l 0.159,-0.49 c 0.195,-0.62 0.453,-1.266 0.766,-1.92 0.148,-0.305 0.304,-0.604 0.46,-0.906 0.111,-0.213 0.223,-0.428 0.331,-0.643 0.277,-0.545 0.58,-1.127 0.923,-1.691 0.287,-0.47 0.599,-0.928 0.909,-1.383 l 0.099,-0.143 0.245,-0.36 c 0.315,-0.465 0.632,-0.931 0.972,-1.38 1.636,-2.136 3.186,-3.894 4.735,-5.377 l 0.445,-0.434 c 0.323,-0.316 0.645,-0.634 0.984,-0.932 0.468,-0.416 0.989,-0.851 1.593,-1.33 0.62,-0.492 1.249,-0.968 1.878,-1.445 0.416,-0.314 0.832,-0.629 1.245,-0.948 0.962,-0.746 1.981,-1.403 3.114,-2.011 1.111,-0.598 2.325,-1.169 3.819,-1.8 1.343,-0.565 2.6,-1.005 3.841,-1.344 1.334,-0.366 2.775,-0.736 4.277,-0.973 0.537,-0.082 1.134,-0.143 1.878,-0.191 0.742,-0.045 1.355,-0.066 1.927,-0.065 0.643,0.004 1.331,0.052 2.17,0.148 0.674,0.077 1.259,0.177 1.787,0.308 0.622,0.156 1.23,0.387 1.817,0.609 l 0.079,0.031 c 0.607,0.228 1.156,0.456 1.677,0.698 1.135,0.522 2.179,1.233 3.07,1.858 l -0.081,-0.039 c 0.602,0.406 1.135,0.786 1.638,1.205 0.523,0.436 1.016,0.871 1.464,1.296 0.842,0.806 1.623,1.81 2.455,3.163 1.308,2.125 2.312,4.302 2.982,6.471"
         style="fill:#d5cfa3;fill-opacity:0.992157;fill-rule:nonzero;stroke:none;stroke-width:0.1"
         id="path51050" />
      <path
         d="m -162.13993,283.88907 c -2.212,-1.655 -4.438,-3.295 -6.682,-4.905 -1.023,-0.735 -2.035,-1.494 -3.11,-2.155 -1.113,-0.686 -2.198,-1.404 -3.279,-2.132 -0.592,-0.4 -0.712,-1.257 -0.306,-1.825 0.425,-0.591 1.234,-0.704 1.823,-0.304 1.059,0.715 2.12,1.417 3.207,2.086 1.101,0.677 2.136,1.448 3.187,2.201 2.242,1.612 4.469,3.25 6.679,4.907 0.571,0.426 0.726,1.234 0.304,1.823 -0.015,0.02 -0.029,0.039 -0.044,0.057 -0.421,0.523 -1.229,0.66 -1.779,0.247"
         style="fill:#f46a50;fill-opacity:1;fill-rule:nonzero;stroke:none;stroke-width:0.1"
         id="path51052" />
      <path
         d="m -175.29193,276.83207 c -1.122,0.187 -2.281,-0.081 -3.204,-0.741 -1.823,-1.301 -2.47,-4.167 -1.001,-5.991 0.734,-0.909 1.617,-1.546 2.788,-1.743 1.121,-0.186 2.282,0.081 3.204,0.742 1.823,1.3 2.471,4.166 1,5.991 -0.732,0.909 -1.617,1.546 -2.787,1.742"
         style="fill:#dcaa62;fill-opacity:0.992157;fill-rule:nonzero;stroke:none;stroke-width:0.1"
         id="path51054" />
      <path
         d="m -152.77793,296.72107 c 0.016,2.763 0.052,5.526 0.122,8.288 0.032,1.26 0.037,2.524 0.16,3.781 0.124,1.3 0.207,2.599 0.279,3.901 0.04,0.713 -0.572,1.326 -1.27,1.345 -0.727,0.019 -1.306,-0.56 -1.343,-1.27 -0.069,-1.275 -0.15,-2.546 -0.272,-3.816 -0.125,-1.286 -0.135,-2.576 -0.169,-3.869 -0.068,-2.761 -0.107,-5.525 -0.119,-8.288 -0.005,-0.712 0.545,-1.323 1.269,-1.342 0.025,0 0.049,0 0.073,0 0.669,0.021 1.269,0.582 1.27,1.27"
         style="fill:#f46a50;fill-opacity:1;fill-rule:nonzero;stroke:none;stroke-width:0.1"
         id="path51056" />
      <path
         d="m -150.46593,311.46607 c 0.827,0.781 1.313,1.868 1.342,3.002 0.065,2.238 -1.829,4.485 -4.172,4.414 -1.167,-0.035 -2.208,-0.356 -3.072,-1.171 -0.825,-0.781 -1.312,-1.868 -1.343,-3.001 -0.062,-2.239 1.831,-4.486 4.174,-4.414 1.166,0.035 2.208,0.355 3.071,1.17"
         style="fill:#dcaa62;fill-opacity:0.992157;fill-rule:nonzero;stroke:none;stroke-width:0.1"
         id="path51058" />
      <path
         d="m -147.20393,282.91107 c 2.513,-1.15 5.019,-2.317 7.507,-3.515 1.136,-0.547 2.286,-1.07 3.382,-1.698 1.134,-0.647 2.285,-1.257 3.442,-1.856 0.635,-0.329 1.444,-0.023 1.748,0.605 0.317,0.656 0.027,1.421 -0.606,1.746 -1.135,0.587 -2.26,1.182 -3.368,1.815 -1.121,0.642 -2.293,1.181 -3.458,1.743 -2.489,1.196 -4.994,2.366 -7.508,3.512 -0.648,0.296 -1.431,0.046 -1.745,-0.606 -0.011,-0.023 -0.021,-0.045 -0.029,-0.067 -0.257,-0.619 0.009,-1.396 0.635,-1.679"
         style="fill:#f46a50;fill-opacity:1;fill-rule:nonzero;stroke:none;stroke-width:0.1"
         id="path51060" />
      <path
         d="m -134.70893,274.74807 c 0.374,-1.074 1.164,-1.964 2.186,-2.457 2.016,-0.977 4.842,-0.173 5.738,1.992 0.447,1.079 0.582,2.16 0.195,3.281 -0.374,1.074 -1.165,1.965 -2.186,2.457 -2.016,0.977 -4.841,0.173 -5.738,-1.992 -0.447,-1.078 -0.583,-2.16 -0.195,-3.281"
         style="fill:#dcaa62;fill-opacity:0.992157;fill-rule:nonzero;stroke:none;stroke-width:0.1"
         id="path51062" />
      <path
         d="m -164.53793,288.18107 c 0,-5.713 4.769,-10.482 10.483,-10.482 5.714,0 10.483,4.769 10.483,10.482 0,5.715 -4.769,10.484 -10.483,10.484 -5.714,0 -10.483,-4.769 -10.483,-10.484"
         style="fill:#dcaa62;fill-opacity:0.992157;fill-rule:nonzero;stroke:none;stroke-width:0.1"
         id="path51064" />
    </g>
  </g>
</svg>
