<svg width="260" height="39" viewBox="0 0 260 39" fill="none" xmlns="http://www.w3.org/2000/svg">
<path d="M260 2.08927C260 0.699186 258.51 -0.182599 257.292 0.486107V0.486107C254.583 1.91666 249.167 4.97222 243.75 7.15277C238.333 9.41666 232.917 10.8056 227.5 15.2917C222.083 19.6944 216.667 22.75 211.25 22.7083C205.833 22.75 200.417 19.6944 195 18.2639C189.583 16.7778 184.167 21.2222 178.75 20.4861C173.333 19.6944 167.917 13.8611 162.5 8.625C157.083 3.44444 151.667 -1 146.25 1.22222C140.833 3.44444 135.417 11.5972 130 16.0417C124.583 20.4861 117.417 16.0278 112 17.5139C106.583 18.9444 102.917 27.1944 97.5 26.4028C92.0833 25.6667 86.6667 21.2222 81.25 16.0417C75.8333 10.8056 70.4167 4.97222 65 7.88889C59.5833 10.8056 54.1667 22.75 48.75 25.6667C43.3333 28.5833 37.9167 22.75 32.5 17.5139C27.0833 12.3333 21.6667 7.88889 16.25 10.1111C10.8333 12.3333 5.41668 21.2222 2.70834 25.6667L0.7303 28.9127C0.252662 29.6965 0 30.5967 0 31.5145V36.2917C0 37.7874 1.21257 39 2.70834 39V39C5.41668 39 10.8333 39 16.25 39C21.6667 39 27.0833 39 32.5 39C37.9167 39 43.3333 39 48.75 39C54.1667 39 59.5833 39 65 39C70.4167 39 75.8333 39 81.25 39C86.6667 39 92.0833 39 97.5 39C102.917 39 108.333 39 113.75 39C119.167 39 124.583 39 130 39C135.417 39 140.833 39 146.25 39C151.667 39 157.083 39 162.5 39C167.917 39 173.333 39 178.75 39C184.167 39 189.583 39 195 39C200.417 39 205.833 39 211.25 39C216.667 39 222.083 39 227.5 39C232.917 39 238.333 39 243.75 39C249.167 39 254.583 39 257.292 39V39C258.787 39 260 37.7874 260 36.2917V2.08927Z" fill="url(#paint0_linear_558_6094)"/>
<defs>
<linearGradient id="paint0_linear_558_6094" x1="130" y1="39" x2="130" y2="-1" gradientUnits="userSpaceOnUse">
<stop offset="0.0104167" stop-color="#84B3D1" stop-opacity="0"/>
<stop offset="1" stop-color="#84B3D1"/>
</linearGradient>
</defs>
</svg>
