<svg width="229" height="651" viewBox="0 0 229 651" fill="none" xmlns="http://www.w3.org/2000/svg">
<g filter="url(#filter0_d_577_370)">
<path d="M106.819 630.669C106.769 628.151 106.693 625.633 106.668 623.115C106.643 616.576 106.241 610.077 105.688 603.62C104.958 594.766 103.827 586.034 102.217 577.464C101.036 571.21 99.5018 565.199 97.7919 559.269C95.4534 550.984 93.0143 542.739 90.7764 534.373C87.6081 522.594 85.4204 510.288 84.1129 497.576C83.3837 490.672 82.6796 483.767 82.2018 476.782C81.7241 470.08 81.5481 463.298 81.2463 456.556C81.2212 456.19 81.2463 455.825 81.4474 455.337C81.5732 455.825 81.7994 456.272 81.8497 456.718C81.9504 457.693 81.9504 458.627 82.0007 459.602C82.3025 465.694 82.5539 471.786 82.9311 477.878C83.5094 487.22 84.4901 496.48 85.7473 505.699C87.4824 518.574 90.2986 530.839 93.7184 542.78C95.9563 550.537 98.2194 558.294 100.357 566.173C102.821 575.312 104.38 584.937 105.436 594.766C106.065 600.696 106.593 606.706 106.945 612.717C107.272 618.038 107.272 623.399 107.423 628.719C107.448 629.369 107.473 630.019 107.498 630.669C107.272 630.669 107.045 630.669 106.819 630.669Z" fill="#1C2D46"/>
<path d="M63.0401 233.178C63.0904 233.259 63.1407 233.34 63.1659 233.381C63.0904 237.443 62.9898 241.463 62.9145 245.525C64.4735 240.895 64.4484 236.021 63.7946 230.741C63.4677 231.757 63.2413 232.488 63.0401 233.178ZM62.9646 231.716C63.5178 230.01 63.895 228.264 63.6687 226.477C63.3669 223.877 62.4365 221.684 61.8079 219.288C61.7324 219.329 61.6572 219.329 61.5565 219.369C61.2045 221.075 60.8273 222.74 60.5507 224.04C61.4056 226.801 62.1599 229.157 62.9646 231.716ZM52.6802 223.106C50.8949 223.674 49.8639 225.421 49.7131 228.02C49.5872 230.254 50.4674 232.041 52.2527 233.34C52.7305 232.813 53.1579 232.325 53.5854 231.797C54.2643 230.944 54.4152 230.091 54.1386 228.995C53.6357 227.045 53.1579 225.055 52.6802 223.106ZM48.1289 245.24C47.9278 244.388 47.802 243.778 47.626 243.169C46.6202 239.473 46.0167 235.655 45.9915 231.635C45.9915 230.66 46.0419 229.604 46.2178 228.67C46.5698 226.883 47.4247 226.436 48.4306 227.289C48.6568 227.452 48.8832 227.614 49.1095 227.817C49.8387 224.121 49.8387 224.08 48.8329 220.547C48.1288 221.887 47.5253 223.268 46.7961 224.446C43.4015 230.173 43.829 240.204 48.1289 245.24ZM38.5737 174.409C39.0514 170.795 40.0321 167.627 41.8174 165.271C43.2507 163.362 44.0051 160.885 44.3822 158.042C44.8097 154.833 45.2372 151.625 45.6646 148.416C45.6646 148.376 45.5892 148.295 45.5137 148.173C45.3126 148.579 45.1365 148.944 44.9605 149.391C43.2003 154.386 41.415 159.341 39.68 164.337C38.5987 167.464 38.4982 170.917 38.5737 174.409ZM58.3127 226.111C60.8021 227.086 61.4307 230.66 62.3611 234.031C62.4366 233.665 62.4869 233.544 62.4618 233.462C61.8583 227.939 60.1735 223.715 56.8544 221.522C56.4018 221.237 55.8988 221.116 55.3959 220.994C53.7364 220.709 53.0323 222.943 53.6609 225.299C53.8119 225.786 54.1135 226.274 54.1387 226.802C54.2393 229.035 55.2702 229.523 56.3766 230.132C56.8041 228.467 56.8543 226.558 58.3127 226.111ZM64.5236 240.204C64.5991 240.285 64.6743 240.326 64.7498 240.407C64.8505 239.879 65.0012 239.392 65.0767 238.864C66.0071 233.259 66.0825 227.533 65.5042 221.806C65.2528 219.329 64.775 216.932 63.8697 214.78C63.4926 213.846 63.0651 212.952 62.3359 212.749C61.7073 214.008 61.5564 214.455 61.833 215.877C62.3359 218.395 62.9142 220.872 63.5428 223.309C64.0206 225.177 64.4229 227.045 64.3224 229.117C64.2469 230.254 64.272 231.391 64.3727 232.528C64.5486 235.087 64.9761 237.605 64.5236 240.204ZM68.8989 229.482C69.2258 229.32 69.276 229.32 69.3012 229.279C69.5023 229.076 69.6784 228.832 69.8544 228.589C72.3186 225.38 74.984 222.74 78.0266 221.319C81.3206 219.775 84.6398 218.354 87.959 216.892C89.2917 216.323 90.6746 215.876 92.0073 215.389C92.0073 215.227 92.0074 215.105 91.9822 214.942C91.5799 214.942 91.1775 214.942 90.7752 214.942C89.0905 215.064 87.4057 215.186 85.721 215.308C82.8796 215.429 80.1388 216.364 77.4985 218.029C74.3051 220.019 71.4888 222.862 69.5778 227.614C69.3767 228.142 69.2006 228.67 68.8989 229.482ZM43.8542 234.681C43.9548 234.64 44.0552 234.6 44.1559 234.559C44.1559 234.194 44.1811 233.828 44.1811 233.462C44.2063 229.807 44.9103 226.558 46.4693 223.837C47.2488 222.497 47.9026 221.035 48.5815 219.532C49.1096 218.354 49.4364 216.973 49.3359 215.47C49.1849 213.196 48.2797 212.303 46.947 212.952C45.8155 213.562 45.036 214.821 44.4828 216.486C43.1501 220.507 42.9741 224.771 43.2759 229.157C43.4017 231.026 43.653 232.853 43.8542 234.681ZM57.7344 254.704C59.6706 253.526 60.7518 251.576 61.5564 249.099C62.0845 247.393 62.2354 245.525 62.3862 243.656C62.7131 238.986 62.1348 234.6 60.8272 230.497C60.5004 229.523 60.0226 228.589 59.4945 227.858C58.363 226.314 57.4829 226.842 57.156 229.157C57.1057 229.482 57.0554 229.807 57.0554 230.091C57.1057 231.635 56.7285 232.894 56.2256 234.153C55.4964 236.021 55.3204 238.174 55.7227 240.164C56.4016 243.535 56.7788 246.987 57.0805 250.48C57.1812 251.82 57.4829 253.12 57.7344 254.704ZM57.2063 254.988C56.8291 251.495 56.5023 248.327 56.0748 245.2C55.3959 239.961 53.8117 235.696 50.7943 233.056C50.392 232.691 50.1153 231.919 49.8136 231.269C49.4113 230.335 49.0844 229.32 48.6569 228.426C48.3552 227.776 47.9026 227.208 47.3494 227.533C46.7711 227.858 46.5447 228.71 46.4693 229.604C46.419 230.051 46.4441 230.498 46.4441 230.944C46.419 236.387 47.3493 241.382 49.0592 246.012C50.6685 250.358 52.8813 253.485 55.9993 254.704C56.3765 254.825 56.7537 254.866 57.2063 254.988ZM29.1694 264.492C28.9431 264.329 28.8173 264.167 28.6665 264.126C26.6046 263.558 24.9198 261.771 23.2351 259.902C21.9275 258.44 20.5948 256.978 19.1867 255.719C16.295 253.12 13.1519 252.267 9.90811 253.201C8.32397 253.648 6.79011 254.338 5.23109 254.988C3.49606 255.719 1.76106 256.531 -0.0494056 256.288C-0.602616 256.247 -1.1055 256.125 -1.65871 256.003C-1.68387 256.125 -1.70903 256.247 -1.7342 256.369C-1.18101 256.856 -0.652971 257.547 -0.0494824 257.831C1.35866 258.521 2.81708 258.927 4.25036 259.618C7.01633 260.958 9.78231 262.258 12.498 263.842C16.6721 266.238 20.8965 267.335 25.2718 266.238C26.5793 265.913 27.887 265.588 29.1694 264.492ZM2.54055 203.733C2.46506 203.854 2.38982 203.977 2.31433 204.098C2.86754 205.154 3.34527 206.291 3.94876 207.266C5.15574 209.216 6.36269 211.084 7.61997 212.871C9.83274 216.039 11.6935 219.653 13.1268 223.837C16.2699 233.056 21.123 239.067 27.0824 242.966C27.4093 243.21 27.7865 243.331 28.3899 243.616C28.1385 243.088 28.063 242.885 27.9625 242.722C26.1772 240.529 24.9953 237.564 24.0398 234.356C23.1849 231.432 22.3299 228.548 21.4247 225.664C18.885 217.542 14.9624 211.977 9.53102 209.337C6.99135 208.119 4.52704 206.698 2.54055 203.733ZM39.5041 245.768C38.2468 245.768 37.0398 245.809 35.8328 245.768C34.1733 245.687 32.4634 245.768 30.8038 245.444C28.1384 244.956 25.6742 243.291 23.3357 241.179C20.972 239.027 18.5078 237.199 15.7669 237.036C12.4478 236.833 9.10346 236.874 5.7843 237.077C3.97383 237.158 2.18853 238.011 0.503788 239.351C-2.7651 242.032 -3.79603 246.499 -3.31829 251.942C-3.19247 253.526 -2.66451 254.582 -1.68384 255.028C-0.527163 255.556 0.604372 255.922 1.78621 255.435C3.59668 254.704 5.4071 253.973 7.21757 253.16C10.3859 251.82 13.529 251.658 16.6973 253.079C18.885 254.054 20.7457 256.044 22.5813 258.075C23.8134 259.415 25.0456 260.796 26.3279 261.974C28.0127 263.476 29.8231 263.923 31.6085 262.42C32.8909 261.364 34.0224 260.268 34.4499 257.587C34.8019 255.313 35.6568 253.201 36.4866 251.252C37.3164 249.302 38.4228 247.677 39.5041 245.768ZM66.3592 233.381C66.6609 232.975 66.8872 232.731 67.0381 232.406C67.5913 231.188 68.1445 229.97 68.6474 228.67C70.483 223.837 72.9975 220.344 76.2161 218.029C79.5353 215.673 83.0053 214.617 86.576 214.374C88.4367 214.211 90.3226 214.333 92.2085 214.293C94.4716 214.252 96.4078 213.074 97.8662 210.15C98.9726 207.997 100.33 206.454 101.94 205.439C103.247 204.586 104.58 203.855 105.862 202.921C106.768 202.23 107.698 201.459 108.477 200.443C109.961 198.494 110.137 196.179 109.106 193.539C108.402 191.711 107.447 190.168 106.29 189.071C105.234 188.096 104.152 187.203 103.021 186.553C97.9416 183.548 92.7114 183.142 87.4058 184.563C80.9686 186.269 75.2103 190.655 70.0053 197.032C69.2257 197.966 68.4462 199.225 67.9685 200.606C66.5101 204.626 65.1774 208.769 63.7692 212.993C66.4598 218.963 66.5604 226.03 66.3592 233.381ZM65.8814 271.68C65.7305 270.34 65.63 268.959 65.3785 267.659C64.3224 261.811 61.6822 258.278 58.4636 255.719C58.187 255.516 57.835 255.516 57.5332 255.516C54.6667 255.678 52.3533 253.729 50.4925 250.398C49.5119 248.611 48.3804 247.068 47.2991 245.484C46.6705 244.591 45.9664 244.184 45.1618 244.184C42.8232 244.184 40.7865 245.484 39.0514 247.962C35.0533 253.769 33.7207 260.917 34.8019 269.365C35.4305 274.279 36.7884 278.503 38.6994 282.362C40.0573 285.083 41.3397 287.845 42.5969 290.647C43.3764 292.393 43.9799 294.343 44.7846 296.049C45.5641 297.633 46.4442 299.095 47.3997 300.354C48.7575 302.181 50.4171 302.547 52.0515 301.45C53.5603 300.435 55.0438 299.257 56.4268 297.876C58.4133 295.927 59.922 293.206 60.8272 289.713C61.9336 285.53 63.1406 281.428 64.7247 277.65C65.454 275.904 65.8563 273.914 65.8814 271.68ZM60.1483 223.837C60.6261 221.725 61.0535 219.857 61.5313 217.826C61.3803 215.958 60.8021 213.805 61.9588 211.977C62.4365 211.977 62.864 211.977 63.3166 211.977C64.7248 208.769 65.9066 205.357 66.8872 201.783C68.572 195.691 69.3766 189.315 69.1252 182.613C68.949 178.227 68.8234 173.8 68.5971 169.373C68.3961 164.906 67.9182 160.479 66.9375 156.255C64.775 146.995 58.5893 140.293 52.6299 140.903C49.5622 141.228 47.2488 143.543 46.243 148.457C45.7149 151.137 45.3629 153.94 45.0612 156.702C44.6588 160.438 43.8794 163.647 41.9432 166.124C39.4538 169.373 38.6743 174.003 38.8503 178.877C38.9761 182.167 39.6298 185.416 40.2333 188.624C40.8619 191.955 41.8929 195.001 43.2004 197.803C44.9103 201.54 46.3687 205.479 46.8465 210.15C46.8968 210.759 46.9972 211.368 47.0727 211.937C47.299 211.977 47.475 211.977 47.6259 212.018C48.9837 212.099 49.4615 212.587 49.7632 214.699C49.9391 215.876 49.9391 217.257 49.7632 218.394C49.4112 220.466 49.7884 222.172 50.2913 223.796C51.2468 223.187 52.152 222.578 53.183 221.887C53.7865 220.263 54.8677 219.857 56.0496 220.384C56.9799 220.791 57.86 221.522 58.7149 222.212C59.243 222.618 59.6706 223.268 60.1483 223.837ZM9.68181 190.858C9.07832 190.493 8.7263 190.249 8.37426 190.046C7.29302 189.315 6.2369 188.502 5.13051 187.853C3.87325 187.122 2.59085 186.634 1.23302 186.837C0.227201 186.959 -0.351144 187.771 -0.527168 189.355C-0.627825 190.086 -0.677898 190.899 -0.602657 191.589C-0.275749 193.864 0.0762737 196.138 0.4786 198.372C0.755205 199.915 1.38382 201.093 2.11303 202.23C3.67203 204.586 5.4825 206.332 7.49413 207.429C8.49992 207.997 9.50574 208.525 10.4864 209.053C13.4787 210.637 16.0938 213.196 18.2814 216.932C20.1925 220.182 21.5252 223.999 22.7321 227.979C23.5116 230.619 24.2911 233.219 25.0958 235.818C25.8753 238.336 26.9565 240.489 28.3144 242.276C29.1442 243.332 30.0494 244.225 31.1306 244.469C34.9024 245.24 38.6742 245.525 42.3957 243.9C42.8232 243.738 43.2255 243.575 43.653 243.494C44.357 243.331 45.0863 243.25 45.6646 243.129C44.9354 240.529 44.0804 238.011 43.5021 235.371C42.5717 231.188 42.4963 226.802 42.8232 222.456C43.1501 218.395 43.9547 214.536 46.4189 212.343C46.4693 212.262 46.4693 212.099 46.5196 212.018C46.2179 208.607 45.5892 205.357 44.4326 202.433C41.8175 195.813 38.624 190.046 34.5756 185.619C29.1191 179.649 23.0339 177.496 16.5213 178.227C14.5349 178.43 12.5987 179.405 10.9894 181.517C9.73212 183.223 9.05322 185.253 9.53098 188.015C9.65681 188.828 9.60657 189.68 9.68181 190.858ZM59.0168 255.11C61.3301 256.897 63.0903 259.658 64.7247 262.664C65.6551 264.37 66.7112 265.913 67.8427 267.253C72.4443 272.736 77.4986 276.838 82.9802 279.397C86.224 280.9 89.4928 282.118 92.9126 281.103C95.8546 280.209 98.3439 278.26 99.8024 273.792C100.532 271.558 101.286 269.325 101.94 267.05C102.719 264.248 103.951 262.258 105.661 261.039C106.466 260.471 107.245 259.943 108.025 259.374C110.338 257.75 110.69 255.841 110.338 251.901C110.288 251.292 110.137 250.723 109.986 250.114C109.257 246.703 108.075 243.778 106.441 241.301C104.605 238.539 102.594 236.143 100.33 234.356C95.2008 230.294 89.8952 227.33 84.1369 226.599C80.6417 226.111 77.2219 226.599 73.8022 227.776C70.659 228.873 68.2199 231.553 66.3592 235.656C66.133 236.143 66.0323 236.793 65.9066 237.361C65.4791 239.392 65.2277 241.585 64.599 243.413C63.4675 246.581 62.1096 249.505 60.777 252.47C60.3243 253.445 59.6454 254.176 59.0168 255.11ZM40.3339 192.28C39.7304 188.868 39.1017 185.863 38.6743 182.817C38.0205 178.024 37.7187 173.15 38.3222 168.317C38.5736 166.408 39.0766 164.5 39.6549 162.712C41.0882 158.448 42.5718 154.224 44.1056 150.041C44.8097 148.132 45.6144 146.304 46.5447 144.72C48.9838 140.659 51.951 139.116 55.421 140.293C60.1735 141.877 64.0207 145.573 66.5101 152.478C67.7673 155.971 68.3708 159.829 68.7731 163.768C69.5275 171.404 69.8544 179.08 69.6784 186.797C69.6029 190.005 69.0246 193.133 68.6726 196.3C68.6222 196.828 68.4964 197.356 68.3708 198.169C68.6474 197.884 68.7731 197.763 68.8737 197.641C74.3302 190.208 80.6166 185.497 87.6069 183.71C93.164 182.329 98.696 182.735 104.002 186.228C105.636 187.284 107.195 188.665 108.427 190.777C108.83 191.467 109.207 192.198 109.534 192.97C110.791 196.097 110.539 198.981 108.704 201.337C107.874 202.393 106.868 203.205 105.862 203.936C104.655 204.829 103.398 205.479 102.166 206.291C100.808 207.185 99.5509 208.444 98.6457 210.312C97.1119 213.44 95.0499 215.105 92.7366 216.079C89.8197 217.298 86.8777 218.273 83.9609 219.532C81.8235 220.425 79.661 221.359 77.574 222.659C75.7384 223.796 74.0034 225.461 72.218 226.883C72.017 227.046 71.866 227.37 71.7403 227.817C72.0672 227.736 72.3941 227.654 72.6958 227.492C76.9453 225.34 81.2955 225.218 85.6959 225.989C90.8507 226.842 95.6534 229.645 100.28 233.259C102.694 235.128 104.857 237.605 106.843 240.57C108.628 243.21 109.911 246.418 110.665 250.155C110.816 250.886 110.967 251.617 111.017 252.348C111.394 256.45 110.64 258.643 108.276 260.349C107.497 260.918 106.692 261.446 105.913 261.974C104.354 263.03 103.272 264.817 102.568 267.294C101.965 269.365 101.311 271.355 100.708 273.427C98.7966 279.844 95.3265 282.037 91.2278 282.484C88.0344 282.809 85.017 281.55 82.0247 280.006C76.3921 277.082 71.1871 272.777 66.5855 266.725C66.3341 266.36 66.0323 266.116 65.6551 265.751C65.8813 267.253 66.0826 268.553 66.2586 269.893C66.6106 272.411 66.2838 274.808 65.5797 277.041C65.3283 277.894 65.0516 278.747 64.6996 279.478C63.4675 281.956 63.216 284.839 63.1406 287.845C62.7383 303.969 65.0516 319.199 68.924 333.861C70.9105 341.415 72.9975 348.928 74.984 356.483C76.7945 363.306 78.0014 370.413 78.8061 377.724C79.133 380.689 79.1833 383.735 79.3593 386.74C79.5855 390.639 79.7868 394.538 79.9879 398.437C80.0131 399.29 80.3148 400.265 79.6359 401.118C79.2587 399.656 79.2587 398.234 79.1581 396.853C78.7307 389.827 78.4038 382.76 77.8254 375.774C77.2722 369.154 75.9395 362.859 74.3302 356.726C72.2683 348.888 70.0807 341.131 68.0439 333.251C65.9317 325.088 64.2219 316.721 63.3418 307.908C62.7131 301.694 62.3611 295.399 62.4868 289.063C62.512 288.332 62.512 287.56 62.2858 286.748C62.1096 287.398 61.9086 288.048 61.7326 288.738C59.8215 296.577 55.924 300.516 51.1967 302.791C49.8137 303.481 48.4307 302.791 47.3243 301.41C46.2683 300.151 45.363 298.526 44.4578 296.983C44.0554 296.333 43.7789 295.44 43.4771 294.627C41.9433 290.566 40.2585 286.708 38.3475 283.093C36.4867 279.6 35.0786 275.661 34.4751 271.112C34.1231 268.553 34.0476 265.873 33.8465 263.273C33.7962 262.664 33.8465 262.055 33.8465 261.08C33.3436 261.649 33.0167 261.974 32.715 262.339C30.301 265.345 27.535 266.766 24.4924 267.375C20.3184 268.188 16.3454 267.05 12.4227 264.776C9.4053 263.03 6.41303 261.243 3.24472 260.227C1.96233 259.78 0.654764 259.252 -0.577353 258.481C-2.89073 256.978 -3.92168 254.013 -3.99712 249.992C-4.07261 244.713 -2.66442 240.935 0.227307 238.499C1.98747 236.996 3.87335 236.143 5.83468 236.021C9.02815 235.818 12.2467 235.858 15.4402 235.981C16.6471 236.021 17.8289 236.63 19.2371 237.036C18.9353 236.468 18.7593 236.102 18.5582 235.818C15.9431 232.325 13.8057 228.142 12.2467 223.228C11.2409 220.06 9.83277 217.379 8.19836 214.942C6.81536 212.871 5.43235 210.84 4.07451 208.728C1.33368 204.423 -0.325906 199.143 -1.05512 193.092C-1.2061 191.874 -1.2061 190.533 -1.1306 189.315C-1.00478 187.244 0.000953589 185.944 1.40907 185.863C3.09382 185.782 4.65281 186.553 6.18667 187.528C7.0919 188.096 7.97197 188.746 9.00292 189.437C8.95259 188.421 8.95261 187.65 8.90228 186.837C8.7513 184.522 9.35491 182.695 10.411 181.192C11.9449 178.999 13.7805 177.862 15.7418 177.537C24.6181 175.993 32.3377 180.177 38.8503 190.046C39.3029 190.696 39.7555 191.427 40.3339 192.28Z" fill="#1C2D46"/>
<path d="M81.4498 497.129C76.7476 478.853 70.6876 462.039 60.8055 449.651C60.8559 450.057 60.9814 450.382 61.1575 450.667C64.4516 456.231 67.4439 462.242 70.0841 468.618C73.7553 477.472 77.2505 486.529 80.8211 495.505C81.0474 496.073 81.2486 496.601 81.4498 497.129ZM81.9527 496.195C82.0282 495.789 82.0533 495.708 82.0533 495.667C81.6761 494.043 81.3241 492.418 80.9469 490.753C79.0107 482.021 76.5214 473.735 72.9759 466.384C71.0648 462.445 69.3801 458.302 67.8714 453.956C64.7534 445.021 60.2775 438.32 54.5444 433.934C48.0569 429.019 41.1923 426.745 34.0762 426.461C32.2406 426.38 30.4301 426.542 28.6197 426.785C25.9291 427.11 23.2134 427.557 20.548 428.085C18.1844 428.532 15.8459 429.141 13.4822 429.669C12.577 429.872 11.6466 430.035 10.7414 430.197C12.6273 430.563 14.5132 430.725 16.4242 430.806C20.4223 430.969 24.4204 431.05 28.4437 431.172C32.0897 431.293 35.7106 431.7 39.3064 432.634C42.701 433.568 46.0705 434.746 49.2388 437.142C58.9197 444.412 66.765 455.215 72.9005 469.308C75.8927 476.132 78.2061 483.564 80.4692 491.078C80.9469 492.702 81.4246 494.327 81.9527 496.195ZM14.0354 431.578C14.0102 431.659 14.0102 431.7 14.0102 431.781C14.3371 431.984 14.664 432.187 15.016 432.35C17.9831 433.649 20.9503 435.03 23.9425 436.249C31.8885 439.457 39.8092 442.828 47.6545 446.646C54.5192 449.976 60.554 455.459 65.6334 463.663C67.1169 466.06 68.5251 468.618 69.9835 471.136C70.2349 471.583 70.4864 472.03 70.7379 472.477C70.8134 472.395 70.8637 472.314 70.9138 472.233C70.7127 471.664 70.5366 471.096 70.2851 470.608C67.7203 465.247 65.231 459.805 62.5656 454.566C59.3973 448.392 55.4997 443.6 51.1748 439.741C45.6679 434.827 39.6331 433.365 33.4976 432.553C31.6872 432.309 29.8767 432.187 28.0411 432.106C23.3893 431.903 18.7124 431.741 14.0354 431.578ZM8.10106 429.669C8.32729 429.588 8.5537 429.385 8.80514 429.385C12.3003 429.222 15.7201 428.126 19.165 427.354C22.4087 426.664 25.6525 426.298 28.8962 425.77C31.8633 425.283 34.8556 425.323 37.7976 425.811C46.1207 427.192 54.0163 430.603 60.7804 439.01C63.8984 442.909 66.4632 447.661 68.3491 453.266C69.8327 457.652 71.5425 461.754 73.4284 465.694C77.0493 473.207 79.5639 481.655 81.5755 490.55C83.0591 497.089 84.6432 503.546 86.2022 510.045C86.2777 510.41 86.328 510.776 86.2022 511.304C85.9005 510.572 85.5736 509.882 85.297 509.151C82.6819 502.328 80.0919 495.423 77.4265 488.681C74.4594 481.208 71.0396 474.385 67.3433 467.846C61.7108 457.937 54.9718 451.032 46.9253 447.255C39.3063 443.681 31.637 440.351 23.9426 437.223C19.6679 435.477 15.4183 433.527 11.1688 431.659C10.3893 431.334 9.58465 431.05 8.80514 430.725C8.52856 430.603 8.30222 430.36 8.05078 430.156C8.07595 429.994 8.0759 429.832 8.10106 429.669Z" fill="#1C2D46"/>
<path d="M79.5122 361.478C79.5877 361.518 79.6631 361.559 79.7384 361.559C79.7887 361.478 79.839 361.437 79.8894 361.315C79.9397 361.112 80.0152 360.909 80.0655 360.665C81.6245 353.477 84.1642 347.263 87.2319 341.577C89.9476 336.5 93.1662 332.357 96.4854 328.337C102.621 320.904 108.203 312.416 112.955 302.668C119.091 290.037 123.24 275.66 126.911 260.836C127.012 260.511 127.037 260.105 127.087 259.699C126.559 260.105 126.157 260.592 125.805 261.201C121.857 267.7 117.406 273.142 112.754 278.259C109.008 282.443 105.06 286.26 101.64 291.175C98.3209 295.886 95.0017 300.638 91.8837 305.674C88.0867 311.766 85.0442 318.752 83.0325 326.874C81.5993 332.763 80.7695 338.856 80.2917 345.151C80.1659 346.775 80.1158 348.4 80.0151 350.187C80.1913 350.024 80.2413 350.024 80.2665 349.984C80.3168 349.618 80.3923 349.293 80.4424 348.928C81.3728 342.551 83.0826 336.743 85.22 331.22C87.4579 325.372 89.9976 319.889 92.9899 315.056C96.7617 309.004 100.559 302.993 104.557 297.348C111.27 287.966 117.884 278.422 123.516 267.253C123.592 267.09 123.717 267.009 123.818 266.887C120.65 273.792 117.205 280.249 113.282 285.976C109.485 291.54 105.588 296.901 101.766 302.465C97.2394 309.085 92.7887 315.949 89.0421 323.828C84.6417 333.007 81.2973 342.958 80.1407 354.573C79.9144 356.888 79.7133 359.204 79.5122 361.478ZM78.5315 381.257C78.456 380.932 78.3805 380.648 78.3304 380.323C77.8275 376.465 78.1794 372.687 78.5818 368.87C78.6825 367.773 78.758 366.636 78.8081 365.499C79.1098 358.757 79.2858 351.974 79.7133 345.232C80.2413 336.622 81.6243 328.377 84.1389 320.701C85.9745 315.097 88.2878 309.979 91.0789 305.552C94.3981 300.272 97.8933 295.196 101.388 290.2C104.833 285.286 108.781 281.509 112.553 277.325C117.054 272.289 121.404 267.009 125.251 260.674C125.754 259.861 126.282 259.13 126.835 258.399C127.112 258.074 127.439 257.831 127.741 257.546C128.218 258.48 127.917 259.252 127.741 259.902C126.031 266.278 124.371 272.695 122.561 278.991C119.996 288.007 116.853 296.536 112.955 304.253C108.379 313.35 103.124 321.432 97.3401 328.54C95.3537 331.017 93.3169 333.454 91.431 336.175C86.8294 342.836 83.1582 350.553 80.8448 359.935C79.8139 364.077 79.3361 368.423 78.9589 372.809C78.7579 375.002 78.7579 377.236 78.6823 379.429C78.6572 380.039 78.6823 380.607 78.6823 381.216C78.632 381.216 78.5818 381.216 78.5315 381.257Z" fill="#1C2D46"/>
<path d="M62.3105 211.774C64.9005 198.331 64.976 184.481 64.8754 170.632C66.0069 184.278 64.4982 207.672 62.3105 211.774Z" fill="#1C2D46"/>
<path d="M55.6484 183.547C56.604 195.813 56.7548 208.2 56.1513 220.587C56.0759 220.628 55.9754 220.628 55.8748 220.628C55.8244 220.222 55.7489 219.775 55.7489 219.328C55.7993 214.982 55.9251 210.637 55.9251 206.291C55.9754 201.011 55.9503 195.772 55.8999 190.533C55.8748 188.218 55.7488 185.903 55.6484 183.547Z" fill="#1C2D46"/>
<path d="M83.2566 251.982C76.9452 248.49 70.6337 244.997 63.9199 243.941C63.9451 243.738 63.9451 243.535 63.9451 243.332C64.2971 243.291 64.6492 243.128 65.0012 243.169C69.7285 243.616 78.8813 248.043 83.2566 251.982Z" fill="#1C2D46"/>
<path d="M91.1289 236.386C93.3417 236.386 95.5293 237.036 97.6918 237.848C100.257 238.782 102.872 239.716 105.261 241.625C106.468 242.6 107.624 243.819 108.756 245.037C109.359 245.646 109.837 246.58 110.239 248.042C109.837 247.799 109.636 247.799 109.535 247.636C107.423 244.143 104.783 242.113 101.992 240.651C98.4462 238.782 94.8001 237.442 91.1289 236.386Z" fill="#1C2D46"/>
<path d="M25.2988 194.513C31.6606 200.606 41.7187 213.318 43.2525 220.303C41.9701 217.907 40.7129 215.389 39.3299 213.074C37.9217 210.718 36.4382 208.485 34.8792 206.332C33.3705 204.22 31.7863 202.311 30.2022 200.362C28.5929 198.372 26.9333 196.463 25.2988 194.513Z" fill="#1C2D46"/>
<path d="M26.7072 209.135C32.6164 216.12 38.6261 222.943 43.4791 231.96C43.3281 232.244 43.303 232.285 43.2529 232.325C43.2278 232.325 43.1774 232.366 43.1523 232.325C43.0516 232.244 42.9512 232.162 42.8757 232.081C42.7499 231.919 42.6495 231.716 42.5236 231.513C41.1658 229.36 39.9085 227.005 38.4501 225.014C35.1058 220.425 31.686 216.039 28.2914 211.571C27.7131 210.8 27.1096 210.109 26.5312 209.378C26.5816 209.297 26.6569 209.216 26.7072 209.135Z" fill="#1C2D46"/>
<path d="M92.0833 201.052C83.2573 204.87 75.2108 211.043 68.5977 221.522C74.9845 210.353 83.0562 204.22 92.0833 201.052Z" fill="#1C2D46"/>
<path d="M48.3842 142.446C48.2583 143.624 48.0824 144.802 48.0824 145.939C48.0321 149.838 47.9566 153.737 48.0321 157.636C48.1076 160.438 48.359 163.281 48.5853 166.083C48.8367 169.333 49.1134 172.541 49.3899 175.79C49.4403 176.359 49.4906 176.887 49.3648 177.496C49.0379 174.694 48.6858 171.891 48.4344 169.048C48.0824 165.19 47.7554 161.332 47.5291 157.473C47.2778 153.087 47.0766 148.66 47.7053 144.314C47.7808 143.664 47.9064 143.015 48.0322 142.365C48.1328 142.405 48.2583 142.446 48.3842 142.446Z" fill="#1C2D46"/>
<path d="M46.3438 178.877C48.6068 191.02 50.543 203.327 51.6997 215.876C49.9144 203.57 48.1291 191.224 46.3438 178.877Z" fill="#1C2D46"/>
<path d="M65.6074 250.926C72.799 255.028 79.035 261.933 85.2207 268.918C78.8339 262.542 72.4972 255.962 65.6074 250.926Z" fill="#1C2D46"/>
<path d="M47.5522 279.356C47.3512 270.746 50.4691 254.216 52.707 252.47C52.6315 252.916 52.6063 253.282 52.5059 253.566C50.1171 260.674 48.6335 268.268 47.678 276.148C47.5522 277.204 47.6026 278.3 47.5522 279.356Z" fill="#1C2D46"/>
<path d="M36.941 244.956C35.5077 246.702 22.7842 250.236 19.2891 250.073C25.173 248.367 31.057 246.662 36.941 244.956Z" fill="#1C2D46"/>
<path d="M67.1152 236.387C70.8619 233.828 74.6588 232.934 78.506 232.609C82.3281 232.244 86.1502 232.528 89.9471 233.503C89.5197 233.503 89.0922 233.544 88.6899 233.503C88.2624 233.503 87.8349 233.422 87.3823 233.422C84.1134 233.341 80.8445 233.016 77.5757 233.259C74.1559 233.503 70.7613 234.518 67.5176 236.427C67.4672 236.468 67.3917 236.427 67.1152 236.387Z" fill="#1C2D46"/>
<path d="M35.4033 215.47C37.8172 219.207 40.206 222.984 42.7457 226.924C42.9468 223.349 44.4053 221.197 45.8386 219.044C44.5813 222.05 42.796 224.649 43.2989 228.751C43.1982 228.792 43.1731 228.832 43.1479 228.873C43.1227 228.873 43.0472 228.914 43.0472 228.873C42.7958 228.467 42.5192 228.102 42.2929 227.695C39.9544 223.715 37.6159 219.776 35.2773 215.795C35.3025 215.674 35.3529 215.592 35.4033 215.47Z" fill="#1C2D46"/>
<path d="M59.9504 273.427C60.4281 277.488 60.7299 281.509 60.3779 285.611C60.1768 287.926 60.0761 290.241 59.8247 292.556C59.6236 294.18 59.3217 294.79 58.668 295.724C59.02 293.287 59.4726 290.931 59.6738 288.535C59.8749 286.057 59.9 283.539 59.9252 281.021C59.9755 278.503 59.9504 275.945 59.9504 273.427Z" fill="#1C2D46"/>
<path d="M88.6914 210.678C92.1614 207.672 100.132 204.667 102.496 205.601C100.183 206.332 97.8443 206.941 95.5309 207.794C93.2427 208.647 90.9545 209.703 88.6914 210.678Z" fill="#1C2D46"/>
<path d="M91.8828 191.467C95.3277 188.705 103.701 187 106.618 188.543C105.989 188.908 105.335 188.746 104.682 188.746C103.978 188.746 103.274 188.706 102.57 188.746C101.891 188.787 101.187 188.827 100.482 188.949C99.7533 189.071 99.0241 189.315 98.2948 189.477C97.5908 189.681 96.9119 189.802 96.2078 189.965C95.5289 190.168 94.85 190.411 94.1459 190.655C93.4921 190.899 92.8132 191.142 91.8828 191.467Z" fill="#1C2D46"/>
<path d="M41.2145 167.464C41.4911 175.303 43.1758 182.654 44.2571 190.208C43.2513 186.553 42.5724 182.735 41.9437 178.877C41.3402 175.14 40.6613 171.363 40.7116 167.464C40.8875 167.464 41.0636 167.464 41.2145 167.464Z" fill="#1C2D46"/>
<path d="M65.8105 222.009C65.9364 221.481 65.9864 220.872 66.1877 220.384C66.8415 218.841 67.445 217.176 68.2245 215.836C70.2864 212.18 72.5998 208.972 75.064 206.088C75.2902 205.804 75.5669 205.56 75.8686 205.398C72.3483 210.637 68.3502 215.105 66.1123 222.253C66.0116 222.172 65.9112 222.09 65.8105 222.009Z" fill="#1C2D46"/>
<path d="M36.8379 279.072C36.8631 278.382 36.8379 277.691 36.9637 277.041C37.9444 271.477 39.3022 266.116 41.1881 261.121C41.2384 260.999 41.3139 260.958 41.515 260.755C40.6601 263.964 39.8051 266.969 39.1011 270.015C38.3719 273.021 37.7935 276.148 37.1397 279.194C37.0391 279.154 36.9386 279.113 36.8379 279.072Z" fill="#1C2D46"/>
<path d="M15.6914 177.699C17.3761 177.821 23.6121 184.441 26.2775 188.827C22.7572 185.131 19.2872 181.517 15.6914 177.699Z" fill="#1C2D46"/>
<path d="M-0.804195 191.589C2.96757 196.016 7.16682 199.265 11.1901 203.083C7.11654 200.118 3.04301 197.072 -0.577899 192.808C-0.754048 192.605 -0.829282 192.158 -0.955078 191.833C-0.90475 191.752 -0.854523 191.67 -0.804195 191.589Z" fill="#1C2D46"/>
<path d="M57.9382 198.412C58.3657 208.484 58.0892 219.125 57.209 221.359C57.4856 213.236 57.7119 205.235 57.9382 198.412Z" fill="#1C2D46"/>
<path d="M61.7068 161.859C61.3798 155.848 61.0278 149.837 60.6758 143.827C60.7513 143.786 60.8016 143.786 60.8769 143.745C60.9775 143.949 61.1534 144.152 61.1786 144.395C61.7318 150.203 61.9079 156.011 61.7068 161.859Z" fill="#1C2D46"/>
<path d="M7.62191 245.078C4.32789 246.134 0.556092 247.312 -3.24084 248.53C-3.4419 248.043 -3.266 247.799 -2.93909 247.677C-1.73211 247.231 -0.525159 246.743 0.681819 246.337C3.14605 245.606 5.58515 244.997 7.62191 245.078Z" fill="#1C2D46"/>
<path d="M33.7734 234.965C30.4542 235.168 23.8913 232 22.5586 229.401C23.4638 229.279 23.9919 230.335 24.6959 230.7C25.4755 231.107 26.2047 231.675 26.9842 232.122C27.7134 232.528 28.4426 232.894 29.1969 233.259C29.9765 233.624 30.7559 234.031 31.5354 234.356C32.2898 234.64 33.0693 234.762 33.7734 234.965Z" fill="#1C2D46"/>
<path d="M32.3398 238.255C36.4385 239.026 40.5121 240.366 44.8119 239.96C43.2026 241.422 36.1368 240.407 32.3398 238.255Z" fill="#1C2D46"/>
<path d="M104.807 262.379C101.94 260.47 99.0736 258.562 96.207 256.653C96.207 256.572 96.2322 256.45 96.2573 256.368C97.238 256.856 98.2438 257.303 99.2245 257.831C100.23 258.359 101.236 258.887 102.192 259.577C103.147 260.267 104.304 260.47 104.958 261.973C104.907 262.095 104.857 262.217 104.807 262.379Z" fill="#1C2D46"/>
<path d="M74.9887 243.575C71.5187 243.007 68.1241 242.073 64.6289 242.397C64.7547 241.423 65.2324 241.626 65.5593 241.585C68.3001 241.423 70.9907 241.91 73.6561 243.007C74.1087 243.169 74.5361 243.372 74.9887 243.575Z" fill="#1C2D46"/>
<path d="M89.2422 270.096C92.1087 272.005 96.3583 277.325 96.7355 279.762C95.8051 278.463 95.101 277.407 94.3467 276.432C93.5169 275.335 92.6871 274.32 91.8573 273.305C91.0526 272.289 90.2731 271.315 89.2422 270.096Z" fill="#1C2D46"/>
<path d="M39.657 245.768C36.4886 247.88 33.1695 249.139 29.7246 249.748C33.0186 248.286 36.3127 246.783 39.5815 245.321C39.6067 245.484 39.6318 245.606 39.657 245.768Z" fill="#1C2D46"/>
<path d="M49.9431 231.269C50.4963 235.98 50.9992 240.447 51.5524 245.118C50.3203 240.935 49.8676 236.67 49.6665 232.325C49.6413 232.04 49.8175 231.756 49.9431 231.269Z" fill="#1C2D46"/>
<path d="M53.7633 252.957C52.7324 257.546 51.7768 261.892 50.8716 266.075C50.7206 263.517 52.6569 254.216 53.7633 252.957Z" fill="#1C2D46"/>
<path d="M31.2067 255.597C29.3962 257.79 25.1215 260.227 23.7637 259.699C26.1776 258.359 28.5916 257.018 31.2067 255.597Z" fill="#1C2D46"/>
<path d="M61.9331 277.772C62.4863 281.834 62.1845 288.454 61.2793 290.363C61.5055 285.936 61.7319 281.59 61.9331 277.772Z" fill="#1C2D46"/>
<path d="M71.2626 207.794C69.2007 211.571 66.8622 214.983 65.3032 219.45C65.2277 218.069 65.6804 217.054 66.1581 216.079C67.6669 213.033 69.3516 210.231 71.2626 207.794Z" fill="#1C2D46"/>
<path d="M60.5507 251.901C60.9531 247.19 60.1484 242.803 59.3438 238.376C60.8022 241.544 61.5817 249.789 60.5507 251.901Z" fill="#1C2D46"/>
<path d="M25.6508 184.523C23.3374 182.126 21.1749 179.893 18.8867 177.496C20.2194 177.456 23.9409 181.395 25.6508 184.523Z" fill="#1C2D46"/>
<path d="M100.205 256.653C103.097 257.221 106.492 259.171 107.196 260.47C107.196 260.511 107.17 260.592 107.145 260.633C107.12 260.673 107.095 260.754 107.07 260.714C104.782 259.373 102.493 258.034 100.205 256.653Z" fill="#1C2D46"/>
<path d="M65.9574 231.147C65.8316 227.289 64.7756 224.243 63.9961 221.075C65.5551 223.796 66.6866 229.116 65.9574 231.147Z" fill="#1C2D46"/>
<path d="M101.844 190.98C104.057 190.411 106.294 189.964 108.482 190.817C108.482 190.98 108.482 191.142 108.482 191.305C106.269 191.183 104.057 191.061 101.844 190.98Z" fill="#1C2D46"/>
<path d="M-3.87102 251.17C-2.26174 249.952 -0.551846 249.342 1.23348 249.342C-0.426126 250.114 -2.11085 250.886 -3.77043 251.657C-3.7956 251.495 -3.84585 251.332 -3.87102 251.17Z" fill="#1C2D46"/>
<path d="M38.0742 281.265C38.1497 278.585 38.7531 276.148 39.5578 273.833C39.1806 276.391 38.8789 278.95 38.0742 281.265Z" fill="#1C2D46"/>
<path d="M50.8463 232.609C51.0222 233.949 51.1983 235.33 51.3743 236.671C51.5251 238.092 51.6761 239.473 51.8521 241.016C51.0726 238.904 50.4188 234.112 50.8463 232.609Z" fill="#1C2D46"/>
<path d="M62.5872 145.451C63.1907 148.132 63.1655 150.975 63.0901 154.305C62.8135 151.056 62.562 148.294 62.3105 145.492C62.4112 145.451 62.4867 145.451 62.5872 145.451Z" fill="#1C2D46"/>
<path d="M61.1562 242.194C61.6592 244.672 62.2878 247.068 61.634 249.667C61.483 247.19 61.3323 244.712 61.1562 242.194Z" fill="#1C2D46"/>
<path d="M56.3798 223.512C55.4745 224.811 54.695 225.989 53.9407 227.086C53.8652 225.705 54.6196 224.527 56.3798 223.512Z" fill="#1C2D46"/>
<path d="M51.752 228.02C53.2858 228.751 53.9144 229.847 53.8139 231.431C53.1601 230.335 52.456 229.157 51.752 228.02Z" fill="#1C2D46"/>
<path d="M51.8516 226.72C53.0585 227.248 53.9638 227.979 54.3912 229.766C53.6117 228.832 52.8071 227.857 51.8516 226.72Z" fill="#1C2D46"/>
<path d="M162.394 222.009C162.444 221.928 162.495 221.887 162.545 221.846C162.444 221.399 162.344 220.953 162.243 220.547C160.785 215.023 159.025 209.743 157.063 204.626C151.531 190.248 143.51 181.435 133.402 177.455C131.641 176.764 129.831 176.318 128.02 175.993C125.229 175.465 122.413 174.977 119.622 174.734C116.68 174.449 113.738 174.449 110.821 174.287C109.891 174.246 108.986 174.124 108.055 174.043C110.796 175.099 113.562 175.83 116.303 176.602C121.106 177.942 125.833 179.607 130.334 182.613C142.932 191.061 153.568 203.732 161.967 221.196C162.092 221.44 162.243 221.725 162.394 222.009ZM109.564 175.465C109.564 175.546 109.539 175.628 109.513 175.709C109.714 175.871 109.891 176.074 110.067 176.156C116.554 180.014 122.614 185.213 128.649 190.533C135.589 196.625 142.479 202.88 149.067 209.947C156.585 218.069 162.52 228.385 166.467 241.626C166.568 242.032 166.744 242.397 166.92 242.885C166.97 242.641 167.021 242.519 167.021 242.438C167.021 242.154 166.996 241.829 166.945 241.544C165.587 232.609 163.274 224.486 159.502 217.501C154.75 208.647 149.369 201.011 143.309 194.554C137.475 188.38 131.34 183.141 124.55 180.298C120.577 178.674 116.529 177.536 112.506 176.196C111.525 175.871 110.544 175.709 109.564 175.465ZM104.56 173.069C104.912 173.069 105.264 172.947 105.591 172.988C107.426 173.109 109.237 173.272 111.047 173.353C114.291 173.515 117.51 173.434 120.728 173.8C125.657 174.328 130.585 174.937 135.363 177.211C145.019 181.76 152.663 190.695 157.843 204.788C159.502 209.256 160.935 213.927 162.394 218.597C163.45 222.09 164.38 225.705 165.386 229.198C166.644 233.543 167.272 238.173 167.901 242.803C168.328 246.012 168.881 249.18 169.384 252.348C169.686 254.338 169.988 256.287 170.264 258.277C170.315 258.724 170.264 259.171 170.139 259.658C170.038 259.171 169.912 258.683 169.812 258.196C166.291 238.539 159.628 222.537 148.991 211.084C141.624 203.164 133.879 196.259 126.134 189.436C119.471 183.588 112.631 178.389 105.44 174.409C105.113 174.246 104.811 173.962 104.484 173.719C104.51 173.515 104.535 173.312 104.56 173.069Z" fill="#71A8CA" fill-opacity="0.89"/>
<path d="M141.895 132.171C136.942 132.577 132.315 130.627 127.94 126.891C122.986 122.707 118.435 117.59 114.185 111.742C110.665 106.99 107.321 101.913 104.228 96.4707C103.272 94.8055 102.417 93.0591 101.537 91.3533C101.587 91.2722 101.663 91.1911 101.713 91.069C102.015 91.6782 102.317 92.2874 102.619 92.856C109.986 105.649 117.982 117.184 127.537 125.591C130.404 128.109 133.396 130.18 136.64 131.033C138.375 131.521 140.135 131.805 141.895 132.171Z" fill="#71A8CA" fill-opacity="0.89"/>
<path d="M150.951 127.297C150.749 127.459 150.548 127.662 150.121 128.068C150.423 126.89 150.699 126.078 150.825 125.225C151.227 122.504 151.73 119.783 151.881 117.021C152.032 113.691 151.931 110.32 151.805 106.949C151.403 96.5516 149.366 86.6824 147.883 76.6101C148.461 79.4937 149.14 82.3773 149.593 85.3421C150.498 90.9469 151.403 96.5516 152.007 102.238C152.535 107.03 152.736 111.904 152.434 116.818C152.233 120.473 151.78 123.926 150.951 127.297Z" fill="#71A8CA" fill-opacity="0.89"/>
<path d="M148.509 99.4763C145.768 82.2559 141.343 66.2132 136.213 50.6174C141.845 65.8884 146.422 81.8497 148.509 99.4763Z" fill="#71A8CA" fill-opacity="0.89"/>
<path d="M160.303 113.691C160.403 113.285 160.479 112.838 160.63 112.432C161.862 108.574 162.49 104.472 162.868 100.207C163.22 96.3893 163.421 92.5716 163.295 88.7133C163.144 83.3522 162.893 77.9912 162.692 72.6301C162.666 72.1427 162.692 71.6553 162.868 71.168C163.069 74.4577 163.371 77.7881 163.471 81.1184C163.647 85.6266 163.723 90.1348 163.723 94.6835C163.697 99.7197 163.169 104.634 162.088 109.345C161.711 110.97 161.334 112.635 160.554 113.894C160.454 113.813 160.378 113.772 160.303 113.691Z" fill="#71A8CA" fill-opacity="0.89"/>
<path d="M145.996 129.409C141.671 130.343 137.748 128.475 134.102 124.901C129.979 120.839 126.332 115.803 122.988 110.198C122.888 110.036 122.812 109.873 122.787 109.63C124.346 111.823 125.855 114.138 127.464 116.169C129.601 118.849 131.764 121.408 134.002 123.764C136.542 126.485 139.383 128.19 142.4 128.962C143.582 129.246 144.814 129.246 145.996 129.409Z" fill="#71A8CA" fill-opacity="0.89"/>
<path d="M99.0996 66.3348C99.1248 66.2942 99.1751 66.2942 99.2003 66.2942C99.2506 66.2537 99.2758 66.2537 99.301 66.2942C99.3765 66.3348 99.4519 66.4159 99.502 66.4974C99.5775 66.6191 99.653 66.7817 99.7031 66.9442C101.991 72.9551 104.757 78.3568 107.624 83.6772C109.233 86.7233 110.918 89.6475 112.628 92.7748C108.831 88.4697 99.2757 69.7464 99.0996 66.3348Z" fill="#71A8CA" fill-opacity="0.89"/>
<path d="M131.637 88.673C135.786 99.8419 139.231 111.742 144.914 121.286C144.838 121.367 144.763 121.489 144.687 121.57C143.782 119.986 142.827 118.484 141.947 116.819C139.055 111.417 136.917 105.244 134.805 99.0296C133.649 95.6992 132.567 92.247 131.461 88.876C131.511 88.7949 131.587 88.7545 131.637 88.673Z" fill="#71A8CA" fill-opacity="0.89"/>
<path d="M164.579 57.0343C162.542 45.5405 160.48 34.0467 158.443 22.5935C161.159 33.7624 163.372 45.1343 164.83 56.9124C164.755 56.953 164.654 56.9937 164.579 57.0343Z" fill="#71A8CA" fill-opacity="0.89"/>
<path d="M150.32 6.51025C150.546 9.15016 150.722 11.7901 150.998 14.43C151.275 17.1105 151.552 19.8317 151.929 22.5122C152.281 25.1115 152.759 27.7108 153.186 30.3101C153.639 32.9094 154.116 35.5494 154.594 38.3518C152.381 32.3409 149.263 10.0031 150.32 6.51025Z" fill="#71A8CA" fill-opacity="0.89"/>
<path d="M125.529 75.1484C129.276 87.3327 132.821 99.6794 137.775 110.767C137.699 110.889 137.599 111.011 137.524 111.132C137.373 110.767 137.222 110.361 137.071 109.995C134.355 104.269 132.067 98.0953 130.106 91.5971C128.496 86.236 126.937 80.8343 125.328 75.4326C125.404 75.3515 125.479 75.2701 125.529 75.1484Z" fill="#71A8CA" fill-opacity="0.89"/>
<path d="M117.357 90.7035C119.897 94.9273 122.361 99.3137 125.002 103.416C127.667 107.477 130.483 111.254 133.4 115.397C127.038 108.492 121.884 100.085 117.357 90.7035Z" fill="#71A8CA" fill-opacity="0.89"/>
<path d="M121.402 43.3474C121.528 44.6065 121.654 45.8655 121.805 47.0839C122.433 51.7952 123.615 56.1409 124.747 60.5272C125.627 64.02 126.582 67.4316 127.362 71.0057C127.085 70.1528 126.783 69.3405 126.507 68.4876C124.47 62.0705 122.66 55.491 121.427 48.546C121.126 46.8808 120.849 45.1751 121.126 43.4287C121.226 43.3881 121.302 43.388 121.402 43.3474Z" fill="#71A8CA" fill-opacity="0.89"/>
<path d="M107.371 121.814C113.356 122.829 119.265 124.372 124.822 128.19C124.797 128.352 124.772 128.556 124.746 128.718C122.886 127.784 121.05 126.809 119.164 125.997C117.203 125.144 115.191 124.494 113.205 123.763C111.269 123.113 109.307 122.464 107.371 121.814Z" fill="#71A8CA" fill-opacity="0.89"/>
<path d="M150.949 127.297C152.911 124.657 153.589 121.042 154.017 117.184C154.52 112.27 154.872 107.274 154.721 102.279C155.199 108.899 154.947 114.991 153.942 121.286C153.615 123.398 153.011 125.226 152.056 126.809C151.729 127.337 151.402 127.622 150.949 127.297Z" fill="#71A8CA" fill-opacity="0.89"/>
<path d="M128.37 132.13C124.372 132.495 113.534 129.409 112.227 127.256C117.658 129.815 123.114 130.749 128.37 132.13Z" fill="#71A8CA" fill-opacity="0.89"/>
<path d="M134.857 20.4408C137.673 26.5735 139.308 33.6404 140.917 40.7073C138.83 34.006 137.12 26.9391 134.404 20.7657C134.555 20.644 134.706 20.5219 134.857 20.4408Z" fill="#71A8CA" fill-opacity="0.89"/>
<path d="M165.307 86.0731C165.307 88.185 165.382 90.2969 165.282 92.3683C165.131 95.9017 164.904 99.3945 164.603 102.887C164.402 105.284 163.823 106.949 163.119 108.045C163.924 104.512 164.527 100.897 164.678 97.1607C164.854 93.4649 164.98 89.769 165.131 86.0325C165.181 86.0325 165.231 86.0731 165.307 86.0731Z" fill="#71A8CA" fill-opacity="0.89"/>
<path d="M149.24 11.4651C149.491 18.0446 150.824 24.1773 151.855 30.4319C150.874 27.4671 150.346 24.2992 149.768 21.1313C148.863 16.1357 148.661 12.7647 149.24 11.4651Z" fill="#71A8CA" fill-opacity="0.89"/>
<path d="M101.109 66.1723C102.945 70.1931 104.78 74.2139 106.616 78.2347C105.157 76.6914 101.109 68.0812 100.883 66.416C100.958 66.3349 101.034 66.2539 101.109 66.1723Z" fill="#71A8CA" fill-opacity="0.89"/>
<path d="M94.9782 76.4069C93.218 73.3609 91.9356 69.868 90.804 66.2534C90.7537 66.0502 90.8292 65.7254 90.8544 65.4411C90.9299 65.4006 91.0054 65.36 91.0806 65.3195C92.3882 69.0153 93.6706 72.7111 94.9782 76.4069Z" fill="#71A8CA" fill-opacity="0.89"/>
<path d="M90.9766 119.824C91.8567 118.402 95.2764 117.753 99.6768 118.118C96.76 118.687 93.8934 119.255 90.9766 119.824Z" fill="#71A8CA" fill-opacity="0.89"/>
<path d="M117.907 123.601C115.141 122.504 112.375 121.408 109.609 120.311C112.501 120.474 115.267 121.57 117.958 123.195C117.932 123.316 117.907 123.439 117.907 123.601Z" fill="#71A8CA" fill-opacity="0.89"/>
<path d="M122.26 60.202C121.128 56.9935 120.298 53.7038 120.047 50.1297C120.148 50.0892 120.223 50.0486 120.298 50.0081C120.952 53.379 121.606 56.7904 122.26 60.202Z" fill="#71A8CA" fill-opacity="0.89"/>
<path d="M166.814 630.669C166.713 627.622 166.688 624.576 166.537 621.53C166.311 616.21 166.06 610.889 165.682 605.569C165.305 599.802 164.777 594.075 164.3 588.308C163.797 582.5 163.193 576.692 162.816 570.844C162.388 564.143 162.036 557.36 161.911 550.618C161.81 544.363 161.986 538.149 162.112 531.895C162.212 527.062 162.363 522.188 162.615 517.355C162.891 512.116 163.243 506.877 163.646 501.637C164.224 494.449 164.878 487.26 165.531 480.112C165.632 479.178 165.557 478.122 165.959 477.35C166.059 477.391 166.16 477.391 166.261 477.431C166.286 477.959 166.336 478.528 166.286 479.056C165.733 485.107 165.154 491.118 164.626 497.17C164.249 501.678 163.922 506.186 163.646 510.735C163.319 516.218 162.942 521.701 162.841 527.224C162.64 536.647 162.439 546.069 162.615 555.451C162.791 564.874 163.595 574.215 164.476 583.515C165.18 591.029 165.833 598.583 166.311 606.137C166.814 614.301 167.091 622.505 167.468 630.668C167.242 630.668 167.015 630.669 166.814 630.669Z" fill="#71A8CA" fill-opacity="0.89"/>
<path d="M88.5364 131.642C88.6622 131.724 88.7375 131.805 88.813 131.764C89.4165 131.52 90.0451 131.236 90.6486 130.911C95.5268 128.515 100.531 127.784 105.585 128.718C108.778 129.327 111.947 130.261 115.115 131.033C115.392 131.114 115.668 131.114 115.945 131.155C115.97 131.033 115.995 130.952 116.045 130.83C115.945 130.749 115.844 130.667 115.744 130.586C112.902 128.555 110.086 126.443 107.219 124.575C105.082 123.235 102.794 123.072 100.506 123.682C96.3064 124.86 92.4843 127.621 88.8634 131.155C88.7627 131.276 88.6622 131.439 88.5364 131.642ZM148.08 28.32C147.98 28.3606 147.904 28.3606 147.804 28.3606C147.829 29.3353 147.804 30.31 147.904 31.2442C148.105 33.3561 148.307 35.468 148.634 37.5394C150.595 50.5359 153.286 63.1263 156.353 75.5136C157.284 79.2501 158.038 83.1085 158.868 86.8856C158.943 87.2105 159.044 87.4542 159.144 87.8197C159.27 87.576 159.345 87.4543 159.345 87.3729C159.572 82.7429 159.622 78.1129 159.144 73.4829C158.088 63.0044 155.75 53.3383 152.456 44.2001C150.62 39.2046 148.835 34.1685 148.08 28.32ZM79.8864 135.948C80.9928 136.8 81.722 136.719 82.8284 135.704C85.2172 133.551 87.5809 131.358 89.9445 129.165C92.4339 126.891 95.0239 125.104 97.7647 123.804C101.536 122.057 105.233 122.139 108.879 124.697C110.262 125.672 111.67 126.566 113.028 127.703C118.434 132.333 124.217 134.77 130.303 135.216C133.119 135.46 135.91 135.135 138.651 133.917C139.003 133.754 139.355 133.511 139.707 133.308C139.682 133.145 139.682 133.023 139.657 132.901C139.279 132.861 138.927 132.78 138.55 132.78C134.276 132.78 130.127 131.48 126.053 129.368C120.546 126.566 115.492 122.301 110.815 116.94C109.533 115.478 108.15 114.585 106.616 114.3C103.448 113.691 100.329 114.138 97.3372 116.047C95.0741 117.509 92.7859 119.052 90.5228 120.596C88.3603 122.098 86.3236 124.007 84.4628 126.363C82.8032 128.475 81.3197 130.79 80.3893 133.876C80.1882 134.526 80.0625 135.217 79.8864 135.948ZM158.34 116.128C158.39 116.209 158.465 116.291 158.516 116.372C158.742 116.128 158.968 115.965 159.144 115.641C161.357 111.579 163.218 107.152 164.4 102.035C165.456 97.4048 165.934 92.5717 166.336 87.698C166.864 81.1185 166.738 74.539 165.682 68.0408C165.079 64.1418 164.5 60.2022 164.023 56.2627C163.143 48.6678 162.866 40.9511 162.79 33.2344C162.765 27.9546 162.413 22.756 161.357 17.7198C160.376 13.1304 159.144 8.82534 157.133 5.21067C156.378 3.87042 155.498 2.65197 154.568 1.67724C153.462 0.580669 152.456 0.986793 151.651 2.65197C151.173 3.62674 150.746 4.80454 150.52 5.98231C149.74 9.8407 149.061 13.699 148.407 17.598C148.231 18.6133 148.181 19.6693 148.131 20.6847C147.955 25.9239 148.558 30.9195 150.042 35.5901C150.947 38.4737 151.953 41.3167 152.959 44.119C155.549 51.2671 157.585 58.8214 158.817 66.9036C159.672 72.6302 160.201 78.438 159.924 84.327C159.698 89.485 159.622 94.6025 159.773 99.7198C159.924 104.837 159.521 109.873 158.516 114.747C158.44 115.194 158.39 115.681 158.34 116.128ZM147.527 129.449C147.527 129.246 147.502 129.084 147.502 128.881C147.301 128.8 147.1 128.678 146.873 128.596C145.943 128.19 144.962 127.906 144.032 127.419C141.618 126.038 139.481 123.804 137.444 121.286C131.484 113.853 127.109 104.35 123.765 93.5464C121.552 86.3577 118.635 80.1843 114.788 75.0669C112.852 72.4676 110.74 70.3151 108.426 68.7311C106.566 67.5127 104.629 66.4568 102.593 66.9035C100.656 67.3097 98.8208 66.7818 97.0103 65.8475C95.6273 65.1571 94.194 64.7916 92.7356 65.0352C91.2772 65.279 90.3971 66.4161 90.1708 68.7311C90.02 70.4776 90.0201 72.3052 90.196 74.011C90.548 77.585 91.4281 80.9154 92.635 84.0427C98.3681 99.0699 105.761 111.457 115.291 120.352C120.27 125.022 125.525 128.556 131.183 130.424C135.809 131.967 140.436 132.292 145.063 130.587C145.893 130.262 146.697 129.815 147.527 129.449ZM159.094 100.329C159.144 93.0184 158.314 85.8703 156.529 79.0065C155.875 76.5697 155.272 74.1328 154.694 71.696C152.883 63.8168 151.098 55.9377 149.313 48.0991C147.829 41.6415 145.692 35.7118 143.278 30.0664C142.196 27.5077 140.939 25.274 139.305 23.5682C137.394 21.5375 135.332 21.0095 133.119 21.903C131.082 22.7559 129.247 24.2992 127.587 26.4112C125.248 29.4572 123.715 33.3968 122.633 37.8643C120.898 45.0531 120.094 52.5261 119.742 60.2021C119.39 67.7158 119.993 74.9857 121.502 82.0526C123.363 90.6628 125.978 98.6638 129.272 106.056C132.113 112.351 135.457 117.752 139.405 122.22C141.14 124.169 142.951 125.753 144.962 126.769C148.055 128.353 150.897 127.703 153.587 124.657C155.473 122.504 156.655 119.661 157.46 116.29C158.692 111.173 159.144 105.893 159.094 100.329ZM166.612 371.956C166.059 372.038 166.059 371.469 166.034 371.022C165.883 369.073 165.707 367.123 165.632 365.174C165.154 353.152 165.079 341.09 165.431 329.027C165.682 321.108 166.084 313.188 166.562 305.268C167.04 297.673 167.719 290.119 168.297 282.524C168.8 275.782 169.253 269.04 169.731 262.298C170.686 249.586 171.088 236.833 170.963 224.04C170.912 216.973 170.686 209.865 170.334 202.798C169.655 189.03 168.171 175.546 165.179 162.55C163.293 154.427 160.754 146.832 158.038 139.4C156.001 133.876 152.858 131.236 148.961 130.708C148.583 130.668 148.181 130.627 147.829 130.789C145.566 131.52 143.253 131.967 141.09 133.389C137.494 135.826 133.697 136.394 129.825 136.029C125.399 135.582 121.074 133.917 116.724 132.495C111.167 130.627 105.585 128.921 99.8518 129.287C94.9485 129.612 90.2715 131.602 85.7957 134.77C84.815 135.46 83.8595 136.232 82.8788 136.8C82.1999 137.166 81.4707 137.41 80.7666 137.45C79.5596 137.45 79.0316 136.272 79.5848 134.567C80.2385 132.576 80.9677 130.586 81.8981 128.962C84.3121 124.657 87.3547 121.773 90.6236 119.539C92.5597 118.158 94.5462 116.899 96.5075 115.559C99.7261 113.366 103.07 112.838 106.515 113.366C106.792 113.407 107.094 113.366 107.622 113.366C107.194 112.716 106.943 112.31 106.641 111.944C100.682 104.309 96.0549 94.8459 92.0317 84.5299C90.8247 81.4433 89.9446 78.1129 89.5926 74.4982C89.3915 72.6706 89.3412 70.7211 89.4919 68.8529C89.7433 65.7255 90.9 64.1822 92.8614 63.9385C94.521 63.7763 96.1051 64.304 97.6893 65.0758C99.1477 65.7662 100.606 66.2129 102.165 65.888C104.78 65.3194 107.194 66.6191 109.508 68.3655C113.732 71.5334 117.076 76.4071 120.043 82.0931C120.219 82.4585 120.421 82.8647 120.622 83.2303C120.647 83.3114 120.748 83.3114 120.923 83.4335C120.873 82.9461 120.873 82.5399 120.772 82.1744C118.509 71.7772 118.585 61.1769 119.792 50.4548C120.446 44.6063 121.351 38.8391 123.111 33.5593C125.399 26.7361 128.844 22.2685 133.597 20.644C135.658 19.9535 137.595 20.6034 139.38 22.3498C140.964 23.8931 142.322 25.8832 143.353 28.3607C144.761 31.7316 146.069 35.2651 147.401 38.7173C147.628 39.2859 147.829 39.8544 148.03 40.4231C148.105 40.3825 148.206 40.3825 148.281 40.3419C148.231 39.7327 148.156 39.1235 148.105 38.5549C147.804 35.915 147.427 33.275 147.2 30.5945C146.697 24.7055 147.376 19.0195 148.432 13.4147C148.809 11.5059 149.086 9.51579 149.463 7.60689C149.815 5.98232 150.142 4.31714 150.67 2.89565C151.852 -0.27226 153.537 -0.840828 155.398 1.18987C156.253 2.0834 157.007 3.26117 157.661 4.52022C160.678 10.2062 162.262 16.9482 163.017 24.2587C163.293 27.0205 163.444 29.8635 163.444 32.6658C163.494 44.4846 164.349 56.1002 166.285 67.5128C167.467 74.3359 167.618 81.281 166.939 88.2666C166.562 91.9625 166.21 95.6584 165.657 99.2325C164.525 106.421 162.061 112.473 158.893 117.712C156.001 122.464 155.624 127.825 157.032 133.754C157.409 135.379 157.962 136.922 158.516 138.466C161.156 146.061 163.796 153.574 165.682 161.778C167.643 170.348 169.001 179.161 169.881 188.177C171.214 201.864 171.717 215.633 171.616 229.482C171.566 236.59 171.365 243.697 171.013 250.764C170.585 259.455 169.957 268.147 169.353 276.838C168.825 284.271 168.146 291.703 167.643 299.176C166.99 308.355 166.436 317.534 166.16 326.753C165.858 337.15 165.808 347.547 166.034 357.985C166.109 362.128 166.411 366.271 166.612 370.413C166.637 370.901 166.612 371.428 166.612 371.956Z" fill="#71A8CA" fill-opacity="0.89"/>
<path d="M168.276 409.484C168.024 408.793 167.295 399.655 167.295 396.975C167.295 396.569 167.37 396.162 167.571 395.756C168.2 399.777 168.376 403.839 168.552 407.9C168.577 408.428 168.728 409.118 168.276 409.484Z" fill="#71A8CA" fill-opacity="0.89"/>
<path d="M136.919 438.442C136.768 438.848 136.642 439.213 136.491 439.619C136.717 439.823 136.894 440.026 137.095 440.147C139.81 441.772 142.576 443.072 145.443 443.762C148.837 444.574 152.257 445.143 155.702 445.63C158.192 445.996 160.731 446.037 163.221 446.28C155.576 447.052 148.008 445.833 140.565 442.869C139.031 442.259 137.497 441.61 135.988 440.066C137.195 436.208 136.994 432.228 136.567 428.166C137.195 431.172 137.572 434.218 137.12 437.589C142.601 439.904 148.209 440.838 153.816 441.772C148.133 441.894 142.526 440.797 136.919 438.442Z" fill="#1C2D46"/>
<path d="M138.678 433.081C139.03 433.081 139.382 433.081 139.734 433.081C141.569 433.04 143.455 433.243 145.291 432.918C148.56 432.349 151.829 431.659 155.047 430.603C160.931 428.735 166.664 425.851 172.322 422.683C172.398 422.643 172.473 422.683 172.574 422.846C171.719 423.455 170.864 424.105 170.009 424.592C163.748 428.248 157.386 431.172 150.823 432.837C147.328 433.731 143.782 434.259 140.212 433.974C139.684 433.934 139.181 433.73 138.678 433.609C138.678 433.406 138.678 433.243 138.678 433.081Z" fill="#1C2D46"/>
<path d="M116.149 343.323C116.048 345.435 116.023 347.588 115.898 349.74C115.546 356.198 115.395 362.656 115.47 369.154C115.52 372.362 115.772 375.571 115.923 378.779C115.998 380.81 116.099 382.841 116.149 384.831C116.275 388.974 116.375 393.116 116.375 397.218C116.099 393.035 115.797 388.892 115.571 384.709C115.37 381.054 115.219 377.439 115.093 373.784C114.992 370.982 114.841 368.179 114.917 365.377C115.068 359.691 115.319 354.005 115.596 348.359C115.671 346.654 115.898 344.988 116.074 343.283C116.099 343.283 116.124 343.323 116.149 343.323Z" fill="#1C2D46"/>
<path d="M141.822 487.138C143.583 492.174 144.664 497.535 145.569 503.059C146.273 507.201 146.851 511.385 147.103 515.69C147.279 518.655 147.053 521.538 146.675 524.422C146.65 524.584 146.575 524.747 146.499 524.909C146.449 524.95 146.374 524.99 146.198 525.112C146.172 524.625 146.072 524.178 146.122 523.772C146.902 518.452 146.499 513.212 145.77 507.973C144.789 500.866 143.507 493.88 141.822 487.138Z" fill="#1C2D46"/>
<path d="M120.249 468.333C117.257 481.452 116.301 495.017 116.527 508.866C115.748 494.895 116.578 481.249 120.249 468.333Z" fill="#1C2D46"/>
<path d="M110.264 494.002C111.446 482.712 113.985 472.274 118.159 462.973C118.386 462.445 118.612 461.714 119.366 461.917C118.612 463.623 117.883 465.166 117.254 466.791C116.6 468.456 115.972 470.162 115.418 471.908C114.84 473.655 114.337 475.482 113.834 477.269C113.357 479.097 112.904 480.924 112.451 482.752C112.024 484.62 111.622 486.489 111.269 488.357C110.892 490.225 110.591 492.093 110.264 494.002Z" fill="#1C2D46"/>
<path d="M137.977 467.846C143.458 475.238 147.054 484.62 149.116 495.504C149.996 500.135 150.373 505.496 149.946 507.486C149.82 499.606 148.286 492.58 146.249 485.757C144.187 478.934 141.17 473.289 137.977 467.846Z" fill="#1C2D46"/>
<path d="M124.042 352.705C122.583 364.443 121.98 376.343 121.1 388.161C121.15 385.846 121.2 383.531 121.301 381.216C121.376 379.104 121.451 377.033 121.577 374.962C122.005 367.935 122.357 360.909 123.337 354.005C123.413 353.517 123.539 353.071 123.639 352.583C123.765 352.624 123.916 352.665 124.042 352.705Z" fill="#1C2D46"/>
<path d="M114.788 432.309C115.844 429.06 121.577 420.531 124.293 418.257C123.539 419.353 122.784 420.45 122.03 421.546C122.332 422.684 121.954 423.496 121.502 424.227C120.094 426.461 118.686 428.654 117.252 430.806C116.448 432.025 115.568 433.162 114.688 434.259C116.749 430.157 119.39 426.907 121.502 422.846C121.426 422.724 121.351 422.602 121.276 422.481C120.169 424.105 119.063 425.689 117.956 427.354C116.875 428.979 115.844 430.644 114.788 432.309Z" fill="#1C2D46"/>
<path d="M142.902 454.525C149.717 459.765 156.883 461.674 163.873 464.192C159.247 464.598 144.26 457.937 142.902 454.525Z" fill="#1C2D46"/>
<path d="M176.397 458.221C173.078 458.424 169.734 458.789 166.414 458.708C161.939 458.627 157.488 457.896 153.188 455.621C153.062 455.54 152.937 455.459 152.836 455.215C155.376 455.946 157.94 456.921 160.505 457.368C163.12 457.855 165.761 457.855 168.376 457.977C171.041 458.058 173.706 457.977 176.372 457.977C176.397 458.058 176.397 458.14 176.397 458.221Z" fill="#1C2D46"/>
<path d="M168.977 378.495C167.317 381.826 155.775 392.467 152.18 393.929C157.913 389.096 163.369 384.059 168.574 378.333C168.65 378.252 168.775 378.414 168.977 378.495Z" fill="#1C2D46"/>
<path d="M126.127 462.973C128.994 473.898 128.893 485.554 129.195 497.129C128.516 485.676 128.39 474.06 126.127 462.973Z" fill="#1C2D46"/>
<path d="M132.541 401.321C132.717 400.833 132.818 400.265 133.019 399.818C133.497 398.762 133.974 397.665 134.528 396.731C137.595 391.33 140.889 386.375 144.535 382.029C144.661 381.907 144.762 381.785 144.938 381.745C140.738 388.121 136.338 394.091 132.843 401.564C132.742 401.483 132.642 401.402 132.541 401.321Z" fill="#1C2D46"/>
<path d="M107.699 385.359C107.473 384.628 107.196 383.938 107.071 383.166C106.316 378.739 105.512 374.312 104.883 369.845C104.33 365.824 103.978 361.722 103.55 357.66C103.525 357.214 103.55 356.726 103.55 355.995C104.883 365.946 105.964 375.734 107.976 385.197C107.875 385.237 107.775 385.278 107.699 385.359Z" fill="#1C2D46"/>
<path d="M67.9434 418.094C70.6339 416.226 80.9938 416.388 85.8719 418.013C82.8796 417.85 79.8622 417.485 76.8448 417.526C73.8776 417.526 70.9105 417.891 67.9434 418.094Z" fill="#1C2D46"/>
<path d="M178.385 411.19C178.21 411.474 178.159 411.596 178.109 411.596C174.966 411.312 172.074 413.058 169.107 414.439C167.095 415.373 165.109 416.388 163.047 417.16C163.726 416.673 164.405 416.185 165.109 415.739C168.478 413.708 171.898 411.961 175.443 410.865C176.223 410.621 177.053 410.743 177.857 410.743C178.008 410.743 178.184 410.987 178.385 411.19Z" fill="#1C2D46"/>
<path d="M128.089 402.742C127.812 400.711 127.511 398.721 127.209 396.487C127.787 389.055 129.019 381.663 130.654 374.393C130.327 376.627 130.025 378.901 129.698 381.135C128.994 386.131 128.315 391.126 127.611 396.122C127.561 396.487 127.687 396.894 127.737 397.3C127.913 399.087 128.114 400.874 128.315 402.701C128.24 402.701 128.165 402.742 128.089 402.742Z" fill="#1C2D46"/>
<path d="M146.298 344.542C143.104 347.954 141.244 353.03 139.106 357.742C138.427 359.285 137.774 360.91 136.994 362.412C137.07 362.047 137.12 361.681 137.246 361.356C138.905 356.28 140.967 351.609 143.306 347.263C143.859 346.248 144.563 345.395 145.217 344.583C145.468 344.258 145.845 343.77 146.298 344.542Z" fill="#1C2D46"/>
<path d="M87.6604 362.168C89.4457 369.723 91.91 376.343 94.5502 382.638C92.1363 379.836 87.1575 365.58 87.6604 362.168Z" fill="#1C2D46"/>
<path d="M96.8398 460.698C101.441 457.855 104.811 452.372 108.407 447.336C108.457 447.417 108.507 447.499 108.558 447.58C107.451 449.408 106.395 451.276 105.213 452.982C103.177 455.865 101.089 458.708 98.575 460.455C97.6949 461.064 97.6948 461.064 96.8398 460.698Z" fill="#1C2D46"/>
<path d="M89.166 440.067C94.1196 438.726 99.6013 437.264 105.108 435.761C103.449 437.67 92.3343 440.473 89.166 440.067Z" fill="#1C2D46"/>
<path d="M129.427 433.528C128.899 438.564 128.22 443.478 125.731 447.215C126.184 448.271 126.611 449.286 127.039 450.301C126.988 450.382 126.913 450.464 126.862 450.545C126.334 449.651 125.831 448.758 125.303 447.824C125.152 448.596 125.152 448.596 125.982 452.088C125.731 451.56 125.479 450.992 125.228 450.423C125.002 449.814 124.8 449.205 124.574 448.555C124.197 448.636 123.845 448.677 123.367 448.758C124.122 447.905 124.8 447.296 125.379 446.524C126.787 444.575 127.692 442.016 128.271 439.214C128.673 437.305 129.05 435.396 129.427 433.528Z" fill="#1C2D46"/>
<path d="M139.283 427.395C143.885 425.08 148.285 421.871 152.761 419.028C150.825 421.628 140.918 427.882 139.283 427.395Z" fill="#1C2D46"/>
<path d="M132.795 489.859C133.926 499.81 134.832 509.76 133.725 519.873C133.725 514.837 133.851 509.801 133.7 504.805C133.524 499.81 133.097 494.814 132.795 489.859Z" fill="#1C2D46"/>
<path d="M124.951 462.404C126.309 465.775 127.441 479.503 127.265 487.991C127.013 484.62 126.762 480.153 126.384 475.766C125.982 471.38 125.454 467.075 124.951 462.404Z" fill="#1C2D46"/>
<path d="M115.393 519.954C114.237 517.639 114.111 506.755 115.016 499.81C115.041 506.633 114.765 513.334 115.393 519.954Z" fill="#1C2D46"/>
<path d="M109.055 424.146C109.281 417.688 113.505 409.159 116.724 406.885C114.888 409.24 113.329 411.799 111.972 414.642C110.614 417.526 109.985 420.937 109.055 424.146Z" fill="#1C2D46"/>
<path d="M139.71 453.794C135.586 452.454 129.4 447.742 128.193 444.818C130.155 446.564 131.915 448.23 133.75 449.611C135.611 451.073 137.547 452.291 139.71 453.794Z" fill="#1C2D46"/>
<path d="M120.321 339.871C119.819 346.654 119.291 353.396 118.763 360.463C118.536 354.168 119.416 341.333 120.321 339.871Z" fill="#1C2D46"/>
<path d="M127.616 415.982C129.376 419.312 129.2 428.938 127.439 433.933C128.068 427.963 128.973 421.993 127.616 415.982Z" fill="#1C2D46"/>
<path d="M136.514 359.366C137.369 353.396 140.914 345.07 142.926 344.176C142.725 345.517 141.92 345.923 141.518 346.816C141.065 347.75 140.537 348.644 140.109 349.619C139.657 350.634 139.255 351.69 138.827 352.746C138.425 353.761 138.048 354.777 137.696 355.833C137.318 356.888 136.991 357.944 136.514 359.366Z" fill="#1C2D46"/>
<path d="M115.395 410.702C115.998 409.849 116.551 408.915 117.205 408.184C118.915 406.113 120.776 404.569 122.913 403.96C123.692 403.757 124.397 403.919 125.151 405.016C124.824 405.097 124.623 405.26 124.497 405.179C123.315 404.488 122.209 405.016 121.153 405.707C119.116 407.006 117.205 408.671 115.395 410.702Z" fill="#1C2D46"/>
<path d="M152.636 465.572C149.971 465.125 142.578 460.008 141.975 458.221C145.52 460.658 149.116 463.135 152.636 465.572Z" fill="#1C2D46"/>
<path d="M144.133 507.201C145.139 513.822 145.29 524.422 144.259 526.249C144.334 524.219 144.485 522.188 144.485 520.157C144.51 518.005 144.384 515.852 144.309 513.7C144.259 511.628 144.183 509.557 144.133 507.201Z" fill="#1C2D46"/>
<path d="M109.41 426.299C108.505 426.38 107.952 425.852 107.499 425.243C105.764 422.887 104.08 420.45 102.395 417.973C101.867 417.201 101.439 416.186 101.037 415.13C102.37 417.079 103.627 419.11 105.01 420.937C106.368 422.765 107.826 424.39 109.41 426.299Z" fill="#1C2D46"/>
<path d="M134.982 423.455C135.284 425.201 135.636 426.948 135.887 428.735C136.39 432.471 136.466 436.208 135.586 439.823C135.359 440.797 135.083 441.772 134.354 442.3C136.667 434.34 135.837 431.456 134.982 423.455Z" fill="#1C2D46"/>
<path d="M102.17 434.299C98.1969 435.842 94.1485 435.436 90.1504 435.396C94.1233 434.868 98.1214 434.34 102.12 433.852C102.12 433.852 102.145 434.015 102.17 434.299Z" fill="#1C2D46"/>
<path d="M112.955 389.055C113.986 394.01 114.137 398.965 114.338 403.879C114.363 404.163 114.187 404.448 113.885 404.691C113.584 399.574 113.282 394.497 112.955 389.055Z" fill="#1C2D46"/>
<path d="M112.125 443.153C112.326 446.077 109.108 453.185 106.744 455.378C108.731 451.519 110.969 447.986 112.125 443.153Z" fill="#1C2D46"/>
<path d="M103.324 370.291C104.556 376.424 105.763 382.516 107.021 388.73C106.015 387.187 103.978 376.911 103.324 370.291Z" fill="#1C2D46"/>
<path d="M130.455 462.892C130.631 463.054 130.832 463.176 130.933 463.379C131.235 464.151 131.536 464.882 131.763 465.694C132.869 469.349 133.749 473.126 134.378 477.066C134.428 477.269 134.403 477.513 134.403 477.553C133.12 472.801 131.788 467.887 130.455 462.892Z" fill="#1C2D46"/>
<path d="M131.766 400.427C131.967 397.869 135.085 390.842 137.172 388.284C135.286 392.508 133.551 396.447 131.766 400.427Z" fill="#1C2D46"/>
<path d="M171.367 449.733C174.234 449.083 177.176 448.392 180.369 447.621C179.389 449.164 174.636 450.098 171.367 449.733Z" fill="#1C2D46"/>
<path d="M77.1234 413.221C74.8603 413.545 71.9435 413.952 68.9512 414.358C70.0324 412.774 73.7539 412.408 77.1234 413.221Z" fill="#1C2D46"/>
<path d="M103.275 422.44C105.413 424.389 107.525 426.339 109.863 428.491C109.461 428.532 109.235 428.694 109.084 428.572C106.896 427.151 104.885 425.201 103.275 422.44Z" fill="#1C2D46"/>
<path d="M167.369 374.718C166.991 376.059 163.723 380.12 161.51 381.866C163.371 378.861 166.665 374.84 167.369 374.718Z" fill="#1C2D46"/>
<path d="M90.0226 378.13C88.1116 374.556 86.3765 369.113 86.4268 366.88C87.6841 370.819 88.8408 374.474 90.0226 378.13Z" fill="#1C2D46"/>
<path d="M125.001 355.548C125.052 359.894 124.473 364.159 124.121 368.464C123.92 365.661 124.423 357.295 125.001 355.548Z" fill="#1C2D46"/>
<path d="M127.239 407.006C127.088 405.463 126.963 403.594 126.711 401.726C126.485 399.858 126.183 398.03 125.932 396.284C126.963 397.259 127.516 401.767 127.239 407.006Z" fill="#1C2D46"/>
<path d="M121.68 449.692C122.057 452.576 122.434 455.419 122.786 458.343C122.057 456.596 121.278 451.52 121.68 449.692Z" fill="#1C2D46"/>
<path d="M135.811 504.156C136.389 506.999 136.565 509.923 136.389 512.847C136.313 512.847 136.238 512.888 136.163 512.888C136.037 509.963 135.911 507.08 135.811 504.156Z" fill="#1C2D46"/>
<path d="M130.43 409.565C130.907 407.413 132.592 406.519 135.258 406.804C133.523 407.372 131.863 407.778 130.43 409.565Z" fill="#1C2D46"/>
<path d="M176.145 446.118C177.477 445.59 178.684 444.859 180.193 444.778C179.338 445.915 178.156 446.28 176.145 446.118Z" fill="#1C2D46"/>
<path d="M120.826 454.728C120.625 453.063 120.449 451.438 120.248 449.813C120.349 449.773 120.474 449.732 120.575 449.732C120.977 451.276 120.801 453.022 121.103 454.647C121.027 454.647 120.927 454.687 120.826 454.728Z" fill="#1C2D46"/>
<path d="M131.863 400.305C130.455 396.893 125.602 395.309 123.465 397.706C125.526 398.762 125.602 401.361 125.501 404.123C125.426 406.56 125.602 409.037 124.848 411.352C125.174 411.677 125.401 411.961 125.652 412.205C126.834 413.302 127.488 413.261 128.468 411.758C129.047 410.865 129.55 409.849 130.078 408.875C127.764 404.123 129.223 401.077 131.863 400.305ZM139.18 421.952C139.18 420.165 139.231 418.378 139.155 416.591C139.029 412.977 138.527 409.524 137.37 406.316C136.188 403.026 134.302 401.605 132.039 401.442C131.536 401.402 130.983 401.645 130.555 402.011C129.499 402.864 129.147 404.894 129.751 406.478C130.279 407.859 130.908 409.118 131.486 410.459C132.617 409.646 133.699 409.931 134.73 410.824C135.71 411.717 136.465 413.058 137.068 414.561C137.998 416.835 138.602 419.353 139.18 421.952ZM111.973 378.779C111.898 378.698 111.847 378.576 111.772 378.455C111.345 378.983 110.817 379.429 110.515 380.12C109.735 381.866 108.88 383.572 108.352 385.521C106.14 393.522 105.586 401.848 106.617 410.459C106.768 411.799 106.919 413.261 107.699 414.52C107.824 410.54 108.503 407.006 109.308 403.513C110.289 399.168 110.766 394.741 110.666 390.151C110.59 386.212 110.791 382.354 111.973 378.779ZM144.989 472.923C144.989 473.045 144.989 473.126 144.989 473.207C145.064 473.329 145.14 473.492 145.24 473.532C149.414 476.335 153.739 478.244 158.265 478.325C160.554 478.365 162.867 478.122 165.155 477.634C168.852 476.822 172.347 474.832 175.465 471.38C175.817 470.974 176.144 470.567 176.496 470.121C176.32 469.958 176.194 469.958 176.119 470.04C175.892 470.161 175.691 470.283 175.49 470.446C172.573 473.004 169.48 473.086 166.312 472.03C162.59 470.811 158.869 470.892 155.147 471.989C152.557 472.761 149.942 473.289 147.302 473.208C146.523 473.208 145.768 473.045 144.989 472.923ZM122.056 461.835C122.107 461.957 122.132 462.079 122.182 462.16C122.459 462.201 122.71 462.282 122.987 462.241C123.993 462.16 124.973 461.998 125.979 461.835C128.167 461.551 130.254 462.363 132.366 463.054C133.724 463.5 135.132 463.866 136.54 463.298C138.25 462.607 139.834 461.47 141.167 459.561C141.77 458.708 142.399 457.733 142.474 456.068C141.293 457.124 140.186 456.962 139.03 456.556C138.024 456.231 136.993 455.987 135.962 456.637C135.459 456.962 135.006 456.758 134.654 456.149C134.252 455.54 133.875 454.85 133.498 454.2C132.844 453.144 132.215 452.047 131.561 450.991C130.229 448.92 128.142 449.814 127.312 451.601C126.834 452.616 126.407 453.672 125.979 454.687C124.873 457.368 124.068 460.414 122.056 461.835ZM104.279 343.486C106.014 344.257 107.045 342.673 108.076 341.211C108.629 340.399 109.157 339.546 109.76 338.815C110.515 337.881 111.345 337.069 112.149 336.216C112.35 336.013 112.577 335.85 112.954 335.485C110.666 335.038 108.679 335.729 106.768 336.947C102.393 339.749 98.5959 344.014 95.3018 349.415C93.592 352.258 91.8821 355.101 90.1722 357.904C89.9208 358.351 89.6944 358.797 89.4179 359.285C89.5688 359.366 89.6692 359.447 89.7196 359.406C92.2341 357.985 94.8744 357.822 97.4895 357.376C100.607 356.848 102.267 354.939 103.147 350.146C103.399 348.887 103.524 347.588 103.751 346.288C103.876 345.476 104.078 344.623 104.279 343.486ZM98.7216 422.196C98.8723 421.343 98.9478 420.775 99.0736 420.287C99.3502 419.191 99.652 418.094 99.9789 416.997C100.431 415.576 100.507 414.114 100.08 412.692C99.6018 411.027 99.0737 409.362 98.4954 407.778C98.0176 406.478 97.4141 405.341 96.9112 404.082C95.8551 401.361 95.3019 398.437 95.5031 395.188C95.5534 394.091 95.7293 393.035 95.8803 391.776C94.8996 393.441 94.2207 395.959 93.8686 398.843C93.3406 403.148 93.416 407.453 93.8686 411.718C94.3967 416.835 95.4025 421.709 97.1627 426.095C98.6965 429.994 100.758 432.918 103.474 434.583C103.751 434.746 104.078 434.868 104.379 435.03C103.047 432.39 102.519 429.385 102.167 426.217C102.066 425.364 101.94 424.47 101.739 423.618C101.387 422.034 100.784 421.506 99.7527 421.831C99.476 421.952 99.2245 422.034 98.7216 422.196ZM128.996 444.737C129.173 444.818 129.273 444.9 129.374 444.9C129.726 444.778 130.103 444.696 130.455 444.534C134.704 442.503 137.621 438.361 138.426 431.05C138.753 427.963 138.703 424.836 138.325 421.75C137.998 419.028 137.294 416.632 136.314 414.398C135.61 412.896 134.78 411.596 133.598 411.068C132.215 410.459 131.335 411.312 131.083 413.586C130.832 415.698 131.159 417.729 131.486 419.759C131.813 421.628 132.165 423.455 132.316 425.324C132.768 432.147 132.014 438.483 129.298 443.965C129.172 444.169 129.097 444.453 128.996 444.737ZM139.784 419.475C139.859 419.556 139.935 419.597 140.01 419.678C140.89 417.932 142.097 416.998 143.329 416.145C144.687 415.211 146.07 414.317 147.478 413.586C151.954 411.19 156.354 408.469 160.554 405.016C162.766 403.148 164.703 400.792 166.287 397.706C166.438 397.381 166.563 396.975 166.714 396.609C164.351 398.112 161.937 398.721 159.523 399.29C157.511 399.777 155.474 400.021 153.463 400.508C149.741 401.442 146.548 404.001 143.983 408.509C142.349 411.433 141.016 414.642 139.985 418.216C139.884 418.581 139.859 419.069 139.784 419.475ZM120.02 397.543C119.944 396.772 119.844 396.162 119.793 395.513C119.441 392.06 118.662 388.892 117.103 386.415C116.349 385.237 115.896 383.897 115.594 382.313C115.368 381.176 115.142 379.998 114.789 378.983C114.161 377.236 113.256 377.155 112.627 378.861C112.124 380.282 111.672 381.907 111.521 383.491C111.294 386.131 111.269 388.852 111.244 391.533C111.194 395.35 110.892 399.046 110.062 402.62C109.635 404.529 109.283 406.479 108.88 408.428C108.403 410.824 108.227 413.302 108.327 415.86C108.378 416.957 108.579 417.972 109.006 419.11C110.389 408.631 113.784 401.199 120.02 397.543ZM124.118 410.987C124.722 410.052 124.923 408.875 124.923 407.575C124.948 406.275 124.923 404.935 125.024 403.635C125.25 400.305 124.294 398.518 122.258 398.315C120.397 398.152 118.712 399.046 117.203 400.63C113.432 404.488 110.967 409.931 109.936 416.997C109.61 419.312 109.434 421.709 109.308 424.064C109.232 425.323 109.408 426.623 109.459 427.882C113.356 415.86 119.391 411.799 124.118 410.987ZM115.091 443.153C116.374 446.646 119.341 449.204 121.73 448.798C125.853 448.108 128.896 444.899 130.556 438.604C131.838 433.771 132.114 428.735 131.561 423.618C131.335 421.627 130.983 419.637 130.103 418.053C129.525 416.957 128.846 415.982 127.614 416.591C127.463 417.282 127.186 418.135 127.111 419.028C126.91 421.303 126.884 423.577 126.608 425.811C125.702 433.04 123.414 438.482 118.913 440.96C117.656 441.65 116.399 442.422 115.091 443.153ZM109.333 435.721C109.333 433.771 109.333 431.862 109.333 429.994C109.333 429.791 109.283 429.629 109.257 429.466C108.805 427.557 108.855 425.567 108.83 423.618C108.805 422.562 108.704 421.465 108.528 420.45C107.9 416.916 106.667 413.911 105.184 411.19C103.449 408.022 102.317 404.448 101.689 400.305C101.362 398.193 100.909 396.081 100.281 394.091C99.9034 392.832 99.2244 391.614 98.5204 390.761C97.4642 389.461 96.735 389.948 96.3579 391.938C95.679 395.431 95.8298 398.843 96.8859 402.051C97.3888 403.554 98.0677 404.976 98.621 406.438C99.1741 407.859 99.7525 409.24 100.23 410.702C101.11 413.342 101.11 415.982 100.104 418.581C99.8278 419.312 99.6518 420.125 99.4255 420.978C99.6769 421.059 99.8027 421.099 99.9032 421.099C101.437 421.099 101.965 421.668 102.342 424.064C102.518 425.12 102.644 426.176 102.795 427.232C103.046 429.344 103.449 431.375 104.304 433.121C105.687 435.923 107.221 436.695 109.333 435.721ZM134.528 442.95C133.045 443.843 131.788 444.981 130.43 445.346C128.846 445.793 127.488 446.686 126.08 447.824C122.157 450.991 118.888 450.504 115.846 446.24C115.242 445.387 114.764 444.29 114.161 443.194C113.658 443.153 113.08 443.072 112.526 443.031C112.451 443.315 112.401 443.437 112.426 443.518C113.155 448.026 114.01 452.413 115.619 456.271C116.273 457.814 117.078 459.195 117.983 460.292C119.718 462.404 121.654 462.079 123.188 459.52C123.716 458.667 124.118 457.652 124.521 456.637C125.275 454.85 125.979 453.022 126.733 451.235C127.714 448.961 130.304 447.823 131.938 450.463C132.642 451.6 133.296 452.86 134 453.997C134.453 454.768 134.931 455.459 135.383 456.19C136.59 455.175 137.722 455.175 138.878 455.621C139.306 455.784 139.759 455.906 140.186 455.987C141.393 456.312 142.097 455.418 142.55 453.591C143.128 451.276 141.997 447.661 140.79 446.808C139.834 446.158 138.853 445.59 137.848 445.224C136.615 444.737 135.409 444.209 134.528 442.95ZM121.352 423.618C121.478 422.399 121.906 421.546 122.408 420.775C122.937 419.84 123.515 418.988 123.993 418.013C125.024 415.941 124.898 414.073 123.565 411.921C122.936 412.164 122.182 412.489 121.453 412.774C116.751 414.682 113.356 419.434 110.942 425.973C109.232 430.603 109.635 435.274 111.219 439.782C111.898 441.691 112.904 442.3 114.211 442.138C116.223 441.853 118.008 440.513 119.818 439.335C124.621 436.127 126.583 426.461 126.256 420.328C126.205 419.434 126.029 418.703 125.325 418.541C123.817 419.759 122.735 421.912 121.352 423.618ZM67.4158 437.183C67.5917 437.548 67.7175 437.995 67.9438 438.239C68.8993 439.295 69.8297 440.391 70.8607 441.244C73.6015 443.478 76.0657 446.321 78.2785 449.773C79.9381 452.372 81.5474 454.972 83.207 457.571C84.5145 459.602 85.8221 461.673 87.1799 463.663C90.65 468.862 94.8241 471.055 99.5263 470.73C100.708 470.649 101.94 470.608 103.122 469.918C102.996 469.755 102.971 469.633 102.921 469.552C102.82 469.471 102.72 469.39 102.619 469.308C100.13 467.684 98.1431 465.125 96.6093 461.551C96.0561 460.211 95.5029 458.871 94.9497 457.53C93.0889 453.063 90.9516 449.001 88.3114 445.712C86.3249 443.194 84.1372 441.325 81.5976 440.757C80.0889 440.432 78.5801 440.269 77.0714 440.107C73.8025 439.782 70.5086 439.741 67.4158 437.183ZM90.3482 400.508C89.9962 400.427 89.5436 400.183 89.1161 400.183C85.9227 400.102 82.7292 400.183 79.5861 401.239C75.6131 402.62 72.294 405.625 70.1063 411.352C68.4467 415.698 67.0889 420.328 66.0831 425.161C65.5047 427.76 65.4796 430.4 65.9572 433.121C66.2086 434.38 66.6362 435.314 67.3654 435.964C69.2261 437.67 71.2629 438.564 73.4003 438.807C75.7136 439.051 78.0521 439.213 80.3906 439.498C83.3326 439.823 85.9477 441.528 88.2862 444.371C90.2224 446.686 92.0077 449.367 93.441 452.494C94.6228 455.053 95.7544 457.652 96.8608 460.292C98.118 463.419 99.7525 465.856 101.789 467.643C103.398 469.105 105.083 469.633 106.818 468.496C108.453 467.481 110.087 466.262 111.646 464.841C113.306 463.338 114.613 461.104 115.77 458.83C115.72 458.546 115.72 458.424 115.694 458.302C113.733 453.956 112.677 449.001 111.923 443.843C111.847 443.275 111.747 442.666 111.571 442.138C110.892 440.391 110.188 438.685 109.433 436.817C108.905 436.898 108.201 437.142 107.497 437.061C103.323 436.574 99.8781 433.731 97.3133 428.329C95.8549 425.242 94.8994 421.749 94.145 418.094C93.2649 413.708 92.938 409.2 92.8123 404.813C91.9825 403.392 91.2283 402.051 90.3482 400.508ZM104.631 344.257C104.48 344.826 104.379 345.192 104.304 345.598C104.027 347.344 103.826 349.091 103.499 350.796C102.569 355.467 100.683 357.701 97.6655 358.026C95.679 358.269 93.6926 358.716 91.7061 359.122C89.1664 359.65 87.4817 361.803 86.9285 365.986C86.8782 366.473 86.7775 366.92 86.7274 367.408C86.1239 371.834 86.1491 376.302 86.476 380.81C87.0041 388.527 88.7391 395.431 91.6811 401.523C91.9577 402.133 92.3098 402.661 92.7875 403.513C92.8882 402.376 92.9634 401.645 93.0137 400.914C93.2903 397.381 93.8435 394.05 95.2013 391.207C96.4586 388.527 98.1182 388.324 99.5766 390.72C100.256 391.857 100.834 393.279 101.236 394.7C101.789 396.772 102.192 399.005 102.544 401.199C103.072 404.366 103.927 407.25 105.31 409.687C105.461 409.971 105.662 410.174 105.938 410.499C105.938 409.849 105.964 409.403 105.913 409.037C105.209 402.823 105.511 396.731 106.542 390.72C107.145 387.146 107.925 383.734 109.333 380.77C110.138 379.064 111.093 377.683 112.35 376.911C113.759 376.058 114.789 376.627 115.494 378.861C115.846 380.039 116.022 381.338 116.349 382.516C116.65 383.531 116.977 384.587 117.43 385.4C118.586 387.471 119.542 389.745 119.969 392.466C120.221 394.091 120.397 395.716 120.598 397.381C121.277 397.381 121.931 397.381 122.559 397.381C122.861 396.975 123.113 396.65 123.364 396.365C123.213 392.832 123.741 389.664 124.395 386.496C125.3 382.069 126.055 377.561 126.356 372.89C126.658 367.935 126.557 363.102 125.25 358.432C124.571 355.995 124.093 353.396 123.515 350.878C123.037 348.806 122.61 346.694 122.031 344.664C121.101 341.496 119.617 339.14 117.681 337.434C115.242 335.322 112.979 335.769 110.817 338.409C110.062 339.343 109.358 340.44 108.629 341.455C107.472 343.039 106.391 344.948 104.631 344.257ZM153.513 368.585C153.438 367.448 153.312 366.677 153.362 365.945C153.463 363.874 153.664 361.762 153.815 359.691C154.293 353.233 151.577 346.776 147.629 345.435C144.335 344.339 141.116 345.07 138.074 347.425C134.327 350.309 131.058 354.37 128.393 359.569C127.437 361.437 126.784 363.265 127.01 366.067C127.387 370.535 126.934 375.043 126.281 379.429C125.727 383.125 124.998 386.78 124.345 390.476C124.068 392.182 123.791 393.929 124.068 395.716C127.488 395.106 130.53 396.04 132.894 400.589C134.88 401.117 136.615 402.539 137.747 405.504C138.753 408.184 139.381 411.027 139.583 414.114C139.633 414.764 139.734 415.413 139.859 416.51C140.236 415.413 140.463 414.723 140.714 414.073C143.43 406.478 147.227 401.198 152.734 399.696C155.198 399.005 157.712 398.68 160.227 398.071C162.389 397.584 164.527 396.934 166.513 395.269C167.544 394.375 168.324 393.157 168.676 391.37C168.952 389.827 169.304 388.243 169.43 386.659C169.807 382.029 169.204 377.886 167.066 374.474C165.759 372.403 164.275 370.86 162.565 369.926C160.177 368.545 157.737 368.22 155.223 368.545C154.72 368.626 154.217 368.585 153.513 368.585ZM136.465 464.8C137.294 465.856 138.149 466.831 138.954 467.968C141.343 471.258 144.184 472.273 147.227 472.273C149.842 472.273 152.432 471.786 154.972 471.014C158.844 469.877 162.716 469.877 166.589 471.014C168.575 471.583 170.587 472.192 172.548 471.095C174.283 470.121 176.018 468.983 177.627 467.481C179.488 465.734 180.796 463.013 181.6 459.723C182.154 457.449 182.128 455.296 181.349 453.144C181.072 452.372 180.821 451.56 180.544 450.788C179.664 448.473 179.664 446.158 180.293 443.6C181.073 440.35 181.701 437.02 182.305 433.69C182.908 430.481 183.21 427.151 183.084 423.739C182.858 416.835 180.72 412.652 177.125 410.865C175.591 410.133 173.931 409.727 172.322 409.565C168.726 409.24 165.231 410.377 161.786 411.839C160.479 412.408 159.171 412.611 157.813 412.286C155.399 411.677 153.01 411.921 150.672 413.058C149.289 413.708 147.881 414.398 146.548 415.251C144.964 416.266 143.405 417.363 141.871 418.581C140.89 419.353 140.061 420.653 139.809 422.399C139.482 424.673 139.256 426.988 139.13 429.303C138.879 434.055 137.823 438.117 135.534 441.244C135.333 441.528 135.057 441.731 134.755 442.056C135.836 443.397 136.842 443.803 137.848 444.209C138.703 444.534 139.583 444.859 140.413 445.387C141.569 446.077 142.449 447.377 142.902 449.286C144.008 454.119 143.506 458.789 140.538 461.632C139.306 462.81 137.948 463.663 136.465 464.8ZM106.944 469.836C106.793 470.364 106.667 470.852 106.567 471.38C105.058 478.69 104.505 486.204 105.209 493.88C105.813 500.338 107.196 506.389 109.484 511.831C111.018 515.446 112.979 518.289 115.569 519.67C117.178 520.523 118.838 521.213 120.523 521.538C124.495 522.432 128.443 523.366 132.316 525.112C135.283 526.453 138.275 527.143 141.343 526.656C145.567 526.006 148.937 523.163 150.948 516.868C153.765 508.054 154.972 498.754 154.091 488.844C153.865 486.204 153.463 483.564 152.608 481.168C151.904 479.218 150.999 477.797 149.54 477.147C147.705 476.335 145.944 475.198 144.209 474.02C140.94 471.867 138.074 468.659 135.761 464.963C134 464.435 132.467 464.069 130.933 463.582C128.846 462.932 126.784 462.445 124.646 463.094C123.892 463.298 123.087 463.298 122.308 463.298C120.321 463.338 118.511 462.485 116.952 460.374C116.776 460.13 116.55 459.927 116.348 459.764C112.929 464.922 114.186 464.557 106.944 469.836ZM22.7578 630.669C23.1098 629.775 23.3864 628.8 23.7887 627.907C26.253 622.302 29.3961 617.713 32.7656 613.529C36.9146 608.331 41.4659 604.147 46.0675 600.086C55.1197 592.044 64.1972 584.084 73.2243 576.042C75.3114 574.174 77.3481 572.143 79.3849 570.194C88.0349 561.868 93.8937 549.887 97.2883 534.657C99.4257 525.153 100.985 515.405 102.167 505.536C102.921 499.119 103.474 492.662 104.128 486.204C104.53 482.386 104.857 478.528 105.31 474.71C105.46 473.248 105.838 471.867 106.139 470.243C105.486 470.446 104.958 470.608 104.43 470.811C100.909 472.314 97.3889 472.192 93.8686 470.933C91.7061 470.121 89.7447 468.455 88.0349 466.181C86.4759 464.069 84.9671 461.835 83.5087 459.561C81.3714 456.271 79.3346 452.86 77.1973 449.61C75.3114 446.646 73.1992 444.249 70.8607 442.34C70.2572 441.853 69.6788 441.325 69.1005 440.797C65.6305 437.751 64.2978 431.375 65.2784 425.851C66.3345 419.881 67.9941 414.276 70.2069 409.199C72.4197 404.123 75.6383 401.523 79.3095 400.264C82.6286 399.127 85.9981 398.965 89.3927 399.411C89.4934 399.411 89.619 399.371 89.8453 399.33C89.6944 398.802 89.5687 398.315 89.3927 397.909C86.9285 391.207 85.7215 383.978 85.6712 376.18C85.6461 373.297 85.7215 370.454 86.0484 367.57C86.501 363.793 87.6074 360.625 89.267 357.944C91.2535 354.736 93.1393 351.446 95.151 348.319C96.4334 346.329 97.7661 344.379 99.1993 342.673C102.066 339.181 105.159 336.378 108.679 334.957C111.445 333.82 114.211 334.226 116.902 335.769C119.492 337.272 121.428 340.115 122.61 344.136C123.213 346.288 123.666 348.603 124.194 350.837C124.998 354.452 125.803 358.026 126.683 361.884C126.985 361.194 127.186 360.747 127.362 360.341C130.706 353.193 134.906 347.913 140.161 345.07C142.55 343.811 145.064 343.526 147.554 344.339C152.206 345.923 155.122 352.868 154.418 360.422C154.242 362.25 154.091 364.077 153.966 365.945C153.941 366.473 154.041 367.042 154.092 367.773C154.62 367.692 154.997 367.651 155.399 367.611C158.718 367.164 161.962 367.773 164.904 370.454C167.544 372.891 169.581 376.262 170.059 381.338C170.511 386.05 169.983 390.558 168.449 394.66C166.815 399.087 164.627 402.661 161.811 405.098C159.825 406.803 157.738 408.266 155.701 409.849C155.324 410.093 154.972 410.377 154.594 410.905C154.821 410.946 155.047 410.987 155.273 410.987C156.279 411.149 157.285 411.19 158.266 411.393C159.397 411.596 160.478 411.312 161.56 410.824C164.552 409.524 167.569 408.59 170.662 408.428C172.8 408.347 174.887 408.631 176.949 409.565C181.173 411.515 183.537 416.348 183.763 423.455C183.864 427.192 183.587 430.887 182.933 434.462C182.355 437.629 181.751 440.797 180.997 443.843C180.393 446.199 180.419 448.352 181.274 450.504C181.475 451.073 181.651 451.682 181.852 452.21C182.933 455.094 182.883 458.058 182.003 461.023C180.871 464.8 179.262 467.968 177.225 470.608C174.132 474.67 170.562 477.025 166.664 478.284C163.37 479.34 160.051 479.584 156.707 479.34C155.324 479.219 153.991 478.772 152.583 478.487C152.583 478.691 152.558 478.853 152.608 478.975C154.117 482.346 154.67 486.285 154.947 490.265C155.5 498.957 154.469 507.242 152.256 515.162C152.08 515.852 151.829 516.543 151.627 517.233C149.616 523.61 146.272 526.778 141.972 527.671C138.803 528.321 135.736 527.752 132.718 526.371C128.544 524.544 124.32 523.366 120.045 522.554C118.159 522.229 116.323 521.457 114.563 520.239C112.049 518.492 110.188 515.568 108.705 511.953C106.592 506.795 105.36 501.15 104.631 495.139C104.606 494.895 104.606 494.652 104.581 494.408C104.505 493.839 104.404 493.271 104.203 492.662C104.027 494.327 103.851 496.033 103.675 497.738C102.167 511.913 100.256 525.925 96.8107 539.287C93.5922 551.877 88.5128 562.031 81.3716 569.26C76.7197 573.971 71.9673 578.398 67.1645 582.703C58.9672 590.054 50.7195 597.162 42.5221 604.472C37.4428 609.021 32.6401 614.301 28.4659 620.881C26.5549 623.845 24.7696 626.973 23.4369 630.669C23.2107 630.669 22.9841 630.669 22.7578 630.669Z" fill="#1C2D46"/>
<path d="M220.96 539.564C219.325 544.275 217.49 548.784 215.201 552.764C210.248 561.374 204.691 568.806 198.279 574.452C195.94 576.523 193.501 578.269 191.087 580.138C187.24 583.143 183.493 586.392 180.149 590.779C178.866 592.444 177.685 594.312 176.276 596.343C176.452 595.734 176.528 595.327 176.679 594.962C181.482 583.549 187.315 573.883 194.884 567.263C199.938 562.836 204.967 558.369 209.971 553.82C213.416 550.692 216.584 546.997 219.199 542.123C219.551 541.432 219.853 540.701 220.205 539.97C218.269 542.854 216.484 546.022 214.321 548.499C211.103 552.155 207.658 555.201 204.213 558.247C200.24 561.78 196.141 565.07 192.244 568.847C186.888 574.005 182.538 581.031 178.716 588.951C176.226 594.068 174.34 599.754 172.429 605.481C172.203 606.253 171.951 607.024 171.7 607.755C171.625 607.715 171.549 607.674 171.499 607.634C171.524 607.43 171.524 607.187 171.549 606.984C172.681 599.958 173.812 592.931 175.547 586.189C178.439 575.102 183.368 567.101 189.88 561.537C191.313 560.318 192.873 559.425 194.406 558.491C196.544 557.232 198.731 556.257 200.818 554.916C203.836 552.926 206.828 550.855 209.795 548.581C213.24 545.941 216.559 542.895 219.677 539.28C220.381 538.468 221.085 537.615 221.789 536.803C221.84 536.884 221.89 536.965 221.966 537.046C221.639 537.859 221.312 538.711 220.96 539.564ZM223.147 534C222.77 534.325 222.393 534.569 222.066 534.975C221.11 536.153 220.205 537.412 219.25 538.508C216.559 541.676 213.667 544.397 210.675 546.793C208.337 548.621 206.023 550.53 203.609 552.073C200.567 554.063 197.399 555.688 194.306 557.516C192.747 558.45 191.162 559.384 189.679 560.602C183.82 565.557 179.068 572.421 176.075 582.128C175.044 585.458 174.114 588.91 173.46 592.444C171.801 601.541 170.342 610.68 168.783 619.818C169.462 619.899 169.538 619.046 169.714 618.356C170.87 614.254 171.926 610.07 173.184 606.09C175.371 599.267 178.439 593.622 182.387 589.276C185.253 586.149 188.246 583.468 191.364 581.031C193.752 579.163 196.217 577.457 198.555 575.386C205.068 569.659 210.725 562.105 215.729 553.332C218.772 548.012 221.01 541.757 223.223 535.503C223.348 535.137 223.323 534.65 223.374 534.244C223.298 534.163 223.222 534.081 223.147 534Z" fill="#71A8CA" fill-opacity="0.89"/>
</g>
<defs>
<filter id="filter0_d_577_370" x="-9" y="0" width="237.374" height="650.669" filterUnits="userSpaceOnUse" color-interpolation-filters="sRGB">
<feFlood flood-opacity="0" result="BackgroundImageFix"/>
<feColorMatrix in="SourceAlpha" type="matrix" values="0 0 0 0 0 0 0 0 0 0 0 0 0 0 0 0 0 0 127 0" result="hardAlpha"/>
<feOffset dy="15"/>
<feGaussianBlur stdDeviation="2.5"/>
<feComposite in2="hardAlpha" operator="out"/>
<feColorMatrix type="matrix" values="0 0 0 0 0.443137 0 0 0 0 0.658824 0 0 0 0 0.792157 0 0 0 0.18 0"/>
<feBlend mode="normal" in2="BackgroundImageFix" result="effect1_dropShadow_577_370"/>
<feBlend mode="normal" in="SourceGraphic" in2="effect1_dropShadow_577_370" result="shape"/>
</filter>
</defs>
</svg>
