<svg width="20" height="25" viewBox="0 0 20 25" fill="none" xmlns="http://www.w3.org/2000/svg">
<path fill-rule="evenodd" clip-rule="evenodd" d="M17.265 10.8255L18.9744 8.38161C20 7.0782 20.1709 5.61188 19.6581 4.14555C19.3162 2.67922 18.1197 1.53874 16.5812 0.724113C15.0427 0.0724113 13.3333 -0.25344 11.6239 0.235337C9.91453 0.561188 8.37607 1.53874 7.52137 2.84214L5.12821 6.26358L7.00855 7.24113L9.57265 3.65677C10.0855 2.84214 11.1111 2.19044 12.1368 2.02752C13.3333 1.70167 14.5299 1.86459 15.5556 2.35337C16.5812 2.84214 17.265 3.65677 17.6068 4.63432C17.7778 5.61188 17.7778 6.58943 17.094 7.40406L14.7009 10.8255H3.58974C1.7094 10.8255 0 12.1289 0 13.7581V22.0673C0 23.6966 1.7094 25 3.58974 25H16.4103C18.4615 25 20 23.6966 20 22.0673V13.7581C20 12.2918 18.8034 11.1513 17.265 10.8255ZM10.0855 21.5786C7.52137 19.9493 4.2735 19.6235 4.2735 16.8537C4.2735 15.3874 5.64103 14.2469 7.52137 14.2469C8.54701 14.2469 9.40171 14.5728 10.0855 15.2245C10.5983 14.5728 11.453 14.2469 12.4786 14.2469C14.359 14.2469 15.7265 15.3874 15.7265 16.8537C15.7265 19.6235 12.4786 19.9493 10.0855 21.5786Z" fill="white"/>
</svg>
