<svg width="20" height="20" viewBox="0 0 20 20" fill="none" xmlns="http://www.w3.org/2000/svg">
<circle cx="10" cy="10" r="9" fill="#FFFFE8"/>
<path d="M10 0C4.48571 0 0 4.48617 0 10.001C0 12.2808 0.787755 14.5117 2.21633 16.2813C2.36939 16.4711 2.6449 16.4996 2.83469 16.3466C3.02449 16.1935 3.05306 15.9179 2.9 15.7281C1.59796 14.1137 0.879592 12.0808 0.879592 10.001C0.879592 4.97194 4.97143 0.879682 10 0.879682C15.0286 0.879682 19.1204 4.97194 19.1204 10.001C19.1204 15.0301 15.0286 19.1224 10 19.1224C8.30612 19.1224 6.6551 18.655 5.22041 17.7712C5.01429 17.6447 4.74286 17.7079 4.61633 17.9141C4.4898 18.1202 4.55306 18.3917 4.75918 18.5182C6.33061 19.4877 8.14286 20 10 20C15.5143 20 20 15.5138 20 9.99898C20 4.48413 15.5143 0 10 0Z" fill="#757A82"/>
<path d="M6.76318 10.001C6.76318 11.7869 8.21624 13.2381 9.99992 13.2381C11.7836 13.2381 13.2367 11.7869 13.2367 10.001C13.2367 9.1234 12.8918 8.30291 12.2652 7.68856C12.0918 7.51916 11.8142 7.5212 11.6428 7.69468C11.4734 7.86817 11.4754 8.14575 11.6489 8.3172C12.104 8.76418 12.3571 9.3622 12.3571 10.001C12.3571 11.3012 11.2999 12.3605 9.99788 12.3605C8.69584 12.3605 7.64073 11.3012 7.64073 10.001C7.64073 8.70091 8.69992 7.64162 9.99992 7.64162C10.2428 7.64162 10.4387 7.44568 10.4387 7.2028C10.4387 6.95992 10.2428 6.76398 9.99992 6.76398C8.2142 6.76398 6.76318 8.21515 6.76318 10.001Z" fill="#757A82"/>
<path d="M16.296 10.001C16.296 10.2439 16.4919 10.4399 16.7347 10.4399C16.9776 10.4399 17.1735 10.2439 17.1735 10.001C17.1735 6.04554 13.9552 2.82684 10.0001 2.82684C9.7572 2.82684 9.56128 3.02278 9.56128 3.26566C9.56128 3.50855 9.7572 3.70448 10.0001 3.70448C13.4715 3.70448 16.296 6.52926 16.296 10.001Z" fill="#757A82"/>
<path d="M8.57959 10.001C8.57959 10.7848 9.21632 11.4216 10 11.4216C10.7837 11.4216 11.4204 10.7848 11.4204 10.001C11.4204 9.21724 10.7837 8.58044 10 8.58044C9.21632 8.58044 8.57959 9.21724 8.57959 10.001ZM10.5408 10.001C10.5408 10.299 10.298 10.5419 10 10.5419C9.70204 10.5419 9.45918 10.299 9.45918 10.001C9.45918 9.70301 9.70204 9.46013 10 9.46013C10.298 9.46013 10.5408 9.70301 10.5408 10.001Z" fill="#757A82"/>
</svg>
