<svg width="16" height="18" viewBox="0 0 16 18" fill="none" xmlns="http://www.w3.org/2000/svg">
<path d="M13.8308 11.6153L13.8482 11.6039L13.8653 11.5945L13.8656 11.5944L13.8657 11.5943L13.866 11.5942L13.8664 11.5939L13.8712 11.5912C13.8768 11.588 13.8863 11.5825 13.8992 11.5748C13.925 11.5594 13.9645 11.5351 14.0144 11.5023C14.1145 11.4364 14.2547 11.3372 14.4096 11.207C14.724 10.9428 15.0758 10.5708 15.2922 10.1132C15.5025 9.66879 15.5903 9.13595 15.3774 8.5028C15.1596 7.85487 14.6106 7.05471 13.4477 6.12933C11.018 4.1958 8.10026 1.9506 5.65791 0.977917C4.43092 0.489258 3.43256 0.367304 2.70396 0.649445C2.01841 0.914911 1.42 1.60329 1.1353 3.13319C0.539237 6.33631 0.453953 9.22112 0.517947 11.3049C0.549926 12.3463 0.619136 13.186 0.680049 13.7636C0.710501 14.0523 0.738866 14.2754 0.75944 14.4252C0.769727 14.5001 0.778065 14.5567 0.78374 14.594L0.790166 14.6353L0.791713 14.645L0.792041 14.647L0.792061 14.6471L0.792085 14.6472L0.79209 14.6473L0.795604 14.6684L0.797183 14.6886C0.797166 14.6884 0.79717 14.6884 0.797196 14.6887L0.797202 14.6888L0.797224 14.6891L0.797256 14.6895L0.797643 14.6935C0.798142 14.6987 0.799065 14.7077 0.80053 14.7203C0.803463 14.7455 0.808555 14.7848 0.816756 14.8359C0.833199 14.9382 0.861902 15.0862 0.910167 15.2608C1.00765 15.6134 1.17975 16.0561 1.47595 16.4525C1.76799 16.8434 2.17977 17.1891 2.7735 17.3686C3.3585 17.5455 4.16264 17.5736 5.26583 17.2651L13.8308 11.6153Z" fill="#F7FDFF" stroke="#C3CCDA"/>
</svg>
