<svg width="33" height="11" viewBox="0 0 33 11" fill="none" xmlns="http://www.w3.org/2000/svg">
<path fill-rule="evenodd" clip-rule="evenodd" d="M5.47105 0.368652C5.46026 0.368652 5.44947 0.368652 5.43868 0.368652C3.9892 0.368652 2.59457 0.704489 1.24309 1.382C0.694594 2.68314 0.385275 4.00583 0.36909 5.35547C0.34751 6.69432 0.624008 8.0655 1.23725 9.46407C2.64852 10.0765 4.05978 10.3908 5.47105 10.4074C6.88232 10.3908 8.29358 10.0765 9.7044 9.46407C10.3181 8.0655 10.5946 6.69432 10.573 5.35547C10.5568 4.00583 10.2475 2.68314 9.699 1.382C8.34753 0.704489 6.9529 0.368652 5.50342 0.368652C5.49263 0.368652 5.48184 0.368652 5.47105 0.368652V0.368652Z" fill="#FEFEFE"/>
<path d="M1.01518 1.08429C2.43723 0.357836 3.91324 0 5.4387 0C5.44949 0 5.46028 0 5.47107 0C5.48186 0 5.49265 0 5.50344 0C7.02891 0 8.50491 0.357836 9.92697 1.08429L10.0142 1.17633C10.5946 2.54212 10.926 3.9353 10.9421 5.35004C10.9421 5.37698 10.9421 5.39853 10.9421 5.42592V5.52334C10.9368 6.88375 10.6436 8.27155 10.0142 9.68089L9.91618 9.77293C8.43478 10.4289 6.95292 10.7593 5.47107 10.776C3.98922 10.7593 2.50737 10.4289 1.02597 9.77293L0.927956 9.68089C0.298528 8.27155 0.00539509 6.88375 0 5.52334V5.42592C0 5.39853 0 5.37698 0 5.35004C0.0161853 3.9353 0.347534 2.54212 0.927956 1.17633L1.01518 1.08429V1.08429ZM5.47107 0.368612C5.46028 0.368612 5.44949 0.368612 5.4387 0.368612C3.98922 0.368612 2.59459 0.704449 1.24312 1.38196C0.694618 2.6831 0.385299 4.00579 0.369114 5.35543C0.347534 6.69428 0.624032 8.06546 1.23727 9.46403C2.64854 10.0764 4.05981 10.3907 5.47107 10.4073C6.88234 10.3907 8.29361 10.0764 9.70442 9.46403C10.3181 8.06546 10.5946 6.69428 10.573 5.35543C10.5568 4.00579 10.2475 2.6831 9.69903 1.38196C8.34756 0.704449 6.95292 0.368612 5.50344 0.368612C5.49265 0.368612 5.48186 0.368612 5.47107 0.368612V0.368612Z" fill="#003399"/>
<path fill-rule="evenodd" clip-rule="evenodd" d="M5.56863 8.3962C5.49265 7.36085 5.54165 6.28196 5.23233 5.29555C4.9446 4.37424 3.85344 3.84849 3.83186 2.83469C3.81028 2.04314 4.41273 1.12723 5.54165 1.12723C6.59999 1.12184 7.25684 1.89139 7.33282 2.74804C7.42499 3.73984 6.22009 4.40657 5.90537 5.34988C5.57942 6.31473 5.67204 7.38241 5.56863 8.3962Z" fill="#003399"/>
<path fill-rule="evenodd" clip-rule="evenodd" d="M5.98676 8.1468C5.94315 7.24704 5.94315 6.38545 6.19312 5.62084C6.46962 4.75386 7.04509 4.02202 7.92449 3.78362C8.52694 3.62108 9.41129 4.32553 9.27057 5.04659C9.15098 5.62668 8.57011 6.30957 7.63675 6.38545C7.20245 6.42316 7.01812 6.77023 6.74656 6.97092C7.96226 6.85149 8.74949 6.37467 9.29754 5.87586C9.37892 6.29835 9.43332 7.00863 9.10197 7.25243C8.45096 7.71308 7.84851 7.33908 7.08286 7.55594C6.6544 7.68076 6.38824 7.95194 5.98676 8.1468Z" fill="#003399"/>
<path fill-rule="evenodd" clip-rule="evenodd" d="M5.15625 8.1468C5.20481 7.24704 5.19941 6.38545 4.95529 5.62084C4.67834 4.75386 4.10331 4.02202 3.22391 3.78362C2.62146 3.62108 1.73127 4.32553 1.87783 5.04659C1.99743 5.62668 2.57785 6.30957 3.51165 6.38545C3.94056 6.42316 4.13029 6.77023 4.40184 6.97092C3.1803 6.85149 2.39891 6.37467 1.85086 5.87586C1.76948 6.29835 1.71508 7.00863 2.04598 7.25243C2.69744 7.71308 3.29989 7.33908 4.0651 7.55594C4.494 7.68076 4.75432 7.95194 5.15625 8.1468Z" fill="#003399"/>
<path fill-rule="evenodd" clip-rule="evenodd" d="M8.04928 9.4858V9.33944L8.15808 9.3125L8.04928 9.14997V8.87878L8.53799 9.55629L8.36444 9.59984L8.24485 9.43148L8.04928 9.4858V9.4858ZM8.04928 8.87878V9.14997L7.9733 9.04131L7.94093 9.36682L8.04928 9.33944V9.4858L7.92474 9.51319L7.90271 9.71344L7.72917 9.75699L7.84337 8.8734L8.01691 8.82984L8.04928 8.87878V8.87878ZM6.4321 9.95768V9.8167H6.46987C6.52966 9.81131 6.56788 9.80593 6.58406 9.80009C6.60564 9.7947 6.62722 9.77854 6.63846 9.76237C6.65465 9.74082 6.66004 9.71882 6.66004 9.69188C6.65465 9.66495 6.64925 9.64295 6.63262 9.62678C6.62183 9.61062 6.60025 9.59984 6.57867 9.59446C6.55709 9.58907 6.50808 9.58907 6.4321 9.59446V9.45348C6.47526 9.45348 6.50269 9.44809 6.51348 9.44809C6.54045 9.4427 6.56248 9.42609 6.57867 9.40993C6.59485 9.39376 6.60025 9.37221 6.59485 9.34482C6.59485 9.31788 6.58406 9.29633 6.56788 9.28511C6.55709 9.26895 6.53506 9.25817 6.50269 9.25817C6.4919 9.25817 6.46987 9.25817 6.4321 9.26356V9.12258C6.4919 9.11719 6.53506 9.11719 6.56248 9.12258C6.59485 9.12258 6.62722 9.1338 6.65465 9.14997C6.68162 9.16074 6.7032 9.18229 6.72523 9.20923C6.74142 9.23662 6.75221 9.26895 6.7576 9.30711C6.763 9.34482 6.75221 9.38299 6.73602 9.41531C6.71984 9.44809 6.69241 9.47503 6.65465 9.49658C6.7086 9.5078 6.75221 9.52935 6.77918 9.56168C6.81201 9.59446 6.82819 9.63217 6.83359 9.68111C6.83359 9.71882 6.82819 9.75699 6.8174 9.7947C6.80122 9.83286 6.77918 9.8598 6.75221 9.88719C6.71984 9.90874 6.68702 9.9249 6.64386 9.93568C6.61643 9.94107 6.54585 9.94646 6.44289 9.95768H6.4321V9.95768ZM7.45762 9.50197L7.62621 9.52397C7.61542 9.61601 7.588 9.69188 7.53944 9.74621C7.49044 9.7947 7.41985 9.83286 7.33308 9.84903C7.22428 9.86519 7.12672 9.84364 7.04534 9.78393C6.95857 9.71882 6.90957 9.62678 6.88259 9.49658C6.86056 9.36144 6.8772 9.24739 6.93654 9.16074C6.99094 9.07409 7.07771 9.01976 7.19191 8.99821C7.29487 8.9816 7.37624 8.99821 7.45222 9.0467C7.49583 9.07409 7.5336 9.11719 7.56102 9.18229L7.40367 9.24739C7.38748 9.20923 7.36006 9.1769 7.32769 9.16074C7.28947 9.13919 7.25171 9.1338 7.2081 9.13919C7.1483 9.14997 7.10514 9.18229 7.07232 9.23123C7.03995 9.28511 7.03455 9.35605 7.05074 9.45348C7.07232 9.55629 7.10514 9.62678 7.1483 9.66495C7.19191 9.70266 7.24631 9.71882 7.30566 9.70805C7.34927 9.69727 7.38209 9.67572 7.40906 9.64295C7.43604 9.61062 7.45222 9.56168 7.45762 9.50197V9.50197ZM6.4321 9.12258V9.26356C6.41052 9.26356 6.38849 9.26895 6.36152 9.26895L6.26395 9.28017L6.28014 9.46964L6.39389 9.45886C6.40468 9.45886 6.42131 9.45886 6.4321 9.45348V9.59446C6.4321 9.59446 6.4321 9.59446 6.42671 9.59446L6.29632 9.60523L6.31251 9.82748L6.4321 9.8167V9.95768L6.16055 9.98462L6.08457 9.15535L6.41592 9.12841C6.42131 9.12258 6.42671 9.12258 6.4321 9.12258V9.12258ZM5.38455 9.67033V9.52935C5.42232 9.52935 5.44435 9.52397 5.46053 9.51858C5.48211 9.51319 5.4983 9.49658 5.51494 9.48041C5.52573 9.45886 5.53112 9.43731 5.53112 9.41531C5.53652 9.38299 5.52573 9.36144 5.50909 9.33944C5.49291 9.31788 5.47132 9.30711 5.44435 9.30172C5.42771 9.30172 5.41153 9.29633 5.38455 9.29633V9.15535C5.46593 9.15535 5.51494 9.16074 5.54191 9.17152C5.59092 9.18229 5.62868 9.20923 5.6615 9.25278C5.69387 9.29633 5.71006 9.35021 5.70466 9.41531C5.70466 9.46425 5.69387 9.5078 5.67769 9.54552C5.65566 9.57784 5.63408 9.60523 5.6071 9.62678C5.57428 9.64295 5.54731 9.65372 5.51494 9.66495C5.48212 9.67033 5.43895 9.67033 5.38455 9.67033V9.67033ZM5.38455 9.15535V9.29633C5.36837 9.29633 5.34634 9.29633 5.31936 9.29633L5.23799 9.29095V9.52935H5.32476C5.34634 9.52935 5.36837 9.52935 5.38455 9.52935V9.67033C5.37376 9.67033 5.35713 9.67033 5.34094 9.67033H5.23259L5.2272 9.98462L5.0586 9.97923L5.07523 9.14997L5.34094 9.15535C5.35713 9.15535 5.37376 9.15535 5.38455 9.15535V9.15535ZM3.81593 9.58907V9.33405C3.86494 9.34482 3.89731 9.34482 3.91349 9.34482C3.93552 9.33944 3.95171 9.33405 3.96789 9.31788C3.97868 9.30172 3.98947 9.28511 3.99487 9.25817C4.00026 9.23123 3.99487 9.20923 3.98408 9.18768C3.97329 9.16613 3.95171 9.15535 3.92428 9.14458C3.91349 9.13919 3.87573 9.1338 3.81593 9.12258V8.9816L3.88652 8.99282C3.97329 9.00899 4.03308 9.02515 4.07085 9.0467C4.10906 9.0687 4.13604 9.10103 4.15222 9.14458C4.16886 9.18229 4.17425 9.23123 4.16346 9.28017C4.15222 9.33944 4.12525 9.38837 4.08209 9.4207C4.04387 9.45348 3.98408 9.46964 3.9081 9.46964C3.94092 9.49658 3.96789 9.52397 3.98408 9.5509C4.00566 9.58368 4.02769 9.63217 4.05466 9.70266L4.12525 9.8818L3.92968 9.84364L3.84291 9.64295C3.83212 9.62678 3.82672 9.60523 3.81593 9.58907V9.58907ZM4.2934 9.07409L4.45615 9.09025L4.41838 9.54013C4.41299 9.61062 4.41299 9.65956 4.41299 9.67572C4.41838 9.71344 4.43457 9.74082 4.45615 9.76237C4.48357 9.78931 4.51594 9.80009 4.56495 9.80592C4.61395 9.81131 4.65172 9.80009 4.6733 9.78393C4.70073 9.76776 4.71691 9.74621 4.7277 9.71882C4.7331 9.69188 4.73849 9.64295 4.74389 9.57784L4.7821 9.11719L4.95025 9.1338L4.91248 9.56707C4.90709 9.67033 4.89585 9.74082 4.87966 9.77854C4.86887 9.8167 4.84729 9.85441 4.82526 9.87597C4.79829 9.90335 4.76052 9.9249 4.71691 9.93568C4.6787 9.95229 4.62474 9.95229 4.55955 9.94646C4.47818 9.94107 4.41838 9.9249 4.38017 9.90335C4.3424 9.8818 4.30958 9.85441 4.288 9.82748C4.26642 9.7947 4.25563 9.76237 4.25024 9.73005C4.24484 9.68111 4.24484 9.61062 4.25024 9.51858L4.2934 9.07409V9.07409ZM2.97475 9.31788L3.00712 9.18229L3.36005 9.27433L3.27327 9.59446C3.22966 9.62139 3.17526 9.63756 3.09928 9.64295C3.0287 9.64833 2.96396 9.64295 2.89877 9.62678C2.81154 9.60523 2.74141 9.56707 2.6924 9.51858C2.638 9.46425 2.60563 9.39915 2.58945 9.32866C2.57821 9.25278 2.57821 9.1769 2.60024 9.10103C2.62182 9.01976 2.65958 8.94927 2.71398 8.88956C2.76299 8.83568 2.82818 8.8029 2.90416 8.78674C2.96396 8.77058 3.03409 8.77597 3.11052 8.79752C3.20808 8.82446 3.28406 8.86262 3.32723 8.92233C3.37084 8.97621 3.39242 9.0467 3.38702 9.12258L3.21887 9.1118C3.21887 9.0687 3.20808 9.03054 3.18066 8.99821C3.15368 8.97082 3.12131 8.94388 3.07231 8.93311C3.00172 8.91695 2.94193 8.92233 2.88753 8.95466C2.83357 8.98744 2.79536 9.05209 2.76838 9.13919C2.74141 9.23662 2.7468 9.3125 2.77378 9.37221C2.80615 9.43148 2.85515 9.46964 2.92035 9.4858C2.95811 9.49658 2.99093 9.49658 3.0287 9.49658C3.06691 9.49119 3.09928 9.48042 3.1321 9.46964L3.15908 9.36682L2.97475 9.31788V9.31788ZM3.81593 8.9816L3.53359 8.93311L3.39242 9.7516L3.55517 9.77854L3.61496 9.43731L3.65318 9.4427C3.69094 9.44809 3.71837 9.45886 3.73455 9.46425C3.75074 9.47503 3.76153 9.49119 3.77772 9.5078C3.78311 9.52397 3.79975 9.5509 3.81593 9.58907V9.33405C3.79975 9.33405 3.78311 9.32866 3.76153 9.32866L3.64239 9.30711L3.67476 9.10103L3.80514 9.12258C3.81054 9.12258 3.81593 9.12258 3.81593 9.12258V8.9816V8.9816Z" fill="#003399"/>
<path fill-rule="evenodd" clip-rule="evenodd" d="M29.6837 7.96801V6.43924H30.3568V3.75075L29.6837 5.09499V1.73977H32.3269L32.9999 9.4694H30.3568V7.96801H29.6837V7.96801ZM29.6837 1.73977V5.09499L29.0107 6.43924H29.6837V7.96801H28.4136L27.8926 9.38814H26.2534V7.62095L28.0823 3.68026H27.7078L28.7499 1.73977H29.6837V1.73977ZM26.2534 4.31467L27.073 2.37418L26.2534 1.91892V4.31467ZM19.7347 3.57206C19.773 3.34981 19.773 3.13296 19.7347 2.92687V3.57206ZM26.2534 1.91892V4.31467L26.145 4.57463C24.5274 3.4203 22.1392 4.47181 22.0034 5.69124C21.8681 6.96499 22.8396 7.99495 25.32 7.2254L24.4676 9.50173C21.195 9.86495 19.9249 8.56965 19.7347 7.05748V6.20083C19.7837 5.80528 19.8867 5.4205 20.0279 5.06267C21.6401 1.06226 24.2558 1.96202 25.2494 1.88614L25.396 1.44165L26.2534 1.91892V1.91892ZM26.2534 7.62095L25.4338 9.38814H26.2534V7.62095ZM16.7931 9.3392C18.546 8.99258 20.2666 6.88912 18.5406 5.21442C19.2137 4.85659 19.6318 4.21185 19.7347 3.57206V2.92687C19.6156 2.26014 19.0999 1.71822 18.1284 1.70206L16.7931 1.67467V3.15989H17.3465C17.9382 3.15989 17.8622 4.68867 17.124 4.68867H16.7931V5.85961C17.5911 6.01136 17.3087 7.11675 16.7931 7.45842V9.3392V9.3392ZM19.7347 6.20083V7.05748C19.7024 6.77552 19.7024 6.48818 19.7347 6.20083ZM14.4808 1.62618L13.4009 3.71842L13.8838 3.68026L12.5813 9.38814H16.3102C16.473 9.38814 16.6303 9.37197 16.7931 9.3392V7.45842C16.7009 7.52352 16.5975 7.56124 16.4945 7.56124H15.1539L15.599 5.84299H16.6029C16.6735 5.84299 16.7387 5.84838 16.7931 5.85961V4.68867H15.8593L16.2338 3.15989H16.7931V1.67467L14.4808 1.62618V1.62618Z" fill="#003399"/>
</svg>
