<svg width="40" height="11" viewBox="0 0 40 11" fill="none" xmlns="http://www.w3.org/2000/svg">
<path fill-rule="evenodd" clip-rule="evenodd" d="M5.27409 0.0196744C3.34548 0.189275 1.78252 1.1388 0.833278 2.60446C0.216433 3.55679 -0.0735233 4.68506 0.0158933 5.84294C0.234683 8.67565 2.85271 11.074 6.20368 10.827C9.21026 10.6054 11.6909 8.09053 11.4368 4.99735C11.3437 3.86487 10.9204 2.93151 10.2419 2.08873C9.93466 1.70715 9.87408 1.70092 9.55324 1.38853C9.1554 1.00103 8.31404 0.556192 7.77711 0.359378C7.05713 0.0953873 6.14039 -0.0565406 5.27409 0.0196744V0.0196744Z" fill="#108DE8"/>
<path fill-rule="evenodd" clip-rule="evenodd" d="M2.41036 3.84193C2.33725 4.03825 2.38078 6.22097 2.38078 6.62584C2.38078 7.06385 2.28779 7.20061 3.02473 7.43498C4.97591 8.05545 6.90798 5.95165 8.84815 6.99255C8.93811 7.04075 9.04761 7.13966 9.07331 6.9799L9.07407 4.172C9.07417 3.86995 9.10322 3.77536 8.88778 3.63588C7.15161 2.51124 5.27181 4.43488 3.51015 4.21909C2.8582 4.13926 2.58823 3.82998 2.41036 3.84193V3.84193Z" fill="white"/>
<path fill-rule="evenodd" clip-rule="evenodd" d="M15.8151 8.17047C16.5757 8.22098 17.4617 7.67251 17.7739 7.35842C18.8582 6.26721 18.8844 4.68838 17.7928 3.54576C17.3863 3.1203 16.4347 2.65006 15.8277 2.71593L13.6356 2.71744L13.635 8.16364L15.8151 8.17047V8.17047ZM14.8664 6.99039C15.0279 7.0165 15.6911 7.00676 15.8732 6.9912C17.3707 6.86387 17.8997 4.96 16.6407 4.16251C16.4318 4.03006 16.1993 3.92452 15.8942 3.89299C15.7271 3.87562 15.0135 3.86488 14.8657 3.88968L14.8664 6.99039V6.99039Z" fill="#108DE8"/>
<path fill-rule="evenodd" clip-rule="evenodd" d="M35.0149 8.18066L36.2618 8.18016L36.2631 7.00631L38.7373 7.00671L38.7445 8.18026L39.9908 8.18046C39.9917 7.52817 39.9912 6.88109 39.9912 6.23412C39.9912 5.65131 40.0439 4.92169 39.8892 4.39301C39.6277 3.49821 38.7125 2.70463 37.5082 2.70021C36.2909 2.6958 35.4074 3.48707 35.1253 4.36891C34.9583 4.89077 35.0141 5.63896 35.0141 6.21343C35.0141 6.86814 35.0068 7.52636 35.0149 8.18066V8.18066ZM36.263 5.82533L38.7434 5.82633C38.7495 5.32285 38.8076 4.83353 38.5646 4.44774C38.3907 4.1718 38.024 3.883 37.5089 3.88099C36.9834 3.87899 36.633 4.15623 36.4455 4.44211C36.1998 4.81706 36.2553 5.3333 36.263 5.82533Z" fill="#108DE8"/>
<path fill-rule="evenodd" clip-rule="evenodd" d="M20.7532 8.17947L21.9958 8.18047C21.9966 7.93546 21.9624 7.18446 22.0079 7.00642L24.4726 7.00672L24.4813 8.17967L25.7256 8.18077C25.7191 7.53039 25.7251 6.881 25.7251 6.23423C25.7251 5.67934 25.7804 4.88435 25.624 4.39242C24.9119 2.15206 21.5968 2.13619 20.861 4.37003C20.6944 4.87592 20.7513 5.65011 20.7513 6.21354C20.7513 6.86373 20.7353 7.53149 20.7532 8.17947V8.17947ZM21.9966 5.82534L24.4801 5.82654C24.4853 5.33039 24.5436 4.83183 24.3 4.44684C23.8542 3.74223 22.7205 3.64081 22.1812 4.44343C21.9347 4.81034 21.9885 5.34224 21.9966 5.82534V5.82534Z" fill="#108DE8"/>
<path fill-rule="evenodd" clip-rule="evenodd" d="M27.9128 4.84336L27.8959 5.65693C27.8959 6.33904 27.8594 7.6115 27.8984 8.16489L29.117 8.16549C29.1453 7.77759 29.073 5.00945 29.1502 4.92129C29.1505 4.38336 29.7536 3.8832 30.3637 3.88109C30.7384 3.87978 31.0116 4.02157 31.2105 4.18986C31.3658 4.32131 31.6033 4.62074 31.5988 4.9241C31.6558 4.95392 31.6107 7.84135 31.6287 8.16469L32.8485 8.16549L32.8388 4.85993C32.8693 4.60096 32.7016 4.20061 32.594 3.99737C31.691 2.29061 29.099 2.26802 28.1703 3.96795C28.0614 4.16727 27.8871 4.57847 27.9128 4.84336V4.84336Z" fill="#108DE8"/>
<path fill-rule="evenodd" clip-rule="evenodd" d="M15.815 8.17046L13.6349 8.16363L13.6354 2.71743L15.8275 2.71592C15.7877 2.664 14.8731 2.69503 14.7449 2.69503C14.426 2.69503 13.9225 2.66712 13.6261 2.69945C13.5981 2.78621 13.5867 8.04113 13.6242 8.18271C13.826 8.20691 15.2327 8.18823 15.6774 8.18924L15.7996 8.17729C15.8035 8.17628 15.8099 8.17277 15.815 8.17046V8.17046Z" fill="#79BBE7"/>
<path fill-rule="evenodd" clip-rule="evenodd" d="M31.5986 4.92378C31.6117 5.36933 31.5727 8.0241 31.6174 8.18325L32.8595 8.18827C32.8919 8.06065 32.8719 5.99059 32.8719 5.6772C32.8719 5.52738 32.9151 4.93885 32.8387 4.85962L32.8484 8.16518L31.6285 8.16438C31.6106 7.84104 31.6556 4.95361 31.5986 4.92378Z" fill="#79BBE7"/>
<path fill-rule="evenodd" clip-rule="evenodd" d="M29.1499 4.92118C29.0727 5.00935 29.145 7.77749 29.1167 8.16539L27.8982 8.16479C27.8591 7.6114 27.8956 6.33894 27.8956 5.65682L27.9125 4.84326C27.8432 4.87128 27.8742 6.32127 27.8742 6.50222C27.8742 6.76571 27.8405 8.03304 27.889 8.18407L29.1304 8.18829L29.1499 4.92118V4.92118Z" fill="#79BBE7"/>
</svg>
