<?xml version="1.0" encoding="UTF-8" standalone="no"?>
<!-- Created with Inkscape (http://www.inkscape.org/) -->

<svg
   xmlns:dc="http://purl.org/dc/elements/1.1/"
   xmlns:cc="http://creativecommons.org/ns#"
   xmlns:rdf="http://www.w3.org/1999/02/22-rdf-syntax-ns#"
   xmlns:svg="http://www.w3.org/2000/svg"
   xmlns="http://www.w3.org/2000/svg"
   xmlns:sodipodi="http://sodipodi.sourceforge.net/DTD/sodipodi-0.dtd"
   xmlns:inkscape="http://www.inkscape.org/namespaces/inkscape"
   width="7.12711mm"
   height="7.8305912mm"
   viewBox="0 0 7.1271101 7.8305912"
   version="1.1"
   id="svg8"
   sodipodi:docname="icon_file_img.svg"
   inkscape:version="0.92.5 (2060ec1f9f, 2020-04-08)">
  <defs
     id="defs2" />
  <sodipodi:namedview
     id="base"
     pagecolor="#ffffff"
     bordercolor="#666666"
     borderopacity="1.0"
     inkscape:pageopacity="0.0"
     inkscape:pageshadow="2"
     inkscape:zoom="3.959798"
     inkscape:cx="-21.691898"
     inkscape:cy="1.5193868"
     inkscape:document-units="mm"
     inkscape:current-layer="layer1"
     showgrid="true"
     inkscape:window-width="1366"
     inkscape:window-height="704"
     inkscape:window-x="0"
     inkscape:window-y="795"
     inkscape:window-maximized="1" />
  <metadata
     id="metadata5">
    <rdf:RDF>
      <cc:Work
         rdf:about="">
        <dc:format>image/svg+xml</dc:format>
        <dc:type
           rdf:resource="http://purl.org/dc/dcmitype/StillImage" />
      </cc:Work>
    </rdf:RDF>
  </metadata>
  <g
     inkscape:label="Layer 1"
     inkscape:groupmode="layer"
     id="layer1"
     transform="translate(74.523841,-58.975805)">
    <path
       style="fill:#2989a8;fill-opacity:1;stroke-width:0.99999994"
       d="m -73.742364,66.737426 c -0.02036,-0.03805 -0.03701,-0.286883 -0.03701,-0.552983 v -0.483819 l -0.366511,-0.01027 -0.366509,-0.0101 -0.0093,-1.604956 c -0.0067,-1.155237 0.0019,-1.618633 0.0312,-1.653764 0.02895,-0.03488 0.136135,-0.04881 0.37582,-0.04881 h 0.335315 v -1.629298 c 0,-1.054737 0.01304,-1.653688 0.03701,-1.698461 0.03597,-0.06724 0.09842,-0.06916 2.226271,-0.06916 h 2.189257 l 0.598535,0.599314 0.598538,0.599314 v 1.097896 1.097895 l 0.366509,0.0101 0.366508,0.0101 v 1.644824 1.644825 l -0.366508,0.01027 -0.366509,0.0101 v 0.53128 c 0,0.45147 -0.0085,0.534538 -0.05656,0.552983 -0.03112,0.0119 -1.285614,0.02169 -2.787792,0.02169 -2.663695,0 -2.732148,-0.0016 -2.768249,-0.06916 z m 5.362301,-0.592341 v -0.411207 h -2.574508 -2.574509 v 0.411207 0.411205 h 2.574509 2.574508 z m 0.778127,-2.100727 0.0093,-1.421343 h -3.343693 -3.343695 v 1.430465 1.430468 l 3.334346,-0.0091 3.334346,-0.0091 z m -5.176246,0.01093 v -0.752956 h 0.161628 0.161628 l -0.0096,0.74196 -0.0096,0.741959 -0.151961,0.01093 -0.151962,0.01093 z m 0.595952,0.725003 c -0.01304,-0.01304 -0.02383,-0.351751 -0.02383,-0.752533 v -0.728692 l 0.240125,0.0106 0.240126,0.0106 0.114978,0.439549 c 0.06322,0.241752 0.121057,0.457815 0.128507,0.480141 0.0075,0.02231 0.07027,-0.175473 0.13959,-0.439549 l 0.126062,-0.480141 0.23906,-0.0106 0.239061,-0.0106 -0.0096,0.743609 -0.0096,0.743609 -0.134081,0.01108 -0.134097,0.01108 -0.0023,-0.547454 c -0.0012,-0.30438 -0.01467,-0.515701 -0.03031,-0.475941 -0.01548,0.03933 -0.08263,0.285453 -0.149305,0.546934 l -0.121237,0.47542 -0.14342,-0.0106 -0.143422,-0.0106 -0.131276,-0.512682 c -0.0722,-0.281977 -0.140585,-0.521997 -0.151962,-0.533378 -0.01141,-0.01141 -0.02069,0.22335 -0.02069,0.521624 v 0.542316 h -0.119183 c -0.06556,0 -0.129926,-0.01076 -0.14303,-0.02383 z m 2.065138,-0.04398 c -0.36511,-0.165824 -0.50103,-0.66563 -0.298171,-1.096437 0.122003,-0.259087 0.401808,-0.396896 0.73586,-0.362419 0.236162,0.02436 0.415073,0.130071 0.490999,0.290073 0.03159,0.06658 0.05744,0.128637 0.05744,0.137895 0,0.0093 -0.06513,0.02727 -0.144756,0.03999 -0.130642,0.0209 -0.153609,0.01255 -0.235599,-0.08483 -0.07774,-0.09237 -0.115532,-0.107969 -0.261636,-0.107969 -0.118124,0 -0.199566,0.02264 -0.264137,0.07343 -0.189991,0.149452 -0.210277,0.577568 -0.03711,0.783352 0.117814,0.140014 0.28928,0.171733 0.497821,0.09209 0.138318,-0.05283 0.159361,-0.07463 0.159361,-0.165176 0,-0.101334 -0.005,-0.104318 -0.178786,-0.104318 h -0.178786 v -0.126499 -0.126486 l 0.330754,0.01027 0.330754,0.01027 0.01043,0.274368 c 0.0093,0.243336 0.0015,0.28258 -0.06751,0.346955 -0.191603,0.178506 -0.677546,0.237732 -0.946883,0.115402 z m 1.737029,-3.382748 v -1.019079 h -0.292646 c -0.362971,0 -0.560813,-0.08354 -0.701972,-0.296429 -0.08255,-0.124512 -0.09847,-0.192616 -0.113854,-0.487327 l -0.01787,-0.34259 -2.011335,-0.0093 -2.011335,-0.0093 v 1.591486 1.591487 h 2.57451 2.574508 z m -4.436098,0.426407 c -0.03433,-0.04137 -0.03699,-0.07326 -0.0096,-0.116527 0.03409,-0.05408 0.202211,-0.06049 1.821537,-0.06949 0.981179,-0.0054 1.821181,-8.84e-4 1.866672,0.0101 0.06521,0.01581 0.08034,0.04064 0.07152,0.117179 l -0.01125,0.09708 -1.845782,0.0093 c -1.652093,0.0083 -1.850746,0.0033 -1.893051,-0.04769 z m 0,-0.643628 c -0.03433,-0.04137 -0.03699,-0.07325 -0.0096,-0.116526 0.03428,-0.05435 0.200372,-0.05957 1.893052,-0.05957 h 1.855469 v 0.107268 0.107267 l -1.845784,0.0093 c -1.652092,0.0083 -1.850745,0.0033 -1.893052,-0.0477 z m -2.64e-4,-0.643947 c -0.0341,-0.0411 -0.03669,-0.07297 -0.0095,-0.116217 0.03377,-0.05356 0.1709,-0.06054 1.356694,-0.06901 1.192038,-0.0085 1.323301,-0.0037 1.362438,0.04964 0.03015,0.04112 0.03249,0.07931 0.0077,0.125654 -0.03376,0.06308 -0.104807,0.06656 -1.353003,0.06656 -1.158367,0 -1.32305,-0.0068 -1.364378,-0.05665 z m 3.935763,-0.7479 c -0.186052,-0.186832 -0.352879,-0.339693 -0.370726,-0.339693 -0.04049,0 8.84e-4,0.375176 0.05194,0.470516 0.06719,0.125556 0.250631,0.208591 0.461101,0.208735 l 0.195958,1.32e-4 z"
       id="path844"
       inkscape:connector-curvature="0" />
  </g>
</svg>
