<svg width="22" height="21" viewBox="0 0 22 21" fill="none" xmlns="http://www.w3.org/2000/svg">
<path d="M8.5 11L9.24995 10.3125L9.99995 10L11 10.625L11.75 10L12.75 10.3125L13.5 11.5L12.75 12.8125L11.5 14.6875L11 15C10.8 14.75 10.25 14.5833 9.99995 14.375L10 13.5L8.63843 12.8935L9 12L8.5 11.5H8.62305L8.5 11Z" fill="#FFF6D8"/>
<path d="M8.5 11L9.24995 10.3125L9.99995 10L11 10.625L11.75 10L12.75 10.3125L13.5 11.5L12.75 12.8125L11.5 14.6875L11 15C10.8 14.75 10.25 14.5833 9.99995 14.375L10 13.5L8.63843 12.8935L9 12L8.5 11.5H9L8.63843 11.5625L8.5 11Z" stroke="#FFF6D8" stroke-width="0.3"/>
<path d="M12.2646 9.50143C11.7851 9.48098 11.3219 9.68126 11.0004 10.0479C10.0144 8.88196 7.92071 9.7045 7.96631 11.3231C7.96631 12.8375 9.32669 14.2376 10.6415 15.596C10.7363 15.6945 10.8657 15.75 11.0004 15.75C11.1352 15.75 11.2646 15.6945 11.3594 15.596C12.6742 14.2376 14.0345 12.8375 14.0345 11.3231C14.0345 10.84 13.8481 10.3767 13.5162 10.0349C13.1841 9.69339 12.734 9.50143 12.2646 9.50143ZM11.0004 14.4874C9.91815 13.4465 7.82974 10.9378 9.73621 10.5423C10.0751 10.5423 10.2419 10.636 10.5503 11.2294C10.6361 11.4044 10.8101 11.515 11.0004 11.5157C11.1907 11.515 11.3648 11.4044 11.4506 11.2294C11.7389 10.636 11.926 10.5423 12.2647 10.5423C14.1711 10.9378 12.0877 13.4309 11.0004 14.4874Z" fill="#9B9FA6"/>
<path d="M1.89664 5C1.68718 5 1.51733 5.22389 1.51733 5.5C1.51733 5.77612 1.68718 6 1.89664 6C2.10611 6 2.27595 5.77612 2.27595 5.5C2.27595 5.22389 2.10611 5 1.89664 5Z" fill="#9B9FA6"/>
<path d="M3.41373 5C3.20427 5 3.03442 5.22389 3.03442 5.5C3.03442 5.77612 3.20427 6 3.41373 6C3.6232 6 3.79304 5.77612 3.79304 5.5C3.79304 5.22389 3.6232 5 3.41373 5Z" fill="#9B9FA6"/>
<path d="M20.2551 2.99998H16.5152L15.1081 0.225C15.0383 0.0852687 14.9199 0.00089143 14.7931 0H7.20688C7.08005 0.000892858 6.96186 0.0852687 6.89209 0.225L5.48474 2.99998H1.74483C1.28237 3.00131 0.839208 3.24395 0.512221 3.67518C0.185065 4.1062 0.000997044 4.69038 0 5.29998V18.7C0.00101603 19.3096 0.185082 19.8938 0.512221 20.3248C0.839208 20.756 1.28237 20.9987 1.74483 21H20.2552C20.7176 20.9987 21.1608 20.756 21.4878 20.3248C21.8149 19.8938 21.999 19.3096 22 18.7V5.29998C21.999 4.69038 21.8149 4.1062 21.4878 3.67518C21.1608 3.24392 20.7176 3.00129 20.2551 2.99998ZM21.2414 18.7C21.2403 19.0444 21.1362 19.3743 20.9514 19.6178C20.7667 19.8613 20.5164 19.9986 20.2552 20H1.74482C1.48354 19.9986 1.23325 19.8614 1.04854 19.6178C0.863822 19.3743 0.759648 19.0444 0.758634 18.7V5.29998C0.75965 4.95556 0.863792 4.62563 1.04854 4.38215C1.23328 4.13866 1.48355 4.00134 1.74482 4.00001H5.68965C5.81648 3.99911 5.93467 3.91474 6.00444 3.775L7.41179 1.00003H14.5883L15.9955 3.775C16.0653 3.91474 16.1836 3.99911 16.3105 4.00001H20.2553C20.5166 4.00134 20.7669 4.13862 20.9516 4.38215C21.1363 4.62567 21.2405 4.95558 21.2415 5.29998L21.2414 18.7Z" fill="#9B9FA6" fill-opacity="0.8"/>
<path d="M11 5C9.5917 5 8.24092 5.73749 7.24504 7.05023C6.24917 8.36298 5.6897 10.1435 5.6897 12C5.9818 21.2852 16.0182 21.2852 16.3104 12C16.3104 10.1435 15.7509 8.36298 14.755 7.05023C13.7592 5.73749 12.4084 5 11 5V5ZM11 18C9.79284 18 8.6351 17.3679 7.7815 16.2426C6.9279 15.1174 6.44832 13.5913 6.44832 12C6.69859 4.04 15.3016 4.04 15.5518 12C15.5518 13.5913 15.0722 15.1174 14.2186 16.2426C13.3649 17.3678 12.2072 18 11 18Z" fill="#9B9FA6"/>
</svg>
