<svg width="22" height="22" viewBox="0 0 22 22" fill="none" xmlns="http://www.w3.org/2000/svg">
<circle cx="7.5" cy="10.5" r="5.5" fill="#FFF6D8"/>
<path d="M21.787 12.7682C21.3769 11.0558 20.3331 9.52961 18.9164 8.48731C17.5743 7.51946 15.8967 6.99831 14.2191 7.07276C13.4362 5.43486 12.1314 4.13198 10.4165 3.38748C10.2673 3.31303 10.0437 3.38748 9.9691 3.5736C9.89453 3.7225 9.9691 3.94585 10.1555 4.0203C11.7586 4.72758 13.0261 5.95601 13.6971 7.55668C13.8463 7.89171 13.9581 8.26396 14.0699 8.63621C14.1072 8.74789 14.1072 8.82234 14.1445 8.93401C14.48 10.6091 14.1818 12.3215 13.2871 13.7733C12.4669 15.1506 11.1621 16.1557 9.67085 16.6768C9.63357 16.6024 9.63357 16.5651 9.59629 16.4907C9.55901 16.379 9.52173 16.2301 9.44717 16.1184V16.0812C9.44717 16.0068 9.40989 15.9695 9.40989 15.8951C12.2432 14.9272 13.9954 11.9865 13.3616 9.00846C13.3616 8.93401 13.3243 8.85956 13.3243 8.82234C13.2125 8.37563 13.0634 7.96616 12.8397 7.55668C12.2432 6.36548 11.2366 5.39763 10.0437 4.83926C9.44717 4.57868 8.85068 4.39256 8.21691 4.31811L10.5283 2.15905C10.6401 2.04738 10.6774 1.86125 10.5656 1.74958L9.48445 0.1489C9.40989 0.0744501 9.33533 0 9.22349 0H5.7564C5.64456 0 5.53272 0.0372251 5.49544 0.1489L4.4143 1.74958C4.33974 1.89848 4.33974 2.04738 4.45159 2.15905L6.76298 4.31811C6.53929 4.35533 6.27833 4.39256 6.05465 4.42978C2.88581 5.21151 0.909941 8.45008 1.69283 11.6514C2.02835 12.9543 2.77396 14.1455 3.8551 14.9645C4.86167 15.709 6.05465 16.1557 7.2849 16.1929C7.2849 16.2301 7.2849 16.2301 7.2849 16.2673C7.2849 16.3418 7.32218 16.379 7.32218 16.4535V16.4907C7.32218 16.5279 7.35946 16.6024 7.35946 16.6396V16.6768C7.35946 16.714 7.39674 16.7885 7.39674 16.8257C7.39674 16.8257 7.39674 16.8257 7.39674 16.8629C7.43402 16.9374 7.43402 16.9746 7.4713 17.0491C6.05465 17.0491 4.63799 16.6024 3.44501 15.7462C2.1402 14.8156 1.20818 13.401 0.83538 11.8376C0.462575 10.2741 0.648977 8.59899 1.35731 7.18443C2.06564 5.76988 3.25861 4.6159 4.71255 4.0203C4.86167 3.94585 4.93623 3.75973 4.89895 3.61083C4.82439 3.46193 4.63799 3.38748 4.48887 3.4247C2.88581 4.13198 1.58099 5.36041 0.798099 6.92386C0.0152095 8.48731 -0.208473 10.3113 0.201612 12.0237C0.611697 13.736 1.65555 15.2623 3.07221 16.3046C4.33974 17.2352 5.86824 17.7191 7.43402 17.7191C7.54586 17.7191 7.62043 17.7191 7.73227 17.7191C8.96252 20.3249 11.6094 22 14.48 22C15.0765 22 15.6357 21.9256 16.2322 21.7767C20.3331 20.8088 22.7563 16.7513 21.787 12.7682ZM13.8835 14.1083C14.7783 12.6193 15.1511 10.9069 14.8901 9.19459C15.934 9.26904 16.9778 9.64129 17.8353 10.3113C18.8046 11.0558 19.4756 12.0609 19.7366 13.2521C20.4449 16.1184 18.6927 18.9848 15.8221 19.692C14.4428 20.0271 12.9888 19.8037 11.7958 19.0592C11.0502 18.6125 10.4165 17.9797 10.0064 17.2352C11.6094 16.714 12.9888 15.5973 13.8835 14.1083ZM9.26077 15.2623C9.11164 14.0711 9.33533 12.8799 9.93181 11.8376C10.5656 10.758 11.5722 9.93909 12.7651 9.52961C13.1379 12.0237 11.6467 14.4433 9.26077 15.2623ZM5.9428 0.670051H9.07436L9.70813 1.60068H5.30904L5.9428 0.670051ZM5.53272 2.27073H9.48445L7.50858 4.09475L5.53272 2.27073ZM7.17306 15.5601C6.12921 15.4856 5.08535 15.1134 4.26518 14.4805C3.29589 13.736 2.62484 12.6937 2.3266 11.5025C1.61827 8.67344 3.37045 5.76988 6.24105 5.09983C7.43402 4.80203 8.66428 4.91371 9.78269 5.43486C10.752 5.88156 11.5722 6.62606 12.0941 7.51946C10.4165 8.11506 9.03708 9.26904 8.14235 10.7953C7.24762 12.247 6.94938 13.9222 7.17306 15.5601ZM16.1577 21.1438C15.6357 21.2927 15.0765 21.33 14.5546 21.33C11.8331 21.33 9.37261 19.692 8.29147 17.198C8.29147 17.1607 8.25419 17.1607 8.25419 17.1235V17.0863C8.25419 17.0491 8.21691 17.0118 8.21691 16.9746C8.21691 16.9374 8.17963 16.9002 8.17963 16.8629C8.17963 16.8257 8.14235 16.7885 8.14235 16.714C8.14235 16.6768 8.10507 16.6396 8.10507 16.5651C8.10507 16.5279 8.06779 16.4907 8.06779 16.4535V16.4162C8.06779 16.379 8.06779 16.3418 8.03051 16.3046C8.03051 16.2673 7.99323 16.2301 7.99323 16.1557C7.99323 16.1184 7.95595 16.044 7.95595 16.0068C7.95595 16.0068 7.95595 15.9695 7.95595 15.9323C7.95595 15.8951 7.95595 15.8951 7.95595 15.8579V15.8206C7.65771 14.22 7.91867 12.5448 8.73884 11.1303C9.55901 9.67851 10.8638 8.63621 12.4296 8.11506C12.5414 8.37563 12.616 8.63621 12.6906 8.89679C11.3112 9.34349 10.1928 10.2741 9.44717 11.5398C8.70156 12.8426 8.4406 14.3316 8.73884 15.7834C8.73884 15.8206 8.73884 15.8206 8.73884 15.8579C8.73884 15.8951 8.73884 15.9323 8.77612 15.9695C8.77612 16.0068 8.8134 16.0812 8.8134 16.1184V16.1557C8.8134 16.1929 8.85068 16.2301 8.85068 16.2673V16.3046C8.85068 16.3418 8.88796 16.379 8.88796 16.4162C8.88796 16.4162 8.88796 16.4162 8.88796 16.4535C8.88796 16.4907 8.92524 16.5651 8.92524 16.6024C9.37261 17.868 10.2673 18.9103 11.423 19.6548C12.355 20.2132 13.4362 20.511 14.5173 20.511C15.002 20.511 15.4866 20.4366 15.934 20.3249C19.1401 19.5432 21.116 16.3046 20.3331 13.1032C19.9975 11.7631 19.2519 10.6464 18.1708 9.79019C17.1642 9.00846 15.9713 8.59899 14.7037 8.52454C14.7037 8.48731 14.7037 8.48731 14.7037 8.45008C14.6292 8.18951 14.5546 7.96616 14.48 7.70558C15.934 7.70558 17.3506 8.15228 18.5063 9.00846C19.8111 9.93909 20.7432 11.3164 21.116 12.8799C22.048 16.5651 19.8111 20.2504 16.1577 21.1438Z" fill="#9B9FA6"/>
</svg>
