<svg width="21" height="21" viewBox="0 0 21 21" fill="none" xmlns="http://www.w3.org/2000/svg">
<path d="M11 11C11 12.6569 9.88071 14 8.5 14C7.11929 14 5.5 12.6569 5.5 11C5.5 9.34315 7.11929 8 8.5 8C9.88071 8 11 9.34315 11 11Z" fill="#FFF6D8"/>
<path d="M15.5 11C15.5 12.6569 13.8807 14 12.5 14C11.1193 14 10 12.6569 10 11C10 9.34315 11.1193 8 12.5 8C13.8807 8 15.5 9.34315 15.5 11Z" fill="#FFF6D8"/>
<path d="M18.6553 0H2.34463C1.04999 0 0 1.12541 0 2.51306V14.3082C0 15.6958 1.04999 16.8212 2.34463 16.8212H7.74252L9.92918 20.7056L9.93428 20.7111C10.1076 21.0006 10.4695 21.088 10.7396 20.9023C10.811 20.8531 10.8721 20.7875 10.918 20.7111L10.9231 20.7056L13.1097 16.8212H18.6554C19.95 16.8212 21 15.6958 21 14.3082V2.51306C21 1.12541 19.95 0 18.6554 0H18.6553ZM20.3883 14.3081C20.3883 15.3351 19.6136 16.1656 18.6553 16.1656H12.9414C12.8344 16.1656 12.7324 16.2257 12.6815 16.324L10.4286 20.3176L8.17564 16.324C8.11957 16.2257 8.02273 16.1656 7.91569 16.1656H2.34444C1.38621 16.1656 0.611407 15.3352 0.611407 14.3081V2.51296C0.611407 1.4859 1.38616 0.655438 2.34444 0.655438H18.6551C19.6133 0.655438 20.3881 1.48585 20.3881 2.51296L20.3883 14.3081Z" fill="#9B9FA6"/>
<path d="M8.77702 5.70371L10.2807 7.30444C10.3979 7.4301 10.5916 7.4301 10.7139 7.30444L12.2176 5.70371C12.7477 5.13553 12.7477 4.21771 12.2176 3.65498C11.7588 3.16328 11.0401 3.09225 10.4999 3.48015C9.95959 3.0868 9.23581 3.16328 8.77706 3.65498C8.25205 4.21771 8.25205 5.13553 8.77706 5.70371H8.77702ZM9.21027 4.11392C9.34789 3.96094 9.54158 3.879 9.74037 3.879C9.93406 3.879 10.1176 3.96094 10.2552 4.10846L10.2807 4.13577C10.3979 4.26143 10.5916 4.26143 10.7139 4.13577L10.7343 4.11392C11.0197 3.79705 11.4887 3.79159 11.7843 4.09753C12.0799 4.40347 12.085 4.90611 11.7996 5.22294L11.7843 5.23933L10.4999 6.60515L9.21029 5.23389C8.92485 4.92248 8.92485 4.4253 9.21029 4.11392L9.21027 4.11392Z" fill="#9B9FA6"/>
<path d="M10.4999 2.404C10.6681 2.404 10.8057 2.2565 10.8057 2.07621V1.38236C10.8057 1.20207 10.6681 1.05457 10.4999 1.05457C10.3317 1.05457 10.1941 1.20207 10.1941 1.38236V2.07621C10.1941 2.26196 10.3317 2.404 10.4999 2.404Z" fill="#9B9FA6"/>
<path d="M11.8304 2.75916C11.9629 2.87389 12.1566 2.84657 12.2586 2.70452L12.6459 2.18005C12.753 2.03801 12.7326 1.83587 12.6052 1.72114C12.4726 1.60641 12.2841 1.62827 12.177 1.76485L12.1719 1.77031L11.7845 2.29478C11.6775 2.44229 11.703 2.64989 11.8304 2.75916V2.75916Z" fill="#9B9FA6"/>
<path d="M8.34888 2.18524L8.73626 2.70971C8.8433 2.85176 9.03189 2.87361 9.16441 2.75888C9.29693 2.64416 9.31732 2.44201 9.21539 2.29997L8.82801 1.7755C8.72607 1.63345 8.53237 1.60614 8.39985 1.71541C8.26733 1.82467 8.24185 2.03228 8.34379 2.17432C8.34379 2.17978 8.34888 2.18525 8.34888 2.18525L8.34888 2.18524Z" fill="#9B9FA6"/>
<path d="M10.5358 8.68671L10.5001 8.72495C9.27677 7.39739 7.27872 7.38101 6.04014 8.69217C4.80155 10.0033 4.78627 12.1449 6.00955 13.4725C6.60084 14.1171 7.41124 14.4832 8.25735 14.4777C9.10345 14.4777 9.9139 14.1117 10.5051 13.4671C11.7284 14.8001 13.7265 14.8165 14.9651 13.5053C16.2037 12.1941 16.2241 10.0525 15.0008 8.72497C13.7774 7.39741 11.7743 7.37553 10.5357 8.68673L10.5358 8.68671ZM8.25226 13.8275C6.84544 13.8275 5.70883 12.6092 5.70883 11.1014C5.70883 9.59899 6.85057 8.37522 8.25226 8.37522C9.65908 8.37522 10.7957 9.59354 10.7957 11.1014C10.7957 12.6092 9.65903 13.8221 8.25226 13.8275ZM12.7479 13.8275C12.0394 13.8275 11.3666 13.5106 10.8875 12.9588C11.5807 11.8334 11.5807 10.3693 10.8875 9.24385C11.3666 8.68661 12.0394 8.37517 12.7479 8.37517C14.1547 8.37517 15.2913 9.59349 15.2913 11.1013C15.2913 12.6037 14.1547 13.822 12.7479 13.8275V13.8275Z" fill="#9B9FA6"/>
</svg>
