<svg width="22" height="22" viewBox="0 0 22 22" fill="none" xmlns="http://www.w3.org/2000/svg">
<path d="M8.5 10.5L8 12V12.5L9.3273 12.4424L9.5 12.5H10L10.5 13.5V14.5L10 17C10.5 17.3333 11.6 17.6 12 18L13 17.5L15.5 14.5L16 12L15.5 10.5L13.5 10L12 11L10 10L8.5 10.5Z" fill="#FFF6D8" stroke="#FFF6D8" stroke-width="0.3"/>
<path d="M7.57445 18.6267C7.61717 18.6536 7.66288 18.6667 7.70901 18.6667C7.75515 18.6667 7.80085 18.6536 7.84358 18.6267C8.01562 18.5199 8.92212 17.9332 9.70213 17.0472C10.7078 18.0048 11.6666 18.6008 11.7094 18.6271C11.7516 18.6536 11.7967 18.6667 11.8426 18.6667C11.888 18.6667 11.9336 18.654 11.9759 18.6277C12.1523 18.519 16.294 15.9318 16.294 12.7272C16.294 10.237 14.7729 9.33337 13.7503 9.33337C12.8644 9.33337 12.2304 9.96158 11.8425 10.4394C11.4545 9.96155 10.8206 9.33337 9.9347 9.33337C8.97314 9.33337 7.57097 10.1335 7.40744 12.3C7.14427 12.071 6.80658 11.8788 6.3881 11.8788C5.46444 11.8788 4.5293 12.7383 4.5293 14.3814C4.5293 16.665 7.26288 18.4329 7.57445 18.6267ZM9.93476 10.1819C10.7571 10.1819 11.3169 10.929 11.6177 11.3303C11.742 11.4962 11.943 11.4962 12.0672 11.3303C12.3682 10.929 12.928 10.1819 13.7503 10.1819C14.4101 10.1819 15.6581 10.7139 15.6581 12.7272C15.6581 14.8526 13.0234 17.0069 11.844 17.772C11.5652 17.5869 10.8821 17.1127 10.1683 16.4487C10.5836 15.8421 10.8888 15.1413 10.8888 14.3815C10.8888 12.7383 9.95366 11.8789 9.03 11.8789C8.63438 11.8789 8.31103 12.0503 8.05452 12.2628C8.23153 10.6333 9.32936 10.1819 9.93476 10.1819ZM6.38816 12.7272C6.91566 12.7272 7.28457 13.2253 7.48287 13.4926C7.60211 13.6541 7.81574 13.6541 7.93496 13.4926C8.13312 13.2253 8.50232 12.7272 9.02982 12.7272C9.45269 12.7272 10.2527 13.0731 10.2527 14.3814C10.2527 15.7806 8.52802 17.2233 7.70897 17.7705C6.88993 17.2241 5.16525 15.7824 5.16525 14.3814C5.16525 13.0731 5.96533 12.7272 6.38816 12.7272Z" fill="#9B9FA6"/>
<path d="M1 7.7V4.1C1 2.99543 1.89543 2.1 3 2.1H19C20.1046 2.1 21 2.99543 21 4.1V7.7M1 7.7V19C1 20.1046 1.89543 21 3 21H19C20.1046 21 21 20.1046 21 19V7.7M1 7.7H21M17.4706 0V4.2M4.52941 0V4.2" stroke="#9B9FA6" stroke-width="0.6"/>
</svg>
