<svg width="206" height="9" viewBox="0 0 206 9" fill="none" xmlns="http://www.w3.org/2000/svg">
<path d="M0.333333 4C0.333333 5.47276 1.52724 6.66667 3 6.66667C4.47276 6.66667 5.66667 5.47276 5.66667 4C5.66667 2.52724 4.47276 1.33333 3 1.33333C1.52724 1.33333 0.333333 2.52724 0.333333 4ZM200.333 4C200.333 5.47276 201.527 6.66667 203 6.66667C204.473 6.66667 205.667 5.47276 205.667 4C205.667 2.52724 204.473 1.33333 203 1.33333C201.527 1.33333 200.333 2.52724 200.333 4ZM3 4.5H203V3.5H3V4.5Z" fill="#81B2CA"/>
<path d="M105.35 0C104.015 0 102.929 1.189 102.9 2.667H102.899C102.87 1.189 101.785 0 100.45 0C99.097 0 98 1.221 98 2.728C98 2.794 98.002 2.858 98.006 2.922C98.015 6.127 102.882 8.722 102.9 8.721C102.917 8.721 107.785 6.127 107.794 2.922C107.798 2.858 107.8 2.793 107.8 2.728C107.8 1.222 106.703 0 105.35 0Z" fill="#E0A3B5"/>
</svg>
