<?xml version="1.0" encoding="UTF-8" standalone="no"?>
<!-- Svg Vector Icons : http://www.onlinewebfonts.com/icon -->

<svg
   xmlns:dc="http://purl.org/dc/elements/1.1/"
   xmlns:cc="http://creativecommons.org/ns#"
   xmlns:rdf="http://www.w3.org/1999/02/22-rdf-syntax-ns#"
   xmlns:svg="http://www.w3.org/2000/svg"
   xmlns="http://www.w3.org/2000/svg"
   xmlns:sodipodi="http://sodipodi.sourceforge.net/DTD/sodipodi-0.dtd"
   xmlns:inkscape="http://www.inkscape.org/namespaces/inkscape"
   version="1.1"
   x="0px"
   y="0px"
   viewBox="0 0 1000 1000"
   enable-background="new 0 0 1000 1000"
   xml:space="preserve"
   id="svg12"
   sodipodi:docname="9cc0716a65678b1053cdf9bf281807c2.svg"
   inkscape:version="0.92.5 (2060ec1f9f, 2020-04-08)"><defs
   id="defs16" /><sodipodi:namedview
   pagecolor="#ffffff"
   bordercolor="#666666"
   borderopacity="1"
   objecttolerance="10"
   gridtolerance="10"
   guidetolerance="10"
   inkscape:pageopacity="0"
   inkscape:pageshadow="2"
   inkscape:window-width="1366"
   inkscape:window-height="704"
   id="namedview14"
   showgrid="false"
   inkscape:zoom="0.236"
   inkscape:cx="500"
   inkscape:cy="500"
   inkscape:window-x="0"
   inkscape:window-y="795"
   inkscape:window-maximized="1"
   inkscape:current-layer="svg12" />
<metadata
   id="metadata2"> Svg Vector Icons : http://www.onlinewebfonts.com/icon <rdf:RDF><cc:Work
     rdf:about=""><dc:format>image/svg+xml</dc:format><dc:type
       rdf:resource="http://purl.org/dc/dcmitype/StillImage" /></cc:Work></rdf:RDF></metadata>
<path
   d="M 474.15,10.34 C 432.71,14.56 402.79,20.12 372.09,29.52 185.44,85.92 49.04,249.18 28.32,441.2 c -2.69,23.98 -2.69,78.84 0,102.82 5.95,55.44 22.44,111.46 47.96,163.06 l 12.66,25.9 -40.48,121.44 C 9.52,971.44 8.17,976.24 10.86,981.22 c 1.73,2.88 5.18,6.52 8.06,8.06 4.8,2.68 12.66,0.96 137.35,-31.85 l 132.37,-34.91 21.68,9.78 c 94.19,42.01 201.81,53.14 300.99,31.08 C 781.47,925.39 919.97,796.48 970.62,628.82 985.01,581.63 990.19,544.41 990,490.7 990,442.93 987.12,419.15 975.8,374.64 927.84,185.49 769.58,42.96 574.86,13.99 555.49,11.11 489.88,8.81 474.15,10.34 Z M 574.86,46.6 c 191.26,28.78 340.12,172.27 375.81,361.61 11.89,64.27 9.78,132.75 -6.52,196.82 -42.2,166.13 -175.53,293.32 -343.39,327.85 -58.7,12.09 -131.41,11.51 -190.87,-1.15 -20.53,-4.6 -65.22,-18.61 -65.22,-20.72 0,-0.77 18.22,-5.37 40.48,-10.36 23.79,-5.18 42.01,-10.17 44.12,-12.08 9.97,-9.02 3.45,-27.43 -9.98,-27.63 -2.69,0 -26.28,4.8 -52.75,10.74 -26.28,5.75 -55.06,12.28 -64.07,14.2 -9.02,1.92 -68.87,17.27 -133.13,34.34 -64.27,16.88 -117.4,30.5 -117.79,29.93 -0.38,-0.38 15.73,-50.26 35.87,-110.69 l 36.83,-109.92 -13.43,-25.9 C 87.02,657.4 72.83,615.97 64.58,569.35 59.21,539.42 57.29,476.5 60.55,444.27 79.73,258.38 210.76,104.91 391.27,57.15 c 23.6,-6.14 48.92,-10.74 74.24,-13.43 22.83,-2.3 85.37,-0.77 109.35,2.88 z"
   id="path4"
   inkscape:connector-curvature="0"
   style="stroke-width:0.1;fill:#00c700;fill-opacity:0.95167285" /><path
   d="m 312.62,176.85 c -13.24,4.22 -19.95,9.59 -44.89,35.11 -47,48.34 -62.73,82.87 -60.62,133.9 1.15,29.54 6.71,49.3 23.4,82.49 14,28.01 33.19,54.87 60.81,85.37 27.24,29.93 199.89,200.85 215.43,213.32 37.79,30.12 74.05,50.45 107.43,60.04 23.6,6.91 53.52,8.44 75.78,4.03 35.87,-7.29 61.2,-22.45 98.99,-59.08 32.42,-31.65 36.26,-38.37 36.26,-64.84 0,-16.69 -0.58,-19.18 -5.75,-28.78 -12.09,-22.06 -55.82,-61.2 -97.07,-86.71 -17.27,-10.74 -34.72,-15.92 -47.58,-14 -16.11,2.3 -23.4,7.29 -41.24,28.97 -22.64,27.05 -34.91,34.53 -53.91,33 -7.1,-0.58 -12.66,-2.49 -17.65,-5.95 -13.62,-9.4 -155.58,-153.47 -158.65,-160.95 -4.6,-11.13 -3.84,-23.79 2.11,-35.68 4.99,-9.98 19.18,-23.98 40.29,-40.29 11.51,-9.02 16.88,-21.1 16.5,-37.79 -0.19,-16.31 -3.07,-24.75 -14.96,-43.35 -27.05,-42.4 -63.88,-83.06 -85.37,-94.58 -8.63,-4.8 -13.24,-5.75 -25.9,-6.33 -9.4,-0.39 -18.42,0.57 -23.41,2.1 z m 31.27,31.66 c 10.36,4.6 32.61,25.9 47.77,45.27 16.31,20.72 36.45,52.18 39.13,60.81 2.69,8.25 1.73,10.55 -7.48,18.03 -22.64,18.22 -38.17,34.15 -43.35,43.74 -3.07,5.95 -6.14,9.98 -6.71,9.21 -2.3,-2.49 -7.29,-20.53 -9.21,-33 -2.3,-14.58 -7.87,-21.1 -18.22,-21.1 -9.59,0 -15.54,7.29 -14.96,18.99 0.96,24.17 13.81,58.13 33,87.09 11.7,17.65 22.64,29.35 94,100.33 54.48,54.29 85.56,83.64 95.53,90.55 33.19,23.02 80.57,40.67 110.31,41.05 14.39,0.19 21.87,-15.35 12.47,-26.28 -3.45,-3.84 -7.29,-5.37 -16.88,-6.91 -15.54,-2.3 -42.2,-9.4 -42.2,-11.13 0,-0.58 4.03,-3.26 8.82,-5.95 8.25,-4.22 33.96,-30.5 42.01,-42.97 8.06,-12.08 15.16,-10.74 44.12,8.06 41.24,26.67 74.05,56.78 80.57,73.86 5.56,14.96 3.45,20.14 -17.84,42.01 -34.91,36.06 -61.96,53.71 -91.51,60.04 -43.93,9.21 -91.7,-7.29 -146.56,-50.65 C 512.32,690.21 317.99,496.84 295.74,469.6 258.91,424.9 240.49,386.54 238,348.93 c -2.88,-41.82 14.2,-76.35 60.04,-121.43 23.79,-23.6 30.12,-26.09 45.85,-18.99 z"
   id="path6"
   inkscape:connector-curvature="0"
   style="stroke-width:0.1;fill:#00c700;fill-opacity:0.95167285" />
</svg>